g Bboard3
v 0.04098948 -1.215267 1.428983
v 0.04098948 0.8825737 -3.786506
v 0.04098948 -1.215267 -3.786506
v 0.04098948 0.8825737 1.428983
v 0.04098948 3.669121 -3.786506
v 0.04098948 3.669121 1.428983
v -0.03876935 -1.215267 -3.786506
v -0.03876935 0.8825737 -3.786506
v -0.03876935 0.8825737 1.428983
v -0.03876935 -1.215267 1.428983
v -0.03876935 0.8825737 1.428983
v 0.01809558 -1.215267 1.428983
v -0.03876935 -1.215267 1.428983
v 0.009230985 0.8825737 1.428983
v 0.04098948 -1.215267 1.428983
v 0.04098948 0.8825737 1.428983
v 0.04098948 3.669121 1.428983
v 0.009230985 3.669121 1.428983
v -0.03876935 -1.215267 1.428983
v 0.01809558 -1.215267 -3.786506
v -0.03876935 -1.215267 -3.786506
v 0.01809558 -1.215267 1.428983
v 0.04098948 -1.215267 -3.786506
v 0.04098948 -1.215267 1.428983
v -0.03876935 -1.215267 -3.786506
v 0.009230985 0.8825737 -3.786506
v -0.03876935 0.8825737 -3.786506
v 0.01809558 -1.215267 -3.786506
v 0.04098948 0.8825737 -3.786506
v 0.04098948 -1.215267 -3.786506
v 0.009230985 3.669121 -3.786506
v 0.04098948 3.669121 -3.786506
v -0.03876935 0.8825737 -3.786506
v 0.009230985 0.8825737 -3.786506
v 0.009230985 0.8825737 1.428983
v -0.03876935 0.8825737 1.428983
v 0.009230985 3.669121 -3.786506
v 0.04098948 3.669121 -3.786506
v 0.04098948 3.669121 1.428983
v 0.009230985 3.669121 1.428983
v 0.009230985 0.8825737 -3.786506
v 0.009230985 3.669121 -3.786506
v 0.009230985 3.669121 1.428983
v 0.009230985 0.8825737 1.428983
vt 0.625 0
vt 0.875 0.25
vt 0.875 0
vt 0.625 0.25
vt 0.875 0.25
vt 0.625 0.25
vt 0.125 0
vt 0.125 0.25
vt 0.375 0.25
vt 0.375 0
vt 0.375 0.25
vt 0.625 0
vt 0.375 0
vt 0.625 0.25
vt 0.625 0
vt 0.625 0.25
vt 0.625 0.25
vt 0.625 0.25
vt 0.375 0
vt 0.875 0
vt 0.125 0
vt 0.625 0
vt 0.875 0
vt 0.625 0
vt 0.125 0
vt 0.875 0.25
vt 0.125 0.25
vt 0.875 0
vt 0.875 0.25
vt 0.875 0
vt 0.875 0.25
vt 0.875 0.25
vt 0.125 0.25
vt 0.875 0.25
vt 0.625 0.25
vt 0.375 0.25
vt 0.875 0.25
vt 0.875 0.25
vt 0.625 0.25
vt 0.625 0.25
vt 0.875 0.25
vt 0.875 0.25
vt 0.625 0.25
vt 0.625 0.25
vn 1 0 0
vn 1 0 0
vn 1 0 0
vn 1 0 0
vn 1 0 0
vn 1 0 0
vn -1 0 0
vn -1 0 0
vn -1 0 0
vn -1 0 0
vn 0 0 1
vn 0 0 1
vn 0 0 1
vn 0 0 1
vn 0 0 1
vn 0 0 1
vn 0 0 1
vn 0 0 1
vn 0 -1 0
vn 0 -1 0
vn 0 -1 0
vn 0 -1 0
vn 0 -1 0
vn 0 -1 0
vn 0 0 -1
vn 0 0 -1
vn 0 0 -1
vn 0 0 -1
vn 0 0 -1
vn 0 0 -1
vn 0 0 -1
vn 0 0 -1
vn 0 1 0
vn 0 1 0
vn 0 1 0
vn 0 1 0
vn 0 1 0
vn 0 1 0
vn 0 1 0
vn 0 1 0
vn -1 0 0
vn -1 0 0
vn -1 0 0
vn -1 0 0
g Bboard3_0
f 3/3/3 2/2/2 1/1/1
f 2/2/2 4/4/4 1/1/1
f 2/2/2 5/5/5 4/4/4
f 5/5/5 6/6/6 4/4/4
f 9/9/9 8/8/8 7/7/7
f 10/10/10 9/9/9 7/7/7
f 13/13/13 12/12/12 11/11/11
f 12/12/12 14/14/14 11/11/11
f 12/12/12 15/15/15 14/14/14
f 15/15/15 16/16/16 14/14/14
f 16/16/16 17/17/17 14/14/14
f 17/17/17 18/18/18 14/14/14
f 21/21/21 20/20/20 19/19/19
f 20/20/20 22/22/22 19/19/19
f 20/20/20 23/23/23 22/22/22
f 23/23/23 24/24/24 22/22/22
f 27/27/27 26/26/26 25/25/25
f 26/26/26 28/28/28 25/25/25
f 26/26/26 29/29/29 28/28/28
f 29/29/29 30/30/30 28/28/28
f 26/26/26 31/31/31 29/29/29
f 31/31/31 32/32/32 29/29/29
f 35/35/35 34/34/34 33/33/33
f 36/36/36 35/35/35 33/33/33
f 39/39/39 38/38/38 37/37/37
f 40/40/40 39/39/39 37/37/37
f 43/43/43 42/42/42 41/41/41
f 44/44/44 43/43/43 41/41/41
