g Body_Male_Legs_Trousers
v 1.444555 -13.26169 -0.02119236
v 1.454921 -13.37979 0.306188
v 1.483269 -13.26774 0.2999903
v 1.422221 -13.37978 -0.008672523
v 1.164364 -13.40956 0.3230467
v 1.371416 -13.26169 -0.2437387
v 1.152 -13.40956 0.006217193
v 0.8818026 -13.37977 0.3285643
v 1.354665 -13.37978 -0.2238577
v 0.8817793 -13.37978 -0.01047592
v 0.8594507 -13.26772 0.3255674
v 0.8594449 -13.26169 -0.02164326
v 1.152 -13.26169 -0.3179209
v 1.377 -12.96697 -0.2503656
v 1.152 -13.37978 -0.2955862
v 0.9493344 -13.37978 -0.2243086
v 0.9325836 -13.26169 -0.2438515
v 1.152 -12.96697 -0.3253656
v 1.404885 -12.42756 -0.2908127
v 0.9270001 -12.96697 -0.2503656
v 1.15768 -12.42756 -0.3735132
v 0.9104755 -12.42756 -0.2908127
v 0.8594449 -13.26169 -0.02164326
v 0.9325836 -13.26169 -0.2438515
v 0.9270001 -12.96697 -0.2503656
v 0.852 -12.96697 -0.02536564
v 0.9104755 -12.42756 -0.2908127
v 0.8280739 -12.42756 -0.04271125
v 0.8594507 -13.26772 0.3255674
v 0.8520001 -12.99115 0.3236498
v 0.8926818 -12.51095 0.3068949
v 0.852 -13.06369 1.189333
v 0.9473592 -12.95712 1.171876
v 0.8594681 -13.28581 1.193281
v 0.8818026 -13.37977 0.3285643
v 1.233437 -12.88556 1.130529
v 1.17804 -12.38019 0.3974054
v 0.8818724 -13.37973 1.1941
v 1.164364 -13.40956 0.3230467
v 1.201457 -13.40956 1.148123
v 1.454921 -13.37979 0.306188
v 1.553022 -13.3798 1.095579
v 1.483269 -13.26774 0.2999903
v 1.519515 -12.95714 1.091939
v 1.444649 -12.51095 0.2941053
v 1.010634 -13.22063 1.694785
v 1.064818 -13.13541 1.642533
v 1.015384 -13.32509 1.689496
v 1.241349 -13.12148 1.69158
v 1.029632 -13.37977 1.670876
v 1.201457 -13.40956 1.148123
v 1.230845 -13.22923 1.769069
v 1.230892 -13.32725 1.761611
v 1.231032 -13.37978 1.739237
v 1.434218 -13.13541 1.621312
v 1.472063 -13.22065 1.691131
v 1.465397 -13.32511 1.685733
v 1.614874 -13.06375 1.082753
v 1.445399 -13.37979 1.66678
v 1.599411 -13.28591 1.088717
v 1.492718 -12.99116 0.2970049
v 1.444555 -13.26169 -0.02119236
v 1.452 -12.96697 -0.02536564
v 1.371416 -13.26169 -0.2437387
v 1.487287 -12.42756 -0.04271125
v 1.377 -12.96697 -0.2503656
v 1.404885 -12.42756 -0.2908127
v -1.44435 -13.26169 -0.02119236
v -1.483064 -13.26774 0.2999899
v -1.454716 -13.37978 0.306188
v -1.422016 -13.37978 -0.008672523
v -1.164159 -13.40956 0.3230467
v -1.371211 -13.26169 -0.2437387
v -1.151795 -13.40956 0.006217193
v -0.8815976 -13.37977 0.3285643
v -1.35446 -13.37978 -0.2238579
v -0.8815743 -13.37978 -0.01047592
v -0.8592455 -13.26772 0.3255674
v -0.8592397 -13.26169 -0.02164326
v -1.151795 -13.26169 -0.3179209
v -1.376795 -12.96697 -0.2503656
v -1.151795 -13.37978 -0.2955862
v -0.9491294 -13.37978 -0.2243086
v -0.9323786 -13.26169 -0.2438515
v -1.151795 -12.96697 -0.3253656
v -1.40469 -12.42756 -0.2861559
v -0.9267948 -12.96697 -0.2503656
v -1.157465 -12.42756 -0.367304
v -0.9102412 -12.42756 -0.2861559
v -0.8592397 -13.26169 -0.02164326
v -0.9267948 -12.96697 -0.2503656
v -0.9323786 -13.26169 -0.2438515
v -0.851795 -12.96697 -0.02536564
v -0.9102412 -12.42756 -0.2861559
v -0.8278331 -12.42756 -0.04271106
v -0.8592455 -13.26772 0.3255674
v -0.851795 -12.99115 0.3236498
v -0.892458 -12.51095 0.3039144
v -0.851795 -13.06369 1.189333
v -0.9471541 -12.95712 1.171876
v -0.859263 -13.28581 1.193281
v -0.8815976 -13.37977 0.3285643
v -1.233232 -12.88556 1.130529
v -1.177824 -12.38019 0.3911962
v -0.8816674 -13.37973 1.1941
v -1.164159 -13.40956 0.3230467
v -1.201252 -13.40956 1.148123
v -1.454716 -13.37978 0.306188
v -1.552817 -13.3798 1.095579
v -1.483064 -13.26774 0.2999899
v -1.519309 -12.95714 1.091939
v -1.44445 -12.51095 0.2911245
v -1.010429 -13.22063 1.694785
v -1.064613 -13.13541 1.642533
v -1.015179 -13.32509 1.689496
v -1.241144 -13.12148 1.69158
v -1.029427 -13.37977 1.670876
v -1.201252 -13.40956 1.148123
v -1.230687 -13.32725 1.761611
v -1.23064 -13.22923 1.769069
v -1.230827 -13.37978 1.739237
v -1.434013 -13.13541 1.621312
v -1.471858 -13.22065 1.691131
v -1.465192 -13.32511 1.685733
v -1.614669 -13.06375 1.082753
v -1.445194 -13.37979 1.66678
v -1.599206 -13.28591 1.088717
v -1.492513 -12.99116 0.2970049
v -1.44435 -13.26169 -0.02119236
v -1.451795 -12.96697 -0.02536564
v -1.371211 -13.26169 -0.2437387
v -1.487098 -12.42756 -0.04271106
v -1.376795 -12.96697 -0.2503656
v -1.40469 -12.42756 -0.2861559
v -0.7559474 -11.68481 -0.09474773
v -0.892458 -12.51095 0.3039144
v -0.8605797 -11.68481 0.2040308
v -0.8278331 -12.42756 -0.04271106
v -0.8605796 -11.68481 -0.3327512
v -0.9102412 -12.42756 -0.2861559
v -1.174477 -11.68481 -0.432344
v -1.157465 -12.42756 -0.367304
v -1.488374 -11.68481 -0.3327512
v -1.40469 -12.42756 -0.2861559
v -1.593006 -11.68481 -0.09474773
v -1.487098 -12.42756 -0.04271106
v -0.8605797 -11.68481 0.2040308
v -0.892458 -12.51095 0.3039144
v -1.177824 -12.38019 0.3911962
v -1.174477 -11.68481 0.3036238
v -1.44445 -12.51095 0.2911245
v -1.488374 -11.68481 0.2040308
v -1.487098 -12.42756 -0.04271106
v -1.593006 -11.68481 -0.09474773
v 0.860902 -11.68481 0.2226583
v 0.8926818 -12.51095 0.3068949
v 0.8280739 -12.42756 -0.04271125
v 0.7562953 -11.68481 -0.09474773
v 0.9104755 -12.42756 -0.2908127
v 0.860902 -11.68481 -0.351379
v 1.15768 -12.42756 -0.3735132
v 1.174722 -11.68481 -0.4571811
v 1.404885 -12.42756 -0.2908127
v 1.488542 -11.68481 -0.351379
v 1.487287 -12.42756 -0.04271125
v 1.593148 -11.68481 -0.09474773
v 1.487287 -12.42756 -0.04271125
v 1.444649 -12.51095 0.2941053
v 1.488542 -11.68481 0.2226583
v 1.174722 -11.68481 0.3284605
v 0.8926818 -12.51095 0.3068949
v 0.860902 -11.68481 0.2226583
v 1.17804 -12.38019 0.3974054
v 1.488542 -11.68481 0.2226583
v 1.444649 -12.51095 0.2941053
vt 0.03747559 0.04776001
vt 0.03753662 0.04827881
vt 0.03747559 0.04827881
vt 0.0375061 0.04782104
vt 0.03793335 0.04827881
vt 0.03747559 0.04727173
vt 0.03793335 0.04785156
vt 0.03833008 0.04827881
vt 0.03762817 0.04748535
vt 0.03833008 0.04782104
vt 0.03839111 0.04827881
vt 0.03839111 0.04776001
vt 0.03793335 0.04721069
vt 0.03747559 0.04684448
vt 0.03793335 0.04736328
vt 0.03823853 0.04748535
vt 0.03839111 0.04727173
vt 0.03793335 0.04684448
vt 0.03747559 0.04644775
vt 0.03839111 0.04684448
vt 0.03793335 0.04644775
vt 0.03839111 0.04644775
vt 0.03884888 0.04467773
vt 0.03930664 0.04467773
vt 0.03930664 0.04510498
vt 0.03887939 0.04510498
vt 0.03930664 0.04553223
vt 0.03890991 0.04556274
vt 0.03839111 0.04467773
vt 0.0385437 0.04510498
vt 0.03851318 0.04556274
vt 0.03842163 0.0451355
vt 0.03833008 0.04544067
vt 0.03839111 0.0447998
vt 0.03833008 0.04464722
vt 0.03793335 0.04556274
vt 0.03796387 0.04559326
vt 0.0383606 0.04464722
vt 0.03793335 0.0446167
vt 0.03793335 0.0446167
vt 0.0375061 0.04464722
vt 0.0375061 0.04464722
vt 0.03747559 0.04467773
vt 0.03756714 0.04544067
vt 0.03738403 0.04559326
vt 0.03826904 0.0451355
vt 0.03817749 0.04534912
vt 0.03826904 0.04486084
vt 0.03793335 0.04544067
vt 0.03823853 0.04467773
vt 0.03793335 0.0446167
vt 0.03793335 0.04516602
vt 0.03793335 0.04486084
vt 0.03793335 0.04470825
vt 0.03768921 0.04534912
vt 0.03759766 0.0451355
vt 0.03759766 0.04486084
vt 0.03744507 0.0451355
vt 0.03759766 0.04467773
vt 0.03747559 0.0447998
vt 0.037323 0.0451355
vt 0.03701782 0.04467773
vt 0.0369873 0.04510498
vt 0.03656006 0.04467773
vt 0.03695679 0.04556274
vt 0.03656006 0.04510498
vt 0.03656006 0.04553223
vt 0.03747559 0.04776001
vt 0.03747559 0.04827881
vt 0.03753662 0.04827881
vt 0.0375061 0.04782104
vt 0.03793335 0.04827881
vt 0.03747559 0.04727173
vt 0.03793335 0.04785156
vt 0.03833008 0.04827881
vt 0.03762817 0.04748535
vt 0.03833008 0.04782104
vt 0.03839111 0.04827881
vt 0.03839111 0.04776001
vt 0.03793335 0.04721069
vt 0.03747559 0.04684448
vt 0.03793335 0.04736328
vt 0.03823853 0.04748535
vt 0.03839111 0.04727173
vt 0.03793335 0.04684448
vt 0.03747559 0.04644775
vt 0.03839111 0.04684448
vt 0.03793335 0.04644775
vt 0.03839111 0.04644775
vt 0.03884888 0.04467773
vt 0.03930664 0.04510498
vt 0.03930664 0.04467773
vt 0.03887939 0.04510498
vt 0.03930664 0.04553223
vt 0.03890991 0.04553223
vt 0.03839111 0.04467773
vt 0.0385437 0.04510498
vt 0.0385437 0.04556274
vt 0.03842163 0.0451355
vt 0.03833008 0.04544067
vt 0.03839111 0.0447998
vt 0.03833008 0.04464722
vt 0.03793335 0.04556274
vt 0.03796387 0.04559326
vt 0.0383606 0.04464722
vt 0.03793335 0.0446167
vt 0.03793335 0.0446167
vt 0.0375061 0.04464722
vt 0.0375061 0.04464722
vt 0.03747559 0.04467773
vt 0.03756714 0.04544067
vt 0.03738403 0.04559326
vt 0.03826904 0.0451355
vt 0.03817749 0.04534912
vt 0.03826904 0.04486084
vt 0.03793335 0.04544067
vt 0.03823853 0.04467773
vt 0.03793335 0.0446167
vt 0.03793335 0.04486084
vt 0.03793335 0.04516602
vt 0.03793335 0.04470825
vt 0.03768921 0.04534912
vt 0.03759766 0.0451355
vt 0.03759766 0.04486084
vt 0.03744507 0.0451355
vt 0.03759766 0.04467773
vt 0.03747559 0.0447998
vt 0.037323 0.0451355
vt 0.03701782 0.04467773
vt 0.0369873 0.04510498
vt 0.03656006 0.04467773
vt 0.0369873 0.04556274
vt 0.03656006 0.04510498
vt 0.03656006 0.04553223
vt 0.03778076 0.04772949
vt 0.03781128 0.0480957
vt 0.03775024 0.04806519
vt 0.03781128 0.04766846
vt 0.03775024 0.0473938
vt 0.03781128 0.04724121
vt 0.03765869 0.04730225
vt 0.03765869 0.04724121
vt 0.03753662 0.04742432
vt 0.0375061 0.04724121
vt 0.0375061 0.04772949
vt 0.0375061 0.04766846
vt 0.03775024 0.04806519
vt 0.03781128 0.0480957
vt 0.03765869 0.0480957
vt 0.03762817 0.04818726
vt 0.0375061 0.0480957
vt 0.03753662 0.04806519
vt 0.0375061 0.04766846
vt 0.0375061 0.04772949
vt 0.03811646 0.04806519
vt 0.03808594 0.04806519
vt 0.03808594 0.04766846
vt 0.03808594 0.04772949
vt 0.03808594 0.04730225
vt 0.03811646 0.04742432
vt 0.03823853 0.04730225
vt 0.03823853 0.04733276
vt 0.03839111 0.04730225
vt 0.03833008 0.04742432
vt 0.0383606 0.04766846
vt 0.03839111 0.04772949
vt 0.0383606 0.04766846
vt 0.0383606 0.04806519
vt 0.03833008 0.04806519
vt 0.03823853 0.04815674
vt 0.03808594 0.04806519
vt 0.03811646 0.04806519
vt 0.03823853 0.04806519
vt 0.03833008 0.04806519
vt 0.0383606 0.04806519
vn 0.9757627 -0.08062716 -0.2034361
vn 0.3576599 -0.9328539 -0.04316261
vn 0.9824984 -0.1241293 -0.1388837
vn 0.4394 -0.8932945 -0.09461767
vn -0.00247122 -0.9999931 -0.002776202
vn 0.7093768 -0.07919865 -0.7003657
vn -0.002809068 -0.9996276 -0.02714351
vn -0.4022086 -0.9155472 0.001181977
vn 0.3798419 -0.8515648 -0.3613274
vn -0.4666094 -0.8819468 -0.06667438
vn -0.9967705 -0.08028822 -0.001592974
vn -0.9887013 -0.07329072 -0.1307601
vn 0.0002692171 -0.07362229 -0.9972862
vn 0.708646 -0.06928666 -0.7021539
vn 0.0004356821 -0.8746232 -0.4848031
vn -0.3790275 -0.851439 -0.3624772
vn -0.7089405 -0.0784611 -0.7008903
vn -0.001337598 -0.0680689 -0.9976798
vn 0.6813071 -0.1220378 -0.7217531
vn -0.7109846 -0.0591403 -0.7007163
vn -0.002042639 -0.1029838 -0.9946809
vn -0.6858961 -0.09747323 -0.7211418
vn -0.9887013 -0.07329072 -0.1307601
vn -0.7089405 -0.0784611 -0.7008903
vn -0.7109846 -0.0591403 -0.7007163
vn -0.9952227 -0.01588007 -0.0963303
vn -0.6858961 -0.09747323 -0.7211418
vn -0.9984475 -0.04952749 -0.02548612
vn -0.9967705 -0.08028822 -0.001592974
vn -0.9952713 0.07816137 0.05767064
vn -0.8359165 0.302393 0.4580415
vn -0.9804403 0.1536083 0.1230495
vn -0.6830187 0.6439071 0.3447741
vn -0.9922184 -0.09110079 0.08487227
vn -0.4022086 -0.9155472 0.001181977
vn 0.03539783 0.8794908 0.4745977
vn 0.02136454 0.5133333 0.8579234
vn -0.3764434 -0.925601 0.03941006
vn -0.00247122 -0.9999931 -0.002776202
vn -0.00219329 -0.9999412 0.01061741
vn 0.3576599 -0.9328539 -0.04316261
vn 0.3385049 -0.9409642 -0.0009758871
vn 0.9824984 -0.1241293 -0.1388837
vn 0.7147542 0.6490048 0.2606128
vn 0.8655205 0.3027438 0.3990243
vn -0.8309959 0.2140801 0.5134352
vn -0.3384587 0.8264524 0.4499134
vn -0.8715859 -0.1290386 0.4729556
vn 0.04060629 0.8823136 0.4689071
vn -0.2594284 -0.9548584 0.1447142
vn -0.00219329 -0.9999412 0.01061741
vn 0.00955679 0.2851221 0.9584436
vn 0.008304185 -0.1847725 0.9827462
vn 0.007757104 -0.9913636 0.1309122
vn 0.4215125 0.8123456 0.4030161
vn 0.8763142 0.1650705 0.452576
vn 0.9008113 -0.1892267 0.3908099
vn 0.9904301 0.1379363 -0.004685828
vn 0.264843 -0.9572719 0.1161412
vn 0.9876568 -0.1544723 -0.02593112
vn 0.9946378 0.07291412 -0.07334226
vn 0.9757627 -0.08062716 -0.2034361
vn 0.9868345 -0.02588223 -0.1596495
vn 0.7093768 -0.07919865 -0.7003657
vn 0.9950683 -0.08003619 -0.05859474
vn 0.708646 -0.06928666 -0.7021539
vn 0.6813071 -0.1220378 -0.7217531
vn -0.9757627 -0.08062682 -0.2034362
vn -0.9824985 -0.1241288 -0.1388837
vn -0.3576606 -0.9328536 -0.04316276
vn -0.4394005 -0.8932944 -0.09461666
vn 0.002469991 -0.9999931 -0.00277635
vn -0.7093765 -0.07919819 -0.700366
vn 0.002808245 -0.9996276 -0.0271429
vn 0.4022104 -0.9155465 0.001181975
vn -0.3798434 -0.8515635 -0.3613291
vn 0.4666106 -0.8819461 -0.06667423
vn 0.9967705 -0.08028855 -0.001592973
vn 0.9887012 -0.07329094 -0.1307603
vn -0.0002687534 -0.07362205 -0.9972862
vn -0.7057187 -0.06524455 -0.7054816
vn -0.0004362578 -0.8746226 -0.4848041
vn 0.3790277 -0.851439 -0.3624772
vn 0.70894 -0.07846089 -0.7008908
vn 0.001325353 -0.06134163 -0.9981159
vn -0.6695231 -0.110459 -0.7345322
vn 0.7080266 -0.0552252 -0.7040231
vn 0.001946825 -0.08524541 -0.9963581
vn 0.6738838 -0.08660617 -0.7337438
vn 0.9887012 -0.07329094 -0.1307603
vn 0.7080266 -0.0552252 -0.7040231
vn 0.70894 -0.07846089 -0.7008908
vn 0.9951881 -0.01542862 -0.09676011
vn 0.6738838 -0.08660617 -0.7337438
vn 0.9985543 -0.04696852 -0.026141
vn 0.9967705 -0.08028855 -0.001592973
vn 0.995222 0.07872661 0.0577524
vn 0.8289684 0.3140043 0.4628312
vn 0.980412 0.1537996 0.1230366
vn 0.6818393 0.6453432 0.3444231
vn 0.9922183 -0.0911013 0.08487244
vn 0.4022104 -0.9155465 0.001181975
vn -0.03521191 0.880273 0.4731591
vn -0.02110771 0.5248191 0.850952
vn 0.3764447 -0.9256005 0.03940998
vn 0.002469991 -0.9999931 -0.00277635
vn 0.00219261 -0.9999412 0.0106171
vn -0.3576606 -0.9328536 -0.04316276
vn -0.3385047 -0.9409642 -0.0009763564
vn -0.9824985 -0.1241288 -0.1388837
vn -0.7136857 0.6502145 0.2605261
vn -0.8590693 0.3146338 0.4037391
vn 0.8309957 0.2140803 0.5134351
vn 0.3384605 0.8264513 0.4499141
vn 0.871586 -0.1290394 0.4729553
vn -0.04060374 0.882313 0.4689083
vn 0.2594284 -0.9548584 0.1447143
vn 0.00219261 -0.9999412 0.0106171
vn -0.008304928 -0.184775 0.9827458
vn -0.00955725 0.2851223 0.9584435
vn -0.007757192 -0.9913636 0.1309122
vn -0.4215162 0.8123429 0.4030175
vn -0.8763136 0.1650716 0.4525769
vn -0.9008114 -0.1892273 0.3908092
vn -0.9904413 0.1378557 -0.004685077
vn -0.2648423 -0.957272 0.1161414
vn -0.9876568 -0.1544722 -0.02593131
vn -0.9946095 0.07319062 -0.07345121
vn -0.9757627 -0.08062682 -0.2034362
vn -0.9867262 -0.0254818 -0.1603816
vn -0.7093765 -0.07919819 -0.700366
vn -0.9951751 -0.07747512 -0.06020026
vn -0.7057187 -0.06524455 -0.7054816
vn -0.6695231 -0.110459 -0.7345322
vn 0.9972371 -0.07003393 -0.02476765
vn 0.8289684 0.3140043 0.4628312
vn 0.7662469 0.03136739 0.6417802
vn 0.9985543 -0.04696852 -0.026141
vn 0.6612378 -0.09763173 -0.7437962
vn 0.6738838 -0.08660617 -0.7337438
vn -0.004519021 -0.08934944 -0.9959901
vn 0.001946825 -0.08524541 -0.9963581
vn -0.6660511 -0.1280701 -0.7348291
vn -0.6695231 -0.110459 -0.7345322
vn -0.9929371 -0.1092117 -0.04635265
vn -0.9951751 -0.07747512 -0.06020026
vn 0.7662469 0.03136739 0.6417802
vn 0.8289684 0.3140043 0.4628312
vn -0.02110771 0.5248191 0.850952
vn -0.008803947 0.1096212 0.9939345
vn -0.8590693 0.3146338 0.4037391
vn -0.7846772 0.004957191 0.6198848
vn -0.9951751 -0.07747512 -0.06020026
vn -0.9929371 -0.1092117 -0.04635265
vn -0.7749084 0.01756235 0.6318296
vn -0.8359165 0.302393 0.4580415
vn -0.9984475 -0.04952749 -0.02548612
vn -0.9970461 -0.07297505 -0.02395529
vn -0.6858961 -0.09747323 -0.7211418
vn -0.6740373 -0.1110796 -0.730298
vn -0.002042639 -0.1029838 -0.9946809
vn 0.004702188 -0.1115666 -0.9937458
vn 0.6813071 -0.1220378 -0.7217531
vn 0.6782511 -0.1418279 -0.7210132
vn 0.9950683 -0.08003619 -0.05859474
vn 0.9927074 -0.1119615 -0.04468194
vn 0.9950683 -0.08003619 -0.05859474
vn 0.8655205 0.3027438 0.3990243
vn 0.7925715 -0.008718667 0.6097167
vn 0.008802235 0.08716815 0.9961547
vn -0.8359165 0.302393 0.4580415
vn -0.7749084 0.01756235 0.6318296
vn 0.02136454 0.5133333 0.8579234
vn 0.7925715 -0.008718667 0.6097167
vn 0.8655205 0.3027438 0.3990243
g Body_Male_Legs_Trousers_0
f 3/3/3 2/2/2 1/1/1
f 2/2/2 4/4/4 1/1/1
f 2/2/2 5/5/5 4/4/4
f 1/1/1 4/4/4 6/6/6
f 5/5/5 7/7/7 4/4/4
f 5/5/5 8/8/8 7/7/7
f 4/4/4 9/9/9 6/6/6
f 4/4/4 7/7/7 9/9/9
f 8/8/8 10/10/10 7/7/7
f 8/8/8 11/11/11 10/10/10
f 11/11/11 12/12/12 10/10/10
f 13/13/13 6/6/6 9/9/9
f 6/6/6 13/13/13 14/14/14
f 7/7/7 15/15/15 9/9/9
f 7/7/7 10/10/10 15/15/15
f 15/15/15 13/13/13 9/9/9
f 10/10/10 12/12/12 16/16/16
f 10/10/10 16/16/16 15/15/15
f 12/12/12 17/17/17 16/16/16
f 16/16/16 17/17/17 15/15/15
f 17/17/17 13/13/13 15/15/15
f 13/13/13 18/18/18 14/14/14
f 13/13/13 17/17/17 18/18/18
f 14/14/14 18/18/18 19/19/19
f 17/17/17 20/20/20 18/18/18
f 18/18/18 21/21/21 19/19/19
f 18/18/18 20/20/20 21/21/21
f 20/20/20 22/22/22 21/21/21
f 25/25/25 24/24/24 23/23/23
f 26/26/26 25/25/25 23/23/23
f 27/27/27 25/25/25 26/26/26
f 28/28/28 27/27/27 26/26/26
f 26/26/26 23/23/23 29/29/29
f 28/28/28 26/26/26 30/30/30
f 30/30/30 26/26/26 29/29/29
f 31/31/31 28/28/28 30/30/30
f 32/32/32 30/30/30 29/29/29
f 33/33/33 31/31/31 30/30/30
f 32/32/32 33/33/33 30/30/30
f 34/34/34 32/32/32 29/29/29
f 34/34/34 29/29/29 35/35/35
f 33/33/33 36/36/36 31/31/31
f 36/36/36 37/37/37 31/31/31
f 38/38/38 34/34/34 35/35/35
f 38/38/38 35/35/35 39/39/39
f 40/40/40 38/38/38 39/39/39
f 40/40/40 39/39/39 41/41/41
f 42/42/42 40/40/40 41/41/41
f 42/42/42 41/41/41 43/43/43
f 36/36/36 44/44/44 37/37/37
f 44/44/44 45/45/45 37/37/37
f 46/46/46 32/32/32 34/34/34
f 47/47/47 33/33/33 32/32/32
f 46/46/46 47/47/47 32/32/32
f 48/48/48 34/34/34 38/38/38
f 48/48/48 46/46/46 34/34/34
f 49/49/49 36/36/36 33/33/33
f 47/47/47 49/49/49 33/33/33
f 50/50/50 48/48/48 38/38/38
f 50/50/50 38/38/38 51/51/51
f 47/47/47 46/46/46 52/52/52
f 49/49/49 47/47/47 52/52/52
f 46/46/46 48/48/48 53/53/53
f 48/48/48 50/50/50 53/53/53
f 52/52/52 46/46/46 53/53/53
f 54/54/54 50/50/50 51/51/51
f 50/50/50 54/54/54 53/53/53
f 54/54/54 51/51/51 42/42/42
f 49/49/49 55/55/55 36/36/36
f 55/55/55 44/44/44 36/36/36
f 55/55/55 49/49/49 56/56/56
f 49/49/49 52/52/52 56/56/56
f 55/55/55 56/56/56 44/44/44
f 52/52/52 53/53/53 57/57/57
f 53/53/53 54/54/54 57/57/57
f 56/56/56 52/52/52 57/57/57
f 56/56/56 58/58/58 44/44/44
f 56/56/56 57/57/57 58/58/58
f 44/44/44 58/58/58 45/45/45
f 59/59/59 54/54/54 42/42/42
f 54/54/54 59/59/59 57/57/57
f 59/59/59 42/42/42 60/60/60
f 57/57/57 59/59/59 60/60/60
f 57/57/57 60/60/60 58/58/58
f 60/60/60 42/42/42 43/43/43
f 58/58/58 60/60/60 61/61/61
f 60/60/60 43/43/43 61/61/61
f 58/58/58 61/61/61 45/45/45
f 61/61/61 43/43/43 62/62/62
f 45/45/45 61/61/61 63/63/63
f 63/63/63 61/61/61 62/62/62
f 63/63/63 62/62/62 64/64/64
f 65/65/65 45/45/45 63/63/63
f 66/66/66 63/63/63 64/64/64
f 65/65/65 63/63/63 66/66/66
f 67/67/67 65/65/65 66/66/66
f 70/70/70 69/69/69 68/68/68
f 71/71/71 70/70/70 68/68/68
f 72/72/72 70/70/70 71/71/71
f 71/71/71 68/68/68 73/73/73
f 74/74/74 72/72/72 71/71/71
f 75/75/75 72/72/72 74/74/74
f 76/76/76 71/71/71 73/73/73
f 74/74/74 71/71/71 76/76/76
f 77/77/77 75/75/75 74/74/74
f 78/78/78 75/75/75 77/77/77
f 79/79/79 78/78/78 77/77/77
f 73/73/73 80/80/80 76/76/76
f 80/80/80 73/73/73 81/81/81
f 82/82/82 74/74/74 76/76/76
f 77/77/77 74/74/74 82/82/82
f 80/80/80 82/82/82 76/76/76
f 79/79/79 77/77/77 83/83/83
f 83/83/83 77/77/77 82/82/82
f 84/84/84 79/79/79 83/83/83
f 84/84/84 83/83/83 82/82/82
f 80/80/80 84/84/84 82/82/82
f 85/85/85 80/80/80 81/81/81
f 84/84/84 80/80/80 85/85/85
f 85/85/85 81/81/81 86/86/86
f 87/87/87 84/84/84 85/85/85
f 88/88/88 85/85/85 86/86/86
f 87/87/87 85/85/85 88/88/88
f 89/89/89 87/87/87 88/88/88
f 92/92/92 91/91/91 90/90/90
f 91/91/91 93/93/93 90/90/90
f 91/91/91 94/94/94 93/93/93
f 94/94/94 95/95/95 93/93/93
f 90/90/90 93/93/93 96/96/96
f 93/93/93 95/95/95 97/97/97
f 93/93/93 97/97/97 96/96/96
f 95/95/95 98/98/98 97/97/97
f 97/97/97 99/99/99 96/96/96
f 98/98/98 100/100/100 97/97/97
f 100/100/100 99/99/99 97/97/97
f 99/99/99 101/101/101 96/96/96
f 96/96/96 101/101/101 102/102/102
f 103/103/103 100/100/100 98/98/98
f 104/104/104 103/103/103 98/98/98
f 101/101/101 105/105/105 102/102/102
f 102/102/102 105/105/105 106/106/106
f 105/105/105 107/107/107 106/106/106
f 106/106/106 107/107/107 108/108/108
f 107/107/107 109/109/109 108/108/108
f 108/108/108 109/109/109 110/110/110
f 111/111/111 103/103/103 104/104/104
f 112/112/112 111/111/111 104/104/104
f 99/99/99 113/113/113 101/101/101
f 100/100/100 114/114/114 99/99/99
f 114/114/114 113/113/113 99/99/99
f 101/101/101 115/115/115 105/105/105
f 113/113/113 115/115/115 101/101/101
f 103/103/103 116/116/116 100/100/100
f 116/116/116 114/114/114 100/100/100
f 115/115/115 117/117/117 105/105/105
f 105/105/105 117/117/117 118/118/118
f 115/115/115 113/113/113 119/119/119
f 117/117/117 115/115/115 119/119/119
f 113/113/113 114/114/114 120/120/120
f 114/114/114 116/116/116 120/120/120
f 113/113/113 120/120/120 119/119/119
f 117/117/117 121/121/121 118/118/118
f 121/121/121 117/117/117 119/119/119
f 118/118/118 121/121/121 109/109/109
f 122/122/122 116/116/116 103/103/103
f 111/111/111 122/122/122 103/103/103
f 116/116/116 122/122/122 123/123/123
f 120/120/120 116/116/116 123/123/123
f 123/123/123 122/122/122 111/111/111
f 119/119/119 120/120/120 124/124/124
f 121/121/121 119/119/119 124/124/124
f 120/120/120 123/123/123 124/124/124
f 125/125/125 123/123/123 111/111/111
f 124/124/124 123/123/123 125/125/125
f 125/125/125 111/111/111 112/112/112
f 121/121/121 126/126/126 109/109/109
f 126/126/126 121/121/121 124/124/124
f 109/109/109 126/126/126 127/127/127
f 126/126/126 124/124/124 127/127/127
f 127/127/127 124/124/124 125/125/125
f 109/109/109 127/127/127 110/110/110
f 127/127/127 125/125/125 128/128/128
f 110/110/110 127/127/127 128/128/128
f 128/128/128 125/125/125 112/112/112
f 110/110/110 128/128/128 129/129/129
f 128/128/128 112/112/112 130/130/130
f 128/128/128 130/130/130 129/129/129
f 129/129/129 130/130/130 131/131/131
f 112/112/112 132/132/132 130/130/130
f 130/130/130 133/133/133 131/131/131
f 130/130/130 132/132/132 133/133/133
f 132/132/132 134/134/134 133/133/133
f 137/137/137 136/136/136 135/135/135
f 136/136/136 138/138/138 135/135/135
f 135/135/135 138/138/138 139/139/139
f 138/138/138 140/140/140 139/139/139
f 139/139/139 140/140/140 141/141/141
f 140/140/140 142/142/142 141/141/141
f 141/141/141 142/142/142 143/143/143
f 142/142/142 144/144/144 143/143/143
f 143/143/143 144/144/144 145/145/145
f 144/144/144 146/146/146 145/145/145
f 149/149/149 148/148/148 147/147/147
f 150/150/150 149/149/149 147/147/147
f 151/151/151 149/149/149 150/150/150
f 152/152/152 151/151/151 150/150/150
f 153/153/153 151/151/151 152/152/152
f 154/154/154 153/153/153 152/152/152
f 157/157/157 156/156/156 155/155/155
f 158/158/158 157/157/157 155/155/155
f 159/159/159 157/157/157 158/158/158
f 160/160/160 159/159/159 158/158/158
f 161/161/161 159/159/159 160/160/160
f 162/162/162 161/161/161 160/160/160
f 163/163/163 161/161/161 162/162/162
f 164/164/164 163/163/163 162/162/162
f 165/165/165 163/163/163 164/164/164
f 166/166/166 165/165/165 164/164/164
f 168/168/168 167/167/167 166/166/166
f 169/169/169 168/168/168 166/166/166
f 172/172/172 171/171/171 170/170/170
f 171/171/171 173/173/173 170/170/170
f 170/170/170 173/173/173 174/174/174
f 173/173/173 175/175/175 174/174/174
