g Boot_R_Female
v -1.497195 0.2133075 -0.2467126
v -1.543746 0.2072506 0.1068886
v -1.509659 0.1360023 0.2077816
v -1.47034 0.0664406 -0.2329294
v -1.515818 -0.05948452 0.1407967
v -1.475487 -0.05948456 -0.2077316
v -1.409251 0.2133065 -0.4917216
v -1.38911 0.06644115 -0.4698344
v -1.393246 -0.05948455 -0.4465236
v -1.145419 0.213308 -0.5733916
v -1.415965 0.5533128 -0.4173782
v -1.145419 0.06644125 -0.5488029
v -1.393246 -0.05948455 -0.4465236
v -1.145428 -0.05948455 -0.5254964
v -1.145419 0.553292 -0.4999735
v -1.449496 1.159211 -0.3757783
v -1.15225 1.15921 -0.4668269
v -0.8748738 0.5533125 -0.4173785
v -0.8550042 1.159211 -0.3757786
v -0.8815876 0.2133065 -0.4918458
v -0.9017292 0.06644115 -0.4703308
v -1.145428 -0.05948455 -0.5254964
v -0.8976108 -0.05948455 -0.4470287
v -0.7936436 0.2133075 -0.247209
v -0.8204992 0.06644067 -0.2349149
v -0.8976108 -0.05948455 -0.4470287
v -0.7936506 0.2570033 0.1994608
v -0.815302 -0.05948455 -0.2094159
v -0.8205271 0.1360023 0.2324163
v -0.814251 -0.05948453 0.1660424
v -1.475487 -0.05948456 -0.2077316
v -1.515818 -0.05948452 0.1407967
v -1.160228 -0.05948484 0.1596623
v -1.145307 -0.0594849 -0.1911163
v -1.393246 -0.05948455 -0.4465236
v -0.814251 -0.05948453 0.1660424
v -1.145428 -0.05948455 -0.5254964
v -0.815302 -0.05948455 -0.2094159
v -0.8976108 -0.05948455 -0.4470287
v -0.7936436 0.2133075 -0.247209
v -0.8748738 0.5533125 -0.4173785
v -0.8815876 0.2133065 -0.4918458
v -0.7846917 0.5533106 -0.1696682
v -0.8550042 1.159211 -0.3757786
v -0.7559224 1.15921 -0.1026341
v -0.7936506 0.2570033 0.1994608
v -0.7846918 0.580475 0.2810799
v -0.8336086 1.075823 0.3666613
v -0.7846917 0.4790292 1.263936
v -0.8993541 0.6207728 1.234954
v -0.7936715 0.1780284 1.292231
v -0.8205271 0.1360023 0.2324163
v -1.243341 0.6937943 1.189027
v -1.17673 1.206585 0.4663089
v -0.8206111 -0.05453193 1.303913
v -1.160287 0.1360019 0.2202098
v -1.587329 0.621487 1.146746
v -1.497308 1.075819 0.3525804
v -1.204888 -0.08435673 1.253294
v -1.509659 0.1360023 0.2077816
v -1.627618 -0.05459747 1.195446
v -1.543746 0.2072506 0.1068886
v -0.9754377 0.3369907 1.855134
v -1.04059 0.4222158 1.797609
v -1.252855 0.4361454 1.851606
v -0.9811485 0.232532 1.849312
v -0.9982806 -0.05456731 1.828813
v -1.240225 0.3283862 1.936917
v -1.240281 0.2303667 1.928706
v -1.24045 -0.05457806 1.904073
v -1.484766 0.4222082 1.774245
v -1.530272 0.3369739 1.851112
v -1.522256 0.2325076 1.845169
v -1.701991 0.4813525 1.145935
v -1.49821 -0.05458414 1.824303
v -1.683398 0.1801621 1.176494
v -1.555108 0.5230122 0.1773353
v -1.497195 0.2133075 -0.2467126
v -1.506147 0.5533106 -0.1696681
v -1.409251 0.2133065 -0.4917216
v -1.548577 1.15921 -0.1026341
v -1.415965 0.5533128 -0.4173782
v -1.449496 1.159211 -0.3757783
v -0.7210528 3.69121 0.407874
v -0.5750757 3.697498 -0.1480823
v -0.4803496 2.85656 -0.2233336
v -0.6616254 2.850271 0.3736262
v -1.139303 3.687881 0.6048552
v -1.184577 2.846942 0.555141
v -1.557178 3.697182 0.407895
v -1.70713 2.856243 0.3736485
v -1.702659 3.706115 -0.1480397
v -1.887879 2.865176 -0.2232884
v -0.5750757 3.697498 -0.1480823
v -0.6618823 2.854428 -0.7299922
v -0.4803496 2.85656 -0.2233336
v -0.7212948 3.695366 -0.7033088
v -1.184534 2.85261 -0.9106241
v -1.139263 3.693549 -0.8994577
v -1.706702 2.860348 -0.7298605
v -1.556774 3.701287 -0.7031847
v -1.887879 2.865176 -0.2232884
v -1.702659 3.706115 -0.1480397
v -0.7475093 2.85292 0.2922774
v -0.6018432 2.852919 -0.219844
v -0.669614 1.901963 -0.1599221
v -0.7953957 1.901964 0.2739244
v -1.184508 2.852919 0.4348505
v -1.172741 1.901963 0.3904059
v -0.8336086 1.075823 0.3666613
v -1.621507 2.85292 0.2922774
v -1.17673 1.206585 0.4663089
v -1.550086 1.901964 0.2739244
v -1.497308 1.075819 0.3525804
v -1.767173 2.852919 -0.219844
v -1.675868 1.901963 -0.1599221
v -0.7953957 1.901964 0.2739244
v -0.7559224 1.15921 -0.1026341
v -0.8336086 1.075823 0.3666613
v -0.669614 1.901963 -0.1599221
v -0.8550042 1.159211 -0.3757786
v -0.7953957 1.901964 -0.4424572
v -0.6018432 2.852919 -0.219844
v -1.15225 1.15921 -0.4668269
v -0.7475094 2.85292 -0.6475634
v -1.172741 1.901963 -0.5589389
v -1.449496 1.159211 -0.3757783
v -1.184508 2.852919 -0.7901365
v -1.550086 1.901964 -0.4424571
v -1.548577 1.15921 -0.1026341
v -1.621507 2.85292 -0.6475634
v -1.675868 1.901963 -0.1599221
v -1.767173 2.852919 -0.219844
v -1.497308 1.075819 0.3525804
v -1.550086 1.901964 0.2739244
v -1.509659 0.1360023 0.2077816
v -1.160228 -0.05948484 0.1596623
v -1.515818 -0.05948452 0.1407967
v -1.160287 0.1360019 0.2202098
v -0.814251 -0.05948453 0.1660424
v -0.8205271 0.1360023 0.2324163
v -1.501495 3.693859 -0.6524946
v -1.139261 3.693858 -0.8209254
v -0.7770258 3.693859 -0.6524946
v -1.62224 3.693858 -0.1472027
v -0.656281 3.693858 -0.1472027
v -1.501495 3.693859 0.3580892
v -0.7770258 3.693859 0.3580893
v -1.139261 3.693858 0.52652
v -1.139263 3.693549 -0.8994577
v -0.7212948 3.695366 -0.7033088
v -1.556774 3.701287 -0.7031847
v -0.5750757 3.697498 -0.1480823
v -1.501495 3.693859 -0.6524946
v -0.7210528 3.69121 0.407874
v -1.702659 3.706115 -0.1480397
v -1.139303 3.687881 0.6048552
v -1.62224 3.693858 -0.1472027
v -1.501495 3.693859 0.3580892
v -1.557178 3.697182 0.407895
v -0.6018432 2.852919 -0.219844
v -0.7475093 2.85292 0.2922774
v -0.6616254 2.850271 0.3736262
v -0.4803496 2.85656 -0.2233336
v -1.184577 2.846942 0.555141
v -0.7475094 2.85292 -0.6475634
v -1.184508 2.852919 0.4348505
v -0.6618823 2.854428 -0.7299922
v -1.70713 2.856243 0.3736485
v -1.184508 2.852919 -0.7901365
v -1.621507 2.85292 0.2922774
v -1.184534 2.85261 -0.9106241
v -1.887879 2.865176 -0.2232884
v -1.621507 2.85292 -0.6475634
v -1.767173 2.852919 -0.219844
v -1.706702 2.860348 -0.7298605
vt 0.05160522 0.06677246
vt 0.05160522 0.07220459
vt 0.05215454 0.07220459
vt 0.05212402 0.06719971
vt 0.05215454 0.07220459
vt 0.05212402 0.06719971
vt 0.05160522 0.06137085
vt 0.05325317 0.06347656
vt 0.05325317 0.06347656
vt 0.05664063 0.0604248
vt 0.05160522 0.05670166
vt 0.05664063 0.06222534
vt 0.05325317 0.06347656
vt 0.05664063 0.06222534
vt 0.05664063 0.05670166
vt 0.05160522 0.05203247
vt 0.05664063 0.05203247
vt 0.06167603 0.05670166
vt 0.06167603 0.05203247
vt 0.06167603 0.06137085
vt 0.06005859 0.06347656
vt 0.05664063 0.06222534
vt 0.06005859 0.06347656
vt 0.06167603 0.06677246
vt 0.06118774 0.06719971
vt 0.06005859 0.06347656
vt 0.06167603 0.07220459
vt 0.06118774 0.06719971
vt 0.06118774 0.07220459
vt 0.06118774 0.07220459
vt 0.05212402 0.06719971
vt 0.05215454 0.07220459
vt 0.05670166 0.07220459
vt 0.05667114 0.06762695
vt 0.05325317 0.06347656
vt 0.06118774 0.07220459
vt 0.05664063 0.06222534
vt 0.06118774 0.06719971
vt 0.06005859 0.06347656
vt 0.06671143 0.03262329
vt 0.07177734 0.03729248
vt 0.07177734 0.03262329
vt 0.06707764 0.03744507
vt 0.07177734 0.04196167
vt 0.06744385 0.04226685
vt 0.06167603 0.03262329
vt 0.06347656 0.03756714
vt 0.06317139 0.04260254
vt 0.06204224 0.03759766
vt 0.06091309 0.04110718
vt 0.06167603 0.03396606
vt 0.06118774 0.03225708
vt 0.0567627 0.04232788
vt 0.05688477 0.04269409
vt 0.06124878 0.03240967
vt 0.05667114 0.03189087
vt 0.05258179 0.04116821
vt 0.05059814 0.04278564
vt 0.05664063 0.03189087
vt 0.05212402 0.03225708
vt 0.05206299 0.03240967
vt 0.05160522 0.03262329
vt 0.0604248 0.03787231
vt 0.05944824 0.04013062
vt 0.05664063 0.04095459
vt 0.06033325 0.03457642
vt 0.05999756 0.03283691
vt 0.05664063 0.03790283
vt 0.05664063 0.03463745
vt 0.05657959 0.03286743
vt 0.05386353 0.04013062
vt 0.05285645 0.03787231
vt 0.052948 0.03457642
vt 0.05136108 0.03765869
vt 0.05316162 0.03283691
vt 0.05166626 0.03396606
vt 0.04998779 0.03762817
vt 0.04656982 0.03262329
vt 0.04632568 0.03747559
vt 0.04153442 0.03262329
vt 0.04608154 0.0423584
vt 0.04153442 0.03729248
vt 0.04153442 0.04196167
vt 0.05874634 0.07092285
vt 0.05831909 0.06713867
vt 0.05831909 0.06695557
vt 0.05874634 0.07067871
vt 0.05999756 0.07220459
vt 0.05999756 0.07189941
vt 0.06124878 0.07092285
vt 0.06124878 0.07067871
vt 0.06167603 0.06713867
vt 0.06167603 0.06695557
vt 0.05831909 0.06713867
vt 0.05874634 0.06323242
vt 0.05831909 0.06695557
vt 0.05874634 0.06335449
vt 0.05999756 0.06201172
vt 0.05999756 0.06210327
vt 0.06124878 0.06323242
vt 0.06124878 0.06335449
vt 0.06167603 0.06695557
vt 0.06167603 0.06713867
vt 0.05874634 0.07067871
vt 0.05831909 0.06695557
vt 0.05834961 0.06640625
vt 0.05874634 0.06982422
vt 0.05999756 0.07189941
vt 0.05996704 0.07104492
vt 0.05834961 0.06982422
vt 0.06124878 0.07067871
vt 0.05993652 0.06988525
vt 0.06118774 0.06988525
vt 0.06152344 0.07000732
vt 0.06167603 0.06695557
vt 0.06161499 0.06640625
vt 0.05874634 0.06982422
vt 0.05834961 0.06567383
vt 0.05834961 0.06982422
vt 0.05834961 0.06640625
vt 0.05834961 0.06149292
vt 0.05874634 0.06292725
vt 0.05831909 0.06695557
vt 0.05996704 0.0614624
vt 0.05874634 0.06323242
vt 0.05999756 0.06176758
vt 0.06155396 0.06143188
vt 0.05999756 0.06201172
vt 0.06121826 0.06292725
vt 0.06155396 0.06567383
vt 0.06124878 0.06323242
vt 0.06161499 0.06640625
vt 0.06167603 0.06695557
vt 0.06152344 0.07000732
vt 0.06118774 0.06988525
vt 0.05215454 0.07220459
vt 0.05670166 0.07220459
vt 0.05215454 0.07220459
vt 0.05670166 0.07220459
vt 0.06118774 0.07220459
vt 0.06118774 0.07220459
vt 0.06124878 0.06335449
vt 0.05999756 0.06210327
vt 0.05874634 0.06335449
vt 0.06167603 0.06713867
vt 0.05831909 0.06713867
vt 0.06124878 0.07092285
vt 0.05874634 0.07092285
vt 0.05999756 0.07220459
vt 0.05999756 0.06210327
vt 0.05874634 0.06335449
vt 0.06124878 0.06335449
vt 0.05831909 0.06713867
vt 0.06124878 0.06335449
vt 0.05874634 0.07092285
vt 0.06167603 0.06713867
vt 0.05999756 0.07220459
vt 0.06167603 0.06713867
vt 0.06124878 0.07092285
vt 0.06124878 0.07092285
vt 0.05831909 0.06695557
vt 0.05874634 0.07067871
vt 0.05874634 0.07067871
vt 0.05831909 0.06695557
vt 0.05999756 0.07189941
vt 0.05874634 0.06323242
vt 0.05999756 0.07189941
vt 0.05874634 0.06323242
vt 0.06124878 0.07067871
vt 0.05999756 0.06201172
vt 0.06124878 0.07067871
vt 0.05999756 0.06201172
vt 0.06167603 0.06695557
vt 0.06124878 0.06323242
vt 0.06167603 0.06695557
vt 0.06124878 0.06323242
vn -0.9721733 -0.0552315 -0.2276591
vn -0.9855211 -0.1043867 -0.1336098
vn -0.5244536 -0.8241811 -0.2137149
vn -0.9757348 -0.107001 -0.1910293
vn -0.9933375 0.04853029 -0.1045251
vn -0.9855542 0.02734873 -0.1671373
vn -0.6545746 0.05164883 -0.754231
vn -0.6689709 -0.1640829 -0.7249516
vn -0.9453529 -0.02772779 -0.3248676
vn -0.0002518421 0.09863868 -0.9951233
vn -0.6752795 0.05943765 -0.7351631
vn -0.0007722193 -0.1766821 -0.9842677
vn -0.3015469 -0.1687339 -0.938402
vn -0.3015469 -0.168734 -0.938402
vn 0.001312288 0.1111314 -0.9938048
vn -0.6594076 -0.09226242 -0.7461027
vn 0.002146532 -0.0512451 -0.9986838
vn 0.6769742 0.06897431 -0.7327677
vn 0.6641343 -0.06449005 -0.7448267
vn 0.6540061 0.05247321 -0.7546671
vn 0.6671355 -0.1633155 -0.7268138
vn 0.2998047 -0.1688711 -0.9389355
vn 0.2998047 -0.1688711 -0.9389355
vn 0.9880262 -0.05481003 -0.1442224
vn 0.9892046 -0.08923512 -0.116239
vn 0.9447309 -0.02834442 -0.3266191
vn 0.9973794 -0.07231539 -0.00218214
vn 0.9956521 0.01920806 -0.09114715
vn 0.6373131 -0.758284 -0.1372496
vn 0.9993355 0.03620624 -0.004201488
vn 0 -1 0
vn 0 -1 0
vn 0 -1 0
vn 0 -1 0
vn 0 -1 0
vn 0 -1 0
vn 0 -1 0
vn 0 -1 0
vn 0 -1 0
vn 0.9880262 -0.05481003 -0.1442224
vn 0.6769742 0.06897431 -0.7327677
vn 0.6540061 0.05247321 -0.7546671
vn 0.9944289 -0.000582749 -0.1054083
vn 0.6641343 -0.06449005 -0.7448267
vn 0.9984712 -0.04995632 -0.02365551
vn 0.9973794 -0.07231539 -0.00218214
vn 0.9969918 0.0566807 0.05286552
vn 0.8478448 0.2851894 0.4470193
vn 0.9821845 0.1453525 0.1191058
vn 0.6595886 0.6652868 0.3497661
vn 0.9915615 -0.07194327 0.1078425
vn 0.6373131 -0.758284 -0.1372496
vn -0.03525757 0.8836437 0.4668305
vn -0.01852881 0.5216584 0.8529532
vn 0.5215652 -0.8528695 -0.02414943
vn 0.01831873 -0.9805025 -0.1956512
vn -0.7219177 0.6511195 0.2342607
vn -0.8806447 0.2946796 0.3709834
vn 0.01131809 -0.99273 -0.1198294
vn -0.5244536 -0.8241811 -0.2137149
vn -0.4522846 -0.8884515 -0.07805413
vn -0.9855211 -0.1043867 -0.1336098
vn 0.8335952 0.2398355 0.4975922
vn 0.3220714 0.8470475 0.4228244
vn -0.03493199 0.9003227 0.4338187
vn 0.8397053 -0.06561854 0.5390632
vn 0.5077958 -0.7773509 0.3713071
vn -0.007535437 0.3131979 0.949658
vn -0.007997342 -0.08709542 0.9961678
vn -0.008704099 -0.9018432 0.4319757
vn -0.3987519 0.8339442 0.3814892
vn -0.880171 0.1824533 0.4381892
vn -0.8812578 -0.1071245 0.4603359
vn -0.9896216 0.1431136 -0.01293913
vn -0.5287899 -0.78723 0.3172541
vn -0.9912718 -0.1317089 0.005742661
vn -0.994954 0.06190753 -0.07895469
vn -0.9721733 -0.0552315 -0.2276591
vn -0.9854093 0.003022151 -0.1701747
vn -0.6545746 0.05164883 -0.754231
vn -0.9950412 -0.08074992 -0.05807397
vn -0.6752795 0.05943765 -0.7351631
vn -0.6594076 -0.09226242 -0.7461027
vn 0.758022 0.01800526 0.6519805
vn 0.9958559 0.08964687 0.01531553
vn 0.9956902 0.09153056 -0.0149443
vn 0.7819114 0.02282432 0.6229714
vn 0.01057433 -0.02542829 0.9996207
vn -0.01184581 -0.02422174 0.9996364
vn -0.7440186 0.09594263 0.6612348
vn -0.7881752 0.109778 0.6055812
vn -0.9809114 0.193881 0.01492959
vn -0.980574 0.1956387 -0.01415544
vn 0.9958559 0.08964687 0.01531553
vn 0.752218 0.07419648 -0.6547236
vn 0.9956902 0.09153056 -0.0149443
vn 0.744956 0.07317293 -0.6630883
vn -0.01166197 0.04798312 -0.9987801
vn 0.01065271 0.04678598 -0.9988481
vn -0.7566184 0.1566212 -0.6348216
vn -0.7278721 0.1494472 -0.6692291
vn -0.980574 0.1956387 -0.01415544
vn -0.9809114 0.193881 0.01492959
vn 0.7461605 -0.05143779 0.663776
vn 0.9966462 -0.08089611 -0.01233398
vn 0.9966283 -0.08200015 -0.002819352
vn 0.7656493 -0.02613383 0.6427271
vn -0.002399818 -0.04298567 0.9990728
vn -0.00188583 0.01480805 0.9998885
vn 0.8478448 0.2851894 0.4470193
vn -0.7487791 -0.06998206 0.6591148
vn -0.01852881 0.5216584 0.8529532
vn -0.7700307 -0.05068755 0.6359901
vn -0.8806447 0.2946796 0.3709834
vn -0.9943643 -0.1053114 -0.01221261
vn -0.9933484 -0.1146592 -0.0105967
vn 0.7656493 -0.02613383 0.6427271
vn 0.9984712 -0.04995632 -0.02365551
vn 0.8478448 0.2851894 0.4470193
vn 0.9966283 -0.08200015 -0.002819352
vn 0.6641343 -0.06449005 -0.7448267
vn 0.6632047 -0.1610447 -0.7309064
vn 0.9966462 -0.08089611 -0.01233398
vn 0.002146532 -0.0512451 -0.9986838
vn 0.6298642 -0.1881224 -0.7535788
vn -0.0005761399 -0.1920767 -0.9813797
vn -0.6594076 -0.09226242 -0.7461027
vn -0.002367937 -0.2328302 -0.9725146
vn -0.6613892 -0.1845917 -0.7269734
vn -0.9950412 -0.08074992 -0.05807397
vn -0.631638 -0.2026109 -0.7483197
vn -0.9933484 -0.1146592 -0.0105967
vn -0.9943643 -0.1053114 -0.01221261
vn -0.8806447 0.2946796 0.3709834
vn -0.7700307 -0.05068755 0.6359901
vn -0.0421735 -0.3092402 0.9500484
vn -0.03414163 -0.3091537 0.950399
vn -0.04217352 -0.3092402 0.9500484
vn -0.03403446 -0.3091524 0.9504034
vn -0.02576808 -0.3090423 0.9506992
vn -0.02576808 -0.3090424 0.9506992
vn 0 1 0
vn 0.01207234 0.9996247 0.024588
vn -0.02264808 0.9997202 0.006832319
vn 0 1 0
vn -0.02172585 0.99975 0.005280347
vn 0 1 0
vn 0.004578424 0.9996414 0.02638397
vn 0.01223519 0.9991461 0.03946312
vn 0.0120679 0.999625 0.02458354
vn -0.02169198 0.9997414 0.00683458
vn 0.08626422 0.9956574 0.03499591
vn -0.02191186 0.9997458 0.005301686
vn 0.08975766 0.9953645 0.0345391
vn 0.005348965 0.9996018 0.02770893
vn 0.1201181 0.9927448 0.005419695
vn 0.01223351 0.9991462 0.03946022
vn 0.1199445 0.9927676 0.00509859
vn 0.06291098 0.9980178 -0.001665534
vn 0.06013701 0.99819 -0.0006105957
vn 0.01378079 -0.9998943 -0.004656619
vn -0.001152968 -0.9997976 -0.0200843
vn -0.001070435 -0.9998013 -0.01990243
vn 0.01382157 -0.9998937 -0.004661049
vn -0.007090389 -0.9996131 -0.02689604
vn 0.01282685 -0.9999051 -0.005030481
vn -0.007091561 -0.999613 -0.02690156
vn 0.01315686 -0.9999007 -0.005050074
vn -0.04007591 -0.9991966 -0.0001404622
vn -0.007005782 -0.9998456 -0.01611271
vn -0.03980199 -0.9992076 -0.0002561181
vn -0.007006676 -0.9998456 -0.01611371
vn -0.07727714 -0.9969988 -0.004675292
vn -0.05077201 -0.9983663 -0.02621183
vn -0.07724245 -0.9970017 -0.004585983
vn -0.05186119 -0.9983115 -0.02616055
g Boot_R_Female_0
f 3/3/3 2/2/2 1/1/1
f 4/4/4 3/3/3 1/1/1
f 5/5/5 3/3/3 4/4/4
f 6/6/6 5/5/5 4/4/4
f 4/4/4 1/1/1 7/7/7
f 6/6/6 4/4/4 8/8/8
f 8/8/8 4/4/4 7/7/7
f 9/9/9 6/6/6 8/8/8
f 7/7/7 10/10/10 8/8/8
f 10/10/10 7/7/7 11/11/11
f 10/10/10 12/12/12 8/8/8
f 13/13/13 8/8/8 12/12/12
f 14/14/14 13/13/13 12/12/12
f 15/15/15 10/10/10 11/11/11
f 15/15/15 11/11/11 16/16/16
f 17/17/17 15/15/15 16/16/16
f 18/18/18 15/15/15 17/17/17
f 19/19/19 18/18/18 17/17/17
f 18/18/18 20/20/20 15/15/15
f 20/20/20 10/10/10 15/15/15
f 10/10/10 20/20/20 12/12/12
f 20/20/20 21/21/21 12/12/12
f 22/22/22 12/12/12 21/21/21
f 23/23/23 22/22/22 21/21/21
f 20/20/20 24/24/24 21/21/21
f 24/24/24 25/25/25 21/21/21
f 26/26/26 21/21/21 25/25/25
f 24/24/24 27/27/27 25/25/25
f 28/28/28 26/26/26 25/25/25
f 27/27/27 29/29/29 25/25/25
f 28/28/28 25/25/25 29/29/29
f 30/30/30 28/28/28 29/29/29
f 33/33/33 32/32/32 31/31/31
f 34/34/34 33/33/33 31/31/31
f 34/34/34 31/31/31 35/35/35
f 36/36/36 33/33/33 34/34/34
f 37/37/37 34/34/34 35/35/35
f 38/38/38 36/36/36 34/34/34
f 38/38/38 34/34/34 37/37/37
f 39/39/39 38/38/38 37/37/37
f 42/42/42 41/41/41 40/40/40
f 41/41/41 43/43/43 40/40/40
f 41/41/41 44/44/44 43/43/43
f 44/44/44 45/45/45 43/43/43
f 40/40/40 43/43/43 46/46/46
f 43/43/43 45/45/45 47/47/47
f 43/43/43 47/47/47 46/46/46
f 45/45/45 48/48/48 47/47/47
f 47/47/47 49/49/49 46/46/46
f 48/48/48 50/50/50 47/47/47
f 50/50/50 49/49/49 47/47/47
f 49/49/49 51/51/51 46/46/46
f 46/46/46 51/51/51 52/52/52
f 53/53/53 50/50/50 48/48/48
f 54/54/54 53/53/53 48/48/48
f 51/51/51 55/55/55 52/52/52
f 52/52/52 55/55/55 56/56/56
f 57/57/57 53/53/53 54/54/54
f 58/58/58 57/57/57 54/54/54
f 55/55/55 59/59/59 56/56/56
f 56/56/56 59/59/59 60/60/60
f 59/59/59 61/61/61 60/60/60
f 60/60/60 61/61/61 62/62/62
f 49/49/49 63/63/63 51/51/51
f 50/50/50 64/64/64 49/49/49
f 64/64/64 63/63/63 49/49/49
f 53/53/53 65/65/65 50/50/50
f 65/65/65 64/64/64 50/50/50
f 51/51/51 66/66/66 55/55/55
f 63/63/63 66/66/66 51/51/51
f 55/55/55 67/67/67 59/59/59
f 66/66/66 67/67/67 55/55/55
f 63/63/63 64/64/64 68/68/68
f 64/64/64 65/65/65 68/68/68
f 66/66/66 63/63/63 69/69/69
f 67/67/67 66/66/66 69/69/69
f 63/63/63 68/68/68 69/69/69
f 67/67/67 70/70/70 59/59/59
f 70/70/70 67/67/67 69/69/69
f 59/59/59 70/70/70 61/61/61
f 71/71/71 65/65/65 53/53/53
f 57/57/57 71/71/71 53/53/53
f 65/65/65 71/71/71 72/72/72
f 68/68/68 65/65/65 72/72/72
f 72/72/72 71/71/71 57/57/57
f 69/69/69 68/68/68 73/73/73
f 70/70/70 69/69/69 73/73/73
f 68/68/68 72/72/72 73/73/73
f 74/74/74 72/72/72 57/57/57
f 73/73/73 72/72/72 74/74/74
f 74/74/74 57/57/57 58/58/58
f 70/70/70 75/75/75 61/61/61
f 75/75/75 70/70/70 73/73/73
f 61/61/61 75/75/75 76/76/76
f 75/75/75 73/73/73 76/76/76
f 76/76/76 73/73/73 74/74/74
f 61/61/61 76/76/76 62/62/62
f 76/76/76 74/74/74 77/77/77
f 62/62/62 76/76/76 77/77/77
f 77/77/77 74/74/74 58/58/58
f 62/62/62 77/77/77 78/78/78
f 77/77/77 58/58/58 79/79/79
f 77/77/77 79/79/79 78/78/78
f 78/78/78 79/79/79 80/80/80
f 58/58/58 81/81/81 79/79/79
f 79/79/79 82/82/82 80/80/80
f 79/79/79 81/81/81 82/82/82
f 81/81/81 83/83/83 82/82/82
f 86/86/86 85/85/85 84/84/84
f 87/87/87 86/86/86 84/84/84
f 87/87/87 84/84/84 88/88/88
f 89/89/89 87/87/87 88/88/88
f 89/89/89 88/88/88 90/90/90
f 91/91/91 89/89/89 90/90/90
f 91/91/91 90/90/90 92/92/92
f 93/93/93 91/91/91 92/92/92
f 96/96/96 95/95/95 94/94/94
f 95/95/95 97/97/97 94/94/94
f 95/95/95 98/98/98 97/97/97
f 98/98/98 99/99/99 97/97/97
f 98/98/98 100/100/100 99/99/99
f 100/100/100 101/101/101 99/99/99
f 100/100/100 102/102/102 101/101/101
f 102/102/102 103/103/103 101/101/101
f 106/106/106 105/105/105 104/104/104
f 107/107/107 106/106/106 104/104/104
f 107/107/107 104/104/104 108/108/108
f 109/109/109 107/107/107 108/108/108
f 110/110/110 107/107/107 109/109/109
f 109/109/109 108/108/108 111/111/111
f 112/112/112 110/110/110 109/109/109
f 113/113/113 109/109/109 111/111/111
f 112/112/112 109/109/109 113/113/113
f 114/114/114 112/112/112 113/113/113
f 113/113/113 111/111/111 115/115/115
f 116/116/116 113/113/113 115/115/115
f 119/119/119 118/118/118 117/117/117
f 118/118/118 120/120/120 117/117/117
f 118/118/118 121/121/121 120/120/120
f 121/121/121 122/122/122 120/120/120
f 120/120/120 122/122/122 123/123/123
f 121/121/121 124/124/124 122/122/122
f 122/122/122 125/125/125 123/123/123
f 124/124/124 126/126/126 122/122/122
f 122/122/122 126/126/126 125/125/125
f 124/124/124 127/127/127 126/126/126
f 126/126/126 128/128/128 125/125/125
f 127/127/127 129/129/129 126/126/126
f 126/126/126 129/129/129 128/128/128
f 127/127/127 130/130/130 129/129/129
f 129/129/129 131/131/131 128/128/128
f 130/130/130 132/132/132 129/129/129
f 129/129/129 132/132/132 131/131/131
f 132/132/132 133/133/133 131/131/131
f 130/130/130 134/134/134 132/132/132
f 134/134/134 135/135/135 132/132/132
f 138/138/138 137/137/137 136/136/136
f 137/137/137 139/139/139 136/136/136
f 137/137/137 140/140/140 139/139/139
f 140/140/140 141/141/141 139/139/139
f 144/144/144 143/143/143 142/142/142
f 142/142/142 145/145/145 144/144/144
f 145/145/145 146/146/146 144/144/144
f 145/145/145 147/147/147 146/146/146
f 147/147/147 148/148/148 146/146/146
f 147/147/147 149/149/149 148/148/148
f 150/150/150 143/143/143 144/144/144
f 151/151/151 150/150/150 144/144/144
f 151/151/151 144/144/144 146/146/146
f 150/150/150 152/152/152 143/143/143
f 153/153/153 151/151/151 146/146/146
f 153/153/153 146/146/146 148/148/148
f 152/152/152 154/154/154 143/143/143
f 155/155/155 153/153/153 148/148/148
f 155/155/155 148/148/148 149/149/149
f 152/152/152 156/156/156 154/154/154
f 157/157/157 155/155/155 149/149/149
f 156/156/156 158/158/158 154/154/154
f 157/157/157 149/149/149 159/159/159
f 156/156/156 160/160/160 158/158/158
f 160/160/160 159/159/159 158/158/158
f 160/160/160 157/157/157 159/159/159
f 163/163/163 162/162/162 161/161/161
f 164/164/164 163/163/163 161/161/161
f 163/163/163 165/165/165 162/162/162
f 164/164/164 161/161/161 166/166/166
f 165/165/165 167/167/167 162/162/162
f 168/168/168 164/164/164 166/166/166
f 165/165/165 169/169/169 167/167/167
f 168/168/168 166/166/166 170/170/170
f 169/169/169 171/171/171 167/167/167
f 172/172/172 168/168/168 170/170/170
f 169/169/169 173/173/173 171/171/171
f 172/172/172 170/170/170 174/174/174
f 173/173/173 175/175/175 171/171/171
f 176/176/176 172/172/172 174/174/174
f 176/176/176 174/174/174 175/175/175
f 173/173/173 176/176/176 175/175/175
