g Buckle
v -0.04999998 -3.027305E-08 -0.08660249
v -0.07499997 0.08660249 -0.1299037
v 0.07500003 0.08660249 -0.1299037
v 0.05000002 -3.033779E-08 -0.08660247
v -0.09999999 -1.243088E-08 -1.766412E-08
v -0.15 0.08660251 1.974631E-08
v -0.07499997 0.08660249 -0.1299037
v -0.04999998 -3.027305E-08 -0.08660249
v -0.05000001 1.940101E-09 0.08660249
v -0.07500001 0.08660253 0.1299038
v -0.15 0.08660251 1.974631E-08
v -0.09999999 -1.243088E-08 -1.766412E-08
v 0.04999999 1.840428E-09 0.08660249
v 0.07499999 0.08660253 0.1299038
v -0.07500001 0.08660253 0.1299038
v -0.05000001 1.940101E-09 0.08660249
v 0.09999999 -1.251784E-08 -2.418616E-09
v 0.15 0.08660251 4.258268E-08
v 0.07499999 0.08660253 0.1299038
v 0.04999999 1.840428E-09 0.08660249
v 0.05000002 -3.033779E-08 -0.08660247
v 0.07500003 0.08660249 -0.1299037
v 0.15 0.08660251 4.258268E-08
v 0.09999999 -1.251784E-08 -2.418616E-09
v -0.125 0.08660247 -0.2165062
v -0.1499999 -7.65729E-08 -0.2598075
v 0.1500001 -7.633603E-08 -0.2598074
v 0.125 0.08660247 -0.2165062
v -0.25 0.0866025 1.216919E-08
v -0.3 -3.354226E-08 -2.406751E-08
v -0.1499999 -7.65729E-08 -0.2598075
v -0.125 0.08660247 -0.2165062
v -0.125 0.08660253 0.2165063
v -0.15 -6.151946E-09 0.2598076
v -0.3 -3.354226E-08 -2.406751E-08
v -0.25 0.0866025 1.216919E-08
v 0.125 0.08660253 0.2165063
v 0.15 -6.3438E-09 0.2598076
v -0.15 -6.151946E-09 0.2598076
v -0.125 0.08660253 0.2165063
v 0.25 0.0866025 5.001208E-08
v 0.3 -3.367993E-08 2.118112E-08
v 0.15 -6.3438E-09 0.2598076
v 0.125 0.08660253 0.2165063
v 0.125 0.08660247 -0.2165062
v 0.1500001 -7.633603E-08 -0.2598074
v 0.3 -3.367993E-08 2.118112E-08
v 0.25 0.0866025 5.001208E-08
v -0.1499999 -7.65729E-08 -0.2598075
v -0.1249999 -0.0866026 -0.2165062
v 0.125 -0.0866026 -0.2165062
v 0.1500001 -7.633603E-08 -0.2598074
v -0.3 -3.354226E-08 -2.406751E-08
v -0.25 -0.08660255 -7.318771E-08
v -0.1249999 -0.0866026 -0.2165062
v -0.1499999 -7.65729E-08 -0.2598075
v -0.15 -6.151946E-09 0.2598076
v -0.125 -0.08660252 0.2165062
v -0.25 -0.08660255 -7.318771E-08
v -0.3 -3.354226E-08 -2.406751E-08
v 0.15 -6.3438E-09 0.2598076
v 0.125 -0.08660252 0.2165062
v -0.125 -0.08660252 0.2165062
v -0.15 -6.151946E-09 0.2598076
v 0.3 -3.367993E-08 2.118112E-08
v 0.25 -0.08660255 -3.556057E-08
v 0.125 -0.08660252 0.2165062
v 0.15 -6.3438E-09 0.2598076
v 0.1500001 -7.633603E-08 -0.2598074
v 0.125 -0.0866026 -0.2165062
v 0.25 -0.08660255 -3.556057E-08
v 0.3 -3.367993E-08 2.118112E-08
v -0.07499996 -0.08660256 -0.1299037
v -0.04999998 -3.027305E-08 -0.08660249
v 0.05000002 -3.033779E-08 -0.08660247
v 0.07500002 -0.08660256 -0.1299037
v -0.15 -0.08660252 -7.793877E-08
v -0.09999999 -1.243088E-08 -1.766412E-08
v -0.04999998 -3.027305E-08 -0.08660249
v -0.07499996 -0.08660256 -0.1299037
v -0.075 -0.0866025 0.1299037
v -0.05000001 1.940101E-09 0.08660249
v -0.09999999 -1.243088E-08 -1.766412E-08
v -0.15 -0.08660252 -7.793877E-08
v 0.07499998 -0.0866025 0.1299037
v 0.04999999 1.840428E-09 0.08660249
v -0.05000001 1.940101E-09 0.08660249
v -0.075 -0.0866025 0.1299037
v 0.15 -0.08660252 -5.530375E-08
v 0.09999999 -1.251784E-08 -2.418616E-09
v 0.04999999 1.840428E-09 0.08660249
v 0.07499998 -0.0866025 0.1299037
v 0.07500002 -0.08660256 -0.1299037
v 0.05000002 -3.033779E-08 -0.08660247
v 0.09999999 -1.251784E-08 -2.418616E-09
v 0.15 -0.08660252 -5.530375E-08
v -0.07499997 0.08660249 -0.1299037
v -0.125 0.08660247 -0.2165062
v 0.125 0.08660247 -0.2165062
v 0.07500003 0.08660249 -0.1299037
v -0.15 0.08660251 1.974631E-08
v 0.25 0.0866025 5.001208E-08
v -0.25 0.0866025 1.216919E-08
v 0.15 0.08660251 4.258268E-08
v -0.07500001 0.08660253 0.1299038
v 0.125 0.08660253 0.2165063
v -0.125 0.08660253 0.2165063
v 0.07499999 0.08660253 0.1299038
v -0.1249999 -0.0866026 -0.2165062
v -0.07499996 -0.08660256 -0.1299037
v 0.07500002 -0.08660256 -0.1299037
v 0.125 -0.0866026 -0.2165062
v -0.25 -0.08660255 -7.318771E-08
v 0.15 -0.08660252 -5.530375E-08
v -0.15 -0.08660252 -7.793877E-08
v 0.25 -0.08660255 -3.556057E-08
v -0.125 -0.08660252 0.2165062
v 0.07499998 -0.0866025 0.1299037
v -0.075 -0.0866025 0.1299037
v 0.125 -0.08660252 0.2165062
vt 1.289063 0.8588867
vt 1.28418 0.8774414
vt 1.316406 0.8774414
vt 1.310547 0.8588867
vt 1.299805 0.8588867
vt 1.319336 0.8588867
vt 1.319336 0.8305664
vt 1.299805 0.8398438
vt 1.299805 0.8774414
vt 1.319336 0.8867188
vt 1.319336 0.8588867
vt 1.299805 0.8588867
vt 1.310547 0.8588867
vt 1.316406 0.8398438
vt 1.28418 0.8398438
vt 1.289063 0.8588867
vt 1.299805 0.8588867
vt 1.319336 0.8588867
vt 1.319336 0.8305664
vt 1.299805 0.8398438
vt 1.299805 0.8774414
vt 1.319336 0.8867188
vt 1.319336 0.8588867
vt 1.299805 0.8588867
vt 1.28125 0.8857422
vt 1.299805 0.8911133
vt 1.299805 0.8261719
vt 1.28125 0.831543
vt 1.319336 0.8588867
vt 1.299805 0.8588867
vt 1.299805 0.9150391
vt 1.319336 0.9057617
vt 1.319336 0.8120117
vt 1.299805 0.8022461
vt 1.299805 0.8588867
vt 1.319336 0.8588867
vt 1.319336 0.831543
vt 1.299805 0.8261719
vt 1.299805 0.8911133
vt 1.319336 0.8857422
vt 1.319336 0.8588867
vt 1.299805 0.8588867
vt 1.299805 0.9150391
vt 1.319336 0.9057617
vt 1.319336 0.8120117
vt 1.299805 0.8022461
vt 1.299805 0.8588867
vt 1.319336 0.8588867
vt 1.299805 0.8911133
vt 1.319336 0.8857422
vt 1.319336 0.831543
vt 1.299805 0.8261719
vt 1.299805 0.8588867
vt 1.28125 0.8588867
vt 1.28125 0.9057617
vt 1.299805 0.9150391
vt 1.299805 0.8022461
vt 1.28125 0.8120117
vt 1.28125 0.8588867
vt 1.299805 0.8588867
vt 1.299805 0.8261719
vt 1.28125 0.831543
vt 1.28125 0.8857422
vt 1.299805 0.8911133
vt 1.299805 0.8588867
vt 1.28125 0.8588867
vt 1.28125 0.9057617
vt 1.299805 0.9150391
vt 1.299805 0.8022461
vt 1.28125 0.8120117
vt 1.28125 0.8588867
vt 1.299805 0.8588867
vt 1.28418 0.8398438
vt 1.289063 0.8588867
vt 1.310547 0.8588867
vt 1.316406 0.8398438
vt 1.28125 0.8588867
vt 1.299805 0.8588867
vt 1.299805 0.8398438
vt 1.28125 0.8305664
vt 1.28125 0.8867188
vt 1.299805 0.8774414
vt 1.299805 0.8588867
vt 1.28125 0.8588867
vt 1.316406 0.8774414
vt 1.310547 0.8588867
vt 1.289063 0.8588867
vt 1.28418 0.8774414
vt 1.28125 0.8588867
vt 1.299805 0.8588867
vt 1.299805 0.8398438
vt 1.28125 0.8305664
vt 1.28125 0.8867188
vt 1.299805 0.8774414
vt 1.299805 0.8588867
vt 1.28125 0.8588867
vt 1.328125 0.875
vt 1.34668 0.8857422
vt 1.34668 0.831543
vt 1.328125 0.8427734
vt 1.299805 0.8911133
vt 1.299805 0.8046875
vt 1.299805 0.9130859
vt 1.299805 0.8261719
vt 1.271484 0.875
vt 1.25293 0.831543
vt 1.25293 0.8857422
vt 1.271484 0.8427734
vt 1.25293 0.8857422
vt 1.271484 0.875
vt 1.271484 0.8427734
vt 1.25293 0.831543
vt 1.299805 0.9130859
vt 1.299805 0.8261719
vt 1.299805 0.8911133
vt 1.299805 0.8046875
vt 1.34668 0.8857422
vt 1.328125 0.8427734
vt 1.328125 0.875
vt 1.34668 0.831543
vn 0 0.4472133 0.8944274
vn 0 0.4472132 0.8944274
vn 0 0.4472132 0.8944274
vn 0 0.4472133 0.8944274
vn 0.7745966 0.4472134 0.4472139
vn 0.7745966 0.4472134 0.4472139
vn 0.7745966 0.4472134 0.4472139
vn 0.7745966 0.4472135 0.4472139
vn 0.7745966 0.4472138 -0.4472136
vn 0.7745966 0.4472138 -0.4472136
vn 0.7745966 0.4472139 -0.4472136
vn 0.7745966 0.4472138 -0.4472136
vn 0 0.4472139 -0.894427
vn 0 0.4472139 -0.894427
vn 0 0.4472139 -0.894427
vn 0 0.4472139 -0.894427
vn -0.7745964 0.4472138 -0.4472137
vn -0.7745964 0.4472139 -0.4472137
vn -0.7745965 0.4472137 -0.4472137
vn -0.7745965 0.4472138 -0.4472137
vn -0.7745967 0.4472136 0.4472136
vn -0.7745967 0.4472136 0.4472136
vn -0.7745967 0.4472135 0.4472136
vn -0.7745967 0.4472136 0.4472136
vn 0 0.4472132 -0.8944274
vn 0 0.4472133 -0.8944274
vn 0 0.4472132 -0.8944274
vn 0 0.4472132 -0.8944274
vn -0.7745966 0.4472134 -0.4472141
vn -0.7745966 0.4472134 -0.447214
vn -0.7745966 0.4472134 -0.447214
vn -0.7745966 0.4472134 -0.447214
vn -0.7745968 0.4472136 0.4472134
vn -0.7745967 0.4472136 0.4472135
vn -0.7745967 0.4472136 0.4472135
vn -0.7745967 0.4472136 0.4472135
vn 0 0.4472134 0.8944273
vn 0 0.4472135 0.8944273
vn 0 0.4472135 0.8944273
vn 0 0.4472134 0.8944273
vn 0.7745967 0.4472135 0.4472137
vn 0.7745967 0.4472134 0.4472137
vn 0.7745966 0.4472135 0.4472137
vn 0.7745967 0.4472135 0.4472137
vn 0.7745965 0.4472137 -0.4472137
vn 0.7745966 0.4472138 -0.4472137
vn 0.7745966 0.4472138 -0.4472137
vn 0.7745965 0.4472137 -0.4472137
vn 0 -0.4472136 -0.8944272
vn 0 -0.4472136 -0.8944272
vn 0 -0.4472136 -0.8944272
vn 0 -0.4472136 -0.8944272
vn -0.7745965 -0.4472136 -0.4472139
vn -0.7745965 -0.4472136 -0.4472139
vn -0.7745965 -0.4472136 -0.4472139
vn -0.7745965 -0.4472136 -0.4472138
vn -0.7745965 -0.447214 0.4472134
vn -0.7745965 -0.447214 0.4472135
vn -0.7745965 -0.447214 0.4472135
vn -0.7745965 -0.447214 0.4472135
vn 0 -0.4472144 0.8944268
vn 0 -0.4472144 0.8944268
vn 0 -0.4472144 0.8944268
vn 0 -0.4472144 0.8944268
vn 0.7745963 -0.4472143 0.4472136
vn 0.7745963 -0.4472143 0.4472136
vn 0.7745963 -0.4472142 0.4472136
vn 0.7745963 -0.4472142 0.4472135
vn 0.7745966 -0.4472137 -0.4472136
vn 0.7745966 -0.4472137 -0.4472136
vn 0.7745966 -0.4472137 -0.4472136
vn 0.7745966 -0.4472137 -0.4472136
vn 0 -0.4472134 0.8944273
vn 0 -0.4472135 0.8944273
vn 0 -0.4472135 0.8944273
vn 0 -0.4472135 0.8944273
vn 0.7745964 -0.4472136 0.4472141
vn 0.7745964 -0.4472136 0.4472141
vn 0.7745964 -0.4472136 0.447214
vn 0.7745964 -0.4472136 0.447214
vn 0.7745968 -0.4472133 -0.4472136
vn 0.7745968 -0.4472133 -0.4472136
vn 0.7745968 -0.4472134 -0.4472136
vn 0.7745968 -0.4472134 -0.4472137
vn 0 -0.447213 -0.8944275
vn 0 -0.447213 -0.8944275
vn 0 -0.447213 -0.8944275
vn 0 -0.447213 -0.8944275
vn -0.7745967 -0.4472134 -0.4472138
vn -0.7745967 -0.4472133 -0.4472138
vn -0.7745967 -0.4472134 -0.4472138
vn -0.7745967 -0.4472134 -0.4472138
vn -0.7745966 -0.4472137 0.4472138
vn -0.7745965 -0.4472137 0.4472137
vn -0.7745965 -0.4472137 0.4472138
vn -0.7745965 -0.4472136 0.4472137
vn 0 1 0
vn 0 1 0
vn 0 1 0
vn 0 1 0
vn 0 1 0
vn 0 1 0
vn 0 1 0
vn 0 1 0
vn 0 1 0
vn 0 1 0
vn 0 1 0
vn 0 1 0
vn 0 -1 0
vn 0 -1 0
vn 0 -1 0
vn 0 -1 0
vn 0 -1 0
vn 0 -1 0
vn 0 -1 0
vn 0 -1 0
vn 0 -1 0
vn 0 -1 0
vn 0 -1 0
vn 0 -1 0
g Buckle_0
f 3/3/3 2/2/2 1/1/1
f 4/4/4 3/3/3 1/1/1
f 7/7/7 6/6/6 5/5/5
f 8/8/8 7/7/7 5/5/5
f 11/11/11 10/10/10 9/9/9
f 12/12/12 11/11/11 9/9/9
f 15/15/15 14/14/14 13/13/13
f 16/16/16 15/15/15 13/13/13
f 19/19/19 18/18/18 17/17/17
f 20/20/20 19/19/19 17/17/17
f 23/23/23 22/22/22 21/21/21
f 24/24/24 23/23/23 21/21/21
f 27/27/27 26/26/26 25/25/25
f 28/28/28 27/27/27 25/25/25
f 31/31/31 30/30/30 29/29/29
f 32/32/32 31/31/31 29/29/29
f 35/35/35 34/34/34 33/33/33
f 36/36/36 35/35/35 33/33/33
f 39/39/39 38/38/38 37/37/37
f 40/40/40 39/39/39 37/37/37
f 43/43/43 42/42/42 41/41/41
f 44/44/44 43/43/43 41/41/41
f 47/47/47 46/46/46 45/45/45
f 48/48/48 47/47/47 45/45/45
f 51/51/51 50/50/50 49/49/49
f 52/52/52 51/51/51 49/49/49
f 55/55/55 54/54/54 53/53/53
f 56/56/56 55/55/55 53/53/53
f 59/59/59 58/58/58 57/57/57
f 60/60/60 59/59/59 57/57/57
f 63/63/63 62/62/62 61/61/61
f 64/64/64 63/63/63 61/61/61
f 67/67/67 66/66/66 65/65/65
f 68/68/68 67/67/67 65/65/65
f 71/71/71 70/70/70 69/69/69
f 72/72/72 71/71/71 69/69/69
f 75/75/75 74/74/74 73/73/73
f 76/76/76 75/75/75 73/73/73
f 79/79/79 78/78/78 77/77/77
f 80/80/80 79/79/79 77/77/77
f 83/83/83 82/82/82 81/81/81
f 84/84/84 83/83/83 81/81/81
f 87/87/87 86/86/86 85/85/85
f 88/88/88 87/87/87 85/85/85
f 91/91/91 90/90/90 89/89/89
f 92/92/92 91/91/91 89/89/89
f 95/95/95 94/94/94 93/93/93
f 96/96/96 95/95/95 93/93/93
f 99/99/99 98/98/98 97/97/97
f 100/100/100 99/99/99 97/97/97
f 97/97/97 98/98/98 101/101/101
f 102/102/102 99/99/99 100/100/100
f 98/98/98 103/103/103 101/101/101
f 104/104/104 102/102/102 100/100/100
f 101/101/101 103/103/103 105/105/105
f 106/106/106 102/102/102 104/104/104
f 103/103/103 107/107/107 105/105/105
f 108/108/108 106/106/106 104/104/104
f 105/105/105 107/107/107 108/108/108
f 107/107/107 106/106/106 108/108/108
f 111/111/111 110/110/110 109/109/109
f 112/112/112 111/111/111 109/109/109
f 109/109/109 110/110/110 113/113/113
f 114/114/114 111/111/111 112/112/112
f 110/110/110 115/115/115 113/113/113
f 116/116/116 114/114/114 112/112/112
f 113/113/113 115/115/115 117/117/117
f 118/118/118 114/114/114 116/116/116
f 115/115/115 119/119/119 117/117/117
f 120/120/120 118/118/118 116/116/116
f 117/117/117 119/119/119 120/120/120
f 119/119/119 118/118/118 120/120/120
