g Button
v -0.9477316 9.640624 0.946463
v -0.9195523 9.696485 0.9474929
v -0.9006611 9.676557 1.015495
v -0.9214888 9.63527 1.014734
v -0.9214888 9.63527 1.014734
v -0.9297047 9.590047 1.019875
v -0.9588476 9.57944 0.9534189
v -0.9477316 9.640624 0.946463
v -0.9195523 9.696485 0.9474929
v -0.8770681 9.741551 0.9564081
v -0.8692603 9.709867 1.022084
v -0.9006611 9.676557 1.015495
v -0.8770681 9.741551 0.9564081
v -0.8244377 9.771415 0.9723352
v -0.83036 9.73194 1.033857
v -0.8692603 9.709867 1.022084
v -0.8244377 9.771415 0.9723352
v -0.766813 9.783153 0.9937159
v -0.7877694 9.740615 1.049659
v -0.83036 9.73194 1.033857
v -0.766813 9.783153 0.9937159
v -0.7098346 9.775613 1.018457
v -0.7456555 9.735042 1.067945
v -0.7877694 9.740615 1.049659
v -0.7098346 9.775613 1.018457
v -0.6590802 9.749536 1.044136
v -0.7081419 9.715768 1.086925
v -0.7456555 9.735042 1.067945
v -0.6590802 9.749536 1.044136
v -0.6195175 9.707473 1.06824
v -0.6789006 9.684678 1.104741
v -0.7081419 9.715768 1.086925
v -0.6195175 9.707473 1.06824
v -0.5950197 9.653543 1.08841
v -0.660794 9.644816 1.119649
v -0.6789006 9.684678 1.104741
v -0.5950197 9.653543 1.08841
v -0.5879844 9.593022 1.102671
v -0.6555941 9.600085 1.130189
v -0.660794 9.644816 1.119649
v -0.5879844 9.593022 1.102671
v -0.5991005 9.531838 1.109626
v -0.6638102 9.554864 1.13533
v -0.6555941 9.600085 1.130189
v -0.5991005 9.531838 1.109626
v -0.6272799 9.475978 1.108596
v -0.684638 9.513577 1.134569
v -0.6638102 9.554864 1.13533
v -0.6272799 9.475978 1.108596
v -0.669764 9.430911 1.099681
v -0.7160385 9.480268 1.12798
v -0.684638 9.513577 1.134569
v -0.669764 9.430911 1.099681
v -0.7223946 9.401046 1.083754
v -0.7549387 9.458194 1.116207
v -0.7160385 9.480268 1.12798
v -0.7223946 9.401046 1.083754
v -0.780019 9.38931 1.062373
v -0.7975301 9.449519 1.100405
v -0.7549387 9.458194 1.116207
v -0.780019 9.38931 1.062373
v -0.8369973 9.39685 1.037632
v -0.8396431 9.455092 1.082118
v -0.7975301 9.449519 1.100405
v -0.8369973 9.39685 1.037632
v -0.8877518 9.422927 1.011953
v -0.8771568 9.474366 1.063138
v -0.8396431 9.455092 1.082118
v -0.8877518 9.422927 1.011953
v -0.9273146 9.464988 0.9878494
v -0.9063984 9.505456 1.045323
v -0.8771568 9.474366 1.063138
v -0.9273146 9.464988 0.9878494
v -0.9518123 9.51892 0.9676793
v -0.9245048 9.545316 1.030415
v -0.9063984 9.505456 1.045323
v -0.9518123 9.51892 0.9676793
v -0.9588476 9.57944 0.9534189
v -0.9297047 9.590047 1.019875
v -0.9245048 9.545316 1.030415
v -0.9284943 9.631785 0.8994658
v -0.9195523 9.696485 0.9474929
v -0.9477316 9.640624 0.946463
v -0.9003149 9.687646 0.9004958
v -0.8770681 9.741551 0.9564081
v -0.8578306 9.732713 0.9094108
v -0.8244377 9.771415 0.9723352
v -0.8052002 9.762576 0.9253381
v -0.766813 9.783153 0.9937159
v -0.7475756 9.774314 0.9467185
v -0.7098346 9.775613 1.018457
v -0.6905972 9.766774 0.9714595
v -0.6590802 9.749536 1.044136
v -0.6398427 9.740697 0.9971388
v -0.6195175 9.707473 1.06824
v -0.6002802 9.698634 1.021243
v -0.5950197 9.653543 1.08841
v -0.5757822 9.644704 1.041413
v -0.5879844 9.593022 1.102671
v -0.5687471 9.584184 1.055673
v -0.5991005 9.531838 1.109626
v -0.5798633 9.523 1.062629
v -0.6272799 9.475978 1.108596
v -0.6080426 9.467139 1.061599
v -0.669764 9.430911 1.099681
v -0.6505268 9.422072 1.052684
v -0.7223946 9.401046 1.083754
v -0.7031571 9.392207 1.036757
v -0.780019 9.38931 1.062373
v -0.7607817 9.380471 1.015376
v -0.8369973 9.39685 1.037632
v -0.8177601 9.388011 0.9906352
v -0.8877518 9.422927 1.011953
v -0.8685146 9.414088 0.964956
v -0.9273146 9.464988 0.9878494
v -0.9080771 9.456149 0.9408518
v -0.9518123 9.51892 0.9676793
v -0.932575 9.510081 0.9206822
v -0.9588476 9.57944 0.9534189
v -0.9396103 9.570601 0.9064218
v -0.9477316 9.640624 0.946463
v -0.9284943 9.631785 0.8994658
v -0.9003149 9.687646 0.9004958
v -0.9284943 9.631785 0.8994658
v -0.7541786 9.577392 0.9810473
v -0.8578306 9.732713 0.9094108
v -0.9396103 9.570601 0.9064218
v -0.8052002 9.762576 0.9253381
v -0.932575 9.510081 0.9206822
v -0.7475756 9.774314 0.9467185
v -0.9080771 9.456149 0.9408518
v -0.6905972 9.766774 0.9714595
v -0.8685146 9.414088 0.964956
v -0.6398427 9.740697 0.9971388
v -0.8177601 9.388011 0.9906352
v -0.6002802 9.698634 1.021243
v -0.7607817 9.380471 1.015376
v -0.5757822 9.644704 1.041413
v -0.7031571 9.392207 1.036757
v -0.5687471 9.584184 1.055673
v -0.6505268 9.422072 1.052684
v -0.5798633 9.523 1.062629
v -0.6080426 9.467139 1.061599
v -0.9214888 9.63527 1.014734
v -0.9006611 9.676557 1.015495
v -0.7926495 9.595065 1.075032
v -0.9297047 9.590047 1.019875
v -0.8692603 9.709867 1.022084
v -0.9245048 9.545316 1.030415
v -0.83036 9.73194 1.033857
v -0.9063984 9.505456 1.045323
v -0.7877694 9.740615 1.049659
v -0.8771568 9.474366 1.063138
v -0.7456555 9.735042 1.067945
v -0.8396431 9.455092 1.082118
v -0.7081419 9.715768 1.086925
v -0.7975301 9.449519 1.100405
v -0.6789006 9.684678 1.104741
v -0.7549387 9.458194 1.116207
v -0.660794 9.644816 1.119649
v -0.7160385 9.480268 1.12798
v -0.6555941 9.600085 1.130189
v -0.684638 9.513577 1.134569
v -0.6638102 9.554864 1.13533
vt 0.375 0.5004883
vt 0.3874512 0.5004883
vt 0.3859863 0.6884766
vt 0.376709 0.6884766
vt 0.6235352 0.6884766
vt 0.6142578 0.6884766
vt 0.6123047 0.5004883
vt 0.625 0.5004883
vt 0.3874512 0.5004883
vt 0.3999023 0.5004883
vt 0.3984375 0.6884766
vt 0.3891602 0.6884766
vt 0.3999023 0.5004883
vt 0.4125977 0.5004883
vt 0.4108887 0.6884766
vt 0.4016113 0.6884766
vt 0.4125977 0.5004883
vt 0.4250488 0.5004883
vt 0.4233398 0.6884766
vt 0.4140625 0.6884766
vt 0.4250488 0.5004883
vt 0.4375 0.5004883
vt 0.435791 0.6884766
vt 0.4265137 0.6884766
vt 0.4375 0.5004883
vt 0.4499512 0.5004883
vt 0.4484863 0.6884766
vt 0.439209 0.6884766
vt 0.4499512 0.5004883
vt 0.4624023 0.5004883
vt 0.4609375 0.6884766
vt 0.4516602 0.6884766
vt 0.4624023 0.5004883
vt 0.4750977 0.5004883
vt 0.4733887 0.6884766
vt 0.4641113 0.6884766
vt 0.4750977 0.5004883
vt 0.4875488 0.5004883
vt 0.4858398 0.6884766
vt 0.4765625 0.6884766
vt 0.4875488 0.5004883
vt 0.5 0.5004883
vt 0.498291 0.6884766
vt 0.4890137 0.6884766
vt 0.5 0.5004883
vt 0.5126953 0.5004883
vt 0.5107422 0.6884766
vt 0.5014648 0.6884766
vt 0.5126953 0.5004883
vt 0.5249023 0.5004883
vt 0.5234375 0.6884766
vt 0.5141602 0.6884766
vt 0.5249023 0.5004883
vt 0.5375977 0.5004883
vt 0.5356445 0.6884766
vt 0.5268555 0.6884766
vt 0.5375977 0.5004883
vt 0.5498047 0.5004883
vt 0.5483398 0.6884766
vt 0.5390625 0.6884766
vt 0.5498047 0.5004883
vt 0.5625 0.5004883
vt 0.5610352 0.6884766
vt 0.5517578 0.6884766
vt 0.5625 0.5004883
vt 0.5751953 0.5004883
vt 0.5732422 0.6884766
vt 0.5639648 0.6884766
vt 0.5751953 0.5004883
vt 0.5874023 0.5004883
vt 0.5859375 0.6884766
vt 0.5766602 0.6884766
vt 0.5874023 0.5004883
vt 0.6000977 0.5004883
vt 0.5981445 0.6884766
vt 0.5893555 0.6884766
vt 0.6000977 0.5004883
vt 0.6123047 0.5004883
vt 0.6108398 0.6884766
vt 0.6015625 0.6884766
vt 0.375 0.3125
vt 0.3874512 0.5004883
vt 0.375 0.5004883
vt 0.3874512 0.3125
vt 0.3999023 0.5004883
vt 0.3999023 0.3125
vt 0.4125977 0.5004883
vt 0.4125977 0.3125
vt 0.4250488 0.5004883
vt 0.4250488 0.3125
vt 0.4375 0.5004883
vt 0.4375 0.3125
vt 0.4499512 0.5004883
vt 0.4499512 0.3125
vt 0.4624023 0.5004883
vt 0.4624023 0.3125
vt 0.4750977 0.5004883
vt 0.4750977 0.3125
vt 0.4875488 0.5004883
vt 0.4875488 0.3125
vt 0.5 0.5004883
vt 0.5 0.3125
vt 0.5126953 0.5004883
vt 0.5126953 0.3125
vt 0.5249023 0.5004883
vt 0.5249023 0.3125
vt 0.5375977 0.5004883
vt 0.5375977 0.3125
vt 0.5498047 0.5004883
vt 0.5498047 0.3125
vt 0.5625 0.5004883
vt 0.5625 0.3125
vt 0.5751953 0.5004883
vt 0.5751953 0.3125
vt 0.5874023 0.5004883
vt 0.5874023 0.3125
vt 0.6000977 0.5004883
vt 0.6000977 0.3125
vt 0.6123047 0.5004883
vt 0.6123047 0.3125
vt 0.625 0.5004883
vt 0.625 0.3125
vt 0.6264648 0.06439209
vt 0.6484375 0.1079712
vt 0.5 0.1500244
vt 0.5917969 0.02984619
vt 0.65625 0.15625
vt 0.5483398 0.007648468
vt 0.6484375 0.2045898
vt 0.5 -5.960464E-08
vt 0.6264648 0.2480469
vt 0.4516602 0.007648468
vt 0.5917969 0.2827148
vt 0.4082031 0.02984619
vt 0.5483398 0.3049316
vt 0.3735352 0.06439209
vt 0.5 0.3125
vt 0.3513184 0.1079712
vt 0.4516602 0.3049316
vt 0.34375 0.15625
vt 0.4082031 0.2827148
vt 0.3513184 0.2045898
vt 0.3735352 0.2480469
vt 0.6098633 0.8779297
vt 0.5932617 0.9101563
vt 0.5 0.8374023
vt 0.6157227 0.8422852
vt 0.5678711 0.9355469
vt 0.6098633 0.8066406
vt 0.5356445 0.9521484
vt 0.5932617 0.7744141
vt 0.5 0.9575195
vt 0.5678711 0.7485352
vt 0.4643555 0.9521484
vt 0.5356445 0.7324219
vt 0.4321289 0.9355469
vt 0.5 0.7265625
vt 0.4064941 0.9101563
vt 0.4643555 0.7324219
vt 0.3901367 0.8779297
vt 0.4321289 0.7485352
vt 0.3845215 0.8422852
vt 0.4064941 0.7744141
vt 0.3901367 0.8066406
vn -0.8780007 0.3131026 0.362052
vn -0.7789872 0.5093724 0.3656755
vn -0.7789877 0.5093718 0.3656755
vn -0.8780009 0.3131018 0.3620521
vn -0.8780009 0.3131018 0.3620521
vn -0.917058 0.09812461 0.3864924
vn -0.9170579 0.09812629 0.3864921
vn -0.8780007 0.3131026 0.362052
vn -0.7789872 0.5093724 0.3656755
vn -0.6297202 0.6677197 0.3969924
vn -0.6297201 0.6677198 0.3969924
vn -0.7789877 0.5093718 0.3656755
vn -0.6297202 0.6677197 0.3969924
vn -0.4448054 0.772651 0.4529443
vn -0.4448044 0.7726513 0.4529447
vn -0.6297201 0.6677198 0.3969924
vn -0.4448054 0.772651 0.4529443
vn -0.2423248 0.8138878 0.5280771
vn -0.2423249 0.8138877 0.528077
vn -0.4448044 0.7726513 0.4529447
vn -0.2423248 0.8138878 0.5280771
vn -0.042134 0.7873933 0.6150094
vn -0.04213343 0.7873931 0.6150096
vn -0.2423249 0.8138877 0.528077
vn -0.042134 0.7873933 0.6150094
vn 0.1361881 0.6957707 0.7052347
vn 0.136188 0.6957707 0.7052346
vn -0.04213343 0.7873931 0.6150096
vn 0.1361881 0.6957707 0.7052347
vn 0.2751971 0.5479753 0.7899302
vn 0.275198 0.5479738 0.7899308
vn 0.136188 0.6957707 0.7052346
vn 0.2751971 0.5479753 0.7899302
vn 0.3612714 0.3584906 0.8607946
vn 0.3612725 0.3584868 0.8607958
vn 0.275198 0.5479738 0.7899308
vn 0.3612714 0.3584906 0.8607946
vn 0.3859921 0.1458552 0.9108987
vn 0.3859919 0.1458516 0.9108993
vn 0.3612725 0.3584868 0.8607958
vn 0.3859921 0.1458552 0.9108987
vn 0.3469359 -0.06912508 0.935338
vn 0.3469355 -0.06912665 0.9353381
vn 0.3859919 0.1458516 0.9108993
vn 0.3469359 -0.06912508 0.935338
vn 0.2479272 -0.2653939 0.9317179
vn 0.2479276 -0.2653934 0.9317179
vn 0.3469355 -0.06912665 0.9353381
vn 0.2479272 -0.2653939 0.9317179
vn 0.09866128 -0.4237398 0.9003948
vn 0.09866159 -0.4237394 0.9003948
vn 0.2479276 -0.2653934 0.9317179
vn 0.09866128 -0.4237398 0.9003948
vn -0.08625848 -0.528666 0.8444357
vn -0.08625866 -0.5286661 0.8444357
vn 0.09866159 -0.4237394 0.9003948
vn -0.08625848 -0.528666 0.8444357
vn -0.2887384 -0.5699058 0.7693098
vn -0.2887402 -0.5699059 0.769309
vn -0.08625866 -0.5286661 0.8444357
vn -0.2887384 -0.5699058 0.7693098
vn -0.4889328 -0.5434181 0.6823792
vn -0.4889329 -0.5434181 0.6823792
vn -0.2887402 -0.5699059 0.769309
vn -0.4889328 -0.5434181 0.6823792
vn -0.6672519 -0.4517967 0.592161
vn -0.6672508 -0.4517974 0.5921616
vn -0.4889329 -0.5434181 0.6823792
vn -0.6672519 -0.4517967 0.592161
vn -0.8062607 -0.3040037 0.5074698
vn -0.806262 -0.3040017 0.5074689
vn -0.6672508 -0.4517974 0.5921616
vn -0.8062607 -0.3040037 0.5074698
vn -0.8923393 -0.1145111 0.4365978
vn -0.8923389 -0.1145131 0.4365984
vn -0.806262 -0.3040017 0.5074689
vn -0.8923393 -0.1145111 0.4365978
vn -0.9170579 0.09812629 0.3864921
vn -0.917058 0.09812461 0.3864924
vn -0.8923389 -0.1145131 0.4365984
vn -0.8715781 0.2719609 -0.4079079
vn -0.7306755 0.5512655 -0.402765
vn -0.8715765 0.2719658 -0.4079081
vn -0.7306767 0.5512639 -0.4027652
vn -0.5182464 0.7766066 -0.3581939
vn -0.5182474 0.7766058 -0.3581941
vn -0.2551053 0.9259166 -0.2785672
vn -0.255107 0.925916 -0.2785678
vn 0.03301431 0.9846029 -0.1716599
vn 0.03301363 0.9846029 -0.1716602
vn 0.3179125 0.9469073 -0.04793981
vn 0.3179128 0.9469072 -0.0479396
vn 0.5716835 0.8165206 0.08045004
vn 0.5716843 0.8165199 0.0804505
vn 0.7694955 0.6062103 0.2009616
vn 0.7694978 0.606207 0.2009631
vn 0.8919848 0.3365547 0.3018182
vn 0.8919854 0.3365521 0.3018189
vn 0.9271588 0.03395909 0.3731267
vn 0.9271587 0.03395651 0.3731272
vn 0.8715746 -0.271962 0.4079144
vn 0.8715739 -0.2719648 0.4079146
vn 0.7306776 -0.5512648 0.4027621
vn 0.7306777 -0.5512647 0.4027621
vn 0.5182602 -0.7766004 0.3581873
vn 0.5182602 -0.7766004 0.3581873
vn 0.2551077 -0.9259209 0.2785509
vn 0.2551058 -0.9259216 0.2785502
vn -0.03303188 -0.9846052 0.1716433
vn -0.03303244 -0.9846052 0.1716431
vn -0.3179194 -0.9469041 0.04795764
vn -0.3179186 -0.9469044 0.04795805
vn -0.5716805 -0.8165243 -0.08043385
vn -0.5716783 -0.8165259 -0.08043271
vn -0.7694988 -0.6062062 -0.200962
vn -0.7694967 -0.6062093 -0.2009605
vn -0.8919871 -0.3365473 -0.3018194
vn -0.8919857 -0.3365524 -0.3018178
vn -0.927159 -0.03395727 -0.373126
vn -0.927159 -0.03395722 -0.373126
vn -0.8715765 0.2719658 -0.4079081
vn -0.8715781 0.2719609 -0.4079079
vn 0.3732156 -0.1714614 -0.9117626
vn 0.3732125 -0.1714621 -0.9117638
vn 0.3732145 -0.1714602 -0.9117634
vn 0.3732142 -0.1714628 -0.9117629
vn 0.3732104 -0.171459 -0.9117652
vn 0.3732159 -0.1714599 -0.9117628
vn 0.3732089 -0.1714539 -0.9117668
vn 0.3732171 -0.1714588 -0.9117625
vn 0.3732125 -0.1714595 -0.9117643
vn 0.3732147 -0.1714593 -0.9117634
vn 0.3732164 -0.1714623 -0.9117621
vn 0.3732148 -0.1714594 -0.9117634
vn 0.3732167 -0.1714611 -0.9117623
vn 0.3732179 -0.171461 -0.9117618
vn 0.3732143 -0.1714613 -0.9117632
vn 0.3732139 -0.1714589 -0.9117638
vn 0.3732142 -0.1714596 -0.9117636
vn 0.3732125 -0.1714593 -0.9117644
vn 0.3732166 -0.1714613 -0.9117623
vn 0.3732152 -0.1714606 -0.9117629
vn 0.3732137 -0.1714614 -0.9117634
vn -0.3732139 0.1714635 0.9117629
vn -0.3732136 0.1714604 0.9117636
vn -0.3732126 0.1714594 0.9117643
vn -0.3732066 0.1714566 0.9117672
vn -0.3732113 0.1714521 0.9117662
vn -0.3732147 0.1714632 0.9117627
vn -0.3732141 0.1714561 0.9117642
vn -0.3732155 0.1714625 0.9117624
vn -0.3732106 0.1714574 0.9117654
vn -0.373211 0.1714592 0.9117649
vn -0.3732118 0.1714582 0.9117649
vn -0.3732152 0.1714613 0.9117628
vn -0.3732141 0.1714585 0.9117638
vn -0.3732108 0.1714606 0.9117648
vn -0.373212 0.1714557 0.9117652
vn -0.3732128 0.1714614 0.9117638
vn -0.3732108 0.1714579 0.9117653
vn -0.3732173 0.1714617 0.9117619
vn -0.3732142 0.1714621 0.9117631
vn -0.3732105 0.1714595 0.9117651
vn -0.3732121 0.1714597 0.9117644
g Button_0
f 3/3/3 2/2/2 1/1/1
f 4/4/4 3/3/3 1/1/1
f 7/7/7 6/6/6 5/5/5
f 8/8/8 7/7/7 5/5/5
f 11/11/11 10/10/10 9/9/9
f 12/12/12 11/11/11 9/9/9
f 15/15/15 14/14/14 13/13/13
f 16/16/16 15/15/15 13/13/13
f 19/19/19 18/18/18 17/17/17
f 20/20/20 19/19/19 17/17/17
f 23/23/23 22/22/22 21/21/21
f 24/24/24 23/23/23 21/21/21
f 27/27/27 26/26/26 25/25/25
f 28/28/28 27/27/27 25/25/25
f 31/31/31 30/30/30 29/29/29
f 32/32/32 31/31/31 29/29/29
f 35/35/35 34/34/34 33/33/33
f 36/36/36 35/35/35 33/33/33
f 39/39/39 38/38/38 37/37/37
f 40/40/40 39/39/39 37/37/37
f 43/43/43 42/42/42 41/41/41
f 44/44/44 43/43/43 41/41/41
f 47/47/47 46/46/46 45/45/45
f 48/48/48 47/47/47 45/45/45
f 51/51/51 50/50/50 49/49/49
f 52/52/52 51/51/51 49/49/49
f 55/55/55 54/54/54 53/53/53
f 56/56/56 55/55/55 53/53/53
f 59/59/59 58/58/58 57/57/57
f 60/60/60 59/59/59 57/57/57
f 63/63/63 62/62/62 61/61/61
f 64/64/64 63/63/63 61/61/61
f 67/67/67 66/66/66 65/65/65
f 68/68/68 67/67/67 65/65/65
f 71/71/71 70/70/70 69/69/69
f 72/72/72 71/71/71 69/69/69
f 75/75/75 74/74/74 73/73/73
f 76/76/76 75/75/75 73/73/73
f 79/79/79 78/78/78 77/77/77
f 80/80/80 79/79/79 77/77/77
f 83/83/83 82/82/82 81/81/81
f 82/82/82 84/84/84 81/81/81
f 82/82/82 85/85/85 84/84/84
f 85/85/85 86/86/86 84/84/84
f 85/85/85 87/87/87 86/86/86
f 87/87/87 88/88/88 86/86/86
f 87/87/87 89/89/89 88/88/88
f 89/89/89 90/90/90 88/88/88
f 89/89/89 91/91/91 90/90/90
f 91/91/91 92/92/92 90/90/90
f 91/91/91 93/93/93 92/92/92
f 93/93/93 94/94/94 92/92/92
f 93/93/93 95/95/95 94/94/94
f 95/95/95 96/96/96 94/94/94
f 95/95/95 97/97/97 96/96/96
f 97/97/97 98/98/98 96/96/96
f 97/97/97 99/99/99 98/98/98
f 99/99/99 100/100/100 98/98/98
f 99/99/99 101/101/101 100/100/100
f 101/101/101 102/102/102 100/100/100
f 101/101/101 103/103/103 102/102/102
f 103/103/103 104/104/104 102/102/102
f 103/103/103 105/105/105 104/104/104
f 105/105/105 106/106/106 104/104/104
f 105/105/105 107/107/107 106/106/106
f 107/107/107 108/108/108 106/106/106
f 107/107/107 109/109/109 108/108/108
f 109/109/109 110/110/110 108/108/108
f 109/109/109 111/111/111 110/110/110
f 111/111/111 112/112/112 110/110/110
f 111/111/111 113/113/113 112/112/112
f 113/113/113 114/114/114 112/112/112
f 113/113/113 115/115/115 114/114/114
f 115/115/115 116/116/116 114/114/114
f 115/115/115 117/117/117 116/116/116
f 117/117/117 118/118/118 116/116/116
f 117/117/117 119/119/119 118/118/118
f 119/119/119 120/120/120 118/118/118
f 119/119/119 121/121/121 120/120/120
f 121/121/121 122/122/122 120/120/120
f 125/125/125 124/124/124 123/123/123
f 125/125/125 123/123/123 126/126/126
f 125/125/125 127/127/127 124/124/124
f 125/125/125 126/126/126 128/128/128
f 125/125/125 129/129/129 127/127/127
f 125/125/125 128/128/128 130/130/130
f 125/125/125 131/131/131 129/129/129
f 125/125/125 130/130/130 132/132/132
f 125/125/125 133/133/133 131/131/131
f 125/125/125 132/132/132 134/134/134
f 125/125/125 135/135/135 133/133/133
f 125/125/125 134/134/134 136/136/136
f 125/125/125 137/137/137 135/135/135
f 125/125/125 136/136/136 138/138/138
f 125/125/125 139/139/139 137/137/137
f 125/125/125 138/138/138 140/140/140
f 125/125/125 141/141/141 139/139/139
f 125/125/125 140/140/140 142/142/142
f 125/125/125 143/143/143 141/141/141
f 125/125/125 142/142/142 143/143/143
f 146/146/146 145/145/145 144/144/144
f 146/146/146 144/144/144 147/147/147
f 146/146/146 148/148/148 145/145/145
f 146/146/146 147/147/147 149/149/149
f 146/146/146 150/150/150 148/148/148
f 146/146/146 149/149/149 151/151/151
f 146/146/146 152/152/152 150/150/150
f 146/146/146 151/151/151 153/153/153
f 146/146/146 154/154/154 152/152/152
f 146/146/146 153/153/153 155/155/155
f 146/146/146 156/156/156 154/154/154
f 146/146/146 155/155/155 157/157/157
f 146/146/146 158/158/158 156/156/156
f 146/146/146 157/157/157 159/159/159
f 146/146/146 160/160/160 158/158/158
f 146/146/146 159/159/159 161/161/161
f 146/146/146 162/162/162 160/160/160
f 146/146/146 161/161/161 163/163/163
f 146/146/146 164/164/164 162/162/162
f 146/146/146 163/163/163 164/164/164
