g Button1
v 0.9128681 9.915105 0.9024568
v 0.8918738 9.910821 0.9570733
v 0.8752117 9.943851 0.9576822
v 0.8903247 9.959792 0.9032807
v 0.8918738 9.910821 0.9570733
v 0.9128681 9.915105 0.9024568
v 0.9217609 9.866157 0.9080215
v 0.8984465 9.874642 0.9611862
v 0.8903247 9.959792 0.9032807
v 0.8752117 9.943851 0.9576822
v 0.850091 9.970498 0.9629539
v 0.8563373 9.995846 0.9104129
v 0.8563373 9.995846 0.9104129
v 0.850091 9.970498 0.9629539
v 0.8189708 9.988158 0.9723716
v 0.8142329 10.01974 0.9231545
v 0.8142329 10.01974 0.9231545
v 0.8189708 9.988158 0.9723716
v 0.7848984 9.995097 0.9850135
v 0.7681332 10.02913 0.9402591
v 0.7681332 10.02913 0.9402591
v 0.7848984 9.995097 0.9850135
v 0.7512072 9.990638 0.9996426
v 0.7225505 10.0231 0.9600518
v 0.7225505 10.0231 0.9600518
v 0.7512072 9.990638 0.9996426
v 0.7211964 9.975219 1.014827
v 0.681947 10.00223 0.9805954
v 0.681947 10.00223 0.9805954
v 0.7211964 9.975219 1.014827
v 0.6978033 9.950347 1.029079
v 0.6502969 9.968584 0.9998786
v 0.6502969 9.968584 0.9998786
v 0.6978033 9.950347 1.029079
v 0.683318 9.918458 1.041005
v 0.6306986 9.925439 1.016014
v 0.6306986 9.925439 1.016014
v 0.683318 9.918458 1.041005
v 0.6791581 9.882673 1.049438
v 0.6250703 9.877023 1.027423
v 0.6250703 9.877023 1.027423
v 0.6791581 9.882673 1.049438
v 0.685731 9.846496 1.05355
v 0.6339633 9.828075 1.032987
v 0.6339633 9.828075 1.032987
v 0.685731 9.846496 1.05355
v 0.7023932 9.813467 1.052941
v 0.6565068 9.783387 1.032163
v 0.6565068 9.783387 1.032163
v 0.7023932 9.813467 1.052941
v 0.7275136 9.786819 1.04767
v 0.690494 9.747334 1.025031
v 0.690494 9.747334 1.025031
v 0.7275136 9.786819 1.04767
v 0.7586339 9.76916 1.038252
v 0.7325985 9.723442 1.01229
v 0.7325985 9.723442 1.01229
v 0.7586339 9.76916 1.038252
v 0.7927069 9.76222 1.02561
v 0.778698 9.714053 0.995185
v 0.778698 9.714053 0.995185
v 0.7927069 9.76222 1.02561
v 0.8263973 9.76668 1.010981
v 0.8242806 9.720085 0.9753922
v 0.8242806 9.720085 0.9753922
v 0.8263973 9.76668 1.010981
v 0.8564082 9.782098 0.9957971
v 0.8648843 9.740947 0.9548488
v 0.8648843 9.740947 0.9548488
v 0.8564082 9.782098 0.9957971
v 0.8798015 9.80697 0.9815446
v 0.8965346 9.774596 0.9355659
v 0.8965346 9.774596 0.9355659
v 0.8798015 9.80697 0.9815446
v 0.8942867 9.838858 0.9696186
v 0.9161327 9.817741 0.9194298
v 0.9161327 9.817741 0.9194298
v 0.8942867 9.838858 0.9696186
v 0.8984465 9.874642 0.9611862
v 0.9217609 9.866157 0.9080215
v 0.8974783 9.908033 0.864859
v 0.9128681 9.915105 0.9024568
v 0.8903247 9.959792 0.9032807
v 0.8749347 9.952722 0.865683
v 0.8563373 9.995846 0.9104129
v 0.8409473 9.988775 0.872815
v 0.8142329 10.01974 0.9231545
v 0.798843 10.01267 0.8855568
v 0.7681332 10.02913 0.9402591
v 0.7527433 10.02206 0.9026611
v 0.7225505 10.0231 0.9600518
v 0.7071606 10.01602 0.922454
v 0.681947 10.00223 0.9805954
v 0.666557 9.995162 0.9429974
v 0.6502969 9.968584 0.9998786
v 0.6349069 9.961513 0.962281
v 0.6306986 9.925439 1.016014
v 0.6153086 9.918368 0.9784165
v 0.6250703 9.877023 1.027423
v 0.6096805 9.869952 0.989825
v 0.6339633 9.828075 1.032987
v 0.6185734 9.821005 0.9953896
v 0.6565068 9.783387 1.032163
v 0.6411169 9.776317 0.9945655
v 0.690494 9.747334 1.025031
v 0.6751042 9.740264 0.9874336
v 0.7325985 9.723442 1.01229
v 0.7172085 9.716371 0.9746917
v 0.778698 9.714053 0.995185
v 0.7633082 9.706982 0.9575874
v 0.8242806 9.720085 0.9753922
v 0.8088909 9.713014 0.9377945
v 0.8648843 9.740947 0.9548488
v 0.8494945 9.733875 0.9172512
v 0.8965346 9.774596 0.9355659
v 0.8811446 9.767524 0.8979679
v 0.9161327 9.817741 0.9194298
v 0.9007429 9.81067 0.8818321
v 0.9217609 9.866157 0.9080215
v 0.9063712 9.859087 0.8704239
v 0.9128681 9.915105 0.9024568
v 0.8974783 9.908033 0.864859
v 0.8749347 9.952722 0.865683
v 0.7580258 9.864519 0.9301242
v 0.8974783 9.908033 0.864859
v 0.8409473 9.988775 0.872815
v 0.9063712 9.859087 0.8704239
v 0.798843 10.01267 0.8855568
v 0.9007429 9.81067 0.8818321
v 0.7527433 10.02206 0.9026611
v 0.8811446 9.767524 0.8979679
v 0.7071606 10.01602 0.922454
v 0.8494945 9.733875 0.9172512
v 0.666557 9.995162 0.9429974
v 0.8088909 9.713014 0.9377945
v 0.6349069 9.961513 0.962281
v 0.7633082 9.706982 0.9575874
v 0.6153086 9.918368 0.9784165
v 0.7172085 9.716371 0.9746917
v 0.6096805 9.869952 0.989825
v 0.6751042 9.740264 0.9874336
v 0.6185734 9.821005 0.9953896
v 0.6411169 9.776317 0.9945655
v 0.8918738 9.910821 0.9570733
v 0.7888024 9.878657 1.005312
v 0.8752117 9.943851 0.9576822
v 0.8984465 9.874642 0.9611862
v 0.850091 9.970498 0.9629539
v 0.8942867 9.838858 0.9696186
v 0.8189708 9.988158 0.9723716
v 0.8798015 9.80697 0.9815446
v 0.7848984 9.995097 0.9850135
v 0.8564082 9.782098 0.9957971
v 0.7512072 9.990638 0.9996426
v 0.8263973 9.76668 1.010981
v 0.7211964 9.975219 1.014827
v 0.7927069 9.76222 1.02561
v 0.6978033 9.950347 1.029079
v 0.7586339 9.76916 1.038252
v 0.683318 9.918458 1.041005
v 0.7275136 9.786819 1.04767
v 0.6791581 9.882673 1.049438
v 0.7023932 9.813467 1.052941
v 0.685731 9.846496 1.05355
vt 0.375 0.5004883
vt 0.376709 0.6884766
vt 0.3859863 0.6884766
vt 0.3874512 0.5004883
vt 0.6235352 0.6884766
vt 0.625 0.5004883
vt 0.6123047 0.5004883
vt 0.6142578 0.6884766
vt 0.3874512 0.5004883
vt 0.3891602 0.6884766
vt 0.3984375 0.6884766
vt 0.3999023 0.5004883
vt 0.3999023 0.5004883
vt 0.4016113 0.6884766
vt 0.4108887 0.6884766
vt 0.4125977 0.5004883
vt 0.4125977 0.5004883
vt 0.4140625 0.6884766
vt 0.4233398 0.6884766
vt 0.4250488 0.5004883
vt 0.4250488 0.5004883
vt 0.4265137 0.6884766
vt 0.435791 0.6884766
vt 0.4375 0.5004883
vt 0.4375 0.5004883
vt 0.439209 0.6884766
vt 0.4484863 0.6884766
vt 0.4499512 0.5004883
vt 0.4499512 0.5004883
vt 0.4516602 0.6884766
vt 0.4609375 0.6884766
vt 0.4624023 0.5004883
vt 0.4624023 0.5004883
vt 0.4641113 0.6884766
vt 0.4733887 0.6884766
vt 0.4750977 0.5004883
vt 0.4750977 0.5004883
vt 0.4765625 0.6884766
vt 0.4858398 0.6884766
vt 0.4875488 0.5004883
vt 0.4875488 0.5004883
vt 0.4890137 0.6884766
vt 0.498291 0.6884766
vt 0.5 0.5004883
vt 0.5 0.5004883
vt 0.5014648 0.6884766
vt 0.5107422 0.6884766
vt 0.5126953 0.5004883
vt 0.5126953 0.5004883
vt 0.5141602 0.6884766
vt 0.5234375 0.6884766
vt 0.5249023 0.5004883
vt 0.5249023 0.5004883
vt 0.5268555 0.6884766
vt 0.5356445 0.6884766
vt 0.5375977 0.5004883
vt 0.5375977 0.5004883
vt 0.5390625 0.6884766
vt 0.5483398 0.6884766
vt 0.5498047 0.5004883
vt 0.5498047 0.5004883
vt 0.5517578 0.6884766
vt 0.5610352 0.6884766
vt 0.5625 0.5004883
vt 0.5625 0.5004883
vt 0.5639648 0.6884766
vt 0.5732422 0.6884766
vt 0.5751953 0.5004883
vt 0.5751953 0.5004883
vt 0.5766602 0.6884766
vt 0.5859375 0.6884766
vt 0.5874023 0.5004883
vt 0.5874023 0.5004883
vt 0.5893555 0.6884766
vt 0.5981445 0.6884766
vt 0.6000977 0.5004883
vt 0.6000977 0.5004883
vt 0.6015625 0.6884766
vt 0.6108398 0.6884766
vt 0.6123047 0.5004883
vt 0.375 0.3125
vt 0.375 0.5004883
vt 0.3874512 0.5004883
vt 0.3874512 0.3125
vt 0.3999023 0.5004883
vt 0.3999023 0.3125
vt 0.4125977 0.5004883
vt 0.4125977 0.3125
vt 0.4250488 0.5004883
vt 0.4250488 0.3125
vt 0.4375 0.5004883
vt 0.4375 0.3125
vt 0.4499512 0.5004883
vt 0.4499512 0.3125
vt 0.4624023 0.5004883
vt 0.4624023 0.3125
vt 0.4750977 0.5004883
vt 0.4750977 0.3125
vt 0.4875488 0.5004883
vt 0.4875488 0.3125
vt 0.5 0.5004883
vt 0.5 0.3125
vt 0.5126953 0.5004883
vt 0.5126953 0.3125
vt 0.5249023 0.5004883
vt 0.5249023 0.3125
vt 0.5375977 0.5004883
vt 0.5375977 0.3125
vt 0.5498047 0.5004883
vt 0.5498047 0.3125
vt 0.5625 0.5004883
vt 0.5625 0.3125
vt 0.5751953 0.5004883
vt 0.5751953 0.3125
vt 0.5874023 0.5004883
vt 0.5874023 0.3125
vt 0.6000977 0.5004883
vt 0.6000977 0.3125
vt 0.6123047 0.5004883
vt 0.6123047 0.3125
vt 0.625 0.5004883
vt 0.625 0.3125
vt 0.6264648 0.06439209
vt 0.5 0.1500244
vt 0.6484375 0.1079712
vt 0.5917969 0.02984619
vt 0.65625 0.15625
vt 0.5483398 0.007648468
vt 0.6484375 0.2045898
vt 0.5 -5.960464E-08
vt 0.6264648 0.2480469
vt 0.4516602 0.007648468
vt 0.5917969 0.2827148
vt 0.4082031 0.02984619
vt 0.5483398 0.3049316
vt 0.3735352 0.06439209
vt 0.5 0.3125
vt 0.3513184 0.1079712
vt 0.4516602 0.3049316
vt 0.34375 0.15625
vt 0.4082031 0.2827148
vt 0.3513184 0.2045898
vt 0.3735352 0.2480469
vt 0.6098633 0.8779297
vt 0.5 0.8374023
vt 0.5932617 0.9101563
vt 0.6157227 0.8422852
vt 0.5678711 0.9355469
vt 0.6098633 0.8066406
vt 0.5356445 0.9521484
vt 0.5932617 0.7744141
vt 0.5 0.9575195
vt 0.5678711 0.7485352
vt 0.4643555 0.9521484
vt 0.5356445 0.7324219
vt 0.4321289 0.9355469
vt 0.5 0.7265625
vt 0.4064941 0.9101563
vt 0.4643555 0.7324219
vt 0.3901367 0.8779297
vt 0.4321289 0.7485352
vt 0.3845215 0.8422852
vt 0.4064941 0.7744141
vt 0.3901367 0.8066406
vn 0.8779989 0.313101 0.3620574
vn 0.8779995 0.3130995 0.3620575
vn 0.7789882 0.5093715 0.365675
vn 0.7789877 0.5093721 0.365675
vn 0.8779995 0.3130995 0.3620575
vn 0.8779989 0.313101 0.3620574
vn 0.9170564 0.09812624 0.3864957
vn 0.9170564 0.09812389 0.386496
vn 0.7789877 0.5093721 0.365675
vn 0.7789882 0.5093715 0.365675
vn 0.629721 0.6677164 0.3969965
vn 0.6297207 0.6677167 0.3969966
vn 0.6297207 0.6677167 0.3969966
vn 0.629721 0.6677164 0.3969965
vn 0.4448049 0.7726474 0.4529508
vn 0.4448056 0.7726473 0.4529505
vn 0.4448056 0.7726473 0.4529505
vn 0.4448049 0.7726474 0.4529508
vn 0.2423226 0.8138884 0.5280771
vn 0.2423226 0.8138884 0.5280771
vn 0.2423226 0.8138884 0.5280771
vn 0.2423226 0.8138884 0.5280771
vn 0.04212869 0.7873929 0.6150101
vn 0.04212938 0.7873932 0.6150098
vn 0.04212938 0.7873932 0.6150098
vn 0.04212869 0.7873929 0.6150101
vn -0.1361898 0.6957699 0.7052351
vn -0.1361899 0.6957698 0.7052352
vn -0.1361899 0.6957698 0.7052352
vn -0.1361898 0.6957699 0.7052351
vn -0.2751931 0.5479689 0.7899359
vn -0.2751917 0.547971 0.789935
vn -0.2751917 0.547971 0.789935
vn -0.2751931 0.5479689 0.7899359
vn -0.3612679 0.3584822 0.8607996
vn -0.3612671 0.3584854 0.8607987
vn -0.3612671 0.3584854 0.8607987
vn -0.3612679 0.3584822 0.8607996
vn -0.3859931 0.1458517 0.9108989
vn -0.3859932 0.1458544 0.9108984
vn -0.3859932 0.1458544 0.9108984
vn -0.3859931 0.1458517 0.9108989
vn -0.3469364 -0.06912641 0.9353377
vn -0.3469369 -0.06912471 0.9353376
vn -0.3469369 -0.06912471 0.9353376
vn -0.3469364 -0.06912641 0.9353377
vn -0.2479247 -0.2653904 0.9317195
vn -0.2479247 -0.2653903 0.9317195
vn -0.2479247 -0.2653903 0.9317195
vn -0.2479247 -0.2653904 0.9317195
vn -0.09865875 -0.423733 0.9003981
vn -0.0986589 -0.4237328 0.9003983
vn -0.0986589 -0.4237328 0.9003983
vn -0.09865875 -0.423733 0.9003981
vn 0.08625903 -0.5286684 0.8444343
vn 0.08625868 -0.5286682 0.8444343
vn 0.08625868 -0.5286682 0.8444343
vn 0.08625903 -0.5286684 0.8444343
vn 0.2887456 -0.5699136 0.7693013
vn 0.2887438 -0.5699135 0.769302
vn 0.2887438 -0.5699135 0.769302
vn 0.2887456 -0.5699136 0.7693013
vn 0.4889341 -0.5434208 0.6823762
vn 0.4889337 -0.543421 0.6823763
vn 0.4889337 -0.543421 0.6823763
vn 0.4889341 -0.5434208 0.6823762
vn 0.6672484 -0.4518005 0.5921618
vn 0.6672502 -0.4517993 0.5921609
vn 0.6672502 -0.4517993 0.5921609
vn 0.6672484 -0.4518005 0.5921618
vn 0.8062633 -0.3040032 0.5074658
vn 0.8062625 -0.3040045 0.5074664
vn 0.8062625 -0.3040045 0.5074664
vn 0.8062633 -0.3040032 0.5074658
vn 0.8923402 -0.1145133 0.4365954
vn 0.8923411 -0.1145104 0.4365945
vn 0.8923411 -0.1145104 0.4365945
vn 0.8923402 -0.1145133 0.4365954
vn 0.9170564 0.09812389 0.386496
vn 0.9170564 0.09812624 0.3864957
vn 0.8715752 0.2719609 -0.407914
vn 0.8715734 0.2719662 -0.4079144
vn 0.7306732 0.5512676 -0.4027666
vn 0.7306743 0.551266 -0.4027667
vn 0.5182487 0.7766051 -0.3581938
vn 0.5182496 0.7766043 -0.3581941
vn 0.2551083 0.9259167 -0.2785641
vn 0.2551104 0.9259159 -0.2785648
vn -0.03301766 0.9846056 -0.1716444
vn -0.03301689 0.9846054 -0.1716446
vn -0.3179161 0.9469063 -0.04793532
vn -0.3179167 0.9469061 -0.04793504
vn -0.5716831 0.8165216 0.08044167
vn -0.5716839 0.816521 0.08044212
vn -0.7694955 0.6062109 0.2009601
vn -0.7694982 0.6062068 0.200962
vn -0.8919849 0.3365538 0.3018186
vn -0.8919857 0.336551 0.3018194
vn -0.9271581 0.03395849 0.3731283
vn -0.9271581 0.03395594 0.3731288
vn -0.8715777 -0.2719641 0.4079067
vn -0.8715768 -0.2719667 0.4079068
vn -0.7306802 -0.5512681 0.4027528
vn -0.7306808 -0.5512673 0.4027529
vn -0.5182609 -0.7766011 0.3581846
vn -0.5182613 -0.7766008 0.3581847
vn -0.2551103 -0.9259167 0.2785625
vn -0.2551081 -0.9259175 0.2785617
vn 0.03303242 -0.9846013 0.1716659
vn 0.03303326 -0.9846013 0.1716655
vn 0.3179241 -0.9469018 0.04797019
vn 0.3179232 -0.9469022 0.04797063
vn 0.5716825 -0.8165241 -0.08041983
vn 0.5716802 -0.8165259 -0.08041855
vn 0.7694991 -0.6062068 -0.2009588
vn 0.7694967 -0.6062104 -0.2009571
vn 0.8919879 -0.3365459 -0.3018188
vn 0.8919863 -0.3365515 -0.3018171
vn 0.9271602 -0.03395733 -0.3731232
vn 0.9271601 -0.0339566 -0.3731233
vn 0.8715734 0.2719662 -0.4079144
vn 0.8715752 0.2719609 -0.407914
vn -0.3732146 -0.1714624 -0.9117628
vn -0.3732135 -0.1714601 -0.9117638
vn -0.3732091 -0.1714634 -0.9117649
vn -0.3732138 -0.171462 -0.9117633
vn -0.3732043 -0.1714562 -0.9117683
vn -0.3732163 -0.1714603 -0.9117625
vn -0.3732061 -0.1714514 -0.9117684
vn -0.3732151 -0.1714586 -0.9117634
vn -0.3732107 -0.1714584 -0.9117652
vn -0.3732136 -0.17146 -0.9117638
vn -0.3732154 -0.1714622 -0.9117625
vn -0.373213 -0.1714599 -0.911764
vn -0.3732163 -0.1714612 -0.9117624
vn -0.3732163 -0.1714609 -0.9117624
vn -0.3732148 -0.171461 -0.911763
vn -0.3732195 -0.1714615 -0.911761
vn -0.3732141 -0.1714582 -0.9117639
vn -0.3732194 -0.1714633 -0.9117607
vn -0.3732144 -0.1714596 -0.9117635
vn -0.3732132 -0.1714614 -0.9117636
vn -0.3732088 -0.17146 -0.9117657
vn 0.3732174 0.1714634 0.9117615
vn 0.3732141 0.1714601 0.9117635
vn 0.3732106 0.1714575 0.9117654
vn 0.3732129 0.1714595 0.9117641
vn 0.3732137 0.171453 0.911765
vn 0.3732163 0.1714645 0.9117618
vn 0.3732162 0.1714557 0.9117634
vn 0.3732146 0.1714622 0.9117629
vn 0.3732104 0.1714558 0.9117659
vn 0.3732125 0.1714588 0.9117644
vn 0.3732106 0.1714576 0.9117654
vn 0.3732178 0.171464 0.9117613
vn 0.3732167 0.1714607 0.9117623
vn 0.3732132 0.1714627 0.9117634
vn 0.3732189 0.1714606 0.9117614
vn 0.3732126 0.1714613 0.9117639
vn 0.373217 0.1714613 0.9117621
vn 0.3732092 0.1714603 0.9117655
vn 0.3732181 0.1714633 0.9117612
vn 0.3732091 0.1714598 0.9117657
vn 0.373215 0.1714609 0.911763
g Button1_0
f 3/3/3 2/2/2 1/1/1
f 4/4/4 3/3/3 1/1/1
f 7/7/7 6/6/6 5/5/5
f 8/8/8 7/7/7 5/5/5
f 11/11/11 10/10/10 9/9/9
f 12/12/12 11/11/11 9/9/9
f 15/15/15 14/14/14 13/13/13
f 16/16/16 15/15/15 13/13/13
f 19/19/19 18/18/18 17/17/17
f 20/20/20 19/19/19 17/17/17
f 23/23/23 22/22/22 21/21/21
f 24/24/24 23/23/23 21/21/21
f 27/27/27 26/26/26 25/25/25
f 28/28/28 27/27/27 25/25/25
f 31/31/31 30/30/30 29/29/29
f 32/32/32 31/31/31 29/29/29
f 35/35/35 34/34/34 33/33/33
f 36/36/36 35/35/35 33/33/33
f 39/39/39 38/38/38 37/37/37
f 40/40/40 39/39/39 37/37/37
f 43/43/43 42/42/42 41/41/41
f 44/44/44 43/43/43 41/41/41
f 47/47/47 46/46/46 45/45/45
f 48/48/48 47/47/47 45/45/45
f 51/51/51 50/50/50 49/49/49
f 52/52/52 51/51/51 49/49/49
f 55/55/55 54/54/54 53/53/53
f 56/56/56 55/55/55 53/53/53
f 59/59/59 58/58/58 57/57/57
f 60/60/60 59/59/59 57/57/57
f 63/63/63 62/62/62 61/61/61
f 64/64/64 63/63/63 61/61/61
f 67/67/67 66/66/66 65/65/65
f 68/68/68 67/67/67 65/65/65
f 71/71/71 70/70/70 69/69/69
f 72/72/72 71/71/71 69/69/69
f 75/75/75 74/74/74 73/73/73
f 76/76/76 75/75/75 73/73/73
f 79/79/79 78/78/78 77/77/77
f 80/80/80 79/79/79 77/77/77
f 83/83/83 82/82/82 81/81/81
f 84/84/84 83/83/83 81/81/81
f 85/85/85 83/83/83 84/84/84
f 86/86/86 85/85/85 84/84/84
f 87/87/87 85/85/85 86/86/86
f 88/88/88 87/87/87 86/86/86
f 89/89/89 87/87/87 88/88/88
f 90/90/90 89/89/89 88/88/88
f 91/91/91 89/89/89 90/90/90
f 92/92/92 91/91/91 90/90/90
f 93/93/93 91/91/91 92/92/92
f 94/94/94 93/93/93 92/92/92
f 95/95/95 93/93/93 94/94/94
f 96/96/96 95/95/95 94/94/94
f 97/97/97 95/95/95 96/96/96
f 98/98/98 97/97/97 96/96/96
f 99/99/99 97/97/97 98/98/98
f 100/100/100 99/99/99 98/98/98
f 101/101/101 99/99/99 100/100/100
f 102/102/102 101/101/101 100/100/100
f 103/103/103 101/101/101 102/102/102
f 104/104/104 103/103/103 102/102/102
f 105/105/105 103/103/103 104/104/104
f 106/106/106 105/105/105 104/104/104
f 107/107/107 105/105/105 106/106/106
f 108/108/108 107/107/107 106/106/106
f 109/109/109 107/107/107 108/108/108
f 110/110/110 109/109/109 108/108/108
f 111/111/111 109/109/109 110/110/110
f 112/112/112 111/111/111 110/110/110
f 113/113/113 111/111/111 112/112/112
f 114/114/114 113/113/113 112/112/112
f 115/115/115 113/113/113 114/114/114
f 116/116/116 115/115/115 114/114/114
f 117/117/117 115/115/115 116/116/116
f 118/118/118 117/117/117 116/116/116
f 119/119/119 117/117/117 118/118/118
f 120/120/120 119/119/119 118/118/118
f 121/121/121 119/119/119 120/120/120
f 122/122/122 121/121/121 120/120/120
f 125/125/125 124/124/124 123/123/123
f 123/123/123 124/124/124 126/126/126
f 127/127/127 124/124/124 125/125/125
f 126/126/126 124/124/124 128/128/128
f 129/129/129 124/124/124 127/127/127
f 128/128/128 124/124/124 130/130/130
f 131/131/131 124/124/124 129/129/129
f 130/130/130 124/124/124 132/132/132
f 133/133/133 124/124/124 131/131/131
f 132/132/132 124/124/124 134/134/134
f 135/135/135 124/124/124 133/133/133
f 134/134/134 124/124/124 136/136/136
f 137/137/137 124/124/124 135/135/135
f 136/136/136 124/124/124 138/138/138
f 139/139/139 124/124/124 137/137/137
f 138/138/138 124/124/124 140/140/140
f 141/141/141 124/124/124 139/139/139
f 140/140/140 124/124/124 142/142/142
f 143/143/143 124/124/124 141/141/141
f 142/142/142 124/124/124 143/143/143
f 146/146/146 145/145/145 144/144/144
f 144/144/144 145/145/145 147/147/147
f 148/148/148 145/145/145 146/146/146
f 147/147/147 145/145/145 149/149/149
f 150/150/150 145/145/145 148/148/148
f 149/149/149 145/145/145 151/151/151
f 152/152/152 145/145/145 150/150/150
f 151/151/151 145/145/145 153/153/153
f 154/154/154 145/145/145 152/152/152
f 153/153/153 145/145/145 155/155/155
f 156/156/156 145/145/145 154/154/154
f 155/155/155 145/145/145 157/157/157
f 158/158/158 145/145/145 156/156/156
f 157/157/157 145/145/145 159/159/159
f 160/160/160 145/145/145 158/158/158
f 159/159/159 145/145/145 161/161/161
f 162/162/162 145/145/145 160/160/160
f 161/161/161 145/145/145 163/163/163
f 164/164/164 145/145/145 162/162/162
f 163/163/163 145/145/145 164/164/164
