g Eraser
v -0.04977239 -0.08505449 0.111937
v 0.04977237 -0.08505449 0.111937
v 0.04977237 -0.08505449 -0.111937
v -0.04977239 -0.08505449 -0.111937
v 0.03432633 -0.03432637 0.1144211
v 0.03432633 -0.008758171 -0.1144211
v 0.03432633 -0.03432637 -0.1144211
v 0.03432633 -0.008758171 0.1144211
v 0.03183042 -0.002732475 0.1144211
v 0.03183042 -0.002732475 -0.1144211
v -0.03432633 -0.03432637 -0.1144211
v -0.03432633 -0.008758171 0.1144211
v -0.03432633 -0.03432637 0.1144211
v -0.03432633 -0.008758171 -0.1144211
v -0.03183042 -0.002732475 -0.1144211
v -0.03183042 -0.002732475 0.1144211
v 0.03432633 -0.03432637 -0.1144211
v 0.05257268 -0.04655762 -0.1144211
v 0.05257268 -0.04655762 0.1144211
v 0.03432633 -0.03432637 0.1144211
v -0.03432633 -0.03432637 0.1144211
v -0.05257267 -0.04655762 0.1144211
v -0.05257267 -0.04655762 -0.1144211
v -0.03432633 -0.03432637 -0.1144211
v -0.05257267 -0.04655762 -0.1144211
v -0.05257267 -0.0538055 -0.1144211
v 0.05257268 -0.0538055 -0.1144211
v 0.05257268 -0.04655762 -0.1144211
v -0.03432633 -0.03432637 -0.1144211
v 0.03432633 -0.03432637 -0.1144211
v 0.03432633 -0.008758171 -0.1144211
v 0.03183042 -0.002732475 -0.1144211
v 0.02580474 -0.0002366138 -0.1144211
v -0.02580475 -0.0002366138 -0.1144211
v -0.03183042 -0.002732475 -0.1144211
v -0.03432633 -0.008758171 -0.1144211
v 0.05257268 -0.04655762 -0.1144211
v 0.05257268 -0.0538055 -0.1144211
v 0.05257268 -0.0538055 0.1144211
v 0.05257268 -0.04655762 0.1144211
v 0.05257268 -0.04655762 0.1144211
v 0.05257268 -0.0538055 0.1144211
v -0.05257267 -0.0538055 0.1144211
v -0.05257267 -0.04655762 0.1144211
v 0.03432633 -0.03432637 0.1144211
v -0.03432633 -0.03432637 0.1144211
v 0.03183042 -0.002732475 0.1144211
v 0.03432633 -0.008758171 0.1144211
v 0.02580474 -0.0002366138 0.1144211
v -0.02580475 -0.0002366138 0.1144211
v -0.03183042 -0.002732475 0.1144211
v -0.03432633 -0.008758171 0.1144211
v -0.05257267 -0.04655762 0.1144211
v -0.05257267 -0.0538055 0.1144211
v -0.05257267 -0.0538055 -0.1144211
v -0.05257267 -0.04655762 -0.1144211
v 0.04977237 -0.08505449 -0.111937
v 0.0538486 -0.08036762 -0.111937
v 0.05012857 -0.0538055 -0.111937
v -0.05012857 -0.0538055 -0.111937
v -0.04977239 -0.08505449 -0.111937
v -0.0538486 -0.08036762 -0.111937
v 0.05012857 -0.0538055 -0.111937
v 0.0538486 -0.08036762 -0.111937
v 0.0538486 -0.08036762 0.111937
v 0.05012857 -0.0538055 0.111937
v 0.05012857 -0.0538055 0.111937
v 0.0538486 -0.08036762 0.111937
v 0.04977237 -0.08505449 0.111937
v -0.05012857 -0.0538055 0.111937
v -0.04977239 -0.08505449 0.111937
v -0.0538486 -0.08036762 0.111937
v -0.05012857 -0.0538055 0.111937
v -0.0538486 -0.08036762 0.111937
v -0.0538486 -0.08036762 -0.111937
v -0.05012857 -0.0538055 -0.111937
v -0.03183042 -0.002732475 0.1144211
v -0.03183042 -0.002732475 -0.1144211
v -0.02580475 -0.0002366138 -0.1144211
v -0.02580475 -0.0002366138 0.1144211
v 0.02580474 -0.0002366138 0.1144211
v 0.02580474 -0.0002366138 -0.1144211
v 0.03183042 -0.002732475 -0.1144211
v 0.03183042 -0.002732475 0.1144211
v 0.04977237 -0.08505449 -0.111937
v 0.04977237 -0.08505449 0.111937
v 0.0538486 -0.08036762 0.111937
v 0.0538486 -0.08036762 -0.111937
v -0.0538486 -0.08036762 -0.111937
v -0.0538486 -0.08036762 0.111937
v -0.04977239 -0.08505449 0.111937
v -0.04977239 -0.08505449 -0.111937
v -0.05257267 -0.0538055 -0.1144211
v -0.05012857 -0.0538055 -0.111937
v 0.05012857 -0.0538055 -0.111937
v 0.05257268 -0.0538055 -0.1144211
v -0.05257267 -0.0538055 0.1144211
v 0.05012857 -0.0538055 0.111937
v -0.05012857 -0.0538055 0.111937
v 0.05257268 -0.0538055 0.1144211
vt 0.116394 0.871582
vt 0.1560059 0.871582
vt 0.1560059 0.7822266
vt 0.116394 0.7822266
vt 0.1777344 0.1712646
vt 0.1866455 0.09143066
vt 0.1777344 0.09143066
vt 0.1866455 0.1712646
vt 0.1887207 0.1712646
vt 0.1887207 0.09143066
vt 0.1966553 0.1712646
vt 0.2055664 0.09143066
vt 0.1966553 0.09143066
vt 0.2055664 0.1712646
vt 0.2076416 0.1712646
vt 0.2076416 0.09143066
vt 0.1777344 0.09143066
vt 0.1734619 0.09143066
vt 0.1734619 0.1712646
vt 0.1777344 0.1712646
vt 0.1966553 0.09143066
vt 0.1923828 0.09143066
vt 0.1923828 0.1712646
vt 0.1966553 0.1712646
vt 0.2565918 0.2086182
vt 0.2590332 0.2086182
vt 0.2590332 0.171875
vt 0.2565918 0.171875
vt 0.2521973 0.2021484
vt 0.2521973 0.1782227
vt 0.2432861 0.1782227
vt 0.2412109 0.1790771
vt 0.2403564 0.1812744
vt 0.2403564 0.1992188
vt 0.2412109 0.2012939
vt 0.2432861 0.2021484
vt 0.1734619 0.09143066
vt 0.1708984 0.09143066
vt 0.1708984 0.1712646
vt 0.1734619 0.1712646
vt 0.2232666 0.171875
vt 0.2207031 0.171875
vt 0.2207031 0.2086182
vt 0.2232666 0.2086182
vt 0.2275391 0.1782227
vt 0.2275391 0.2021484
vt 0.2385254 0.1790771
vt 0.2364502 0.1782227
vt 0.2393799 0.1812744
vt 0.2393799 0.1992188
vt 0.2385254 0.2012939
vt 0.2364502 0.2021484
vt 0.1923828 0.09143066
vt 0.1898193 0.09143066
vt 0.1898193 0.1712646
vt 0.1923828 0.1712646
vt 0.1575928 0.8735352
vt 0.1557617 0.8720703
vt 0.1451416 0.8735352
vt 0.1451416 0.9135742
vt 0.1575928 0.9130859
vt 0.1557617 0.9150391
vt 0.1697998 0.7822266
vt 0.1591797 0.7822266
vt 0.1591797 0.871582
vt 0.1697998 0.871582
vt 0.144165 0.8735352
vt 0.1335449 0.8720703
vt 0.1317139 0.8735352
vt 0.144165 0.9135742
vt 0.1317139 0.9130859
vt 0.1335449 0.9150391
vt 0.1711426 0.8720703
vt 0.1605225 0.8720703
vt 0.1605225 0.9609375
vt 0.1711426 0.9609375
vt 0.147583 0.09143066
vt 0.147583 0.1712646
vt 0.1496582 0.1712646
vt 0.1496582 0.09143066
vt 0.1677246 0.09143066
vt 0.1677246 0.1712646
vt 0.1697998 0.1712646
vt 0.1697998 0.09143066
vt 0.1573486 0.7822266
vt 0.1573486 0.871582
vt 0.1591797 0.871582
vt 0.1591797 0.7822266
vt 0.1605225 0.9609375
vt 0.1605225 0.8720703
vt 0.1586914 0.8720703
vt 0.1586914 0.9609375
vt 0.2088623 0.09143066
vt 0.2097168 0.09228516
vt 0.2446289 0.09228516
vt 0.2454834 0.09143066
vt 0.2088623 0.1712646
vt 0.2446289 0.1704102
vt 0.2097168 0.1704102
vt 0.2454834 0.1712646
vn 0 -1 0
vn 0 -1 0
vn 0 -1 0
vn 0 -1 0
vn 1 0 0
vn 0.9970703 0.07873535 0
vn 1 0 0
vn 0.9970703 0.07873535 0
vn 0.9238281 0.3825684 0
vn 0.9238281 0.3825684 0
vn -1 0 0
vn -0.9970703 0.07873535 0
vn -1 0 0
vn -0.9970703 0.07873535 0
vn -0.9238281 0.3825684 0
vn -0.9238281 0.3825684 0
vn 0.5566406 0.8305664 0
vn 0.5566406 0.8305664 0
vn 0.5566406 0.8305664 0
vn 0.5566406 0.8305664 0
vn -0.5566406 0.8305664 0
vn -0.5566406 0.8305664 0
vn -0.5566406 0.8305664 0
vn -0.5566406 0.8305664 0
vn 0 0 -1
vn 0 0 -1
vn 0 0 -1
vn 0 0 -1
vn 0 0 -1
vn 0 0 -1
vn 0 0 -1
vn 0 0 -1
vn 0 0 -1
vn 0 0 -1
vn 0 0 -1
vn 0 0 -1
vn 1 0 0
vn 1 0 0
vn 1 0 0
vn 1 0 0
vn 0 0 1
vn 0 0 1
vn 0 0 1
vn 0 0 1
vn 0 0 1
vn 0 0 1
vn 0 0 1
vn 0 0 1
vn 0 0 1
vn 0 0 1
vn 0 0 1
vn 0 0 1
vn -1 0 0
vn -1 0 0
vn -1 0 0
vn -1 0 0
vn 0 0 -1
vn 0 0 -1
vn 0 0 -1
vn 0 0 -1
vn 0 0 -1
vn 0 0 -1
vn 0.9902344 0.1386719 0
vn 0.9902344 0.1386719 0
vn 0.9902344 0.1386719 0
vn 0.9902344 0.1386719 0
vn 0 0 1
vn 0 0 1
vn 0 0 1
vn 0 0 1
vn 0 0 1
vn 0 0 1
vn -0.9902344 0.1386719 0
vn -0.9902344 0.1386719 0
vn -0.9902344 0.1386719 0
vn -0.9902344 0.1386719 0
vn -0.3825684 0.9238281 0
vn -0.3825684 0.9238281 0
vn -0.04327393 0.9990234 0
vn -0.04327393 0.9990234 0
vn 0.04327393 0.9990234 0
vn 0.04327393 0.9990234 0
vn 0.3825684 0.9238281 0
vn 0.3825684 0.9238281 0
vn 0.7543945 -0.65625 0
vn 0.7543945 -0.65625 0
vn 0.7543945 -0.65625 0
vn 0.7543945 -0.65625 0
vn -0.7543945 -0.65625 0
vn -0.7543945 -0.65625 0
vn -0.7543945 -0.65625 0
vn -0.7543945 -0.65625 0
vn 0 -1 3.153086E-05
vn 0 -1 3.153086E-05
vn 0 -1 3.153086E-05
vn 0 -1 3.153086E-05
vn 0 -1 -3.039837E-05
vn 0 -1 0
vn 0 -1 -3.039837E-05
vn 0 -1 0
g Eraser_0
f 3/3/3 2/2/2 1/1/1
f 4/4/4 3/3/3 1/1/1
f 7/7/7 6/6/6 5/5/5
f 6/6/6 8/8/8 5/5/5
f 8/8/8 6/6/6 9/9/9
f 6/6/6 10/10/10 9/9/9
f 13/13/13 12/12/12 11/11/11
f 12/12/12 14/14/14 11/11/11
f 15/15/15 14/14/14 12/12/12
f 16/16/16 15/15/15 12/12/12
f 19/19/19 18/18/18 17/17/17
f 20/20/20 19/19/19 17/17/17
f 23/23/23 22/22/22 21/21/21
f 24/24/24 23/23/23 21/21/21
f 27/27/27 26/26/26 25/25/25
f 28/28/28 27/27/27 25/25/25
f 28/28/28 25/25/25 29/29/29
f 30/30/30 28/28/28 29/29/29
f 31/31/31 30/30/30 29/29/29
f 29/29/29 32/32/32 31/31/31
f 29/29/29 33/33/33 32/32/32
f 29/29/29 34/34/34 33/33/33
f 29/29/29 35/35/35 34/34/34
f 29/29/29 36/36/36 35/35/35
f 39/39/39 38/38/38 37/37/37
f 40/40/40 39/39/39 37/37/37
f 43/43/43 42/42/42 41/41/41
f 44/44/44 43/43/43 41/41/41
f 44/44/44 41/41/41 45/45/45
f 46/46/46 44/44/44 45/45/45
f 47/47/47 46/46/46 45/45/45
f 45/45/45 48/48/48 47/47/47
f 47/47/47 49/49/49 46/46/46
f 49/49/49 50/50/50 46/46/46
f 50/50/50 51/51/51 46/46/46
f 51/51/51 52/52/52 46/46/46
f 55/55/55 54/54/54 53/53/53
f 56/56/56 55/55/55 53/53/53
f 59/59/59 58/58/58 57/57/57
f 57/57/57 60/60/60 59/59/59
f 57/57/57 61/61/61 60/60/60
f 61/61/61 62/62/62 60/60/60
f 65/65/65 64/64/64 63/63/63
f 66/66/66 65/65/65 63/63/63
f 69/69/69 68/68/68 67/67/67
f 67/67/67 70/70/70 69/69/69
f 70/70/70 71/71/71 69/69/69
f 70/70/70 72/72/72 71/71/71
f 75/75/75 74/74/74 73/73/73
f 76/76/76 75/75/75 73/73/73
f 79/79/79 78/78/78 77/77/77
f 80/80/80 79/79/79 77/77/77
f 80/80/80 81/81/81 79/79/79
f 81/81/81 82/82/82 79/79/79
f 83/83/83 82/82/82 81/81/81
f 84/84/84 83/83/83 81/81/81
f 87/87/87 86/86/86 85/85/85
f 88/88/88 87/87/87 85/85/85
f 91/91/91 90/90/90 89/89/89
f 92/92/92 91/91/91 89/89/89
f 95/95/95 94/94/94 93/93/93
f 96/96/96 95/95/95 93/93/93
f 93/93/93 94/94/94 97/97/97
f 98/98/98 95/95/95 96/96/96
f 94/94/94 99/99/99 97/97/97
f 100/100/100 98/98/98 96/96/96
f 97/97/97 99/99/99 100/100/100
f 99/99/99 98/98/98 100/100/100
