g Hainr_Clown
v 0.1868345 0 0.07136445
v 0.189284 0.04911232 0.04194688
v 0.189284 0.04911232 -0.04194698
v 0.1868345 0 -0.07136445
v 0.1154701 0.1154701 0.1154701
v 0.147337 0.116984 0.06787156
v 0.189284 0.04911232 0.04194688
v 0.1868345 0 0.07136445
v 0.1169839 0.06787156 0.147337
v 0.1589309 0 0.1214124
v 0.1051462 0 0.1701301
v 0.04911234 0.04194698 0.1892839
v 0.1154701 0.1154701 0.1154701
v 2.117582E-23 0.07136449 0.1868344
v 0.06787159 0.1473371 0.1169839
v 0 0.1214124 0.1589308
v 0.04911234 -0.04194698 0.189284
v 2.117582E-23 0.07136449 0.1868344
v 0 -0.0713644 0.1868345
v -0.04911234 0.04194698 0.1892839
v -0.04911234 -0.04194698 0.189284
v 0.1169839 -0.06787156 0.147337
v 0 -0.0713644 0.1868345
v 0.1154701 -0.11547 0.11547
v 0.1154701 -0.11547 0.11547
v 0.1868345 0 0.07136445
v 0 -0.1214124 0.1589309
v 0.147337 -0.116984 0.06787152
v 0.189284 -0.04911232 0.04194688
v 0.06787159 -0.147337 0.116984
v 0.1701301 -0.1051461 -4.768371E-08
v 0.189284 -0.04911222 -0.04194693
v 0.147337 -0.116984 -0.06787162
v 0.1214124 -0.1589309 -4.768371E-08
v 0.1154701 -0.11547 0.11547
v 0.07136442 -0.1868345 -4.768371E-08
v 0.07136442 -0.1868345 -4.768371E-08
v 0.1154701 -0.11547 -0.1154701
v 0.04194695 -0.189284 -0.04911241
v 0.06787159 -0.147337 -0.116984
v 0.04194695 -0.189284 0.04911232
v 0 -0.1701301 0.1051462
v -0.06787159 -0.147337 0.116984
v 0 -0.0713644 0.1868345
v -0.1154701 -0.11547 0.11547
v -0.1169839 -0.06787156 0.147337
v -0.04194695 -0.189284 0.04911232
v -0.1154701 -0.11547 0.11547
v -0.07136442 -0.1868345 -4.768371E-08
v -0.07136442 -0.1868345 -4.768371E-08
v 0.07136442 -0.1868345 -4.768371E-08
v -0.04194695 -0.189284 -0.04911241
v 0.04194695 -0.189284 -0.04911241
v 0 -0.1701301 -0.1051463
v -0.147337 -0.116984 0.06787152
v -0.1214124 -0.1589309 -4.768371E-08
v -0.1051462 0 0.1701301
v -0.1169839 0.06787156 0.147337
v 2.117582E-23 0.07136449 0.1868344
v -0.1154701 0.1154701 0.1154701
v -0.06787159 0.1473371 0.1169839
v -0.1589309 0 0.1214124
v -0.1154701 0.1154701 0.1154701
v -0.1868345 0 0.07136445
v -0.1868345 0 0.07136445
v -0.147337 0.116984 0.06787156
v -0.189284 0.04911232 0.04194688
v -0.1154701 -0.11547 0.11547
v -0.189284 -0.04911232 0.04194688
v 0 0.1701301 0.1051462
v -0.04194695 0.1892841 0.04911232
v 0.04194695 0.1892841 0.04911232
v -0.1701301 -0.1051461 -4.768371E-08
v -0.189284 -0.04911222 -0.04194693
v -0.147337 -0.116984 -0.06787162
v -0.1154701 -0.11547 -0.1154701
v -0.07136442 -0.1868345 -4.768371E-08
v -0.06787159 -0.147337 -0.116984
v -0.04194695 -0.189284 -0.04911241
v 0.1154701 0.1154701 0.1154701
v 0.06787159 0.1473371 0.1169839
v 0.04194695 0.1892841 0.04911232
v 0.07136442 0.1868345 -4.768371E-08
v 0.147337 0.116984 0.06787156
v 0.1214124 0.1589309 -4.768371E-08
v 0.1701301 0.1051462 -4.768371E-08
v 0.189284 0.04911232 0.04194688
v 0.189284 0.04911232 -0.04194698
v 0.147337 0.1169841 -0.06787162
v 0.1868345 0 -0.07136445
v 0.1154701 0.11547 -0.1154701
v 0.1154701 0.11547 -0.1154701
v 0.07136442 0.1868345 -4.768371E-08
v 0.1589309 0 -0.1214124
v 0.06787159 0.147337 -0.116984
v 0.1169839 0.06787156 -0.1473371
v 0.04194695 0.1892841 -0.04911236
v 0.1051462 0 -0.1701302
v 0.1169839 -0.06787156 -0.147337
v 0.1868345 0 -0.07136445
v 0.1154701 -0.11547 -0.1154701
v 0.189284 -0.04911222 -0.04194693
v 0.147337 -0.116984 -0.06787162
v 0.04911234 -0.04194698 -0.189284
v 0.1154701 -0.11547 -0.1154701
v 2.117582E-23 -0.0713644 -0.1868345
v 0.06787159 -0.147337 -0.116984
v 2.117582E-23 -0.1214123 -0.1589309
v 0.04911234 0.04194698 -0.189284
v 2.117582E-23 -0.0713644 -0.1868345
v -2.117582E-23 0.0713644 -0.1868345
v -2.117582E-23 0.0713644 -0.1868345
v 0.1154701 0.11547 -0.1154701
v -0.04911234 -0.04194698 -0.189284
v -2.117582E-23 0.1214125 -0.1589309
v -0.04911234 0.04194698 -0.189284
v 0 0.1701301 -0.1051463
v -0.06787159 0.147337 -0.116984
v -2.117582E-23 0.0713644 -0.1868345
v -0.1154701 0.11547 -0.1154701
v -0.1169839 0.06787156 -0.1473371
v -0.04194695 0.1892841 -0.04911236
v -0.1154701 0.11547 -0.1154701
v -0.07136442 0.1868345 -4.768371E-08
v -0.07136442 0.1868345 -4.768371E-08
v 0.07136442 0.1868345 -4.768371E-08
v -0.04194695 0.1892841 0.04911232
v 0.04194695 0.1892841 0.04911232
v 0 0.1701301 0.1051462
v -0.147337 0.1169841 -0.06787162
v -0.1214124 0.1589309 -4.768371E-08
v -0.1051462 0 -0.1701302
v -0.1169839 -0.06787156 -0.147337
v 2.117582E-23 -0.0713644 -0.1868345
v -0.1154701 -0.11547 -0.1154701
v -0.06787159 -0.147337 -0.116984
v -0.1589309 0 -0.1214124
v -0.1154701 -0.11547 -0.1154701
v -0.1868345 0 -0.07136445
v -0.1868345 0 -0.07136445
v -0.147337 -0.116984 -0.06787162
v -0.189284 -0.04911222 -0.04194693
v -0.1154701 0.11547 -0.1154701
v -0.189284 0.04911232 -0.04194698
v 0 -0.1701301 -0.1051463
v -0.04194695 -0.189284 -0.04911241
v 0.04194695 -0.189284 -0.04911241
v -0.1701301 0.1051462 -4.768371E-08
v -0.189284 0.04911232 0.04194688
v -0.147337 0.116984 0.06787156
v -0.1154701 0.1154701 0.1154701
v -0.07136442 0.1868345 -4.768371E-08
v -0.06787159 0.1473371 0.1169839
v -0.04194695 0.1892841 0.04911232
v -0.1868345 0 -0.07136445
v -0.189284 0.04911232 -0.04194698
v -0.189284 0.04911232 0.04194688
v -0.1868345 0 0.07136445
v -0.1868345 0 0.07136445
v -0.189284 -0.04911232 0.04194688
v -0.189284 -0.04911222 -0.04194693
v -0.1868345 0 -0.07136445
v 0.1868345 0 -0.07136445
v 0.189284 -0.04911222 -0.04194693
v 0.189284 -0.04911232 0.04194688
v 0.1868345 0 0.07136445
vt 0.9892578 0.5825195
vt 0.9960938 0.6567383
vt 0.9960938 0.5595703
vt 0.9892578 0.4174805
vt 0.8027344 0.8876953
vt 0.8862305 0.8359375
vt 0.9960938 0.6567383
vt 0.9892578 0.5825195
vt 0.8066406 0.8193359
vt 0.9165039 0.6401367
vt 0.7753906 0.6962891
vt 0.6289063 0.8110352
vt 0.8027344 0.8876953
vt 0.5 0.8730469
vt 0.6777344 0.9594727
vt 0.5 0.9506836
vt 0.6289063 0.6264648
vt 0.5 0.8730469
vt 0.5 0.5585938
vt 0.3713379 0.8110352
vt 0.3713379 0.6264648
vt 0.8066406 0.5209961
vt 0.5 0.5585938
vt 0.8027344 0.3791504
vt 0.8027344 0.3791504
vt 0.9892578 0.5825195
vt 0.5 0.4162598
vt 0.8862305 0.3208008
vt 0.9960938 0.4404297
vt 0.6777344 0.310791
vt 0.9458008 0.2685547
vt 0.9960938 0.3435059
vt 0.8862305 0.1640625
vt 0.8178711 0.1501465
vt 0.8027344 0.3791504
vt 0.6870117 0.08874512
vt 0.6870117 0.08874512
vt 0.8027344 0.1124878
vt 0.6098633 0.02664185
vt 0.6777344 0.04058838
vt 0.6098633 0.1401367
vt 0.5 0.2469482
vt 0.3222656 0.310791
vt 0.5 0.5585938
vt 0.1975098 0.3791504
vt 0.1934814 0.5209961
vt 0.3901367 0.1401367
vt 0.1975098 0.3791504
vt 0.3129883 0.08874512
vt 0.3129883 0.08874512
vt 0.6870117 0.08874512
vt 0.3901367 0.02664185
vt 0.6098633 0.02664185
vt 0.5 0.004096985
vt 0.1140137 0.3208008
vt 0.1818848 0.1501465
vt 0.2244873 0.6962891
vt 0.1934814 0.8193359
vt 0.5 0.8730469
vt 0.1975098 0.8876953
vt 0.3222656 0.9594727
vt 0.08361816 0.6401367
vt 0.1975098 0.8876953
vt 0.01051331 0.5825195
vt 0.01051331 0.5825195
vt 0.1140137 0.8359375
vt 0.004096985 0.6567383
vt 0.1975098 0.3791504
vt 0.004096985 0.4404297
vt 0.5 0.9960938
vt 0.3901367 0.9731445
vt 0.6098633 0.9731445
vt 0.05429077 0.2685547
vt 0.004096985 0.3435059
vt 0.1140137 0.1640625
vt 0.1975098 0.1124878
vt 0.3129883 0.08874512
vt 0.3222656 0.04058838
vt 0.3901367 0.02664185
vt 0.8027344 0.8876953
vt 0.6777344 0.9594727
vt 0.6098633 0.9731445
vt 0.6870117 0.9111328
vt 0.8862305 0.8359375
vt 0.8178711 0.8496094
vt 0.9458008 0.7314453
vt 0.9960938 0.6567383
vt 0.9960938 0.5595703
vt 0.8862305 0.6791992
vt 0.9892578 0.4174805
vt 0.8027344 0.6206055
vt 0.8027344 0.6206055
vt 0.6870117 0.9111328
vt 0.9165039 0.3598633
vt 0.6777344 0.6894531
vt 0.8066406 0.479248
vt 0.6098633 0.8598633
vt 0.7753906 0.3034668
vt 0.8066406 0.1804199
vt 0.9892578 0.4174805
vt 0.8027344 0.1124878
vt 0.9960938 0.3435059
vt 0.8862305 0.1640625
vt 0.6289063 0.1890869
vt 0.8027344 0.1124878
vt 0.5 0.1271973
vt 0.6777344 0.04058838
vt 0.5 0.04922485
vt 0.6289063 0.3737793
vt 0.5 0.1271973
vt 0.5 0.4414063
vt 0.5 0.4414063
vt 0.8027344 0.6206055
vt 0.3713379 0.1890869
vt 0.5 0.5834961
vt 0.3713379 0.3737793
vt 0.5 0.7529297
vt 0.3222656 0.6894531
vt 0.5 0.4414063
vt 0.1975098 0.6206055
vt 0.1934814 0.479248
vt 0.3901367 0.8598633
vt 0.1975098 0.6206055
vt 0.3129883 0.9111328
vt 0.3129883 0.9111328
vt 0.6870117 0.9111328
vt 0.3901367 0.9731445
vt 0.6098633 0.9731445
vt 0.5 0.9960938
vt 0.1140137 0.6791992
vt 0.1818848 0.8496094
vt 0.2244873 0.3034668
vt 0.1934814 0.1804199
vt 0.5 0.1271973
vt 0.1975098 0.1124878
vt 0.3222656 0.04058838
vt 0.08361816 0.3598633
vt 0.1975098 0.1124878
vt 0.01051331 0.4174805
vt 0.01051331 0.4174805
vt 0.1140137 0.1640625
vt 0.004096985 0.3435059
vt 0.1975098 0.6206055
vt 0.004096985 0.5595703
vt 0.5 0.004096985
vt 0.3901367 0.02664185
vt 0.6098633 0.02664185
vt 0.05429077 0.7314453
vt 0.004096985 0.6567383
vt 0.1140137 0.8359375
vt 0.1975098 0.8876953
vt 0.3129883 0.9111328
vt 0.3222656 0.9594727
vt 0.3901367 0.9731445
vt 0.01051331 0.4174805
vt 0.004096985 0.5595703
vt 0.004096985 0.6567383
vt 0.01051331 0.5825195
vt 0.01051331 0.5825195
vt 0.004096985 0.4404297
vt 0.004096985 0.3435059
vt 0.01051331 0.4174805
vt 0.9892578 0.4174805
vt 0.9960938 0.3435059
vt 0.9960938 0.4404297
vt 0.9892578 0.5825195
vn 1 0 0
vn 0.9511719 0.1722412 0.2568359
vn 0.9511719 0.1722412 -0.2568359
vn 1 0 0
vn 0.809082 0.309082 0.5
vn 0.6943359 0.5878906 0.4155273
vn 0.9511719 0.1722412 0.2568359
vn 0.809082 0.309082 0.5
vn 0.5878906 0.4155273 0.6943359
vn 0.8447266 0 0.5356445
vn 0.5258789 0 0.8505859
vn 0.1722412 0.2568359 0.9511719
vn 0.309082 0.5 0.809082
vn 0.309082 0.5 0.809082
vn 0.4155273 0.6943359 0.5878906
vn 0 0.5356445 0.8447266
vn 0.1722412 -0.2568359 0.9511719
vn 0 0 1
vn 0 0 1
vn -0.1722412 0.2568359 0.9511719
vn -0.1722412 -0.2568359 0.9511719
vn 0.5878906 -0.4155273 0.6943359
vn 0.309082 -0.5 0.809082
vn 0.809082 -0.309082 0.5
vn 0.309082 -0.5 0.809082
vn 0.809082 -0.309082 0.5
vn 0 -0.5356445 0.8447266
vn 0.6943359 -0.5878906 0.4155273
vn 0.9511719 -0.1722412 0.2568359
vn 0.4155273 -0.6943359 0.5878906
vn 0.8505859 -0.5258789 0
vn 0.9511719 -0.1722412 -0.2568359
vn 0.6943359 -0.5878906 -0.4155273
vn 0.5356445 -0.8447266 0
vn 0.5 -0.809082 0.309082
vn 0.5 -0.809082 -0.309082
vn 0.5 -0.809082 0.309082
vn 0.5 -0.809082 -0.309082
vn 0.2568359 -0.9511719 -0.1722412
vn 0.4155273 -0.6943359 -0.5878906
vn 0.2568359 -0.9511719 0.1722412
vn 0 -0.8505859 0.5258789
vn -0.4155273 -0.6943359 0.5878906
vn -0.309082 -0.5 0.809082
vn -0.309082 -0.5 0.809082
vn -0.5878906 -0.4155273 0.6943359
vn -0.2568359 -0.9511719 0.1722412
vn -0.5 -0.809082 0.309082
vn 0 -1 0
vn -0.5 -0.809082 0.309082
vn 0 -1 0
vn -0.2568359 -0.9511719 -0.1722412
vn 0.2568359 -0.9511719 -0.1722412
vn 0 -0.8505859 -0.5258789
vn -0.6943359 -0.5878906 0.4155273
vn -0.5356445 -0.8447266 0
vn -0.5258789 0 0.8505859
vn -0.5878906 0.4155273 0.6943359
vn -0.309082 0.5 0.809082
vn -0.309082 0.5 0.809082
vn -0.4155273 0.6943359 0.5878906
vn -0.8447266 0 0.5356445
vn -0.809082 0.309082 0.5
vn -0.809082 -0.309082 0.5
vn -0.809082 0.309082 0.5
vn -0.6943359 0.5878906 0.4155273
vn -0.9511719 0.1722412 0.2568359
vn -0.809082 -0.309082 0.5
vn -0.9511719 -0.1722412 0.2568359
vn 0 0.8505859 0.5258789
vn -0.2568359 0.9511719 0.1722412
vn 0.2568359 0.9511719 0.1722412
vn -0.8505859 -0.5258789 0
vn -0.9511719 -0.1722412 -0.2568359
vn -0.6943359 -0.5878906 -0.4155273
vn -0.5 -0.809082 -0.309082
vn -0.5 -0.809082 -0.309082
vn -0.4155273 -0.6943359 -0.5878906
vn -0.2568359 -0.9511719 -0.1722412
vn 0.5 0.809082 0.309082
vn 0.4155273 0.6943359 0.5878906
vn 0.2568359 0.9511719 0.1722412
vn 0.5 0.809082 0.309082
vn 0.6943359 0.5878906 0.4155273
vn 0.5356445 0.8447266 0
vn 0.8505859 0.5258789 0
vn 0.9511719 0.1722412 0.2568359
vn 0.9511719 0.1722412 -0.2568359
vn 0.6943359 0.5878906 -0.4155273
vn 0.809082 0.309082 -0.5
vn 0.5 0.809082 -0.309082
vn 0.809082 0.309082 -0.5
vn 0.5 0.809082 -0.309082
vn 0.8447266 0 -0.5356445
vn 0.4155273 0.6943359 -0.5878906
vn 0.5878906 0.4155273 -0.6943359
vn 0.2568359 0.9511719 -0.1722412
vn 0.5258789 0 -0.8505859
vn 0.5878906 -0.4155273 -0.6943359
vn 0.809082 -0.309082 -0.5
vn 0.809082 -0.309082 -0.5
vn 0.9511719 -0.1722412 -0.2568359
vn 0.6943359 -0.5878906 -0.4155273
vn 0.1722412 -0.2568359 -0.9511719
vn 0.309082 -0.5 -0.809082
vn 0.309082 -0.5 -0.809082
vn 0.4155273 -0.6943359 -0.5878906
vn 0 -0.5356445 -0.8447266
vn 0.1722412 0.2568359 -0.9511719
vn 0 0 -1
vn 0.309082 0.5 -0.809082
vn 0 0 -1
vn 0.309082 0.5 -0.809082
vn -0.1722412 -0.2568359 -0.9511719
vn 0 0.5356445 -0.8447266
vn -0.1722412 0.2568359 -0.9511719
vn 0 0.8505859 -0.5258789
vn -0.4155273 0.6943359 -0.5878906
vn -0.309082 0.5 -0.809082
vn -0.309082 0.5 -0.809082
vn -0.5878906 0.4155273 -0.6943359
vn -0.2568359 0.9511719 -0.1722412
vn -0.5 0.809082 -0.309082
vn 0 1 0
vn -0.5 0.809082 -0.309082
vn 0 1 0
vn -0.2568359 0.9511719 0.1722412
vn 0.2568359 0.9511719 0.1722412
vn 0 0.8505859 0.5258789
vn -0.6943359 0.5878906 -0.4155273
vn -0.5356445 0.8447266 0
vn -0.5258789 0 -0.8505859
vn -0.5878906 -0.4155273 -0.6943359
vn -0.309082 -0.5 -0.809082
vn -0.309082 -0.5 -0.809082
vn -0.4155273 -0.6943359 -0.5878906
vn -0.8447266 0 -0.5356445
vn -0.809082 -0.309082 -0.5
vn -0.809082 0.309082 -0.5
vn -0.809082 -0.309082 -0.5
vn -0.6943359 -0.5878906 -0.4155273
vn -0.9511719 -0.1722412 -0.2568359
vn -0.809082 0.309082 -0.5
vn -0.9511719 0.1722412 -0.2568359
vn 0 -0.8505859 -0.5258789
vn -0.2568359 -0.9511719 -0.1722412
vn 0.2568359 -0.9511719 -0.1722412
vn -0.8505859 0.5258789 0
vn -0.9511719 0.1722412 0.2568359
vn -0.6943359 0.5878906 0.4155273
vn -0.5 0.809082 0.309082
vn -0.5 0.809082 0.309082
vn -0.4155273 0.6943359 0.5878906
vn -0.2568359 0.9511719 0.1722412
vn -1 0 0
vn -0.9511719 0.1722412 -0.2568359
vn -0.9511719 0.1722412 0.2568359
vn -1 0 0
vn -1 0 0
vn -0.9511719 -0.1722412 0.2568359
vn -0.9511719 -0.1722412 -0.2568359
vn -1 0 0
vn 1 0 0
vn 0.9511719 -0.1722412 -0.2568359
vn 0.9511719 -0.1722412 0.2568359
vn 1 0 0
g Hainr_Clown_0
f 3/3/3 2/2/2 1/1/1
f 4/4/4 3/3/3 1/1/1
f 7/7/7 6/6/6 5/5/5
f 8/8/8 7/7/7 5/5/5
f 5/5/5 9/9/9 8/8/8
f 9/9/9 10/10/10 8/8/8
f 9/9/9 11/11/11 10/10/10
f 12/12/12 11/11/11 9/9/9
f 12/12/12 9/9/9 13/13/13
f 14/14/14 12/12/12 13/13/13
f 13/13/13 15/15/15 14/14/14
f 15/15/15 16/16/16 14/14/14
f 17/17/17 11/11/11 12/12/12
f 17/17/17 12/12/12 18/18/18
f 19/19/19 17/17/17 18/18/18
f 18/18/18 20/20/20 19/19/19
f 20/20/20 21/21/21 19/19/19
f 22/22/22 11/11/11 17/17/17
f 10/10/10 11/11/11 22/22/22
f 22/22/22 17/17/17 23/23/23
f 10/10/10 22/22/22 24/24/24
f 25/25/25 22/22/22 23/23/23
f 26/26/26 10/10/10 24/24/24
f 23/23/23 27/27/27 25/25/25
f 24/24/24 28/28/28 26/26/26
f 28/28/28 29/29/29 26/26/26
f 27/27/27 30/30/30 25/25/25
f 28/28/28 31/31/31 29/29/29
f 29/29/29 31/31/31 32/32/32
f 32/32/32 31/31/31 33/33/33
f 34/34/34 31/31/31 28/28/28
f 33/33/33 31/31/31 34/34/34
f 34/34/34 28/28/28 35/35/35
f 33/33/33 34/34/34 36/36/36
f 37/37/37 34/34/34 35/35/35
f 35/35/35 30/30/30 37/37/37
f 38/38/38 33/33/33 36/36/36
f 36/36/36 39/39/39 38/38/38
f 39/39/39 40/40/40 38/38/38
f 30/30/30 41/41/41 37/37/37
f 27/27/27 42/42/42 30/30/30
f 30/30/30 42/42/42 41/41/41
f 43/43/43 42/42/42 27/27/27
f 43/43/43 27/27/27 44/44/44
f 45/45/45 43/43/43 44/44/44
f 44/44/44 21/21/21 45/45/45
f 21/21/21 46/46/46 45/45/45
f 47/47/47 42/42/42 43/43/43
f 41/41/41 42/42/42 47/47/47
f 47/47/47 43/43/43 48/48/48
f 41/41/41 47/47/47 49/49/49
f 50/50/50 47/47/47 48/48/48
f 51/51/51 41/41/41 49/49/49
f 49/49/49 52/52/52 51/51/51
f 52/52/52 53/53/53 51/51/51
f 52/52/52 54/54/54 53/53/53
f 48/48/48 55/55/55 50/50/50
f 55/55/55 56/56/56 50/50/50
f 21/21/21 57/57/57 46/46/46
f 20/20/20 57/57/57 21/21/21
f 58/58/58 57/57/57 20/20/20
f 58/58/58 20/20/20 59/59/59
f 60/60/60 58/58/58 59/59/59
f 59/59/59 16/16/16 60/60/60
f 16/16/16 61/61/61 60/60/60
f 62/62/62 57/57/57 58/58/58
f 46/46/46 57/57/57 62/62/62
f 62/62/62 58/58/58 63/63/63
f 46/46/46 62/62/62 64/64/64
f 65/65/65 62/62/62 63/63/63
f 63/63/63 66/66/66 65/65/65
f 66/66/66 67/67/67 65/65/65
f 68/68/68 46/46/46 64/64/64
f 64/64/64 69/69/69 68/68/68
f 69/69/69 55/55/55 68/68/68
f 16/16/16 70/70/70 61/61/61
f 61/61/61 70/70/70 71/71/71
f 15/15/15 70/70/70 16/16/16
f 72/72/72 70/70/70 15/15/15
f 69/69/69 73/73/73 55/55/55
f 74/74/74 73/73/73 69/69/69
f 75/75/75 73/73/73 74/74/74
f 55/55/55 73/73/73 56/56/56
f 56/56/56 73/73/73 75/75/75
f 56/56/56 75/75/75 76/76/76
f 77/77/77 56/56/56 76/76/76
f 76/76/76 78/78/78 77/77/77
f 78/78/78 79/79/79 77/77/77
f 82/82/82 81/81/81 80/80/80
f 83/83/83 82/82/82 80/80/80
f 80/80/80 84/84/84 83/83/83
f 84/84/84 85/85/85 83/83/83
f 84/84/84 86/86/86 85/85/85
f 87/87/87 86/86/86 84/84/84
f 88/88/88 86/86/86 87/87/87
f 89/89/89 86/86/86 88/88/88
f 85/85/85 86/86/86 89/89/89
f 89/89/89 88/88/88 90/90/90
f 85/85/85 89/89/89 91/91/91
f 92/92/92 89/89/89 90/90/90
f 93/93/93 85/85/85 91/91/91
f 90/90/90 94/94/94 92/92/92
f 91/91/91 95/95/95 93/93/93
f 94/94/94 96/96/96 92/92/92
f 95/95/95 97/97/97 93/93/93
f 94/94/94 98/98/98 96/96/96
f 99/99/99 98/98/98 94/94/94
f 99/99/99 94/94/94 100/100/100
f 101/101/101 99/99/99 100/100/100
f 100/100/100 102/102/102 101/101/101
f 102/102/102 103/103/103 101/101/101
f 104/104/104 98/98/98 99/99/99
f 104/104/104 99/99/99 105/105/105
f 106/106/106 104/104/104 105/105/105
f 105/105/105 107/107/107 106/106/106
f 107/107/107 108/108/108 106/106/106
f 109/109/109 98/98/98 104/104/104
f 96/96/96 98/98/98 109/109/109
f 109/109/109 104/104/104 110/110/110
f 96/96/96 109/109/109 111/111/111
f 112/112/112 109/109/109 110/110/110
f 113/113/113 96/96/96 111/111/111
f 110/110/110 114/114/114 112/112/112
f 111/111/111 115/115/115 113/113/113
f 115/115/115 95/95/95 113/113/113
f 114/114/114 116/116/116 112/112/112
f 115/115/115 117/117/117 95/95/95
f 95/95/95 117/117/117 97/97/97
f 118/118/118 117/117/117 115/115/115
f 118/118/118 115/115/115 119/119/119
f 120/120/120 118/118/118 119/119/119
f 119/119/119 116/116/116 120/120/120
f 116/116/116 121/121/121 120/120/120
f 122/122/122 117/117/117 118/118/118
f 97/97/97 117/117/117 122/122/122
f 122/122/122 118/118/118 123/123/123
f 97/97/97 122/122/122 124/124/124
f 125/125/125 122/122/122 123/123/123
f 126/126/126 97/97/97 124/124/124
f 124/124/124 127/127/127 126/126/126
f 127/127/127 128/128/128 126/126/126
f 127/127/127 129/129/129 128/128/128
f 123/123/123 130/130/130 125/125/125
f 130/130/130 131/131/131 125/125/125
f 116/116/116 132/132/132 121/121/121
f 114/114/114 132/132/132 116/116/116
f 133/133/133 132/132/132 114/114/114
f 133/133/133 114/114/114 134/134/134
f 135/135/135 133/133/133 134/134/134
f 134/134/134 108/108/108 135/135/135
f 108/108/108 136/136/136 135/135/135
f 137/137/137 132/132/132 133/133/133
f 121/121/121 132/132/132 137/137/137
f 137/137/137 133/133/133 138/138/138
f 121/121/121 137/137/137 139/139/139
f 140/140/140 137/137/137 138/138/138
f 138/138/138 141/141/141 140/140/140
f 141/141/141 142/142/142 140/140/140
f 143/143/143 121/121/121 139/139/139
f 139/139/139 144/144/144 143/143/143
f 144/144/144 130/130/130 143/143/143
f 108/108/108 145/145/145 136/136/136
f 136/136/136 145/145/145 146/146/146
f 107/107/107 145/145/145 108/108/108
f 147/147/147 145/145/145 107/107/107
f 144/144/144 148/148/148 130/130/130
f 149/149/149 148/148/148 144/144/144
f 150/150/150 148/148/148 149/149/149
f 130/130/130 148/148/148 131/131/131
f 131/131/131 148/148/148 150/150/150
f 131/131/131 150/150/150 151/151/151
f 152/152/152 131/131/131 151/151/151
f 151/151/151 153/153/153 152/152/152
f 153/153/153 154/154/154 152/152/152
f 157/157/157 156/156/156 155/155/155
f 158/158/158 157/157/157 155/155/155
f 161/161/161 160/160/160 159/159/159
f 162/162/162 161/161/161 159/159/159
f 165/165/165 164/164/164 163/163/163
f 166/166/166 165/165/165 163/163/163
