g pasted__pCube6
v 0.1004392 -0.04270063 2.573315
v 0.1004385 0.04270072 2.658717
v 0.1004385 -0.04270063 2.658717
v 0.1004392 0.04270072 2.573315
v 0.1004392 0.04270072 2.310517
v 0.1004392 -0.04270063 2.310517
v 0.1840681 0.04270072 2.573315
v 0.1840681 -0.04270063 2.573315
v 0.1840681 -0.04270063 2.616906
v 0.1840681 0.04270072 2.616906
v 0.1718221 -0.04270063 2.64647
v 0.1718221 0.04270072 2.64647
v 0.1004385 -0.04270063 2.658717
v 0.1004385 0.04270072 2.658717
v 0.1422582 0.04270072 2.658717
v 0.1422582 -0.04270063 2.658717
v 0.1718221 0.04270072 2.64647
v 0.1718221 -0.04270063 2.64647
v 0.1422582 0.04270072 2.310517
v 0.1004392 0.04270072 2.310517
v 0.1004392 -0.04270063 2.310517
v 0.1422582 -0.04270063 2.310517
v 0.1718221 -0.04270063 2.322762
v 0.1718221 0.04270072 2.322762
v 0.1840681 0.04270072 2.573315
v 0.1840681 -0.04270063 2.352328
v 0.1840681 -0.04270063 2.573315
v 0.1840681 0.04270072 2.352328
v 0.1718221 0.04270072 2.322762
v 0.1718221 -0.04270063 2.322762
v 0.1004385 0.04270072 2.658717
v 0.1004392 0.04270072 2.573315
v 0.1840681 0.04270072 2.573315
v 0.1840681 0.04270072 2.616906
v 0.1718221 0.04270072 2.64647
v 0.1422582 0.04270072 2.658717
v 0.1840681 -0.04270063 2.616906
v 0.1840681 -0.04270063 2.573315
v 0.1004392 -0.04270063 2.573315
v 0.1004385 -0.04270063 2.658717
v 0.1718221 -0.04270063 2.64647
v 0.1422582 -0.04270063 2.658717
v 0.1718221 -0.04270063 2.322762
v 0.1422582 -0.04270063 2.310517
v 0.1004392 -0.04270063 2.310517
v 0.1004392 -0.04270063 2.573315
v 0.1840681 -0.04270063 2.352328
v 0.1840681 -0.04270063 2.573315
v 0.1004392 0.04270072 2.573315
v 0.1004392 0.04270072 2.310517
v 0.1422582 0.04270072 2.310517
v 0.1718221 0.04270072 2.322762
v 0.1840681 0.04270072 2.352328
v 0.1840681 0.04270072 2.573315
v -0.1840678 -0.04270063 2.573315
v -0.1840678 0.04270072 2.573315
v -0.1840678 0.04270072 2.616906
v -0.1840678 -0.04270063 2.616906
v -0.1718218 0.04270072 2.64647
v -0.1718218 -0.04270063 2.64647
v -0.1004389 0.04270072 2.573315
v -0.1004389 -0.04270063 2.573315
v -0.1004389 -0.04270063 2.658717
v -0.1004389 0.04270072 2.658717
v -0.1422571 0.04270072 2.658717
v -0.1004389 0.04270072 2.658717
v -0.1004389 -0.04270063 2.658717
v -0.1422571 -0.04270063 2.658717
v -0.1718218 -0.04270063 2.64647
v -0.1718218 0.04270072 2.64647
v -0.1004389 -0.04270063 2.310517
v -0.1004389 0.04270072 2.310517
v -0.1422571 0.04270072 2.310517
v -0.1422571 -0.04270063 2.310517
v -0.1718218 0.04270072 2.322762
v -0.1718218 -0.04270063 2.322762
v -0.1840678 -0.04270063 2.573315
v -0.1840678 0.04270072 2.352328
v -0.1840678 0.04270072 2.573315
v -0.1840678 -0.04270063 2.352328
v -0.1718218 -0.04270063 2.322762
v -0.1840678 0.04270072 2.352328
v -0.1718218 0.04270072 2.322762
v -0.1004389 0.04270072 2.573315
v -0.1004389 0.04270072 2.310517
v -0.1004389 -0.04270063 2.310517
v -0.1004389 -0.04270063 2.573315
v -0.1004389 -0.04270063 2.658717
v -0.1004389 -0.04270063 2.573315
v -0.1840678 -0.04270063 2.573315
v -0.1840678 -0.04270063 2.616906
v -0.1718218 -0.04270063 2.64647
v -0.1422571 -0.04270063 2.658717
v -0.1840678 0.04270072 2.616906
v -0.1840678 0.04270072 2.573315
v -0.1004389 0.04270072 2.573315
v -0.1004389 0.04270072 2.658717
v -0.1718218 0.04270072 2.64647
v -0.1422571 0.04270072 2.658717
v -0.1004389 -0.04270063 2.573315
v -0.1004389 -0.04270063 2.310517
v -0.1422571 -0.04270063 2.310517
v -0.1718218 -0.04270063 2.322762
v -0.1840678 -0.04270063 2.352328
v -0.1840678 -0.04270063 2.573315
v -0.1718218 0.04270072 2.322762
v -0.1422571 0.04270072 2.310517
v -0.1004389 0.04270072 2.310517
v -0.1004389 0.04270072 2.573315
v -0.1840678 0.04270072 2.352328
v -0.1840678 0.04270072 2.573315
vt 0.375 0
vt 0.625 0.25
vt 0.625 0
vt 0.375 0.25
vt 0.375 0.25
vt 0.375 0
vt 0.375 0.5
vt 0.375 0.75
vt 0.5024414 0.75
vt 0.5024414 0.5
vt 0.625 0.75
vt 0.625 0.5
vt 0.625 0
vt 0.625 0.25
vt 0.75 0.25
vt 0.75 0
vt 0.875 0.25
vt 0.875 0
vt 0.25 0.25
vt 0.375 0.25
vt 0.375 0
vt 0.25 0
vt 0.125 0
vt 0.125 0.25
vt 0.125 0.25
vt 0.125 0
vt 0.125 0
vt 0.125 0.25
vt 0.125 0.25
vt 0.125 0
vt 0.625 0.25
vt 0.375 0.25
vt 0.375 0.5
vt 0.5024414 0.5
vt 0.625 0.5
vt 0.625 0.375
vt 0.5024414 0.75
vt 0.375 0.75
vt 0.375 1
vt 0.625 1
vt 0.625 0.75
vt 0.625 0.875
vt 0.125 0
vt 0.25 0
vt 0.375 0
vt 0.375 0
vt 0.125 0
vt 0.125 0
vt 0.375 0.25
vt 0.375 0.25
vt 0.25 0.25
vt 0.125 0.25
vt 0.125 0.25
vt 0.125 0.25
vt 0.375 0
vt 0.375 0.25
vt 0.5024414 0.25
vt 0.5024414 0
vt 0.625 0.25
vt 0.625 0
vt 0.375 0.5
vt 0.375 0.75
vt 0.625 0.75
vt 0.625 0.5
vt 0.75 0.25
vt 0.875 0.25
vt 0.875 5.960464E-08
vt 0.75 0
vt 0.625 0
vt 0.625 0.25
vt 0.125 0
vt 0.125 0.25
vt 0.25 0.25
vt 0.25 0
vt 0.375 0.25
vt 0.375 0
vt 0.375 0
vt 0.375 0.25
vt 0.375 0.25
vt 0.375 0
vt 0.375 0
vt 0.375 0.25
vt 0.375 0.25
vt 0.125 0.25
vt 0.125 0.25
vt 0.125 0
vt 0.125 0
vt 0.625 0.75
vt 0.375 0.75
vt 0.375 1
vt 0.5024414 1
vt 0.625 1
vt 0.625 0.875
vt 0.5024414 0.25
vt 0.375 0.25
vt 0.375 0.5
vt 0.625 0.5
vt 0.625 0.25
vt 0.625 0.375
vt 0.125 0
vt 0.125 0
vt 0.25 0
vt 0.375 0
vt 0.375 0
vt 0.375 0
vt 0.375 0.25
vt 0.25 0.25
vt 0.125 0.25
vt 0.125 0.25
vt 0.375 0.25
vt 0.375 0.25
vn -1 0 0
vn -1 0 0
vn -1 0 0
vn -1 0 0
vn -1 0 0
vn -1 0 0
vn 1 0 0
vn 1 0 0
vn 0.9863281 0 0.1651611
vn 0.9863281 0 0.1651611
vn 0.9238281 0 0.3825684
vn 0.9238281 0 0.3825684
vn 0 0 1
vn 0 0 1
vn 0.1690674 0 0.9858398
vn 0.1690674 0 0.9858398
vn 0.3828125 0 0.9238281
vn 0.3828125 0 0.9238281
vn 0.1690674 0 -0.9858398
vn 0 0 -1
vn 0 0 -1
vn 0.1690674 0 -0.9858398
vn 0.3825684 0 -0.9238281
vn 0.3825684 0 -0.9238281
vn 1 0 0
vn 0.9990234 0 -0.04882813
vn 1 0 0
vn 0.9990234 0 -0.04882813
vn 0.9238281 0 -0.3825684
vn 0.9238281 0 -0.3825684
vn 1.072884E-06 1 0
vn 8.34465E-07 1 0
vn 8.34465E-07 1 0
vn 1.072884E-06 1 0
vn 1.072884E-06 1 0
vn 1.072884E-06 1 0
vn 3.576279E-07 -1 0
vn 0 -1 0
vn 0 -1 0
vn 3.576279E-07 -1 0
vn 3.576279E-07 -1 0
vn 3.576279E-07 -1 0
vn -2.980232E-07 -1 0
vn -2.980232E-07 -1 0
vn -2.980232E-07 -1 0
vn 0 -1 0
vn -2.980232E-07 -1 0
vn 0 -1 0
vn 8.34465E-07 1 0
vn 7.748604E-07 1 0
vn 7.748604E-07 1 0
vn 7.748604E-07 1 0
vn 7.748604E-07 1 0
vn 8.34465E-07 1 0
vn -1 0 0
vn -1 0 0
vn -0.9863281 0 0.1651611
vn -0.9863281 0 0.1651611
vn -0.9238281 0 0.3825684
vn -0.9238281 0 0.3825684
vn 1 0 0
vn 1 0 0
vn 1 0 0
vn 1 0 0
vn -0.1690674 0 0.9858398
vn 0 0 1
vn 0 0 1
vn -0.1690674 0 0.9858398
vn -0.3828125 0 0.9238281
vn -0.3828125 0 0.9238281
vn 0 0 -1
vn 0 0 -1
vn -0.1690674 0 -0.9858398
vn -0.1690674 0 -0.9858398
vn -0.3825684 0 -0.9238281
vn -0.3825684 0 -0.9238281
vn -1 0 0
vn -0.9990234 0 -0.04882813
vn -1 0 0
vn -0.9990234 0 -0.04882813
vn -0.9238281 0 -0.3825684
vn -0.9990234 0 -0.04882813
vn -0.9238281 0 -0.3825684
vn 1 0 0
vn 1 0 0
vn 1 0 0
vn 1 0 0
vn 0 -1 0
vn 0 -1 0
vn 0 -1 0
vn 0 -1 0
vn 0 -1 0
vn 0 -1 0
vn -1.072884E-06 1 0
vn -9.536743E-07 1 0
vn -9.536743E-07 1 0
vn -1.072884E-06 1 0
vn -1.072884E-06 1 0
vn -1.072884E-06 1 0
vn 0 -1 0
vn 0 -1 0
vn 0 -1 0
vn 0 -1 0
vn 0 -1 0
vn 0 -1 0
vn -8.940697E-07 1 0
vn -8.940697E-07 1 0
vn -8.940697E-07 1 0
vn -9.536743E-07 1 0
vn -8.940697E-07 1 0
vn -9.536743E-07 1 0
g pasted__pCube6_0
f 3/3/3 2/2/2 1/1/1
f 2/2/2 4/4/4 1/1/1
f 4/4/4 5/5/5 1/1/1
f 5/5/5 6/6/6 1/1/1
f 9/9/9 8/8/8 7/7/7
f 10/10/10 9/9/9 7/7/7
f 11/11/11 9/9/9 10/10/10
f 12/12/12 11/11/11 10/10/10
f 15/15/15 14/14/14 13/13/13
f 16/16/16 15/15/15 13/13/13
f 15/15/15 16/16/16 17/17/17
f 16/16/16 18/18/18 17/17/17
f 21/21/21 20/20/20 19/19/19
f 22/22/22 21/21/21 19/19/19
f 22/22/22 19/19/19 23/23/23
f 19/19/19 24/24/24 23/23/23
f 27/27/27 26/26/26 25/25/25
f 26/26/26 28/28/28 25/25/25
f 29/29/29 28/28/28 26/26/26
f 30/30/30 29/29/29 26/26/26
f 33/33/33 32/32/32 31/31/31
f 31/31/31 34/34/34 33/33/33
f 31/31/31 35/35/35 34/34/34
f 31/31/31 36/36/36 35/35/35
f 39/39/39 38/38/38 37/37/37
f 37/37/37 40/40/40 39/39/39
f 37/37/37 41/41/41 40/40/40
f 41/41/41 42/42/42 40/40/40
f 45/45/45 44/44/44 43/43/43
f 43/43/43 46/46/46 45/45/45
f 43/43/43 47/47/47 46/46/46
f 47/47/47 48/48/48 46/46/46
f 51/51/51 50/50/50 49/49/49
f 49/49/49 52/52/52 51/51/51
f 49/49/49 53/53/53 52/52/52
f 49/49/49 54/54/54 53/53/53
f 57/57/57 56/56/56 55/55/55
f 58/58/58 57/57/57 55/55/55
f 59/59/59 57/57/57 58/58/58
f 60/60/60 59/59/59 58/58/58
f 63/63/63 62/62/62 61/61/61
f 64/64/64 63/63/63 61/61/61
f 67/67/67 66/66/66 65/65/65
f 68/68/68 67/67/67 65/65/65
f 68/68/68 65/65/65 69/69/69
f 65/65/65 70/70/70 69/69/69
f 73/73/73 72/72/72 71/71/71
f 74/74/74 73/73/73 71/71/71
f 75/75/75 73/73/73 74/74/74
f 76/76/76 75/75/75 74/74/74
f 79/79/79 78/78/78 77/77/77
f 78/78/78 80/80/80 77/77/77
f 80/80/80 82/82/82 81/81/81
f 82/82/82 83/83/83 81/81/81
f 86/86/86 85/85/85 84/84/84
f 87/87/87 86/86/86 84/84/84
f 90/90/90 89/89/89 88/88/88
f 88/88/88 91/91/91 90/90/90
f 88/88/88 92/92/92 91/91/91
f 88/88/88 93/93/93 92/92/92
f 96/96/96 95/95/95 94/94/94
f 94/94/94 97/97/97 96/96/96
f 94/94/94 98/98/98 97/97/97
f 98/98/98 99/99/99 97/97/97
f 102/102/102 101/101/101 100/100/100
f 100/100/100 103/103/103 102/102/102
f 100/100/100 104/104/104 103/103/103
f 100/100/100 105/105/105 104/104/104
f 108/108/108 107/107/107 106/106/106
f 106/106/106 109/109/109 108/108/108
f 106/106/106 110/110/110 109/109/109
f 110/110/110 111/111/111 109/109/109
