g pasted__pCube3
v -0.100026 -0.2362871 2.594536
v -0.100026 -0.2362871 2.641776
v 0.1000266 -0.2362871 2.641776
v 0.1000266 -0.2362871 2.594536
v 0.1000266 -0.2272837 2.560933
v -0.100026 -0.2272837 2.560933
v 0.1000266 -0.2026859 2.536335
v -0.100026 -0.2026859 2.536335
v -0.100026 0.05303674 2.527332
v 0.1000266 0.08663803 2.536335
v -0.100026 0.08663803 2.536335
v 0.1000266 0.05303674 2.527332
v 0.1000266 -0.1690846 2.527332
v -0.100026 -0.1690846 2.527332
v -0.100026 -0.2026859 2.536335
v 0.1000266 -0.2026859 2.536335
v -0.100026 0.08663803 2.536335
v 0.1000266 0.08663803 2.536335
v 0.1000266 0.1112359 2.560933
v -0.100026 0.1112359 2.560933
v 0.1000266 0.1202393 2.594536
v -0.100026 0.1202393 2.594536
v -0.100026 0.1202393 2.641776
v 0.1000266 0.1202393 2.641776
v 0.1000266 0.1112359 2.675377
v -0.100026 0.1112359 2.675377
v 0.1000266 0.08663803 2.699975
v -0.100026 0.08663803 2.699975
v -0.100026 0.08663803 2.699975
v 0.1000266 0.08663803 2.699975
v 0.1000266 0.05303674 2.708979
v -0.100026 0.05303674 2.708979
v -0.100026 -0.1690846 2.708979
v 0.1000266 -0.1690846 2.708979
v 0.1000266 -0.2026859 2.699975
v -0.100026 -0.2026859 2.699975
v -0.100026 -0.2026859 2.699975
v 0.1000266 -0.2026859 2.699975
v 0.1000266 -0.2272837 2.675377
v -0.100026 -0.2272837 2.675377
v 0.1000266 -0.2362871 2.641776
v -0.100026 -0.2362871 2.641776
v -0.100026 -0.2272837 2.675377
v -0.100026 -0.2362871 2.641776
v -0.100026 -0.2362871 2.594536
v -0.100026 -0.2272837 2.560933
v -0.100026 -0.2026859 2.699975
v -0.100026 -0.2026859 2.536335
v -0.100026 -0.1690846 2.708979
v -0.100026 -0.1690846 2.527332
v -0.100026 0.05303674 2.708979
v -0.100026 0.05303674 2.527332
v -0.100026 0.08663803 2.699975
v -0.100026 0.08663803 2.536335
v -0.100026 0.1112359 2.675377
v -0.100026 0.1112359 2.560933
v -0.100026 0.1202393 2.641776
v -0.100026 0.1202393 2.594536
v 0.1000266 -0.2272837 2.560933
v 0.1000266 -0.2362871 2.594536
v 0.1000266 -0.2362871 2.641776
v 0.1000266 -0.2272837 2.675377
v 0.1000266 -0.2026859 2.536335
v 0.1000266 -0.2026859 2.699975
v 0.1000266 -0.1690846 2.527332
v 0.1000266 -0.1690846 2.708979
v 0.1000266 0.05303674 2.527332
v 0.1000266 0.05303674 2.708979
v 0.1000266 0.08663803 2.536335
v 0.1000266 0.08663803 2.699975
v 0.1000266 0.1112359 2.560933
v 0.1000266 0.1112359 2.675377
v 0.1000266 0.1202393 2.594536
v 0.1000266 0.1202393 2.641776
vt 0.4675293 1
vt 0.5327148 1
vt 0.5327148 0.75
vt 0.4675293 0.75
vt 0.4155273 0.75
vt 0.4545898 0.9648438
vt 0.375 0.75
vt 0.4445801 0.9379883
vt 0.375 0.2144775
vt 0.125 0.25
vt 0.375 0.25
vt 0.125 0.2144775
vt 0.125 0.03555298
vt 0.375 0.03555298
vt 0.3549805 0.03271484
vt 0.125 0
vt 0.375 0.25
vt 0.375 0.5
vt 0.4155273 0.5
vt 0.4155273 0.25
vt 0.4675293 0.5
vt 0.4675293 0.25
vt 0.5327148 0.25
vt 0.5327148 0.5
vt 0.5844727 0.5
vt 0.5844727 0.25
vt 0.625 0.5
vt 0.625 0.25
vt 0.625 0.25
vt 0.875 0.25
vt 0.875 0.2144775
vt 0.625 0.2144775
vt 0.625 0.03555298
vt 0.875 0.03555298
vt 0.875 0
vt 0.6450195 0.03271484
vt 0.625 0.05072021
vt 0.625 0.75
vt 0.5844727 0.75
vt 0.5844727 0.4667969
vt 0.5327148 0.75
vt 0.5327148 1
vt 0 0
vt 0.5327148 0
vt 0.4675293 0
vt 0 0
vt 0.6450195 0.03271484
vt 0.3549805 0.03271484
vt 0.625 0.03555298
vt 0.375 0.03555298
vt 0.625 0.2144775
vt 0.375 0.2144775
vt 0.625 0.25
vt 0.375 0.25
vt 0.5844727 0.25
vt 0.4155273 0.25
vt 0.5327148 0.25
vt 0.4675293 0.25
vt 0.4155273 0.75
vt 0.4675293 0.75
vt 0.5327148 0.75
vt 0.5844727 0.75
vt 0.375 0.75
vt 0.625 0.75
vt 0.375 0.7143555
vt 0.625 0.7143555
vt 0.375 0.5356445
vt 0.625 0.5356445
vt 0.375 0.5
vt 0.625 0.5
vt 0.4155273 0.5
vt 0.5844727 0.5
vt 0.4675293 0.5
vt 0.5327148 0.5
vn 0 -0.9936523 -0.1106567
vn 0 -0.9936523 0.1107178
vn 0 -0.9936523 0.1107178
vn 0 -0.9936523 -0.1106567
vn 0 -0.8662109 -0.5
vn 0 -0.8662109 -0.5
vn 0 -0.7070313 -0.7070313
vn 0 -0.7070313 -0.7070313
vn 0 0.03518677 -0.9995117
vn 0 0.2587891 -0.9658203
vn 0 0.2587891 -0.9658203
vn 0 0.03518677 -0.9995117
vn 0 -0.03518677 -0.9995117
vn 0 -0.03518677 -0.9995117
vn 0 -0.2587891 -0.9658203
vn 0 -0.2587891 -0.9658203
vn 0 0.7070313 -0.7070313
vn 0 0.7070313 -0.7070313
vn 0 0.8662109 -0.5
vn 0 0.8662109 -0.5
vn 0 0.9936523 -0.1106567
vn 0 0.9936523 -0.1106567
vn 0 0.9936523 0.1106567
vn 0 0.9936523 0.1106567
vn 0 0.8662109 0.5
vn 0 0.8662109 0.5
vn 0 0.7070313 0.7070313
vn 0 0.7070313 0.7070313
vn 0 0.2587891 0.9658203
vn 0 0.2587891 0.9658203
vn 0 0.03518677 0.9995117
vn 0 0.03518677 0.9995117
vn 0 -0.03518677 0.9995117
vn 0 -0.03518677 0.9995117
vn 0 -0.2587891 0.9658203
vn 0 -0.2587891 0.9658203
vn 0 -0.7070313 0.7070313
vn 0 -0.7070313 0.7070313
vn 0 -0.8662109 0.5
vn 0 -0.8662109 0.5
vn 0 -0.9936523 0.1107178
vn 0 -0.9936523 0.1107178
vn -1 0 0
vn -1 0 0
vn -1 0 0
vn -1 0 0
vn -1 0 0
vn -1 0 0
vn -1 0 0
vn -1 0 0
vn -1 0 0
vn -1 0 0
vn -1 0 0
vn -1 0 0
vn -1 0 0
vn -1 0 0
vn -1 0 0
vn -1 0 0
vn 1 0 0
vn 1 0 0
vn 1 0 0
vn 1 0 0
vn 1 0 0
vn 1 0 0
vn 1 0 0
vn 1 0 0
vn 1 0 0
vn 1 0 0
vn 1 0 0
vn 1 0 0
vn 1 0 0
vn 1 0 0
vn 1 0 0
vn 1 0 0
g pasted__pCube3_0
f 3/3/3 2/2/2 1/1/1
f 4/4/4 3/3/3 1/1/1
f 5/5/5 4/4/4 1/1/1
f 6/6/6 5/5/5 1/1/1
f 7/7/7 5/5/5 6/6/6
f 8/8/8 7/7/7 6/6/6
f 11/11/11 10/10/10 9/9/9
f 10/10/10 12/12/12 9/9/9
f 9/9/9 12/12/12 13/13/13
f 14/14/14 9/9/9 13/13/13
f 14/14/14 13/13/13 15/15/15
f 13/13/13 16/16/16 15/15/15
f 19/19/19 18/18/18 17/17/17
f 20/20/20 19/19/19 17/17/17
f 21/21/21 19/19/19 20/20/20
f 22/22/22 21/21/21 20/20/20
f 22/22/22 23/23/23 21/21/21
f 23/23/23 24/24/24 21/21/21
f 25/25/25 24/24/24 23/23/23
f 26/26/26 25/25/25 23/23/23
f 27/27/27 25/25/25 26/26/26
f 28/28/28 27/27/27 26/26/26
f 31/31/31 30/30/30 29/29/29
f 32/32/32 31/31/31 29/29/29
f 31/31/31 32/32/32 33/33/33
f 34/34/34 31/31/31 33/33/33
f 35/35/35 34/34/34 33/33/33
f 36/36/36 35/35/35 33/33/33
f 39/39/39 38/38/38 37/37/37
f 40/40/40 39/39/39 37/37/37
f 41/41/41 39/39/39 40/40/40
f 42/42/42 41/41/41 40/40/40
f 45/45/45 44/44/44 43/43/43
f 43/43/43 46/46/46 45/45/45
f 43/43/43 47/47/47 46/46/46
f 47/47/47 48/48/48 46/46/46
f 47/47/47 49/49/49 48/48/48
f 49/49/49 50/50/50 48/48/48
f 49/49/49 51/51/51 50/50/50
f 51/51/51 52/52/52 50/50/50
f 51/51/51 53/53/53 52/52/52
f 53/53/53 54/54/54 52/52/52
f 53/53/53 55/55/55 54/54/54
f 55/55/55 56/56/56 54/54/54
f 55/55/55 57/57/57 56/56/56
f 57/57/57 58/58/58 56/56/56
f 61/61/61 60/60/60 59/59/59
f 59/59/59 62/62/62 61/61/61
f 59/59/59 63/63/63 62/62/62
f 63/63/63 64/64/64 62/62/62
f 63/63/63 65/65/65 64/64/64
f 65/65/65 66/66/66 64/64/64
f 65/65/65 67/67/67 66/66/66
f 67/67/67 68/68/68 66/66/66
f 67/67/67 69/69/69 68/68/68
f 69/69/69 70/70/70 68/68/68
f 69/69/69 71/71/71 70/70/70
f 71/71/71 72/72/72 70/70/70
f 71/71/71 73/73/73 72/72/72
f 73/73/73 74/74/74 72/72/72
