g pCube17
v 0.01355646 0.01934349 -0.02458693
v 0.01368615 0.01870073 -0.02478547
v 0.01802639 0.01848459 -0.01609284
v 0.01786179 0.01930041 -0.01584085
v 0.01838157 0.01737997 -0.01224212
v 0.0182001 0.01827945 -0.01196427
v 0.01791734 0.01473732 -0.005091778
v 0.01780364 0.01530086 -0.004917705
v 0.01553931 0.01029544 0.004281865
v 0.01543899 0.01079266 0.004435452
v 0.009885737 0.002257003 0.01297221
v 0.00976225 0.002869086 0.01316127
v 0.0003087502 -0.0112236 0.02081456
v 0.0001813622 -0.01059218 0.02100959
v 0.01005352 0.01920804 -0.02811312
v 0.00711359 0.01931256 -0.02680421
v 0.008449288 0.01904002 -0.0287258
v 0.009720718 0.01958562 -0.02580852
v 0.01355646 0.01934349 -0.02458693
v 0.005575154 0.01961746 -0.0232739
v 0.008467446 0.01992038 -0.0221693
v 0.003532267 0.01829362 -0.02841529
v 0.008449288 0.01904002 -0.0287258
v 0.001621666 0.01880855 -0.02373807
v -0.005365555 0.0166962 -0.02477646
v 0.004104078 0.01954185 -0.0197303
v 0.0002290879 0.01863066 -0.02033226
v -0.008007187 0.01524998 -0.02208072
v -0.002148464 0.01719325 -0.01424819
v -0.01202871 0.01230957 -0.01626069
v 0.001893635 0.01837152 -0.0136857
v -0.0054003 0.01148585 -0.005175869
v -0.01582927 0.00764453 -0.007458362
v 0.007211264 0.01986728 -0.01854362
v -0.001260513 0.01304545 -0.004258404
v -0.008325482 0.004295531 0.003350438
v -0.01627042 0.0001425842 0.00321909
v -0.01249401 -0.01191973 0.01616871
v -0.00365881 0.006691413 0.003415303
v -0.007709854 -0.01000354 0.01768519
v -0.008177506 -0.02444696 0.02677532
v -0.004602669 -0.009678118 0.01887186
v 0.005000824 0.01869696 -0.01249903
v 0.001846672 0.01337088 -0.003071727
v -0.0005516243 0.007016837 0.004601979
v 0.0001813622 -0.01059218 0.02100959
v -0.008177506 -0.02444696 0.02677532
v 0.003248675 0.005509543 0.00776666
v 0.00976225 0.002869086 0.01316127
v 0.005702246 0.01264972 -0.000937816
v 0.01543899 0.01079266 0.004435452
v 0.008494808 0.01830922 -0.01018605
v 0.01780364 0.01530086 -0.004917705
v 0.0105705 0.01971489 -0.01638498
v 0.0182001 0.01827945 -0.01196427
v 0.01177869 0.01987373 -0.01986123
v 0.01786179 0.01930041 -0.01584085
v 0.008693501 0.01782954 -0.02909969
v 0.003661949 0.01765086 -0.02861384
v 0.007357806 0.01810206 -0.0271781
v 0.005819367 0.01840697 -0.02364779
v 0.001883187 0.01781744 -0.02404099
v -0.005273174 0.01623833 -0.0249179
v -0.007937161 0.01490291 -0.02218794
v 0.0004991913 0.01761387 -0.02064119
v -0.01187426 0.01154405 -0.01649714
v -0.001872715 0.01616569 -0.01456239
v -0.01569046 0.006956496 -0.007670887
v 0.004348293 0.01833136 -0.02010419
v -0.005129192 0.01047342 -0.005482059
v -0.01615342 -0.0004373261 0.003039975
v 0.002137854 0.01716101 -0.0140596
v -0.008064972 0.003325812 0.003042409
v -0.01236662 -0.01255114 0.01597368
v -0.001016296 0.01183496 -0.004632297
v -0.003414597 0.005480926 0.003041409
v -0.007465641 -0.01121403 0.01731129
v -0.008080387 -0.02492836 0.02662663
v -0.004358452 -0.01088861 0.01849797
v -0.008080387 -0.02492836 0.02662663
v 0.0003087502 -0.0112236 0.02081456
v -0.0003074112 0.00580635 0.004228085
v 0.003445935 0.004524138 0.007460691
v 0.009885737 0.002257003 0.01297221
v 0.01553931 0.01029544 0.004281865
v 0.005909554 0.01161244 -0.001259456
v 0.01791734 0.01473732 -0.005091778
v 0.002090891 0.01216038 -0.003445621
v 0.008703863 0.0172635 -0.01051041
v 0.01838157 0.01737997 -0.01224212
v 0.005245041 0.01748643 -0.01287292
v 0.01077606 0.01868674 -0.01670379
v 0.01802639 0.01848459 -0.01609284
v 0.007455481 0.01865678 -0.01891752
v 0.01197921 0.01887125 -0.02017209
v 0.01368615 0.01870073 -0.02478547
v 0.008711659 0.0187099 -0.0225432
v 0.009964934 0.01837512 -0.02618241
v 0.01029774 0.01799756 -0.02848701
v 0.008693501 0.01782954 -0.02909969
v -0.008080387 -0.02492836 0.02662663
v -0.008177506 -0.02444696 0.02677532
v 0.0001813622 -0.01059218 0.02100959
v 0.0003087502 -0.0112236 0.02081456
v -0.01236662 -0.01255114 0.01597368
v -0.008177506 -0.02444696 0.02677532
v -0.008080387 -0.02492836 0.02662663
v -0.01249401 -0.01191973 0.01616871
v -0.01615342 -0.0004373261 0.003039975
v -0.01627042 0.0001425842 0.00321909
v -0.01569046 0.006956496 -0.007670887
v -0.01582927 0.00764453 -0.007458362
v -0.01187426 0.01154405 -0.01649714
v -0.01202871 0.01230957 -0.01626069
v -0.007937161 0.01490291 -0.02218794
v -0.008007187 0.01524998 -0.02208072
v -0.005273174 0.01623833 -0.0249179
v -0.005365555 0.0166962 -0.02477646
v 0.003661949 0.01765086 -0.02861384
v 0.003532267 0.01829362 -0.02841529
v 0.008693501 0.01782954 -0.02909969
v 0.008449288 0.01904002 -0.0287258
v 0.01029774 0.01799756 -0.02848701
v 0.01005352 0.01920804 -0.02811312
v 0.01368615 0.01870073 -0.02478547
v 0.01355646 0.01934349 -0.02458693
vt 0.375 0.5
vt 0.375 0.75
vt 0.416748 0.75
vt 0.416748 0.5
vt 0.458252 0.75
vt 0.458252 0.5
vt 0.5 0.75
vt 0.5 0.5
vt 0.5415039 0.75
vt 0.5415039 0.5
vt 0.5834961 0.75
vt 0.5834961 0.5
vt 0.625 0.75
vt 0.625 0.5
vt 0.375 0.4138184
vt 0.3847656 0.3361816
vt 0.3818359 0.375
vt 0.3847656 0.4138184
vt 0.375 0.5
vt 0.416748 0.3583984
vt 0.416748 0.3916016
vt 0.375 0.25
vt 0.375 0.3361816
vt 0.416748 0.3195801
vt 0.416748 0.25
vt 0.458252 0.3601074
vt 0.458252 0.3256836
vt 0.458252 0.25
vt 0.5 0.3303223
vt 0.5 0.25
vt 0.5 0.3620605
vt 0.5415039 0.3305664
vt 0.5415039 0.25
vt 0.458252 0.3898926
vt 0.5415039 0.3625488
vt 0.5834961 0.3193359
vt 0.5834961 0.25
vt 0.625 0.25
vt 0.5834961 0.3601074
vt 0.6142578 0.3442383
vt 0.6235352 0.3596191
vt 0.6142578 0.4057617
vt 0.5 0.3879395
vt 0.5415039 0.3874512
vt 0.5834961 0.3898926
vt 0.625 0.5
vt 0.625 0.4057617
vt 0.5834961 0.4304199
vt 0.5834961 0.5
vt 0.5415039 0.4194336
vt 0.5415039 0.5
vt 0.5 0.4196777
vt 0.5 0.5
vt 0.458252 0.4240723
vt 0.458252 0.5
vt 0.416748 0.4301758
vt 0.416748 0.5
vt 0.375 0.9135742
vt 0.375 1
vt 0.3847656 0.9135742
vt 0.416748 0.8916016
vt 0.416748 0.9296875
vt 0.416748 1
vt 0.458252 1
vt 0.458252 0.9238281
vt 0.5 1
vt 0.5 0.9189453
vt 0.5415039 1
vt 0.458252 0.8896484
vt 0.5415039 0.9189453
vt 0.5834961 1
vt 0.5 0.8881836
vt 0.5834961 0.9301758
vt 0.625 1
vt 0.5415039 0.887207
vt 0.5834961 0.8901367
vt 0.6142578 0.9057617
vt 0.625 0.9057617
vt 0.6142578 0.8442383
vt 0.6235352 0.8598633
vt 0.625 0.75
vt 0.5834961 0.8598633
vt 0.5834961 0.8193359
vt 0.5834961 0.75
vt 0.5415039 0.75
vt 0.5415039 0.8305664
vt 0.5 0.75
vt 0.5415039 0.862793
vt 0.5 0.8305664
vt 0.458252 0.75
vt 0.5 0.8618164
vt 0.458252 0.8256836
vt 0.416748 0.75
vt 0.458252 0.8603516
vt 0.416748 0.8198242
vt 0.375 0.75
vt 0.416748 0.8583984
vt 0.3847656 0.8364258
vt 0.375 0.8364258
vt 0.3818359 0.875
vt 0.75 0
vt 0.75 0.25
vt 0.875 0.25
vt 0.875 0
vt 0.625 0
vt 0.75 0.25
vt 0.75 0
vt 0.625 0.25
vt 0.5834961 0
vt 0.5834961 0.25
vt 0.5415039 0
vt 0.5415039 0.25
vt 0.5 0
vt 0.5 0.25
vt 0.458252 0
vt 0.458252 0.25
vt 0.416748 0
vt 0.416748 0.25
vt 0.375 0
vt 0.375 0.25
vt 0.2888184 0
vt 0.2888184 0.25
vt 0.2113037 0
vt 0.2113037 0.25
vt 0.125 0
vt 0.125 0.25
vn 0.7954102 0.3195801 -0.5146484
vn 0.7773438 0.3234863 -0.5395508
vn 0.9106445 0.2780762 -0.3054199
vn 0.918457 0.2734375 -0.2856445
vn 0.9819336 0.1779785 0.06506348
vn 0.9819336 0.1787109 0.06268311
vn 0.96875 0.130249 0.2109375
vn 0.9702148 0.1333008 0.2022705
vn 0.8916016 0.0406189 0.4509277
vn 0.9067383 0.05361938 0.418457
vn 0.7426758 -0.05621338 0.6669922
vn 0.7788086 -0.03643799 0.6264648
vn 0.6782227 -0.08856201 0.7294922
vn 0.6884766 -0.0836792 0.7207031
vn 0.007640839 0.9868164 -0.1606445
vn -0.1297607 0.9775391 -0.1654053
vn -0.07849121 0.9780273 -0.1932373
vn 0.02706909 0.9941406 -0.105957
vn 0.09790039 0.9926758 -0.0737915
vn -0.1470947 0.9838867 -0.1016846
vn -0.003513336 0.9990234 -0.04708862
vn -0.2086182 0.9594727 -0.1901855
vn -0.07849121 0.9780273 -0.1932373
vn -0.2595215 0.9609375 -0.09564209
vn -0.3322754 0.9433594 -0.008399963
vn -0.1928711 0.9794922 0.0574646
vn -0.3520508 0.9335938 0.06854248
vn -0.416748 0.9047852 0.08709717
vn -0.4023438 0.8808594 0.2492676
vn -0.4321289 0.8608398 0.2685547
vn -0.2727051 0.9179688 0.2873535
vn -0.4089355 0.8110352 0.4187012
vn -0.4143066 0.8012695 0.4318848
vn -0.074646 0.9916992 0.1029663
vn -0.3305664 0.8256836 0.4575195
vn -0.394043 0.703125 0.5917969
vn -0.3747559 0.7060547 0.6005859
vn -0.4035645 0.6000977 0.690918
vn -0.3649902 0.7011719 0.6123047
vn -0.3825684 0.6108398 0.6928711
vn -0.3547363 0.5 0.7900391
vn -0.2897949 0.6196289 0.7294922
vn -0.1571045 0.9296875 0.3325195
vn -0.2106934 0.8374023 0.5043945
vn -0.2651367 0.7104492 0.6518555
vn -0.2702637 0.6132813 0.7421875
vn -0.3547363 0.5 0.7900391
vn -0.2277832 0.7197266 0.6557617
vn -0.2462158 0.7202148 0.6484375
vn -0.1179199 0.8393555 0.5307617
vn -0.1172485 0.8310547 0.5439453
vn -0.03359985 0.9145508 0.402832
vn -0.0144577 0.8989258 0.4377441
vn 0.02731323 0.9731445 0.2279053
vn 0.05944824 0.9526367 0.2990723
vn 0.06707764 0.9975586 0.02589417
vn 0.0562439 0.9892578 0.1333008
vn 0.04312134 -0.984375 0.1696777
vn 0.1376953 -0.984375 0.1100464
vn 0.07897949 -0.9892578 0.1231689
vn 0.1084595 -0.9916992 0.06994629
vn 0.1976318 -0.9794922 0.03860474
vn 0.2648926 -0.9633789 -0.03839111
vn 0.3730469 -0.9165039 -0.1452637
vn 0.3044434 -0.9462891 -0.1107178
vn 0.4018555 -0.8681641 -0.2915039
vn 0.3674316 -0.8876953 -0.2775879
vn 0.3828125 -0.8120117 -0.4404297
vn 0.1689453 -0.9833984 -0.0682373
vn 0.3762207 -0.8208008 -0.4301758
vn 0.3369141 -0.7202148 -0.6064453
vn 0.2504883 -0.9213867 -0.296875
vn 0.345459 -0.7158203 -0.6064453
vn 0.3352051 -0.6245117 -0.7055664
vn 0.3078613 -0.8291016 -0.467041
vn 0.3344727 -0.7060547 -0.6240234
vn 0.3378906 -0.6259766 -0.703125
vn 0.3496094 -0.5366211 -0.7680664
vn 0.3317871 -0.6264648 -0.7055664
vn 0.3496094 -0.5366211 -0.7680664
vn 0.3342285 -0.625 -0.7050781
vn 0.2966309 -0.7099609 -0.6386719
vn 0.2797852 -0.7211914 -0.6337891
vn 0.2844238 -0.7246094 -0.6279297
vn 0.163208 -0.8334961 -0.527832
vn 0.1633301 -0.8408203 -0.515625
vn 0.05480957 -0.9057617 -0.4204102
vn 0.2337646 -0.8364258 -0.4960938
vn 0.07055664 -0.9199219 -0.3852539
vn -0.03735352 -0.9594727 -0.2792969
vn 0.1798096 -0.9287109 -0.324707
vn 0.004295349 -0.9765625 -0.2149658
vn -0.02023315 -0.9882813 -0.1513672
vn 0.09973145 -0.9902344 -0.09503174
vn -0.00749588 -0.9990234 -0.0413208
vn -0.002950668 -0.9985352 0.05661011
vn 0.05407715 -0.9975586 0.04901123
vn 0.0401001 -0.9931641 0.1081543
vn 0.03485107 -0.9853516 0.1665039
vn 0.04312134 -0.984375 0.1696777
vn 0.6660156 -0.09411621 0.7397461
vn 0.6660156 -0.09411621 0.7397461
vn 0.6884766 -0.0836792 0.7207031
vn 0.6782227 -0.08856201 0.7294922
vn -0.9682617 -0.2272949 0.1034546
vn -0.965332 -0.2316895 0.1193237
vn -0.965332 -0.2316895 0.1193237
vn -0.9707031 -0.2235107 0.08966064
vn -0.9799805 -0.1984863 0.002548218
vn -0.9819336 -0.1817627 -0.052948
vn -0.9570313 -0.1101074 -0.2685547
vn -0.9477539 -0.09747314 -0.3034668
vn -0.8823242 -0.03317261 -0.4689941
vn -0.8789063 -0.03010559 -0.4765625
vn -0.8012695 0.02296448 -0.5976563
vn -0.7998047 0.02397156 -0.6000977
vn -0.4794922 0.1691895 -0.8608398
vn -0.4902344 0.1654053 -0.855957
vn -0.2497559 0.2393799 -0.9384766
vn -0.2746582 0.2327881 -0.9331055
vn 0.03561401 0.3015137 -0.9526367
vn 0.02281189 0.2993164 -0.9541016
vn 0.5478516 0.3457031 -0.7617188
vn 0.5654297 0.345459 -0.7490234
vn 0.7773438 0.3234863 -0.5395508
vn 0.7954102 0.3195801 -0.5146484
g pCube17_0
f 3/3/3 2/2/2 1/1/1
f 4/4/4 3/3/3 1/1/1
f 5/5/5 3/3/3 4/4/4
f 6/6/6 5/5/5 4/4/4
f 7/7/7 5/5/5 6/6/6
f 8/8/8 7/7/7 6/6/6
f 9/9/9 7/7/7 8/8/8
f 10/10/10 9/9/9 8/8/8
f 11/11/11 9/9/9 10/10/10
f 12/12/12 11/11/11 10/10/10
f 13/13/13 11/11/11 12/12/12
f 14/14/14 13/13/13 12/12/12
f 17/17/17 16/16/16 15/15/15
f 16/16/16 18/18/18 15/15/15
f 18/18/18 19/19/19 15/15/15
f 16/16/16 20/20/20 18/18/18
f 18/18/18 21/21/21 19/19/19
f 20/20/20 21/21/21 18/18/18
f 20/20/20 16/16/16 22/22/22
f 16/16/16 23/23/23 22/22/22
f 24/24/24 20/20/20 22/22/22
f 25/25/25 24/24/24 22/22/22
f 26/26/26 20/20/20 24/24/24
f 20/20/20 26/26/26 21/21/21
f 27/27/27 24/24/24 25/25/25
f 27/27/27 26/26/26 24/24/24
f 28/28/28 27/27/27 25/25/25
f 29/29/29 27/27/27 28/28/28
f 30/30/30 29/29/29 28/28/28
f 31/31/31 26/26/26 27/27/27
f 29/29/29 31/31/31 27/27/27
f 32/32/32 29/29/29 30/30/30
f 33/33/33 32/32/32 30/30/30
f 26/26/26 34/34/34 21/21/21
f 26/26/26 31/31/31 34/34/34
f 35/35/35 31/31/31 29/29/29
f 32/32/32 35/35/35 29/29/29
f 36/36/36 32/32/32 33/33/33
f 37/37/37 36/36/36 33/33/33
f 38/38/38 36/36/36 37/37/37
f 36/36/36 39/39/39 32/32/32
f 39/39/39 35/35/35 32/32/32
f 38/38/38 40/40/40 36/36/36
f 40/40/40 39/39/39 36/36/36
f 38/38/38 41/41/41 40/40/40
f 40/40/40 41/41/41 42/42/42
f 31/31/31 35/35/35 43/43/43
f 31/31/31 43/43/43 34/34/34
f 35/35/35 39/39/39 44/44/44
f 35/35/35 44/44/44 43/43/43
f 39/39/39 40/40/40 45/45/45
f 40/40/40 42/42/42 45/45/45
f 39/39/39 45/45/45 44/44/44
f 42/42/42 46/46/46 45/45/45
f 42/42/42 47/47/47 46/46/46
f 46/46/46 48/48/48 45/45/45
f 45/45/45 48/48/48 44/44/44
f 46/46/46 49/49/49 48/48/48
f 48/48/48 50/50/50 44/44/44
f 48/48/48 49/49/49 50/50/50
f 44/44/44 50/50/50 43/43/43
f 49/49/49 51/51/51 50/50/50
f 50/50/50 52/52/52 43/43/43
f 50/50/50 51/51/51 52/52/52
f 43/43/43 52/52/52 34/34/34
f 51/51/51 53/53/53 52/52/52
f 52/52/52 54/54/54 34/34/34
f 52/52/52 53/53/53 54/54/54
f 34/34/34 54/54/54 21/21/21
f 53/53/53 55/55/55 54/54/54
f 54/54/54 56/56/56 21/21/21
f 54/54/54 55/55/55 56/56/56
f 21/21/21 56/56/56 19/19/19
f 55/55/55 57/57/57 56/56/56
f 56/56/56 57/57/57 19/19/19
f 60/60/60 59/59/59 58/58/58
f 60/60/60 61/61/61 59/59/59
f 61/61/61 62/62/62 59/59/59
f 62/62/62 63/63/63 59/59/59
f 64/64/64 63/63/63 62/62/62
f 65/65/65 64/64/64 62/62/62
f 65/65/65 62/62/62 61/61/61
f 66/66/66 64/64/64 65/65/65
f 67/67/67 66/66/66 65/65/65
f 68/68/68 66/66/66 67/67/67
f 69/69/69 65/65/65 61/61/61
f 67/67/67 65/65/65 69/69/69
f 70/70/70 68/68/68 67/67/67
f 71/71/71 68/68/68 70/70/70
f 72/72/72 67/67/67 69/69/69
f 70/70/70 67/67/67 72/72/72
f 73/73/73 71/71/71 70/70/70
f 74/74/74 71/71/71 73/73/73
f 73/73/73 70/70/70 75/75/75
f 75/75/75 70/70/70 72/72/72
f 74/74/74 73/73/73 76/76/76
f 76/76/76 73/73/73 75/75/75
f 77/77/77 74/74/74 76/76/76
f 77/77/77 78/78/78 74/74/74
f 79/79/79 77/77/77 76/76/76
f 79/79/79 80/80/80 77/77/77
f 81/81/81 80/80/80 79/79/79
f 82/82/82 76/76/76 75/75/75
f 82/82/82 79/79/79 76/76/76
f 81/81/81 79/79/79 83/83/83
f 79/79/79 82/82/82 83/83/83
f 81/81/81 83/83/83 84/84/84
f 84/84/84 83/83/83 85/85/85
f 83/83/83 86/86/86 85/85/85
f 83/83/83 82/82/82 86/86/86
f 85/85/85 86/86/86 87/87/87
f 88/88/88 82/82/82 75/75/75
f 82/82/82 88/88/88 86/86/86
f 88/88/88 75/75/75 72/72/72
f 86/86/86 89/89/89 87/87/87
f 86/86/86 88/88/88 89/89/89
f 87/87/87 89/89/89 90/90/90
f 91/91/91 88/88/88 72/72/72
f 88/88/88 91/91/91 89/89/89
f 91/91/91 72/72/72 69/69/69
f 89/89/89 92/92/92 90/90/90
f 89/89/89 91/91/91 92/92/92
f 90/90/90 92/92/92 93/93/93
f 94/94/94 91/91/91 69/69/69
f 91/91/91 94/94/94 92/92/92
f 94/94/94 69/69/69 61/61/61
f 92/92/92 95/95/95 93/93/93
f 92/92/92 94/94/94 95/95/95
f 93/93/93 95/95/95 96/96/96
f 97/97/97 94/94/94 61/61/61
f 94/94/94 97/97/97 95/95/95
f 95/95/95 97/97/97 96/96/96
f 97/97/97 61/61/61 60/60/60
f 97/97/97 98/98/98 96/96/96
f 98/98/98 97/97/97 60/60/60
f 98/98/98 99/99/99 96/96/96
f 98/98/98 60/60/60 100/100/100
f 99/99/99 98/98/98 100/100/100
f 103/103/103 102/102/102 101/101/101
f 104/104/104 103/103/103 101/101/101
f 107/107/107 106/106/106 105/105/105
f 106/106/106 108/108/108 105/105/105
f 105/105/105 108/108/108 109/109/109
f 108/108/108 110/110/110 109/109/109
f 109/109/109 110/110/110 111/111/111
f 110/110/110 112/112/112 111/111/111
f 111/111/111 112/112/112 113/113/113
f 112/112/112 114/114/114 113/113/113
f 113/113/113 114/114/114 115/115/115
f 114/114/114 116/116/116 115/115/115
f 115/115/115 116/116/116 117/117/117
f 116/116/116 118/118/118 117/117/117
f 117/117/117 118/118/118 119/119/119
f 118/118/118 120/120/120 119/119/119
f 119/119/119 120/120/120 121/121/121
f 120/120/120 122/122/122 121/121/121
f 123/123/123 121/121/121 122/122/122
f 124/124/124 123/123/123 122/122/122
f 123/123/123 124/124/124 125/125/125
f 124/124/124 126/126/126 125/125/125
