g pCube14
v -0.02776541 0.02127677 0.02239804
v -0.02795456 0.02047138 0.02255451
v -0.0295798 0.02042758 0.01034289
v -0.02933973 0.02144984 0.01014428
v -0.02834555 0.01928071 0.005672412
v -0.02808087 0.02040778 0.005453441
v -0.02466246 0.01650375 -0.002467817
v -0.02449663 0.01720988 -0.002605008
v -0.01764013 0.01178765 -0.01230184
v -0.01749382 0.01241068 -0.0124229
v -0.006703694 0.002857498 -0.01982391
v -0.006523587 0.00362445 -0.01997291
v 0.008993092 -0.0125073 -0.02456306
v 0.009178891 -0.0117161 -0.02471678
v -0.02500063 0.02113847 0.02818969
v -0.02094714 0.02153947 0.02809013
v -0.02331585 0.02100451 0.02967452
v -0.02368516 0.02175716 0.02567705
v -0.02776541 0.02127677 0.02239804
v -0.01767847 0.02222195 0.02473331
v -0.02071597 0.02246346 0.02205629
v -0.01723795 0.02043972 0.03167612
v -0.02331585 0.02100451 0.02967452
v -0.01306864 0.02147096 0.02716908
v -0.00496011 0.01929698 0.03171507
v -0.01445687 0.02243597 0.02132147
v -0.009990033 0.0215467 0.0238777
v -0.000580822 0.0178654 0.02983002
v -0.004539402 0.02030712 0.01792436
v 0.006844182 0.01488442 0.0249508
v -0.0092426 0.02150912 0.01533817
v 0.003501003 0.01408601 0.008839954
v 0.01535447 0.009957283 0.01646468
v -0.01772005 0.02269543 0.01844556
v -0.001202129 0.01576809 0.005800647
v 0.01103608 0.005999763 0.0002055614
v 0.02081604 0.001450653 0.004122142
v 0.02249062 -0.01277454 -0.01298485
v 0.005289753 0.008617988 -0.002081457
v 0.01723395 -0.01066485 -0.01702572
v 0.02259195 -0.02774126 -0.02763629
v 0.01397076 -0.01040539 -0.01990163
v -0.01250578 0.02176858 0.01246225
v -0.004465313 0.01602755 0.002924731
v 0.00202657 0.008877449 -0.004957372
v 0.009178891 -0.0117161 -0.02471678
v 0.02259195 -0.02774126 -0.02763629
v -0.00112096 0.006968193 -0.01050236
v -0.006523587 0.00362445 -0.01997291
v -0.00815989 0.01501427 -0.001433728
v -0.01749382 0.01241068 -0.0124229
v -0.0157182 0.02119724 0.008076388
v -0.02449663 0.01720988 -0.002605008
v -0.02085162 0.02241148 0.01430862
v -0.02808087 0.02040778 0.005453441
v -0.02373661 0.02232067 0.01777067
v -0.02933973 0.02144984 0.01014428
v -0.02367204 0.01948774 0.0299692
v -0.0174271 0.01963433 0.03183261
v -0.02130333 0.02002268 0.02838481
v -0.01803466 0.02070518 0.02502798
v -0.01343277 0.02022514 0.02737687
v -0.005094845 0.01872324 0.03182654
v -0.0006829567 0.01743049 0.02991452
v -0.01036501 0.02026859 0.02408787
v 0.006618916 0.01392519 0.02513716
v -0.00492252 0.01901518 0.01813774
v 0.01515201 0.009095161 0.01663218
v -0.01481306 0.0209192 0.02161615
v 0.00312563 0.01281332 0.009046504
v 0.02064541 0.0007240138 0.004263316
v -0.00959879 0.01999232 0.01563285
v 0.01066947 0.004779853 0.0004201763
v 0.02230482 -0.01356572 -0.01283113
v -0.001558323 0.0142513 0.006095333
v 0.004933567 0.007101219 -0.001786779
v 0.01687775 -0.01218162 -0.01673103
v 0.02245031 -0.02834444 -0.0275191
v 0.01361457 -0.01192217 -0.01960695
v 0.02245031 -0.02834444 -0.0275191
v 0.008993092 -0.0125073 -0.02456306
v 0.001670383 0.00736068 -0.004662686
v -0.001409725 0.005733475 -0.01025985
v -0.006703694 0.002857498 -0.01982391
v -0.01764013 0.01178765 -0.01230184
v -0.008463269 0.01371459 -0.001178823
v -0.02466246 0.01650375 -0.002467817
v -0.004821507 0.01451075 0.003219417
v -0.01602416 0.01988699 0.008333469
v -0.02834555 0.01928071 0.005672412
v -0.01286197 0.02025178 0.01275694
v -0.02115242 0.02112324 0.01456126
v -0.0295798 0.02042758 0.01034289
v -0.01807624 0.02117864 0.01874024
v -0.02403002 0.02106457 0.01801697
v -0.02795456 0.02047138 0.02255451
v -0.02107216 0.02094669 0.02235097
v -0.02404135 0.02024038 0.02597173
v -0.02535681 0.0196217 0.02848437
v -0.02367204 0.01948774 0.0299692
v 0.02245031 -0.02834444 -0.0275191
v 0.02259195 -0.02774126 -0.02763629
v 0.009178891 -0.0117161 -0.02471678
v 0.008993092 -0.0125073 -0.02456306
v 0.02230482 -0.01356572 -0.01283113
v 0.02259195 -0.02774126 -0.02763629
v 0.02245031 -0.02834444 -0.0275191
v 0.02249062 -0.01277454 -0.01298485
v 0.02064541 0.0007240138 0.004263316
v 0.02081604 0.001450653 0.004122142
v 0.01515201 0.009095161 0.01663218
v 0.01535447 0.009957283 0.01646468
v 0.006618916 0.01392519 0.02513716
v 0.006844182 0.01488442 0.0249508
v -0.0006829567 0.01743049 0.02991452
v -0.000580822 0.0178654 0.02983002
v -0.005094845 0.01872324 0.03182654
v -0.00496011 0.01929698 0.03171507
v -0.0174271 0.01963433 0.03183261
v -0.01723795 0.02043972 0.03167612
v -0.02367204 0.01948774 0.0299692
v -0.02331585 0.02100451 0.02967452
v -0.02535681 0.0196217 0.02848437
v -0.02500063 0.02113847 0.02818969
v -0.02795456 0.02047138 0.02255451
v -0.02776541 0.02127677 0.02239804
vt 0.375 0.5
vt 0.375 0.75
vt 0.416748 0.75
vt 0.416748 0.5
vt 0.458252 0.75
vt 0.458252 0.5
vt 0.5 0.75
vt 0.5 0.5
vt 0.5415039 0.75
vt 0.5415039 0.5
vt 0.5834961 0.75
vt 0.5834961 0.5
vt 0.625 0.75
vt 0.625 0.5
vt 0.375 0.4138184
vt 0.3847656 0.3361816
vt 0.3818359 0.375
vt 0.3847656 0.4138184
vt 0.375 0.5
vt 0.416748 0.3583984
vt 0.416748 0.3916016
vt 0.375 0.25
vt 0.375 0.3361816
vt 0.416748 0.3195801
vt 0.416748 0.25
vt 0.458252 0.3601074
vt 0.458252 0.3256836
vt 0.458252 0.25
vt 0.5 0.3303223
vt 0.5 0.25
vt 0.5 0.3620605
vt 0.5415039 0.3305664
vt 0.5415039 0.25
vt 0.458252 0.3898926
vt 0.5415039 0.3625488
vt 0.5834961 0.3193359
vt 0.5834961 0.25
vt 0.625 0.25
vt 0.5834961 0.3601074
vt 0.6142578 0.3442383
vt 0.6235352 0.3596191
vt 0.6142578 0.4057617
vt 0.5 0.3879395
vt 0.5415039 0.3874512
vt 0.5834961 0.3898926
vt 0.625 0.5
vt 0.625 0.4057617
vt 0.5834961 0.4304199
vt 0.5834961 0.5
vt 0.5415039 0.4194336
vt 0.5415039 0.5
vt 0.5 0.4196777
vt 0.5 0.5
vt 0.458252 0.4240723
vt 0.458252 0.5
vt 0.416748 0.4301758
vt 0.416748 0.5
vt 0.375 0.9135742
vt 0.375 1
vt 0.3847656 0.9135742
vt 0.416748 0.8916016
vt 0.416748 0.9296875
vt 0.416748 1
vt 0.458252 1
vt 0.458252 0.9238281
vt 0.5 1
vt 0.5 0.9189453
vt 0.5415039 1
vt 0.458252 0.8896484
vt 0.5415039 0.9189453
vt 0.5834961 1
vt 0.5 0.8881836
vt 0.5834961 0.9301758
vt 0.625 1
vt 0.5415039 0.887207
vt 0.5834961 0.8901367
vt 0.6142578 0.9057617
vt 0.625 0.9057617
vt 0.6142578 0.8442383
vt 0.6235352 0.8598633
vt 0.625 0.75
vt 0.5834961 0.8598633
vt 0.5834961 0.8193359
vt 0.5834961 0.75
vt 0.5415039 0.75
vt 0.5415039 0.8305664
vt 0.5 0.75
vt 0.5415039 0.862793
vt 0.5 0.8305664
vt 0.458252 0.75
vt 0.5 0.8618164
vt 0.458252 0.8256836
vt 0.416748 0.75
vt 0.458252 0.8603516
vt 0.416748 0.8198242
vt 0.375 0.75
vt 0.416748 0.8583984
vt 0.3847656 0.8364258
vt 0.375 0.8364258
vt 0.3818359 0.875
vt 0.75 0
vt 0.75 0.25
vt 0.875 0.25
vt 0.875 0
vt 0.625 0
vt 0.75 0.25
vt 0.75 0
vt 0.625 0.25
vt 0.5834961 0
vt 0.5834961 0.25
vt 0.5415039 0
vt 0.5415039 0.25
vt 0.5 0
vt 0.5 0.25
vt 0.458252 0
vt 0.458252 0.25
vt 0.416748 0
vt 0.416748 0.25
vt 0.375 0
vt 0.375 0.25
vt 0.2888184 0
vt 0.2888184 0.25
vt 0.2113037 0
vt 0.2113037 0.25
vt 0.125 0
vt 0.125 0.25
vn -0.9350586 0.2651367 0.2349854
vn -0.9267578 0.2685547 0.2626953
vn -0.9736328 0.2287598 0.0006980896
vn -0.9741211 0.2247314 -0.02113342
vn -0.9116211 0.1390381 -0.3862305
vn -0.9125977 0.1395264 -0.3845215
vn -0.84375 0.09558105 -0.527832
vn -0.8481445 0.09802246 -0.5205078
vn -0.671875 0.0138855 -0.7407227
vn -0.6987305 0.02516174 -0.7148438
vn -0.4350586 -0.07220459 -0.8974609
vn -0.4858398 -0.05541992 -0.8725586
vn -0.345459 -0.1001587 -0.9331055
vn -0.3588867 -0.09606934 -0.9282227
vn -0.1314697 0.9765625 0.1716309
vn -0.01046753 0.9755859 0.2196045
vn -0.06628418 0.9711914 0.2287598
vn -0.1291504 0.9848633 0.1155396
vn -0.1804199 0.9814453 0.06317139
vn 0.02822876 0.9858398 0.1665039
vn -0.08032227 0.9941406 0.07110596
vn 0.05255127 0.9619141 0.2675781
vn -0.06628418 0.9711914 0.2287598
vn 0.1326904 0.9716797 0.1964111
vn 0.2321777 0.9628906 0.1383057
vn 0.12854 0.9912109 0.03433228
vn 0.2790527 0.9575195 0.07403564
vn 0.3461914 0.9350586 0.07666016
vn 0.3952637 0.9150391 -0.07940674
vn 0.4306641 0.8984375 -0.08776855
vn 0.2900391 0.9443359 -0.1550293
vn 0.4685059 0.8510742 -0.2366943
vn 0.4787598 0.8427734 -0.2453613
vn 0.03878784 0.9980469 -0.04486084
vn 0.411377 0.8618164 -0.2966309
vn 0.5263672 0.7475586 -0.4047852
vn 0.5117188 0.7524414 -0.4150391
vn 0.5771484 0.6494141 -0.494873
vn 0.5083008 0.7441406 -0.4331055
vn 0.5600586 0.6577148 -0.5043945
vn 0.5771484 0.5483398 -0.6049805
vn 0.4892578 0.6625977 -0.5673828
vn 0.2022705 0.9511719 -0.2330322
vn 0.3203125 0.8686523 -0.3779297
vn 0.4326172 0.7495117 -0.5004883
vn 0.4768066 0.6572266 -0.5839844
vn 0.5771484 0.5483398 -0.6049805
vn 0.4001465 0.7578125 -0.515625
vn 0.4106445 0.7612305 -0.5019531
vn 0.2470703 0.8676758 -0.4313965
vn 0.2504883 0.8603516 -0.4436035
vn 0.1185303 0.9335938 -0.3374023
vn 0.1152954 0.9194336 -0.3764648
vn -0.004970551 0.980957 -0.1932373
vn -0.00586319 0.9628906 -0.2700195
vn -0.116333 0.9931641 -0.01849365
vn -0.06610107 0.9912109 -0.1148071
vn 0.08947754 -0.9765625 -0.1959229
vn -0.01751709 -0.9848633 -0.1716309
vn 0.04083252 -0.9853516 -0.1647949
vn -0.005069733 -0.9921875 -0.1252441
vn -0.09710693 -0.9873047 -0.1244507
vn -0.1871338 -0.9794922 -0.07415771
vn -0.3273926 -0.9448242 -0.009002686
vn -0.2509766 -0.9677734 -0.01994324
vn -0.4111328 -0.9038086 0.1185303
vn -0.3735352 -0.9204102 0.116394
vn -0.4523926 -0.8520508 0.2629395
vn -0.1107788 -0.9936523 -0.01690674
vn -0.4423828 -0.8588867 0.2573242
vn -0.4787598 -0.7641602 0.4318848
vn -0.2734375 -0.9467773 0.1706543
vn -0.4873047 -0.7583008 0.4331055
vn -0.5200195 -0.6704102 0.5292969
vn -0.3942871 -0.8642578 0.3125
vn -0.4848633 -0.7480469 0.4533691
vn -0.5219727 -0.6704102 0.5268555
vn -0.5625 -0.5839844 0.5854492
vn -0.5175781 -0.6708984 0.53125
vn -0.5625 -0.5839844 0.5854492
vn -0.5195313 -0.6708984 0.5292969
vn -0.4562988 -0.75 0.4787598
vn -0.4382324 -0.7607422 0.4785156
vn -0.4370117 -0.7666016 0.470459
vn -0.2854004 -0.8642578 0.4138184
vn -0.2817383 -0.8706055 0.402832
vn -0.1444092 -0.9267578 0.347168
vn -0.3378906 -0.8686523 0.3625488
vn -0.1447754 -0.9399414 0.309082
vn -0.006061554 -0.9697266 0.2442627
vn -0.2197266 -0.9506836 0.2186279
vn -0.01815796 -0.9848633 0.1710205
vn 0.02738953 -0.9921875 0.1199951
vn -0.05831909 -0.9980469 0.02963257
vn 0.05764771 -0.9980469 0.01374054
vn 0.090271 -0.9931641 -0.07696533
vn 0.03607178 -0.9956055 -0.08880615
vn 0.07012939 -0.987793 -0.138916
vn 0.09570313 -0.9770508 -0.1904297
vn 0.08947754 -0.9765625 -0.1959229
vn -0.3295898 -0.1049194 -0.9384766
vn -0.3295898 -0.1049194 -0.9384766
vn -0.3588867 -0.09606934 -0.9282227
vn -0.345459 -0.1001587 -0.9331055
vn 0.9594727 -0.1835938 0.2148438
vn 0.9619141 -0.1875 0.1981201
vn 0.9619141 -0.1875 0.1981201
vn 0.956543 -0.1801758 0.2288818
vn 0.9345703 -0.1574707 0.3190918
vn 0.9165039 -0.1425781 0.3740234
vn 0.809082 -0.07672119 0.5830078
vn 0.7871094 -0.06567383 0.6132813
vn 0.6542969 -0.006759644 0.7563477
vn 0.6484375 -0.004322052 0.7612305
vn 0.5205078 0.043396 0.8525391
vn 0.519043 0.04403687 0.8535156
vn 0.1005249 0.1669922 0.980957
vn 0.114563 0.1634521 0.9799805
vn -0.1424561 0.2209473 0.9648438
vn -0.1167603 0.2158203 0.9692383
vn -0.404541 0.2651367 0.8754883
vn -0.3925781 0.2634277 0.8813477
vn -0.7924805 0.2902832 0.5361328
vn -0.8027344 0.2897949 0.5209961
vn -0.9267578 0.2685547 0.2626953
vn -0.9350586 0.2651367 0.2349854
g pCube14_0
f 3/3/3 2/2/2 1/1/1
f 4/4/4 3/3/3 1/1/1
f 5/5/5 3/3/3 4/4/4
f 6/6/6 5/5/5 4/4/4
f 7/7/7 5/5/5 6/6/6
f 8/8/8 7/7/7 6/6/6
f 9/9/9 7/7/7 8/8/8
f 10/10/10 9/9/9 8/8/8
f 11/11/11 9/9/9 10/10/10
f 12/12/12 11/11/11 10/10/10
f 13/13/13 11/11/11 12/12/12
f 14/14/14 13/13/13 12/12/12
f 17/17/17 16/16/16 15/15/15
f 16/16/16 18/18/18 15/15/15
f 18/18/18 19/19/19 15/15/15
f 16/16/16 20/20/20 18/18/18
f 18/18/18 21/21/21 19/19/19
f 20/20/20 21/21/21 18/18/18
f 20/20/20 16/16/16 22/22/22
f 16/16/16 23/23/23 22/22/22
f 24/24/24 20/20/20 22/22/22
f 25/25/25 24/24/24 22/22/22
f 26/26/26 20/20/20 24/24/24
f 20/20/20 26/26/26 21/21/21
f 27/27/27 24/24/24 25/25/25
f 27/27/27 26/26/26 24/24/24
f 28/28/28 27/27/27 25/25/25
f 29/29/29 27/27/27 28/28/28
f 30/30/30 29/29/29 28/28/28
f 31/31/31 26/26/26 27/27/27
f 29/29/29 31/31/31 27/27/27
f 32/32/32 29/29/29 30/30/30
f 33/33/33 32/32/32 30/30/30
f 26/26/26 34/34/34 21/21/21
f 26/26/26 31/31/31 34/34/34
f 35/35/35 31/31/31 29/29/29
f 32/32/32 35/35/35 29/29/29
f 36/36/36 32/32/32 33/33/33
f 37/37/37 36/36/36 33/33/33
f 38/38/38 36/36/36 37/37/37
f 36/36/36 39/39/39 32/32/32
f 39/39/39 35/35/35 32/32/32
f 38/38/38 40/40/40 36/36/36
f 40/40/40 39/39/39 36/36/36
f 38/38/38 41/41/41 40/40/40
f 40/40/40 41/41/41 42/42/42
f 31/31/31 35/35/35 43/43/43
f 31/31/31 43/43/43 34/34/34
f 35/35/35 39/39/39 44/44/44
f 35/35/35 44/44/44 43/43/43
f 39/39/39 40/40/40 45/45/45
f 40/40/40 42/42/42 45/45/45
f 39/39/39 45/45/45 44/44/44
f 42/42/42 46/46/46 45/45/45
f 42/42/42 47/47/47 46/46/46
f 46/46/46 48/48/48 45/45/45
f 45/45/45 48/48/48 44/44/44
f 46/46/46 49/49/49 48/48/48
f 48/48/48 50/50/50 44/44/44
f 48/48/48 49/49/49 50/50/50
f 44/44/44 50/50/50 43/43/43
f 49/49/49 51/51/51 50/50/50
f 50/50/50 52/52/52 43/43/43
f 50/50/50 51/51/51 52/52/52
f 43/43/43 52/52/52 34/34/34
f 51/51/51 53/53/53 52/52/52
f 52/52/52 54/54/54 34/34/34
f 52/52/52 53/53/53 54/54/54
f 34/34/34 54/54/54 21/21/21
f 53/53/53 55/55/55 54/54/54
f 54/54/54 56/56/56 21/21/21
f 54/54/54 55/55/55 56/56/56
f 21/21/21 56/56/56 19/19/19
f 55/55/55 57/57/57 56/56/56
f 56/56/56 57/57/57 19/19/19
f 60/60/60 59/59/59 58/58/58
f 60/60/60 61/61/61 59/59/59
f 61/61/61 62/62/62 59/59/59
f 62/62/62 63/63/63 59/59/59
f 64/64/64 63/63/63 62/62/62
f 65/65/65 64/64/64 62/62/62
f 65/65/65 62/62/62 61/61/61
f 66/66/66 64/64/64 65/65/65
f 67/67/67 66/66/66 65/65/65
f 68/68/68 66/66/66 67/67/67
f 69/69/69 65/65/65 61/61/61
f 67/67/67 65/65/65 69/69/69
f 70/70/70 68/68/68 67/67/67
f 71/71/71 68/68/68 70/70/70
f 72/72/72 67/67/67 69/69/69
f 70/70/70 67/67/67 72/72/72
f 73/73/73 71/71/71 70/70/70
f 74/74/74 71/71/71 73/73/73
f 73/73/73 70/70/70 75/75/75
f 75/75/75 70/70/70 72/72/72
f 74/74/74 73/73/73 76/76/76
f 76/76/76 73/73/73 75/75/75
f 77/77/77 74/74/74 76/76/76
f 77/77/77 78/78/78 74/74/74
f 79/79/79 77/77/77 76/76/76
f 79/79/79 80/80/80 77/77/77
f 81/81/81 80/80/80 79/79/79
f 82/82/82 76/76/76 75/75/75
f 82/82/82 79/79/79 76/76/76
f 81/81/81 79/79/79 83/83/83
f 79/79/79 82/82/82 83/83/83
f 81/81/81 83/83/83 84/84/84
f 84/84/84 83/83/83 85/85/85
f 83/83/83 86/86/86 85/85/85
f 83/83/83 82/82/82 86/86/86
f 85/85/85 86/86/86 87/87/87
f 88/88/88 82/82/82 75/75/75
f 82/82/82 88/88/88 86/86/86
f 88/88/88 75/75/75 72/72/72
f 86/86/86 89/89/89 87/87/87
f 86/86/86 88/88/88 89/89/89
f 87/87/87 89/89/89 90/90/90
f 91/91/91 88/88/88 72/72/72
f 88/88/88 91/91/91 89/89/89
f 91/91/91 72/72/72 69/69/69
f 89/89/89 92/92/92 90/90/90
f 89/89/89 91/91/91 92/92/92
f 90/90/90 92/92/92 93/93/93
f 94/94/94 91/91/91 69/69/69
f 91/91/91 94/94/94 92/92/92
f 94/94/94 69/69/69 61/61/61
f 92/92/92 95/95/95 93/93/93
f 92/92/92 94/94/94 95/95/95
f 93/93/93 95/95/95 96/96/96
f 97/97/97 94/94/94 61/61/61
f 94/94/94 97/97/97 95/95/95
f 95/95/95 97/97/97 96/96/96
f 97/97/97 61/61/61 60/60/60
f 97/97/97 98/98/98 96/96/96
f 98/98/98 97/97/97 60/60/60
f 98/98/98 99/99/99 96/96/96
f 98/98/98 60/60/60 100/100/100
f 99/99/99 98/98/98 100/100/100
f 103/103/103 102/102/102 101/101/101
f 104/104/104 103/103/103 101/101/101
f 107/107/107 106/106/106 105/105/105
f 106/106/106 108/108/108 105/105/105
f 105/105/105 108/108/108 109/109/109
f 108/108/108 110/110/110 109/109/109
f 109/109/109 110/110/110 111/111/111
f 110/110/110 112/112/112 111/111/111
f 111/111/111 112/112/112 113/113/113
f 112/112/112 114/114/114 113/113/113
f 113/113/113 114/114/114 115/115/115
f 114/114/114 116/116/116 115/115/115
f 115/115/115 116/116/116 117/117/117
f 116/116/116 118/118/118 117/117/117
f 117/117/117 118/118/118 119/119/119
f 118/118/118 120/120/120 119/119/119
f 119/119/119 120/120/120 121/121/121
f 120/120/120 122/122/122 121/121/121
f 123/123/123 121/121/121 122/122/122
f 124/124/124 123/123/123 122/122/122
f 123/123/123 124/124/124 125/125/125
f 124/124/124 126/126/126 125/125/125
