g pCube13
v -0.004450111 0.02127678 0.03539472
v -0.004477717 0.02047136 0.03563865
v -0.01412186 0.02042758 0.02797343
v -0.01408683 0.02144985 0.02766384
v -0.01647408 0.0192807 0.02375397
v -0.01643544 0.0204078 0.02341263
v -0.01947073 0.01650373 0.01533681
v -0.01944652 0.01720989 0.01512295
v -0.02123831 0.01178764 0.003382864
v -0.02121696 0.01241069 0.003194174
v -0.01858321 0.002857495 -0.009622416
v -0.01855692 0.003624447 -0.009854686
v -0.0105693 -0.01250729 -0.02392718
v -0.01054218 -0.01171611 -0.0241668
v 0.001559625 0.02113847 0.03764649
v 0.004409263 0.02153946 0.034762
v 0.003803103 0.02100451 0.03754653
v 0.0007632638 0.02175717 0.03492442
v -0.004450111 0.02127678 0.03539472
v 0.004433506 0.02222196 0.03007671
v 0.000388712 0.02246347 0.0302569
v 0.009568463 0.02043973 0.03477023
v 0.003803103 0.02100451 0.03754653
v 0.00944306 0.02147095 0.02863174
v 0.01843618 0.01929699 0.02627843
v 0.004385688 0.02243598 0.02538448
v 0.009375866 0.0215467 0.02412548
v 0.02028142 0.0178654 0.02188222
v 0.009169459 0.02030713 0.01605646
v 0.02224202 0.01488443 0.01321657
v 0.003988303 0.02150911 0.01745791
v 0.008655122 0.01408602 0.003935813
v 0.02248118 0.00995728 0.001200667
v 4.037104E-05 0.02269544 0.02557806
v 0.003159586 0.01576809 0.005010955
v 0.008089197 0.005999768 -0.007510134
v 0.01784907 0.001450657 -0.01147651
v 0.007183988 -0.01277454 -0.02495645
v 0.002364534 0.008617993 -0.00516942
v 0.0005948631 -0.01066485 -0.02421838
v -0.002909974 -0.02774125 -0.03557658
v -0.003750455 -0.01040539 -0.02402481
v -0.0003570146 0.02176858 0.01765149
v -0.001185731 0.01602755 0.005204528
v -0.001980783 0.008877453 -0.00497584
v -0.01054218 -0.01171611 -0.0241668
v -0.002909974 -0.02774125 -0.03557658
v -0.008094938 0.006968205 -0.006784387
v -0.01855692 0.003624447 -0.009854686
v -0.006870439 0.01501427 0.00462995
v -0.02121696 0.01241069 0.003194174
v -0.005713559 0.02119726 0.01672259
v -0.01944652 0.01720989 0.01512295
v -0.005085221 0.02241147 0.02477231
v -0.01643544 0.0204078 0.02341263
v -0.004760182 0.02232065 0.02926711
v -0.01408683 0.02144985 0.02766384
v 0.003751115 0.01948774 0.03800588
v 0.009540857 0.01963431 0.03501415
v 0.004357275 0.02002268 0.03522135
v 0.004381517 0.02070518 0.03053606
v 0.00932505 0.02022514 0.02903404
v 0.01841651 0.01872323 0.02645219
v 0.02026651 0.01743048 0.02201395
v 0.009251699 0.02026858 0.02453702
v 0.02220915 0.01392519 0.01350707
v 0.009041663 0.01901518 0.01647596
v 0.02245164 0.009095158 0.00146176
v 0.0043337 0.02091919 0.02584383
v 0.008528166 0.01281331 0.004345023
v 0.01782417 0.0007240108 -0.01125645
v 0.003936314 0.01999232 0.01791727
v 0.007974143 0.004779851 -0.007101206
v 0.00715687 -0.01356572 -0.02471684
v 0.003107598 0.01425129 0.005470305
v 0.002312546 0.007101224 -0.004710069
v 0.0005428754 -0.01218162 -0.02375901
v -0.00293065 -0.02834445 -0.0353939
v -0.003802443 -0.01192217 -0.02356546
v -0.00293065 -0.02834445 -0.0353939
v -0.0105693 -0.01250729 -0.02392718
v -0.002032771 0.007360677 -0.004516489
v -0.008134588 0.005733472 -0.006409395
v -0.01858321 0.002857495 -0.009622416
v -0.02123831 0.01178764 0.003382864
v -0.006912002 0.01371459 0.005024016
v -0.01947073 0.01650373 0.01533681
v -0.00123772 0.01451075 0.005663886
v -0.005755479 0.019887 0.01712002
v -0.01647408 0.0192807 0.02375397
v -0.0004090032 0.02025178 0.01811084
v -0.005126508 0.02112325 0.02516295
v -0.01412186 0.02042758 0.02797343
v -1.161756E-05 0.02117865 0.02603741
v -0.004800534 0.02106456 0.02964806
v -0.004477717 0.02047136 0.03563865
v 0.0003367234 0.0209467 0.03071626
v 0.0007112753 0.02024038 0.03538378
v 0.001507638 0.01962169 0.03810584
v 0.003751115 0.01948774 0.03800588
v -0.00293065 -0.02834445 -0.0353939
v -0.002909974 -0.02774125 -0.03557658
v -0.01054218 -0.01171611 -0.0241668
v -0.0105693 -0.01250729 -0.02392718
v 0.00715687 -0.01356572 -0.02471684
v -0.002909974 -0.02774125 -0.03557658
v -0.00293065 -0.02834445 -0.0353939
v 0.007183988 -0.01277454 -0.02495645
v 0.01782417 0.0007240108 -0.01125645
v 0.01784907 0.001450657 -0.01147651
v 0.02245164 0.009095158 0.00146176
v 0.02248118 0.00995728 0.001200667
v 0.02220915 0.01392519 0.01350707
v 0.02224202 0.01488443 0.01321657
v 0.02026651 0.01743048 0.02201395
v 0.02028142 0.0178654 0.02188222
v 0.01841651 0.01872323 0.02645219
v 0.01843618 0.01929699 0.02627843
v 0.009540857 0.01963431 0.03501415
v 0.009568463 0.02043973 0.03477023
v 0.003751115 0.01948774 0.03800588
v 0.003803103 0.02100451 0.03754653
v 0.001507638 0.01962169 0.03810584
v 0.001559625 0.02113847 0.03764649
v -0.004477717 0.02047136 0.03563865
v -0.004450111 0.02127678 0.03539472
vt 0.375 0.5
vt 0.375 0.75
vt 0.416748 0.75
vt 0.416748 0.5
vt 0.458252 0.75
vt 0.458252 0.5
vt 0.5 0.75
vt 0.5 0.5
vt 0.5415039 0.75
vt 0.5415039 0.5
vt 0.5834961 0.75
vt 0.5834961 0.5
vt 0.625 0.75
vt 0.625 0.5
vt 0.375 0.4138184
vt 0.3847656 0.3361816
vt 0.3818359 0.375
vt 0.3847656 0.4138184
vt 0.375 0.5
vt 0.416748 0.3583984
vt 0.416748 0.3916016
vt 0.375 0.25
vt 0.375 0.3361816
vt 0.416748 0.3195801
vt 0.416748 0.25
vt 0.458252 0.3601074
vt 0.458252 0.3256836
vt 0.458252 0.25
vt 0.5 0.3303223
vt 0.5 0.25
vt 0.5 0.3620605
vt 0.5415039 0.3305664
vt 0.5415039 0.25
vt 0.458252 0.3898926
vt 0.5415039 0.3625488
vt 0.5834961 0.3193359
vt 0.5834961 0.25
vt 0.625 0.25
vt 0.5834961 0.3601074
vt 0.6142578 0.3442383
vt 0.6235352 0.3596191
vt 0.6142578 0.4057617
vt 0.5 0.3879395
vt 0.5415039 0.3874512
vt 0.5834961 0.3898926
vt 0.625 0.5
vt 0.625 0.4057617
vt 0.5834961 0.4304199
vt 0.5834961 0.5
vt 0.5415039 0.4194336
vt 0.5415039 0.5
vt 0.5 0.4196777
vt 0.5 0.5
vt 0.458252 0.4240723
vt 0.458252 0.5
vt 0.416748 0.4301758
vt 0.416748 0.5
vt 0.375 0.9135742
vt 0.375 1
vt 0.3847656 0.9135742
vt 0.416748 0.8916016
vt 0.416748 0.9296875
vt 0.416748 1
vt 0.458252 1
vt 0.458252 0.9238281
vt 0.5 1
vt 0.5 0.9189453
vt 0.5415039 1
vt 0.458252 0.8896484
vt 0.5415039 0.9189453
vt 0.5834961 1
vt 0.5 0.8881836
vt 0.5834961 0.9301758
vt 0.625 1
vt 0.5415039 0.887207
vt 0.5834961 0.8901367
vt 0.6142578 0.9057617
vt 0.625 0.9057617
vt 0.6142578 0.8442383
vt 0.6235352 0.8598633
vt 0.625 0.75
vt 0.5834961 0.8598633
vt 0.5834961 0.8193359
vt 0.5834961 0.75
vt 0.5415039 0.75
vt 0.5415039 0.8305664
vt 0.5 0.75
vt 0.5415039 0.862793
vt 0.5 0.8305664
vt 0.458252 0.75
vt 0.5 0.8618164
vt 0.458252 0.8256836
vt 0.416748 0.75
vt 0.458252 0.8603516
vt 0.416748 0.8198242
vt 0.375 0.75
vt 0.416748 0.8583984
vt 0.3847656 0.8364258
vt 0.375 0.8364258
vt 0.3818359 0.875
vt 0.75 0
vt 0.75 0.25
vt 0.875 0.25
vt 0.875 0
vt 0.625 0
vt 0.75 0.25
vt 0.75 0
vt 0.625 0.25
vt 0.5834961 0
vt 0.5834961 0.25
vt 0.5415039 0
vt 0.5415039 0.25
vt 0.5 0
vt 0.5 0.25
vt 0.458252 0
vt 0.458252 0.25
vt 0.416748 0
vt 0.416748 0.25
vt 0.375 0
vt 0.375 0.25
vt 0.2888184 0
vt 0.2888184 0.25
vt 0.2113037 0
vt 0.2113037 0.25
vt 0.125 0
vt 0.125 0.25
vn -0.5102539 0.2651367 0.8178711
vn -0.4848633 0.2685547 0.8320313
vn -0.7006836 0.2287598 0.6757813
vn -0.7163086 0.2247314 0.6606445
vn -0.9248047 0.1390381 0.3544922
vn -0.9238281 0.1395264 0.3562012
vn -0.9741211 0.09558105 0.2053223
vn -0.972168 0.09802246 0.213623
vn -0.9975586 0.0138855 -0.06707764
vn -0.9990234 0.02516174 -0.02999878
vn -0.9360352 -0.07220459 -0.3444824
vn -0.9550781 -0.05541992 -0.2910156
vn -0.8964844 -0.1001587 -0.4321289
vn -0.902832 -0.09606934 -0.4194336
vn 0.02441406 0.9765625 0.2147217
vn 0.1448975 0.9755859 0.1654053
vn 0.1110229 0.9711914 0.2106934
vn -0.01280975 0.9848633 0.1728516
vn -0.08605957 0.9814453 0.1706543
vn 0.1358643 0.9858398 0.1002808
vn -0.008491516 0.9941406 0.1069336
vn 0.2235107 0.9619141 0.15625
vn 0.1110229 0.9711914 0.2106934
vn 0.2318115 0.9716797 0.04937744
vn 0.2631836 0.9628906 -0.06149292
vn 0.116394 0.9912109 -0.06445313
vn 0.2521973 0.9575195 -0.1403809
vn 0.3024902 0.9350586 -0.1850586
vn 0.2294922 0.9150391 -0.331543
vn 0.2491455 0.8984375 -0.3620605
vn 0.1012573 0.9443359 -0.3129883
vn 0.1730957 0.8510742 -0.4956055
vn 0.1744385 0.8427734 -0.5087891
vn -0.003211975 0.9980469 -0.0592041
vn 0.09039307 0.8618164 -0.4990234
vn 0.09832764 0.7475586 -0.6567383
vn 0.08050537 0.7524414 -0.6538086
vn 0.07226563 0.6494141 -0.7568359
vn 0.06567383 0.7441406 -0.6645508
vn 0.05322266 0.6577148 -0.7514648
vn -0.004138947 0.5483398 -0.8364258
vn -0.04122925 0.6625977 -0.7480469
vn -0.01603699 0.9511719 -0.3081055
vn -0.03155518 0.8686523 -0.4943848
vn -0.03579712 0.7495117 -0.6606445
vn -0.06167603 0.6572266 -0.7514648
vn -0.004138947 0.5483398 -0.8364258
vn -0.06982422 0.7578125 -0.6489258
vn -0.05264282 0.7612305 -0.6464844
vn -0.121521 0.8676758 -0.4821777
vn -0.1274414 0.8603516 -0.4931641
vn -0.1488037 0.9335938 -0.3251953
vn -0.1782227 0.9194336 -0.3510742
vn -0.1376953 0.980957 -0.1357422
vn -0.1915283 0.9628906 -0.1903076
vn -0.09655762 0.9931641 0.06738281
vn -0.1271973 0.9912109 -0.03683472
vn -0.0715332 -0.9765625 -0.203125
vn -0.1317139 -0.9848633 -0.1113892
vn -0.08496094 -0.9853516 -0.1470947
vn -0.09057617 -0.9921875 -0.08666992
vn -0.15625 -0.9873047 -0.02220154
vn -0.1862793 -0.9794922 0.07647705
vn -0.2420654 -0.9448242 0.2208252
vn -0.1945801 -0.9677734 0.15979
vn -0.2137451 -0.9038086 0.3706055
vn -0.1882324 -0.9204102 0.3430176
vn -0.1434326 -0.8520508 0.503418
vn -0.0914917 -0.9936523 0.06469727
vn -0.1400146 -0.8588867 0.4924316
vn -0.04504395 -0.7641602 0.6435547
vn -0.07843018 -0.9467773 0.3125
vn -0.050354 -0.7583008 0.6499023
vn -0.007076263 -0.6704102 0.7421875
vn -0.06707764 -0.8642578 0.4985352
vn -0.03442383 -0.7480469 0.6630859
vn -0.01030731 -0.6704102 0.7416992
vn 0.001271248 -0.5839844 0.8120117
vn -0.004211426 -0.6708984 0.7416992
vn 0.001271248 -0.5839844 0.8120117
vn -0.006763458 -0.6708984 0.7416992
vn 0.003614426 -0.75 0.6611328
vn 0.0165863 -0.7607422 0.6484375
vn 0.0118103 -0.7666016 0.6420898
vn 0.081604 -0.8642578 0.4960938
vn 0.07666016 -0.8706055 0.4855957
vn 0.1368408 -0.9267578 0.3503418
vn 0.008369446 -0.8686523 0.4956055
vn 0.1102905 -0.9399414 0.322998
vn 0.1651611 -0.9697266 0.1800537
vn -0.006534576 -0.9506836 0.3098145
vn 0.1055908 -0.9848633 0.1357422
vn 0.1030273 -0.9921875 0.06738281
vn -0.0214386 -0.9980469 0.0617981
vn 0.05105591 -0.9980469 -0.03010559
vn 0.01160431 -0.9931641 -0.118042
vn -0.03564453 -0.9956055 -0.08898926
vn -0.0458374 -0.987793 -0.1486816
vn -0.06323242 -0.9770508 -0.2036133
vn -0.0715332 -0.9765625 -0.203125
vn -0.8881836 -0.1049194 -0.4470215
vn -0.8881836 -0.1049194 -0.4470215
vn -0.902832 -0.09606934 -0.4194336
vn -0.8964844 -0.1001587 -0.4321289
vn 0.8398438 -0.1835938 -0.5112305
vn 0.8300781 -0.1873779 -0.5249023
vn 0.8300781 -0.1873779 -0.5249023
vn 0.8476563 -0.1801758 -0.4990234
vn 0.8945313 -0.1574707 -0.4187012
vn 0.9194336 -0.1425781 -0.3666992
vn 0.9868164 -0.07672119 -0.1416016
vn 0.9921875 -0.06567383 -0.1044312
vn 0.9960938 -0.006759644 0.09039307
vn 0.9951172 -0.004325867 0.09832764
vn 0.9667969 0.043396 0.2526855
vn 0.9658203 0.04403687 0.2546387
vn 0.7529297 0.1669922 0.6362305
vn 0.762207 0.1634521 0.6259766
vn 0.5668945 0.2209473 0.793457
vn 0.5888672 0.2158203 0.7792969
vn 0.3161621 0.2651367 0.9111328
vn 0.3288574 0.2634277 0.9067383
vn -0.1984863 0.2902832 0.9360352
vn -0.2166748 0.2897949 0.9321289
vn -0.4848633 0.2685547 0.8320313
vn -0.5102539 0.2651367 0.8178711
g pCube13_0
f 3/3/3 2/2/2 1/1/1
f 4/4/4 3/3/3 1/1/1
f 5/5/5 3/3/3 4/4/4
f 6/6/6 5/5/5 4/4/4
f 7/7/7 5/5/5 6/6/6
f 8/8/8 7/7/7 6/6/6
f 9/9/9 7/7/7 8/8/8
f 10/10/10 9/9/9 8/8/8
f 11/11/11 9/9/9 10/10/10
f 12/12/12 11/11/11 10/10/10
f 13/13/13 11/11/11 12/12/12
f 14/14/14 13/13/13 12/12/12
f 17/17/17 16/16/16 15/15/15
f 16/16/16 18/18/18 15/15/15
f 18/18/18 19/19/19 15/15/15
f 16/16/16 20/20/20 18/18/18
f 18/18/18 21/21/21 19/19/19
f 20/20/20 21/21/21 18/18/18
f 20/20/20 16/16/16 22/22/22
f 16/16/16 23/23/23 22/22/22
f 24/24/24 20/20/20 22/22/22
f 25/25/25 24/24/24 22/22/22
f 26/26/26 20/20/20 24/24/24
f 20/20/20 26/26/26 21/21/21
f 27/27/27 24/24/24 25/25/25
f 27/27/27 26/26/26 24/24/24
f 28/28/28 27/27/27 25/25/25
f 29/29/29 27/27/27 28/28/28
f 30/30/30 29/29/29 28/28/28
f 31/31/31 26/26/26 27/27/27
f 29/29/29 31/31/31 27/27/27
f 32/32/32 29/29/29 30/30/30
f 33/33/33 32/32/32 30/30/30
f 26/26/26 34/34/34 21/21/21
f 26/26/26 31/31/31 34/34/34
f 35/35/35 31/31/31 29/29/29
f 32/32/32 35/35/35 29/29/29
f 36/36/36 32/32/32 33/33/33
f 37/37/37 36/36/36 33/33/33
f 38/38/38 36/36/36 37/37/37
f 36/36/36 39/39/39 32/32/32
f 39/39/39 35/35/35 32/32/32
f 38/38/38 40/40/40 36/36/36
f 40/40/40 39/39/39 36/36/36
f 38/38/38 41/41/41 40/40/40
f 40/40/40 41/41/41 42/42/42
f 31/31/31 35/35/35 43/43/43
f 31/31/31 43/43/43 34/34/34
f 35/35/35 39/39/39 44/44/44
f 35/35/35 44/44/44 43/43/43
f 39/39/39 40/40/40 45/45/45
f 40/40/40 42/42/42 45/45/45
f 39/39/39 45/45/45 44/44/44
f 42/42/42 46/46/46 45/45/45
f 42/42/42 47/47/47 46/46/46
f 46/46/46 48/48/48 45/45/45
f 45/45/45 48/48/48 44/44/44
f 46/46/46 49/49/49 48/48/48
f 48/48/48 50/50/50 44/44/44
f 48/48/48 49/49/49 50/50/50
f 44/44/44 50/50/50 43/43/43
f 49/49/49 51/51/51 50/50/50
f 50/50/50 52/52/52 43/43/43
f 50/50/50 51/51/51 52/52/52
f 43/43/43 52/52/52 34/34/34
f 51/51/51 53/53/53 52/52/52
f 52/52/52 54/54/54 34/34/34
f 52/52/52 53/53/53 54/54/54
f 34/34/34 54/54/54 21/21/21
f 53/53/53 55/55/55 54/54/54
f 54/54/54 56/56/56 21/21/21
f 54/54/54 55/55/55 56/56/56
f 21/21/21 56/56/56 19/19/19
f 55/55/55 57/57/57 56/56/56
f 56/56/56 57/57/57 19/19/19
f 60/60/60 59/59/59 58/58/58
f 60/60/60 61/61/61 59/59/59
f 61/61/61 62/62/62 59/59/59
f 62/62/62 63/63/63 59/59/59
f 64/64/64 63/63/63 62/62/62
f 65/65/65 64/64/64 62/62/62
f 65/65/65 62/62/62 61/61/61
f 66/66/66 64/64/64 65/65/65
f 67/67/67 66/66/66 65/65/65
f 68/68/68 66/66/66 67/67/67
f 69/69/69 65/65/65 61/61/61
f 67/67/67 65/65/65 69/69/69
f 70/70/70 68/68/68 67/67/67
f 71/71/71 68/68/68 70/70/70
f 72/72/72 67/67/67 69/69/69
f 70/70/70 67/67/67 72/72/72
f 73/73/73 71/71/71 70/70/70
f 74/74/74 71/71/71 73/73/73
f 73/73/73 70/70/70 75/75/75
f 75/75/75 70/70/70 72/72/72
f 74/74/74 73/73/73 76/76/76
f 76/76/76 73/73/73 75/75/75
f 77/77/77 74/74/74 76/76/76
f 77/77/77 78/78/78 74/74/74
f 79/79/79 77/77/77 76/76/76
f 79/79/79 80/80/80 77/77/77
f 81/81/81 80/80/80 79/79/79
f 82/82/82 76/76/76 75/75/75
f 82/82/82 79/79/79 76/76/76
f 81/81/81 79/79/79 83/83/83
f 79/79/79 82/82/82 83/83/83
f 81/81/81 83/83/83 84/84/84
f 84/84/84 83/83/83 85/85/85
f 83/83/83 86/86/86 85/85/85
f 83/83/83 82/82/82 86/86/86
f 85/85/85 86/86/86 87/87/87
f 88/88/88 82/82/82 75/75/75
f 82/82/82 88/88/88 86/86/86
f 88/88/88 75/75/75 72/72/72
f 86/86/86 89/89/89 87/87/87
f 86/86/86 88/88/88 89/89/89
f 87/87/87 89/89/89 90/90/90
f 91/91/91 88/88/88 72/72/72
f 88/88/88 91/91/91 89/89/89
f 91/91/91 72/72/72 69/69/69
f 89/89/89 92/92/92 90/90/90
f 89/89/89 91/91/91 92/92/92
f 90/90/90 92/92/92 93/93/93
f 94/94/94 91/91/91 69/69/69
f 91/91/91 94/94/94 92/92/92
f 94/94/94 69/69/69 61/61/61
f 92/92/92 95/95/95 93/93/93
f 92/92/92 94/94/94 95/95/95
f 93/93/93 95/95/95 96/96/96
f 97/97/97 94/94/94 61/61/61
f 94/94/94 97/97/97 95/95/95
f 95/95/95 97/97/97 96/96/96
f 97/97/97 61/61/61 60/60/60
f 97/97/97 98/98/98 96/96/96
f 98/98/98 97/97/97 60/60/60
f 98/98/98 99/99/99 96/96/96
f 98/98/98 60/60/60 100/100/100
f 99/99/99 98/98/98 100/100/100
f 103/103/103 102/102/102 101/101/101
f 104/104/104 103/103/103 101/101/101
f 107/107/107 106/106/106 105/105/105
f 106/106/106 108/108/108 105/105/105
f 105/105/105 108/108/108 109/109/109
f 108/108/108 110/110/110 109/109/109
f 109/109/109 110/110/110 111/111/111
f 110/110/110 112/112/112 111/111/111
f 111/111/111 112/112/112 113/113/113
f 112/112/112 114/114/114 113/113/113
f 113/113/113 114/114/114 115/115/115
f 114/114/114 116/116/116 115/115/115
f 115/115/115 116/116/116 117/117/117
f 116/116/116 118/118/118 117/117/117
f 117/117/117 118/118/118 119/119/119
f 118/118/118 120/120/120 119/119/119
f 119/119/119 120/120/120 121/121/121
f 120/120/120 122/122/122 121/121/121
f 123/123/123 121/121/121 122/122/122
f 124/124/124 123/123/123 122/122/122
f 123/123/123 124/124/124 125/125/125
f 124/124/124 126/126/126 125/125/125
