g pCube207
v -0.03291136 0.08131541 -0.1093162
v -0.03291136 0.09983977 -0.1093162
v 0.03188566 0.09983977 -0.1093162
v 0.03188566 0.08131541 -0.1093162
v -0.03291136 0.09983977 -0.1093162
v -0.03291136 0.09983977 -0.1343162
v 0.03188566 0.09983977 -0.1343162
v 0.03188566 0.09983977 -0.1093162
v -0.03291136 0.09983977 -0.1343162
v -0.03291136 0.08131541 -0.1343162
v 0.03188566 0.08131541 -0.1343162
v 0.03188566 0.09983977 -0.1343162
v -0.03291136 0.08131541 -0.1343162
v -0.03291136 0.08131541 -0.1093162
v 0.03188566 0.08131541 -0.1093162
v 0.03188566 0.08131541 -0.1343162
v 0.03188566 0.08131541 -0.1093162
v 0.03188566 0.09983977 -0.1093162
v 0.03188566 0.09983977 -0.1343162
v 0.03188566 0.08131541 -0.1343162
v -0.03291136 0.08131541 -0.1343162
v -0.03291136 0.09983977 -0.1343162
v -0.03291136 0.09983977 -0.1093162
v -0.03291136 0.08131541 -0.1093162
v -0.03291136 0.08131541 0.1343161
v -0.03291136 0.09983977 0.1343161
v 0.03188566 0.09983977 0.1343161
v 0.03188566 0.08131541 0.1343161
v -0.03291136 0.09983977 0.1343161
v -0.03291136 0.09983977 0.1093162
v 0.03188566 0.09983977 0.1093162
v 0.03188566 0.09983977 0.1343161
v -0.03291136 0.09983977 0.1093162
v -0.03291136 0.08131541 0.1093162
v 0.03188566 0.08131541 0.1093162
v 0.03188566 0.09983977 0.1093162
v -0.03291136 0.08131541 0.1093162
v -0.03291136 0.08131541 0.1343161
v 0.03188566 0.08131541 0.1343161
v 0.03188566 0.08131541 0.1093162
v 0.03188566 0.08131541 0.1343161
v 0.03188566 0.09983977 0.1343161
v 0.03188566 0.09983977 0.1093162
v 0.03188566 0.08131541 0.1093162
v -0.03291136 0.08131541 0.1093162
v -0.03291136 0.09983977 0.1093162
v -0.03291136 0.09983977 0.1343161
v -0.03291136 0.08131541 0.1343161
v -0.08543158 -0.0333364 -0.06227245
v -0.03263193 -0.0333364 -0.1006336
v 0.032632 -0.0333364 -0.1006336
v 0.08543156 -0.0333364 -0.06227254
v 0.1055992 -0.0333364 -0.0002028923
v -0.1055991 -0.0333364 -0.0002028923
v -0.08543134 -0.0333364 0.06186676
v 0.08543156 -0.0333364 0.06186676
v -0.03263188 -0.0333364 0.1002279
v 0.032632 -0.0333364 0.1002279
v 0.08914221 -0.1153773 -0.06496863
v 0.110186 -0.1153773 -0.0002028923
v 0.1153773 -0.11044 -0.0002028923
v 0.09334233 -0.11044 -0.0680201
v 0.09334233 -0.11044 -0.0680201
v 0.03565368 -0.11044 -0.1099332
v 0.0340494 -0.1153773 -0.1049959
v 0.08914221 -0.1153773 -0.06496863
v 0.03565368 -0.11044 -0.1099332
v -0.03565365 -0.11044 -0.1099332
v -0.03404937 -0.1153773 -0.1049959
v 0.0340494 -0.1153773 -0.1049959
v -0.03565365 -0.11044 -0.1099332
v -0.09334231 -0.11044 -0.06801986
v -0.08914214 -0.1153773 -0.06496839
v -0.03404937 -0.1153773 -0.1049959
v -0.09334231 -0.11044 -0.06801986
v -0.1153773 -0.11044 -0.0002028923
v -0.1101857 -0.1153773 -0.0002028923
v -0.08914214 -0.1153773 -0.06496839
v -0.1153773 -0.11044 -0.0002028923
v -0.09334207 -0.11044 0.06761426
v -0.08914209 -0.1153773 0.06456279
v -0.1101857 -0.1153773 -0.0002028923
v -0.09334207 -0.11044 0.06761426
v -0.0356536 -0.11044 0.1095276
v -0.03404913 -0.1153773 0.1045902
v -0.08914209 -0.1153773 0.06456279
v -0.0356536 -0.11044 0.1095276
v 0.03565368 -0.11044 0.1095276
v 0.0340494 -0.1153773 0.1045902
v -0.03404913 -0.1153773 0.1045902
v 0.03565368 -0.11044 0.1095276
v 0.09334233 -0.11044 0.06761426
v 0.08914221 -0.1153773 0.06456279
v 0.0340494 -0.1153773 0.1045902
v 0.09334233 -0.11044 0.06761426
v 0.1153773 -0.11044 -0.0002028923
v 0.110186 -0.1153773 -0.0002028923
v 0.08914221 -0.1153773 0.06456279
v 0.09334233 -0.11044 -0.0680201
v 0.09334233 0.1153773 -0.0680201
v 0.03565368 0.1153773 -0.1099332
v 0.03565368 -0.11044 -0.1099332
v 0.03565368 -0.11044 -0.1099332
v 0.03565368 0.1153773 -0.1099332
v -0.03565365 0.1153773 -0.1099332
v -0.03565365 -0.11044 -0.1099332
v -0.03565365 -0.11044 -0.1099332
v -0.03565365 0.1153773 -0.1099332
v -0.09334231 0.1153773 -0.06801986
v -0.09334231 -0.11044 -0.06801986
v -0.09334231 -0.11044 -0.06801986
v -0.09334231 0.1153773 -0.06801986
v -0.1153773 0.1153773 -0.0002028923
v -0.1153773 -0.11044 -0.0002028923
v -0.1153773 -0.11044 -0.0002028923
v -0.1153773 0.1153773 -0.0002028923
v -0.09334207 0.1153773 0.06761426
v -0.09334207 -0.11044 0.06761426
v -0.09334207 -0.11044 0.06761426
v -0.09334207 0.1153773 0.06761426
v -0.0356536 0.1153773 0.1095276
v -0.0356536 -0.11044 0.1095276
v -0.0356536 -0.11044 0.1095276
v -0.0356536 0.1153773 0.1095276
v 0.03565368 0.1153773 0.1095276
v 0.03565368 -0.11044 0.1095276
v 0.03565368 -0.11044 0.1095276
v 0.03565368 0.1153773 0.1095276
v 0.09334233 0.1153773 0.06761426
v 0.09334233 -0.11044 0.06761426
v 0.09334233 -0.11044 0.06761426
v 0.09334233 0.1153773 0.06761426
v 0.1153773 0.1153773 -0.0002028923
v 0.1153773 -0.11044 -0.0002028923
v 0.1153773 -0.11044 -0.0002028923
v 0.1153773 0.1153773 -0.0002028923
v 0.09334233 0.1153773 -0.0680201
v 0.09334233 -0.11044 -0.0680201
v 0.08914221 -0.1153773 -0.06496863
v 0.0340494 -0.1153773 -0.1049959
v -0.03404937 -0.1153773 -0.1049959
v -0.08914214 -0.1153773 -0.06496839
v 0.110186 -0.1153773 -0.0002028923
v -0.1101857 -0.1153773 -0.0002028923
v 0.08914221 -0.1153773 0.06456279
v -0.08914209 -0.1153773 0.06456279
v 0.0340494 -0.1153773 0.1045902
v -0.03404913 -0.1153773 0.1045902
v 0.08543156 0.1153773 -0.06227254
v 0.08543156 -0.0333364 -0.06227254
v 0.032632 -0.0333364 -0.1006336
v 0.032632 0.1153773 -0.1006336
v 0.032632 0.1153773 -0.1006336
v 0.032632 -0.0333364 -0.1006336
v -0.03263193 -0.0333364 -0.1006336
v -0.03263193 0.1153773 -0.1006336
v -0.03263193 0.1153773 -0.1006336
v -0.03263193 -0.0333364 -0.1006336
v -0.08543158 -0.0333364 -0.06227245
v -0.08543158 0.1153773 -0.06227245
v -0.08543158 0.1153773 -0.06227245
v -0.08543158 -0.0333364 -0.06227245
v -0.1055991 -0.0333364 -0.0002028923
v -0.1055991 0.1153773 -0.0002028923
v -0.1055991 0.1153773 -0.0002028923
v -0.1055991 -0.0333364 -0.0002028923
v -0.08543134 -0.0333364 0.06186676
v -0.08543134 0.1153773 0.06186676
v -0.08543134 0.1153773 0.06186676
v -0.08543134 -0.0333364 0.06186676
v -0.03263188 -0.0333364 0.1002279
v -0.03263188 0.1153773 0.1002279
v -0.03263188 0.1153773 0.1002279
v -0.03263188 -0.0333364 0.1002279
v 0.032632 -0.0333364 0.1002279
v 0.032632 0.1153773 0.1002279
v 0.032632 0.1153773 0.1002279
v 0.032632 -0.0333364 0.1002279
v 0.08543156 -0.0333364 0.06186676
v 0.08543156 0.1153773 0.06186676
v 0.08543156 0.1153773 0.06186676
v 0.08543156 -0.0333364 0.06186676
v 0.1055992 -0.0333364 -0.0002028923
v 0.1055992 0.1153773 -0.0002028923
v 0.1055992 0.1153773 -0.0002028923
v 0.1055992 -0.0333364 -0.0002028923
v 0.08543156 -0.0333364 -0.06227254
v 0.08543156 0.1153773 -0.06227254
v 0.09334233 0.1153773 -0.0680201
v 0.08543156 0.1153773 -0.06227254
v 0.032632 0.1153773 -0.1006336
v 0.03565368 0.1153773 -0.1099332
v 0.1153773 0.1153773 -0.0002028923
v -0.03263193 0.1153773 -0.1006336
v 0.1055992 0.1153773 -0.0002028923
v -0.03565365 0.1153773 -0.1099332
v 0.09334233 0.1153773 0.06761426
v -0.08543158 0.1153773 -0.06227245
v 0.08543156 0.1153773 0.06186676
v -0.09334231 0.1153773 -0.06801986
v 0.03565368 0.1153773 0.1095276
v -0.1055991 0.1153773 -0.0002028923
v 0.032632 0.1153773 0.1002279
v -0.1153773 0.1153773 -0.0002028923
v -0.0356536 0.1153773 0.1095276
v -0.08543134 0.1153773 0.06186676
v -0.03263188 0.1153773 0.1002279
v -0.09334207 0.1153773 0.06761426
vt 0.3105469 0.03427124
vt 0.3105469 0.06713867
vt 0.3435059 0.06713867
vt 0.3435059 0.03427124
vt 0.3105469 0.06713867
vt 0.3105469 0.09997559
vt 0.3435059 0.09997559
vt 0.3435059 0.06713867
vt 0.3105469 0.09997559
vt 0.3105469 0.1328125
vt 0.3435059 0.1328125
vt 0.3435059 0.09997559
vt 0.3105469 0.1328125
vt 0.3105469 0.1657715
vt 0.3435059 0.1657715
vt 0.3435059 0.1328125
vt 0.3435059 0.03427124
vt 0.3435059 0.06713867
vt 0.3762207 0.06713867
vt 0.3762207 0.03427124
vt 0.277832 0.03427124
vt 0.277832 0.06713867
vt 0.3105469 0.06713867
vt 0.3105469 0.03427124
vt 0.298584 0.0322876
vt 0.298584 0.06512451
vt 0.331543 0.06512451
vt 0.331543 0.0322876
vt 0.298584 0.06512451
vt 0.298584 0.09802246
vt 0.331543 0.09802246
vt 0.331543 0.06512451
vt 0.298584 0.09802246
vt 0.298584 0.1308594
vt 0.331543 0.1308594
vt 0.331543 0.09802246
vt 0.298584 0.1308594
vt 0.298584 0.1636963
vt 0.331543 0.1636963
vt 0.331543 0.1308594
vt 0.331543 0.0322876
vt 0.331543 0.06512451
vt 0.3642578 0.06512451
vt 0.3642578 0.0322876
vt 0.265625 0.0322876
vt 0.265625 0.06512451
vt 0.298584 0.06512451
vt 0.298584 0.0322876
vt 0.09136963 0.1572266
vt 0.1016846 0.1646729
vt 0.1143188 0.1646729
vt 0.1246338 0.1572266
vt 0.12854 0.1451416
vt 0.08746338 0.1451416
vt 0.09136963 0.1330566
vt 0.1246338 0.1330566
vt 0.1016846 0.1256104
vt 0.1143188 0.1256104
vt 0.1243286 0.07537842
vt 0.1212158 0.07537842
vt 0.1211548 0.07641602
vt 0.1244507 0.07641602
vt 0.09155273 0.07641602
vt 0.09484863 0.07641602
vt 0.0947876 0.07537842
vt 0.0916748 0.07537842
vt 0.09484863 0.07641602
vt 0.09814453 0.07641602
vt 0.0980835 0.07537842
vt 0.09490967 0.07537842
vt 0.09814453 0.07641602
vt 0.1014404 0.07641602
vt 0.1013794 0.07537842
vt 0.09820557 0.07537842
vt 0.1014404 0.07641602
vt 0.1047363 0.07641602
vt 0.1046143 0.07537842
vt 0.1015015 0.07537842
vt 0.1047363 0.07641602
vt 0.1079712 0.07641602
vt 0.1079102 0.07537842
vt 0.1047974 0.07537842
vt 0.1079712 0.07641602
vt 0.1112671 0.07641602
vt 0.1112061 0.07537842
vt 0.1080933 0.07537842
vt 0.1112671 0.07641602
vt 0.114563 0.07641602
vt 0.114502 0.07537842
vt 0.1113892 0.07537842
vt 0.114563 0.07641602
vt 0.1178589 0.07641602
vt 0.1177979 0.07537842
vt 0.114624 0.07537842
vt 0.1178589 0.07641602
vt 0.1211548 0.07641602
vt 0.1210938 0.07537842
vt 0.1179199 0.07537842
vt 0.09155273 0.07641602
vt 0.09155273 0.1247559
vt 0.09484863 0.1247559
vt 0.09484863 0.07641602
vt 0.09484863 0.07641602
vt 0.09484863 0.1247559
vt 0.09814453 0.1247559
vt 0.09814453 0.07641602
vt 0.09814453 0.07641602
vt 0.09814453 0.1247559
vt 0.1014404 0.1247559
vt 0.1014404 0.07641602
vt 0.1014404 0.07641602
vt 0.1014404 0.1247559
vt 0.1047363 0.1247559
vt 0.1047363 0.07641602
vt 0.1047363 0.07641602
vt 0.1047363 0.1247559
vt 0.1079712 0.1247559
vt 0.1079712 0.07641602
vt 0.1079712 0.07641602
vt 0.1079712 0.1247559
vt 0.1112671 0.1247559
vt 0.1112671 0.07641602
vt 0.1112671 0.07641602
vt 0.1112671 0.1247559
vt 0.114563 0.1247559
vt 0.114563 0.07641602
vt 0.114563 0.07641602
vt 0.114563 0.1247559
vt 0.1178589 0.1247559
vt 0.1178589 0.07641602
vt 0.1178589 0.07641602
vt 0.1178589 0.1247559
vt 0.1211548 0.1247559
vt 0.1211548 0.07641602
vt 0.1211548 0.07641602
vt 0.1211548 0.1247559
vt 0.1244507 0.1247559
vt 0.1244507 0.07641602
vt 0.1238403 0.04330444
vt 0.1140747 0.03616333
vt 0.1019287 0.03616333
vt 0.09216309 0.04330444
vt 0.1275635 0.05480957
vt 0.08837891 0.05480957
vt 0.1238403 0.06634521
vt 0.09216309 0.06634521
vt 0.1140747 0.07348633
vt 0.1019287 0.07348633
vt 0.1246338 0.1572266
vt 0.1246338 0.1572266
vt 0.1143188 0.1646729
vt 0.1143188 0.1646729
vt 0.1143188 0.1646729
vt 0.1143188 0.1646729
vt 0.1016846 0.1646729
vt 0.1016846 0.1646729
vt 0.1016846 0.1646729
vt 0.1016846 0.1646729
vt 0.09136963 0.1572266
vt 0.09136963 0.1572266
vt 0.09136963 0.1572266
vt 0.09136963 0.1572266
vt 0.08746338 0.1451416
vt 0.08746338 0.1451416
vt 0.08746338 0.1451416
vt 0.08746338 0.1451416
vt 0.09136963 0.1330566
vt 0.09136963 0.1330566
vt 0.09136963 0.1330566
vt 0.09136963 0.1330566
vt 0.1016846 0.1256104
vt 0.1016846 0.1256104
vt 0.1016846 0.1256104
vt 0.1016846 0.1256104
vt 0.1143188 0.1256104
vt 0.1143188 0.1256104
vt 0.1143188 0.1256104
vt 0.1143188 0.1256104
vt 0.1246338 0.1330566
vt 0.1246338 0.1330566
vt 0.1246338 0.1330566
vt 0.1246338 0.1330566
vt 0.12854 0.1451416
vt 0.12854 0.1451416
vt 0.12854 0.1451416
vt 0.12854 0.1451416
vt 0.1246338 0.1572266
vt 0.1246338 0.1572266
vt 0.1246338 0.1572266
vt 0.1246338 0.1572266
vt 0.1143188 0.1646729
vt 0.1143188 0.1646729
vt 0.12854 0.1451416
vt 0.1016846 0.1646729
vt 0.12854 0.1451416
vt 0.1016846 0.1646729
vt 0.1246338 0.1330566
vt 0.09136963 0.1572266
vt 0.1246338 0.1330566
vt 0.09136963 0.1572266
vt 0.1143188 0.1256104
vt 0.08746338 0.1451416
vt 0.1143188 0.1256104
vt 0.08746338 0.1451416
vt 0.1016846 0.1256104
vt 0.09136963 0.1330566
vt 0.1016846 0.1256104
vt 0.09136963 0.1330566
vn 0 0 1
vn 0 0 1
vn 0 0 1
vn 0 0 1
vn 0 1 0
vn 0 1 0
vn 0 1 0
vn 0 1 0
vn 0 0 -1
vn 0 0 -1
vn 0 0 -1
vn 0 0 -1
vn 0 -1 0
vn 0 -1 0
vn 0 -1 0
vn 0 -1 0
vn 1 0 0
vn 1 0 0
vn 1 0 0
vn 1 0 0
vn -1 0 0
vn -1 0 0
vn -1 0 0
vn -1 0 0
vn 0 0 1
vn 0 0 1
vn 0 0 1
vn 0 0 1
vn 0 1 0
vn 0 1 0
vn 0 1 0
vn 0 1 0
vn 0 0 -1
vn 0 0 -1
vn 0 0 -1
vn 0 0 -1
vn 0 -1 0
vn 0 -1 0
vn 0 -1 0
vn 0 -1 0
vn 1 0 0
vn 1 0 0
vn 1 0 0
vn 1 0 0
vn -1 0 0
vn -1 0 0
vn -1 0 0
vn -1 0 0
vn 0 1 0
vn 0 1 0
vn 0 1 0
vn 0 1 0
vn 0 1 0
vn 0 1 0
vn 0 1 0
vn 0 1 0
vn 0 1 0
vn 0 1 0
vn 0.5576172 -0.7246094 -0.4050293
vn 0.6889648 -0.7246094 1.192093E-06
vn 0.6889648 -0.7246094 1.192093E-06
vn 0.5576172 -0.7246094 -0.4050293
vn 0.5576172 -0.7246094 -0.4050293
vn 0.2130127 -0.7246094 -0.6552734
vn 0.2130127 -0.7246094 -0.6552734
vn 0.5576172 -0.7246094 -0.4050293
vn 0.2130127 -0.7246094 -0.6552734
vn -0.2130127 -0.7246094 -0.6552734
vn -0.2130127 -0.7246094 -0.6552734
vn 0.2130127 -0.7246094 -0.6552734
vn -0.2130127 -0.7246094 -0.6552734
vn -0.5576172 -0.7246094 -0.4050293
vn -0.5576172 -0.7246094 -0.4050293
vn -0.2130127 -0.7246094 -0.6552734
vn -0.5576172 -0.7246094 -0.4050293
vn -0.6889648 -0.7246094 1.072884E-06
vn -0.6889648 -0.7246094 1.251698E-06
vn -0.5576172 -0.7246094 -0.4050293
vn -0.6889648 -0.7246094 1.072884E-06
vn -0.5576172 -0.7246094 0.4050293
vn -0.5576172 -0.7246094 0.4050293
vn -0.6889648 -0.7246094 1.251698E-06
vn -0.5576172 -0.7246094 0.4050293
vn -0.2130127 -0.7246094 0.6552734
vn -0.2130127 -0.7246094 0.6552734
vn -0.5576172 -0.7246094 0.4050293
vn -0.2130127 -0.7246094 0.6552734
vn 0.2130127 -0.7246094 0.6552734
vn 0.2130127 -0.7246094 0.6552734
vn -0.2130127 -0.7246094 0.6552734
vn 0.2130127 -0.7246094 0.6552734
vn 0.5576172 -0.7246094 0.4050293
vn 0.5576172 -0.7246094 0.4050293
vn 0.2130127 -0.7246094 0.6552734
vn 0.5576172 -0.7246094 0.4050293
vn 0.6889648 -0.7246094 1.192093E-06
vn 0.6889648 -0.7246094 1.192093E-06
vn 0.5576172 -0.7246094 0.4050293
vn 0.5878906 0 -0.809082
vn 0.5878906 0 -0.809082
vn 0.5878906 0 -0.809082
vn 0.5878906 0 -0.809082
vn 0 0 -1
vn 0 0 -1
vn 0 0 -1
vn 0 0 -1
vn -0.5878906 0 -0.809082
vn -0.5878906 0 -0.809082
vn -0.5878906 0 -0.809082
vn -0.5878906 0 -0.809082
vn -0.9511719 0 -0.309082
vn -0.9511719 0 -0.309082
vn -0.9511719 0 -0.309082
vn -0.9511719 0 -0.309082
vn -0.9511719 0 0.309082
vn -0.9511719 0 0.309082
vn -0.9511719 0 0.309082
vn -0.9511719 0 0.309082
vn -0.5878906 0 0.809082
vn -0.5878906 0 0.809082
vn -0.5878906 0 0.809082
vn -0.5878906 0 0.809082
vn 0 0 1
vn 0 0 1
vn 0 0 1
vn 0 0 1
vn 0.5878906 0 0.809082
vn 0.5878906 0 0.809082
vn 0.5878906 0 0.809082
vn 0.5878906 0 0.809082
vn 0.9511719 0 0.309082
vn 0.9511719 0 0.309082
vn 0.9511719 0 0.309082
vn 0.9511719 0 0.309082
vn 0.9511719 0 -0.309082
vn 0.9511719 0 -0.309082
vn 0.9511719 0 -0.309082
vn 0.9511719 0 -0.309082
vn 0 -1 0
vn 0 -1 0
vn 0 -1 0
vn 0 -1 0
vn 0 -1 0
vn 0 -1 0
vn 0 -1 0
vn 0 -1 0
vn 0 -1 0
vn 0 -1 0
vn -0.5878906 0 0.809082
vn -0.5878906 0 0.809082
vn -0.5878906 0 0.809082
vn -0.5878906 0 0.809082
vn 0 0 1
vn 0 0 1
vn 0 0 1
vn 0 0 1
vn 0.5878906 0 0.809082
vn 0.5878906 0 0.809082
vn 0.5878906 0 0.809082
vn 0.5878906 0 0.809082
vn 0.9511719 0 0.309082
vn 0.9511719 0 0.309082
vn 0.9511719 0 0.309082
vn 0.9511719 0 0.309082
vn 0.9511719 0 -0.309082
vn 0.9511719 0 -0.309082
vn 0.9511719 0 -0.309082
vn 0.9511719 0 -0.309082
vn 0.5878906 0 -0.809082
vn 0.5878906 0 -0.809082
vn 0.5878906 0 -0.809082
vn 0.5878906 0 -0.809082
vn 0 0 -1
vn 0 0 -1
vn 0 0 -1
vn 0 0 -1
vn -0.5878906 0 -0.809082
vn -0.5878906 0 -0.809082
vn -0.5878906 0 -0.809082
vn -0.5878906 0 -0.809082
vn -0.9511719 0 -0.309082
vn -0.9511719 0 -0.309082
vn -0.9511719 0 -0.309082
vn -0.9511719 0 -0.309082
vn -0.9511719 0 0.309082
vn -0.9511719 0 0.309082
vn -0.9511719 0 0.309082
vn -0.9511719 0 0.309082
vn 0 1 -2.801418E-06
vn 0 1 -2.801418E-06
vn 0 1 -2.801418E-06
vn 0 1 -2.801418E-06
vn 0 1 9.536743E-07
vn 0 1 3.278255E-06
vn 0 1 9.536743E-07
vn 0 1 3.278255E-06
vn 0 1 3.278255E-06
vn 0 1 -6.079674E-06
vn 0 1 3.278255E-06
vn 0 1 -6.079674E-06
vn 0 1 8.940697E-06
vn 0 1 0
vn 0 1 8.940697E-06
vn 0 1 0
vn 0 1 -1.847744E-06
vn 0 1 -9.536743E-07
vn 0 1 -1.847744E-06
vn 0 1 -9.536743E-07
g pCube207_0
f 3/3/3 2/2/2 1/1/1
f 4/4/4 3/3/3 1/1/1
f 7/7/7 6/6/6 5/5/5
f 8/8/8 7/7/7 5/5/5
f 11/11/11 10/10/10 9/9/9
f 12/12/12 11/11/11 9/9/9
f 15/15/15 14/14/14 13/13/13
f 16/16/16 15/15/15 13/13/13
f 19/19/19 18/18/18 17/17/17
f 20/20/20 19/19/19 17/17/17
f 23/23/23 22/22/22 21/21/21
f 24/24/24 23/23/23 21/21/21
f 27/27/27 26/26/26 25/25/25
f 28/28/28 27/27/27 25/25/25
f 31/31/31 30/30/30 29/29/29
f 32/32/32 31/31/31 29/29/29
f 35/35/35 34/34/34 33/33/33
f 36/36/36 35/35/35 33/33/33
f 39/39/39 38/38/38 37/37/37
f 40/40/40 39/39/39 37/37/37
f 43/43/43 42/42/42 41/41/41
f 44/44/44 43/43/43 41/41/41
f 47/47/47 46/46/46 45/45/45
f 48/48/48 47/47/47 45/45/45
f 51/51/51 50/50/50 49/49/49
f 49/49/49 52/52/52 51/51/51
f 49/49/49 53/53/53 52/52/52
f 49/49/49 54/54/54 53/53/53
f 54/54/54 55/55/55 53/53/53
f 55/55/55 56/56/56 53/53/53
f 55/55/55 57/57/57 56/56/56
f 57/57/57 58/58/58 56/56/56
f 61/61/61 60/60/60 59/59/59
f 62/62/62 61/61/61 59/59/59
f 65/65/65 64/64/64 63/63/63
f 66/66/66 65/65/65 63/63/63
f 69/69/69 68/68/68 67/67/67
f 70/70/70 69/69/69 67/67/67
f 73/73/73 72/72/72 71/71/71
f 74/74/74 73/73/73 71/71/71
f 77/77/77 76/76/76 75/75/75
f 78/78/78 77/77/77 75/75/75
f 81/81/81 80/80/80 79/79/79
f 82/82/82 81/81/81 79/79/79
f 85/85/85 84/84/84 83/83/83
f 86/86/86 85/85/85 83/83/83
f 89/89/89 88/88/88 87/87/87
f 90/90/90 89/89/89 87/87/87
f 93/93/93 92/92/92 91/91/91
f 94/94/94 93/93/93 91/91/91
f 97/97/97 96/96/96 95/95/95
f 98/98/98 97/97/97 95/95/95
f 101/101/101 100/100/100 99/99/99
f 102/102/102 101/101/101 99/99/99
f 105/105/105 104/104/104 103/103/103
f 106/106/106 105/105/105 103/103/103
f 109/109/109 108/108/108 107/107/107
f 110/110/110 109/109/109 107/107/107
f 113/113/113 112/112/112 111/111/111
f 114/114/114 113/113/113 111/111/111
f 117/117/117 116/116/116 115/115/115
f 118/118/118 117/117/117 115/115/115
f 121/121/121 120/120/120 119/119/119
f 122/122/122 121/121/121 119/119/119
f 125/125/125 124/124/124 123/123/123
f 126/126/126 125/125/125 123/123/123
f 129/129/129 128/128/128 127/127/127
f 130/130/130 129/129/129 127/127/127
f 133/133/133 132/132/132 131/131/131
f 134/134/134 133/133/133 131/131/131
f 137/137/137 136/136/136 135/135/135
f 138/138/138 137/137/137 135/135/135
f 141/141/141 140/140/140 139/139/139
f 139/139/139 142/142/142 141/141/141
f 139/139/139 143/143/143 142/142/142
f 143/143/143 144/144/144 142/142/142
f 143/143/143 145/145/145 144/144/144
f 145/145/145 146/146/146 144/144/144
f 145/145/145 147/147/147 146/146/146
f 147/147/147 148/148/148 146/146/146
f 151/151/151 150/150/150 149/149/149
f 152/152/152 151/151/151 149/149/149
f 155/155/155 154/154/154 153/153/153
f 156/156/156 155/155/155 153/153/153
f 159/159/159 158/158/158 157/157/157
f 160/160/160 159/159/159 157/157/157
f 163/163/163 162/162/162 161/161/161
f 164/164/164 163/163/163 161/161/161
f 167/167/167 166/166/166 165/165/165
f 168/168/168 167/167/167 165/165/165
f 171/171/171 170/170/170 169/169/169
f 172/172/172 171/171/171 169/169/169
f 175/175/175 174/174/174 173/173/173
f 176/176/176 175/175/175 173/173/173
f 179/179/179 178/178/178 177/177/177
f 180/180/180 179/179/179 177/177/177
f 183/183/183 182/182/182 181/181/181
f 184/184/184 183/183/183 181/181/181
f 187/187/187 186/186/186 185/185/185
f 188/188/188 187/187/187 185/185/185
f 191/191/191 190/190/190 189/189/189
f 192/192/192 191/191/191 189/189/189
f 189/189/189 190/190/190 193/193/193
f 194/194/194 191/191/191 192/192/192
f 190/190/190 195/195/195 193/193/193
f 196/196/196 194/194/194 192/192/192
f 193/193/193 195/195/195 197/197/197
f 198/198/198 194/194/194 196/196/196
f 195/195/195 199/199/199 197/197/197
f 200/200/200 198/198/198 196/196/196
f 197/197/197 199/199/199 201/201/201
f 202/202/202 198/198/198 200/200/200
f 199/199/199 203/203/203 201/201/201
f 204/204/204 202/202/202 200/200/200
f 201/201/201 203/203/203 205/205/205
f 206/206/206 202/202/202 204/204/204
f 203/203/203 207/207/207 205/205/205
f 208/208/208 206/206/206 204/204/204
f 205/205/205 207/207/207 208/208/208
f 207/207/207 206/206/206 208/208/208
