g pCube14
v -0.04788157 -0.2473098 0.2735605
v -0.04788157 0.1759132 0.1810553
v 0.04788157 0.1759132 0.1810553
v 0.04788157 -0.2473098 0.2735605
v -0.04788157 0.1759132 0.1810553
v 0.04788157 0.1251925 -0.02737298
v 0.04788157 0.1759132 0.1810553
v -0.04788157 0.1251925 -0.02737298
v -0.04788157 0.08361831 -0.08712228
v 0.04788157 0.08361831 -0.08712228
v -0.04788157 0.01197311 -0.09997628
v -0.04788157 -0.3159676 -0.04055627
v 0.04788157 -0.3159676 -0.04055627
v 0.04788157 0.01197311 -0.09997628
v 0.04788157 0.08361831 -0.08712228
v -0.04788157 0.08361831 -0.08712228
v -0.04788157 -0.3159676 -0.04055627
v -0.04788157 -0.2473098 0.2735605
v 0.04788157 -0.2473098 0.2735605
v 0.04788157 -0.3159676 -0.04055627
v -0.04788157 -0.2473098 0.2735605
v -0.04788157 -0.3159676 -0.04055627
v -0.04788157 0.01197311 -0.09997628
v -0.04788157 0.1759132 0.1810553
v -0.04788157 0.08361831 -0.08712228
v -0.04788157 0.1251925 -0.02737298
v 0.04788157 0.01197311 -0.09997628
v 0.04788157 -0.3159676 -0.04055627
v 0.04788157 -0.2473098 0.2735605
v 0.04788157 0.1759132 0.1810553
v 0.04788157 0.08361831 -0.08712228
v 0.04788157 0.1251925 -0.02737298
vt 0.375 0
vt 0.375 0.25
vt 0.625 0.25
vt 0.625 0
vt 0.375 0.25
vt 0.625 0.375
vt 0.625 0.25
vt 0.375 0.375
vt 0.375 0.5
vt 0.625 0.5
vt 0.375 0.5927734
vt 0.375 0.75
vt 0.625 0.75
vt 0.625 0.5927734
vt 0.625 0.5
vt 0.375 0.5
vt 0.375 0.75
vt 0.375 1
vt 0.625 1
vt 0.625 0.75
vt 0.375 0
vt 0.125 0
vt 0.125 0.1572266
vt 0.375 0.25
vt 0.125 0.25
vt 0.25 0.25
vt 0.875 0.1572266
vt 0.875 0
vt 0.625 0
vt 0.625 0.25
vt 0.875 0.25
vt 0.75 0.25
vn 0 0.213501 0.9770508
vn 0 0.213501 0.9770508
vn 0 0.213501 0.9770508
vn 0 0.213501 0.9770508
vn 0 0.9716797 -0.2364502
vn 0 0.9458008 -0.3254395
vn 0 0.9716797 -0.2364502
vn 0 0.9458008 -0.3254395
vn 0 0.8208008 -0.5712891
vn 0 0.8208008 -0.5712891
vn 0 -0.1157227 -0.9931641
vn 0 -0.1783447 -0.9838867
vn 0 -0.1783447 -0.9838867
vn 0 -0.1157227 -0.9931641
vn 0 0.1766357 -0.984375
vn 0 0.1766357 -0.984375
vn 0 -0.9770508 0.213501
vn 0 -0.9770508 0.213501
vn 0 -0.9770508 0.213501
vn 0 -0.9770508 0.213501
vn -1 0 0
vn -1 0 0
vn -1 0 0
vn -1 0 0
vn -1 0 0
vn -1 0 0
vn 1 0 0
vn 1 0 0
vn 1 0 0
vn 1 0 0
vn 1 0 0
vn 1 0 0
g pCube14_0
f 3/3/3 2/2/2 1/1/1
f 4/4/4 3/3/3 1/1/1
f 7/7/7 6/6/6 5/5/5
f 6/6/6 8/8/8 5/5/5
f 8/8/8 6/6/6 9/9/9
f 6/6/6 10/10/10 9/9/9
f 13/13/13 12/12/12 11/11/11
f 14/14/14 13/13/13 11/11/11
f 15/15/15 14/14/14 11/11/11
f 16/16/16 15/15/15 11/11/11
f 19/19/19 18/18/18 17/17/17
f 20/20/20 19/19/19 17/17/17
f 23/23/23 22/22/22 21/21/21
f 21/21/21 24/24/24 23/23/23
f 24/24/24 25/25/25 23/23/23
f 24/24/24 26/26/26 25/25/25
f 29/29/29 28/28/28 27/27/27
f 27/27/27 30/30/30 29/29/29
f 27/27/27 31/31/31 30/30/30
f 31/31/31 32/32/32 30/30/30
