g pCube19
v 0.02172572 0.01680097 0.01974347
v 0.02206527 0.0162484 0.01957851
v 0.01435081 0.01125725 0.02345088
v 0.01391985 0.01195859 0.02366026
v 0.01091336 0.008991788 0.02335839
v 0.01043821 0.00976505 0.02358925
v 0.004489453 0.004857892 0.02194697
v 0.004191762 0.005342359 0.02209161
v -0.003987064 -0.0004859341 0.01812494
v -0.004249729 -5.848201E-05 0.01825256
v -0.01154666 -0.007002857 0.009875459
v -0.01186998 -0.00647668 0.01003255
v -0.01775063 -0.01587844 -0.004163431
v -0.01808417 -0.01533564 -0.004001378
v 0.02465158 0.01952729 0.01654775
v 0.02294964 0.02072959 0.01403533
v 0.02504707 0.02038751 0.01505673
v 0.02230692 0.01933159 0.01645847
v 0.02172572 0.01680097 0.01974347
v 0.01926643 0.0207238 0.01287857
v 0.0185534 0.0191729 0.01556675
v 0.02419696 0.02217614 0.0104267
v 0.02504707 0.02038751 0.01505673
v 0.01931297 0.02219734 0.009053688
v 0.01974311 0.02428731 0.001997501
v 0.01565677 0.02035675 0.01161824
v 0.01586796 0.02174441 0.007815992
v 0.01706014 0.02360839 -0.0008923607
v 0.00995548 0.019929 0.005222206
v 0.01147086 0.02143703 -0.00557749
v 0.009752301 0.01869424 0.009284796
v 0.001900052 0.01404797 8.588416E-05
v 0.003387028 0.0168014 -0.01075393
v 0.01489077 0.01869062 0.01450615
v 0.00129176 0.01298111 0.004403855
v -0.005283352 0.006904287 -0.005408489
v -0.005452221 0.007482534 -0.01416295
v -0.01495934 -0.008538875 -0.01578223
v -0.005163555 0.006531423 -0.0002851619
v -0.01612493 -0.009811061 -0.01073526
v -0.02203756 -0.02453328 -0.01716837
v -0.01689094 -0.01147719 -0.007847358
v 0.008986295 0.01702811 0.0121727
v 0.0005257536 0.01131498 0.007291762
v -0.005929561 0.004865293 0.002602746
v -0.01808417 -0.01533564 -0.004001378
v -0.02203756 -0.02453328 -0.01716837
v -0.008133128 0.0007007496 0.005349556
v -0.01186998 -0.00647668 0.01003255
v -0.0008351855 0.008096113 0.01040531
v -0.004249729 -5.848201E-05 0.01825256
v 0.007333936 0.01422374 0.01511486
v 0.004191762 0.005342359 0.02209161
v 0.01332044 0.01620076 0.01742803
v 0.01043821 0.00976505 0.02358925
v 0.01681087 0.0167528 0.01849447
v 0.01391985 0.01195859 0.02366026
v 0.02568648 0.01934691 0.01474607
v 0.0245365 0.02162357 0.01026173
v 0.02358907 0.01968897 0.01372466
v 0.01990585 0.01968319 0.0125679
v 0.01984219 0.02131289 0.008853421
v 0.01998498 0.02389367 0.001879984
v 0.01724349 0.02331 -0.0009814444
v 0.01640938 0.02083555 0.007612145
v 0.01187525 0.02077894 -0.005773967
v 0.01050497 0.01900971 0.005018614
v 0.00375047 0.01620992 -0.01093051
v 0.01629619 0.01931614 0.01130757
v 0.002438092 0.01314149 -0.0001151695
v -0.005145893 0.006984006 -0.01431178
v 0.01039173 0.01765363 0.008974122
v -0.004753666 0.006040029 -0.005600576
v -0.0146258 -0.009081676 -0.01594428
v 0.001931187 0.0119405 0.00409318
v -0.004524135 0.005490819 -0.0005958309
v -0.01548551 -0.01085166 -0.01104594
v -0.02178328 -0.0249471 -0.01729192
v -0.01625151 -0.01251779 -0.008158028
v -0.02178328 -0.0249471 -0.01729192
v -0.01775063 -0.01587844 -0.004163431
v -0.005290142 0.003824682 0.002292076
v -0.007611278 -0.0001450909 0.005095269
v -0.01154666 -0.007002857 0.009875459
v -0.003987064 -0.0004859341 0.01812494
v -0.0002863344 0.007205777 0.01013735
v 0.004489453 0.004857892 0.02194697
v 0.001165181 0.01027437 0.006981087
v 0.007887349 0.01332617 0.01484477
v 0.01091336 0.008991788 0.02335839
v 0.009625723 0.0159875 0.01186203
v 0.01386445 0.01531824 0.0171625
v 0.01435081 0.01125725 0.02345088
v 0.01553019 0.01765 0.01419548
v 0.01734134 0.01589226 0.01823564
v 0.02206527 0.0162484 0.01957851
v 0.01919282 0.01813229 0.01525608
v 0.02294634 0.01829098 0.0161478
v 0.025291 0.01848669 0.01623709
v 0.02568648 0.01934691 0.01474607
v -0.02178328 -0.0249471 -0.01729192
v -0.02203756 -0.02453328 -0.01716837
v -0.01808417 -0.01533564 -0.004001378
v -0.01775063 -0.01587844 -0.004163431
v -0.0146258 -0.009081676 -0.01594428
v -0.02203756 -0.02453328 -0.01716837
v -0.02178328 -0.0249471 -0.01729192
v -0.01495934 -0.008538875 -0.01578223
v -0.005145893 0.006984006 -0.01431178
v -0.005452221 0.007482534 -0.01416295
v 0.00375047 0.01620992 -0.01093051
v 0.003387028 0.0168014 -0.01075393
v 0.01187525 0.02077894 -0.005773967
v 0.01147086 0.02143703 -0.00557749
v 0.01724349 0.02331 -0.0009814444
v 0.01706014 0.02360839 -0.0008923607
v 0.01998498 0.02389367 0.001879984
v 0.01974311 0.02428731 0.001997501
v 0.0245365 0.02162357 0.01026173
v 0.02419696 0.02217614 0.0104267
v 0.02568648 0.01934691 0.01474607
v 0.02504707 0.02038751 0.01505673
v 0.025291 0.01848669 0.01623709
v 0.02465158 0.01952729 0.01654775
v 0.02206527 0.0162484 0.01957851
v 0.02172572 0.01680097 0.01974347
vt 0.375 0.5
vt 0.375 0.75
vt 0.416748 0.75
vt 0.416748 0.5
vt 0.458252 0.75
vt 0.458252 0.5
vt 0.5 0.75
vt 0.5 0.5
vt 0.5415039 0.75
vt 0.5415039 0.5
vt 0.5834961 0.75
vt 0.5834961 0.5
vt 0.625 0.75
vt 0.625 0.5
vt 0.375 0.4138184
vt 0.3847656 0.3361816
vt 0.3818359 0.375
vt 0.3847656 0.4138184
vt 0.375 0.5
vt 0.416748 0.3583984
vt 0.416748 0.3916016
vt 0.375 0.25
vt 0.375 0.3361816
vt 0.416748 0.3195801
vt 0.416748 0.25
vt 0.458252 0.3601074
vt 0.458252 0.3256836
vt 0.458252 0.25
vt 0.5 0.3303223
vt 0.5 0.25
vt 0.5 0.3620605
vt 0.5415039 0.3305664
vt 0.5415039 0.25
vt 0.458252 0.3898926
vt 0.5415039 0.3625488
vt 0.5834961 0.3193359
vt 0.5834961 0.25
vt 0.625 0.25
vt 0.5834961 0.3601074
vt 0.6142578 0.3442383
vt 0.6235352 0.3596191
vt 0.6142578 0.4057617
vt 0.5 0.3879395
vt 0.5415039 0.3874512
vt 0.5834961 0.3898926
vt 0.625 0.5
vt 0.625 0.4057617
vt 0.5834961 0.4304199
vt 0.5834961 0.5
vt 0.5415039 0.4194336
vt 0.5415039 0.5
vt 0.5 0.4196777
vt 0.5 0.5
vt 0.458252 0.4240723
vt 0.458252 0.5
vt 0.416748 0.4301758
vt 0.416748 0.5
vt 0.375 0.9135742
vt 0.375 1
vt 0.3847656 0.9135742
vt 0.416748 0.8916016
vt 0.416748 0.9296875
vt 0.416748 1
vt 0.458252 1
vt 0.458252 0.9238281
vt 0.5 1
vt 0.5 0.9189453
vt 0.5415039 1
vt 0.458252 0.8896484
vt 0.5415039 0.9189453
vt 0.5834961 1
vt 0.5 0.8881836
vt 0.5834961 0.9301758
vt 0.625 1
vt 0.5415039 0.887207
vt 0.5834961 0.8901367
vt 0.6142578 0.9057617
vt 0.625 0.9057617
vt 0.6142578 0.8442383
vt 0.6235352 0.8598633
vt 0.625 0.75
vt 0.5834961 0.8598633
vt 0.5834961 0.8193359
vt 0.5834961 0.75
vt 0.5415039 0.75
vt 0.5415039 0.8305664
vt 0.5 0.75
vt 0.5415039 0.862793
vt 0.5 0.8305664
vt 0.458252 0.75
vt 0.5 0.8618164
vt 0.458252 0.8256836
vt 0.416748 0.75
vt 0.458252 0.8603516
vt 0.416748 0.8198242
vt 0.375 0.75
vt 0.416748 0.8583984
vt 0.3847656 0.8364258
vt 0.375 0.8364258
vt 0.3818359 0.875
vt 0.75 0
vt 0.75 0.25
vt 0.875 0.25
vt 0.875 0
vt 0.625 0
vt 0.75 0.25
vt 0.75 0
vt 0.625 0.25
vt 0.5834961 0
vt 0.5834961 0.25
vt 0.5415039 0
vt 0.5415039 0.25
vt 0.5 0
vt 0.5 0.25
vt 0.458252 0
vt 0.458252 0.25
vt 0.416748 0
vt 0.416748 0.25
vt 0.375 0
vt 0.375 0.25
vt 0.2888184 0
vt 0.2888184 0.25
vt 0.2113037 0
vt 0.2113037 0.25
vt 0.125 0
vt 0.125 0.25
vn 0.527832 0.07171631 0.8461914
vn 0.5371094 0.07928467 0.8398438
vn 0.3457031 -0.06689453 0.9360352
vn 0.340332 -0.07073975 0.9375
vn 0.03137207 -0.2683105 0.9628906
vn 0.03607178 -0.2653809 0.9633789
vn -0.09985352 -0.3405762 0.9350586
vn -0.09063721 -0.3356934 0.9375
vn -0.324707 -0.4482422 0.8330078
vn -0.295166 -0.4353027 0.8505859
vn -0.5390625 -0.5273438 0.6567383
vn -0.5014648 -0.515625 0.6948242
vn -0.6044922 -0.5449219 0.5810547
vn -0.5957031 -0.5429688 0.5922852
vn -0.09069824 0.8500977 0.519043
vn -0.104248 0.9101563 0.401123
vn -0.07067871 0.8930664 0.4443359
vn -0.1403809 0.831543 0.5371094
vn -0.1593018 0.7890625 0.5932617
vn -0.1685791 0.9052734 0.3896484
vn -0.2008057 0.8339844 0.5141602
vn -0.08825684 0.9414063 0.3259277
vn -0.07067871 0.8930664 0.4443359
vn -0.1866455 0.9404297 0.2836914
vn -0.2766113 0.9370117 0.2130127
vn -0.3237305 0.8793945 0.348877
vn -0.3508301 0.9169922 0.1903076
vn -0.3720703 0.9204102 0.1211548
vn -0.5170898 0.847168 0.12146
vn -0.5336914 0.8413086 0.08612061
vn -0.5366211 0.8056641 0.2509766
vn -0.6606445 0.7460938 0.08203125
vn -0.6669922 0.7412109 0.07232666
vn -0.3486328 0.8208008 0.4521484
vn -0.6835938 0.7128906 0.1564941
vn -0.793457 0.6074219 0.04077148
vn -0.7949219 0.6040039 0.05911255
vn -0.8618164 0.5063477 -0.01831055
vn -0.8061523 0.5883789 0.06396484
vn -0.8647461 0.5019531 0.003707886
vn -0.9267578 0.3747559 -0.02597046
vn -0.8828125 0.4606934 0.08917236
vn -0.559082 0.75 0.3535156
vn -0.706543 0.6567383 0.2641602
vn -0.8251953 0.543457 0.1549072
vn -0.8911133 0.4428711 0.1000977
vn -0.9267578 0.3747559 -0.02597046
vn -0.8237305 0.5332031 0.1925049
vn -0.8217773 0.5424805 0.1743164
vn -0.7128906 0.6113281 0.3439941
vn -0.7255859 0.6005859 0.3364258
vn -0.597168 0.6655273 0.4477539
vn -0.6240234 0.6352539 0.454834
vn -0.4406738 0.7280273 0.5249023
vn -0.496582 0.6787109 0.5410156
vn -0.2561035 0.7807617 0.5698242
vn -0.3552246 0.7514648 0.5561523
vn 0.08917236 -0.875 -0.4760742
vn 0.1594238 -0.9038086 -0.3974609
vn 0.1391602 -0.8828125 -0.4487305
vn 0.1942139 -0.8837891 -0.425293
vn 0.2351074 -0.9086914 -0.3452148
vn 0.314209 -0.9067383 -0.2810059
vn 0.4216309 -0.8916016 -0.1657715
vn 0.3852539 -0.8916016 -0.2375488
vn 0.5512695 -0.8261719 -0.1165161
vn 0.5380859 -0.8286133 -0.1552734
vn 0.6713867 -0.7333984 -0.1052856
vn 0.3305664 -0.8681641 -0.3706055
vn 0.6674805 -0.7358398 -0.1155396
vn 0.7958984 -0.597168 -0.09899902
vn 0.5419922 -0.7954102 -0.2717285
vn 0.800293 -0.5927734 -0.08935547
vn 0.8686523 -0.4926758 -0.05328369
vn 0.6884766 -0.703125 -0.1776123
vn 0.8125 -0.5756836 -0.09381104
vn 0.8686523 -0.4926758 -0.04992676
vn 0.9121094 -0.4094238 0.005535126
vn 0.8696289 -0.4904785 -0.05575562
vn 0.9121094 -0.4094238 0.005535126
vn 0.8706055 -0.4890137 -0.05145264
vn 0.8193359 -0.559082 -0.12854
vn 0.8134766 -0.5625 -0.1488037
vn 0.8105469 -0.5673828 -0.1439209
vn 0.7197266 -0.6264648 -0.2995605
vn 0.7075195 -0.6362305 -0.307373
vn 0.6171875 -0.6625977 -0.4248047
vn 0.7026367 -0.668457 -0.2442627
vn 0.5888672 -0.6899414 -0.4204102
vn 0.4838867 -0.6987305 -0.5268555
vn 0.5556641 -0.7612305 -0.3344727
vn 0.4350586 -0.7480469 -0.5009766
vn 0.3771973 -0.7617188 -0.5268555
vn 0.3452148 -0.8334961 -0.4311523
vn 0.2800293 -0.8051758 -0.5229492
vn 0.19104 -0.8325195 -0.5195313
vn 0.2064209 -0.8569336 -0.4726563
vn 0.1483154 -0.8632813 -0.4824219
vn 0.09106445 -0.8706055 -0.4831543
vn 0.08917236 -0.875 -0.4760742
vn -0.6152344 -0.5473633 0.5673828
vn -0.6152344 -0.5473633 0.5673828
vn -0.5957031 -0.5429688 0.5922852
vn -0.6044922 -0.5449219 0.5810547
vn -0.1801758 0.1781006 -0.9672852
vn -0.1937256 0.1694336 -0.9663086
vn -0.1937256 0.1694336 -0.9663086
vn -0.1680908 0.185791 -0.9682617
vn -0.09301758 0.2319336 -0.9682617
vn -0.04248047 0.2617188 -0.9643555
vn 0.1524658 0.3676758 -0.9174805
vn 0.1851807 0.3837891 -0.9047852
vn 0.34375 0.4562988 -0.8208008
vn 0.3493652 0.4587402 -0.8168945
vn 0.4711914 0.5053711 -0.7226563
vn 0.4714355 0.5053711 -0.7226563
vn 0.7460938 0.5639648 -0.3535156
vn 0.7353516 0.5639648 -0.3754883
vn 0.8334961 0.5429688 -0.1033325
vn 0.8232422 0.5488281 -0.1448975
vn 0.8608398 0.472168 0.1899414
vn 0.8618164 0.4829102 0.1560059
vn 0.7143555 0.2427979 0.65625
vn 0.7148438 0.2437744 0.6552734
vn 0.5371094 0.07928467 0.8398438
vn 0.527832 0.07171631 0.8461914
g pCube19_0
f 3/3/3 2/2/2 1/1/1
f 4/4/4 3/3/3 1/1/1
f 5/5/5 3/3/3 4/4/4
f 6/6/6 5/5/5 4/4/4
f 7/7/7 5/5/5 6/6/6
f 8/8/8 7/7/7 6/6/6
f 9/9/9 7/7/7 8/8/8
f 10/10/10 9/9/9 8/8/8
f 11/11/11 9/9/9 10/10/10
f 12/12/12 11/11/11 10/10/10
f 13/13/13 11/11/11 12/12/12
f 14/14/14 13/13/13 12/12/12
f 17/17/17 16/16/16 15/15/15
f 16/16/16 18/18/18 15/15/15
f 18/18/18 19/19/19 15/15/15
f 16/16/16 20/20/20 18/18/18
f 18/18/18 21/21/21 19/19/19
f 20/20/20 21/21/21 18/18/18
f 20/20/20 16/16/16 22/22/22
f 16/16/16 23/23/23 22/22/22
f 24/24/24 20/20/20 22/22/22
f 25/25/25 24/24/24 22/22/22
f 26/26/26 20/20/20 24/24/24
f 20/20/20 26/26/26 21/21/21
f 27/27/27 24/24/24 25/25/25
f 27/27/27 26/26/26 24/24/24
f 28/28/28 27/27/27 25/25/25
f 29/29/29 27/27/27 28/28/28
f 30/30/30 29/29/29 28/28/28
f 31/31/31 26/26/26 27/27/27
f 29/29/29 31/31/31 27/27/27
f 32/32/32 29/29/29 30/30/30
f 33/33/33 32/32/32 30/30/30
f 26/26/26 34/34/34 21/21/21
f 26/26/26 31/31/31 34/34/34
f 35/35/35 31/31/31 29/29/29
f 32/32/32 35/35/35 29/29/29
f 36/36/36 32/32/32 33/33/33
f 37/37/37 36/36/36 33/33/33
f 38/38/38 36/36/36 37/37/37
f 36/36/36 39/39/39 32/32/32
f 39/39/39 35/35/35 32/32/32
f 38/38/38 40/40/40 36/36/36
f 40/40/40 39/39/39 36/36/36
f 38/38/38 41/41/41 40/40/40
f 40/40/40 41/41/41 42/42/42
f 31/31/31 35/35/35 43/43/43
f 31/31/31 43/43/43 34/34/34
f 35/35/35 39/39/39 44/44/44
f 35/35/35 44/44/44 43/43/43
f 39/39/39 40/40/40 45/45/45
f 40/40/40 42/42/42 45/45/45
f 39/39/39 45/45/45 44/44/44
f 42/42/42 46/46/46 45/45/45
f 42/42/42 47/47/47 46/46/46
f 46/46/46 48/48/48 45/45/45
f 45/45/45 48/48/48 44/44/44
f 46/46/46 49/49/49 48/48/48
f 48/48/48 50/50/50 44/44/44
f 48/48/48 49/49/49 50/50/50
f 44/44/44 50/50/50 43/43/43
f 49/49/49 51/51/51 50/50/50
f 50/50/50 52/52/52 43/43/43
f 50/50/50 51/51/51 52/52/52
f 43/43/43 52/52/52 34/34/34
f 51/51/51 53/53/53 52/52/52
f 52/52/52 54/54/54 34/34/34
f 52/52/52 53/53/53 54/54/54
f 34/34/34 54/54/54 21/21/21
f 53/53/53 55/55/55 54/54/54
f 54/54/54 56/56/56 21/21/21
f 54/54/54 55/55/55 56/56/56
f 21/21/21 56/56/56 19/19/19
f 55/55/55 57/57/57 56/56/56
f 56/56/56 57/57/57 19/19/19
f 60/60/60 59/59/59 58/58/58
f 60/60/60 61/61/61 59/59/59
f 61/61/61 62/62/62 59/59/59
f 62/62/62 63/63/63 59/59/59
f 64/64/64 63/63/63 62/62/62
f 65/65/65 64/64/64 62/62/62
f 65/65/65 62/62/62 61/61/61
f 66/66/66 64/64/64 65/65/65
f 67/67/67 66/66/66 65/65/65
f 68/68/68 66/66/66 67/67/67
f 69/69/69 65/65/65 61/61/61
f 67/67/67 65/65/65 69/69/69
f 70/70/70 68/68/68 67/67/67
f 71/71/71 68/68/68 70/70/70
f 72/72/72 67/67/67 69/69/69
f 70/70/70 67/67/67 72/72/72
f 73/73/73 71/71/71 70/70/70
f 74/74/74 71/71/71 73/73/73
f 73/73/73 70/70/70 75/75/75
f 75/75/75 70/70/70 72/72/72
f 74/74/74 73/73/73 76/76/76
f 76/76/76 73/73/73 75/75/75
f 77/77/77 74/74/74 76/76/76
f 77/77/77 78/78/78 74/74/74
f 79/79/79 77/77/77 76/76/76
f 79/79/79 80/80/80 77/77/77
f 81/81/81 80/80/80 79/79/79
f 82/82/82 76/76/76 75/75/75
f 82/82/82 79/79/79 76/76/76
f 81/81/81 79/79/79 83/83/83
f 79/79/79 82/82/82 83/83/83
f 81/81/81 83/83/83 84/84/84
f 84/84/84 83/83/83 85/85/85
f 83/83/83 86/86/86 85/85/85
f 83/83/83 82/82/82 86/86/86
f 85/85/85 86/86/86 87/87/87
f 88/88/88 82/82/82 75/75/75
f 82/82/82 88/88/88 86/86/86
f 88/88/88 75/75/75 72/72/72
f 86/86/86 89/89/89 87/87/87
f 86/86/86 88/88/88 89/89/89
f 87/87/87 89/89/89 90/90/90
f 91/91/91 88/88/88 72/72/72
f 88/88/88 91/91/91 89/89/89
f 91/91/91 72/72/72 69/69/69
f 89/89/89 92/92/92 90/90/90
f 89/89/89 91/91/91 92/92/92
f 90/90/90 92/92/92 93/93/93
f 94/94/94 91/91/91 69/69/69
f 91/91/91 94/94/94 92/92/92
f 94/94/94 69/69/69 61/61/61
f 92/92/92 95/95/95 93/93/93
f 92/92/92 94/94/94 95/95/95
f 93/93/93 95/95/95 96/96/96
f 97/97/97 94/94/94 61/61/61
f 94/94/94 97/97/97 95/95/95
f 95/95/95 97/97/97 96/96/96
f 97/97/97 61/61/61 60/60/60
f 97/97/97 98/98/98 96/96/96
f 98/98/98 97/97/97 60/60/60
f 98/98/98 99/99/99 96/96/96
f 98/98/98 60/60/60 100/100/100
f 99/99/99 98/98/98 100/100/100
f 103/103/103 102/102/102 101/101/101
f 104/104/104 103/103/103 101/101/101
f 107/107/107 106/106/106 105/105/105
f 106/106/106 108/108/108 105/105/105
f 105/105/105 108/108/108 109/109/109
f 108/108/108 110/110/110 109/109/109
f 109/109/109 110/110/110 111/111/111
f 110/110/110 112/112/112 111/111/111
f 111/111/111 112/112/112 113/113/113
f 112/112/112 114/114/114 113/113/113
f 113/113/113 114/114/114 115/115/115
f 114/114/114 116/116/116 115/115/115
f 115/115/115 116/116/116 117/117/117
f 116/116/116 118/118/118 117/117/117
f 117/117/117 118/118/118 119/119/119
f 118/118/118 120/120/120 119/119/119
f 119/119/119 120/120/120 121/121/121
f 120/120/120 122/122/122 121/121/121
f 123/123/123 121/121/121 122/122/122
f 124/124/124 123/123/123 122/122/122
f 123/123/123 124/124/124 125/125/125
f 124/124/124 126/126/126 125/125/125
