g pCube8
v -0.2285808 -0.2252596 -0.1310284
v -0.2285808 -0.2252596 0.8926442
v 0.2285808 -0.2252596 0.8926442
v 0.2285808 -0.2252596 -0.1310284
v 0.1143019 0.2760029 1.108453
v 0.2285808 0.1556562 1.108453
v 0.2285808 -0.009451251 1.108453
v -0.2285808 -0.009451251 1.108453
v -0.1143019 0.2760029 1.108453
v -0.2285808 0.1556562 1.108453
v -0.1143019 0.2760029 -0.3468373
v 0.1143019 0.2760029 -0.3468373
v 0.1143019 0.2760029 1.108453
v -0.1143019 0.2760029 1.108453
v 0.2285808 -0.009451251 -0.3468373
v 0.2285808 -0.2252596 -0.1310284
v 0.2285808 -0.2252596 0.8926442
v 0.2285808 -0.009451251 1.108453
v 0.2285808 0.1556562 -0.3468373
v 0.2285808 0.1556562 1.108453
v -0.2285808 -0.009451251 1.108453
v -0.2285808 -0.2252596 0.8926442
v -0.2285808 -0.2252596 -0.1310284
v -0.2285808 -0.009451251 -0.3468373
v -0.2285808 0.1556562 1.108453
v -0.2285808 0.1556562 -0.3468373
v -0.2285808 -0.009451251 -0.3468373
v 0.2285808 -0.009451251 -0.3468373
v 0.2285808 0.1556562 -0.3468373
v 0.1143019 0.2760029 -0.3468373
v -0.1143019 0.2760029 -0.3468373
v -0.2285808 0.1556562 -0.3468373
v -0.1143019 0.2760029 -0.3468373
v -0.1143019 0.2760029 1.108453
v -0.2285808 0.1556562 1.108453
v -0.2285808 0.1556562 -0.3468373
v 0.2285808 0.1556562 -0.3468373
v 0.2285808 0.1556562 1.108453
v 0.1143019 0.2760029 1.108453
v 0.1143019 0.2760029 -0.3468373
v -0.2285808 -0.2252596 -0.1310284
v 0.2285808 -0.2252596 -0.1310284
v 0.2285808 -0.009451251 -0.3468373
v -0.2285808 -0.009451251 -0.3468373
v -0.2285808 -0.009451251 1.108453
v 0.2285808 -0.009451251 1.108453
v 0.2285808 -0.2252596 0.8926442
v -0.2285808 -0.2252596 0.8926442
vt 0.375 0.2988281
vt 0.375 0.4511719
vt 0.625 0.4511719
vt 0.625 0.2988281
vt 0.5625 0.75
vt 0.625 0.6953125
vt 0.625 0.5976563
vt 0.375 0.5976563
vt 0.4375 0.75
vt 0.375 0.6953125
vt 0.4375 1
vt 0.5625 1
vt 0.5625 0.75
vt 0.4375 0.75
vt 0.625 0.1522217
vt 0.6738281 0.25
vt 0.8261719 0.25
vt 0.875 0.1522217
vt 0.625 0.05450439
vt 0.875 0.05450439
vt 0.125 0.1522217
vt 0.1738281 0.25
vt 0.3261719 0.25
vt 0.375 0.1522217
vt 0.125 0.05450439
vt 0.375 0.05450439
vt 0.375 0.1522217
vt 0.625 0.1522217
vt 0.625 0.05450439
vt 0.5625 0
vt 0.4375 0
vt 0.375 0.05450439
vt 0.4375 1
vt 0.4375 0.75
vt 0.375 0.6953125
vt 0.375 1
vt 0.625 1
vt 0.625 0.6953125
vt 0.5625 0.75
vt 0.5625 1
vt 0.375 0.2988281
vt 0.625 0.2988281
vt 0.625 0.1522217
vt 0.375 0.1522217
vt 0.375 0.5976563
vt 0.625 0.5976563
vt 0.625 0.4511719
vt 0.375 0.4511719
vn 0 -1 0
vn 0 -1 0
vn 0 -1 0
vn 0 -1 0
vn 0 0 1
vn 0 0 1
vn 0 0 1
vn 0 0 1
vn 0 0 1
vn 0 0 1
vn 0 1 0
vn 0 1 0
vn 0 1 0
vn 0 1 0
vn 1 0 0
vn 1 0 0
vn 1 0 0
vn 1 0 0
vn 1 0 0
vn 1 0 0
vn -1 0 0
vn -1 0 0
vn -1 0 0
vn -1 0 0
vn -1 0 0
vn -1 0 0
vn 0 0 -1
vn 0 0 -1
vn 0 0 -1
vn 0 0 -1
vn 0 0 -1
vn 0 0 -1
vn -0.7250977 0.6884766 0
vn -0.7250977 0.6884766 0
vn -0.7250977 0.6884766 0
vn -0.7250977 0.6884766 0
vn 0.7250977 0.6884766 0
vn 0.7250977 0.6884766 0
vn 0.7250977 0.6884766 0
vn 0.7250977 0.6884766 0
vn 0 -0.7070313 -0.7070313
vn 0 -0.7070313 -0.7070313
vn 0 -0.7070313 -0.7070313
vn 0 -0.7070313 -0.7070313
vn 0 -0.7070313 0.7070313
vn 0 -0.7070313 0.7070313
vn 0 -0.7070313 0.7070313
vn 0 -0.7070313 0.7070313
g pCube8_0
f 3/3/3 2/2/2 1/1/1
f 4/4/4 3/3/3 1/1/1
f 7/7/7 6/6/6 5/5/5
f 5/5/5 8/8/8 7/7/7
f 5/5/5 9/9/9 8/8/8
f 9/9/9 10/10/10 8/8/8
f 13/13/13 12/12/12 11/11/11
f 14/14/14 13/13/13 11/11/11
f 17/17/17 16/16/16 15/15/15
f 15/15/15 18/18/18 17/17/17
f 15/15/15 19/19/19 18/18/18
f 19/19/19 20/20/20 18/18/18
f 23/23/23 22/22/22 21/21/21
f 21/21/21 24/24/24 23/23/23
f 21/21/21 25/25/25 24/24/24
f 25/25/25 26/26/26 24/24/24
f 29/29/29 28/28/28 27/27/27
f 27/27/27 30/30/30 29/29/29
f 27/27/27 31/31/31 30/30/30
f 27/27/27 32/32/32 31/31/31
f 35/35/35 34/34/34 33/33/33
f 36/36/36 35/35/35 33/33/33
f 39/39/39 38/38/38 37/37/37
f 40/40/40 39/39/39 37/37/37
f 43/43/43 42/42/42 41/41/41
f 44/44/44 43/43/43 41/41/41
f 47/47/47 46/46/46 45/45/45
f 48/48/48 47/47/47 45/45/45
