g pCube32
v -0.01199999 -0.012 0.02175367
v -0.01199999 -0.012 0.0199519
v -0.01199999 -0.01177536 0.02085279
v -0.01199999 0.01041986 0.005860798
v -0.007429699 0.01041986 0.004586748
v 0.007429711 0.01041986 0.004586748
v 0.01199998 0.01041986 0.005860798
v -0.01199999 0.01041986 0.01957874
v 0.01199998 0.01041986 0.01957874
v -0.007429699 0.01041986 0.02085279
v 0.007429711 0.01041986 0.02085279
v -0.01199999 -0.012 0.02175367
v 0.01199998 -0.012 0.02175367
v 0.01199998 -0.012 0.0199519
v -0.01199999 -0.012 0.0199519
v -0.01199999 -0.012 0.004586748
v 0.01199998 -0.012 0.004586748
v -0.01199999 -0.012 -0.05233613
v 0.01199998 -0.012 -0.0523764
v 0.007519615 -0.008657976 0.02085279
v 0.007429711 0.01041986 0.02085279
v 0.01199998 0.01041986 0.01957874
v 0.01199998 -0.008657976 0.01974351
v -0.01199999 0.01041986 0.005860798
v -0.01199999 -0.008923399 0.005860798
v -0.007429699 -0.008657976 0.004586748
v -0.007429699 0.01041986 0.004586748
v -0.01199999 -0.008923399 0.005860798
v -0.0073736 -0.01080057 -0.05069816
v -0.007429699 -0.008657976 0.004586748
v -0.01199999 -0.01111848 -0.0508664
v -0.0073736 -0.01107835 -0.05214229
v -0.007169861 -0.01161788 -0.05314885
v -0.01199999 -0.012 -0.05233613
v 0.007429711 0.01041986 0.004586748
v 0.007429711 -0.008657976 0.004586748
v 0.01199998 -0.008923399 0.005860798
v 0.01199998 0.01041986 0.005860798
v 0.007429711 -0.008657976 0.004586748
v 0.01199998 -0.01111848 -0.0508664
v 0.01199998 -0.008923399 0.005860798
v 0.007317524 -0.01080002 -0.0506859
v 0.007373611 -0.01107835 -0.05214229
v 0.01199998 -0.012 -0.0523764
v 0.007297154 -0.01162795 -0.05316763
v -0.007429699 0.01041986 0.02085279
v -0.007429699 -0.008657976 0.02085279
v -0.01199999 -0.008861785 0.01957874
v -0.01199999 0.01041986 0.01957874
v -0.007429699 -0.008657976 0.02085279
v -0.01199999 -0.01107488 0.03907528
v -0.01199999 -0.008861785 0.01957874
v -0.007295231 -0.0107434 0.03908947
v -0.007362465 -0.01106635 0.04039862
v -0.01199999 -0.012 0.04061486
v -0.007169861 -0.01161788 0.04142758
v -0.007169861 -0.01161788 0.04142758
v 0.007169849 -0.01161788 0.04142758
v 0.01199998 -0.012 0.04061486
v -0.01199999 -0.012 0.04061486
v 0.007169849 -0.01161788 0.04142758
v 0.01199998 -0.01107488 0.03907528
v 0.01199998 -0.012 0.04061486
v 0.00729522 -0.01106954 0.04040457
v 0.00729522 -0.0107434 0.03908947
v 0.01199998 -0.009096839 0.02172648
v 0.007519615 -0.008657976 0.02085279
v 0.01199998 -0.008657976 0.01974351
v 0.007297154 -0.01162795 -0.05316763
v -0.007169861 -0.01161788 -0.05314885
v -0.01199999 -0.012 -0.05233613
v 0.01199998 -0.012 -0.0523764
v -0.007429699 -0.008657976 0.02085279
v -0.007429699 0.01041986 0.02085279
v 0.007429711 0.01041986 0.02085279
v 0.007519615 -0.008657976 0.02085279
v -0.007429699 -0.008657976 0.004586748
v 0.007429711 -0.008657976 0.004586748
v 0.007429711 0.01041986 0.004586748
v -0.007429699 0.01041986 0.004586748
v 0.01199998 -0.008657976 0.01974351
v 0.01199998 0.01041986 0.01957874
v 0.01199998 0.01041986 0.005860798
v 0.01199998 -0.008923399 0.005860798
v 0.01199998 -0.012 0.0199519
v 0.01199998 -0.012 0.004586748
v 0.01199998 -0.012 0.02175367
v 0.01199998 -0.009096839 0.02172648
v 0.01199998 -0.01107488 0.03907528
v 0.01199998 -0.012 0.04061486
v -0.01199999 -0.008923399 0.005860798
v -0.01199999 0.01041986 0.005860798
v -0.01199999 0.01041986 0.01957874
v -0.01199999 -0.008861785 0.01957874
v -0.01199999 -0.01177536 0.02085279
v -0.01199999 -0.012 0.004586748
v -0.01199999 -0.012 0.0199519
v -0.01199999 -0.01107488 0.03907528
v -0.01199999 -0.012 0.02175367
v -0.01199999 -0.012 0.04061486
v -0.007169861 -0.01161788 0.04142758
v 0.00729522 -0.01106954 0.04040457
v 0.007169849 -0.01161788 0.04142758
v -0.007362465 -0.01106635 0.04039862
v -0.007295231 -0.0107434 0.03908947
v 0.00729522 -0.0107434 0.03908947
v 0.007519615 -0.008657976 0.02085279
v -0.007429699 -0.008657976 0.02085279
v -0.0073736 -0.01107835 -0.05214229
v -0.007169861 -0.01161788 -0.05314885
v 0.007297154 -0.01162795 -0.05316763
v 0.007373611 -0.01107835 -0.05214229
v 0.007317524 -0.01080002 -0.0506859
v -0.0073736 -0.01080057 -0.05069816
v -0.007429699 -0.008657976 0.004586748
v 0.007429711 -0.008657976 0.004586748
v -0.01199999 -0.012 0.02175367
v -0.01199999 -0.012 0.04061486
v 0.01199998 -0.012 0.04061486
v 0.01199998 -0.012 0.02175367
v 0.01199998 -0.008923399 0.005860798
v 0.01199998 -0.01111848 -0.0508664
v 0.01199998 -0.012 -0.0523764
v 0.01199998 -0.012 0.004586748
v -0.01199999 -0.012 0.004586748
v -0.01199999 -0.012 -0.05233613
v -0.01199999 -0.01111848 -0.0508664
v -0.01199999 -0.008923399 0.005860798
vt 0.375 1
vt 0.375 0.9907227
vt 0.375 1
vt 0.375 0.4868164
vt 0.4226074 0.5
vt 0.5776367 0.5
vt 0.625 0.4868164
vt 0.375 0.2631836
vt 0.625 0.2631836
vt 0.4226074 0.25
vt 0.5776367 0.25
vt 0.375 1
vt 0.625 1
vt 0.625 0.9907227
vt 0.375 0.9907227
vt 0.375 0.75
vt 0.625 0.75
vt 0.375 0.75
vt 0.625 0.75
vt 0.578125 0.125
vt 0.5776367 0.25
vt 0.6381836 0.25
vt 0.6367188 0.125
vt 0.375 0.4868164
vt 0.375 0.625
vt 0.4226074 0.625
vt 0.4226074 0.5
vt 0.375 0.625
vt 0.4230957 0.625
vt 0.4226074 0.625
vt 0.375 0.6542969
vt 0.4230957 0.6503906
vt 0.425293 0.7084961
vt 0.375 0.75
vt 0.5776367 0.5
vt 0.5776367 0.625
vt 0.625 0.625
vt 0.625 0.4868164
vt 0.5776367 0.625
vt 0.625 0.6542969
vt 0.625 0.625
vt 0.5761719 0.625
vt 0.5766602 0.6503906
vt 0.625 0.75
vt 0.5761719 0.7094727
vt 0.4226074 0.25
vt 0.4226074 0.125
vt 0.3618164 0.1173706
vt 0.3618164 0.25
vt 0.4226074 0.125
vt 0.375 0.1002197
vt 0.3618164 0.1173706
vt 0.4240723 0.125
vt 0.4233398 0.1011353
vt 0.375 0
vt 0.425293 0.04138184
vt 0.425293 0.04138184
vt 0.574707 0.04138184
vt 0.625 0
vt 0.375 0
vt 0.574707 0.04138184
vt 0.625 0.1002197
vt 0.625 0
vt 0.5761719 0.100769
vt 0.5761719 0.125
vt 0.625 0.1123047
vt 0.578125 0.125
vt 0.6367188 0.125
vt 0.5761719 0.7094727
vt 0.425293 0.7084961
vt 0.375 0.75
vt 0.625 0.75
vt 0.4226074 0.125
vt 0.4226074 0.25
vt 0.5776367 0.25
vt 0.578125 0.125
vt 0.4226074 0.625
vt 0.5776367 0.625
vt 0.5776367 0.5
vt 0.4226074 0.5
vt 0.6367188 0.125
vt 0.6381836 0.25
vt 0.8618164 0.25
vt 0.8618164 0.1150513
vt 0.6342773 0
vt 0.875 0
vt 0.625 0
vt 0.625 0.1123047
vt 0.625 0.1002197
vt 0.625 0
vt 0.1383057 0.1150513
vt 0.1383057 0.25
vt 0.3618164 0.25
vt 0.3618164 0.1173706
vt 0.375 0.008399963
vt 0.125 0
vt 0.3657227 0
vt 0.375 0.1002197
vt 0.375 0
vt 0.375 0
vt 0.425293 0.04138184
vt 0.5761719 0.100769
vt 0.574707 0.04138184
vt 0.4233398 0.1011353
vt 0.4240723 0.125
vt 0.5761719 0.125
vt 0.578125 0.125
vt 0.4226074 0.125
vt 0.4230957 0.6503906
vt 0.425293 0.7084961
vt 0.5761719 0.7094727
vt 0.5766602 0.6503906
vt 0.5761719 0.625
vt 0.4230957 0.625
vt 0.4226074 0.625
vt 0.5776367 0.625
vt 0.375 0
vt 0.375 0
vt 0.625 0
vt 0.625 0
vt 0.625 0.6367188
vt 0.625 0.6542969
vt 0.625 0.75
vt 0.625 0.75
vt 0.375 0.75
vt 0.375 0.75
vt 0.375 0.6542969
vt 0.375 0.6367188
vn -1 -4.768372E-07 0
vn -1 0 0
vn -1 0 0
vn 0 1 0
vn 0 1 0
vn 0 1 0
vn 0 1 0
vn 0 1 0
vn 0 1 0
vn 0 1 0
vn 0 1 0
vn 0 -1 0
vn 0 -1 0
vn 0 -1 0
vn 0 -1 0
vn 0 -1 0
vn 0 -1 0
vn 0 -1 0
vn 0 -1 0
vn 0.2546387 0.004776001 0.9667969
vn 0.2546387 0.004776001 0.9667969
vn 0.2546387 0.004776001 0.9667969
vn 0.2546387 0.004776001 0.9667969
vn -0.2685547 0 -0.9633789
vn -0.2685547 0 -0.9633789
vn -0.2685547 0 -0.9633789
vn -0.2685547 0 -0.9633789
vn -0.06787109 0.9970703 -0.03863525
vn -0.06781006 0.9970703 -0.04049683
vn -0.06787109 0.9970703 -0.03863525
vn -0.06988525 0.9960938 -0.04949951
vn -0.1281738 0.8945313 -0.4279785
vn -0.1488037 0.8525391 -0.5014648
vn -0.1488037 0.8525391 -0.5014648
vn 0.2685547 0 -0.9633789
vn 0.2685547 0 -0.9633789
vn 0.2685547 0 -0.9633789
vn 0.2685547 0 -0.9633789
vn 0.06750488 0.9970703 -0.03866577
vn 0.06939697 0.996582 -0.04934692
vn 0.06750488 0.9970703 -0.03866577
vn 0.06738281 0.9970703 -0.04046631
vn 0.1245728 0.9023438 -0.4128418
vn 0.1464844 0.859375 -0.489502
vn 0.1464844 0.859375 -0.489502
vn -0.2685547 0 0.9633789
vn -0.2685547 0 0.9633789
vn -0.2685547 0 0.9633789
vn -0.2685547 0 0.9633789
vn -0.07287598 0.9907227 0.1131592
vn -0.07806396 0.9873047 0.1390381
vn -0.07287598 0.9907227 0.1131592
vn -0.07281494 0.9902344 0.1172485
vn -0.1306152 0.8876953 0.4418945
vn -0.1483154 0.8525391 0.5014648
vn -0.1483154 0.8525391 0.5014648
vn 0 -0.9047852 0.4255371
vn 0 -0.9047852 0.4255371
vn 0 -0.9047852 0.4255371
vn 0 -0.9047852 0.4255371
vn 0.1467285 0.8544922 0.4985352
vn 0.07788086 0.9868164 0.1412354
vn 0.1467285 0.8544922 0.4985352
vn 0.1293945 0.8881836 0.4411621
vn 0.0723877 0.9902344 0.1183472
vn 0.07171631 0.9902344 0.1177979
vn 0.07214355 0.9907227 0.1154175
vn 0.05343628 0.9750977 0.2158203
vn -0.000890255 -0.9047852 -0.4255371
vn -0.000890255 -0.9047852 -0.4255371
vn -0.000890255 -0.9047852 -0.4255371
vn -0.000890255 -0.9047852 -0.4255371
vn 0 0 1
vn 0 0 1
vn 0 0 1
vn 0 0 1
vn 0 0 -1
vn 0 0 -1
vn 0 0 -1
vn 0 0 -1
vn 1 0 0
vn 1 0 0
vn 1 0 0
vn 1 0 0
vn 1 4.172325E-07 0
vn 1 -4.172325E-07 0
vn 1 0 0
vn 1 0 0
vn 1 0 0
vn 1 0 0
vn -1 0 0
vn -1 0 0
vn -1 0 0
vn -1 0 0
vn -1 0 0
vn -1 -4.768372E-07 0
vn -1 0 0
vn -1 -4.768372E-07 0
vn -1 -4.768372E-07 0
vn -1 -4.768372E-07 0
vn 0 0.8813477 0.4724121
vn 3.194809E-05 0.9384766 0.3457031
vn 0 0.8813477 0.4724121
vn 3.20673E-05 0.9384766 0.3452148
vn 3.993511E-06 0.9926758 0.1224976
vn 3.874302E-06 0.9926758 0.1221924
vn 0 0.9936523 0.1135864
vn 0 0.9936523 0.1135864
vn 3.59416E-05 0.9516602 -0.307373
vn 0 0.8813477 -0.4724121
vn 0 0.8813477 -0.4724121
vn 3.445148E-05 0.9492188 -0.3144531
vn -9.536743E-07 0.9990234 -0.04269409
vn -1.013279E-06 0.9990234 -0.04260254
vn -2.622604E-06 0.9990234 -0.03872681
vn -2.622604E-06 0.9990234 -0.03872681
vn 0 -1 0
vn 0 -1 0
vn 0 -1 0
vn 0 -1 0
vn 1 0 0
vn 1 -5.960464E-07 0
vn 1 -5.960464E-07 0
vn 1 -4.172325E-07 0
vn -1 -4.768372E-07 0
vn -1 -5.960464E-07 0
vn -1 -5.960464E-07 0
vn -1 0 0
g pCube32_0
f 3/3/3 2/2/2 1/1/1
f 6/6/6 5/5/5 4/4/4
f 4/4/4 7/7/7 6/6/6
f 4/4/4 8/8/8 7/7/7
f 8/8/8 9/9/9 7/7/7
f 8/8/8 10/10/10 9/9/9
f 10/10/10 11/11/11 9/9/9
f 14/14/14 13/13/13 12/12/12
f 15/15/15 14/14/14 12/12/12
f 14/14/14 15/15/15 16/16/16
f 17/17/17 14/14/14 16/16/16
f 16/16/16 18/18/18 17/17/17
f 18/18/18 19/19/19 17/17/17
f 22/22/22 21/21/21 20/20/20
f 23/23/23 22/22/22 20/20/20
f 26/26/26 25/25/25 24/24/24
f 27/27/27 26/26/26 24/24/24
f 30/30/30 29/29/29 28/28/28
f 29/29/29 31/31/31 28/28/28
f 29/29/29 32/32/32 31/31/31
f 32/32/32 33/33/33 31/31/31
f 33/33/33 34/34/34 31/31/31
f 37/37/37 36/36/36 35/35/35
f 38/38/38 37/37/37 35/35/35
f 41/41/41 40/40/40 39/39/39
f 40/40/40 42/42/42 39/39/39
f 42/42/42 40/40/40 43/43/43
f 40/40/40 44/44/44 43/43/43
f 44/44/44 45/45/45 43/43/43
f 48/48/48 47/47/47 46/46/46
f 49/49/49 48/48/48 46/46/46
f 52/52/52 51/51/51 50/50/50
f 51/51/51 53/53/53 50/50/50
f 53/53/53 51/51/51 54/54/54
f 54/54/54 51/51/51 55/55/55
f 56/56/56 54/54/54 55/55/55
f 59/59/59 58/58/58 57/57/57
f 60/60/60 59/59/59 57/57/57
f 63/63/63 62/62/62 61/61/61
f 62/62/62 64/64/64 61/61/61
f 62/62/62 65/65/65 64/64/64
f 65/65/65 62/62/62 66/66/66
f 67/67/67 65/65/65 66/66/66
f 68/68/68 67/67/67 66/66/66
f 71/71/71 70/70/70 69/69/69
f 72/72/72 71/71/71 69/69/69
f 75/75/75 74/74/74 73/73/73
f 76/76/76 75/75/75 73/73/73
f 79/79/79 78/78/78 77/77/77
f 80/80/80 79/79/79 77/77/77
f 83/83/83 82/82/82 81/81/81
f 84/84/84 83/83/83 81/81/81
f 84/84/84 81/81/81 85/85/85
f 86/86/86 84/84/84 85/85/85
f 85/85/85 81/81/81 87/87/87
f 81/81/81 88/88/88 87/87/87
f 88/88/88 89/89/89 87/87/87
f 89/89/89 90/90/90 87/87/87
f 93/93/93 92/92/92 91/91/91
f 94/94/94 93/93/93 91/91/91
f 95/95/95 94/94/94 91/91/91
f 95/95/95 91/91/91 96/96/96
f 96/96/96 97/97/97 95/95/95
f 98/98/98 94/94/94 95/95/95
f 98/98/98 95/95/95 99/99/99
f 99/99/99 100/100/100 98/98/98
f 103/103/103 102/102/102 101/101/101
f 102/102/102 104/104/104 101/101/101
f 105/105/105 104/104/104 102/102/102
f 106/106/106 105/105/105 102/102/102
f 105/105/105 106/106/106 107/107/107
f 108/108/108 105/105/105 107/107/107
f 111/111/111 110/110/110 109/109/109
f 112/112/112 111/111/111 109/109/109
f 112/112/112 109/109/109 113/113/113
f 109/109/109 114/114/114 113/113/113
f 113/113/113 114/114/114 115/115/115
f 116/116/116 113/113/113 115/115/115
f 119/119/119 118/118/118 117/117/117
f 120/120/120 119/119/119 117/117/117
f 123/123/123 122/122/122 121/121/121
f 124/124/124 123/123/123 121/121/121
f 127/127/127 126/126/126 125/125/125
f 128/128/128 127/127/127 125/125/125
