g pCube10
v -0.2285808 0.04744002 -0.6696596
v -0.1612108 0.04744002 -0.6696596
v -0.1612108 0.2632484 -0.4538512
v -0.2285808 0.2632484 -0.4538512
v -0.1143018 -0.2760038 0.5272623
v -0.1143018 -0.2760038 -0.6696596
v -0.2285808 -0.1556572 -0.6696596
v -0.2285808 -0.1556572 0.5272623
v -0.1612108 -0.1834282 0.5272623
v -0.1612108 -0.1834282 -0.6696596
v -0.1128524 -0.227833 -0.6696596
v -0.1128524 -0.227833 0.5272623
v -0.1143018 -0.2760038 0.5272623
v 0.1143018 -0.2760038 0.5272623
v 0.1143018 -0.2760038 -0.6696596
v -0.1143018 -0.2760038 -0.6696596
v -0.1128524 -0.227833 0.5272623
v -0.1128524 -0.227833 -0.6696596
v 0.1128524 -0.227833 -0.6696596
v 0.1128524 -0.227833 0.5272623
v 0.1612108 0.2632484 -0.4538512
v 0.1612108 0.04744002 -0.6696596
v 0.2285808 0.04744002 -0.6696596
v 0.2285808 0.2632484 -0.4538512
v 0.1128524 -0.227833 0.5272623
v 0.1128524 -0.227833 -0.6696596
v 0.1612108 -0.1834282 -0.6696596
v 0.1612108 -0.1834282 0.5272623
v 0.2285808 -0.1556572 0.5272623
v 0.2285808 -0.1556572 -0.6696596
v 0.1143018 -0.2760038 -0.6696596
v 0.1143018 -0.2760038 0.5272623
v -0.2285808 0.2632484 0.3114539
v -0.2285808 0.2632484 -0.4538512
v -0.1612108 0.2632484 -0.4538512
v -0.1612108 0.2632484 0.3114539
v -0.2285808 0.2632484 0.3114539
v -0.1612108 0.2632484 0.3114539
v -0.1612108 0.04744002 0.5272623
v -0.2285808 0.04744002 0.5272623
v 0.1612108 0.2632484 0.3114539
v 0.1612108 0.2632484 -0.4538512
v 0.2285808 0.2632484 -0.4538512
v 0.2285808 0.2632484 0.3114539
v 0.1612108 0.04744002 0.5272623
v 0.1612108 0.2632484 0.3114539
v 0.2285808 0.2632484 0.3114539
v 0.2285808 0.04744002 0.5272623
v -0.2285808 0.04744002 0.5272623
v -0.2285808 -0.1556572 0.5272623
v -0.2285808 -0.1556572 -0.6696596
v -0.2285808 0.04744002 -0.6696596
v -0.2285808 0.2632484 0.3114539
v -0.2285808 0.2632484 -0.4538512
v -0.1612108 0.04744002 -0.6696596
v -0.1612108 -0.1834282 -0.6696596
v -0.1612108 -0.1834282 0.5272623
v -0.1612108 0.04744002 0.5272623
v -0.1612108 0.2632484 -0.4538512
v -0.1612108 0.2632484 0.3114539
v 0.1612108 0.04744002 0.5272623
v 0.1612108 -0.1834282 0.5272623
v 0.1612108 -0.1834282 -0.6696596
v 0.1612108 0.04744002 -0.6696596
v 0.1612108 0.2632484 0.3114539
v 0.1612108 0.2632484 -0.4538512
v 0.2285808 0.04744002 -0.6696596
v 0.2285808 -0.1556572 -0.6696596
v 0.2285808 -0.1556572 0.5272623
v 0.2285808 0.04744002 0.5272623
v 0.2285808 0.2632484 -0.4538512
v 0.2285808 0.2632484 0.3114539
v -0.1612108 0.04744002 -0.6696596
v -0.2285808 0.04744002 -0.6696596
v -0.2285808 -0.1556572 -0.6696596
v -0.1612108 -0.1834282 -0.6696596
v -0.1143018 -0.2760038 -0.6696596
v -0.1128524 -0.227833 -0.6696596
v 0.1128524 -0.227833 -0.6696596
v 0.1143018 -0.2760038 -0.6696596
v 0.1612108 -0.1834282 -0.6696596
v 0.2285808 -0.1556572 -0.6696596
v 0.2285808 0.04744002 -0.6696596
v 0.1612108 0.04744002 -0.6696596
v -0.2285808 0.04744002 0.5272623
v -0.1612108 0.04744002 0.5272623
v -0.1612108 -0.1834282 0.5272623
v -0.2285808 -0.1556572 0.5272623
v -0.1143018 -0.2760038 0.5272623
v -0.1128524 -0.227833 0.5272623
v 0.1128524 -0.227833 0.5272623
v 0.1143018 -0.2760038 0.5272623
v 0.1612108 -0.1834282 0.5272623
v 0.2285808 -0.1556572 0.5272623
v 0.1612108 0.04744002 0.5272623
v 0.2285808 0.04744002 0.5272623
vt 0.375 0.5976563
vt 0.4118652 0.5976563
vt 0.4118652 0.4511719
vt 0.375 0.4511719
vt 0.4375 1
vt 0.4375 0.75
vt 0.375 0.6953125
vt 0.375 1
vt 0.375 0.9204102
vt 0.375 0.7485352
vt 0.4125977 0.7661133
vt 0.4125977 0.9257813
vt 0.4375 1
vt 0.5625 1
vt 0.5625 0.75
vt 0.4375 0.75
vt 0.4125977 0.9257813
vt 0.4125977 0.7661133
vt 0.5874023 0.7661133
vt 0.5874023 0.9257813
vt 0.5883789 0.4511719
vt 0.5883789 0.5976563
vt 0.625 0.5976563
vt 0.625 0.4511719
vt 0.5874023 0.9257813
vt 0.5874023 0.7661133
vt 0.625 0.7485352
vt 0.625 0.9204102
vt 0.625 1
vt 0.625 0.6953125
vt 0.5625 0.75
vt 0.5625 1
vt 0.375 0.2988281
vt 0.375 0.4511719
vt 0.4118652 0.4511719
vt 0.4118652 0.2988281
vt 0.375 0.2988281
vt 0.4118652 0.2988281
vt 0.4118652 0.1522217
vt 0.375 0.1522217
vt 0.5883789 0.2988281
vt 0.5883789 0.4511719
vt 0.625 0.4511719
vt 0.625 0.2988281
vt 0.5883789 0.1522217
vt 0.5883789 0.2988281
vt 0.625 0.2988281
vt 0.625 0.1522217
vt 0.375 0.1522217
vt 0.375 0.05450439
vt 0.125 0.05450439
vt 0.125 0.1522217
vt 0.3261719 0.25
vt 0.1738281 0.25
vt 0.1408691 0.1193237
vt 0.1408691 0.01838684
vt 0.3010254 0.01838684
vt 0.3010254 0.1193237
vt 0.1721191 0.2087402
vt 0.2695313 0.2087402
vt 0.6992188 0.1193237
vt 0.6992188 0.01838684
vt 0.8588867 0.01838684
vt 0.8588867 0.1193237
vt 0.7304688 0.2087402
vt 0.8276367 0.2087402
vt 0.875 0.1522217
vt 0.875 0.05450439
vt 0.625 0.05450439
vt 0.625 0.1522217
vt 0.8261719 0.25
vt 0.6738281 0.25
vt 0.4118652 0.5976563
vt 0.375 0.5976563
vt 0.375 0.6953125
vt 0.4118652 0.7080078
vt 0.4375 0.75
vt 0.4382324 0.7280273
vt 0.5615234 0.7280273
vt 0.5625 0.75
vt 0.5883789 0.7080078
vt 0.625 0.6953125
vt 0.625 0.5976563
vt 0.5883789 0.5976563
vt 0.375 0.1522217
vt 0.4118652 0.1522217
vt 0.4118652 0.04193115
vt 0.375 0.05450439
vt 0.4375 0
vt 0.4382324 0.02182007
vt 0.5615234 0.02182007
vt 0.5625 0
vt 0.5883789 0.04193115
vt 0.625 0.05450439
vt 0.5883789 0.1522217
vt 0.625 0.1522217
vn 0 0.7070313 -0.7070313
vn 0 0.7070313 -0.7070313
vn 0 0.7070313 -0.7070313
vn 0 0.7070313 -0.7070313
vn -0.7250977 -0.6884766 0
vn -0.7250977 -0.6884766 0
vn -0.7250977 -0.6884766 0
vn -0.7250977 -0.6884766 0
vn 0.6762695 0.7368164 0
vn 0.6762695 0.7368164 0
vn 0.6762695 0.7368164 0
vn 0.6762695 0.7368164 0
vn 0 -1 0
vn 0 -1 0
vn 0 -1 0
vn 0 -1 0
vn 0 1 0
vn 0 1 0
vn 0 1 0
vn 0 1 0
vn 0 0.7070313 -0.7070313
vn 0 0.7070313 -0.7070313
vn 0 0.7070313 -0.7070313
vn 0 0.7070313 -0.7070313
vn -0.6762695 0.7368164 0
vn -0.6762695 0.7368164 0
vn -0.6762695 0.7368164 0
vn -0.6762695 0.7368164 0
vn 0.7250977 -0.6884766 0
vn 0.7250977 -0.6884766 0
vn 0.7250977 -0.6884766 0
vn 0.7250977 -0.6884766 0
vn 0 1 0
vn 0 1 0
vn 0 1 0
vn 0 1 0
vn 0 0.7070313 0.7070313
vn 0 0.7070313 0.7070313
vn 0 0.7070313 0.7070313
vn 0 0.7070313 0.7070313
vn 0 1 0
vn 0 1 0
vn 0 1 0
vn 0 1 0
vn 0 0.7070313 0.7070313
vn 0 0.7070313 0.7070313
vn 0 0.7070313 0.7070313
vn 0 0.7070313 0.7070313
vn -1 0 0
vn -1 0 0
vn -1 0 0
vn -1 0 0
vn -1 0 0
vn -1 0 0
vn 1 0 0
vn 1 0 0
vn 1 0 0
vn 1 0 0
vn 1 0 0
vn 1 0 0
vn -1 0 0
vn -1 0 0
vn -1 0 0
vn -1 0 0
vn -1 0 0
vn -1 0 0
vn 1 0 0
vn 1 0 0
vn 1 0 0
vn 1 0 0
vn 1 0 0
vn 1 0 0
vn -2.741814E-06 0 -1
vn -2.741814E-06 0 -1
vn -2.741814E-06 0 -1
vn -2.741814E-06 0 -1
vn -2.741814E-06 0 -1
vn -2.741814E-06 0 -1
vn -2.741814E-06 0 -1
vn -2.741814E-06 0 -1
vn -2.741814E-06 0 -1
vn -2.741814E-06 0 -1
vn -2.741814E-06 0 -1
vn -2.741814E-06 0 -1
vn 0 0 1
vn 0 0 1
vn 0 0 1
vn 0 0 1
vn 0 0 1
vn 0 0 1
vn 0 0 1
vn 0 0 1
vn 0 0 1
vn 0 0 1
vn 0 0 1
vn 0 0 1
g pCube10_0
f 3/3/3 2/2/2 1/1/1
f 4/4/4 3/3/3 1/1/1
f 7/7/7 6/6/6 5/5/5
f 8/8/8 7/7/7 5/5/5
f 11/11/11 10/10/10 9/9/9
f 12/12/12 11/11/11 9/9/9
f 15/15/15 14/14/14 13/13/13
f 16/16/16 15/15/15 13/13/13
f 19/19/19 18/18/18 17/17/17
f 20/20/20 19/19/19 17/17/17
f 23/23/23 22/22/22 21/21/21
f 24/24/24 23/23/23 21/21/21
f 27/27/27 26/26/26 25/25/25
f 28/28/28 27/27/27 25/25/25
f 31/31/31 30/30/30 29/29/29
f 32/32/32 31/31/31 29/29/29
f 35/35/35 34/34/34 33/33/33
f 36/36/36 35/35/35 33/33/33
f 39/39/39 38/38/38 37/37/37
f 40/40/40 39/39/39 37/37/37
f 43/43/43 42/42/42 41/41/41
f 44/44/44 43/43/43 41/41/41
f 47/47/47 46/46/46 45/45/45
f 48/48/48 47/47/47 45/45/45
f 51/51/51 50/50/50 49/49/49
f 49/49/49 52/52/52 51/51/51
f 49/49/49 53/53/53 52/52/52
f 53/53/53 54/54/54 52/52/52
f 57/57/57 56/56/56 55/55/55
f 55/55/55 58/58/58 57/57/57
f 55/55/55 59/59/59 58/58/58
f 59/59/59 60/60/60 58/58/58
f 63/63/63 62/62/62 61/61/61
f 61/61/61 64/64/64 63/63/63
f 61/61/61 65/65/65 64/64/64
f 65/65/65 66/66/66 64/64/64
f 69/69/69 68/68/68 67/67/67
f 67/67/67 70/70/70 69/69/69
f 67/67/67 71/71/71 70/70/70
f 71/71/71 72/72/72 70/70/70
f 75/75/75 74/74/74 73/73/73
f 75/75/75 73/73/73 76/76/76
f 77/77/77 75/75/75 76/76/76
f 77/77/77 76/76/76 78/78/78
f 77/77/77 78/78/78 79/79/79
f 80/80/80 77/77/77 79/79/79
f 80/80/80 79/79/79 81/81/81
f 82/82/82 80/80/80 81/81/81
f 81/81/81 83/83/83 82/82/82
f 83/83/83 81/81/81 84/84/84
f 87/87/87 86/86/86 85/85/85
f 87/87/87 85/85/85 88/88/88
f 87/87/87 88/88/88 89/89/89
f 90/90/90 87/87/87 89/89/89
f 91/91/91 90/90/90 89/89/89
f 91/91/91 89/89/89 92/92/92
f 93/93/93 91/91/91 92/92/92
f 93/93/93 92/92/92 94/94/94
f 95/95/95 93/93/93 94/94/94
f 94/94/94 96/96/96 95/95/95
