g pCube55
v -1.061206 0.4176347 -0.3758757
v -1.061206 -0.4176347 -0.3758757
v -1.030636 -0.4176347 -0.4064455
v -1.030636 0.4176347 -0.4064455
v -0.9888769 -0.4176347 -0.4176349
v -0.9888769 0.4176347 -0.4176349
v 0.9888769 0.4176347 -0.4176349
v 0.9888769 -0.4176347 -0.4176349
v 1.030636 -0.4176347 -0.4064455
v 1.030636 0.4176347 -0.4064455
v 1.061206 -0.4176347 -0.3758757
v 1.061206 0.4176347 -0.3758757
v -1.072396 0.4176347 -0.334116
v -1.061206 -0.4176347 -0.3758757
v -1.061206 0.4176347 -0.3758757
v -1.072396 -0.4176347 -0.334116
v -1.072396 -0.4176347 0.3341161
v -1.072396 0.4176347 0.3341161
v -1.061206 0.4176347 0.3758755
v -1.061206 -0.4176347 0.3758755
v -1.061206 -0.4176347 0.3758755
v -1.061206 0.4176347 0.3758755
v -1.030636 0.4176347 0.4064454
v -1.030636 -0.4176347 0.4064454
v -0.9888769 0.4176347 0.4176349
v -0.9888769 -0.4176347 0.4176349
v 0.9888769 -0.4176347 0.4176349
v 0.9888769 0.4176347 0.4176349
v 1.030636 0.4176347 0.4064454
v 1.030636 -0.4176347 0.4064454
v 1.061206 0.4176347 0.3758755
v 1.061206 -0.4176347 0.3758755
v -0.340924 0.4176347 -0.2878031
v -0.340924 0.3257881 -0.2878031
v -0.3625706 0.3257881 -0.2661567
v -0.3625706 0.4176347 -0.2661567
v -0.3113544 0.4176347 -0.2957264
v -0.340924 0.3257881 -0.2878031
v -0.340924 0.4176347 -0.2878031
v -0.3113544 0.3257881 -0.2957264
v 0.3113543 0.4176347 -0.2957264
v 0.3113543 0.3257881 -0.2957264
v 0.340924 0.4176347 -0.2878031
v 0.340924 0.3257881 -0.2878031
v -0.3625706 0.4176347 -0.2661567
v -0.3625706 0.3257881 -0.2661567
v -0.3704937 0.3257881 -0.2365866
v -0.3704937 0.4176347 -0.2365866
v -0.3704937 0.3257881 0.2365868
v -0.3704937 0.4176347 0.2365868
v -0.3625706 0.3257881 0.2661565
v -0.3625706 0.4176347 0.2661565
v -0.3625706 0.4176347 0.2661565
v -0.3625706 0.3257881 0.2661565
v -0.340924 0.3257881 0.2878029
v -0.340924 0.4176347 0.2878029
v -0.340924 0.4176347 0.2878029
v -0.340924 0.3257881 0.2878029
v -0.3113544 0.3257881 0.2957262
v -0.3113544 0.4176347 0.2957262
v 0.3113543 0.3257881 0.2957262
v 0.3113543 0.4176347 0.2957262
v 0.340924 0.3257881 0.2878029
v 0.340924 0.4176347 0.2878029
v 0.3625706 0.4176347 -0.2661567
v 0.3625706 0.3257881 -0.2661567
v 0.340924 0.3257881 -0.2878031
v 0.340924 0.4176347 -0.2878031
v 0.3704937 0.4176347 -0.2365866
v 0.3625706 0.3257881 -0.2661567
v 0.3625706 0.4176347 -0.2661567
v 0.3704937 0.3257881 -0.2365866
v 0.3704937 0.4176347 0.2365868
v 0.3704937 0.3257881 0.2365868
v 0.3625706 0.4176347 0.2661565
v 0.3625706 0.3257881 0.2661565
v 1.061206 0.4176347 -0.3758757
v 1.061206 -0.4176347 -0.3758757
v 1.072396 -0.4176347 -0.334116
v 1.072396 0.4176347 -0.334116
v 1.072396 0.4176347 0.3341161
v 1.072396 -0.4176347 0.3341161
v 1.061206 -0.4176347 0.3758755
v 1.061206 0.4176347 0.3758755
v 0.340924 0.4176347 0.2878029
v 0.340924 0.3257881 0.2878029
v 0.3625706 0.3257881 0.2661565
v 0.3625706 0.4176347 0.2661565
v 1.030636 -0.4176347 -0.4064455
v 0.9888769 -0.4176347 -0.4176349
v -0.9888769 -0.4176347 -0.4176349
v -1.030636 -0.4176347 -0.4064455
v 1.061206 -0.4176347 -0.3758757
v -1.061206 -0.4176347 -0.3758757
v 1.072396 -0.4176347 -0.334116
v -1.072396 -0.4176347 -0.334116
v 1.072396 -0.4176347 0.3341161
v -1.072396 -0.4176347 0.3341161
v -1.072396 -0.4176347 0.3341161
v 1.061206 -0.4176347 0.3758755
v 1.072396 -0.4176347 0.3341161
v -1.061206 -0.4176347 0.3758755
v 1.030636 -0.4176347 0.4064454
v -1.030636 -0.4176347 0.4064454
v 0.9888769 -0.4176347 0.4176349
v -0.9888769 -0.4176347 0.4176349
v -0.340924 0.3257881 -0.2878031
v -0.3113544 0.3257881 -0.2957264
v 0.3113543 0.3257881 -0.2957264
v 0.340924 0.3257881 -0.2878031
v -0.3625706 0.3257881 -0.2661567
v 0.3625706 0.3257881 -0.2661567
v -0.3704937 0.3257881 -0.2365866
v 0.3704937 0.3257881 -0.2365866
v -0.3704937 0.3257881 0.2365868
v 0.3704937 0.3257881 0.2365868
v 0.3704937 0.3257881 0.2365868
v -0.3625706 0.3257881 0.2661565
v -0.3704937 0.3257881 0.2365868
v 0.3625706 0.3257881 0.2661565
v -0.340924 0.3257881 0.2878029
v 0.340924 0.3257881 0.2878029
v -0.3113544 0.3257881 0.2957262
v 0.3113543 0.3257881 0.2957262
v 0.9888769 0.4176347 0.4176349
v -0.9888769 0.4176347 0.4176349
v -1.030636 0.4176347 0.4064454
v -1.061206 0.4176347 0.3758755
v -1.072396 0.4176347 0.3341161
v 0.3113543 0.4176347 0.2957262
v 0.340924 0.4176347 0.2878029
v -0.3113544 0.4176347 0.2957262
v -0.340924 0.4176347 0.2878029
v -0.3625706 0.4176347 0.2661565
v -0.3704937 0.4176347 0.2365868
v -0.3704937 0.4176347 -0.2365866
v -1.072396 0.4176347 -0.334116
v -1.061206 0.4176347 -0.3758757
v -1.030636 0.4176347 -0.4064455
v -0.9888769 0.4176347 -0.4176349
v -0.3625706 0.4176347 -0.2661567
v -0.340924 0.4176347 -0.2878031
v -0.3113544 0.4176347 -0.2957264
v 0.9888769 0.4176347 -0.4176349
v 1.030636 0.4176347 -0.4064455
v 1.061206 0.4176347 -0.3758757
v 1.072396 0.4176347 -0.334116
v 0.3113543 0.4176347 -0.2957264
v 0.340924 0.4176347 -0.2878031
v 1.072396 0.4176347 0.3341161
v 0.3625706 0.4176347 -0.2661567
v 0.3704937 0.4176347 -0.2365866
v 0.3704937 0.4176347 0.2365868
v 0.3625706 0.4176347 0.2661565
v 1.061206 0.4176347 0.3758755
v 1.030636 0.4176347 0.4064454
vt 0.375 0.5
vt 0.375 0.75
vt 0.3811035 0.75
vt 0.3811035 0.5
vt 0.3847656 0.75
vt 0.3847656 0.5
vt 0.6152344 0.5
vt 0.6152344 0.75
vt 0.6191406 0.75
vt 0.6191406 0.5
vt 0.625 0.75
vt 0.625 0.5
vt 0.1500244 0.25
vt 0.125 0
vt 0.125 0.25
vt 0.1500244 0
vt 0.3500977 0
vt 0.3500977 0.25
vt 0.375 0.25
vt 0.3679199 0
vt 0.3679199 0
vt 0.375 0.25
vt 0.3811035 0.25
vt 0.378418 0
vt 0.3847656 0.25
vt 0.3847656 0
vt 0.6152344 0
vt 0.6152344 0.25
vt 0.6191406 0.25
vt 0.6206055 0
vt 0.625 0.25
vt 0.6333008 0
vt 0.3811035 0.5927734
vt 0.3811035 0.75
vt 0.375 0.75
vt 0.375 0.5927734
vt 0.3847656 0.5927734
vt 0.3811035 0.75
vt 0.3811035 0.5927734
vt 0.3847656 0.75
vt 0.6152344 0.5927734
vt 0.6152344 0.75
vt 0.6191406 0.5927734
vt 0.6191406 0.75
vt 0.125 0.1574707
vt 0.125 0
vt 0.1500244 0
vt 0.1500244 0.1574707
vt 0.3500977 0
vt 0.3500977 0.1574707
vt 0.3679199 0
vt 0.3723145 0.1574707
vt 0.3723145 0.1574707
vt 0.3679199 0
vt 0.378418 0
vt 0.380127 0.1574707
vt 0.380127 0.1574707
vt 0.378418 0
vt 0.3847656 0
vt 0.3847656 0.1574707
vt 0.6152344 0
vt 0.6152344 0.1574707
vt 0.6206055 0
vt 0.6196289 0.1574707
vt 0.625 0.5927734
vt 0.625 0.75
vt 0.6191406 0.75
vt 0.6191406 0.5927734
vt 0.8500977 0.1574707
vt 0.875 0
vt 0.875 0.1574707
vt 0.8500977 0
vt 0.6499023 0.1574707
vt 0.6499023 0
vt 0.6279297 0.1574707
vt 0.6333008 0
vt 0.875 0.25
vt 0.875 0
vt 0.8500977 0
vt 0.8500977 0.25
vt 0.6499023 0.25
vt 0.6499023 0
vt 0.6333008 0
vt 0.625 0.25
vt 0.6196289 0.1574707
vt 0.6206055 0
vt 0.6333008 0
vt 0.6279297 0.1574707
vt 0.6191406 0.75
vt 0.6152344 0.75
vt 0.3847656 0.75
vt 0.3811035 0.75
vt 0.625 0.75
vt 0.375 0.75
vt 0.625 0.7749023
vt 0.375 0.7749023
vt 0.625 0.9750977
vt 0.375 0.9750977
vt 0.375 0.9750977
vt 0 0
vt 0.625 0.9750977
vt 0 0
vt 0 0
vt 0 0
vt 0.6152344 1
vt 0.3847656 1
vt 0.3811035 0.75
vt 0.3847656 0.75
vt 0.6152344 0.75
vt 0.6191406 0.75
vt 0.375 0.75
vt 0.625 0.75
vt 0.375 0.7749023
vt 0.625 0.7749023
vt 0.375 0.9750977
vt 0.625 0.9750977
vt 0.625 0.9750977
vt 0 0
vt 0.375 0.9750977
vt 0 0
vt 0 0
vt 0 0
vt 0.3847656 1
vt 0.6152344 1
vt 0.6152344 0.25
vt 0.3847656 0.25
vt 0.3811035 0.25
vt 0.375 0.25
vt 0.375 0.2749023
vt 0.5361328 0.286377
vt 0.5395508 0.2888184
vt 0.463623 0.286377
vt 0.4602051 0.2888184
vt 0.4577637 0.2954102
vt 0.4567871 0.3041992
vt 0.4567871 0.4458008
vt 0.375 0.4750977
vt 0.375 0.5
vt 0.3811035 0.5
vt 0.3847656 0.5
vt 0.4577637 0.4545898
vt 0.4602051 0.4611816
vt 0.463623 0.463623
vt 0.6152344 0.5
vt 0.6191406 0.5
vt 0.625 0.5
vt 0.625 0.4750977
vt 0.5361328 0.463623
vt 0.5395508 0.4611816
vt 0.625 0.2749023
vt 0.5424805 0.4545898
vt 0.5429688 0.4458008
vt 0.5429688 0.3041992
vt 0.5424805 0.2954102
vt 0.625 0.25
vt 0.6191406 0.25
vn -0.7070313 0 -0.7070313
vn -0.7070313 0 -0.7070313
vn -0.5 0 -0.8662109
vn -0.5 0 -0.8662109
vn -0.00553894 0 -1
vn -0.00553894 0 -1
vn 0.00553894 0 -1
vn 0.00553894 0 -1
vn 0.5 0 -0.8662109
vn 0.5 0 -0.8662109
vn 0.7070313 0 -0.7070313
vn 0.7070313 0 -0.7070313
vn -1 0 -0.01576233
vn -0.9658203 0 -0.2587891
vn -0.9658203 0 -0.2587891
vn -1 0 -0.01576233
vn -1 0 0.01576233
vn -1 0 0.01576233
vn -0.9658203 0 0.2587891
vn -0.9658203 0 0.2587891
vn -0.7070313 0 0.7070313
vn -0.7070313 0 0.7070313
vn -0.5 0 0.8662109
vn -0.5 0 0.8662109
vn -0.00553894 0 1
vn -0.00553894 0 1
vn 0.00553894 0 1
vn 0.00553894 0 1
vn 0.5 0 0.8662109
vn 0.5 0 0.8662109
vn 0.7070313 0 0.7070313
vn 0.7070313 0 0.7070313
vn 0.7070313 0 0.7070313
vn 0.7070313 0 0.7070313
vn 0.7070313 0 0.7070313
vn 0.7070313 0 0.7070313
vn 0.012146 0 1
vn 0.2587891 0 0.9658203
vn 0.2587891 0 0.9658203
vn 0.012146 0 1
vn -0.012146 0 1
vn -0.012146 0 1
vn -0.2587891 0 0.9658203
vn -0.2587891 0 0.9658203
vn 0.9658203 0 0.2587891
vn 0.9658203 0 0.2587891
vn 1 0 0.01576233
vn 1 0 0.01576233
vn 1 0 -0.01576233
vn 1 0 -0.01576233
vn 0.9658203 0 -0.2587891
vn 0.9658203 0 -0.2587891
vn 0.7070313 0 -0.7070313
vn 0.7070313 0 -0.7070313
vn 0.7070313 0 -0.7070313
vn 0.7070313 0 -0.7070313
vn 0.2587891 0 -0.9658203
vn 0.2587891 0 -0.9658203
vn 0.012146 0 -1
vn 0.012146 0 -1
vn -0.012146 0 -1
vn -0.012146 0 -1
vn -0.2587891 0 -0.9658203
vn -0.2587891 0 -0.9658203
vn -0.7070313 0 0.7070313
vn -0.7070313 0 0.7070313
vn -0.7070313 0 0.7070313
vn -0.7070313 0 0.7070313
vn -1 0 0.01576233
vn -0.9658203 0 0.2587891
vn -0.9658203 0 0.2587891
vn -1 0 0.01576233
vn -1 0 -0.01576233
vn -1 0 -0.01576233
vn -0.9658203 0 -0.2587891
vn -0.9658203 0 -0.2587891
vn 0.9658203 0 -0.2587891
vn 0.9658203 0 -0.2587891
vn 1 0 -0.01576233
vn 1 0 -0.01576233
vn 1 0 0.01576233
vn 1 0 0.01576233
vn 0.9658203 0 0.2587891
vn 0.9658203 0 0.2587891
vn -0.7070313 0 -0.7070313
vn -0.7070313 0 -0.7070313
vn -0.7070313 0 -0.7070313
vn -0.7070313 0 -0.7070313
vn 0 -1 0
vn 0 -1 0
vn 0 -1 0
vn 0 -1 0
vn 0 -1 0
vn 0 -1 0
vn 0 -1 0
vn 0 -1 0
vn 0 -1 0
vn 0 -1 0
vn 0 -1 0
vn 0 -1 0
vn 0 -1 0
vn 0 -1 0
vn 0 -1 0
vn 0 -1 0
vn 0 -1 0
vn 0 -1 0
vn 0 1 0
vn 0 1 0
vn 0 1 0
vn 0 1 0
vn 0 1 0
vn 0 1 0
vn 0 1 0
vn 0 1 0
vn 0 1 0
vn 0 1 0
vn 0 1 0
vn 0 1 0
vn 0 1 0
vn 0 1 0
vn 0 1 0
vn 0 1 0
vn 0 1 0
vn 0 1 0
vn 0 1 0
vn 0 1 0
vn 0 1 0
vn 0 1 0
vn 0 1 0
vn 0 1 0
vn 0 1 0
vn 0 1 0
vn 0 1 0
vn 0 1 0
vn 0 1 0
vn 0 1 0
vn 0 1 0
vn 0 1 0
vn 0 1 0
vn 0 1 0
vn 0 1 0
vn 0 1 0
vn 0 1 0
vn 0 1 0
vn 0 1 0
vn 0 1 0
vn 0 1 0
vn 0 1 0
vn 0 1 0
vn 0 1 0
vn 0 1 0
vn 0 1 0
vn 0 1 0
vn 0 1 0
vn 0 1 0
vn 0 1 0
g pCube55_0
f 3/3/3 2/2/2 1/1/1
f 4/4/4 3/3/3 1/1/1
f 5/5/5 3/3/3 4/4/4
f 6/6/6 5/5/5 4/4/4
f 6/6/6 7/7/7 5/5/5
f 7/7/7 8/8/8 5/5/5
f 9/9/9 8/8/8 7/7/7
f 10/10/10 9/9/9 7/7/7
f 11/11/11 9/9/9 10/10/10
f 12/12/12 11/11/11 10/10/10
f 15/15/15 14/14/14 13/13/13
f 14/14/14 16/16/16 13/13/13
f 16/16/16 17/17/17 13/13/13
f 17/17/17 18/18/18 13/13/13
f 19/19/19 18/18/18 17/17/17
f 20/20/20 19/19/19 17/17/17
f 23/23/23 22/22/22 21/21/21
f 24/24/24 23/23/23 21/21/21
f 25/25/25 23/23/23 24/24/24
f 26/26/26 25/25/25 24/24/24
f 26/26/26 27/27/27 25/25/25
f 27/27/27 28/28/28 25/25/25
f 29/29/29 28/28/28 27/27/27
f 30/30/30 29/29/29 27/27/27
f 31/31/31 29/29/29 30/30/30
f 32/32/32 31/31/31 30/30/30
f 35/35/35 34/34/34 33/33/33
f 36/36/36 35/35/35 33/33/33
f 39/39/39 38/38/38 37/37/37
f 38/38/38 40/40/40 37/37/37
f 37/37/37 40/40/40 41/41/41
f 40/40/40 42/42/42 41/41/41
f 41/41/41 42/42/42 43/43/43
f 42/42/42 44/44/44 43/43/43
f 47/47/47 46/46/46 45/45/45
f 48/48/48 47/47/47 45/45/45
f 49/49/49 47/47/47 48/48/48
f 50/50/50 49/49/49 48/48/48
f 51/51/51 49/49/49 50/50/50
f 52/52/52 51/51/51 50/50/50
f 55/55/55 54/54/54 53/53/53
f 56/56/56 55/55/55 53/53/53
f 59/59/59 58/58/58 57/57/57
f 60/60/60 59/59/59 57/57/57
f 61/61/61 59/59/59 60/60/60
f 62/62/62 61/61/61 60/60/60
f 63/63/63 61/61/61 62/62/62
f 64/64/64 63/63/63 62/62/62
f 67/67/67 66/66/66 65/65/65
f 68/68/68 67/67/67 65/65/65
f 71/71/71 70/70/70 69/69/69
f 70/70/70 72/72/72 69/69/69
f 69/69/69 72/72/72 73/73/73
f 72/72/72 74/74/74 73/73/73
f 73/73/73 74/74/74 75/75/75
f 74/74/74 76/76/76 75/75/75
f 79/79/79 78/78/78 77/77/77
f 80/80/80 79/79/79 77/77/77
f 79/79/79 80/80/80 81/81/81
f 82/82/82 79/79/79 81/81/81
f 82/82/82 81/81/81 83/83/83
f 81/81/81 84/84/84 83/83/83
f 87/87/87 86/86/86 85/85/85
f 88/88/88 87/87/87 85/85/85
f 91/91/91 90/90/90 89/89/89
f 89/89/89 92/92/92 91/91/91
f 89/89/89 93/93/93 92/92/92
f 93/93/93 94/94/94 92/92/92
f 93/93/93 95/95/95 94/94/94
f 95/95/95 96/96/96 94/94/94
f 95/95/95 97/97/97 96/96/96
f 97/97/97 98/98/98 96/96/96
f 101/101/101 100/100/100 99/99/99
f 100/100/100 102/102/102 99/99/99
f 100/100/100 103/103/103 102/102/102
f 103/103/103 104/104/104 102/102/102
f 103/103/103 105/105/105 104/104/104
f 105/105/105 106/106/106 104/104/104
f 109/109/109 108/108/108 107/107/107
f 107/107/107 110/110/110 109/109/109
f 107/107/107 111/111/111 110/110/110
f 111/111/111 112/112/112 110/110/110
f 111/111/111 113/113/113 112/112/112
f 113/113/113 114/114/114 112/112/112
f 113/113/113 115/115/115 114/114/114
f 115/115/115 116/116/116 114/114/114
f 119/119/119 118/118/118 117/117/117
f 118/118/118 120/120/120 117/117/117
f 118/118/118 121/121/121 120/120/120
f 121/121/121 122/122/122 120/120/120
f 121/121/121 123/123/123 122/122/122
f 123/123/123 124/124/124 122/122/122
f 127/127/127 126/126/126 125/125/125
f 128/128/128 127/127/127 125/125/125
f 129/129/129 128/128/128 125/125/125
f 130/130/130 129/129/129 125/125/125
f 131/131/131 130/130/130 125/125/125
f 129/129/129 130/130/130 132/132/132
f 129/129/129 132/132/132 133/133/133
f 129/129/129 133/133/133 134/134/134
f 129/129/129 134/134/134 135/135/135
f 129/129/129 135/135/135 136/136/136
f 137/137/137 129/129/129 136/136/136
f 138/138/138 137/137/137 136/136/136
f 139/139/139 138/138/138 136/136/136
f 136/136/136 140/140/140 139/139/139
f 140/140/140 136/136/136 141/141/141
f 140/140/140 141/141/141 142/142/142
f 140/140/140 142/142/142 143/143/143
f 143/143/143 144/144/144 140/140/140
f 143/143/143 145/145/145 144/144/144
f 143/143/143 146/146/146 145/145/145
f 143/143/143 147/147/147 146/146/146
f 147/147/147 143/143/143 148/148/148
f 147/147/147 148/148/148 149/149/149
f 149/149/149 150/150/150 147/147/147
f 149/149/149 151/151/151 150/150/150
f 151/151/151 152/152/152 150/150/150
f 152/152/152 153/153/153 150/150/150
f 153/153/153 154/154/154 150/150/150
f 154/154/154 125/125/125 150/150/150
f 125/125/125 154/154/154 131/131/131
f 125/125/125 155/155/155 150/150/150
f 125/125/125 156/156/156 155/155/155
