g pCube19
v -0.05141428 -0.1894618 0.1740216
v 0.05141428 -0.06315438 0.128616
v 0.05141428 -0.1894618 0.1740216
v -0.05141428 -0.06315438 0.128616
v 0.05141428 0.06315406 0.128616
v -0.05141428 0.06315406 0.128616
v 0.05141428 0.1894615 0.1740216
v -0.05141428 0.1894615 0.1740216
v -0.05141428 0.1894615 0.1740216
v -0.05141428 0.1894615 -0.1740214
v 0.05141428 0.1894615 -0.1740214
v 0.05141428 0.1894615 0.1740216
v -0.05141428 -0.06315438 -0.1740214
v -0.05141428 -0.1894618 -0.1740214
v 0.05141428 -0.1894618 -0.1740214
v 0.05141428 -0.06315438 -0.1740214
v -0.05141428 0.06315406 -0.1740214
v 0.05141428 0.06315406 -0.1740214
v -0.05141428 0.1894615 -0.1740214
v 0.05141428 0.1894615 -0.1740214
v -0.05141428 -0.1894618 -0.1740214
v -0.05141428 -0.1894618 0.1740216
v 0.05141428 -0.1894618 0.1740216
v 0.05141428 -0.1894618 -0.1740214
v 0.05141428 -0.1894618 0.1740216
v 0.05141428 -0.06315438 -0.1740214
v 0.05141428 -0.1894618 -0.1740214
v 0.05141428 -0.06315438 0.128616
v 0.05141428 0.06315406 -0.1740214
v 0.05141428 0.06315406 0.128616
v 0.05141428 0.1894615 -0.1740214
v 0.05141428 0.1894615 0.1740216
v -0.05141428 -0.1894618 -0.1740214
v -0.05141428 -0.06315438 0.128616
v -0.05141428 -0.1894618 0.1740216
v -0.05141428 -0.06315438 -0.1740214
v -0.05141428 0.06315406 0.128616
v -0.05141428 0.06315406 -0.1740214
v -0.05141428 0.1894615 0.1740216
v -0.05141428 0.1894615 -0.1740214
vt 0.375 0
vt 0.625 0.08331299
vt 0.625 0
vt 0.375 0.08331299
vt 0.625 0.166626
vt 0.375 0.166626
vt 0.625 0.25
vt 0.375 0.25
vt 0.375 0.25
vt 0.375 0.5
vt 0.625 0.5
vt 0.625 0.25
vt 0.375 0.6665039
vt 0.375 0.75
vt 0.625 0.75
vt 0.625 0.6665039
vt 0.375 0.5834961
vt 0.625 0.5834961
vt 0.375 0.5
vt 0.625 0.5
vt 0.375 0.75
vt 0.375 1
vt 0.625 1
vt 0.625 0.75
vt 0.625 0
vt 0.875 0.08331299
vt 0.875 0
vt 0.625 0.08331299
vt 0.875 0.166626
vt 0.625 0.166626
vt 0.875 0.25
vt 0.625 0.25
vt 0.125 0
vt 0.375 0.08331299
vt 0.375 0
vt 0.125 0.08331299
vt 0.375 0.166626
vt 0.125 0.166626
vt 0.375 0.25
vt 0.125 0.25
vn 0 0.3383789 0.940918
vn 0 0.1768799 0.984375
vn 0 0.3383789 0.940918
vn 0 0.1768799 0.984375
vn 0 -0.1768799 0.984375
vn 0 -0.1768799 0.984375
vn 0 -0.3383789 0.940918
vn 0 -0.3383789 0.940918
vn 0 1 0
vn 0 1 0
vn 0 1 0
vn 0 1 0
vn 0 0 -1
vn 0 0 -1
vn 0 0 -1
vn 0 0 -1
vn 0 0 -1
vn 0 0 -1
vn 0 0 -1
vn 0 0 -1
vn 0 -1 0
vn 0 -1 0
vn 0 -1 0
vn 0 -1 0
vn 1 0 0
vn 1 0 0
vn 1 0 0
vn 1 0 0
vn 1 0 0
vn 1 0 0
vn 1 0 0
vn 1 0 0
vn -1 0 0
vn -1 0 0
vn -1 0 0
vn -1 0 0
vn -1 0 0
vn -1 0 0
vn -1 0 0
vn -1 0 0
g pCube19_0
f 3/3/3 2/2/2 1/1/1
f 2/2/2 4/4/4 1/1/1
f 2/2/2 5/5/5 4/4/4
f 5/5/5 6/6/6 4/4/4
f 5/5/5 7/7/7 6/6/6
f 7/7/7 8/8/8 6/6/6
f 11/11/11 10/10/10 9/9/9
f 12/12/12 11/11/11 9/9/9
f 15/15/15 14/14/14 13/13/13
f 16/16/16 15/15/15 13/13/13
f 16/16/16 13/13/13 17/17/17
f 18/18/18 16/16/16 17/17/17
f 18/18/18 17/17/17 19/19/19
f 20/20/20 18/18/18 19/19/19
f 23/23/23 22/22/22 21/21/21
f 24/24/24 23/23/23 21/21/21
f 27/27/27 26/26/26 25/25/25
f 26/26/26 28/28/28 25/25/25
f 26/26/26 29/29/29 28/28/28
f 29/29/29 30/30/30 28/28/28
f 29/29/29 31/31/31 30/30/30
f 31/31/31 32/32/32 30/30/30
f 35/35/35 34/34/34 33/33/33
f 34/34/34 36/36/36 33/33/33
f 34/34/34 37/37/37 36/36/36
f 37/37/37 38/38/38 36/36/36
f 37/37/37 39/39/39 38/38/38
f 39/39/39 40/40/40 38/38/38
