g pCube18
v 0.04286657 0.02405065 0.01210018
v 0.04311312 0.02324566 0.01209742
v 0.03288709 0.02172123 0.02502712
v 0.03257414 0.02274296 0.02503062
v 0.02752843 0.02000755 0.02782325
v 0.0271834 0.02113404 0.02782711
v 0.01700186 0.01624531 0.0309361
v 0.01678569 0.01695107 0.03093852
v 0.002288711 0.01034228 0.03173504
v 0.002097976 0.01096499 0.03173717
v -0.01340616 0.0004640913 0.02573597
v -0.01364095 0.001230632 0.0257386
v -0.03038976 -0.01558776 0.01138306
v -0.03063194 -0.014797 0.01138577
v 0.04621572 0.02463502 0.003749655
v 0.04310894 0.02508015 -0.0006068451
v 0.04633871 0.02469595 0.0005212759
v 0.04290904 0.02498115 0.004639772
v 0.04286657 0.02405065 0.01210018
v 0.03755264 0.02541351 -0.001100933
v 0.03733089 0.02530368 0.004719553
v 0.04363512 0.02443133 -0.008072641
v 0.04633871 0.02469595 0.0005212759
v 0.03634509 0.0249935 -0.008483624
v 0.03442202 0.02341597 -0.0217813
v 0.03195583 0.02526193 -0.001533055
v 0.03096105 0.02471359 -0.008879371
v 0.02930396 0.0217823 -0.02502712
v 0.0212396 0.02280188 -0.009583111
v 0.01902091 0.01824635 -0.02904296
v 0.02239942 0.02366279 -0.001921283
v 0.00638887 0.01546556 -0.0107227
v 0.004445816 0.01230691 -0.03113654
v 0.03171761 0.02514392 0.004719886
v 0.007148941 0.01676193 -0.002606486
v -0.007758378 0.006274745 -0.01187417
v -0.01164501 0.002219264 -0.02664987
v -0.02966013 -0.01431563 -0.0141223
v -0.00546428 0.008603542 -0.003210198
v -0.02940189 -0.01270946 -0.004443942
v -0.04423546 -0.0313318 -0.002158314
v -0.02964012 -0.01282746 0.001808998
v 0.0221612 0.0235448 0.004331657
v 0.006910721 0.01664392 0.003646454
v -0.0057025 0.008485531 0.003042743
v -0.03063194 -0.014797 0.01138577
v -0.04423546 -0.0313318 -0.002158314
v -0.008639864 0.005837749 0.01141561
v -0.01364095 0.001230632 0.0257386
v 0.005540741 0.01504539 0.01161907
v 0.002097976 0.01096499 0.03173717
v 0.02042746 0.02239946 0.01183412
v 0.01678569 0.01695107 0.03093852
v 0.03017143 0.02432243 0.01193063
v 0.0271834 0.02113404 0.02782711
v 0.03556966 0.02460966 0.01195537
v 0.03257414 0.02274296 0.02503062
v 0.04680302 0.02317997 0.0005160798
v 0.04388168 0.02362635 -0.008075399
v 0.04357325 0.02356416 -0.0006120417
v 0.03801695 0.02389753 -0.001106129
v 0.03674796 0.02374337 -0.008377514
v 0.03459766 0.02284254 -0.02178326
v 0.0294371 0.02134762 -0.02502861
v 0.03137258 0.02343069 -0.008766217
v 0.01931455 0.01728761 -0.02904624
v 0.02165952 0.02150517 -0.009465078
v 0.004709716 0.01144525 -0.03113949
v 0.03242015 0.02374592 -0.001538251
v 0.006797592 0.01418774 -0.01060535
v -0.01142256 0.001493022 -0.02665236
v 0.02286374 0.02214677 -0.00192648
v -0.007345963 0.005051845 -0.01176932
v -0.02941792 -0.01510639 -0.01412501
v 0.007613266 0.01524592 -0.002611682
v -0.00499997 0.007087551 -0.003215394
v -0.02893758 -0.01422545 -0.004449139
v -0.0440508 -0.03193469 -0.002160381
v -0.0291758 -0.01434345 0.001803802
v -0.0440508 -0.03193469 -0.002160381
v -0.03038976 -0.01558776 0.01138306
v -0.00523819 0.006969554 0.003037547
v -0.008260331 0.004603984 0.01140768
v -0.01340616 0.0004640913 0.02573597
v 0.002288711 0.01034228 0.03173504
v 0.005939484 0.0137467 0.0116104
v 0.01700186 0.01624531 0.0309361
v 0.00737503 0.01512793 0.003641258
v 0.02082962 0.02109021 0.01182543
v 0.02752843 0.02000755 0.02782325
v 0.02262551 0.02202877 0.00432646
v 0.03056668 0.02303515 0.01192217
v 0.03288709 0.02172123 0.02502712
v 0.03218193 0.02362793 0.004714689
v 0.03595513 0.02335452 0.01194726
v 0.04311312 0.02324566 0.01209742
v 0.0377952 0.02378768 0.004714356
v 0.04337336 0.02346514 0.004634575
v 0.04668003 0.02311904 0.003744459
v 0.04680302 0.02317997 0.0005160798
v -0.0440508 -0.03193469 -0.002160381
v -0.04423546 -0.0313318 -0.002158314
v -0.03063194 -0.014797 0.01138577
v -0.03038976 -0.01558776 0.01138306
v -0.02941792 -0.01510639 -0.01412501
v -0.04423546 -0.0313318 -0.002158314
v -0.0440508 -0.03193469 -0.002160381
v -0.02966013 -0.01431563 -0.0141223
v -0.01142256 0.001493022 -0.02665236
v -0.01164501 0.002219264 -0.02664987
v 0.004709716 0.01144525 -0.03113949
v 0.004445816 0.01230691 -0.03113654
v 0.01931455 0.01728761 -0.02904624
v 0.01902091 0.01824635 -0.02904296
v 0.0294371 0.02134762 -0.02502861
v 0.02930396 0.0217823 -0.02502712
v 0.03459766 0.02284254 -0.02178326
v 0.03442202 0.02341597 -0.0217813
v 0.04388168 0.02362635 -0.008075399
v 0.04363512 0.02443133 -0.008072641
v 0.04680302 0.02317997 0.0005160798
v 0.04633871 0.02469595 0.0005212759
v 0.04668003 0.02311904 0.003744459
v 0.04621572 0.02463502 0.003749655
v 0.04311312 0.02324566 0.01209742
v 0.04286657 0.02405065 0.01210018
vt 0.375 0.5
vt 0.375 0.75
vt 0.416748 0.75
vt 0.416748 0.5
vt 0.458252 0.75
vt 0.458252 0.5
vt 0.5 0.75
vt 0.5 0.5
vt 0.5415039 0.75
vt 0.5415039 0.5
vt 0.5834961 0.75
vt 0.5834961 0.5
vt 0.625 0.75
vt 0.625 0.5
vt 0.375 0.4138184
vt 0.3847656 0.3361816
vt 0.3818359 0.375
vt 0.3847656 0.4138184
vt 0.375 0.5
vt 0.416748 0.3583984
vt 0.416748 0.3916016
vt 0.375 0.25
vt 0.375 0.3361816
vt 0.416748 0.3195801
vt 0.416748 0.25
vt 0.458252 0.3601074
vt 0.458252 0.3256836
vt 0.458252 0.25
vt 0.5 0.3303223
vt 0.5 0.25
vt 0.5 0.3620605
vt 0.5415039 0.3305664
vt 0.5415039 0.25
vt 0.458252 0.3898926
vt 0.5415039 0.3625488
vt 0.5834961 0.3193359
vt 0.5834961 0.25
vt 0.625 0.25
vt 0.5834961 0.3601074
vt 0.6142578 0.3442383
vt 0.6235352 0.3596191
vt 0.6142578 0.4057617
vt 0.5 0.3879395
vt 0.5415039 0.3874512
vt 0.5834961 0.3898926
vt 0.625 0.5
vt 0.625 0.4057617
vt 0.5834961 0.4304199
vt 0.5834961 0.5
vt 0.5415039 0.4194336
vt 0.5415039 0.5
vt 0.5 0.4196777
vt 0.5 0.5
vt 0.458252 0.4240723
vt 0.458252 0.5
vt 0.416748 0.4301758
vt 0.416748 0.5
vt 0.375 0.9135742
vt 0.375 1
vt 0.3847656 0.9135742
vt 0.416748 0.8916016
vt 0.416748 0.9296875
vt 0.416748 1
vt 0.458252 1
vt 0.458252 0.9238281
vt 0.5 1
vt 0.5 0.9189453
vt 0.5415039 1
vt 0.458252 0.8896484
vt 0.5415039 0.9189453
vt 0.5834961 1
vt 0.5 0.8881836
vt 0.5834961 0.9301758
vt 0.625 1
vt 0.5415039 0.887207
vt 0.5834961 0.8901367
vt 0.6142578 0.9057617
vt 0.625 0.9057617
vt 0.6142578 0.8442383
vt 0.6235352 0.8598633
vt 0.625 0.75
vt 0.5834961 0.8598633
vt 0.5834961 0.8193359
vt 0.5834961 0.75
vt 0.5415039 0.75
vt 0.5415039 0.8305664
vt 0.5 0.75
vt 0.5415039 0.862793
vt 0.5 0.8305664
vt 0.458252 0.75
vt 0.5 0.8618164
vt 0.458252 0.8256836
vt 0.416748 0.75
vt 0.458252 0.8603516
vt 0.416748 0.8198242
vt 0.375 0.75
vt 0.416748 0.8583984
vt 0.3847656 0.8364258
vt 0.375 0.8364258
vt 0.3818359 0.875
vt 0.75 0
vt 0.75 0.25
vt 0.875 0.25
vt 0.875 0
vt 0.625 0
vt 0.75 0.25
vt 0.75 0
vt 0.625 0.25
vt 0.5834961 0
vt 0.5834961 0.25
vt 0.5415039 0
vt 0.5415039 0.25
vt 0.5 0
vt 0.5 0.25
vt 0.458252 0
vt 0.458252 0.25
vt 0.416748 0
vt 0.416748 0.25
vt 0.375 0
vt 0.375 0.25
vt 0.2888184 0
vt 0.2888184 0.25
vt 0.2113037 0
vt 0.2113037 0.25
vt 0.125 0
vt 0.125 0.25
vn 0.8110352 0.246582 0.5307617
vn 0.8193359 0.2491455 0.5161133
vn 0.6674805 0.2019043 0.7167969
vn 0.6586914 0.1992188 0.7255859
vn 0.3232422 0.0958252 0.9414063
vn 0.3266602 0.09686279 0.9399414
vn 0.151001 0.04284668 0.987793
vn 0.1608887 0.04589844 0.9858398
vn -0.1660156 -0.05419922 0.9848633
vn -0.1282959 -0.04269409 0.9907227
vn -0.4697266 -0.1468506 0.8706055
vn -0.423584 -0.1328125 0.8959961
vn -0.5605469 -0.1744385 0.8095703
vn -0.550293 -0.1713867 0.8173828
vn 0.1184082 0.9916992 0.05426025
vn 0.08306885 0.9960938 -0.03546143
vn 0.1207886 0.9926758 -0.0076828
vn 0.07867432 0.9936523 0.07910156
vn 0.07177734 0.9887695 0.1324463
vn 0.02407837 0.9990234 -0.03225708
vn 0.02011108 0.9970703 0.0715332
vn 0.08050537 0.9921875 -0.09490967
vn 0.1207886 0.9926758 -0.0076828
vn -0.01235199 0.9941406 -0.1051636
vn -0.1082764 0.9848633 -0.1340332
vn -0.1174316 0.9926758 -0.02825928
vn -0.1713867 0.9765625 -0.1311035
vn -0.2062988 0.9633789 -0.1713867
vn -0.3303223 0.9350586 -0.128418
vn -0.354248 0.9238281 -0.1453857
vn -0.3222656 0.9458008 -0.03561401
vn -0.4692383 0.8769531 -0.102356
vn -0.4763184 0.8725586 -0.1063232
vn -0.1206055 0.9912109 0.05654907
vn -0.4753418 0.8789063 -0.04449463
vn -0.6108398 0.7890625 -0.06695557
vn -0.6015625 0.796875 -0.05728149
vn -0.7001953 0.7114258 -0.06069946
vn -0.6206055 0.7832031 -0.04516602
vn -0.7006836 0.7119141 -0.04772949
vn -0.7875977 0.6162109 -0.01826477
vn -0.703125 0.7104492 0.02116394
vn -0.3254395 0.9443359 0.04656982
vn -0.4785156 0.8769531 0.04135132
vn -0.6230469 0.7817383 0.02738953
vn -0.7036133 0.7099609 0.03405762
vn -0.7875977 0.6162109 -0.01826477
vn -0.6137695 0.7875977 0.05230713
vn -0.6035156 0.7958984 0.04452515
vn -0.4750977 0.8735352 0.1044922
vn -0.4819336 0.8691406 0.1092529
vn -0.3476563 0.9277344 0.1374512
vn -0.3710938 0.9155273 0.1556396
vn -0.1917725 0.9707031 0.1450195
vn -0.241333 0.9541016 0.1785889
vn -0.01893616 0.9912109 0.1315918
vn -0.1124268 0.9829102 0.1450195
vn -0.1112061 -0.9936523 -0.0199585
vn -0.03286743 -0.9990234 0.03019714
vn -0.06201172 -0.9980469 -0.00712204
vn -0.009002686 -1 0.0004982948
vn 0.04162598 -0.9980469 0.05126953
vn 0.1246338 -0.9892578 0.07879639
vn 0.2390137 -0.9624023 0.1290283
vn 0.1911621 -0.9775391 0.09039307
vn 0.3625488 -0.9243164 0.1202393
vn 0.3415527 -0.9345703 0.09967041
vn 0.4729004 -0.8769531 0.08349609
vn 0.1193237 -0.9926758 0.01062012
vn 0.4675293 -0.8803711 0.07824707
vn 0.5942383 -0.8037109 0.03071594
vn 0.3234863 -0.9462891 0.01950073
vn 0.6069336 -0.7944336 0.03192139
vn 0.6904297 -0.7231445 0.01210022
vn 0.4760742 -0.8789063 0.02798462
vn 0.6201172 -0.7841797 0.02204895
vn 0.6933594 -0.7207031 0.01521301
vn 0.7617188 -0.6474609 0.01679993
vn 0.6933594 -0.7202148 0.01078033
vn 0.7617188 -0.6474609 0.01679993
vn 0.6904297 -0.7231445 0.01305389
vn 0.6210938 -0.7836914 -0.004161835
vn 0.609375 -0.7929688 -0.01499939
vn 0.597168 -0.8017578 -0.01573181
vn 0.4807129 -0.8735352 -0.07696533
vn 0.4743652 -0.8774414 -0.07299805
vn 0.3669434 -0.9213867 -0.1268311
vn 0.4777832 -0.8779297 -0.02507019
vn 0.3430176 -0.9326172 -0.1106567
vn 0.2307129 -0.9594727 -0.1607666
vn 0.3254395 -0.9453125 -0.03077698
vn 0.1895752 -0.9741211 -0.1224976
vn 0.135498 -0.9829102 -0.1257324
vn 0.1213379 -0.9916992 -0.0390625
vn 0.04824829 -0.9941406 -0.09637451
vn -0.02896118 -0.996582 -0.07641602
vn -0.007339478 -0.9990234 -0.03903198
vn -0.06072998 -0.9975586 -0.03533936
vn -0.1109619 -0.9936523 -0.02600098
vn -0.1112061 -0.9936523 -0.0199585
vn -0.5761719 -0.1791992 0.7973633
vn -0.5761719 -0.1791992 0.7973633
vn -0.550293 -0.1713867 0.8173828
vn -0.5605469 -0.1744385 0.8095703
vn -0.4970703 -0.149292 -0.8549805
vn -0.5131836 -0.1542969 -0.8442383
vn -0.5131836 -0.1542969 -0.8442383
vn -0.486084 -0.145874 -0.8618164
vn -0.3930664 -0.1172485 -0.9121094
vn -0.3432617 -0.1019287 -0.9335938
vn -0.07434082 -0.01934814 -0.9970703
vn -0.03549194 -0.00743866 -0.9995117
vn 0.1953125 0.06317139 -0.9785156
vn 0.2039795 0.06585693 -0.9765625
vn 0.3762207 0.1184082 -0.9189453
vn 0.3786621 0.1191406 -0.9179688
vn 0.7456055 0.2305908 -0.625
vn 0.7397461 0.2286377 -0.6333008
vn 0.8657227 0.2666016 -0.4238281
vn 0.8579102 0.2641602 -0.4406738
vn 0.9399414 0.2885742 -0.1833496
vn 0.9379883 0.2878418 -0.1932373
vn 0.921875 0.2814941 0.265625
vn 0.9199219 0.2807617 0.2739258
vn 0.8193359 0.2491455 0.5161133
vn 0.8110352 0.246582 0.5307617
g pCube18_0
f 3/3/3 2/2/2 1/1/1
f 4/4/4 3/3/3 1/1/1
f 5/5/5 3/3/3 4/4/4
f 6/6/6 5/5/5 4/4/4
f 7/7/7 5/5/5 6/6/6
f 8/8/8 7/7/7 6/6/6
f 9/9/9 7/7/7 8/8/8
f 10/10/10 9/9/9 8/8/8
f 11/11/11 9/9/9 10/10/10
f 12/12/12 11/11/11 10/10/10
f 13/13/13 11/11/11 12/12/12
f 14/14/14 13/13/13 12/12/12
f 17/17/17 16/16/16 15/15/15
f 16/16/16 18/18/18 15/15/15
f 18/18/18 19/19/19 15/15/15
f 16/16/16 20/20/20 18/18/18
f 18/18/18 21/21/21 19/19/19
f 20/20/20 21/21/21 18/18/18
f 20/20/20 16/16/16 22/22/22
f 16/16/16 23/23/23 22/22/22
f 24/24/24 20/20/20 22/22/22
f 25/25/25 24/24/24 22/22/22
f 26/26/26 20/20/20 24/24/24
f 20/20/20 26/26/26 21/21/21
f 27/27/27 24/24/24 25/25/25
f 27/27/27 26/26/26 24/24/24
f 28/28/28 27/27/27 25/25/25
f 29/29/29 27/27/27 28/28/28
f 30/30/30 29/29/29 28/28/28
f 31/31/31 26/26/26 27/27/27
f 29/29/29 31/31/31 27/27/27
f 32/32/32 29/29/29 30/30/30
f 33/33/33 32/32/32 30/30/30
f 26/26/26 34/34/34 21/21/21
f 26/26/26 31/31/31 34/34/34
f 35/35/35 31/31/31 29/29/29
f 32/32/32 35/35/35 29/29/29
f 36/36/36 32/32/32 33/33/33
f 37/37/37 36/36/36 33/33/33
f 38/38/38 36/36/36 37/37/37
f 36/36/36 39/39/39 32/32/32
f 39/39/39 35/35/35 32/32/32
f 38/38/38 40/40/40 36/36/36
f 40/40/40 39/39/39 36/36/36
f 38/38/38 41/41/41 40/40/40
f 40/40/40 41/41/41 42/42/42
f 31/31/31 35/35/35 43/43/43
f 31/31/31 43/43/43 34/34/34
f 35/35/35 39/39/39 44/44/44
f 35/35/35 44/44/44 43/43/43
f 39/39/39 40/40/40 45/45/45
f 40/40/40 42/42/42 45/45/45
f 39/39/39 45/45/45 44/44/44
f 42/42/42 46/46/46 45/45/45
f 42/42/42 47/47/47 46/46/46
f 46/46/46 48/48/48 45/45/45
f 45/45/45 48/48/48 44/44/44
f 46/46/46 49/49/49 48/48/48
f 48/48/48 50/50/50 44/44/44
f 48/48/48 49/49/49 50/50/50
f 44/44/44 50/50/50 43/43/43
f 49/49/49 51/51/51 50/50/50
f 50/50/50 52/52/52 43/43/43
f 50/50/50 51/51/51 52/52/52
f 43/43/43 52/52/52 34/34/34
f 51/51/51 53/53/53 52/52/52
f 52/52/52 54/54/54 34/34/34
f 52/52/52 53/53/53 54/54/54
f 34/34/34 54/54/54 21/21/21
f 53/53/53 55/55/55 54/54/54
f 54/54/54 56/56/56 21/21/21
f 54/54/54 55/55/55 56/56/56
f 21/21/21 56/56/56 19/19/19
f 55/55/55 57/57/57 56/56/56
f 56/56/56 57/57/57 19/19/19
f 60/60/60 59/59/59 58/58/58
f 60/60/60 61/61/61 59/59/59
f 61/61/61 62/62/62 59/59/59
f 62/62/62 63/63/63 59/59/59
f 64/64/64 63/63/63 62/62/62
f 65/65/65 64/64/64 62/62/62
f 65/65/65 62/62/62 61/61/61
f 66/66/66 64/64/64 65/65/65
f 67/67/67 66/66/66 65/65/65
f 68/68/68 66/66/66 67/67/67
f 69/69/69 65/65/65 61/61/61
f 67/67/67 65/65/65 69/69/69
f 70/70/70 68/68/68 67/67/67
f 71/71/71 68/68/68 70/70/70
f 72/72/72 67/67/67 69/69/69
f 70/70/70 67/67/67 72/72/72
f 73/73/73 71/71/71 70/70/70
f 74/74/74 71/71/71 73/73/73
f 73/73/73 70/70/70 75/75/75
f 75/75/75 70/70/70 72/72/72
f 74/74/74 73/73/73 76/76/76
f 76/76/76 73/73/73 75/75/75
f 77/77/77 74/74/74 76/76/76
f 77/77/77 78/78/78 74/74/74
f 79/79/79 77/77/77 76/76/76
f 79/79/79 80/80/80 77/77/77
f 81/81/81 80/80/80 79/79/79
f 82/82/82 76/76/76 75/75/75
f 82/82/82 79/79/79 76/76/76
f 81/81/81 79/79/79 83/83/83
f 79/79/79 82/82/82 83/83/83
f 81/81/81 83/83/83 84/84/84
f 84/84/84 83/83/83 85/85/85
f 83/83/83 86/86/86 85/85/85
f 83/83/83 82/82/82 86/86/86
f 85/85/85 86/86/86 87/87/87
f 88/88/88 82/82/82 75/75/75
f 82/82/82 88/88/88 86/86/86
f 88/88/88 75/75/75 72/72/72
f 86/86/86 89/89/89 87/87/87
f 86/86/86 88/88/88 89/89/89
f 87/87/87 89/89/89 90/90/90
f 91/91/91 88/88/88 72/72/72
f 88/88/88 91/91/91 89/89/89
f 91/91/91 72/72/72 69/69/69
f 89/89/89 92/92/92 90/90/90
f 89/89/89 91/91/91 92/92/92
f 90/90/90 92/92/92 93/93/93
f 94/94/94 91/91/91 69/69/69
f 91/91/91 94/94/94 92/92/92
f 94/94/94 69/69/69 61/61/61
f 92/92/92 95/95/95 93/93/93
f 92/92/92 94/94/94 95/95/95
f 93/93/93 95/95/95 96/96/96
f 97/97/97 94/94/94 61/61/61
f 94/94/94 97/97/97 95/95/95
f 95/95/95 97/97/97 96/96/96
f 97/97/97 61/61/61 60/60/60
f 97/97/97 98/98/98 96/96/96
f 98/98/98 97/97/97 60/60/60
f 98/98/98 99/99/99 96/96/96
f 98/98/98 60/60/60 100/100/100
f 99/99/99 98/98/98 100/100/100
f 103/103/103 102/102/102 101/101/101
f 104/104/104 103/103/103 101/101/101
f 107/107/107 106/106/106 105/105/105
f 106/106/106 108/108/108 105/105/105
f 105/105/105 108/108/108 109/109/109
f 108/108/108 110/110/110 109/109/109
f 109/109/109 110/110/110 111/111/111
f 110/110/110 112/112/112 111/111/111
f 111/111/111 112/112/112 113/113/113
f 112/112/112 114/114/114 113/113/113
f 113/113/113 114/114/114 115/115/115
f 114/114/114 116/116/116 115/115/115
f 115/115/115 116/116/116 117/117/117
f 116/116/116 118/118/118 117/117/117
f 117/117/117 118/118/118 119/119/119
f 118/118/118 120/120/120 119/119/119
f 119/119/119 120/120/120 121/121/121
f 120/120/120 122/122/122 121/121/121
f 123/123/123 121/121/121 122/122/122
f 124/124/124 123/123/123 122/122/122
f 123/123/123 124/124/124 125/125/125
f 124/124/124 126/126/126 125/125/125
