g pCube42
v -0.009433485 0.2212525 -0.03209521
v 0.00943352 0.2212525 -0.03209521
v 0.0343192 -0.2165373 0.05562746
v 0.02048201 -0.2165373 0.05562746
v 0.02048201 -0.2212527 0.03209522
v 0.0343192 -0.2212527 0.03209522
v 0.00943352 0.2165374 -0.05562745
v -0.009433485 0.2165374 -0.05562745
v 0.01886501 0.220074 -0.03797769
v 0.01886501 0.217716 -0.04974493
v 0.04123647 -0.2200739 0.03797768
v 0.04123647 -0.217716 0.04974499
v -0.01886497 0.217716 -0.04974493
v -0.01886497 0.220074 -0.03797769
v 0.01356484 -0.217716 0.04974499
v 0.01356484 -0.2200739 0.03797768
v -0.01886497 0.217716 -0.04974493
v -0.009433485 0.2165374 -0.05562745
v 0.00943352 0.2165374 -0.05562745
v 0.01886501 0.217716 -0.04974493
v -0.01886497 0.220074 -0.03797769
v 0.01886501 0.220074 -0.03797769
v -0.009433485 0.2212525 -0.03209521
v 0.00943352 0.2212525 -0.03209521
v 0.04123647 -0.2200739 0.03797768
v 0.0343192 -0.2212527 0.03209522
v 0.02048201 -0.2212527 0.03209522
v 0.01356484 -0.2200739 0.03797768
v 0.04123647 -0.217716 0.04974499
v 0.01356484 -0.217716 0.04974499
v 0.0343192 -0.2165373 0.05562746
v 0.02048201 -0.2165373 0.05562746
v 0.01356484 -0.217716 0.04974499
v -0.01886497 0.220074 -0.03797769
v -0.009433485 0.2212525 -0.03209521
v 0.02048201 -0.2165373 0.05562746
v 0.0343192 -0.2165373 0.05562746
v 0.00943352 0.2212525 -0.03209521
v 0.01886501 0.220074 -0.03797769
v 0.04123647 -0.217716 0.04974499
v -0.01886497 0.217716 -0.04974493
v 0.01356484 -0.2200739 0.03797768
v 0.02048201 -0.2212527 0.03209522
v -0.009433485 0.2165374 -0.05562745
v 0.00943352 0.2165374 -0.05562745
v 0.0343192 -0.2212527 0.03209522
v 0.04123647 -0.2200739 0.03797768
v 0.01886501 0.217716 -0.04974493
vt 0.4375 0.25
vt 0.5625 0.25
vt 0.5625 0
vt 0.4375 0
vt 0.4375 0.75
vt 0.5625 0.75
vt 0.5625 0.5
vt 0.4375 0.5
vt 0.6875 0.25
vt 0.8125 0.25
vt 0.8125 0
vt 0.6875 0
vt 0.1875 0.25
vt 0.3125 0.25
vt 0.3125 0
vt 0.1875 0
vt 0.375 0.4375
vt 0.4375 0.5
vt 0.5625 0.5
vt 0.625 0.4375
vt 0.375 0.3125
vt 0.625 0.3125
vt 0.4375 0.25
vt 0.5625 0.25
vt 0.625 0.8125
vt 0.5625 0.75
vt 0.4375 0.75
vt 0.375 0.8125
vt 0.625 0.9375
vt 0.375 0.9375
vt 0.5625 1
vt 0.4375 1
vt 0.3125 0
vt 0.3125 0.25
vt 0.4375 0.25
vt 0.4375 0
vt 0.5625 0
vt 0.5625 0.25
vt 0.6875 0.25
vt 0.6875 0
vt 0.375 0.4375
vt 0.375 0.8125
vt 0.4375 0.75
vt 0.4375 0.5
vt 0.5625 0.5
vt 0.5625 0.75
vt 0.625 0.8125
vt 0.625 0.4375
vn 0 0.1964111 0.9804688
vn 0 0.1964111 0.9804688
vn 0 0.1964111 0.9804688
vn 0 0.1964111 0.9804688
vn 0 -0.1964111 -0.9804688
vn 0 -0.1964111 -0.9804688
vn 0 -0.1964111 -0.9804688
vn 0 -0.1964111 -0.9804688
vn 0.9985352 0.04907227 -0.00983429
vn 0.9985352 0.04907227 -0.00983429
vn 0.9985352 0.04907227 -0.00983429
vn 0.9985352 0.04907227 -0.00983429
vn -0.9975586 -0.07104492 0.01423645
vn -0.9975586 -0.07104492 0.01423645
vn -0.9975586 -0.07104492 0.01423645
vn -0.9975586 -0.07104492 0.01423645
vn 0 0.9804688 -0.1964111
vn 0 0.9804688 -0.1964111
vn 0 0.9804688 -0.1964111
vn 0 0.9804688 -0.1964111
vn 0 0.9804688 -0.1964111
vn 0 0.9804688 -0.1964111
vn 0 0.9804688 -0.1964111
vn 0 0.9804688 -0.1964111
vn 0 -0.9804688 0.1965332
vn 0 -0.9804688 0.1965332
vn 0 -0.9804688 0.1965332
vn 0 -0.9804688 0.1965332
vn 0 -0.9804688 0.1965332
vn 0 -0.9804688 0.1965332
vn 0 -0.9804688 0.1965332
vn 0 -0.9804688 0.1965332
vn -0.5913086 0.1177979 0.7978516
vn -0.5913086 0.1177979 0.7978516
vn -0.5913086 0.1177979 0.7978516
vn -0.5913086 0.1177979 0.7978516
vn 0.5913086 0.1889648 0.7836914
vn 0.5913086 0.1889648 0.7836914
vn 0.5913086 0.1889648 0.7836914
vn 0.5913086 0.1889648 0.7836914
vn -0.5913086 -0.1987305 -0.7817383
vn -0.5913086 -0.1987305 -0.7817383
vn -0.5913086 -0.1987305 -0.7817383
vn -0.5913086 -0.1987305 -0.7817383
vn 0.5913086 -0.1276855 -0.7963867
vn 0.5913086 -0.1276855 -0.7963867
vn 0.5913086 -0.1276855 -0.7963867
vn 0.5913086 -0.1276855 -0.7963867
g pCube42_0
f 3/3/3 2/2/2 1/1/1
f 4/4/4 3/3/3 1/1/1
f 7/7/7 6/6/6 5/5/5
f 8/8/8 7/7/7 5/5/5
f 11/11/11 10/10/10 9/9/9
f 12/12/12 11/11/11 9/9/9
f 15/15/15 14/14/14 13/13/13
f 16/16/16 15/15/15 13/13/13
f 19/19/19 18/18/18 17/17/17
f 17/17/17 20/20/20 19/19/19
f 17/17/17 21/21/21 20/20/20
f 21/21/21 22/22/22 20/20/20
f 21/21/21 23/23/23 22/22/22
f 23/23/23 24/24/24 22/22/22
f 27/27/27 26/26/26 25/25/25
f 25/25/25 28/28/28 27/27/27
f 25/25/25 29/29/29 28/28/28
f 29/29/29 30/30/30 28/28/28
f 29/29/29 31/31/31 30/30/30
f 31/31/31 32/32/32 30/30/30
f 35/35/35 34/34/34 33/33/33
f 36/36/36 35/35/35 33/33/33
f 39/39/39 38/38/38 37/37/37
f 40/40/40 39/39/39 37/37/37
f 43/43/43 42/42/42 41/41/41
f 44/44/44 43/43/43 41/41/41
f 47/47/47 46/46/46 45/45/45
f 48/48/48 47/47/47 45/45/45
