g pCube57
v -0.9669257 0.6637312 0.02855913
v -0.9669257 0.6637312 -0.02855913
v -0.9229745 0.6637312 -0.02855913
v -0.9229745 0.6637312 0.02855913
v -0.8887279 0.6637312 0.02855913
v -0.8887279 0.6637312 -0.02855913
v -0.3223086 0.6637312 0.02855913
v -0.3223086 0.6637312 -0.02855913
v 0.3223085 0.6637312 -0.02855913
v 0.3223085 0.6637312 0.02855913
v 0.878389 0.6637312 -0.02855913
v 0.878389 0.6637312 0.02855913
v 0.9171875 0.6637312 0.02855913
v 0.9171875 0.6637312 -0.02855913
v 0.9669257 0.6637312 0.02855913
v 0.9669257 0.6637312 -0.02855913
v -0.9669257 -0.6252225 -0.02855913
v -0.9669257 -0.6637307 -0.02855913
v -0.9229745 -0.6637307 -0.02855913
v -0.9229745 -0.6252225 -0.02855913
v -0.9669257 -0.5960668 -0.02855913
v -0.8887279 -0.6252225 -0.02855913
v -0.8887279 -0.6637307 -0.02855913
v -0.9229745 -0.5960668 -0.02855913
v -0.9669257 -0.2212438 -0.02855913
v -0.3223086 -0.6252225 -0.02855913
v -0.3223086 -0.6637307 -0.02855913
v -0.9229745 -0.2212438 -0.02855913
v -0.9669257 0.3556601 -0.02855913
v -0.8887279 -0.5960668 -0.02855913
v 0.3223085 -0.6252225 -0.02855913
v 0.3223085 -0.6637307 -0.02855913
v -0.3223086 -0.5960668 -0.02855913
v 0.878389 -0.6252225 -0.02855913
v 0.878389 -0.6637307 -0.02855913
v -0.9229745 0.3556601 -0.02855913
v -0.9669257 0.5853983 -0.02855913
v -0.8887279 -0.2212438 -0.02855913
v 0.3223085 -0.5960668 -0.02855913
v 0.9171875 -0.6252225 -0.02855913
v 0.9171875 -0.6637307 -0.02855913
v -0.9229745 0.5853983 -0.02855913
v -0.9669257 0.6162195 -0.02855913
v -0.8887279 0.3556601 -0.02855913
v -0.3223086 -0.2212438 -0.02855913
v 0.878389 -0.5960668 -0.02855913
v 0.9669257 -0.6252225 -0.02855913
v 0.9669257 -0.6637307 -0.02855913
v 0.9171875 -0.5960668 -0.02855913
v 0.9669257 -0.5960668 -0.02855913
v -0.3223086 0.3556601 -0.02855913
v 0.3223085 -0.2212438 -0.02855913
v 0.9171875 -0.2212438 -0.02855913
v 0.9669257 -0.2212438 -0.02855913
v 0.878389 -0.2212438 -0.02855913
v 0.3223085 0.3556601 -0.02855913
v -0.3223086 0.5853983 -0.02855913
v 0.9171875 0.3556601 -0.02855913
v 0.9669257 0.3556601 -0.02855913
v 0.878389 0.3556601 -0.02855913
v 0.9171875 0.5853983 -0.02855913
v 0.9669257 0.5853983 -0.02855913
v 0.3223085 0.5853983 -0.02855913
v 0.878389 0.5853983 -0.02855913
v -0.8887279 0.5853983 -0.02855913
v 0.9171875 0.6162195 -0.02855913
v 0.9669257 0.6162195 -0.02855913
v 0.878389 0.6162195 -0.02855913
v 0.9171875 0.6637312 -0.02855913
v 0.9669257 0.6637312 -0.02855913
v 0.878389 0.6637312 -0.02855913
v 0.3223085 0.6637312 -0.02855913
v 0.3223085 0.6162195 -0.02855913
v -0.3223086 0.6637312 -0.02855913
v -0.3223086 0.6162195 -0.02855913
v -0.8887279 0.6162195 -0.02855913
v -0.8887279 0.6637312 -0.02855913
v -0.9229745 0.6162195 -0.02855913
v -0.9229745 0.6637312 -0.02855913
v -0.9669257 0.6637312 -0.02855913
v -0.9669257 -0.6637307 -0.02855913
v -0.9669257 -0.6637307 0.02855913
v -0.9229745 -0.6637307 0.02855913
v -0.9229745 -0.6637307 -0.02855913
v -0.8887279 -0.6637307 -0.02855913
v -0.8887279 -0.6637307 0.02855913
v -0.3223086 -0.6637307 -0.02855913
v -0.3223086 -0.6637307 0.02855913
v 0.3223085 -0.6637307 -0.02855913
v 0.3223085 -0.6637307 0.02855913
v 0.878389 -0.6637307 -0.02855913
v 0.878389 -0.6637307 0.02855913
v 0.9171875 -0.6637307 -0.02855913
v 0.9171875 -0.6637307 0.02855913
v 0.9669257 -0.6637307 -0.02855913
v 0.9669257 -0.6637307 0.02855913
v 0.9669257 -0.6637307 0.02855913
v 0.9669257 -0.6252225 -0.02855913
v 0.9669257 -0.6637307 -0.02855913
v 0.9669257 -0.6252225 0.02855913
v 0.9669257 -0.5960668 -0.02855913
v 0.9669257 -0.5960668 0.02855913
v 0.9669257 -0.2212438 -0.02855913
v 0.9669257 -0.2212438 0.02855913
v 0.9669257 0.3556601 -0.02855913
v 0.9669257 0.3556601 0.02855913
v 0.9669257 0.5853983 -0.02855913
v 0.9669257 0.5853983 0.02855913
v 0.9669257 0.6162195 -0.02855913
v 0.9669257 0.6162195 0.02855913
v 0.9669257 0.6637312 -0.02855913
v 0.9669257 0.6637312 0.02855913
v -0.9669257 -0.6637307 -0.02855913
v -0.9669257 -0.6252225 0.02855913
v -0.9669257 -0.6637307 0.02855913
v -0.9669257 -0.6252225 -0.02855913
v -0.9669257 -0.5960668 0.02855913
v -0.9669257 -0.5960668 -0.02855913
v -0.9669257 -0.2212438 0.02855913
v -0.9669257 -0.2212438 -0.02855913
v -0.9669257 0.3556601 0.02855913
v -0.9669257 0.3556601 -0.02855913
v -0.9669257 0.5853983 0.02855913
v -0.9669257 0.5853983 -0.02855913
v -0.9669257 0.6162195 0.02855913
v -0.9669257 0.6162195 -0.02855913
v -0.9669257 0.6637312 0.02855913
v -0.9669257 0.6637312 -0.02855913
v -0.9669257 0.6162195 0.02855913
v -0.9669257 0.6637312 0.02855913
v -0.9229745 0.6637312 0.02855913
v -0.9229745 0.6167158 0.02855913
v -0.9669257 0.5853983 0.02855913
v -0.9229745 0.5853983 0.02855913
v -0.9669257 0.3556601 0.02855913
v -0.9229745 0.3599863 0.02855913
v -0.9669257 -0.2212438 0.02855913
v -0.9229745 -0.22557 0.02855913
v -0.9669257 -0.5960668 0.02855913
v -0.9229745 -0.5960668 0.02855913
v -0.9669257 -0.6252225 0.02855913
v -0.8887279 0.6171606 0.02855913
v -0.8887279 0.6637312 0.02855913
v -0.9229745 -0.6252225 0.02855913
v -0.3223086 0.6637312 0.02855913
v -0.326635 0.6180952 0.02855913
v 0.3266348 0.6180952 0.02855913
v 0.3223085 0.6637312 0.02855913
v 0.878389 0.6171606 0.02855913
v 0.878389 0.6637312 0.02855913
v -0.9669257 -0.6637307 0.02855913
v -0.9229745 -0.6637307 0.02855913
v -0.8887279 -0.6637307 0.02855913
v -0.8887279 -0.6252225 0.02855913
v -0.3223086 -0.6637307 0.02855913
v -0.326635 -0.6252225 0.02855913
v 0.3223085 -0.6637307 0.02855913
v 0.3266348 -0.6252225 0.02855913
v 0.9171875 0.6167158 0.02855913
v 0.878389 -0.6637307 0.02855913
v 0.878389 -0.6252225 0.02855913
v 0.9171875 -0.6252225 0.02855913
v 0.9171875 -0.6637307 0.02855913
v 0.9669257 -0.6637307 0.02855913
v 0.9669257 -0.6252225 0.02855913
v 0.9171875 -0.5960668 0.02855913
v 0.9669257 -0.5960668 0.02855913
v 0.9171875 -0.22557 0.02855913
v 0.9669257 -0.2212438 0.02855913
v 0.9171875 0.3599863 0.02855913
v 0.9669257 0.3556601 0.02855913
v 0.9669257 0.5853983 0.02855913
v 0.9171875 0.5853983 0.02855913
v 0.9669257 0.6162195 0.02855913
v 0.9171875 0.6637312 0.02855913
v 0.9669257 0.6637312 0.02855913
v -0.3050032 0.05356888 0.02855913
v 0.3050031 0.05356888 0.02855913
v 0.3050031 -0.4887239 0.02855913
v -0.3050032 -0.4887239 0.02855913
v -0.8887281 0.3643122 0.02855913
v -0.888728 0.5853983 0.02855913
v -0.3309613 0.5853983 0.02855913
v -0.351483 0.09886497 0.02855913
v -0.351483 -0.5340196 0.02855913
v 0.3514828 0.09886497 0.02855913
v 0.3309612 0.5853983 0.02855913
v 0.878389 0.5853983 0.02855913
v 0.8783891 0.3643122 0.02855913
v 0.8783891 -0.2298963 0.02855913
v 0.3514828 -0.5340196 0.02855913
v 0.878389 -0.5960668 0.02855913
v 0.3309612 -0.5960668 0.02855913
v -0.8887281 -0.2298963 0.02855913
v -0.3309613 -0.5960668 0.02855913
v -0.888728 -0.5960668 0.02855913
v -0.9229745 -0.5960668 0.02855913
v -0.8887279 -0.6252225 0.02855913
v -0.9229745 -0.6252225 0.02855913
v -0.888728 -0.5960668 0.02855913
v -0.9229745 -0.22557 0.02855913
v -0.326635 -0.6252225 0.02855913
v -0.8887281 -0.2298963 0.02855913
v -0.3309613 -0.5960668 0.02855913
v 0.3266348 -0.6252225 0.02855913
v 0.3309612 -0.5960668 0.02855913
v -0.9229745 0.3599863 0.02855913
v -0.8887281 0.3643122 0.02855913
v 0.878389 -0.6252225 0.02855913
v -0.888728 0.5853983 0.02855913
v -0.9229745 0.5853983 0.02855913
v -0.9229745 0.6167158 0.02855913
v -0.8887279 0.6171606 0.02855913
v -0.326635 0.6180952 0.02855913
v -0.3309613 0.5853983 0.02855913
v 0.3309612 0.5853983 0.02855913
v 0.3266348 0.6180952 0.02855913
v 0.878389 0.6171606 0.02855913
v 0.878389 0.5853983 0.02855913
v 0.9171875 0.6167158 0.02855913
v 0.9171875 0.5853983 0.02855913
v 0.8783891 0.3643122 0.02855913
v 0.9171875 0.3599863 0.02855913
v 0.9171875 -0.22557 0.02855913
v 0.8783891 -0.2298963 0.02855913
v 0.9171875 -0.5960668 0.02855913
v 0.878389 -0.5960668 0.02855913
v 0.9171875 -0.6252225 0.02855913
v 0.3514828 0.09886497 0.02855913
v 0.3514828 -0.5340196 0.02855913
v 0.3050031 -0.4887239 0.02855913
v 0.3050031 0.05356888 0.02855913
v -0.3050032 -0.4887239 0.02855913
v -0.351483 0.09886497 0.02855913
v -0.351483 -0.5340196 0.02855913
v -0.3050032 0.05356888 0.02855913
vt 0.8862305 0.07788086
vt 0.8862305 0.1019897
vt 0.8881836 0.1019897
vt 0.8881836 0.07788086
vt 0.8901367 0.07788086
vt 0.8901367 0.1019897
vt 0.894043 0.07788086
vt 0.894043 0.1019897
vt 0.9018555 0.1019897
vt 0.9018555 0.07788086
vt 0.90625 0.1019897
vt 0.90625 0.07788086
vt 0.9082031 0.07788086
vt 0.9082031 0.1019897
vt 0.9101563 0.07788086
vt 0.9101563 0.1019897
vt 0.8862305 0.1240234
vt 0.8862305 0.1260986
vt 0.8881836 0.1260986
vt 0.8881836 0.1240234
vt 0.8862305 0.1220093
vt 0.8901367 0.1240234
vt 0.8901367 0.1260986
vt 0.8881836 0.1220093
vt 0.8862305 0.118042
vt 0.894043 0.1240234
vt 0.894043 0.1260986
vt 0.8881836 0.118042
vt 0.8862305 0.1099854
vt 0.8901367 0.1220093
vt 0.9018555 0.1240234
vt 0.9018555 0.1260986
vt 0.894043 0.1220093
vt 0.90625 0.1240234
vt 0.90625 0.1260986
vt 0.8881836 0.1099854
vt 0.8862305 0.1060181
vt 0.8901367 0.118042
vt 0.9018555 0.1220093
vt 0.9082031 0.1240234
vt 0.9082031 0.1260986
vt 0.8881836 0.1060181
vt 0.8862305 0.1040039
vt 0.8901367 0.1099854
vt 0.894043 0.118042
vt 0.90625 0.1220093
vt 0.9101563 0.1240234
vt 0.9101563 0.1260986
vt 0.9082031 0.1220093
vt 0.9101563 0.1220093
vt 0.894043 0.1099854
vt 0.9018555 0.118042
vt 0.9082031 0.118042
vt 0.9101563 0.118042
vt 0.90625 0.118042
vt 0.9018555 0.1099854
vt 0.894043 0.1060181
vt 0.9082031 0.1099854
vt 0.9101563 0.1099854
vt 0.90625 0.1099854
vt 0.9082031 0.1060181
vt 0.9101563 0.1060181
vt 0.9018555 0.1060181
vt 0.90625 0.1060181
vt 0.8901367 0.1060181
vt 0.9082031 0.1040039
vt 0.9101563 0.1040039
vt 0.90625 0.1040039
vt 0.9082031 0.1019897
vt 0.9101563 0.1019897
vt 0.90625 0.1019897
vt 0.9018555 0.1019897
vt 0.9018555 0.1040039
vt 0.894043 0.1019897
vt 0.894043 0.1040039
vt 0.8901367 0.1040039
vt 0.8901367 0.1019897
vt 0.8881836 0.1040039
vt 0.8881836 0.1019897
vt 0.8862305 0.1019897
vt 0.8862305 0.1260986
vt 0.8862305 0.1501465
vt 0.8881836 0.1501465
vt 0.8881836 0.1260986
vt 0.8901367 0.1260986
vt 0.8901367 0.1501465
vt 0.894043 0.1260986
vt 0.894043 0.1501465
vt 0.9018555 0.1260986
vt 0.9018555 0.1501465
vt 0.90625 0.1260986
vt 0.90625 0.1501465
vt 0.9082031 0.1260986
vt 0.9082031 0.1501465
vt 0.9101563 0.1260986
vt 0.9101563 0.1501465
vt 0.9101563 0.05383301
vt 0.934082 0.05584717
vt 0.934082 0.05383301
vt 0.9101563 0.05584717
vt 0.934082 0.05786133
vt 0.9101563 0.05786133
vt 0.934082 0.06185913
vt 0.9101563 0.06185913
vt 0.934082 0.06988525
vt 0.9101563 0.06988525
vt 0.934082 0.07391357
vt 0.9101563 0.07391357
vt 0.934082 0.07592773
vt 0.9101563 0.07592773
vt 0.934082 0.07788086
vt 0.9101563 0.07788086
vt 0.8618164 0.05383301
vt 0.8862305 0.05584717
vt 0.8862305 0.05383301
vt 0.8618164 0.05584717
vt 0.8862305 0.05786133
vt 0.8618164 0.05786133
vt 0.8862305 0.06185913
vt 0.8618164 0.06185913
vt 0.8862305 0.06988525
vt 0.8618164 0.06988525
vt 0.8862305 0.07391357
vt 0.8618164 0.07391357
vt 0.8862305 0.07592773
vt 0.8618164 0.07592773
vt 0.8862305 0.07788086
vt 0.8618164 0.07788086
vt 0.8862305 0.07592773
vt 0.8862305 0.07788086
vt 0.8881836 0.07788086
vt 0.8881836 0.07592773
vt 0.8862305 0.07391357
vt 0.8881836 0.07397461
vt 0.8862305 0.06988525
vt 0.8881836 0.07000732
vt 0.8862305 0.06185913
vt 0.8881836 0.06176758
vt 0.8862305 0.05786133
vt 0.8881836 0.05780029
vt 0.8862305 0.05584717
vt 0.8901367 0.07592773
vt 0.8901367 0.07788086
vt 0.8881836 0.05581665
vt 0.894043 0.07788086
vt 0.894043 0.07598877
vt 0.9018555 0.07598877
vt 0.9018555 0.07788086
vt 0.90625 0.07592773
vt 0.90625 0.07788086
vt 0.8862305 0.05383301
vt 0.8881836 0.05383301
vt 0.8901367 0.05383301
vt 0.8901367 0.05581665
vt 0.894043 0.05383301
vt 0.894043 0.05575562
vt 0.9018555 0.05383301
vt 0.9018555 0.05575562
vt 0.9082031 0.07592773
vt 0.90625 0.05383301
vt 0.90625 0.05581665
vt 0.9082031 0.05581665
vt 0.9082031 0.05383301
vt 0.9101563 0.05383301
vt 0.9101563 0.05584717
vt 0.9082031 0.05780029
vt 0.9101563 0.05786133
vt 0.9082031 0.06176758
vt 0.9101563 0.06185913
vt 0.9082031 0.07000732
vt 0.9101563 0.06988525
vt 0.9101563 0.07391357
vt 0.9082031 0.07397461
vt 0.9101563 0.07592773
vt 0.9082031 0.07788086
vt 0.9101563 0.07788086
vt 0.894043 0.06964111
vt 0.9018555 0.06964111
vt 0.9018555 0.06210327
vt 0.894043 0.06210327
vt 0.8901367 0.07012939
vt 0.8901367 0.07403564
vt 0.894043 0.07409668
vt 0.8935547 0.0703125
vt 0.8935547 0.06155396
vt 0.9023438 0.0703125
vt 0.9023438 0.07409668
vt 0.90625 0.07403564
vt 0.90625 0.07012939
vt 0.90625 0.06170654
vt 0.9023438 0.06155396
vt 0.90625 0.05776978
vt 0.9023438 0.05767822
vt 0.8901367 0.06170654
vt 0.894043 0.05767822
vt 0.8901367 0.05776978
vt 0.4533691 0.8867188
vt 0.4553223 0.8847656
vt 0.4533691 0.8847656
vt 0.4553223 0.8867188
vt 0.4533691 0.890625
vt 0.4594727 0.8847656
vt 0.4553223 0.890625
vt 0.4594727 0.8862305
vt 0.4675293 0.8847656
vt 0.4675293 0.8862305
vt 0.4533691 0.8989258
vt 0.4553223 0.8989258
vt 0.4714355 0.8847656
vt 0.4553223 0.902832
vt 0.4533691 0.902832
vt 0.4533691 0.9047852
vt 0.4553223 0.9047852
vt 0.4594727 0.9047852
vt 0.4594727 0.902832
vt 0.4675293 0.902832
vt 0.4675293 0.9047852
vt 0.4714355 0.9047852
vt 0.4714355 0.902832
vt 0.4736328 0.9047852
vt 0.4736328 0.902832
vt 0.4716797 0.8989258
vt 0.4736328 0.8989258
vt 0.4736328 0.890625
vt 0.4716797 0.890625
vt 0.4736328 0.8867188
vt 0.4714355 0.8867188
vt 0.4736328 0.8847656
vt 0.4882813 0.8876953
vt 0.4882813 0.8789063
vt 0.4880371 0.8798828
vt 0.4880371 0.887207
vt 0.4802246 0.8798828
vt 0.4799805 0.8876953
vt 0.4799805 0.8789063
vt 0.4802246 0.887207
vn 0 1 0
vn 0 1 0
vn 0 1 0
vn 0 1 0
vn 0 1 0
vn 0 1 0
vn 0 1 0
vn 0 1 0
vn 0 1 0
vn 0 1 0
vn 0 1 0
vn 0 1 0
vn 0 1 0
vn 0 1 0
vn 0 1 0
vn 0 1 0
vn 0 0 -1
vn 0 0 -1
vn 0 0 -1
vn 0 0 -1
vn 0 0 -1
vn 0 0 -1
vn 0 0 -1
vn 0 0 -1
vn 0 0 -1
vn 0 0 -1
vn 0 0 -1
vn 0 0 -1
vn 0 0 -1
vn 0 0 -1
vn 0 0 -1
vn 0 0 -1
vn 0 0 -1
vn 0 0 -1
vn 0 0 -1
vn 0 0 -1
vn 0 0 -1
vn 0 0 -1
vn 0 0 -1
vn 0 0 -1
vn 0 0 -1
vn 0 0 -1
vn 0 0 -1
vn 0 0 -1
vn 0 0 -1
vn 0 0 -1
vn 0 0 -1
vn 0 0 -1
vn 0 0 -1
vn 0 0 -1
vn 0 0 -1
vn 0 0 -1
vn 0 0 -1
vn 0 0 -1
vn 0 0 -1
vn 0 0 -1
vn 0 0 -1
vn 0 0 -1
vn 0 0 -1
vn 0 0 -1
vn 0 0 -1
vn 0 0 -1
vn 0 0 -1
vn 0 0 -1
vn 0 0 -1
vn 0 0 -1
vn 0 0 -1
vn 0 0 -1
vn 0 0 -1
vn 0 0 -1
vn 0 0 -1
vn 0 0 -1
vn 0 0 -1
vn 0 0 -1
vn 0 0 -1
vn 0 0 -1
vn 0 0 -1
vn 0 0 -1
vn 0 0 -1
vn 0 0 -1
vn 0 -1 0
vn 0 -1 0
vn 0 -1 0
vn 0 -1 0
vn 0 -1 0
vn 0 -1 0
vn 0 -1 0
vn 0 -1 0
vn 0 -1 0
vn 0 -1 0
vn 0 -1 0
vn 0 -1 0
vn 0 -1 0
vn 0 -1 0
vn 0 -1 0
vn 0 -1 0
vn 1 0 0
vn 1 0 0
vn 1 0 0
vn 1 0 0
vn 1 0 0
vn 1 0 0
vn 1 0 0
vn 1 0 0
vn 1 0 0
vn 1 0 0
vn 1 0 0
vn 1 0 0
vn 1 0 0
vn 1 0 0
vn 1 0 0
vn 1 0 0
vn -1 0 0
vn -1 0 0
vn -1 0 0
vn -1 0 0
vn -1 0 0
vn -1 0 0
vn -1 0 0
vn -1 0 0
vn -1 0 0
vn -1 0 0
vn -1 0 0
vn -1 0 0
vn -1 0 0
vn -1 0 0
vn -1 0 0
vn -1 0 0
vn 0 0 1
vn 0 0 1
vn 0 0 1
vn 0 0 1
vn 0 0 1
vn 0 0 1
vn 0 0 1
vn 0 0 1
vn 0 0 1
vn 0 0 1
vn 0 0 1
vn 0 0 1
vn 0 0 1
vn 0 0 1
vn 0 0 1
vn 0 0 1
vn 0 0 1
vn 0 0 1
vn 0 0 1
vn 0 0 1
vn 0 0 1
vn 0 0 1
vn 0 0 1
vn 0 0 1
vn 0 0 1
vn 0 0 1
vn 0 0 1
vn 0 0 1
vn 0 0 1
vn 0 0 1
vn 0 0 1
vn 0 0 1
vn 0 0 1
vn 0 0 1
vn 0 0 1
vn 0 0 1
vn 0 0 1
vn 0 0 1
vn 0 0 1
vn 0 0 1
vn 0 0 1
vn 0 0 1
vn 0 0 1
vn 0 0 1
vn 0 0 1
vn 0 0 1
vn 0 0 1
vn 0 0 1
vn 0 0 1
vn 0 0 1
vn 0 0 1
vn 0 0 1
vn 0 0 1
vn 0 0 1
vn 0 0 1
vn 0 0 1
vn 0 0 1
vn 0 0 1
vn 0 0 1
vn 0 0 1
vn 0 0 1
vn 0 0 1
vn 0 0 1
vn 0 0 1
vn 0 0 1
vn 0 0 1
vn 0 0 1
vn 0 0 1
vn 0 0 1
vn 0 0 1
vn 0 0 1
vn 0 0 1
vn 0 0 1
vn 0 0 1
vn 0 0 1
vn 0 0 1
vn 0 0 1
vn 0 0 1
vn 0 0 1
vn 0 0 1
vn 0 0 1
vn 0 0 1
vn 0 0 1
vn 0 0 1
vn 0 0 1
vn 0 0 1
vn 0 0 1
vn 0 0 1
vn 0 0 1
vn 0 0 1
vn 0 0 1
vn 0 0 1
vn 0 0 1
vn 0 0 1
vn 0 0 1
vn 0 0 1
vn 0 0 1
vn 0 0 1
vn 0 0 1
vn 0 0 1
vn 0 0 1
vn 0 0 1
vn 0 0 1
vn 0 0 1
vn 0 0 1
vn 0 0 1
vn 0 0 1
vn 0 0 1
g pCube57_0
f 3/3/3 2/2/2 1/1/1
f 4/4/4 3/3/3 1/1/1
f 4/4/4 5/5/5 3/3/3
f 5/5/5 6/6/6 3/3/3
f 5/5/5 7/7/7 6/6/6
f 7/7/7 8/8/8 6/6/6
f 9/9/9 8/8/8 7/7/7
f 10/10/10 9/9/9 7/7/7
f 11/11/11 9/9/9 10/10/10
f 12/12/12 11/11/11 10/10/10
f 12/12/12 13/13/13 11/11/11
f 13/13/13 14/14/14 11/11/11
f 13/13/13 15/15/15 14/14/14
f 15/15/15 16/16/16 14/14/14
f 19/19/19 18/18/18 17/17/17
f 20/20/20 19/19/19 17/17/17
f 20/20/20 17/17/17 21/21/21
f 20/20/20 22/22/22 19/19/19
f 22/22/22 23/23/23 19/19/19
f 24/24/24 20/20/20 21/21/21
f 20/20/20 24/24/24 22/22/22
f 24/24/24 21/21/21 25/25/25
f 22/22/22 26/26/26 23/23/23
f 26/26/26 27/27/27 23/23/23
f 28/28/28 24/24/24 25/25/25
f 28/28/28 25/25/25 29/29/29
f 24/24/24 30/30/30 22/22/22
f 22/22/22 30/30/30 26/26/26
f 24/24/24 28/28/28 30/30/30
f 26/26/26 31/31/31 27/27/27
f 31/31/31 32/32/32 27/27/27
f 30/30/30 33/33/33 26/26/26
f 26/26/26 33/33/33 31/31/31
f 31/31/31 34/34/34 32/32/32
f 34/34/34 35/35/35 32/32/32
f 36/36/36 28/28/28 29/29/29
f 36/36/36 29/29/29 37/37/37
f 28/28/28 38/38/38 30/30/30
f 30/30/30 38/38/38 33/33/33
f 33/33/33 39/39/39 31/31/31
f 31/31/31 39/39/39 34/34/34
f 34/34/34 40/40/40 35/35/35
f 40/40/40 41/41/41 35/35/35
f 42/42/42 36/36/36 37/37/37
f 42/42/42 37/37/37 43/43/43
f 36/36/36 44/44/44 28/28/28
f 44/44/44 38/38/38 28/28/28
f 38/38/38 45/45/45 33/33/33
f 33/33/33 45/45/45 39/39/39
f 39/39/39 46/46/46 34/34/34
f 34/34/34 46/46/46 40/40/40
f 40/40/40 47/47/47 41/41/41
f 47/47/47 48/48/48 41/41/41
f 40/40/40 49/49/49 47/47/47
f 46/46/46 49/49/49 40/40/40
f 49/49/49 50/50/50 47/47/47
f 51/51/51 45/45/45 38/38/38
f 44/44/44 51/51/51 38/38/38
f 45/45/45 52/52/52 39/39/39
f 39/39/39 52/52/52 46/46/46
f 45/45/45 51/51/51 52/52/52
f 49/49/49 53/53/53 50/50/50
f 53/53/53 54/54/54 50/50/50
f 46/46/46 55/55/55 49/49/49
f 52/52/52 55/55/55 46/46/46
f 55/55/55 53/53/53 49/49/49
f 51/51/51 56/56/56 52/52/52
f 52/52/52 56/56/56 55/55/55
f 57/57/57 51/51/51 44/44/44
f 51/51/51 57/57/57 56/56/56
f 53/53/53 58/58/58 54/54/54
f 58/58/58 59/59/59 54/54/54
f 55/55/55 60/60/60 53/53/53
f 56/56/56 60/60/60 55/55/55
f 60/60/60 58/58/58 53/53/53
f 58/58/58 61/61/61 59/59/59
f 61/61/61 62/62/62 59/59/59
f 56/56/56 63/63/63 60/60/60
f 57/57/57 63/63/63 56/56/56
f 60/60/60 64/64/64 58/58/58
f 64/64/64 61/61/61 58/58/58
f 63/63/63 64/64/64 60/60/60
f 65/65/65 57/57/57 44/44/44
f 65/65/65 44/44/44 36/36/36
f 42/42/42 65/65/65 36/36/36
f 61/61/61 66/66/66 62/62/62
f 66/66/66 67/67/67 62/62/62
f 64/64/64 68/68/68 61/61/61
f 68/68/68 66/66/66 61/61/61
f 66/66/66 69/69/69 67/67/67
f 69/69/69 70/70/70 67/67/67
f 71/71/71 69/69/69 66/66/66
f 68/68/68 71/71/71 66/66/66
f 72/72/72 71/71/71 68/68/68
f 73/73/73 68/68/68 64/64/64
f 73/73/73 72/72/72 68/68/68
f 63/63/63 73/73/73 64/64/64
f 74/74/74 72/72/72 73/73/73
f 75/75/75 73/73/73 63/63/63
f 75/75/75 74/74/74 73/73/73
f 57/57/57 75/75/75 63/63/63
f 75/75/75 57/57/57 65/65/65
f 74/74/74 75/75/75 76/76/76
f 76/76/76 75/75/75 65/65/65
f 77/77/77 74/74/74 76/76/76
f 76/76/76 65/65/65 42/42/42
f 77/77/77 76/76/76 78/78/78
f 78/78/78 76/76/76 42/42/42
f 79/79/79 77/77/77 78/78/78
f 78/78/78 42/42/42 43/43/43
f 79/79/79 78/78/78 80/80/80
f 78/78/78 43/43/43 80/80/80
f 83/83/83 82/82/82 81/81/81
f 84/84/84 83/83/83 81/81/81
f 84/84/84 85/85/85 83/83/83
f 85/85/85 86/86/86 83/83/83
f 85/85/85 87/87/87 86/86/86
f 87/87/87 88/88/88 86/86/86
f 87/87/87 89/89/89 88/88/88
f 89/89/89 90/90/90 88/88/88
f 89/89/89 91/91/91 90/90/90
f 91/91/91 92/92/92 90/90/90
f 91/91/91 93/93/93 92/92/92
f 93/93/93 94/94/94 92/92/92
f 93/93/93 95/95/95 94/94/94
f 95/95/95 96/96/96 94/94/94
f 99/99/99 98/98/98 97/97/97
f 98/98/98 100/100/100 97/97/97
f 98/98/98 101/101/101 100/100/100
f 101/101/101 102/102/102 100/100/100
f 101/101/101 103/103/103 102/102/102
f 103/103/103 104/104/104 102/102/102
f 103/103/103 105/105/105 104/104/104
f 105/105/105 106/106/106 104/104/104
f 105/105/105 107/107/107 106/106/106
f 107/107/107 108/108/108 106/106/106
f 107/107/107 109/109/109 108/108/108
f 109/109/109 110/110/110 108/108/108
f 109/109/109 111/111/111 110/110/110
f 111/111/111 112/112/112 110/110/110
f 115/115/115 114/114/114 113/113/113
f 114/114/114 116/116/116 113/113/113
f 114/114/114 117/117/117 116/116/116
f 117/117/117 118/118/118 116/116/116
f 117/117/117 119/119/119 118/118/118
f 119/119/119 120/120/120 118/118/118
f 119/119/119 121/121/121 120/120/120
f 121/121/121 122/122/122 120/120/120
f 121/121/121 123/123/123 122/122/122
f 123/123/123 124/124/124 122/122/122
f 123/123/123 125/125/125 124/124/124
f 125/125/125 126/126/126 124/124/124
f 125/125/125 127/127/127 126/126/126
f 127/127/127 128/128/128 126/126/126
f 131/131/131 130/130/130 129/129/129
f 132/132/132 131/131/131 129/129/129
f 132/132/132 129/129/129 133/133/133
f 134/134/134 132/132/132 133/133/133
f 134/134/134 133/133/133 135/135/135
f 136/136/136 134/134/134 135/135/135
f 136/136/136 135/135/135 137/137/137
f 138/138/138 136/136/136 137/137/137
f 138/138/138 137/137/137 139/139/139
f 140/140/140 138/138/138 139/139/139
f 140/140/140 139/139/139 141/141/141
f 132/132/132 142/142/142 131/131/131
f 142/142/142 143/143/143 131/131/131
f 144/144/144 140/140/140 141/141/141
f 145/145/145 143/143/143 142/142/142
f 146/146/146 145/145/145 142/142/142
f 146/146/146 147/147/147 145/145/145
f 147/147/147 148/148/148 145/145/145
f 147/147/147 149/149/149 148/148/148
f 149/149/149 150/150/150 148/148/148
f 144/144/144 141/141/141 151/151/151
f 152/152/152 144/144/144 151/151/151
f 152/152/152 153/153/153 144/144/144
f 153/153/153 154/154/154 144/144/144
f 153/153/153 155/155/155 154/154/154
f 155/155/155 156/156/156 154/154/154
f 155/155/155 157/157/157 156/156/156
f 157/157/157 158/158/158 156/156/156
f 149/149/149 159/159/159 150/150/150
f 157/157/157 160/160/160 158/158/158
f 160/160/160 161/161/161 158/158/158
f 161/161/161 160/160/160 162/162/162
f 160/160/160 163/163/163 162/162/162
f 163/163/163 164/164/164 162/162/162
f 164/164/164 165/165/165 162/162/162
f 162/162/162 165/165/165 166/166/166
f 165/165/165 167/167/167 166/166/166
f 166/166/166 167/167/167 168/168/168
f 167/167/167 169/169/169 168/168/168
f 168/168/168 169/169/169 170/170/170
f 169/169/169 171/171/171 170/170/170
f 170/170/170 171/171/171 172/172/172
f 173/173/173 170/170/170 172/172/172
f 173/173/173 172/172/172 174/174/174
f 159/159/159 173/173/173 174/174/174
f 159/159/159 174/174/174 175/175/175
f 159/159/159 175/175/175 150/150/150
f 174/174/174 176/176/176 175/175/175
f 179/179/179 178/178/178 177/177/177
f 180/180/180 179/179/179 177/177/177
f 183/183/183 182/182/182 181/181/181
f 184/184/184 183/183/183 181/181/181
f 185/185/185 184/184/184 181/181/181
f 184/184/184 186/186/186 183/183/183
f 186/186/186 187/187/187 183/183/183
f 187/187/187 186/186/186 188/188/188
f 186/186/186 189/189/189 188/188/188
f 190/190/190 189/189/189 186/186/186
f 191/191/191 190/190/190 186/186/186
f 192/192/192 190/190/190 191/191/191
f 193/193/193 192/192/192 191/191/191
f 193/193/193 191/191/191 185/185/185
f 194/194/194 185/185/185 181/181/181
f 195/195/195 193/193/193 185/185/185
f 195/195/195 185/185/185 194/194/194
f 196/196/196 195/195/195 194/194/194
f 199/199/199 198/198/198 197/197/197
f 198/198/198 200/200/200 197/197/197
f 197/197/197 200/200/200 201/201/201
f 198/198/198 202/202/202 200/200/200
f 200/200/200 203/203/203 201/201/201
f 202/202/202 204/204/204 200/200/200
f 202/202/202 205/205/205 204/204/204
f 205/205/205 206/206/206 204/204/204
f 201/201/201 203/203/203 207/207/207
f 203/203/203 208/208/208 207/207/207
f 205/205/205 209/209/209 206/206/206
f 208/208/208 210/210/210 207/207/207
f 210/210/210 211/211/211 207/207/207
f 211/211/211 210/210/210 212/212/212
f 210/210/210 213/213/213 212/212/212
f 214/214/214 213/213/213 210/210/210
f 215/215/215 214/214/214 210/210/210
f 215/215/215 216/216/216 214/214/214
f 216/216/216 217/217/217 214/214/214
f 217/217/217 216/216/216 218/218/218
f 216/216/216 219/219/219 218/218/218
f 218/218/218 219/219/219 220/220/220
f 219/219/219 221/221/221 220/220/220
f 219/219/219 222/222/222 221/221/221
f 222/222/222 223/223/223 221/221/221
f 224/224/224 223/223/223 222/222/222
f 225/225/225 224/224/224 222/222/222
f 226/226/226 224/224/224 225/225/225
f 227/227/227 226/226/226 225/225/225
f 227/227/227 209/209/209 226/226/226
f 209/209/209 228/228/228 226/226/226
f 209/209/209 227/227/227 206/206/206
f 231/231/231 230/230/230 229/229/229
f 232/232/232 231/231/231 229/229/229
f 231/231/231 233/233/233 230/230/230
f 229/229/229 234/234/234 232/232/232
f 233/233/233 235/235/235 230/230/230
f 234/234/234 236/236/236 232/232/232
f 235/235/235 233/233/233 236/236/236
f 234/234/234 235/235/235 236/236/236
