g pCube11
v -0.03425244 0.01638855 0.01551515
v -0.03438499 0.01555684 0.01560613
v -0.03263485 0.0159683 0.003849036
v -0.03246662 0.01702391 0.00373358
v -0.03010776 0.01523905 -0.000279596
v -0.02992229 0.01640289 -0.0004068963
v -0.02418643 0.01338981 -0.007168657
v -0.02407023 0.01411897 -0.007248407
v -0.02273024 0.01290085 -0.008340022
v -0.02261609 0.01361718 -0.008418383
v -0.01816791 0.01275302 -0.006758379
v -0.01797786 0.01386065 -0.006891939
v -0.01981849 0.01192315 -0.01068229
v -0.01970843 0.01261376 -0.01075783
v -0.01437701 0.01077388 -0.01504737
v -0.01447955 0.01013051 -0.014977
v -0.00127684 0.003059612 -0.01988344
v -0.001150635 0.003851589 -0.01997006
v 0.004033966 -0.0008640024 -0.02031473
v 0.00416137 -6.448763E-05 -0.02040218
v 0.005577698 -0.0002761499 -0.01793392
v 0.005705521 0.0005258139 -0.01802165
v 0.00749424 -0.003420414 -0.02059574
v 0.007622429 -0.002615994 -0.02068373
v 0.01645572 -0.009127949 -0.02140229
v 0.01632552 -0.00994492 -0.02131293
v -0.03319957 0.01628794 0.02150704
v -0.02942281 0.01720436 0.02227325
v -0.03200582 0.01628794 0.02324631
v -0.03136284 0.01720436 0.01944664
v -0.03425244 0.01638855 0.01551515
v -0.02553939 0.01847702 0.01983528
v -0.02769161 0.01847702 0.01669952
v -0.02679323 0.01638855 0.02638319
v -0.03200582 0.01628794 0.02324631
v -0.02179674 0.01818353 0.023066
v -0.01519209 0.01680656 0.02897671
v -0.02163511 0.01928179 0.01732697
v -0.01804366 0.01882644 0.02063757
v -0.01043653 0.0160422 0.02810695
v -0.01121799 0.01860833 0.01619372
v -0.001864037 0.01428775 0.02504824
v -0.01505611 0.01934573 0.01281151
v -0.0005976717 0.0139438 0.009270865
v 0.008897309 0.01093445 0.01880834
v -0.02394722 0.0192818 0.01395822
v -0.004365975 0.01518214 0.005474391
v 0.009629258 0.007339985 0.002626452
v 0.01822082 0.003851597 0.008254031
v 0.02588774 -0.009127942 -0.007659914
v 0.00458326 0.009334607 -0.0006678635
v 0.02182351 -0.007481114 -0.01250062
v 0.0315051 -0.02317534 -0.02162335
v 0.01951138 -0.007481121 -0.01586936
v -0.01736824 0.0193457 0.009442759
v -0.006678093 0.01518214 0.002105639
v 0.002271133 0.009334599 -0.004036608
v 0.01645572 -0.009127949 -0.02140229
v 0.0315051 -0.02317534 -0.02162335
v 0.001013519 0.007341427 -0.009917887
v -0.008860977 0.01394468 -0.002764123
v -0.01913997 0.01860936 0.004657199
v 0.005705521 0.0005258139 -0.01802165
v 0.007622429 -0.002615994 -0.02068373
v -0.001150635 0.003851589 -0.01997006
v 0.00416137 -6.448763E-05 -0.02040218
v -0.01437701 0.01077388 -0.01504737
v -0.01797786 0.01386065 -0.006891939
v -0.01970843 0.01261376 -0.01075783
v -0.02574068 0.0188274 0.009427882
v -0.02407023 0.01411897 -0.007248407
v -0.02261609 0.01361718 -0.008418383
v -0.02992229 0.01640289 -0.0004068963
v -0.02935661 0.01818481 0.01205622
v -0.03246662 0.01702391 0.00373358
v -0.03225541 0.0147217 0.02341762
v -0.02692578 0.01555684 0.02647416
v -0.02967242 0.01563808 0.02244456
v -0.02578899 0.01691075 0.0200066
v -0.02205956 0.01688984 0.02315965
v -0.01528652 0.01621409 0.02904152
v -0.01050811 0.01559308 0.02815607
v -0.0183138 0.0174992 0.02073054
v -0.002021889 0.01329721 0.02515658
v -0.01149513 0.01726618 0.01628773
v 0.008755432 0.01004418 0.01890572
v -0.02188471 0.01771555 0.01749828
v -0.0008678133 0.01262208 0.009360491
v 0.01810124 0.003101238 0.008336107
v -0.01530572 0.01777943 0.01298284
v 0.009359528 0.006071316 0.00272647
v 0.02575753 -0.009944943 -0.007570551
v -0.004615578 0.01361585 0.00564572
v 0.004333657 0.007768353 -0.0004965416
v 0.02157391 -0.009047368 -0.01232929
v 0.03140585 -0.02379821 -0.02155522
v 0.01926177 -0.009047375 -0.01569803
v 0.03140585 -0.02379821 -0.02155522
v 0.01632552 -0.00994492 -0.02131293
v 0.002021538 0.007768383 -0.003865297
v -0.006927704 0.01361585 0.002276965
v -0.01761784 0.01777945 0.009614074
v 0.0008107375 0.006066426 -0.009775721
v -0.009073799 0.01260269 -0.00261471
v -0.02419684 0.01771553 0.01412953
v -0.01935465 0.01725644 0.004807909
v 0.005577698 -0.0002761499 -0.01793392
v 0.00749424 -0.003420414 -0.02059574
v -0.00127684 0.003059612 -0.01988344
v 0.004033966 -0.0008640024 -0.02031473
v -0.01447955 0.01013051 -0.014977
v -0.01816791 0.01275302 -0.006758379
v -0.01981849 0.01192315 -0.01068229
v -0.02418643 0.01338981 -0.007168657
v -0.02273024 0.01290085 -0.008340022
v -0.03010776 0.01523905 -0.000279596
v -0.02595169 0.01749723 0.009575942
v -0.03263485 0.0159683 0.003849036
v -0.02956246 0.01688778 0.01220054
v -0.03438499 0.01555684 0.01560613
v -0.0279412 0.01691079 0.01687083
v -0.03161244 0.01563808 0.01961797
v -0.03344917 0.01472169 0.02167835
v -0.03225541 0.0147217 0.02341762
v 0.03140585 -0.02379821 -0.02155522
v 0.0315051 -0.02317534 -0.02162335
v 0.01645572 -0.009127949 -0.02140229
v 0.01632552 -0.00994492 -0.02131293
v 0.02575753 -0.009944943 -0.007570551
v 0.0315051 -0.02317534 -0.02162335
v 0.03140585 -0.02379821 -0.02155522
v 0.02588774 -0.009127942 -0.007659914
v 0.01810124 0.003101238 0.008336107
v 0.01822082 0.003851597 0.008254031
v 0.008755432 0.01004418 0.01890572
v 0.008897309 0.01093445 0.01880834
v -0.002021889 0.01329721 0.02515658
v -0.001864037 0.01428775 0.02504824
v -0.01050811 0.01559308 0.02815607
v -0.01043653 0.0160422 0.02810695
v -0.01528652 0.01621409 0.02904152
v -0.01519209 0.01680656 0.02897671
v -0.02692578 0.01555684 0.02647416
v -0.02679323 0.01638855 0.02638319
v -0.03225541 0.0147217 0.02341762
v -0.03200582 0.01628794 0.02324631
v -0.03344917 0.01472169 0.02167835
v -0.03319957 0.01628794 0.02150704
v -0.03438499 0.01555684 0.01560613
v -0.03425244 0.01638855 0.01551515
vt 0.375 0.5
vt 0.375 0.75
vt 0.416748 0.75
vt 0.416748 0.5
vt 0.458252 0.75
vt 0.458252 0.5
vt 0.5 0.75
vt 0.5 0.5
vt 0.5063477 0.75
vt 0.5063477 0.5
vt 0.5126953 0.75
vt 0.5126953 0.5
vt 0.5185547 0.75
vt 0.5185547 0.5
vt 0.5415039 0.5
vt 0.5415039 0.75
vt 0.5834961 0.75
vt 0.5834961 0.5
vt 0.5957031 0.75
vt 0.5957031 0.5
vt 0.6000977 0.75
vt 0.6000977 0.5
vt 0.6040039 0.75
vt 0.6040039 0.5
vt 0.625 0.5
vt 0.625 0.75
vt 0.375 0.4138184
vt 0.3847656 0.3361816
vt 0.3818359 0.375
vt 0.3847656 0.4138184
vt 0.375 0.5
vt 0.416748 0.3583984
vt 0.416748 0.3916016
vt 0.375 0.25
vt 0.375 0.3361816
vt 0.416748 0.3195801
vt 0.416748 0.25
vt 0.458252 0.3601074
vt 0.458252 0.3256836
vt 0.458252 0.25
vt 0.5 0.3303223
vt 0.5 0.25
vt 0.5 0.3620605
vt 0.5415039 0.3305664
vt 0.5415039 0.25
vt 0.458252 0.3898926
vt 0.5415039 0.3625488
vt 0.5834961 0.3193359
vt 0.5834961 0.25
vt 0.625 0.25
vt 0.5834961 0.3601074
vt 0.6142578 0.3442383
vt 0.6235352 0.3596191
vt 0.6142578 0.4057617
vt 0.5 0.3879395
vt 0.5415039 0.3874512
vt 0.5834961 0.3898926
vt 0.625 0.5
vt 0.625 0.4057617
vt 0.5834961 0.4304199
vt 0.5415039 0.4194336
vt 0.5 0.4196777
vt 0.6000977 0.5
vt 0.6040039 0.5
vt 0.5834961 0.5
vt 0.5957031 0.5
vt 0.5415039 0.5
vt 0.5126953 0.5
vt 0.5185547 0.5
vt 0.458252 0.4240723
vt 0.5 0.5
vt 0.5063477 0.5
vt 0.458252 0.5
vt 0.416748 0.4301758
vt 0.416748 0.5
vt 0.375 0.9135742
vt 0.375 1
vt 0.3847656 0.9135742
vt 0.416748 0.8916016
vt 0.416748 0.9296875
vt 0.416748 1
vt 0.458252 1
vt 0.458252 0.9238281
vt 0.5 1
vt 0.5 0.9189453
vt 0.5415039 1
vt 0.458252 0.8896484
vt 0.5415039 0.9189453
vt 0.5834961 1
vt 0.5 0.8881836
vt 0.5834961 0.9301758
vt 0.625 1
vt 0.5415039 0.887207
vt 0.5834961 0.8901367
vt 0.6142578 0.9057617
vt 0.625 0.9057617
vt 0.6142578 0.8442383
vt 0.6235352 0.8598633
vt 0.625 0.75
vt 0.5834961 0.8598633
vt 0.5415039 0.862793
vt 0.5 0.8618164
vt 0.5834961 0.8193359
vt 0.5415039 0.8305664
vt 0.458252 0.8603516
vt 0.5 0.8305664
vt 0.6000977 0.75
vt 0.6040039 0.75
vt 0.5834961 0.75
vt 0.5957031 0.75
vt 0.5415039 0.75
vt 0.5126953 0.75
vt 0.5185547 0.75
vt 0.5 0.75
vt 0.5063477 0.75
vt 0.458252 0.75
vt 0.458252 0.8256836
vt 0.416748 0.75
vt 0.416748 0.8198242
vt 0.375 0.75
vt 0.416748 0.8583984
vt 0.3847656 0.8364258
vt 0.375 0.8364258
vt 0.3818359 0.875
vt 0.75 0
vt 0.75 0.25
vt 0.875 0.25
vt 0.875 0
vt 0.625 0
vt 0.75 0.25
vt 0.75 0
vt 0.625 0.25
vt 0.5834961 0
vt 0.5834961 0.25
vt 0.5415039 0
vt 0.5415039 0.25
vt 0.5 0
vt 0.5 0.25
vt 0.458252 0
vt 0.458252 0.25
vt 0.416748 0
vt 0.416748 0.25
vt 0.375 0
vt 0.375 0.25
vt 0.2888184 0
vt 0.2888184 0.25
vt 0.2113037 0
vt 0.2113037 0.25
vt 0.125 0
vt 0.125 0.25
vn -0.987793 0.1541748 -0.02954102
vn -0.9873047 0.1575928 0.00183773
vn -0.956543 0.1235352 -0.2641602
vn -0.9501953 0.119812 -0.2885742
vn -0.7895508 0.05892944 -0.6113281
vn -0.7895508 0.05895996 -0.6108398
vn -0.734375 0.04293823 -0.6772461
vn -0.7363281 0.04348755 -0.675293
vn 0.09790039 -0.1307373 -0.9863281
vn 0.1098633 -0.1325684 -0.9848633
vn -0.6386719 0.01730347 -0.769043
vn -0.5708008 -7.367134E-05 -0.8212891
vn -0.9169922 0.1088257 -0.3840332
vn -0.9541016 0.1280518 -0.2712402
vn -0.4633789 -0.02302551 -0.8857422
vn -0.4387207 -0.02833557 -0.8984375
vn -0.2785645 -0.0604248 -0.9584961
vn -0.3232422 -0.05184937 -0.9448242
vn 0.2702637 -0.1472168 -0.9516602
vn 0.1727295 -0.1342773 -0.9755859
vn -0.2685547 -0.06234741 -0.9614258
vn 0.08581543 -0.1218262 -0.9887695
vn -0.251709 -0.06549072 -0.9658203
vn -0.4453125 -0.02694702 -0.8950195
vn -0.1248779 -0.0881958 -0.9882813
vn -0.1112671 -0.09051514 -0.9897461
vn -0.3007813 0.9418945 0.1506348
vn -0.1925049 0.953125 0.2338867
vn -0.2487793 0.9418945 0.2265625
vn -0.2873535 0.953125 0.09558105
vn -0.3254395 0.9453125 0.02906799
vn -0.1445313 0.9707031 0.1925049
vn -0.2316895 0.9707031 0.06573486
vn -0.1396484 0.9438477 0.2993164
vn -0.2487793 0.9418945 0.2265625
vn -0.04614258 0.9663086 0.2524414
vn 0.06512451 0.9726563 0.223999
vn -0.0176239 0.9956055 0.08953857
vn 0.1278076 0.9765625 0.1723633
vn 0.1966553 0.9609375 0.1942139
vn 0.2839355 0.9575195 0.05114746
vn 0.3232422 0.9448242 0.05307007
vn 0.1914063 0.9799805 -0.05496216
vn 0.4020996 0.9111328 -0.08782959
vn 0.4157715 0.9042969 -0.09442139
vn -0.08984375 0.9956055 -0.01571655
vn 0.3566895 0.9194336 -0.1651611
vn 0.5131836 0.8227539 -0.2437744
vn 0.5009766 0.8251953 -0.2607422
vn 0.5991211 0.7329102 -0.3225098
vn 0.5014648 0.8193359 -0.2775879
vn 0.5810547 0.7407227 -0.3369141
vn 0.6362305 0.6362305 -0.4365234
vn 0.5234375 0.7407227 -0.4211426
vn 0.1201172 0.9799805 -0.1588135
vn 0.2822266 0.9194336 -0.2736816
vn 0.439209 0.8193359 -0.3681641
vn 0.5180664 0.7299805 -0.4453125
vn 0.6362305 0.6362305 -0.4365234
vn 0.3974609 0.8286133 -0.3942871
vn 0.2646484 0.8989258 -0.3486328
vn 0.04763794 0.9609375 -0.2722168
vn 0.5375977 0.7592773 -0.3664551
vn 0.5639648 0.7495117 -0.3469238
vn 0.3654785 0.8500977 -0.3793945
vn 0.489502 0.7749023 -0.4001465
vn 0.2739258 0.8925781 -0.3579102
vn 0.1099243 0.9345703 -0.3381348
vn 0.1113281 0.9448242 -0.3083496
vn -0.09783936 0.9794922 -0.1773682
vn -0.01012421 0.9477539 -0.3190918
vn 0.06097412 0.9267578 -0.3701172
vn -0.07952881 0.9638672 -0.2546387
vn -0.2469482 0.9682617 -0.03411865
vn -0.1774902 0.9775391 -0.1154785
vn 0.2651367 -0.9458008 -0.1872559
vn 0.1569824 -0.9682617 -0.1938477
vn 0.2119141 -0.9624023 -0.1705322
vn 0.1594238 -0.9765625 -0.1446533
vn 0.06781006 -0.9829102 -0.1706543
vn -0.03283691 -0.9887695 -0.1467285
vn -0.1918945 -0.9741211 -0.1210938
vn -0.1104736 -0.987793 -0.1101074
vn -0.3100586 -0.9506836 -0.01626587
vn -0.2700195 -0.9628906 -0.007530212
vn -0.392334 -0.9121094 0.119751
vn 0.03173828 -0.9970703 -0.06695557
vn -0.3796387 -0.9179688 0.116272
vn -0.4699707 -0.8344727 0.2871094
vn -0.1778564 -0.980957 0.07556152
vn -0.4785156 -0.8310547 0.2839355
vn -0.5458984 -0.75 0.3740234
vn -0.3427734 -0.9208984 0.1861572
vn -0.4816895 -0.8212891 0.3051758
vn -0.546875 -0.7504883 0.3708496
vn -0.6123047 -0.6699219 0.420166
vn -0.5429688 -0.7504883 0.3764648
vn -0.6123047 -0.6699219 0.420166
vn -0.5493164 -0.7470703 0.3740234
vn -0.4580078 -0.8217773 0.3393555
vn -0.2966309 -0.9208984 0.2531738
vn -0.1342773 -0.980957 0.1392822
vn -0.4284668 -0.8349609 0.3447266
vn -0.2893066 -0.9052734 0.3110352
vn 0.07391357 -0.9970703 -0.005222321
vn -0.06311035 -0.96875 0.2399902
vn -0.5507813 -0.7680664 0.3259277
vn -0.5839844 -0.7539063 0.3005371
vn -0.3847656 -0.8579102 0.3410645
vn -0.489502 -0.7895508 0.3696289
vn -0.2990723 -0.9013672 0.3134766
vn -0.137085 -0.9453125 0.2963867
vn -0.1265869 -0.9599609 0.2495117
vn -0.01597595 -0.9575195 0.2875977
vn -0.1218262 -0.9326172 0.3400879
vn 0.07434082 -0.9711914 0.2255859
vn 0.08044434 -0.9858398 0.1484375
vn 0.1383057 -0.984375 0.1098022
vn 0.1914063 -0.9814453 0.01248169
vn 0.2420654 -0.9677734 -0.06970215
vn 0.1922607 -0.9765625 -0.09637451
vn 0.2353516 -0.9624023 -0.1361084
vn 0.2700195 -0.9458008 -0.1799316
vn 0.2651367 -0.9458008 -0.1872559
vn -0.100708 -0.09228516 -0.9907227
vn -0.100708 -0.09228516 -0.9907227
vn -0.1248779 -0.0881958 -0.9882813
vn -0.1112671 -0.09051514 -0.9897461
vn 0.8808594 -0.08947754 0.4650879
vn 0.8881836 -0.09228516 0.4501953
vn 0.8881836 -0.09228516 0.4501953
vn 0.8745117 -0.08709717 0.4775391
vn 0.828125 -0.07116699 0.5556641
vn 0.796875 -0.06124878 0.6010742
vn 0.6396484 -0.01792908 0.7680664
vn 0.6142578 -0.01157379 0.7890625
vn 0.4523926 0.02542114 0.8916016
vn 0.4475098 0.02645874 0.894043
vn 0.3032227 0.05575562 0.9511719
vn 0.3029785 0.05575562 0.9511719
vn -0.1365967 0.1291504 0.9819336
vn -0.1171875 0.1264648 0.9848633
vn -0.378418 0.1600342 0.9116211
vn -0.3481445 0.1566162 0.9243164
vn -0.6259766 0.1826172 0.7583008
vn -0.6113281 0.1816406 0.7705078
vn -0.9326172 0.1826172 0.3112793
vn -0.9384766 0.1816406 0.293457
vn -0.9873047 0.1575928 0.00183773
vn -0.987793 0.1541748 -0.02954102
g pCube11_0
f 3/3/3 2/2/2 1/1/1
f 4/4/4 3/3/3 1/1/1
f 5/5/5 3/3/3 4/4/4
f 6/6/6 5/5/5 4/4/4
f 7/7/7 5/5/5 6/6/6
f 8/8/8 7/7/7 6/6/6
f 9/9/9 7/7/7 8/8/8
f 10/10/10 9/9/9 8/8/8
f 11/11/11 9/9/9 10/10/10
f 12/12/12 11/11/11 10/10/10
f 13/13/13 11/11/11 12/12/12
f 14/14/14 13/13/13 12/12/12
f 14/14/14 15/15/15 13/13/13
f 15/15/15 16/16/16 13/13/13
f 17/17/17 16/16/16 15/15/15
f 18/18/18 17/17/17 15/15/15
f 19/19/19 17/17/17 18/18/18
f 20/20/20 19/19/19 18/18/18
f 21/21/21 19/19/19 20/20/20
f 22/22/22 21/21/21 20/20/20
f 23/23/23 21/21/21 22/22/22
f 24/24/24 23/23/23 22/22/22
f 24/24/24 25/25/25 23/23/23
f 25/25/25 26/26/26 23/23/23
f 29/29/29 28/28/28 27/27/27
f 28/28/28 30/30/30 27/27/27
f 30/30/30 31/31/31 27/27/27
f 28/28/28 32/32/32 30/30/30
f 30/30/30 33/33/33 31/31/31
f 32/32/32 33/33/33 30/30/30
f 32/32/32 28/28/28 34/34/34
f 28/28/28 35/35/35 34/34/34
f 36/36/36 32/32/32 34/34/34
f 37/37/37 36/36/36 34/34/34
f 38/38/38 32/32/32 36/36/36
f 32/32/32 38/38/38 33/33/33
f 39/39/39 36/36/36 37/37/37
f 39/39/39 38/38/38 36/36/36
f 40/40/40 39/39/39 37/37/37
f 41/41/41 39/39/39 40/40/40
f 42/42/42 41/41/41 40/40/40
f 43/43/43 38/38/38 39/39/39
f 41/41/41 43/43/43 39/39/39
f 44/44/44 41/41/41 42/42/42
f 45/45/45 44/44/44 42/42/42
f 38/38/38 46/46/46 33/33/33
f 38/38/38 43/43/43 46/46/46
f 47/47/47 43/43/43 41/41/41
f 44/44/44 47/47/47 41/41/41
f 48/48/48 44/44/44 45/45/45
f 49/49/49 48/48/48 45/45/45
f 50/50/50 48/48/48 49/49/49
f 48/48/48 51/51/51 44/44/44
f 51/51/51 47/47/47 44/44/44
f 50/50/50 52/52/52 48/48/48
f 52/52/52 51/51/51 48/48/48
f 50/50/50 53/53/53 52/52/52
f 52/52/52 53/53/53 54/54/54
f 43/43/43 47/47/47 55/55/55
f 43/43/43 55/55/55 46/46/46
f 47/47/47 51/51/51 56/56/56
f 47/47/47 56/56/56 55/55/55
f 51/51/51 52/52/52 57/57/57
f 52/52/52 54/54/54 57/57/57
f 51/51/51 57/57/57 56/56/56
f 54/54/54 58/58/58 57/57/57
f 54/54/54 59/59/59 58/58/58
f 57/57/57 60/60/60 56/56/56
f 58/58/58 60/60/60 57/57/57
f 56/56/56 61/61/61 55/55/55
f 60/60/60 61/61/61 56/56/56
f 55/55/55 62/62/62 46/46/46
f 61/61/61 62/62/62 55/55/55
f 60/60/60 58/58/58 63/63/63
f 58/58/58 64/64/64 63/63/63
f 65/65/65 60/60/60 63/63/63
f 60/60/60 65/65/65 61/61/61
f 66/66/66 65/65/65 63/63/63
f 65/65/65 67/67/67 61/61/61
f 61/61/61 67/67/67 68/68/68
f 62/62/62 61/61/61 68/68/68
f 67/67/67 69/69/69 68/68/68
f 62/62/62 70/70/70 46/46/46
f 46/46/46 70/70/70 33/33/33
f 71/71/71 62/62/62 68/68/68
f 62/62/62 71/71/71 70/70/70
f 72/72/72 71/71/71 68/68/68
f 71/71/71 73/73/73 70/70/70
f 70/70/70 74/74/74 33/33/33
f 70/70/70 73/73/73 74/74/74
f 33/33/33 74/74/74 31/31/31
f 73/73/73 75/75/75 74/74/74
f 74/74/74 75/75/75 31/31/31
f 78/78/78 77/77/77 76/76/76
f 78/78/78 79/79/79 77/77/77
f 79/79/79 80/80/80 77/77/77
f 80/80/80 81/81/81 77/77/77
f 82/82/82 81/81/81 80/80/80
f 83/83/83 82/82/82 80/80/80
f 83/83/83 80/80/80 79/79/79
f 84/84/84 82/82/82 83/83/83
f 85/85/85 84/84/84 83/83/83
f 86/86/86 84/84/84 85/85/85
f 87/87/87 83/83/83 79/79/79
f 85/85/85 83/83/83 87/87/87
f 88/88/88 86/86/86 85/85/85
f 89/89/89 86/86/86 88/88/88
f 90/90/90 85/85/85 87/87/87
f 88/88/88 85/85/85 90/90/90
f 91/91/91 89/89/89 88/88/88
f 92/92/92 89/89/89 91/91/91
f 91/91/91 88/88/88 93/93/93
f 93/93/93 88/88/88 90/90/90
f 92/92/92 91/91/91 94/94/94
f 94/94/94 91/91/91 93/93/93
f 95/95/95 92/92/92 94/94/94
f 95/95/95 96/96/96 92/92/92
f 97/97/97 95/95/95 94/94/94
f 97/97/97 98/98/98 95/95/95
f 99/99/99 98/98/98 97/97/97
f 100/100/100 94/94/94 93/93/93
f 100/100/100 97/97/97 94/94/94
f 101/101/101 93/93/93 90/90/90
f 101/101/101 100/100/100 93/93/93
f 102/102/102 90/90/90 87/87/87
f 102/102/102 101/101/101 90/90/90
f 99/99/99 97/97/97 103/103/103
f 97/97/97 100/100/100 103/103/103
f 100/100/100 101/101/101 104/104/104
f 103/103/103 100/100/100 104/104/104
f 105/105/105 102/102/102 87/87/87
f 105/105/105 87/87/87 79/79/79
f 101/101/101 102/102/102 106/106/106
f 104/104/104 101/101/101 106/106/106
f 99/99/99 103/103/103 107/107/107
f 108/108/108 99/99/99 107/107/107
f 103/103/103 109/109/109 107/107/107
f 109/109/109 110/110/110 107/107/107
f 109/109/109 103/103/103 111/111/111
f 103/103/103 104/104/104 111/111/111
f 111/111/111 104/104/104 112/112/112
f 104/104/104 106/106/106 112/112/112
f 113/113/113 111/111/111 112/112/112
f 106/106/106 114/114/114 112/112/112
f 114/114/114 115/115/115 112/112/112
f 114/114/114 106/106/106 116/116/116
f 106/106/106 102/102/102 117/117/117
f 106/106/106 117/117/117 116/116/116
f 116/116/116 117/117/117 118/118/118
f 102/102/102 105/105/105 117/117/117
f 117/117/117 119/119/119 118/118/118
f 117/117/117 105/105/105 119/119/119
f 118/118/118 119/119/119 120/120/120
f 105/105/105 121/121/121 119/119/119
f 119/119/119 121/121/121 120/120/120
f 121/121/121 105/105/105 79/79/79
f 121/121/121 79/79/79 78/78/78
f 121/121/121 122/122/122 120/120/120
f 122/122/122 121/121/121 78/78/78
f 122/122/122 123/123/123 120/120/120
f 122/122/122 78/78/78 124/124/124
f 123/123/123 122/122/122 124/124/124
f 127/127/127 126/126/126 125/125/125
f 128/128/128 127/127/127 125/125/125
f 131/131/131 130/130/130 129/129/129
f 130/130/130 132/132/132 129/129/129
f 129/129/129 132/132/132 133/133/133
f 132/132/132 134/134/134 133/133/133
f 133/133/133 134/134/134 135/135/135
f 134/134/134 136/136/136 135/135/135
f 135/135/135 136/136/136 137/137/137
f 136/136/136 138/138/138 137/137/137
f 137/137/137 138/138/138 139/139/139
f 138/138/138 140/140/140 139/139/139
f 139/139/139 140/140/140 141/141/141
f 140/140/140 142/142/142 141/141/141
f 141/141/141 142/142/142 143/143/143
f 142/142/142 144/144/144 143/143/143
f 143/143/143 144/144/144 145/145/145
f 144/144/144 146/146/146 145/145/145
f 147/147/147 145/145/145 146/146/146
f 148/148/148 147/147/147 146/146/146
f 147/147/147 148/148/148 149/149/149
f 148/148/148 150/150/150 149/149/149
