g pCube71
v 0.1683359 0.3449691 -0.5830761
v 0.1847942 0.3564004 -0.550016
v 0.1683359 0.3627873 -0.5652581
v 0.1847942 0.3297274 -0.5766894
v 0.1683359 0.323465 -0.5919833
v 0.1683359 -0.2927959 -0.5919833
v 0.1847942 -0.2990576 -0.5766894
v 0.1683359 -0.3142998 -0.5830761
v 0.1683359 -0.3142998 -0.5830761
v 0.1683359 -0.3321176 -0.5652581
v 0.1847942 -0.3257307 -0.550016
v 0.1683359 0.3627873 -0.5652581
v -0.1683359 0.3716943 -0.5437543
v -0.1683359 0.3627873 -0.5652581
v 0.1683359 0.3716943 -0.5437543
v 0.1683359 0.3716943 0.5437543
v -0.1683359 0.3716943 0.5437543
v -0.1683359 0.3627873 0.5652581
v 0.1683359 0.3627873 0.5652581
v -0.1683359 0.3449691 0.5830761
v 0.1683359 0.3449691 0.5830761
v -0.1683359 0.323465 0.5919833
v 0.1683359 0.323465 0.5919833
v 0.1683359 -0.2927959 0.5919833
v -0.1683359 -0.2927959 0.5919833
v -0.1683359 -0.3142998 0.5830761
v 0.1683359 -0.3142998 0.5830761
v -0.1683359 -0.3321176 0.5652581
v 0.1683359 -0.3321176 0.5652581
v -0.1683359 -0.3410246 0.5437543
v 0.1683359 -0.3410246 0.5437543
v -0.1847942 0.3297274 -0.5766894
v -0.1683359 0.3627873 -0.5652581
v -0.1847942 0.3564004 -0.550016
v -0.1683359 0.3449691 -0.5830761
v -0.1683359 0.323465 -0.5919833
v -0.1847942 -0.2990576 -0.5766894
v -0.1683359 -0.2927959 -0.5919833
v -0.1683359 -0.3142998 -0.5830761
v -0.1683359 -0.3142998 -0.5830761
v -0.1847942 -0.3257307 -0.550016
v -0.1683359 -0.3321176 -0.5652581
v 0.1683359 -0.3410246 -0.5437543
v -0.1683359 -0.3321176 -0.5652581
v -0.1683359 -0.3410246 -0.5437543
v 0.1683359 -0.3321176 -0.5652581
v -0.1683359 -0.3142998 -0.5830761
v 0.1683359 -0.3142998 -0.5830761
v -0.1683359 -0.2927959 -0.5919833
v 0.1683359 -0.2927959 -0.5919833
v 0.1683359 0.323465 -0.5919833
v -0.1683359 0.323465 -0.5919833
v -0.1683359 0.3449691 -0.5830761
v 0.1683359 0.3449691 -0.5830761
v -0.1683359 0.3627873 -0.5652581
v 0.1683359 0.3627873 -0.5652581
v 0.1847942 -0.3257307 0.550016
v 0.1683359 -0.3321176 0.5652581
v 0.1683359 -0.3142998 0.5830761
v 0.1847942 -0.2990576 0.5766894
v -0.1683359 -0.3321176 0.5652581
v -0.1847942 -0.3257307 0.550016
v -0.1847942 -0.2990576 0.5766894
v -0.1683359 -0.3142998 0.5830761
v 0.1847942 0.3297274 0.5766894
v 0.1683359 0.3449691 0.5830761
v 0.1683359 0.3627873 0.5652581
v 0.1847942 0.3564004 0.550016
v -0.1683359 0.3449691 0.5830761
v -0.1847942 0.3297274 0.5766894
v -0.1847942 0.3564004 0.550016
v -0.1683359 0.3627873 0.5652581
v 0.1384985 -0.3716943 -0.5437543
v -0.1384985 -0.3716943 -0.5437543
v -0.1384985 -0.3716943 0.5437543
v 0.1384985 -0.3716943 0.5437543
v -0.1847942 -0.2990576 0.5766894
v -0.1847942 -0.3257307 0.550016
v -0.1847942 -0.3257307 -0.550016
v -0.1847942 -0.2990576 -0.5766894
v -0.1847942 0.3297274 0.5766894
v -0.1847942 0.3297274 -0.5766894
v -0.1847942 0.3564004 0.550016
v -0.1847942 0.3564004 -0.550016
v 0.1847942 -0.2990576 -0.5766894
v 0.1847942 -0.3257307 -0.550016
v 0.1847942 -0.3257307 0.550016
v 0.1847942 -0.2990576 0.5766894
v 0.1847942 0.3297274 -0.5766894
v 0.1847942 0.3297274 0.5766894
v 0.1847942 0.3564004 -0.550016
v 0.1847942 0.3564004 0.550016
v 0.1683359 0.3627873 -0.5652581
v 0.1847942 0.3564004 -0.550016
v 0.1683359 0.3716943 -0.5437543
v 0.1847942 0.3564004 0.550016
v 0.1683359 0.3716943 0.5437543
v 0.1683359 0.3627873 0.5652581
v -0.1683359 0.3716943 -0.5437543
v -0.1847942 0.3564004 -0.550016
v -0.1683359 0.3627873 -0.5652581
v -0.1683359 0.3716943 0.5437543
v -0.1847942 0.3564004 0.550016
v -0.1683359 0.3627873 0.5652581
v 0.1683359 -0.3410246 -0.5437543
v 0.1847942 -0.3257307 -0.550016
v 0.1683359 -0.3321176 -0.5652581
v 0.1683359 -0.3410246 0.5437543
v 0.1847942 -0.3257307 0.550016
v 0.1683359 -0.3321176 0.5652581
v -0.1683359 -0.3321176 -0.5652581
v -0.1847942 -0.3257307 -0.550016
v -0.1683359 -0.3410246 -0.5437543
v -0.1847942 -0.3257307 0.550016
v -0.1683359 -0.3410246 0.5437543
v -0.1683359 -0.3321176 0.5652581
v 0.1683359 -0.2927959 0.5919833
v 0.1847942 -0.2990576 0.5766894
v 0.1683359 -0.3142998 0.5830761
v 0.1683359 0.323465 0.5919833
v 0.1847942 0.3297274 0.5766894
v 0.1683359 0.3449691 0.5830761
v -0.1683359 -0.3142998 0.5830761
v -0.1847942 -0.2990576 0.5766894
v -0.1683359 -0.2927959 0.5919833
v -0.1847942 0.3297274 0.5766894
v -0.1683359 0.323465 0.5919833
v -0.1683359 0.3449691 0.5830761
v 0.1683359 -0.3410246 -0.5437543
v -0.1683359 -0.3410246 -0.5437543
v -0.1384985 -0.3716943 -0.5437543
v 0.1384985 -0.3716943 -0.5437543
v -0.1683359 -0.3410246 -0.5437543
v -0.1683359 -0.3410246 0.5437543
v -0.1384985 -0.3716943 0.5437543
v -0.1384985 -0.3716943 -0.5437543
v -0.1683359 -0.3410246 0.5437543
v 0.1683359 -0.3410246 0.5437543
v 0.1384985 -0.3716943 0.5437543
v -0.1384985 -0.3716943 0.5437543
v 0.1683359 -0.3410246 0.5437543
v 0.1683359 -0.3410246 -0.5437543
v 0.1384985 -0.3716943 -0.5437543
v 0.1384985 -0.3716943 0.5437543
vt 0.3842773 0.009376526
vt 0.3662109 0.005371094
vt 0.3803711 0.003124237
vt 0.3718262 0.0147171
vt 0.3862305 0.016922
vt 0.3862305 0.2330322
vt 0.3718262 0.2352295
vt 0.3862305 0.2425537
vt 0.3730469 0.2406006
vt 0.3693848 0.2468262
vt 0.3662109 0.2446289
vt 0.3879395 0.9926758
vt 0.6137695 0.9897461
vt 0.6137695 0.9926758
vt 0.3862305 0.9897461
vt 0.3862305 0.7602539
vt 0.6137695 0.7602539
vt 0.6137695 0.7524414
vt 0.3862305 0.7524414
vt 0.6137695 0.7426758
vt 0.3862305 0.7426758
vt 0.6137695 0.7329102
vt 0.3862305 0.7329102
vt 0.3862305 0.5170898
vt 0.6137695 0.5170898
vt 0.6137695 0.5073242
vt 0.3862305 0.5073242
vt 0.6137695 0.4975586
vt 0.3862305 0.4975586
vt 0.6137695 0.4897461
vt 0.3862305 0.4897461
vt 0.628418 0.0147171
vt 0.6186523 0.003124237
vt 0.6337891 0.005363464
vt 0.6152344 0.009376526
vt 0.6137695 0.016922
vt 0.628418 0.2352295
vt 0.6137695 0.2330322
vt 0.6137695 0.2425537
vt 0.6269531 0.2406006
vt 0.6337891 0.2446289
vt 0.6308594 0.2468262
vt 0.3862305 0.2602539
vt 0.6137695 0.2524414
vt 0.6137695 0.2602539
vt 0.3862305 0.2524414
vt 0.6137695 0.2425537
vt 0.3862305 0.2425537
vt 0.6137695 0.2330322
vt 0.3862305 0.2330322
vt 0.3862305 0.016922
vt 0.6137695 0.016922
vt 0.6152344 0.009376526
vt 0.3842773 0.009376526
vt 0.6186523 0.003124237
vt 0.3803711 0.003124237
vt 0.1339111 0.2446289
vt 0.1306152 0.2468262
vt 0.1268311 0.2406006
vt 0.1281738 0.2352295
vt 0.8691406 0.2468262
vt 0.8662109 0.2446289
vt 0.871582 0.2352295
vt 0.8730469 0.2406006
vt 0.1281738 0.0147171
vt 0.1268311 0.009376526
vt 0.1306152 0.003124237
vt 0.1339111 0.005363464
vt 0.8730469 0.009384155
vt 0.871582 0.0147171
vt 0.8662109 0.005371094
vt 0.8691406 0.003124237
vt 0.3862305 0.2602539
vt 0.6137695 0.2602539
vt 0.6137695 0.4897461
vt 0.3862305 0.4897461
vt 0.871582 0.2352295
vt 0.8662109 0.2446289
vt 0.6337891 0.2446289
vt 0.628418 0.2352295
vt 0.871582 0.0147171
vt 0.628418 0.0147171
vt 0.8662109 0.005371094
vt 0.6337891 0.005363464
vt 0.3718262 0.2352295
vt 0.3662109 0.2446289
vt 0.1339111 0.2446289
vt 0.1281738 0.2352295
vt 0.3718262 0.0147171
vt 0.1281738 0.0147171
vt 0.3662109 0.005371094
vt 0.1339111 0.005363464
vt 0.3879395 0.9926758
vt 0.375 0.9912109
vt 0.3862305 0.9897461
vt 0.375 0.7587891
vt 0.3862305 0.7602539
vt 0.3862305 0.7524414
vt 0.6137695 0.9897461
vt 0.625 0.9912109
vt 0.6137695 0.9926758
vt 0.6137695 0.7602539
vt 0.625 0.7587891
vt 0.6137695 0.7524414
vt 0.3862305 0.2602539
vt 0.375 0.2587891
vt 0.3862305 0.2524414
vt 0.3862305 0.4897461
vt 0.375 0.4912109
vt 0.3862305 0.4975586
vt 0.6137695 0.2524414
vt 0.625 0.2587891
vt 0.6137695 0.2602539
vt 0.625 0.4912109
vt 0.6137695 0.4897461
vt 0.6137695 0.4975586
vt 0.3862305 0.5170898
vt 0.375 0.5146484
vt 0.3862305 0.5073242
vt 0.3862305 0.7329102
vt 0.375 0.7353516
vt 0.3862305 0.7426758
vt 0.6137695 0.5073242
vt 0.625 0.5146484
vt 0.6137695 0.5170898
vt 0.625 0.7353516
vt 0.6137695 0.7329102
vt 0.6137695 0.7426758
vt 0.3862305 0.2602539
vt 0.6137695 0.2602539
vt 0.6137695 0.2602539
vt 0.3862305 0.2602539
vt 0.6137695 0.2602539
vt 0.6137695 0.4897461
vt 0.6137695 0.4897461
vt 0.6137695 0.2602539
vt 0.6137695 0.4897461
vt 0.3862305 0.4897461
vt 0.3862305 0.4897461
vt 0.6137695 0.4897461
vt 0.3862305 0.4897461
vt 0.3862305 0.2602539
vt 0.3862305 0.2602539
vt 0.3862305 0.4897461
vn 0.6694336 0.4887695 -0.5595703
vn 0.6831055 0.7299805 -0.01676941
vn 0.6694336 0.5595703 -0.4887695
vn 0.6845703 0.02879333 -0.7280273
vn 0.6801758 0.002954483 -0.7329102
vn 0.6801758 -0.002954483 -0.7329102
vn 0.6845703 -0.02877808 -0.7280273
vn 0.6694336 -0.4887695 -0.559082
vn 0.6694336 -0.4887695 -0.559082
vn 0.6694336 -0.5595703 -0.4887695
vn 0.6831055 -0.7299805 -0.01676941
vn 0 0.8271484 -0.5620117
vn 0 1 -0.008033752
vn 0 0.8271484 -0.5620117
vn 0 1 -0.008033752
vn 0 1 0.008033752
vn 0 1 0.008033752
vn 0 0.8271484 0.5620117
vn 0 0.8271484 0.5620117
vn 0 0.5620117 0.8271484
vn 0 0.5620117 0.8271484
vn 0 0.01396179 1
vn 0 0.01396179 1
vn 0 -0.01396179 1
vn 0 -0.01396179 1
vn 0 -0.5620117 0.8271484
vn 0 -0.5620117 0.8271484
vn 0 -0.8271484 0.5620117
vn 0 -0.8271484 0.5620117
vn 0 -0.9238281 0.3825684
vn 0 -0.9238281 0.3825684
vn -0.6845703 0.02879333 -0.7280273
vn -0.6694336 0.5595703 -0.4887695
vn -0.6831055 0.7299805 -0.01676941
vn -0.6694336 0.4887695 -0.5595703
vn -0.6801758 0.002954483 -0.7329102
vn -0.6845703 -0.02877808 -0.7280273
vn -0.6801758 -0.002954483 -0.7329102
vn -0.6694336 -0.4887695 -0.559082
vn -0.6694336 -0.4887695 -0.559082
vn -0.6831055 -0.7299805 -0.01676941
vn -0.6694336 -0.5595703 -0.4887695
vn 0 -0.9238281 -0.3825684
vn 0 -0.8271484 -0.5620117
vn 0 -0.9238281 -0.3825684
vn 0 -0.8271484 -0.5620117
vn 0 -0.5620117 -0.8271484
vn 0 -0.5620117 -0.8271484
vn 0 -0.01396179 -1
vn 0 -0.01396179 -1
vn 0 0.01396179 -1
vn 0 0.01396179 -1
vn 0 0.5620117 -0.8271484
vn 0 0.5620117 -0.8271484
vn 0 0.8271484 -0.5620117
vn 0 0.8271484 -0.5620117
vn 0.6831055 -0.7299805 0.01676941
vn 0.6694336 -0.5595703 0.4887695
vn 0.6694336 -0.4887695 0.559082
vn 0.6845703 -0.02877808 0.7280273
vn -0.6694336 -0.5595703 0.4887695
vn -0.6831055 -0.7299805 0.01676941
vn -0.6845703 -0.02877808 0.7280273
vn -0.6694336 -0.4887695 0.559082
vn 0.6845703 0.02879333 0.7280273
vn 0.6694336 0.4887695 0.5595703
vn 0.6694336 0.5595703 0.4887695
vn 0.6831055 0.7299805 0.01676941
vn -0.6694336 0.4887695 0.5595703
vn -0.6845703 0.02879333 0.7280273
vn -0.6831055 0.7299805 0.01676941
vn -0.6694336 0.5595703 0.4887695
vn 0 -1 0
vn 0 -1 0
vn 0 -1 0
vn 0 -1 0
vn -1 0 0
vn -1 0 0
vn -1 0 0
vn -1 0 0
vn -1 0 0
vn -1 0 0
vn -1 0 0
vn -1 0 0
vn 1 0 0
vn 1 0 0
vn 1 0 0
vn 1 0 0
vn 1 0 0
vn 1 0 0
vn 1 0 0
vn 1 0 0
vn 0.6694336 0.5595703 -0.4887695
vn 0.6831055 0.7299805 -0.01676941
vn 0.6801758 0.7329102 -0.001688004
vn 0.6831055 0.7299805 0.01676941
vn 0.6801758 0.7329102 0.001688004
vn 0.6694336 0.5595703 0.4887695
vn -0.6801758 0.7329102 -0.001688004
vn -0.6831055 0.7299805 -0.01676941
vn -0.6694336 0.5595703 -0.4887695
vn -0.6801758 0.7329102 0.001688004
vn -0.6831055 0.7299805 0.01676941
vn -0.6694336 0.5595703 0.4887695
vn 0.6801758 -0.7329102 -0.001688004
vn 0.6831055 -0.7299805 -0.01676941
vn 0.6694336 -0.5595703 -0.4887695
vn 0.6801758 -0.7329102 0.001688004
vn 0.6831055 -0.7299805 0.01676941
vn 0.6694336 -0.5595703 0.4887695
vn -0.6694336 -0.5595703 -0.4887695
vn -0.6831055 -0.7299805 -0.01676941
vn -0.6801758 -0.7329102 -0.001688004
vn -0.6831055 -0.7299805 0.01676941
vn -0.6801758 -0.7329102 0.001688004
vn -0.6694336 -0.5595703 0.4887695
vn 0.6801758 -0.002954483 0.7329102
vn 0.6845703 -0.02877808 0.7280273
vn 0.6694336 -0.4887695 0.559082
vn 0.6801758 0.002954483 0.7329102
vn 0.6845703 0.02879333 0.7280273
vn 0.6694336 0.4887695 0.5595703
vn -0.6694336 -0.4887695 0.559082
vn -0.6845703 -0.02877808 0.7280273
vn -0.6801758 -0.002954483 0.7329102
vn -0.6845703 0.02879333 0.7280273
vn -0.6801758 0.002954483 0.7329102
vn -0.6694336 0.4887695 0.5595703
vn 0 0 -1
vn 0 0 -1
vn 0 0 -1
vn 0 0 -1
vn -0.7167969 -0.6972656 0
vn -0.7167969 -0.6972656 0
vn -0.7167969 -0.6972656 0
vn -0.7167969 -0.6972656 0
vn 0 0 1
vn 0 0 1
vn 0 0 1
vn 0 0 1
vn 0.7167969 -0.6972656 0
vn 0.7167969 -0.6972656 0
vn 0.7167969 -0.6972656 0
vn 0.7167969 -0.6972656 0
g pCube71_0
f 3/3/3 2/2/2 1/1/1
f 2/2/2 4/4/4 1/1/1
f 1/1/1 4/4/4 5/5/5
f 6/6/6 5/5/5 4/4/4
f 7/7/7 6/6/6 4/4/4
f 6/6/6 7/7/7 8/8/8
f 10/10/10 9/9/9 7/7/7
f 11/11/11 10/10/10 7/7/7
f 14/14/14 13/13/13 12/12/12
f 13/13/13 15/15/15 12/12/12
f 15/15/15 13/13/13 16/16/16
f 13/13/13 17/17/17 16/16/16
f 17/17/17 18/18/18 16/16/16
f 18/18/18 19/19/19 16/16/16
f 18/18/18 20/20/20 19/19/19
f 20/20/20 21/21/21 19/19/19
f 20/20/20 22/22/22 21/21/21
f 22/22/22 23/23/23 21/21/21
f 23/23/23 22/22/22 24/24/24
f 22/22/22 25/25/25 24/24/24
f 25/25/25 26/26/26 24/24/24
f 26/26/26 27/27/27 24/24/24
f 26/26/26 28/28/28 27/27/27
f 28/28/28 29/29/29 27/27/27
f 28/28/28 30/30/30 29/29/29
f 30/30/30 31/31/31 29/29/29
f 34/34/34 33/33/33 32/32/32
f 33/33/33 35/35/35 32/32/32
f 36/36/36 32/32/32 35/35/35
f 37/37/37 32/32/32 36/36/36
f 38/38/38 37/37/37 36/36/36
f 39/39/39 37/37/37 38/38/38
f 41/41/41 37/37/37 40/40/40
f 42/42/42 41/41/41 40/40/40
f 45/45/45 44/44/44 43/43/43
f 44/44/44 46/46/46 43/43/43
f 44/44/44 47/47/47 46/46/46
f 47/47/47 48/48/48 46/46/46
f 47/47/47 49/49/49 48/48/48
f 49/49/49 50/50/50 48/48/48
f 50/50/50 49/49/49 51/51/51
f 49/49/49 52/52/52 51/51/51
f 52/52/52 53/53/53 51/51/51
f 53/53/53 54/54/54 51/51/51
f 53/53/53 55/55/55 54/54/54
f 55/55/55 56/56/56 54/54/54
f 59/59/59 58/58/58 57/57/57
f 60/60/60 59/59/59 57/57/57
f 63/63/63 62/62/62 61/61/61
f 64/64/64 63/63/63 61/61/61
f 67/67/67 66/66/66 65/65/65
f 68/68/68 67/67/67 65/65/65
f 71/71/71 70/70/70 69/69/69
f 72/72/72 71/71/71 69/69/69
f 75/75/75 74/74/74 73/73/73
f 76/76/76 75/75/75 73/73/73
f 79/79/79 78/78/78 77/77/77
f 77/77/77 80/80/80 79/79/79
f 77/77/77 81/81/81 80/80/80
f 81/81/81 82/82/82 80/80/80
f 81/81/81 83/83/83 82/82/82
f 83/83/83 84/84/84 82/82/82
f 87/87/87 86/86/86 85/85/85
f 85/85/85 88/88/88 87/87/87
f 85/85/85 89/89/89 88/88/88
f 89/89/89 90/90/90 88/88/88
f 89/89/89 91/91/91 90/90/90
f 91/91/91 92/92/92 90/90/90
f 95/95/95 94/94/94 93/93/93
f 96/96/96 94/94/94 95/95/95
f 97/97/97 96/96/96 95/95/95
f 98/98/98 96/96/96 97/97/97
f 101/101/101 100/100/100 99/99/99
f 102/102/102 99/99/99 100/100/100
f 103/103/103 102/102/102 100/100/100
f 102/102/102 103/103/103 104/104/104
f 107/107/107 106/106/106 105/105/105
f 108/108/108 105/105/105 106/106/106
f 109/109/109 108/108/108 106/106/106
f 108/108/108 109/109/109 110/110/110
f 113/113/113 112/112/112 111/111/111
f 114/114/114 112/112/112 113/113/113
f 115/115/115 114/114/114 113/113/113
f 116/116/116 114/114/114 115/115/115
f 119/119/119 118/118/118 117/117/117
f 120/120/120 117/117/117 118/118/118
f 121/121/121 120/120/120 118/118/118
f 120/120/120 121/121/121 122/122/122
f 125/125/125 124/124/124 123/123/123
f 126/126/126 124/124/124 125/125/125
f 127/127/127 126/126/126 125/125/125
f 128/128/128 126/126/126 127/127/127
f 131/131/131 130/130/130 129/129/129
f 132/132/132 131/131/131 129/129/129
f 135/135/135 134/134/134 133/133/133
f 136/136/136 135/135/135 133/133/133
f 139/139/139 138/138/138 137/137/137
f 140/140/140 139/139/139 137/137/137
f 143/143/143 142/142/142 141/141/141
f 144/144/144 143/143/143 141/141/141
