g pCube20
v -0.002864127 0.01901486 -0.03648788
v -0.00293252 0.01819732 -0.0366876
v 0.007600474 0.01782167 -0.03117664
v 0.007687277 0.01885928 -0.03092317
v 0.01064291 0.01672062 -0.02748464
v 0.01073861 0.01786464 -0.02720515
v 0.01513915 0.01416558 -0.01975039
v 0.01519911 0.01488237 -0.01957529
v 0.01663608 0.01268478 -0.01579613
v 0.0166929 0.01336396 -0.0156302
v 0.01435151 0.01283113 -0.01316208
v 0.01440794 0.01350567 -0.01299732
v 0.01771794 0.01143605 -0.01217191
v 0.017774 0.01210601 -0.01200821
v 0.01926675 0.01058889 -0.008066989
v 0.01921385 0.009956509 -0.008221476
v 0.01928066 0.001938747 0.005451528
v 0.01934579 0.002717205 0.005641722
v 0.01443304 -0.01201638 0.02181874
v 0.01450021 -0.01121332 0.02201492
v -0.008868266 0.01921591 -0.03745608
v -0.01080449 0.01998294 -0.03409404
v -0.01090222 0.01925813 -0.03689778
v -0.007498995 0.01991433 -0.03500136
v -0.002864127 0.01901486 -0.03648788
v -0.009740736 0.02090989 -0.02956622
v -0.006073676 0.02083384 -0.03057277
v -0.01557351 0.01927858 -0.03299932
v -0.01090222 0.01925813 -0.03689778
v -0.0140296 0.02061775 -0.02710629
v -0.02182282 0.01925766 -0.02288011
v -0.008632128 0.02136493 -0.02502105
v -0.01295175 0.02092372 -0.0227386
v -0.02258978 0.01820109 -0.01815171
v -0.0110093 0.02009463 -0.01486125
v -0.0225772 0.01583242 -0.00916186
v -0.006532118 0.02082556 -0.01733777
v -0.008114756 0.01448965 -0.002835749
v -0.02033239 0.01156868 0.002844648
v -0.004692616 0.02128317 -0.02610239
v -0.003253867 0.01569209 -0.005084102
v -0.005414566 0.006986615 0.008622832
v -0.01366026 0.003402126 0.01470145
v -0.001570509 -0.01087984 0.02642613
v -0.0005836584 0.009038448 0.005046247
v 0.004386015 -0.00931667 0.02426163
v 0.009318911 -0.02600692 0.03552312
v 0.008325518 -0.009398427 0.02318031
v -0.002592612 0.02074376 -0.0184191
v 0.0006856478 0.01561032 -0.006165446
v 0.005960368 0.01419862 -0.006701838
v 0.002483179 0.01981598 -0.01856805
v 0.003355848 0.008956738 0.003964933
v 0.01450021 -0.01121332 0.02201492
v 0.009318911 -0.02600692 0.03552312
v 0.009257155 0.006683926 0.004590597
v 0.01934579 0.002717205 0.005641722
v 0.01926675 0.01058889 -0.008066989
v 0.017774 0.01210601 -0.01200821
v 0.01440794 0.01350567 -0.01299732
v 0.0166929 0.01336396 -0.0156302
v 0.01519911 0.01488237 -0.01957529
v 0.0001582926 0.02065281 -0.02633989
v 0.01073861 0.01786464 -0.02720515
v -0.001153319 0.02035196 -0.03064347
v 0.007687277 0.01885928 -0.03092317
v -0.01103101 0.01771861 -0.03727387
v -0.0156419 0.01846106 -0.03319904
v -0.01093329 0.01844336 -0.03447015
v -0.009869517 0.01937039 -0.0299423
v -0.0140722 0.01934616 -0.02745477
v -0.02187154 0.01867528 -0.02302238
v -0.02262671 0.01775961 -0.01825955
v -0.01299234 0.01961905 -0.02309558
v -0.02265864 0.01485882 -0.009399691
v -0.01104902 0.01877549 -0.01522595
v -0.02040559 0.0106936 0.00263088
v -0.008760916 0.01982537 -0.02539714
v -0.008152024 0.01319023 -0.003191333
v -0.01372195 0.002664593 0.01452128
v -0.006660906 0.01928598 -0.01771386
v -0.005460098 0.005740765 0.008267119
v -0.00163769 -0.0116829 0.02622995
v -0.003382651 0.01415254 -0.005460192
v -0.000712454 0.007498898 0.004670149
v 0.004257219 -0.01085621 0.02388556
v 0.009267687 -0.02661918 0.03537355
v 0.008196734 -0.01093796 0.02280418
v 0.009267687 -0.02661918 0.03537355
v 0.01443304 -0.01201638 0.02181874
v 0.003227056 0.007417141 0.003588827
v 0.009149642 0.005430844 0.004283964
v 0.005847182 0.01287962 -0.007023967
v 0.01928066 0.001938747 0.005451528
v 0.01921385 0.009956509 -0.008221476
v 0.01771794 0.01143605 -0.01217191
v 0.01435151 0.01283113 -0.01316208
v 0.01663608 0.01268478 -0.01579613
v 0.000556856 0.01407077 -0.006541552
v 0.002369047 0.01848623 -0.01889292
v 0.01513915 0.01416558 -0.01975039
v 0.01064291 0.01672062 -0.02748464
v -0.002721403 0.01920425 -0.0187952
v 4.617099E-05 0.01934552 -0.02665921
v 0.007600474 0.01782167 -0.03117664
v -0.004821408 0.01974365 -0.02647848
v -0.001262556 0.01907719 -0.03095491
v -0.00293252 0.01819732 -0.0366876
v -0.006202471 0.01929426 -0.03094887
v -0.007627787 0.01837477 -0.03537746
v -0.008997056 0.01767637 -0.03783217
v -0.01103101 0.01771861 -0.03727387
v 0.009267687 -0.02661918 0.03537355
v 0.009318911 -0.02600692 0.03552312
v 0.01450021 -0.01121332 0.02201492
v 0.01443304 -0.01201638 0.02181874
v -0.00163769 -0.0116829 0.02622995
v 0.009318911 -0.02600692 0.03552312
v 0.009267687 -0.02661918 0.03537355
v -0.001570509 -0.01087984 0.02642613
v -0.01372195 0.002664593 0.01452128
v -0.01366026 0.003402126 0.01470145
v -0.02040559 0.0106936 0.00263088
v -0.02033239 0.01156868 0.002844648
v -0.02265864 0.01485882 -0.009399691
v -0.0225772 0.01583242 -0.00916186
v -0.02262671 0.01775961 -0.01825955
v -0.02258978 0.01820109 -0.01815171
v -0.02187154 0.01867528 -0.02302238
v -0.02182282 0.01925766 -0.02288011
v -0.0156419 0.01846106 -0.03319904
v -0.01557351 0.01927858 -0.03299932
v -0.01103101 0.01771861 -0.03727387
v -0.01090222 0.01925813 -0.03689778
v -0.008997056 0.01767637 -0.03783217
v -0.008868266 0.01921591 -0.03745608
v -0.00293252 0.01819732 -0.0366876
v -0.002864127 0.01901486 -0.03648788
vt 0.375 0.5
vt 0.375 0.75
vt 0.416748 0.75
vt 0.416748 0.5
vt 0.458252 0.75
vt 0.458252 0.5
vt 0.5 0.75
vt 0.5 0.5
vt 0.5185547 0.75
vt 0.5185547 0.5
vt 0.5209961 0.75
vt 0.5209961 0.5
vt 0.5229492 0.75
vt 0.5229492 0.5
vt 0.5415039 0.5
vt 0.5415039 0.75
vt 0.5834961 0.75
vt 0.5834961 0.5
vt 0.625 0.75
vt 0.625 0.5
vt 0.375 0.4138184
vt 0.3847656 0.3361816
vt 0.3818359 0.375
vt 0.3847656 0.4138184
vt 0.375 0.5
vt 0.416748 0.3583984
vt 0.416748 0.3916016
vt 0.375 0.25
vt 0.375 0.3361816
vt 0.416748 0.3195801
vt 0.416748 0.25
vt 0.458252 0.3601074
vt 0.458252 0.3256836
vt 0.458252 0.25
vt 0.5 0.3303223
vt 0.5 0.25
vt 0.5 0.3620605
vt 0.5415039 0.3305664
vt 0.5415039 0.25
vt 0.458252 0.3898926
vt 0.5415039 0.3625488
vt 0.5834961 0.3193359
vt 0.5834961 0.25
vt 0.625 0.25
vt 0.5834961 0.3601074
vt 0.6142578 0.3442383
vt 0.6235352 0.3596191
vt 0.6142578 0.4057617
vt 0.5 0.3879395
vt 0.5415039 0.3874512
vt 0.5415039 0.4194336
vt 0.5 0.4196777
vt 0.5834961 0.3898926
vt 0.625 0.5
vt 0.625 0.4057617
vt 0.5834961 0.4304199
vt 0.5834961 0.5
vt 0.5415039 0.5
vt 0.5229492 0.5
vt 0.5209961 0.5
vt 0.5185547 0.5
vt 0.5 0.5
vt 0.458252 0.4240723
vt 0.458252 0.5
vt 0.416748 0.4301758
vt 0.416748 0.5
vt 0.375 0.9135742
vt 0.375 1
vt 0.3847656 0.9135742
vt 0.416748 0.8916016
vt 0.416748 0.9296875
vt 0.416748 1
vt 0.458252 1
vt 0.458252 0.9238281
vt 0.5 1
vt 0.5 0.9189453
vt 0.5415039 1
vt 0.458252 0.8896484
vt 0.5415039 0.9189453
vt 0.5834961 1
vt 0.5 0.8881836
vt 0.5834961 0.9301758
vt 0.625 1
vt 0.5415039 0.887207
vt 0.5834961 0.8901367
vt 0.6142578 0.9057617
vt 0.625 0.9057617
vt 0.6142578 0.8442383
vt 0.6235352 0.8598633
vt 0.625 0.75
vt 0.5834961 0.8598633
vt 0.5834961 0.8193359
vt 0.5415039 0.8305664
vt 0.5834961 0.75
vt 0.5415039 0.75
vt 0.5229492 0.75
vt 0.5209961 0.75
vt 0.5185547 0.75
vt 0.5415039 0.862793
vt 0.5 0.8305664
vt 0.5 0.75
vt 0.458252 0.75
vt 0.5 0.8618164
vt 0.458252 0.8256836
vt 0.416748 0.75
vt 0.458252 0.8603516
vt 0.416748 0.8198242
vt 0.375 0.75
vt 0.416748 0.8583984
vt 0.3847656 0.8364258
vt 0.375 0.8364258
vt 0.3818359 0.875
vt 0.75 0
vt 0.75 0.25
vt 0.875 0.25
vt 0.875 0
vt 0.625 0
vt 0.75 0.25
vt 0.75 0
vt 0.625 0.25
vt 0.5834961 0
vt 0.5834961 0.25
vt 0.5415039 0
vt 0.5415039 0.25
vt 0.5 0
vt 0.5 0.25
vt 0.458252 0
vt 0.458252 0.25
vt 0.416748 0
vt 0.416748 0.25
vt 0.375 0
vt 0.375 0.25
vt 0.2888184 0
vt 0.2888184 0.25
vt 0.2113037 0
vt 0.2113037 0.25
vt 0.125 0
vt 0.125 0.25
vn 0.3583984 0.1931152 -0.9135742
vn 0.3308105 0.1977539 -0.9228516
vn 0.5703125 0.1495361 -0.8076172
vn 0.5883789 0.1451416 -0.7954102
vn 0.8388672 0.06185913 -0.5405273
vn 0.8383789 0.06225586 -0.5419922
vn 0.8911133 0.03610229 -0.4528809
vn 0.8881836 0.03747559 -0.4575195
vn 0.9921875 -0.1004639 0.0715332
vn 0.9892578 -0.1072388 0.1002197
vn 0.9516602 -0.004608154 -0.3071289
vn 0.9672852 -0.01899719 -0.253418
vn 0.7636719 0.09222412 -0.6391602
vn 0.7021484 0.1130371 -0.703125
vn 0.9907227 -0.05181885 -0.1271973
vn 0.9931641 -0.0581665 -0.1019897
vn 0.9873047 -0.1102295 0.1130981
vn 0.9936523 -0.09753418 0.05908203
vn 0.9697266 -0.1314697 0.2062988
vn 0.9726563 -0.128418 0.192627
vn -0.006252289 0.9628906 -0.2705078
vn -0.1204224 0.9736328 -0.1943359
vn -0.09539795 0.9643555 -0.2459717
vn 0.0418396 0.9702148 -0.2386475
vn 0.1170654 0.9604492 -0.253418
vn -0.09637451 0.9863281 -0.1340332
vn 0.05233765 0.9833984 -0.1748047
vn -0.2003174 0.965332 -0.1662598
vn -0.09539795 0.9643555 -0.2459717
vn -0.1856689 0.980957 -0.06085205
vn -0.1948242 0.9794922 0.05429077
vn -0.03967285 0.9990234 0.02145386
vn -0.1662598 0.9775391 0.1303711
vn -0.210083 0.9594727 0.1871338
vn -0.1038818 0.9433594 0.3149414
vn -0.1188354 0.9291992 0.3505859
vn 0.02726746 0.9643555 0.263916
vn -0.01355743 0.8837891 0.4672852
vn -0.01196289 0.8764648 0.4816895
vn 0.08343506 0.996582 -0.01234436
vn 0.07421875 0.8901367 0.4499512
vn 0.09289551 0.7832031 0.6152344
vn 0.1130371 0.784668 0.609375
vn 0.1351318 0.6865234 0.7143555
vn 0.1282959 0.7783203 0.6147461
vn 0.1549072 0.6938477 0.703125
vn 0.2263184 0.5839844 0.7797852
vn 0.2526855 0.6923828 0.6762695
vn 0.1483154 0.9619141 0.2304688
vn 0.2003174 0.887207 0.4152832
vn 0.2902832 0.8769531 0.3830566
vn 0.2875977 0.9331055 0.2166748
vn 0.2333984 0.7763672 0.5854492
vn 0.2749023 0.6835938 0.6762695
vn 0.2263184 0.5839844 0.7797852
vn 0.2670898 0.7807617 0.5649414
vn 0.2475586 0.7832031 0.5703125
vn 0.2976074 0.8686523 0.3962402
vn 0.3225098 0.9038086 0.28125
vn 0.3225098 0.9038086 0.28125
vn 0.3225098 0.9038086 0.28125
vn 0.322998 0.9165039 0.2366943
vn 0.2375488 0.9707031 0.03167725
vn 0.3034668 0.9501953 0.07312012
vn 0.1516113 0.9760742 -0.1566162
vn 0.2056885 0.9765625 -0.0635376
vn 0.05264282 -0.9672852 0.2481689
vn 0.09356689 -0.9848633 0.1462402
vn 0.05371094 -0.9799805 0.1911621
vn 0.04589844 -0.9902344 0.1318359
vn 0.1003418 -0.9936523 0.05331421
vn 0.1105347 -0.9926758 -0.05001831
vn 0.1390381 -0.9682617 -0.2071533
vn 0.1013794 -0.9858398 -0.1348877
vn 0.07971191 -0.9331055 -0.3503418
vn 0.05801392 -0.9467773 -0.3164063
vn -0.01982117 -0.8833008 -0.4682617
vn 0.01363373 -1 -0.01560974
vn -0.02081299 -0.8896484 -0.4558105
vn -0.1484375 -0.7939453 -0.5893555
vn -0.05114746 -0.9648438 -0.2578125
vn -0.1420898 -0.7900391 -0.5961914
vn -0.2015381 -0.7026367 -0.6826172
vn -0.09857178 -0.890625 -0.4438477
vn -0.1606445 -0.7797852 -0.6049805
vn -0.1982422 -0.7036133 -0.6821289
vn -0.2198486 -0.6186523 -0.7539063
vn -0.2045898 -0.7036133 -0.6806641
vn -0.2198486 -0.6186523 -0.7539063
vn -0.2023926 -0.7021484 -0.6826172
vn -0.2005615 -0.7792969 -0.59375
vn -0.2119141 -0.7880859 -0.578125
vn -0.2443848 -0.8842773 -0.3977051
vn -0.204834 -0.7915039 -0.5756836
vn -0.2507324 -0.8769531 -0.4101563
vn -0.2751465 -0.9145508 -0.2971191
vn -0.2751465 -0.9145508 -0.2971191
vn -0.2751465 -0.9145508 -0.2971191
vn -0.1765137 -0.8891602 -0.4221191
vn -0.2474365 -0.9428711 -0.2235107
vn -0.2797852 -0.9282227 -0.2459717
vn -0.2749023 -0.9589844 -0.06903076
vn -0.1253662 -0.9633789 -0.2375488
vn -0.204834 -0.9780273 -0.03909302
vn -0.1877441 -0.9819336 0.02796936
vn -0.05853271 -0.9980469 0.00403595
vn -0.1133423 -0.9873047 0.1102905
vn -0.05200195 -0.980957 0.1861572
vn -0.01063538 -0.9892578 0.1472168
vn 0.01332855 -0.9794922 0.2020264
vn 0.0440979 -0.9672852 0.2504883
vn 0.05264282 -0.9672852 0.2481689
vn 0.965332 -0.1351318 0.2224121
vn 0.965332 -0.1351318 0.2224121
vn 0.9726563 -0.128418 0.192627
vn 0.9697266 -0.1314697 0.2062988
vn -0.7319336 -0.1032104 0.6733398
vn -0.7207031 -0.1069946 0.6850586
vn -0.7207031 -0.1069946 0.6850586
vn -0.7416992 -0.09991455 0.6630859
vn -0.7993164 -0.07861328 0.5957031
vn -0.8320313 -0.06488037 0.5507813
vn -0.9355469 -0.007843018 0.3525391
vn -0.9472656 0.001111031 0.3198242
vn -0.9892578 0.04901123 0.1380615
vn -0.9902344 0.0506897 0.1314697
vn -0.9960938 0.08831787 -0.020401
vn -0.9956055 0.08856201 -0.02140808
vn -0.8789063 0.1812744 -0.440918
vn -0.887207 0.1781006 -0.425293
vn -0.7319336 0.2188721 -0.6450195
vn -0.753418 0.2148438 -0.621582
vn -0.5043945 0.2445068 -0.828125
vn -0.5205078 0.2434082 -0.8183594
vn 0.02093506 0.2355957 -0.9716797
vn 0.03826904 0.2341309 -0.9716797
vn 0.3308105 0.1977539 -0.9228516
vn 0.3583984 0.1931152 -0.9135742
g pCube20_0
f 3/3/3 2/2/2 1/1/1
f 4/4/4 3/3/3 1/1/1
f 5/5/5 3/3/3 4/4/4
f 6/6/6 5/5/5 4/4/4
f 7/7/7 5/5/5 6/6/6
f 8/8/8 7/7/7 6/6/6
f 9/9/9 7/7/7 8/8/8
f 10/10/10 9/9/9 8/8/8
f 11/11/11 9/9/9 10/10/10
f 12/12/12 11/11/11 10/10/10
f 13/13/13 11/11/11 12/12/12
f 14/14/14 13/13/13 12/12/12
f 14/14/14 15/15/15 13/13/13
f 15/15/15 16/16/16 13/13/13
f 17/17/17 16/16/16 15/15/15
f 18/18/18 17/17/17 15/15/15
f 19/19/19 17/17/17 18/18/18
f 20/20/20 19/19/19 18/18/18
f 23/23/23 22/22/22 21/21/21
f 22/22/22 24/24/24 21/21/21
f 24/24/24 25/25/25 21/21/21
f 22/22/22 26/26/26 24/24/24
f 24/24/24 27/27/27 25/25/25
f 26/26/26 27/27/27 24/24/24
f 26/26/26 22/22/22 28/28/28
f 22/22/22 29/29/29 28/28/28
f 30/30/30 26/26/26 28/28/28
f 31/31/31 30/30/30 28/28/28
f 32/32/32 26/26/26 30/30/30
f 26/26/26 32/32/32 27/27/27
f 33/33/33 30/30/30 31/31/31
f 33/33/33 32/32/32 30/30/30
f 34/34/34 33/33/33 31/31/31
f 35/35/35 33/33/33 34/34/34
f 36/36/36 35/35/35 34/34/34
f 37/37/37 32/32/32 33/33/33
f 35/35/35 37/37/37 33/33/33
f 38/38/38 35/35/35 36/36/36
f 39/39/39 38/38/38 36/36/36
f 32/32/32 40/40/40 27/27/27
f 32/32/32 37/37/37 40/40/40
f 41/41/41 37/37/37 35/35/35
f 38/38/38 41/41/41 35/35/35
f 42/42/42 38/38/38 39/39/39
f 43/43/43 42/42/42 39/39/39
f 44/44/44 42/42/42 43/43/43
f 42/42/42 45/45/45 38/38/38
f 45/45/45 41/41/41 38/38/38
f 44/44/44 46/46/46 42/42/42
f 46/46/46 45/45/45 42/42/42
f 44/44/44 47/47/47 46/46/46
f 46/46/46 47/47/47 48/48/48
f 37/37/37 41/41/41 49/49/49
f 37/37/37 49/49/49 40/40/40
f 41/41/41 45/45/45 50/50/50
f 41/41/41 50/50/50 49/49/49
f 50/50/50 51/51/51 49/49/49
f 51/51/51 52/52/52 49/49/49
f 49/49/49 52/52/52 40/40/40
f 45/45/45 46/46/46 53/53/53
f 46/46/46 48/48/48 53/53/53
f 45/45/45 53/53/53 50/50/50
f 48/48/48 54/54/54 53/53/53
f 48/48/48 55/55/55 54/54/54
f 53/53/53 56/56/56 50/50/50
f 54/54/54 56/56/56 53/53/53
f 56/56/56 51/51/51 50/50/50
f 54/54/54 57/57/57 56/56/56
f 56/56/56 57/57/57 51/51/51
f 57/57/57 58/58/58 51/51/51
f 51/51/51 58/58/58 59/59/59
f 51/51/51 59/59/59 60/60/60
f 51/51/51 60/60/60 61/61/61
f 52/52/52 51/51/51 61/61/61
f 61/61/61 62/62/62 52/52/52
f 52/52/52 62/62/62 63/63/63
f 52/52/52 63/63/63 40/40/40
f 62/62/62 64/64/64 63/63/63
f 40/40/40 63/63/63 27/27/27
f 63/63/63 64/64/64 65/65/65
f 63/63/63 65/65/65 27/27/27
f 64/64/64 66/66/66 65/65/65
f 27/27/27 65/65/65 25/25/25
f 65/65/65 66/66/66 25/25/25
f 69/69/69 68/68/68 67/67/67
f 69/69/69 70/70/70 68/68/68
f 70/70/70 71/71/71 68/68/68
f 71/71/71 72/72/72 68/68/68
f 73/73/73 72/72/72 71/71/71
f 74/74/74 73/73/73 71/71/71
f 74/74/74 71/71/71 70/70/70
f 75/75/75 73/73/73 74/74/74
f 76/76/76 75/75/75 74/74/74
f 77/77/77 75/75/75 76/76/76
f 78/78/78 74/74/74 70/70/70
f 76/76/76 74/74/74 78/78/78
f 79/79/79 77/77/77 76/76/76
f 80/80/80 77/77/77 79/79/79
f 81/81/81 76/76/76 78/78/78
f 79/79/79 76/76/76 81/81/81
f 82/82/82 80/80/80 79/79/79
f 83/83/83 80/80/80 82/82/82
f 82/82/82 79/79/79 84/84/84
f 84/84/84 79/79/79 81/81/81
f 83/83/83 82/82/82 85/85/85
f 85/85/85 82/82/82 84/84/84
f 86/86/86 83/83/83 85/85/85
f 86/86/86 87/87/87 83/83/83
f 88/88/88 86/86/86 85/85/85
f 88/88/88 89/89/89 86/86/86
f 90/90/90 89/89/89 88/88/88
f 91/91/91 85/85/85 84/84/84
f 91/91/91 88/88/88 85/85/85
f 90/90/90 88/88/88 92/92/92
f 88/88/88 91/91/91 92/92/92
f 92/92/92 91/91/91 93/93/93
f 90/90/90 92/92/92 94/94/94
f 94/94/94 92/92/92 95/95/95
f 92/92/92 93/93/93 95/95/95
f 96/96/96 95/95/95 93/93/93
f 97/97/97 96/96/96 93/93/93
f 98/98/98 97/97/97 93/93/93
f 99/99/99 91/91/91 84/84/84
f 91/91/91 99/99/99 93/93/93
f 99/99/99 84/84/84 81/81/81
f 98/98/98 93/93/93 100/100/100
f 93/93/93 99/99/99 100/100/100
f 100/100/100 101/101/101 98/98/98
f 101/101/101 100/100/100 102/102/102
f 103/103/103 99/99/99 81/81/81
f 99/99/99 103/103/103 100/100/100
f 103/103/103 81/81/81 78/78/78
f 100/100/100 104/104/104 102/102/102
f 100/100/100 103/103/103 104/104/104
f 102/102/102 104/104/104 105/105/105
f 106/106/106 103/103/103 78/78/78
f 103/103/103 106/106/106 104/104/104
f 106/106/106 78/78/78 70/70/70
f 104/104/104 107/107/107 105/105/105
f 104/104/104 106/106/106 107/107/107
f 105/105/105 107/107/107 108/108/108
f 109/109/109 106/106/106 70/70/70
f 106/106/106 109/109/109 107/107/107
f 107/107/107 109/109/109 108/108/108
f 109/109/109 70/70/70 69/69/69
f 109/109/109 110/110/110 108/108/108
f 110/110/110 109/109/109 69/69/69
f 110/110/110 111/111/111 108/108/108
f 110/110/110 69/69/69 112/112/112
f 111/111/111 110/110/110 112/112/112
f 115/115/115 114/114/114 113/113/113
f 116/116/116 115/115/115 113/113/113
f 119/119/119 118/118/118 117/117/117
f 118/118/118 120/120/120 117/117/117
f 117/117/117 120/120/120 121/121/121
f 120/120/120 122/122/122 121/121/121
f 121/121/121 122/122/122 123/123/123
f 122/122/122 124/124/124 123/123/123
f 123/123/123 124/124/124 125/125/125
f 124/124/124 126/126/126 125/125/125
f 125/125/125 126/126/126 127/127/127
f 126/126/126 128/128/128 127/127/127
f 127/127/127 128/128/128 129/129/129
f 128/128/128 130/130/130 129/129/129
f 129/129/129 130/130/130 131/131/131
f 130/130/130 132/132/132 131/131/131
f 131/131/131 132/132/132 133/133/133
f 132/132/132 134/134/134 133/133/133
f 135/135/135 133/133/133 134/134/134
f 136/136/136 135/135/135 134/134/134
f 135/135/135 136/136/136 137/137/137
f 136/136/136 138/138/138 137/137/137
