g pCube15
v 0.01858269 0.01246165 0.03413495
v 0.01864173 0.01161691 0.03420443
v 0.006376985 0.01283602 0.03381252
v 0.006302049 0.01390824 0.03372435
v 0.001933573 0.01256112 0.03167136
v 0.001850954 0.01374326 0.03157412
v -0.005595076 0.01162147 0.02632246
v -0.005646842 0.01236211 0.02626153
v -0.01433186 0.009659615 0.01713532
v -0.01437753 0.01031309 0.01708157
v -0.02041804 0.004045616 0.003803816
v -0.02047426 0.004850014 0.003737654
v -0.02340726 -0.007286691 -0.01479823
v -0.02346526 -0.006456857 -0.01486648
v 0.02474458 0.01211871 0.03236305
v 0.02540281 0.01331806 0.02849196
v 0.02649166 0.01212576 0.03094699
v 0.02256354 0.0133066 0.03079327
v 0.01858269 0.01246165 0.03413495
v 0.02274872 0.01506037 0.02490694
v 0.01959889 0.01504768 0.02745996
v 0.02949948 0.01250568 0.0252866
v 0.02649166 0.01212576 0.03094699
v 0.02590531 0.01491435 0.02070531
v 0.03164997 0.01378965 0.01320984
v 0.01999711 0.01634257 0.02127797
v 0.02323579 0.01601772 0.01721029
v 0.03047866 0.01349224 0.008421484
v 0.01828275 0.01664454 0.01076559
v 0.02680124 0.01266445 -6.230312E-05
v 0.01499587 0.01723269 0.01511116
v 0.01035002 0.01331376 0.0004538331
v 0.01963628 0.01061341 -0.01051019
v 0.01661325 0.01632893 0.02402068
v 0.006655039 0.01442993 0.004809378
v 0.002627893 0.008002175 -0.009617785
v 0.007876436 0.004964378 -0.01924134
v -0.009661239 -0.006401192 -0.02605502
v -0.0004461196 0.009731789 -0.003970499
v -0.014405 -0.004845803 -0.02125051
v -0.0251292 -0.01911785 -0.03107965
v -0.01778886 -0.004859444 -0.01850779
v 0.011612 0.01721903 0.01785387
v 0.003271181 0.01441628 0.007552092
v -0.003829977 0.009718148 -0.001227785
v -0.02346526 -0.006456857 -0.01486648
v -0.0251292 -0.01911785 -0.03107965
v -0.009972357 0.007952278 0.0006015534
v -0.02047426 0.004850014 0.003737654
v -0.00173876 0.01326562 0.01025555
v -0.01437753 0.01031309 0.01708157
v 0.006694719 0.0165985 0.02016228
v -0.005646842 0.01236211 0.02626153
v 0.01197603 0.01597298 0.02634022
v 0.001850954 0.01374326 0.03157412
v 0.01484638 0.01487072 0.02967258
v 0.006302049 0.01390824 0.03372435
v 0.02660285 0.01053489 0.03107783
v 0.02955852 0.01166094 0.02535609
v 0.025514 0.01172718 0.02862281
v 0.0228599 0.01346951 0.02503778
v 0.02595025 0.01359806 0.02087659
v 0.03169203 0.01318789 0.01325934
v 0.03051055 0.0130361 0.008459006
v 0.02327869 0.01466746 0.01738687
v 0.02687156 0.01165835 2.04453E-05
v 0.0183263 0.01527872 0.0109482
v 0.01969948 0.009709176 -0.01043582
v 0.02010829 0.01475169 0.02140882
v 0.01038972 0.01196915 0.0006311631
v 0.007929704 0.004202247 -0.01917866
v 0.01510705 0.01564178 0.01524201
v 0.002681017 0.006709862 -0.009438563
v -0.009603232 -0.007231011 -0.02598676
v 0.006766229 0.01283903 0.004940222
v -0.0003349364 0.008140923 -0.003839655
v -0.01429381 -0.006436685 -0.02111966
v -0.02508498 -0.01975051 -0.03102762
v -0.01767766 -0.006450326 -0.01837695
v -0.02508498 -0.01975051 -0.03102762
v -0.02340726 -0.007286691 -0.01479823
v -0.003718794 0.008127281 -0.001096941
v -0.009879072 0.006657127 0.000707335
v -0.02041804 0.004045616 0.003803816
v -0.01433186 0.009659615 0.01713532
v -0.001640799 0.01190249 0.01036629
v -0.005595076 0.01162147 0.02632246
v 0.003382372 0.01282539 0.007682937
v 0.006793543 0.01522425 0.02027405
v 0.001933573 0.01256112 0.03167136
v 0.01172319 0.01562814 0.01798472
v 0.01207307 0.01462185 0.02645007
v 0.006376985 0.01283602 0.03381252
v 0.01672443 0.01473805 0.02415153
v 0.01494096 0.01355328 0.02977978
v 0.01864173 0.01161691 0.03420443
v 0.01971008 0.01345681 0.0275908
v 0.02267472 0.01171572 0.03092411
v 0.02485577 0.01052782 0.0324939
v 0.02660285 0.01053489 0.03107783
v -0.02508498 -0.01975051 -0.03102762
v -0.0251292 -0.01911785 -0.03107965
v -0.02346526 -0.006456857 -0.01486648
v -0.02340726 -0.007286691 -0.01479823
v -0.009603232 -0.007231011 -0.02598676
v -0.0251292 -0.01911785 -0.03107965
v -0.02508498 -0.01975051 -0.03102762
v -0.009661239 -0.006401192 -0.02605502
v 0.007929704 0.004202247 -0.01917866
v 0.007876436 0.004964378 -0.01924134
v 0.01969948 0.009709176 -0.01043582
v 0.01963628 0.01061341 -0.01051019
v 0.02687156 0.01165835 2.04453E-05
v 0.02680124 0.01266445 -6.230312E-05
v 0.03051055 0.0130361 0.008459006
v 0.03047866 0.01349224 0.008421484
v 0.03169203 0.01318789 0.01325934
v 0.03164997 0.01378965 0.01320984
v 0.02955852 0.01166094 0.02535609
v 0.02949948 0.01250568 0.0252866
v 0.02660285 0.01053489 0.03107783
v 0.02649166 0.01212576 0.03094699
v 0.02485577 0.01052782 0.0324939
v 0.02474458 0.01211871 0.03236305
v 0.01864173 0.01161691 0.03420443
v 0.01858269 0.01246165 0.03413495
vt 0.375 0.5
vt 0.375 0.75
vt 0.416748 0.75
vt 0.416748 0.5
vt 0.458252 0.75
vt 0.458252 0.5
vt 0.5 0.75
vt 0.5 0.5
vt 0.5415039 0.75
vt 0.5415039 0.5
vt 0.5834961 0.75
vt 0.5834961 0.5
vt 0.625 0.75
vt 0.625 0.5
vt 0.375 0.4138184
vt 0.3847656 0.3361816
vt 0.3818359 0.375
vt 0.3847656 0.4138184
vt 0.375 0.5
vt 0.416748 0.3583984
vt 0.416748 0.3916016
vt 0.375 0.25
vt 0.375 0.3361816
vt 0.416748 0.3195801
vt 0.416748 0.25
vt 0.458252 0.3601074
vt 0.458252 0.3256836
vt 0.458252 0.25
vt 0.5 0.3303223
vt 0.5 0.25
vt 0.5 0.3620605
vt 0.5415039 0.3305664
vt 0.5415039 0.25
vt 0.458252 0.3898926
vt 0.5415039 0.3625488
vt 0.5834961 0.3193359
vt 0.5834961 0.25
vt 0.625 0.25
vt 0.5834961 0.3601074
vt 0.6142578 0.3442383
vt 0.6235352 0.3596191
vt 0.6142578 0.4057617
vt 0.5 0.3879395
vt 0.5415039 0.3874512
vt 0.5834961 0.3898926
vt 0.625 0.5
vt 0.625 0.4057617
vt 0.5834961 0.4304199
vt 0.5834961 0.5
vt 0.5415039 0.4194336
vt 0.5415039 0.5
vt 0.5 0.4196777
vt 0.5 0.5
vt 0.458252 0.4240723
vt 0.458252 0.5
vt 0.416748 0.4301758
vt 0.416748 0.5
vt 0.375 0.9135742
vt 0.375 1
vt 0.3847656 0.9135742
vt 0.416748 0.8916016
vt 0.416748 0.9296875
vt 0.416748 1
vt 0.458252 1
vt 0.458252 0.9238281
vt 0.5 1
vt 0.5 0.9189453
vt 0.5415039 1
vt 0.458252 0.8896484
vt 0.5415039 0.9189453
vt 0.5834961 1
vt 0.5 0.8881836
vt 0.5834961 0.9301758
vt 0.625 1
vt 0.5415039 0.887207
vt 0.5834961 0.8901367
vt 0.6142578 0.9057617
vt 0.625 0.9057617
vt 0.6142578 0.8442383
vt 0.6235352 0.8598633
vt 0.625 0.75
vt 0.5834961 0.8598633
vt 0.5834961 0.8193359
vt 0.5834961 0.75
vt 0.5415039 0.75
vt 0.5415039 0.8305664
vt 0.5 0.75
vt 0.5415039 0.862793
vt 0.5 0.8305664
vt 0.458252 0.75
vt 0.5 0.8618164
vt 0.458252 0.8256836
vt 0.416748 0.75
vt 0.458252 0.8603516
vt 0.416748 0.8198242
vt 0.375 0.75
vt 0.416748 0.8583984
vt 0.3847656 0.8364258
vt 0.375 0.8364258
vt 0.3818359 0.875
vt 0.75 0
vt 0.75 0.25
vt 0.875 0.25
vt 0.875 0
vt 0.625 0
vt 0.75 0.25
vt 0.75 0
vt 0.625 0.25
vt 0.5834961 0
vt 0.5834961 0.25
vt 0.5415039 0
vt 0.5415039 0.25
vt 0.5 0
vt 0.5 0.25
vt 0.458252 0
vt 0.458252 0.25
vt 0.416748 0
vt 0.416748 0.25
vt 0.375 0
vt 0.375 0.25
vt 0.2888184 0
vt 0.2888184 0.25
vt 0.2113037 0
vt 0.2113037 0.25
vt 0.125 0
vt 0.125 0.25
vn 0.08612061 0.08764648 0.9921875
vn 0.1172485 0.08953857 0.9892578
vn -0.1483154 0.07073975 0.9863281
vn -0.1763916 0.06842041 0.9819336
vn -0.5263672 0.03311157 0.8496094
vn -0.527832 0.03292847 0.8486328
vn -0.6572266 0.01603699 0.753418
vn -0.6538086 0.01649475 0.7563477
vn -0.8432617 -0.01470947 0.5375977
vn -0.8256836 -0.01136017 0.5639648
vn -0.9633789 -0.0456543 0.2636719
vn -0.9477539 -0.0402832 0.315918
vn -0.9848633 -0.0553894 0.1635742
vn -0.9824219 -0.05407715 0.1774902
vn 0.2329102 0.9033203 0.3601074
vn 0.3017578 0.9194336 0.2524414
vn 0.2995605 0.9038086 0.3059082
vn 0.1801758 0.9189453 0.3510742
vn 0.1201782 0.9125977 0.3908691
vn 0.2585449 0.9428711 0.2097168
vn 0.1470947 0.9423828 0.3000488
vn 0.3586426 0.9125977 0.1973877
vn 0.2995605 0.9038086 0.3059082
vn 0.3059082 0.9453125 0.1114502
vn 0.2678223 0.9633789 0.005088806
vn 0.1495361 0.984375 0.09417725
vn 0.2132568 0.9755859 -0.05273438
vn 0.2263184 0.9663086 -0.1221924
vn 0.07940674 0.9765625 -0.2010498
vn 0.0770874 0.9677734 -0.2403564
vn -0.01163483 0.9946289 -0.1036987
vn -0.06994629 0.9467773 -0.3139648
vn -0.07617188 0.9418945 -0.3269043
vn 0.05645752 0.9838867 0.1695557
vn -0.1386719 0.9541016 -0.2651367
vn -0.2376709 0.8745117 -0.4228516
vn -0.2486572 0.878418 -0.4084473
vn -0.3278809 0.7954102 -0.5092773
vn -0.2695313 0.8710938 -0.4106445
vn -0.3400879 0.8007813 -0.4926758
vn -0.4484863 0.7045898 -0.5498047
vn -0.4155273 0.8007813 -0.4316406
vn -0.1038818 0.9941406 -0.02891541
vn -0.2353516 0.9536133 -0.1867676
vn -0.3503418 0.8706055 -0.3452148
vn -0.4343262 0.7954102 -0.4230957
vn -0.4484863 0.7045898 -0.5498047
vn -0.3703613 0.8745117 -0.3132324
vn -0.3540039 0.8789063 -0.3198242
vn -0.3017578 0.9453125 -0.1234741
vn -0.3139648 0.9404297 -0.1300049
vn -0.223877 0.9741211 0.03210449
vn -0.2641602 0.9638672 0.02648926
vn -0.09844971 0.9780273 0.1848145
vn -0.175415 0.9697266 0.1699219
vn 0.05361938 0.9458008 0.3203125
vn -0.03096008 0.9658203 0.2580566
vn -0.2641602 -0.9082031 -0.3239746
vn -0.2614746 -0.9394531 -0.2208252
vn -0.2441406 -0.9296875 -0.2751465
vn -0.2150879 -0.949707 -0.2268066
vn -0.230957 -0.9633789 -0.1378174
vn -0.1982422 -0.9794922 -0.04174805
vn -0.1573486 -0.980957 0.112793
vn -0.1558838 -0.9873047 0.03189087
vn -0.04330444 -0.9731445 0.2250977
vn -0.03942871 -0.9819336 0.1846924
vn 0.09759521 -0.9482422 0.3017578
vn -0.1295166 -0.9853516 -0.1091309
vn 0.09454346 -0.9521484 0.2897949
vn 0.2702637 -0.8862305 0.3757324
vn 0.02987671 -0.9956055 0.08929443
vn 0.2719727 -0.8813477 0.3862305
vn 0.3708496 -0.8105469 0.4536133
vn 0.1573486 -0.9555664 0.2502441
vn 0.2941895 -0.8725586 0.3896484
vn 0.3684082 -0.8100586 0.4560547
vn 0.4279785 -0.7363281 0.5244141
vn 0.373291 -0.8100586 0.4521484
vn 0.4279785 -0.7363281 0.5244141
vn 0.3710938 -0.8100586 0.4536133
vn 0.3239746 -0.8730469 0.3649902
vn 0.3259277 -0.8803711 0.3442383
vn 0.3173828 -0.8852539 0.3398438
vn 0.2775879 -0.9472656 0.1588135
vn 0.2668457 -0.9516602 0.1523438
vn 0.2293701 -0.9731445 -0.00435257
vn 0.217041 -0.9550781 0.2016602
vn 0.1905518 -0.9814453 -0.01241302
vn 0.1474609 -0.9755859 -0.1639404
vn 0.08648682 -0.9951172 0.04360962
vn 0.07208252 -0.9833984 -0.1669922
vn 0.02914429 -0.9750977 -0.2203369
vn -0.07489014 -0.9853516 -0.1531982
vn -0.0692749 -0.9614258 -0.2663574
vn -0.1508789 -0.9384766 -0.3103027
vn -0.1724854 -0.949707 -0.2609863
vn -0.2138672 -0.9296875 -0.2993164
vn -0.2578125 -0.9082031 -0.3291016
vn -0.2641602 -0.9082031 -0.3239746
vn -0.987793 -0.05703735 0.145874
vn -0.987793 -0.05703735 0.145874
vn -0.9824219 -0.05407715 0.1774902
vn -0.9848633 -0.0553894 0.1635742
vn 0.3637695 -0.05105591 -0.9301758
vn 0.3474121 -0.05273438 -0.9360352
vn 0.3474121 -0.05273438 -0.9360352
vn 0.3771973 -0.04971313 -0.9248047
vn 0.4655762 -0.04016113 -0.8842773
vn 0.5141602 -0.0345459 -0.8569336
vn 0.7109375 -0.008148193 -0.703125
vn 0.7329102 -0.004707336 -0.6801758
vn 0.8588867 0.01794434 -0.5117188
vn 0.8608398 0.01832581 -0.5087891
vn 0.9335938 0.03594971 -0.3562012
vn 0.9331055 0.03579712 -0.357666
vn 0.9921875 0.07751465 0.09906006
vn 0.9941406 0.07580566 0.0769043
vn 0.9350586 0.09344482 0.3415527
vn 0.9462891 0.0916748 0.3105469
vn 0.8032227 0.1043701 0.5869141
vn 0.8134766 0.1039429 0.5722656
vn 0.4072266 0.1030884 0.9077148
vn 0.3908691 0.1025391 0.9145508
vn 0.1172485 0.08953857 0.9892578
vn 0.08612061 0.08764648 0.9921875
g pCube15_0
f 3/3/3 2/2/2 1/1/1
f 4/4/4 3/3/3 1/1/1
f 5/5/5 3/3/3 4/4/4
f 6/6/6 5/5/5 4/4/4
f 7/7/7 5/5/5 6/6/6
f 8/8/8 7/7/7 6/6/6
f 9/9/9 7/7/7 8/8/8
f 10/10/10 9/9/9 8/8/8
f 11/11/11 9/9/9 10/10/10
f 12/12/12 11/11/11 10/10/10
f 13/13/13 11/11/11 12/12/12
f 14/14/14 13/13/13 12/12/12
f 17/17/17 16/16/16 15/15/15
f 16/16/16 18/18/18 15/15/15
f 18/18/18 19/19/19 15/15/15
f 16/16/16 20/20/20 18/18/18
f 18/18/18 21/21/21 19/19/19
f 20/20/20 21/21/21 18/18/18
f 20/20/20 16/16/16 22/22/22
f 16/16/16 23/23/23 22/22/22
f 24/24/24 20/20/20 22/22/22
f 25/25/25 24/24/24 22/22/22
f 26/26/26 20/20/20 24/24/24
f 20/20/20 26/26/26 21/21/21
f 27/27/27 24/24/24 25/25/25
f 27/27/27 26/26/26 24/24/24
f 28/28/28 27/27/27 25/25/25
f 29/29/29 27/27/27 28/28/28
f 30/30/30 29/29/29 28/28/28
f 31/31/31 26/26/26 27/27/27
f 29/29/29 31/31/31 27/27/27
f 32/32/32 29/29/29 30/30/30
f 33/33/33 32/32/32 30/30/30
f 26/26/26 34/34/34 21/21/21
f 26/26/26 31/31/31 34/34/34
f 35/35/35 31/31/31 29/29/29
f 32/32/32 35/35/35 29/29/29
f 36/36/36 32/32/32 33/33/33
f 37/37/37 36/36/36 33/33/33
f 38/38/38 36/36/36 37/37/37
f 36/36/36 39/39/39 32/32/32
f 39/39/39 35/35/35 32/32/32
f 38/38/38 40/40/40 36/36/36
f 40/40/40 39/39/39 36/36/36
f 38/38/38 41/41/41 40/40/40
f 40/40/40 41/41/41 42/42/42
f 31/31/31 35/35/35 43/43/43
f 31/31/31 43/43/43 34/34/34
f 35/35/35 39/39/39 44/44/44
f 35/35/35 44/44/44 43/43/43
f 39/39/39 40/40/40 45/45/45
f 40/40/40 42/42/42 45/45/45
f 39/39/39 45/45/45 44/44/44
f 42/42/42 46/46/46 45/45/45
f 42/42/42 47/47/47 46/46/46
f 46/46/46 48/48/48 45/45/45
f 45/45/45 48/48/48 44/44/44
f 46/46/46 49/49/49 48/48/48
f 48/48/48 50/50/50 44/44/44
f 48/48/48 49/49/49 50/50/50
f 44/44/44 50/50/50 43/43/43
f 49/49/49 51/51/51 50/50/50
f 50/50/50 52/52/52 43/43/43
f 50/50/50 51/51/51 52/52/52
f 43/43/43 52/52/52 34/34/34
f 51/51/51 53/53/53 52/52/52
f 52/52/52 54/54/54 34/34/34
f 52/52/52 53/53/53 54/54/54
f 34/34/34 54/54/54 21/21/21
f 53/53/53 55/55/55 54/54/54
f 54/54/54 56/56/56 21/21/21
f 54/54/54 55/55/55 56/56/56
f 21/21/21 56/56/56 19/19/19
f 55/55/55 57/57/57 56/56/56
f 56/56/56 57/57/57 19/19/19
f 60/60/60 59/59/59 58/58/58
f 60/60/60 61/61/61 59/59/59
f 61/61/61 62/62/62 59/59/59
f 62/62/62 63/63/63 59/59/59
f 64/64/64 63/63/63 62/62/62
f 65/65/65 64/64/64 62/62/62
f 65/65/65 62/62/62 61/61/61
f 66/66/66 64/64/64 65/65/65
f 67/67/67 66/66/66 65/65/65
f 68/68/68 66/66/66 67/67/67
f 69/69/69 65/65/65 61/61/61
f 67/67/67 65/65/65 69/69/69
f 70/70/70 68/68/68 67/67/67
f 71/71/71 68/68/68 70/70/70
f 72/72/72 67/67/67 69/69/69
f 70/70/70 67/67/67 72/72/72
f 73/73/73 71/71/71 70/70/70
f 74/74/74 71/71/71 73/73/73
f 73/73/73 70/70/70 75/75/75
f 75/75/75 70/70/70 72/72/72
f 74/74/74 73/73/73 76/76/76
f 76/76/76 73/73/73 75/75/75
f 77/77/77 74/74/74 76/76/76
f 77/77/77 78/78/78 74/74/74
f 79/79/79 77/77/77 76/76/76
f 79/79/79 80/80/80 77/77/77
f 81/81/81 80/80/80 79/79/79
f 82/82/82 76/76/76 75/75/75
f 82/82/82 79/79/79 76/76/76
f 81/81/81 79/79/79 83/83/83
f 79/79/79 82/82/82 83/83/83
f 81/81/81 83/83/83 84/84/84
f 84/84/84 83/83/83 85/85/85
f 83/83/83 86/86/86 85/85/85
f 83/83/83 82/82/82 86/86/86
f 85/85/85 86/86/86 87/87/87
f 88/88/88 82/82/82 75/75/75
f 82/82/82 88/88/88 86/86/86
f 88/88/88 75/75/75 72/72/72
f 86/86/86 89/89/89 87/87/87
f 86/86/86 88/88/88 89/89/89
f 87/87/87 89/89/89 90/90/90
f 91/91/91 88/88/88 72/72/72
f 88/88/88 91/91/91 89/89/89
f 91/91/91 72/72/72 69/69/69
f 89/89/89 92/92/92 90/90/90
f 89/89/89 91/91/91 92/92/92
f 90/90/90 92/92/92 93/93/93
f 94/94/94 91/91/91 69/69/69
f 91/91/91 94/94/94 92/92/92
f 94/94/94 69/69/69 61/61/61
f 92/92/92 95/95/95 93/93/93
f 92/92/92 94/94/94 95/95/95
f 93/93/93 95/95/95 96/96/96
f 97/97/97 94/94/94 61/61/61
f 94/94/94 97/97/97 95/95/95
f 95/95/95 97/97/97 96/96/96
f 97/97/97 61/61/61 60/60/60
f 97/97/97 98/98/98 96/96/96
f 98/98/98 97/97/97 60/60/60
f 98/98/98 99/99/99 96/96/96
f 98/98/98 60/60/60 100/100/100
f 99/99/99 98/98/98 100/100/100
f 103/103/103 102/102/102 101/101/101
f 104/104/104 103/103/103 101/101/101
f 107/107/107 106/106/106 105/105/105
f 106/106/106 108/108/108 105/105/105
f 105/105/105 108/108/108 109/109/109
f 108/108/108 110/110/110 109/109/109
f 109/109/109 110/110/110 111/111/111
f 110/110/110 112/112/112 111/111/111
f 111/111/111 112/112/112 113/113/113
f 112/112/112 114/114/114 113/113/113
f 113/113/113 114/114/114 115/115/115
f 114/114/114 116/116/116 115/115/115
f 115/115/115 116/116/116 117/117/117
f 116/116/116 118/118/118 117/117/117
f 117/117/117 118/118/118 119/119/119
f 118/118/118 120/120/120 119/119/119
f 119/119/119 120/120/120 121/121/121
f 120/120/120 122/122/122 121/121/121
f 123/123/123 121/121/121 122/122/122
f 124/124/124 123/123/123 122/122/122
f 123/123/123 124/124/124 125/125/125
f 124/124/124 126/126/126 125/125/125
