g pCube36
v -0.0504815 0.1512492 -0.02367313
v -0.03517205 0.1546765 -0.02383142
v 0.04817628 -0.1490188 0.03321831
v 0.03800679 -0.152446 0.03337661
v 0.03831605 -0.1547034 0.00961286
v 0.04848545 -0.1512762 0.009454566
v -0.03470678 0.1524191 -0.04759512
v -0.05001577 0.1489917 -0.04743688
v -0.02740334 0.1558254 -0.02985083
v -0.02717052 0.1546966 -0.04173394
v 0.05349201 -0.1489987 0.01531582
v 0.05333729 -0.1478699 0.02719886
v -0.05778539 0.1478428 -0.04141738
v -0.05801812 0.1489716 -0.02953436
v 0.03300068 -0.1547236 0.02751536
v 0.03315559 -0.1558524 0.01563234
v -0.05001577 0.1489917 -0.04743688
v -0.03470678 0.1524191 -0.04759512
v -0.02717052 0.1546966 -0.04173394
v -0.05778539 0.1478428 -0.04141738
v -0.02740334 0.1558254 -0.02985083
v -0.05801812 0.1489716 -0.02953436
v -0.03517205 0.1546765 -0.02383142
v -0.0504815 0.1512492 -0.02367313
v 0.05349201 -0.1489987 0.01531582
v 0.04848545 -0.1512762 0.009454566
v 0.03831605 -0.1547034 0.00961286
v 0.03315559 -0.1558524 0.01563234
v 0.05333729 -0.1478699 0.02719886
v 0.03300068 -0.1547236 0.02751536
v 0.04817628 -0.1490188 0.03321831
v 0.03800679 -0.152446 0.03337661
v 0.03300068 -0.1547236 0.02751536
v -0.05801812 0.1489716 -0.02953436
v -0.0504815 0.1512492 -0.02367313
v 0.03800679 -0.152446 0.03337661
v 0.04817628 -0.1490188 0.03321831
v -0.03517205 0.1546765 -0.02383142
v -0.02740334 0.1558254 -0.02985083
v 0.05333729 -0.1478699 0.02719886
v -0.05778539 0.1478428 -0.04141738
v 0.03315559 -0.1558524 0.01563234
v 0.03831605 -0.1547034 0.00961286
v -0.05001577 0.1489917 -0.04743688
v -0.03470678 0.1524191 -0.04759512
v 0.04848545 -0.1512762 0.009454566
v 0.05349201 -0.1489987 0.01531582
v -0.02717052 0.1546966 -0.04173394
vt 0.4375 0.25
vt 0.5625 0.25
vt 0.5625 0
vt 0.4375 0
vt 0.4375 0.75
vt 0.5625 0.75
vt 0.5625 0.5
vt 0.4375 0.5
vt 0.6875 0.25
vt 0.8125 0.25
vt 0.8125 0
vt 0.6875 0
vt 0.1875 0.25
vt 0.3125 0.25
vt 0.3125 0
vt 0.1875 0
vt 0.4375 0.5
vt 0.5625 0.5
vt 0.625 0.4375
vt 0.375 0.4375
vt 0.625 0.3125
vt 0.375 0.3125
vt 0.5625 0.25
vt 0.4375 0.25
vt 0.625 0.8125
vt 0.5625 0.75
vt 0.4375 0.75
vt 0.375 0.8125
vt 0.625 0.9375
vt 0.375 0.9375
vt 0.5625 1
vt 0.4375 1
vt 0.3125 0
vt 0.3125 0.25
vt 0.4375 0.25
vt 0.4375 0
vt 0.5625 0
vt 0.5625 0.25
vt 0.6875 0.25
vt 0.6875 0
vt 0.375 0.4375
vt 0.375 0.8125
vt 0.4375 0.75
vt 0.4375 0.5
vt 0.5625 0.5
vt 0.5625 0.75
vt 0.625 0.8125
vt 0.625 0.4375
vn -0.03485107 0.1749268 0.9838867
vn -0.03485107 0.1749268 0.9838867
vn -0.03485107 0.1749268 0.9838867
vn -0.03485107 0.1749268 0.9838867
vn 0.03485107 -0.1750488 -0.9838867
vn 0.03485107 -0.1750488 -0.9838867
vn 0.03485107 -0.1750488 -0.9838867
vn 0.03485107 -0.1750488 -0.9838867
vn 0.9667969 0.2553711 -0.008483887
vn 0.9667969 0.2553711 -0.008483887
vn 0.9667969 0.2553711 -0.008483887
vn 0.9667969 0.2553711 -0.008483887
vn -0.9584961 -0.2849121 0.01143646
vn -0.9584961 -0.2849121 0.01143646
vn -0.9584961 -0.2849121 0.01143646
vn -0.9584961 -0.2849121 0.01143646
vn -0.2183838 0.9711914 -0.09649658
vn -0.2183838 0.9711914 -0.09649658
vn -0.2183838 0.9711914 -0.09649658
vn -0.2183838 0.9711914 -0.09649658
vn -0.2183838 0.9711914 -0.09649658
vn -0.2183838 0.9711914 -0.09649658
vn -0.2183838 0.9711914 -0.09649658
vn -0.2183838 0.9711914 -0.09649658
vn 0.3193359 -0.9428711 0.09375
vn 0.3193359 -0.9428711 0.09375
vn 0.3193359 -0.9428711 0.09375
vn 0.3193359 -0.9428711 0.09375
vn 0.3193359 -0.9428711 0.09375
vn 0.3193359 -0.9428711 0.09375
vn 0.3193359 -0.9428711 0.09375
vn 0.3193359 -0.9428711 0.09375
vn -0.6699219 -0.05905151 0.7397461
vn -0.6699219 -0.05905151 0.7397461
vn -0.6699219 -0.05905151 0.7397461
vn -0.6699219 -0.05905151 0.7397461
vn 0.6201172 0.3034668 0.7236328
vn 0.6201172 0.3034668 0.7236328
vn 0.6201172 0.3034668 0.7236328
vn 0.6201172 0.3034668 0.7236328
vn -0.6152344 -0.3171387 -0.7216797
vn -0.6152344 -0.3171387 -0.7216797
vn -0.6152344 -0.3171387 -0.7216797
vn -0.6152344 -0.3171387 -0.7216797
vn 0.6738281 0.04318237 -0.737793
vn 0.6738281 0.04318237 -0.737793
vn 0.6738281 0.04318237 -0.737793
vn 0.6738281 0.04318237 -0.737793
g pCube36_0
f 3/3/3 2/2/2 1/1/1
f 4/4/4 3/3/3 1/1/1
f 7/7/7 6/6/6 5/5/5
f 8/8/8 7/7/7 5/5/5
f 11/11/11 10/10/10 9/9/9
f 12/12/12 11/11/11 9/9/9
f 15/15/15 14/14/14 13/13/13
f 16/16/16 15/15/15 13/13/13
f 19/19/19 18/18/18 17/17/17
f 17/17/17 20/20/20 19/19/19
f 20/20/20 21/21/21 19/19/19
f 20/20/20 22/22/22 21/21/21
f 22/22/22 23/23/23 21/21/21
f 22/22/22 24/24/24 23/23/23
f 27/27/27 26/26/26 25/25/25
f 25/25/25 28/28/28 27/27/27
f 25/25/25 29/29/29 28/28/28
f 29/29/29 30/30/30 28/28/28
f 29/29/29 31/31/31 30/30/30
f 31/31/31 32/32/32 30/30/30
f 35/35/35 34/34/34 33/33/33
f 36/36/36 35/35/35 33/33/33
f 39/39/39 38/38/38 37/37/37
f 40/40/40 39/39/39 37/37/37
f 43/43/43 42/42/42 41/41/41
f 44/44/44 43/43/43 41/41/41
f 47/47/47 46/46/46 45/45/45
f 48/48/48 47/47/47 45/45/45
