g pCube54
v -0.3704937 -0.07290923 0.2365868
v -0.3625706 0.07290929 0.2661569
v -0.3625706 -0.07290923 0.2661569
v -0.3704937 0.07290929 0.2365868
v -0.3704937 0.07290929 -0.2365867
v -0.3704937 -0.07290923 -0.2365867
v -0.3625706 -0.07290923 -0.2661567
v -0.3625706 0.07290929 -0.2661567
v -0.3625706 -0.07290923 0.2661569
v -0.3625706 0.07290929 0.2661569
v -0.340924 0.07290929 0.2878032
v -0.340924 -0.07290923 0.2878032
v -0.3113543 0.07290929 0.2957262
v -0.3113543 -0.07290923 0.2957262
v 0.3113543 -0.07290923 0.2957262
v 0.3113543 0.07290929 0.2957262
v 0.340924 0.07290929 0.2878032
v 0.340924 -0.07290923 0.2878032
v 0.3625706 0.07290929 0.2661569
v 0.3625706 -0.07290923 0.2661569
v 0.3625706 -0.07290923 0.2661569
v 0.3625706 0.07290929 0.2661569
v 0.3704937 0.07290929 0.2365868
v 0.3704937 -0.07290923 0.2365868
v 0.3704937 -0.07290923 -0.2365867
v 0.3704937 0.07290929 -0.2365867
v 0.3625706 0.07290929 -0.2661567
v 0.3625706 -0.07290923 -0.2661567
v -0.3625706 0.07290929 -0.2661567
v -0.3625706 -0.07290923 -0.2661567
v -0.340924 -0.07290923 -0.2878031
v -0.340924 0.07290929 -0.2878031
v -0.3113543 -0.07290923 -0.2957264
v -0.3113543 0.07290929 -0.2957264
v 0.3113543 0.07290929 -0.2957264
v 0.3113543 -0.07290923 -0.2957264
v 0.340924 -0.07290923 -0.2878031
v 0.340924 0.07290929 -0.2878031
v 0.3625706 -0.07290923 -0.2661567
v 0.3625706 0.07290929 -0.2661567
v -0.340924 0.07290929 -0.2878031
v -0.3113543 0.07290929 -0.2957264
v 0.3113543 0.07290929 -0.2957264
v 0.340924 0.07290929 -0.2878031
v -0.3625706 0.07290929 -0.2661567
v 0.3625706 0.07290929 -0.2661567
v -0.3704937 0.07290929 -0.2365867
v 0.3704937 0.07290929 -0.2365867
v -0.3704937 0.07290929 0.2365868
v 0.3704937 0.07290929 0.2365868
v -0.3625706 0.07290929 0.2661569
v 0.3625706 0.07290929 0.2661569
v -0.340924 0.07290929 0.2878032
v 0.340924 0.07290929 0.2878032
v -0.3113543 0.07290929 0.2957262
v 0.3113543 0.07290929 0.2957262
v 0.340924 -0.07290923 -0.2878031
v 0.3113543 -0.07290923 -0.2957264
v -0.3113543 -0.07290923 -0.2957264
v -0.340924 -0.07290923 -0.2878031
v 0.3625706 -0.07290923 -0.2661567
v -0.3625706 -0.07290923 -0.2661567
v 0.3704937 -0.07290923 -0.2365867
v -0.3704937 -0.07290923 -0.2365867
v 0.3704937 -0.07290923 0.2365868
v -0.3704937 -0.07290923 0.2365868
v -0.3704937 -0.07290923 0.2365868
v 0.3625706 -0.07290923 0.2661569
v 0.3704937 -0.07290923 0.2365868
v -0.3625706 -0.07290923 0.2661569
v 0.340924 -0.07290923 0.2878032
v -0.340924 -0.07290923 0.2878032
v 0.3113543 -0.07290923 0.2957262
v -0.3113543 -0.07290923 0.2957262
vt 0.3500977 0
vt 0.375 0.25
vt 0.3679199 0
vt 0.3500977 0.25
vt 0.1500244 0.25
vt 0.1500244 0
vt 0.125 0
vt 0.125 0.25
vt 0.3679199 0
vt 0.375 0.25
vt 0.3811035 0.25
vt 0.378418 0
vt 0.3847656 0.25
vt 0.3847656 0
vt 0.6152344 0
vt 0.6152344 0.25
vt 0.6191406 0.25
vt 0.6206055 0
vt 0.625 0.25
vt 0.6333008 0
vt 0.6333008 0
vt 0.625 0.25
vt 0.6499023 0.25
vt 0.6499023 0
vt 0.8500977 0
vt 0.8500977 0.25
vt 0.875 0.25
vt 0.875 0
vt 0.375 0.5
vt 0.375 0.75
vt 0.3811035 0.75
vt 0.3811035 0.5
vt 0.3847656 0.75
vt 0.3847656 0.5
vt 0.6152344 0.5
vt 0.6152344 0.75
vt 0.6191406 0.75
vt 0.6191406 0.5
vt 0.625 0.75
vt 0.625 0.5
vt 0.3811035 0.5
vt 0.3847656 0.5
vt 0.6152344 0.5
vt 0.6191406 0.5
vt 0.375 0.5
vt 0.625 0.5
vt 0.375 0.4750977
vt 0.625 0.4750977
vt 0.375 0.2749023
vt 0.625 0.2749023
vt 0.375 0.25
vt 0.625 0.25
vt 0.3811035 0.25
vt 0.6191406 0.25
vt 0.3847656 0.25
vt 0.6152344 0.25
vt 0.6191406 0.75
vt 0.6152344 0.75
vt 0.3847656 0.75
vt 0.3811035 0.75
vt 0.625 0.75
vt 0.375 0.75
vt 0.625 0.7749023
vt 0.375 0.7749023
vt 0.625 0.9750977
vt 0.375 0.9750977
vt 0.375 0.9750977
vt 0 0
vt 0.625 0.9750977
vt 0 0
vt 0 0
vt 0 0
vt 0.6152344 1
vt 0.3847656 1
vn -1 0 0.01576233
vn -0.9658203 0 0.2587891
vn -0.9658203 0 0.2587891
vn -1 0 0.01576233
vn -1 0 -0.01576233
vn -1 0 -0.01576233
vn -0.9658203 0 -0.2587891
vn -0.9658203 0 -0.2587891
vn -0.7070313 0 0.7070313
vn -0.7070313 0 0.7070313
vn -0.5 0 0.8662109
vn -0.5 0 0.8662109
vn -0.012146 0 1
vn -0.012146 0 1
vn 0.012146 0 1
vn 0.012146 0 1
vn 0.5 0 0.8662109
vn 0.5 0 0.8662109
vn 0.7070313 0 0.7070313
vn 0.7070313 0 0.7070313
vn 0.9658203 0 0.2587891
vn 0.9658203 0 0.2587891
vn 1 0 0.01576233
vn 1 0 0.01576233
vn 1 0 -0.01576233
vn 1 0 -0.01576233
vn 0.9658203 0 -0.2587891
vn 0.9658203 0 -0.2587891
vn -0.7070313 0 -0.7070313
vn -0.7070313 0 -0.7070313
vn -0.5 0 -0.8662109
vn -0.5 0 -0.8662109
vn -0.012146 0 -1
vn -0.012146 0 -1
vn 0.012146 0 -1
vn 0.012146 0 -1
vn 0.5 0 -0.8662109
vn 0.5 0 -0.8662109
vn 0.7070313 0 -0.7070313
vn 0.7070313 0 -0.7070313
vn 0 1 0
vn 0 1 0
vn 0 1 0
vn 0 1 0
vn 0 1 0
vn 0 1 0
vn 0 1 0
vn 0 1 0
vn 0 1 0
vn 0 1 0
vn 0 1 0
vn 0 1 0
vn 0 1 0
vn 0 1 0
vn 0 1 0
vn 0 1 0
vn 0 -1 0
vn 0 -1 0
vn 0 -1 0
vn 0 -1 0
vn 0 -1 0
vn 0 -1 0
vn 0 -1 0
vn 0 -1 0
vn 0 -1 0
vn 0 -1 0
vn 0 -1 0
vn 0 -1 0
vn 0 -1 0
vn 0 -1 0
vn 0 -1 0
vn 0 -1 0
vn 0 -1 0
vn 0 -1 0
g pCube54_0
f 3/3/3 2/2/2 1/1/1
f 2/2/2 4/4/4 1/1/1
f 1/1/1 4/4/4 5/5/5
f 6/6/6 1/1/1 5/5/5
f 7/7/7 6/6/6 5/5/5
f 8/8/8 7/7/7 5/5/5
f 11/11/11 10/10/10 9/9/9
f 12/12/12 11/11/11 9/9/9
f 13/13/13 11/11/11 12/12/12
f 14/14/14 13/13/13 12/12/12
f 14/14/14 15/15/15 13/13/13
f 15/15/15 16/16/16 13/13/13
f 17/17/17 16/16/16 15/15/15
f 18/18/18 17/17/17 15/15/15
f 19/19/19 17/17/17 18/18/18
f 20/20/20 19/19/19 18/18/18
f 23/23/23 22/22/22 21/21/21
f 24/24/24 23/23/23 21/21/21
f 24/24/24 25/25/25 23/23/23
f 25/25/25 26/26/26 23/23/23
f 26/26/26 25/25/25 27/27/27
f 25/25/25 28/28/28 27/27/27
f 31/31/31 30/30/30 29/29/29
f 32/32/32 31/31/31 29/29/29
f 33/33/33 31/31/31 32/32/32
f 34/34/34 33/33/33 32/32/32
f 34/34/34 35/35/35 33/33/33
f 35/35/35 36/36/36 33/33/33
f 37/37/37 36/36/36 35/35/35
f 38/38/38 37/37/37 35/35/35
f 39/39/39 37/37/37 38/38/38
f 40/40/40 39/39/39 38/38/38
f 43/43/43 42/42/42 41/41/41
f 41/41/41 44/44/44 43/43/43
f 41/41/41 45/45/45 44/44/44
f 45/45/45 46/46/46 44/44/44
f 45/45/45 47/47/47 46/46/46
f 47/47/47 48/48/48 46/46/46
f 47/47/47 49/49/49 48/48/48
f 49/49/49 50/50/50 48/48/48
f 49/49/49 51/51/51 50/50/50
f 51/51/51 52/52/52 50/50/50
f 51/51/51 53/53/53 52/52/52
f 53/53/53 54/54/54 52/52/52
f 53/53/53 55/55/55 54/54/54
f 55/55/55 56/56/56 54/54/54
f 59/59/59 58/58/58 57/57/57
f 57/57/57 60/60/60 59/59/59
f 57/57/57 61/61/61 60/60/60
f 61/61/61 62/62/62 60/60/60
f 61/61/61 63/63/63 62/62/62
f 63/63/63 64/64/64 62/62/62
f 63/63/63 65/65/65 64/64/64
f 65/65/65 66/66/66 64/64/64
f 69/69/69 68/68/68 67/67/67
f 68/68/68 70/70/70 67/67/67
f 68/68/68 71/71/71 70/70/70
f 71/71/71 72/72/72 70/70/70
f 71/71/71 73/73/73 72/72/72
f 73/73/73 74/74/74 72/72/72
