g pCylinder12
v -0.005578421 -0.04376702 0.01716862
v 3.309341E-10 -0.04376702 3.309341E-10
v 0.005578422 -0.04376702 0.01716862
v -0.0146045 -0.04376702 0.01061079
v -0.005578421 -0.04376702 0.01716862
v -0.01805215 -0.04376702 1.406926E-09
v -0.0146045 -0.04376702 -0.01061079
v -0.005578424 -0.04376702 -0.01716862
v 0.005578421 -0.04376702 -0.01716862
v 3.309341E-10 -0.04376702 3.309341E-10
v 0.0146045 -0.04376702 -0.01061079
v 0.01805215 -0.04376702 3.309341E-10
v 0.0146045 -0.04376702 0.01061079
v 0.005578422 -0.04376702 0.01716862
v 0.0146045 -0.09376702 -0.01061079
v 0.02022543 -0.025 -0.01469463
v 0.007725423 -0.025 -0.02377642
v 0.005578421 -0.09376702 -0.01716862
v 0.005578421 -0.09376702 -0.01716862
v 0.007725423 -0.025 -0.02377642
v -0.007725428 -0.025 -0.02377641
v -0.005578424 -0.09376702 -0.01716862
v -0.005578424 -0.09376702 -0.01716862
v -0.007725428 -0.025 -0.02377641
v -0.02022543 -0.025 -0.01469463
v -0.0146045 -0.09376702 -0.01061079
v -0.0146045 -0.09376702 -0.01061079
v -0.02022543 -0.025 -0.01469463
v -0.025 -0.025 1.490116E-09
v -0.01805215 -0.09376702 1.406926E-09
v -0.01805215 -0.09376702 1.406926E-09
v -0.025 -0.025 1.490116E-09
v -0.02022543 -0.025 0.01469463
v -0.0146045 -0.09376702 0.01061079
v -0.0146045 -0.09376702 0.01061079
v -0.02022543 -0.025 0.01469463
v -0.007725424 -0.025 0.02377641
v -0.005578421 -0.09376702 0.01716862
v -0.005578421 -0.09376702 0.01716862
v -0.007725424 -0.025 0.02377641
v 0.007725426 -0.025 0.02377641
v 0.005578422 -0.09376702 0.01716862
v 0.005578422 -0.09376702 0.01716862
v 0.007725426 -0.025 0.02377641
v 0.02022542 -0.025 0.01469463
v 0.0146045 -0.09376702 0.01061079
v 0.0146045 -0.09376702 0.01061079
v 0.02022542 -0.025 0.01469463
v 0.025 -0.025 0
v 0.01805215 -0.09376702 3.309341E-10
v 0.01805215 -0.09376702 3.309341E-10
v 0.025 -0.025 0
v 0.02022543 -0.025 -0.01469463
v 0.0146045 -0.09376702 -0.01061079
v 0.02022543 -0.025 -0.01469463
v 0.02022543 0.025 -0.01469463
v 0.007725423 0.025 -0.02377642
v 0.007725423 -0.025 -0.02377642
v 0.007725423 -0.025 -0.02377642
v 0.007725423 0.025 -0.02377642
v -0.007725428 0.025 -0.02377641
v -0.007725428 -0.025 -0.02377641
v -0.007725428 -0.025 -0.02377641
v -0.007725428 0.025 -0.02377641
v -0.02022543 0.025 -0.01469463
v -0.02022543 -0.025 -0.01469463
v -0.02022543 -0.025 -0.01469463
v -0.02022543 0.025 -0.01469463
v -0.025 0.025 1.490116E-09
v -0.025 -0.025 1.490116E-09
v -0.025 -0.025 1.490116E-09
v -0.025 0.025 1.490116E-09
v -0.02022543 0.025 0.01469463
v -0.02022543 -0.025 0.01469463
v -0.02022543 -0.025 0.01469463
v -0.02022543 0.025 0.01469463
v -0.007725424 0.025 0.02377641
v -0.007725424 -0.025 0.02377641
v -0.007725424 -0.025 0.02377641
v -0.007725424 0.025 0.02377641
v 0.007725426 0.025 0.02377641
v 0.007725426 -0.025 0.02377641
v 0.007725426 -0.025 0.02377641
v 0.007725426 0.025 0.02377641
v 0.02022542 0.025 0.01469463
v 0.02022542 -0.025 0.01469463
v 0.02022542 -0.025 0.01469463
v 0.02022542 0.025 0.01469463
v 0.025 0.025 0
v 0.025 -0.025 0
v 0.025 -0.025 0
v 0.025 0.025 0
v 0.02022543 0.025 -0.01469463
v 0.02022543 -0.025 -0.01469463
v 0.02022543 0.025 -0.01469463
v 0.0146045 -0.04376702 -0.01061079
v 0.005578421 -0.04376702 -0.01716862
v 0.007725423 0.025 -0.02377642
v 0.007725423 0.025 -0.02377642
v 0.005578421 -0.04376702 -0.01716862
v -0.005578424 -0.04376702 -0.01716862
v -0.007725428 0.025 -0.02377641
v -0.007725428 0.025 -0.02377641
v -0.005578424 -0.04376702 -0.01716862
v -0.0146045 -0.04376702 -0.01061079
v -0.02022543 0.025 -0.01469463
v -0.02022543 0.025 -0.01469463
v -0.0146045 -0.04376702 -0.01061079
v -0.01805215 -0.04376702 1.406926E-09
v -0.025 0.025 1.490116E-09
v -0.025 0.025 1.490116E-09
v -0.01805215 -0.04376702 1.406926E-09
v -0.0146045 -0.04376702 0.01061079
v -0.02022543 0.025 0.01469463
v -0.02022543 0.025 0.01469463
v -0.0146045 -0.04376702 0.01061079
v -0.005578421 -0.04376702 0.01716862
v -0.007725424 0.025 0.02377641
v -0.007725424 0.025 0.02377641
v -0.005578421 -0.04376702 0.01716862
v 0.005578422 -0.04376702 0.01716862
v 0.007725426 0.025 0.02377641
v 0.007725426 0.025 0.02377641
v 0.005578422 -0.04376702 0.01716862
v 0.0146045 -0.04376702 0.01061079
v 0.02022542 0.025 0.01469463
v 0.02022542 0.025 0.01469463
v 0.0146045 -0.04376702 0.01061079
v 0.01805215 -0.04376702 3.309341E-10
v 0.025 0.025 0
v 0.025 0.025 0
v 0.01805215 -0.04376702 3.309341E-10
v 0.0146045 -0.04376702 -0.01061079
v 0.02022543 0.025 -0.01469463
v 0.005578421 -0.09376702 -0.01716862
v 3.309341E-10 -0.09376702 3.309341E-10
v 0.0146045 -0.09376702 -0.01061079
v -0.005578424 -0.09376702 -0.01716862
v -0.0146045 -0.09376702 -0.01061079
v -0.01805215 -0.09376702 1.406926E-09
v -0.0146045 -0.09376702 0.01061079
v -0.005578421 -0.09376702 0.01716862
v 3.309341E-10 -0.09376702 3.309341E-10
v 0.01805215 -0.09376702 3.309341E-10
v 0.005578422 -0.09376702 0.01716862
v 0.0146045 -0.09376702 0.01061079
vt 0.8427734 0.1413574
vt 0.8452148 0.1480713
vt 0.847168 0.1413574
vt 0.8388672 0.144165
vt 0.8427734 0.1413574
vt 0.8374023 0.1486816
vt 0.8388672 0.1531982
vt 0.8427734 0.1558838
vt 0.847168 0.1558838
vt 0.8452148 0.1480713
vt 0.8510742 0.1531982
vt 0.8525391 0.1486816
vt 0.8510742 0.144165
vt 0.847168 0.1413574
vt 0.8510742 0.07684326
vt 0.8574219 0.07232666
vt 0.8496094 0.06677246
vt 0.847168 0.07409668
vt 0.847168 0.07409668
vt 0.8496094 0.06677246
vt 0.840332 0.06677246
vt 0.8427734 0.07409668
vt 0.8427734 0.07409668
vt 0.840332 0.06677246
vt 0.8325195 0.07232666
vt 0.8388672 0.07684326
vt 0.8388672 0.07684326
vt 0.8325195 0.07232666
vt 0.8295898 0.08135986
vt 0.8374023 0.08135986
vt 0.8374023 0.08135986
vt 0.8295898 0.08135986
vt 0.8325195 0.09033203
vt 0.8388672 0.08581543
vt 0.8388672 0.08581543
vt 0.8325195 0.09033203
vt 0.840332 0.09588623
vt 0.8427734 0.08862305
vt 0.8427734 0.08862305
vt 0.840332 0.09588623
vt 0.8496094 0.09588623
vt 0.847168 0.08862305
vt 0.847168 0.08862305
vt 0.8496094 0.09588623
vt 0.8574219 0.09033203
vt 0.8510742 0.08581543
vt 0.8510742 0.08581543
vt 0.8574219 0.09033203
vt 0.8603516 0.08135986
vt 0.8525391 0.08135986
vt 0.8525391 0.08135986
vt 0.8603516 0.08135986
vt 0.8574219 0.07232666
vt 0.8510742 0.07684326
vt 0.2457275 0.8208008
vt 0.2457275 0.8574219
vt 0.2481689 0.8574219
vt 0.2481689 0.8208008
vt 0.2481689 0.8208008
vt 0.2481689 0.8574219
vt 0.2507324 0.8574219
vt 0.2507324 0.8208008
vt 0.2507324 0.8208008
vt 0.2507324 0.8574219
vt 0.2531738 0.8574219
vt 0.2531738 0.8208008
vt 0.2531738 0.8208008
vt 0.2531738 0.8574219
vt 0.2556152 0.8574219
vt 0.2556152 0.8208008
vt 0.2556152 0.8208008
vt 0.2556152 0.8574219
vt 0.2580566 0.8574219
vt 0.2580566 0.8208008
vt 0.2580566 0.8208008
vt 0.2580566 0.8574219
vt 0.260498 0.8574219
vt 0.260498 0.8208008
vt 0.260498 0.8208008
vt 0.260498 0.8574219
vt 0.2629395 0.8574219
vt 0.2629395 0.8208008
vt 0.2629395 0.8208008
vt 0.2629395 0.8574219
vt 0.2653809 0.8574219
vt 0.2653809 0.8208008
vt 0.2653809 0.8208008
vt 0.2653809 0.8574219
vt 0.2678223 0.8574219
vt 0.2678223 0.8208008
vt 0.2678223 0.8208008
vt 0.2678223 0.8574219
vt 0.2702637 0.8574219
vt 0.2702637 0.8208008
vt 0.2702637 0.8818359
vt 0.2641602 0.8769531
vt 0.2602539 0.8798828
vt 0.2626953 0.887207
vt 0.2626953 0.887207
vt 0.2602539 0.8798828
vt 0.2556152 0.8798828
vt 0.2531738 0.887207
vt 0.2531738 0.887207
vt 0.2556152 0.8798828
vt 0.251709 0.8769531
vt 0.2456055 0.8818359
vt 0.2456055 0.8818359
vt 0.251709 0.8769531
vt 0.2502441 0.8725586
vt 0.2426758 0.8725586
vt 0.2426758 0.8725586
vt 0.2502441 0.8725586
vt 0.251709 0.8681641
vt 0.2456055 0.8637695
vt 0.2456055 0.8637695
vt 0.251709 0.8681641
vt 0.2556152 0.8652344
vt 0.2531738 0.8579102
vt 0.2531738 0.8579102
vt 0.2556152 0.8652344
vt 0.2602539 0.8652344
vt 0.2626953 0.8579102
vt 0.2626953 0.8579102
vt 0.2602539 0.8652344
vt 0.2641602 0.8681641
vt 0.2702637 0.8637695
vt 0.2702637 0.8637695
vt 0.2641602 0.8681641
vt 0.265625 0.8725586
vt 0.2731934 0.8725586
vt 0.2731934 0.8725586
vt 0.265625 0.8725586
vt 0.2641602 0.8769531
vt 0.2702637 0.8818359
vt 0.847168 0.07409668
vt 0.8452148 0.08074951
vt 0.8510742 0.07684326
vt 0.8427734 0.07409668
vt 0.8388672 0.07684326
vt 0.8374023 0.08135986
vt 0.8388672 0.08581543
vt 0.8427734 0.08862305
vt 0.8452148 0.08074951
vt 0.8525391 0.08135986
vt 0.847168 0.08862305
vt 0.8510742 0.08581543
vn 0 1 0
vn 0 1 0
vn 0 1 0
vn 0 1 0
vn 0 1 0
vn 0 1 -7.748604E-07
vn 0 1 0
vn 0 1 0
vn 0 1 0
vn 0 1 0
vn 0 1 0
vn 0 1 0
vn 0 1 0
vn 0 1 0
vn 0.5849609 -0.09564209 -0.8051758
vn 0.5849609 -0.09564209 -0.8051758
vn 0.5849609 -0.09564209 -0.8051758
vn 0.5849609 -0.09564209 -0.8051758
vn 0 -0.09564209 -0.9956055
vn 0 -0.09564209 -0.9956055
vn 0 -0.09564209 -0.9956055
vn 0 -0.09564209 -0.9956055
vn -0.5849609 -0.09564209 -0.8051758
vn -0.5849609 -0.09564209 -0.8051758
vn -0.5849609 -0.09564209 -0.8051758
vn -0.5849609 -0.09564209 -0.8051758
vn -0.9467773 -0.09564209 -0.3076172
vn -0.9467773 -0.09564209 -0.3076172
vn -0.9467773 -0.09564209 -0.3076172
vn -0.9467773 -0.09564209 -0.3076172
vn -0.9467773 -0.09564209 0.3076172
vn -0.9467773 -0.09564209 0.3076172
vn -0.9467773 -0.09564209 0.3076172
vn -0.9467773 -0.09564209 0.3076172
vn -0.5849609 -0.09564209 0.8051758
vn -0.5849609 -0.09564209 0.8051758
vn -0.5849609 -0.09564209 0.8051758
vn -0.5849609 -0.09564209 0.8051758
vn 0 -0.09564209 0.9956055
vn 0 -0.09564209 0.9956055
vn 0 -0.09564209 0.9956055
vn 0 -0.09564209 0.9956055
vn 0.5849609 -0.09564209 0.8051758
vn 0.5849609 -0.09564209 0.8051758
vn 0.5849609 -0.09564209 0.8051758
vn 0.5849609 -0.09564209 0.8051758
vn 0.9467773 -0.09564209 0.3076172
vn 0.9467773 -0.09564209 0.3076172
vn 0.9467773 -0.09564209 0.3076172
vn 0.9467773 -0.09564209 0.3076172
vn 0.9467773 -0.09564209 -0.3076172
vn 0.9467773 -0.09564209 -0.3076172
vn 0.9467773 -0.09564209 -0.3076172
vn 0.9467773 -0.09564209 -0.3076172
vn 0.5878906 0 -0.809082
vn 0.5878906 0 -0.809082
vn 0.5878906 0 -0.809082
vn 0.5878906 0 -0.809082
vn 0 0 -1
vn 0 0 -1
vn 0 0 -1
vn 0 0 -1
vn -0.5878906 0 -0.809082
vn -0.5878906 0 -0.809082
vn -0.5878906 0 -0.809082
vn -0.5878906 0 -0.809082
vn -0.9511719 0 -0.309082
vn -0.9511719 0 -0.309082
vn -0.9511719 0 -0.309082
vn -0.9511719 0 -0.309082
vn -0.9511719 0 0.309082
vn -0.9511719 0 0.309082
vn -0.9511719 0 0.309082
vn -0.9511719 0 0.309082
vn -0.5878906 0 0.809082
vn -0.5878906 0 0.809082
vn -0.5878906 0 0.809082
vn -0.5878906 0 0.809082
vn 0 0 1
vn 0 0 1
vn 0 0 1
vn 0 0 1
vn 0.5878906 0 0.809082
vn 0.5878906 0 0.809082
vn 0.5878906 0 0.809082
vn 0.5878906 0 0.809082
vn 0.9511719 0 0.309082
vn 0.9511719 0 0.309082
vn 0.9511719 0 0.309082
vn 0.9511719 0 0.309082
vn 0.9511719 0 -0.309082
vn 0.9511719 0 -0.309082
vn 0.9511719 0 -0.309082
vn 0.9511719 0 -0.309082
vn -0.5849609 0.09564209 0.8051758
vn -0.5849609 0.09564209 0.8051758
vn -0.5849609 0.09564209 0.8051758
vn -0.5849609 0.09564209 0.8051758
vn 0 0.09564209 0.9956055
vn 0 0.09564209 0.9956055
vn 0 0.09564209 0.9956055
vn 0 0.09564209 0.9956055
vn 0.5849609 0.09564209 0.8051758
vn 0.5849609 0.09564209 0.8051758
vn 0.5849609 0.09564209 0.8051758
vn 0.5849609 0.09564209 0.8051758
vn 0.9467773 0.09564209 0.3076172
vn 0.9467773 0.09564209 0.3076172
vn 0.9467773 0.09564209 0.3076172
vn 0.9467773 0.09564209 0.3076172
vn 0.9467773 0.09564209 -0.3076172
vn 0.9467773 0.09564209 -0.3076172
vn 0.9467773 0.09564209 -0.3076172
vn 0.9467773 0.09564209 -0.3076172
vn 0.5849609 0.09564209 -0.8051758
vn 0.5849609 0.09564209 -0.8051758
vn 0.5849609 0.09564209 -0.8051758
vn 0.5849609 0.09564209 -0.8051758
vn 0 0.09564209 -0.9956055
vn 0 0.09564209 -0.9956055
vn 0 0.09564209 -0.9956055
vn 0 0.09564209 -0.9956055
vn -0.5849609 0.09564209 -0.8051758
vn -0.5849609 0.09564209 -0.8051758
vn -0.5849609 0.09564209 -0.8051758
vn -0.5849609 0.09564209 -0.8051758
vn -0.9467773 0.09564209 -0.3076172
vn -0.9467773 0.09564209 -0.3076172
vn -0.9467773 0.09564209 -0.3076172
vn -0.9467773 0.09564209 -0.3076172
vn -0.9467773 0.09564209 0.3076172
vn -0.9467773 0.09564209 0.3076172
vn -0.9467773 0.09564209 0.3076172
vn -0.9467773 0.09564209 0.3076172
vn 0 -1 0
vn 0 -1 0
vn 0 -1 0
vn 0 -1 0
vn 0 -1 0
vn 0 -1 0
vn 0 -1 0
vn 0 -1 -7.748604E-07
vn 0 -1 0
vn 0 -1 0
vn 0 -1 0
vn 0 -1 0
g pCylinder12_0
f 3/3/3 2/2/2 1/1/1
f 5/5/5 2/2/2 4/4/4
f 4/4/4 2/2/2 6/6/6
f 6/6/6 2/2/2 7/7/7
f 7/7/7 2/2/2 8/8/8
f 8/8/8 10/10/10 9/9/9
f 9/9/9 10/10/10 11/11/11
f 11/11/11 10/10/10 12/12/12
f 12/12/12 10/10/10 13/13/13
f 13/13/13 10/10/10 14/14/14
f 17/17/17 16/16/16 15/15/15
f 18/18/18 17/17/17 15/15/15
f 21/21/21 20/20/20 19/19/19
f 22/22/22 21/21/21 19/19/19
f 25/25/25 24/24/24 23/23/23
f 26/26/26 25/25/25 23/23/23
f 29/29/29 28/28/28 27/27/27
f 30/30/30 29/29/29 27/27/27
f 33/33/33 32/32/32 31/31/31
f 34/34/34 33/33/33 31/31/31
f 37/37/37 36/36/36 35/35/35
f 38/38/38 37/37/37 35/35/35
f 41/41/41 40/40/40 39/39/39
f 42/42/42 41/41/41 39/39/39
f 45/45/45 44/44/44 43/43/43
f 46/46/46 45/45/45 43/43/43
f 49/49/49 48/48/48 47/47/47
f 50/50/50 49/49/49 47/47/47
f 53/53/53 52/52/52 51/51/51
f 54/54/54 53/53/53 51/51/51
f 57/57/57 56/56/56 55/55/55
f 58/58/58 57/57/57 55/55/55
f 61/61/61 60/60/60 59/59/59
f 62/62/62 61/61/61 59/59/59
f 65/65/65 64/64/64 63/63/63
f 66/66/66 65/65/65 63/63/63
f 69/69/69 68/68/68 67/67/67
f 70/70/70 69/69/69 67/67/67
f 73/73/73 72/72/72 71/71/71
f 74/74/74 73/73/73 71/71/71
f 77/77/77 76/76/76 75/75/75
f 78/78/78 77/77/77 75/75/75
f 81/81/81 80/80/80 79/79/79
f 82/82/82 81/81/81 79/79/79
f 85/85/85 84/84/84 83/83/83
f 86/86/86 85/85/85 83/83/83
f 89/89/89 88/88/88 87/87/87
f 90/90/90 89/89/89 87/87/87
f 93/93/93 92/92/92 91/91/91
f 94/94/94 93/93/93 91/91/91
f 97/97/97 96/96/96 95/95/95
f 98/98/98 97/97/97 95/95/95
f 101/101/101 100/100/100 99/99/99
f 102/102/102 101/101/101 99/99/99
f 105/105/105 104/104/104 103/103/103
f 106/106/106 105/105/105 103/103/103
f 109/109/109 108/108/108 107/107/107
f 110/110/110 109/109/109 107/107/107
f 113/113/113 112/112/112 111/111/111
f 114/114/114 113/113/113 111/111/111
f 117/117/117 116/116/116 115/115/115
f 118/118/118 117/117/117 115/115/115
f 121/121/121 120/120/120 119/119/119
f 122/122/122 121/121/121 119/119/119
f 125/125/125 124/124/124 123/123/123
f 126/126/126 125/125/125 123/123/123
f 129/129/129 128/128/128 127/127/127
f 130/130/130 129/129/129 127/127/127
f 133/133/133 132/132/132 131/131/131
f 134/134/134 133/133/133 131/131/131
f 137/137/137 136/136/136 135/135/135
f 135/135/135 136/136/136 138/138/138
f 138/138/138 136/136/136 139/139/139
f 139/139/139 136/136/136 140/140/140
f 140/140/140 136/136/136 141/141/141
f 141/141/141 136/136/136 142/142/142
f 144/144/144 143/143/143 137/137/137
f 142/142/142 143/143/143 145/145/145
f 146/146/146 143/143/143 144/144/144
f 145/145/145 143/143/143 146/146/146
