g PencilShaft
v 0.005187703 0.008985367 -0.3219435
v 0.005187703 0.008985367 -2.512102E-05
v -0.0051877 0.008985367 -2.512102E-05
v -0.0051877 0.008985367 -0.3219435
v -0.0051877 0.008985367 -0.3219435
v -0.0051877 0.008985367 -2.512102E-05
v -0.0103754 -7.629394E-08 -2.512102E-05
v -0.0103754 -7.629394E-08 -0.3219429
v -0.0103754 -7.629394E-08 -0.3219429
v -0.0103754 -7.629394E-08 -2.512102E-05
v -0.005187702 -0.008985367 -2.512102E-05
v -0.005187702 -0.008985367 -0.3219429
v -0.005187702 -0.008985367 -0.3219429
v -0.005187702 -0.008985367 -2.512102E-05
v 0.005187701 -0.008985367 -2.512102E-05
v 0.005187701 -0.008985367 -0.3219429
v 0.005187701 -0.008985367 -0.3219429
v 0.005187701 -0.008985367 -2.512102E-05
v 0.0103754 -7.629394E-08 -2.512102E-05
v 0.0103754 -7.629394E-08 -0.3219429
v 0.0103754 -7.629394E-08 -0.3219429
v 0.0103754 -7.629394E-08 -2.512102E-05
v 0.005187703 0.008985367 -2.512102E-05
v 0.005187703 0.008985367 -0.3219435
v -0.00259385 0.004492722 -0.3219429
v 0 -7.629394E-08 -0.3219429
v 0.002593852 0.004492722 -0.3219429
v -0.005187701 -7.629394E-08 -0.3219429
v 0.005187701 -7.629394E-08 -0.3219429
v -0.002593851 -0.004492722 -0.3219429
v 0.00259385 -0.004492722 -0.3219429
v 0.002593852 0.004492722 -2.512102E-05
v 0 -7.629394E-08 -2.512102E-05
v -0.00259385 0.004492722 -2.512102E-05
v 0.005187701 -7.629394E-08 -2.512102E-05
v -0.005187701 -7.629394E-08 -2.512102E-05
v 0.00259385 -0.004492722 -2.512102E-05
v -0.002593851 -0.004492722 -2.512102E-05
v 0.002593852 0.004492722 -0.3219429
v 0.005187703 0.008985367 -0.3219435
v -0.0051877 0.008985367 -0.3219435
v -0.00259385 0.004492722 -0.3219429
v 0.005187701 -7.629394E-08 -0.3219429
v -0.0103754 -7.629394E-08 -0.3219429
v 0.0103754 -7.629394E-08 -0.3219429
v -0.005187701 -7.629394E-08 -0.3219429
v 0.00259385 -0.004492722 -0.3219429
v -0.005187702 -0.008985367 -0.3219429
v 0.005187701 -0.008985367 -0.3219429
v -0.002593851 -0.004492722 -0.3219429
v 0.005187703 0.008985367 -2.512102E-05
v 0.002593852 0.004492722 -2.512102E-05
v -0.00259385 0.004492722 -2.512102E-05
v -0.0051877 0.008985367 -2.512102E-05
v 0.0103754 -7.629394E-08 -2.512102E-05
v -0.005187701 -7.629394E-08 -2.512102E-05
v 0.005187701 -7.629394E-08 -2.512102E-05
v -0.0103754 -7.629394E-08 -2.512102E-05
v 0.005187701 -0.008985367 -2.512102E-05
v -0.002593851 -0.004492722 -2.512102E-05
v 0.00259385 -0.004492722 -2.512102E-05
v -0.005187702 -0.008985367 -2.512102E-05
vt 0.3327637 0.5498047
vt 0.3327637 0.5283203
vt 0.3222656 0.5283203
vt 0.3222656 0.5498047
vt 0.7509766 0.03573608
vt 0.7509766 0.05697632
vt 0.7602539 0.05697632
vt 0.7602539 0.03573608
vt 0.322998 0.5283203
vt 0.322998 0.5498047
vt 0.3320313 0.5498047
vt 0.3320313 0.5283203
vt 0.7504883 0.03573608
vt 0.7504883 0.05697632
vt 0.7612305 0.05697632
vt 0.7612305 0.03573608
vt 0.322998 0.5283203
vt 0.322998 0.5498047
vt 0.3320313 0.5498047
vt 0.3320313 0.5283203
vt 0.7509766 0.03573608
vt 0.7509766 0.05697632
vt 0.7602539 0.05697632
vt 0.7602539 0.03573608
vt 0.3054199 0.102356
vt 0.3146973 0.0970459
vt 0.3054199 0.09173584
vt 0.3146973 0.107666
vt 0.3146973 0.08642578
vt 0.3237305 0.102356
vt 0.3237305 0.09173584
vt 0.3237305 0.09173584
vt 0.3146973 0.0970459
vt 0.3237305 0.102356
vt 0.3146973 0.08642578
vt 0.3146973 0.107666
vt 0.3054199 0.09173584
vt 0.3054199 0.102356
vt 0.2763672 0.3046875
vt 0.2680664 0.2998047
vt 0.2680664 0.3188477
vt 0.2763672 0.314209
vt 0.284668 0.2998047
vt 0.284668 0.3283691
vt 0.284668 0.2902832
vt 0.284668 0.3188477
vt 0.2927246 0.3046875
vt 0.3010254 0.3188477
vt 0.3010254 0.2998047
vt 0.2927246 0.314209
vt 0.3010254 0.2998047
vt 0.2927246 0.3046875
vt 0.2927246 0.314209
vt 0.3010254 0.3188477
vt 0.284668 0.2902832
vt 0.284668 0.3188477
vt 0.284668 0.2998047
vt 0.284668 0.3283691
vt 0.2680664 0.2998047
vt 0.2763672 0.314209
vt 0.2763672 0.3046875
vt 0.2680664 0.3188477
vn 0 1 0
vn 0 1 0
vn 0 1 0
vn 0 1 0
vn -0.8662109 0.5 0
vn -0.8662109 0.5 0
vn -0.8662109 0.5 0
vn -0.8662109 0.5 0
vn -0.8662109 -0.5 0
vn -0.8662109 -0.5 0
vn -0.8662109 -0.5 0
vn -0.8662109 -0.5 0
vn 0 -1 0
vn 0 -1 0
vn 0 -1 0
vn 0 -1 0
vn 0.8662109 -0.5 0
vn 0.8662109 -0.5 0
vn 0.8662109 -0.5 0
vn 0.8662109 -0.5 0
vn 0.8662109 0.5 0
vn 0.8662109 0.5 0
vn 0.8662109 0.5 0
vn 0.8662109 0.5 0
vn 3.743172E-05 -8.73208E-05 -1
vn 0 0 -1
vn 0 -8.73208E-05 -1
vn 3.743172E-05 -2.908707E-05 -1
vn 0 -2.908707E-05 -1
vn 0 0 -1
vn 0 0 -1
vn -3.743172E-05 0 1
vn 0 0 1
vn 3.743172E-05 0 1
vn -3.743172E-05 0 1
vn 3.743172E-05 0 1
vn 0 0 1
vn 0 0 1
vn 0 -8.73208E-05 -1
vn 0 -0.0001018643 -1
vn 4.36306E-05 -0.0001018643 -1
vn 3.743172E-05 -8.73208E-05 -1
vn 0 -2.908707E-05 -1
vn 4.36306E-05 -3.397465E-05 -1
vn 0 -3.397465E-05 -1
vn 3.743172E-05 -2.908707E-05 -1
vn 0 0 -1
vn 0 0 -1
vn 0 0 -1
vn 0 0 -1
vn -4.36306E-05 0 1
vn -3.743172E-05 0 1
vn 3.743172E-05 0 1
vn 4.36306E-05 0 1
vn -4.36306E-05 0 1
vn 3.743172E-05 0 1
vn -3.743172E-05 0 1
vn 4.36306E-05 0 1
vn 0 0 1
vn 0 0 1
vn 0 0 1
vn 0 0 1
g PencilShaft_0
f 3/3/3 2/2/2 1/1/1
f 4/4/4 3/3/3 1/1/1
f 7/7/7 6/6/6 5/5/5
f 8/8/8 7/7/7 5/5/5
f 11/11/11 10/10/10 9/9/9
f 12/12/12 11/11/11 9/9/9
f 15/15/15 14/14/14 13/13/13
f 16/16/16 15/15/15 13/13/13
f 19/19/19 18/18/18 17/17/17
f 20/20/20 19/19/19 17/17/17
f 23/23/23 22/22/22 21/21/21
f 24/24/24 23/23/23 21/21/21
f 27/27/27 26/26/26 25/25/25
f 25/25/25 26/26/26 28/28/28
f 29/29/29 26/26/26 27/27/27
f 28/28/28 26/26/26 30/30/30
f 31/31/31 26/26/26 29/29/29
f 30/30/30 26/26/26 31/31/31
f 34/34/34 33/33/33 32/32/32
f 32/32/32 33/33/33 35/35/35
f 36/36/36 33/33/33 34/34/34
f 35/35/35 33/33/33 37/37/37
f 38/38/38 33/33/33 36/36/36
f 37/37/37 33/33/33 38/38/38
f 41/41/41 40/40/40 39/39/39
f 42/42/42 41/41/41 39/39/39
f 39/39/39 40/40/40 43/43/43
f 44/44/44 41/41/41 42/42/42
f 40/40/40 45/45/45 43/43/43
f 46/46/46 44/44/44 42/42/42
f 43/43/43 45/45/45 47/47/47
f 48/48/48 44/44/44 46/46/46
f 45/45/45 49/49/49 47/47/47
f 50/50/50 48/48/48 46/46/46
f 47/47/47 49/49/49 50/50/50
f 49/49/49 48/48/48 50/50/50
f 53/53/53 52/52/52 51/51/51
f 54/54/54 53/53/53 51/51/51
f 51/51/51 52/52/52 55/55/55
f 56/56/56 53/53/53 54/54/54
f 52/52/52 57/57/57 55/55/55
f 58/58/58 56/56/56 54/54/54
f 55/55/55 57/57/57 59/59/59
f 60/60/60 56/56/56 58/58/58
f 57/57/57 61/61/61 59/59/59
f 62/62/62 60/60/60 58/58/58
f 59/59/59 61/61/61 62/62/62
f 61/61/61 60/60/60 62/62/62
