g polySurface80
v -0.04780097 -0.01551222 -0.1344503
v 0.002049014 -0.01551222 -0.149316
v 0.05111632 -0.01551222 -0.1320415
v -0.07939266 -0.01551222 -0.09312264
v 0.08065882 -0.01551222 -0.08922507
v -0.08065896 -0.01551222 -0.04111888
v 0.07939243 -0.01551222 -0.03722121
v -0.05111641 -0.01551222 0.00169757
v 0.04780077 -0.01551222 0.00410636
v -0.00204921 -0.01551222 0.01897204
v 0.05333648 -0.05368771 -0.134946
v 0.08416232 -0.05368771 -0.09026982
v 0.08812756 -0.05139031 -0.09145238
v 0.05584955 -0.05139031 -0.1382335
v 0.05584955 -0.05139031 -0.1382335
v 0.002238795 -0.05139031 -0.1571075
v 0.002138087 -0.05368771 -0.1529709
v 0.05333648 -0.05368771 -0.134946
v 0.002238795 -0.05139031 -0.1571075
v -0.05222725 -0.05139031 -0.1408653
v -0.04987731 -0.05368771 -0.1374595
v 0.002138087 -0.05368771 -0.1529709
v -0.05222725 -0.05139031 -0.1408653
v -0.08674416 -0.05139031 -0.09571072
v -0.08284096 -0.05368771 -0.09433667
v -0.04987731 -0.05368771 -0.1374595
v -0.08674416 -0.05139031 -0.09571072
v -0.08812784 -0.05139031 -0.03889157
v -0.08416238 -0.05368771 -0.04007412
v -0.08284096 -0.05368771 -0.09433667
v -0.08812784 -0.05139031 -0.03889157
v -0.0558496 -0.05139031 0.007889395
v -0.05333667 -0.05368771 0.00460208
v -0.08416238 -0.05368771 -0.04007412
v -0.0558496 -0.05139031 0.007889395
v -0.002238991 -0.05139031 0.02676366
v -0.002138093 -0.05368771 0.0226269
v -0.05333667 -0.05368771 0.00460208
v -0.002238991 -0.05139031 0.02676366
v 0.05222706 -0.05139031 0.01052144
v 0.04987702 -0.05368771 0.007115583
v -0.002138093 -0.05368771 0.0226269
v 0.05222706 -0.05139031 0.01052144
v 0.08674397 -0.05139031 -0.03463303
v 0.08284077 -0.05368771 -0.03600709
v 0.04987702 -0.05368771 0.007115583
v 0.08674397 -0.05139031 -0.03463303
v 0.08812756 -0.05139031 -0.09145238
v 0.08416232 -0.05368771 -0.09026982
v 0.08284077 -0.05368771 -0.03600709
v 0.05584955 -0.05139031 -0.1382335
v 0.05584955 0.05368772 -0.1382335
v 0.002238795 0.05368772 -0.1571075
v 0.002238795 -0.05139031 -0.1571075
v 0.002238795 -0.05139031 -0.1571075
v 0.002238795 0.05368772 -0.1571075
v -0.05222725 0.05368772 -0.1408653
v -0.05222725 -0.05139031 -0.1408653
v -0.05222725 -0.05139031 -0.1408653
v -0.05222725 0.05368772 -0.1408653
v -0.08674416 0.05368772 -0.09571072
v -0.08674416 -0.05139031 -0.09571072
v -0.08674416 -0.05139031 -0.09571072
v -0.08674416 0.05368772 -0.09571072
v -0.08812784 0.05368772 -0.03889157
v -0.08812784 -0.05139031 -0.03889157
v -0.08812784 -0.05139031 -0.03889157
v -0.08812784 0.05368772 -0.03889157
v -0.0558496 0.05368772 0.007889395
v -0.0558496 -0.05139031 0.007889395
v -0.0558496 -0.05139031 0.007889395
v -0.0558496 0.05368772 0.007889395
v -0.002238991 0.05368772 0.02676366
v -0.002238991 -0.05139031 0.02676366
v -0.002238991 -0.05139031 0.02676366
v -0.002238991 0.05368772 0.02676366
v 0.05222706 0.05368772 0.01052144
v 0.05222706 -0.05139031 0.01052144
v 0.05222706 -0.05139031 0.01052144
v 0.05222706 0.05368772 0.01052144
v 0.08674397 0.05368772 -0.03463303
v 0.08674397 -0.05139031 -0.03463303
v 0.08674397 -0.05139031 -0.03463303
v 0.08674397 0.05368772 -0.03463303
v 0.08812756 0.05368772 -0.09145238
v 0.08812756 -0.05139031 -0.09145238
v 0.08812756 -0.05139031 -0.09145238
v 0.08812756 0.05368772 -0.09145238
v 0.05584955 0.05368772 -0.1382335
v 0.05584955 -0.05139031 -0.1382335
v 0.05333648 -0.05368771 -0.134946
v 0.002138087 -0.05368771 -0.1529709
v -0.04987731 -0.05368771 -0.1374595
v -0.08284096 -0.05368771 -0.09433667
v 0.08416232 -0.05368771 -0.09026982
v -0.08416238 -0.05368771 -0.04007412
v 0.08284077 -0.05368771 -0.03600709
v -0.05333667 -0.05368771 0.00460208
v 0.04987702 -0.05368771 0.007115583
v -0.002138093 -0.05368771 0.0226269
v 0.05111632 0.05368772 -0.1320415
v 0.05111632 -0.01551222 -0.1320415
v 0.002049014 -0.01551222 -0.149316
v 0.002049014 0.05368772 -0.149316
v 0.002049014 0.05368772 -0.149316
v 0.002049014 -0.01551222 -0.149316
v -0.04780097 -0.01551222 -0.1344503
v -0.04780097 0.05368772 -0.1344503
v -0.04780097 0.05368772 -0.1344503
v -0.04780097 -0.01551222 -0.1344503
v -0.07939266 -0.01551222 -0.09312264
v -0.07939266 0.05368772 -0.09312264
v -0.07939266 0.05368772 -0.09312264
v -0.07939266 -0.01551222 -0.09312264
v -0.08065896 -0.01551222 -0.04111888
v -0.08065896 0.05368772 -0.04111888
v -0.08065896 0.05368772 -0.04111888
v -0.08065896 -0.01551222 -0.04111888
v -0.05111641 -0.01551222 0.00169757
v -0.05111641 0.05368772 0.00169757
v -0.05111641 0.05368772 0.00169757
v -0.05111641 -0.01551222 0.00169757
v -0.00204921 -0.01551222 0.01897204
v -0.00204921 0.05368772 0.01897204
v -0.00204921 0.05368772 0.01897204
v -0.00204921 -0.01551222 0.01897204
v 0.04780077 -0.01551222 0.00410636
v 0.04780077 0.05368772 0.00410636
v 0.04780077 0.05368772 0.00410636
v 0.04780077 -0.01551222 0.00410636
v 0.07939243 -0.01551222 -0.03722121
v 0.07939243 0.05368772 -0.03722121
v 0.07939243 0.05368772 -0.03722121
v 0.07939243 -0.01551222 -0.03722121
v 0.08065882 -0.01551222 -0.08922507
v 0.08065882 0.05368772 -0.08922507
v 0.08065882 0.05368772 -0.08922507
v 0.08065882 -0.01551222 -0.08922507
v 0.05111632 -0.01551222 -0.1320415
v 0.05111632 0.05368772 -0.1320415
v 0.06538882 0.04509821 0.1771092
v 0.078517 0.04509821 0.1731938
v 0.07851705 0.02322746 0.1731938
v 0.06538887 0.02322746 0.1771092
v 0.007911345 0.04509821 0.02308371
v 0.007911345 0.02322746 0.02308371
v 0.04133954 0.02322746 0.01311534
v 0.04133954 0.04509821 0.01311534
v 0.08511443 0.02322746 0.1597834
v 0.04133954 0.02322746 0.01311534
v 0.007911345 0.02322746 0.02308371
v 0.05197797 0.02322746 0.1705115
v 0.07851705 0.02322746 0.1731938
v 0.06538887 0.02322746 0.1771092
v 0.08511438 0.04509821 0.1597834
v 0.04133954 0.04509821 0.01311534
v 0.04133954 0.02322746 0.01311534
v 0.08511443 0.02322746 0.1597834
v 0.007911345 0.02322746 0.02308371
v 0.007911345 0.04509821 0.02308371
v 0.05197797 0.04509821 0.1705115
v 0.05197797 0.02322746 0.1705115
v 0.007911345 0.04509821 0.02308371
v 0.04133954 0.04509821 0.01311534
v 0.08511438 0.04509821 0.1597834
v 0.05197797 0.04509821 0.1705115
v 0.078517 0.04509821 0.1731938
v 0.06538882 0.04509821 0.1771092
v 0.05197797 0.02322746 0.1705115
v 0.05197797 0.04509821 0.1705115
v 0.06538882 0.04509821 0.1771092
v 0.06538887 0.02322746 0.1771092
v 0.07851705 0.02322746 0.1731938
v 0.078517 0.04509821 0.1731938
v 0.08511438 0.04509821 0.1597834
v 0.08511443 0.02322746 0.1597834
v 0.05584955 0.05368772 -0.1382335
v 0.05111632 0.05368772 -0.1320415
v 0.002049014 0.05368772 -0.149316
v 0.002238795 0.05368772 -0.1571075
v 0.08812756 0.05368772 -0.09145238
v -0.04780097 0.05368772 -0.1344503
v 0.08065882 0.05368772 -0.08922507
v -0.05222725 0.05368772 -0.1408653
v 0.08674397 0.05368772 -0.03463303
v -0.07939266 0.05368772 -0.09312264
v 0.07939243 0.05368772 -0.03722121
v -0.08674416 0.05368772 -0.09571072
v 0.05222706 0.05368772 0.01052144
v -0.08065896 0.05368772 -0.04111888
v 0.04780077 0.05368772 0.00410636
v -0.08812784 0.05368772 -0.03889157
v -0.002238991 0.05368772 0.02676366
v -0.05111641 0.05368772 0.00169757
v -0.00204921 0.05368772 0.01897204
v -0.0558496 0.05368772 0.007889395
vt 0.1008911 0.170166
vt 0.1150513 0.170166
vt 0.1265869 0.1618652
vt 0.08947754 0.1618652
vt 0.1308594 0.1484375
vt 0.08508301 0.1484375
vt 0.1265869 0.1348877
vt 0.08947754 0.1348877
vt 0.1150513 0.1265869
vt 0.1008911 0.1265869
vt 0.1262207 0.07049561
vt 0.1227417 0.07049561
vt 0.1226807 0.07165527
vt 0.1263428 0.07165527
vt 0.08966064 0.07165527
vt 0.09332275 0.07165527
vt 0.09326172 0.07049561
vt 0.08972168 0.07049561
vt 0.09332275 0.07165527
vt 0.09698486 0.07165527
vt 0.09692383 0.07049561
vt 0.09344482 0.07049561
vt 0.09698486 0.07165527
vt 0.100647 0.07165527
vt 0.1005859 0.07049561
vt 0.09710693 0.07049561
vt 0.100647 0.07165527
vt 0.1043091 0.07165527
vt 0.104248 0.07049561
vt 0.100769 0.07049561
vt 0.1043091 0.07165527
vt 0.1079712 0.07165527
vt 0.1079102 0.07049561
vt 0.1044312 0.07049561
vt 0.1079712 0.07165527
vt 0.1116943 0.07165527
vt 0.1115723 0.07049561
vt 0.1080933 0.07049561
vt 0.1116943 0.07165527
vt 0.1153564 0.07165527
vt 0.1152344 0.07049561
vt 0.1117554 0.07049561
vt 0.1153564 0.07165527
vt 0.1190186 0.07165527
vt 0.1188965 0.07049561
vt 0.1154175 0.07049561
vt 0.1190186 0.07165527
vt 0.1226807 0.07165527
vt 0.1225586 0.07049561
vt 0.1190796 0.07049561
vt 0.08966064 0.07165527
vt 0.08966064 0.1256104
vt 0.09332275 0.1256104
vt 0.09332275 0.07165527
vt 0.09332275 0.07165527
vt 0.09332275 0.1256104
vt 0.09698486 0.1256104
vt 0.09698486 0.07165527
vt 0.09698486 0.07165527
vt 0.09698486 0.1256104
vt 0.100647 0.1256104
vt 0.100647 0.07165527
vt 0.100647 0.07165527
vt 0.100647 0.1256104
vt 0.1043091 0.1256104
vt 0.1043091 0.07165527
vt 0.1043091 0.07165527
vt 0.1043091 0.1256104
vt 0.1079712 0.1256104
vt 0.1079712 0.07165527
vt 0.1079712 0.07165527
vt 0.1079712 0.1256104
vt 0.1116943 0.1256104
vt 0.1116943 0.07165527
vt 0.1116943 0.07165527
vt 0.1116943 0.1256104
vt 0.1153564 0.1256104
vt 0.1153564 0.07165527
vt 0.1153564 0.07165527
vt 0.1153564 0.1256104
vt 0.1190186 0.1256104
vt 0.1190186 0.07165527
vt 0.1190186 0.07165527
vt 0.1190186 0.1256104
vt 0.1226807 0.1256104
vt 0.1226807 0.07165527
vt 0.1226807 0.07165527
vt 0.1226807 0.1256104
vt 0.1263428 0.1256104
vt 0.1263428 0.07165527
vt 0.1257324 0.034729
vt 0.1147461 0.02676392
vt 0.1012573 0.02676392
vt 0.090271 0.034729
vt 0.1298828 0.0475769
vt 0.08612061 0.0475769
vt 0.1257324 0.06045532
vt 0.090271 0.06045532
vt 0.1147461 0.06842041
vt 0.1012573 0.06842041
vt 0.1265869 0.1618652
vt 0.1265869 0.1618652
vt 0.1150513 0.170166
vt 0.1150513 0.170166
vt 0.1150513 0.170166
vt 0.1150513 0.170166
vt 0.1008911 0.170166
vt 0.1008911 0.170166
vt 0.1008911 0.170166
vt 0.1008911 0.170166
vt 0.08947754 0.1618652
vt 0.08947754 0.1618652
vt 0.08947754 0.1618652
vt 0.08947754 0.1618652
vt 0.08508301 0.1484375
vt 0.08508301 0.1484375
vt 0.08508301 0.1484375
vt 0.08508301 0.1484375
vt 0.08947754 0.1348877
vt 0.08947754 0.1348877
vt 0.08947754 0.1348877
vt 0.08947754 0.1348877
vt 0.1008911 0.1265869
vt 0.1008911 0.1265869
vt 0.1008911 0.1265869
vt 0.1008911 0.1265869
vt 0.1150513 0.1265869
vt 0.1150513 0.1265869
vt 0.1150513 0.1265869
vt 0.1150513 0.1265869
vt 0.1265869 0.1348877
vt 0.1265869 0.1348877
vt 0.1265869 0.1348877
vt 0.1265869 0.1348877
vt 0.1308594 0.1484375
vt 0.1308594 0.1484375
vt 0.1308594 0.1484375
vt 0.1308594 0.1484375
vt 0.1265869 0.1618652
vt 0.1265869 0.1618652
vt 0.3322754 0.06451416
vt 0.3430176 0.06451416
vt 0.3430176 0.0369873
vt 0.3322754 0.0369873
vt 0.3242188 0.09197998
vt 0.3242188 0.1195068
vt 0.3518066 0.1195068
vt 0.3518066 0.09197998
vt 0.3518066 0.1451416
vt 0.3518066 0.1195068
vt 0.3242188 0.1195068
vt 0.3242188 0.1452637
vt 0.3430176 0.1469727
vt 0.3322754 0.1469727
vt 0.3537598 0.06451416
vt 0.3791504 0.06451416
vt 0.3791504 0.0369873
vt 0.3537598 0.0369873
vt 0.2966309 0.0369873
vt 0.2966309 0.06451416
vt 0.3225098 0.06451416
vt 0.3225098 0.0369873
vt 0.3242188 0.09197998
vt 0.3518066 0.09197998
vt 0.3518066 0.06640625
vt 0.3242188 0.06628418
vt 0.3430176 0.06451416
vt 0.3322754 0.06451416
vt 0.3225098 0.0369873
vt 0.3225098 0.06451416
vt 0.3322754 0.06451416
vt 0.3322754 0.0369873
vt 0.3430176 0.0369873
vt 0.3430176 0.06451416
vt 0.3537598 0.06451416
vt 0.3537598 0.0369873
vt 0.1265869 0.1618652
vt 0.1265869 0.1618652
vt 0.1150513 0.170166
vt 0.1150513 0.170166
vt 0.1308594 0.1484375
vt 0.1008911 0.170166
vt 0.1308594 0.1484375
vt 0.1008911 0.170166
vt 0.1265869 0.1348877
vt 0.08947754 0.1618652
vt 0.1265869 0.1348877
vt 0.08947754 0.1618652
vt 0.1150513 0.1265869
vt 0.08508301 0.1484375
vt 0.1150513 0.1265869
vt 0.08508301 0.1484375
vt 0.1008911 0.1265869
vt 0.08947754 0.1348877
vt 0.1008911 0.1265869
vt 0.08947754 0.1348877
vn 0 1 4.768372E-07
vn 0 1 4.768372E-07
vn 0 1 4.768372E-07
vn 0 1 4.768372E-07
vn 0 1 4.768372E-07
vn 0 1 4.768372E-07
vn 0 1 4.768372E-07
vn 0 1 4.768372E-07
vn 0 1 4.768372E-07
vn 0 1 4.768372E-07
vn 0.2946777 -0.8745117 -0.3857422
vn 0.4650879 -0.8745117 -0.1386719
vn 0.4650879 -0.8745117 -0.1386719
vn 0.2946777 -0.8745117 -0.3857422
vn 0.2946777 -0.8745117 -0.3857422
vn 0.01181793 -0.8745117 -0.4853516
vn 0.01181793 -0.8745117 -0.4853516
vn 0.2946777 -0.8745117 -0.3857422
vn 0.01181793 -0.8745117 -0.4853516
vn -0.2756348 -0.8745117 -0.3996582
vn -0.2756348 -0.8745117 -0.3996582
vn 0.01181793 -0.8745117 -0.4853516
vn -0.2756348 -0.8745117 -0.3996582
vn -0.4577637 -0.8745117 -0.1611328
vn -0.4577637 -0.8745117 -0.1612549
vn -0.2756348 -0.8745117 -0.3996582
vn -0.4577637 -0.8745117 -0.1611328
vn -0.4650879 -0.8745117 0.1386719
vn -0.4650879 -0.8745117 0.1386719
vn -0.4577637 -0.8745117 -0.1612549
vn -0.4650879 -0.8745117 0.1386719
vn -0.2946777 -0.8745117 0.3857422
vn -0.2946777 -0.8745117 0.3857422
vn -0.4650879 -0.8745117 0.1386719
vn -0.2946777 -0.8745117 0.3857422
vn -0.01181793 -0.8745117 0.4853516
vn -0.01181793 -0.8745117 0.4853516
vn -0.2946777 -0.8745117 0.3857422
vn -0.01181793 -0.8745117 0.4853516
vn 0.2756348 -0.8745117 0.3994141
vn 0.2756348 -0.8745117 0.3994141
vn -0.01181793 -0.8745117 0.4853516
vn 0.2756348 -0.8745117 0.3994141
vn 0.4577637 -0.8745117 0.1611328
vn 0.4577637 -0.8745117 0.1611328
vn 0.2756348 -0.8745117 0.3994141
vn 0.4577637 -0.8745117 0.1611328
vn 0.4650879 -0.8745117 -0.1386719
vn 0.4650879 -0.8745117 -0.1386719
vn 0.4577637 -0.8745117 0.1611328
vn 0.3320313 0 -0.9433594
vn 0.3320313 0 -0.9433594
vn 0.3320313 0 -0.9433594
vn 0.3320313 0 -0.9433594
vn -0.2858887 0 -0.9584961
vn -0.2858887 0 -0.9584961
vn -0.2858887 0 -0.9584961
vn -0.2858887 0 -0.9584961
vn -0.7944336 0 -0.6074219
vn -0.7944336 0 -0.6074219
vn -0.7944336 0 -0.6074219
vn -0.7944336 0 -0.6074219
vn -0.9995117 0 -0.02433777
vn -0.9995117 0 -0.02433777
vn -0.9995117 0 -0.02433777
vn -0.9995117 0 -0.02433777
vn -0.8232422 0 0.5678711
vn -0.8232422 0 0.5678711
vn -0.8232422 0 0.5678711
vn -0.8232422 0 0.5678711
vn -0.3320313 0 0.9433594
vn -0.3320313 0 0.9433594
vn -0.3320313 0 0.9433594
vn -0.3320313 0 0.9433594
vn 0.2858887 0 0.9584961
vn 0.2858887 0 0.9584961
vn 0.2858887 0 0.9584961
vn 0.2858887 0 0.9584961
vn 0.7944336 0 0.6074219
vn 0.7944336 0 0.6074219
vn 0.7944336 0 0.6074219
vn 0.7944336 0 0.6074219
vn 0.9995117 0 0.02433777
vn 0.9995117 0 0.02433777
vn 0.9995117 0 0.02433777
vn 0.9995117 0 0.02433777
vn 0.8232422 0 -0.5678711
vn 0.8232422 0 -0.5678711
vn 0.8232422 0 -0.5678711
vn 0.8232422 0 -0.5678711
vn 0 -1 0
vn 0 -1 0
vn 0 -1 0
vn 0 -1 0
vn 0 -1 0
vn 0 -1 0
vn 0 -1 0
vn 0 -1 0
vn 0 -1 0
vn 0 -1 0
vn -0.3320313 0 0.9433594
vn -0.3320313 0 0.9433594
vn -0.3320313 0 0.9433594
vn -0.3320313 0 0.9433594
vn 0.2858887 0 0.9584961
vn 0.2858887 0 0.9584961
vn 0.2858887 0 0.9584961
vn 0.2858887 0 0.9584961
vn 0.7944336 0 0.6074219
vn 0.7944336 0 0.6074219
vn 0.7944336 0 0.6074219
vn 0.7944336 0 0.6074219
vn 0.9995117 0 0.02433777
vn 0.9995117 0 0.02433777
vn 0.9995117 0 0.02433777
vn 0.9995117 0 0.02433777
vn 0.8232422 0 -0.5678711
vn 0.8232422 0 -0.5678711
vn 0.8232422 0 -0.5678711
vn 0.8232422 0 -0.5678711
vn 0.3320313 0 -0.9433594
vn 0.3320313 0 -0.9433594
vn 0.3320313 0 -0.9433594
vn 0.3320313 0 -0.9433594
vn -0.2858887 0 -0.9584961
vn -0.2858887 0 -0.9584961
vn -0.2858887 0 -0.9584961
vn -0.2858887 0 -0.9584961
vn -0.7944336 0 -0.6074219
vn -0.7944336 0 -0.6074219
vn -0.7944336 0 -0.6074219
vn -0.7944336 0 -0.6074219
vn -0.9995117 0 -0.02433777
vn -0.9995117 0 -0.02433777
vn -0.9995117 0 -0.02433777
vn -0.9995117 0 -0.02433777
vn -0.8232422 0 0.5678711
vn -0.8232422 0 0.5678711
vn -0.8232422 0 0.5678711
vn -0.8232422 0 0.5678711
vn 0.2858887 0 0.9584961
vn 0.2858887 0 0.9584961
vn 0.2858887 0 0.9584961
vn 0.2858887 0 0.9584961
vn -0.2858887 0 -0.9584961
vn -0.2858887 0 -0.9584961
vn -0.2858887 0 -0.9584961
vn -0.2858887 0 -0.9584961
vn 0 -1 -4.172325E-07
vn 0 -1 -4.172325E-07
vn 0 -1 -4.172325E-07
vn 0 -1 -4.172325E-07
vn 0 -1 -4.172325E-07
vn 0 -1 -4.172325E-07
vn 0.9580078 2.861023E-06 -0.2858887
vn 0.9580078 2.861023E-06 -0.2858887
vn 0.9580078 2.861023E-06 -0.2858887
vn 0.9580078 2.861023E-06 -0.2858887
vn -0.9580078 0 0.286377
vn -0.9580078 0 0.286377
vn -0.9580078 0 0.286377
vn -0.9580078 0 0.286377
vn 0 1 0
vn 0 1 0
vn 0 1 0
vn 0 1 0
vn 0 1 0
vn 0 1 0
vn -0.4414063 0 0.8974609
vn -0.4414063 0 0.8974609
vn -0.4414063 0 0.8974609
vn -0.4414063 0 0.8974609
vn 0.8974609 3.635883E-06 0.4414063
vn 0.8974609 3.635883E-06 0.4414063
vn 0.8974609 3.635883E-06 0.4414063
vn 0.8974609 3.635883E-06 0.4414063
vn 0 1 1.490116E-06
vn 0 1 1.490116E-06
vn 0 1 1.490116E-06
vn 0 1 1.490116E-06
vn 0 1 -1.490116E-06
vn 0 1 1.847744E-06
vn 0 1 -1.490116E-06
vn 0 1 1.847744E-06
vn 0 1 -2.205372E-06
vn 0 1 2.205372E-06
vn 0 1 -2.205372E-06
vn 0 1 2.205372E-06
vn 0 1 -1.847744E-06
vn 0 1 0
vn 0 1 -1.847744E-06
vn 0 1 0
vn 0 1 1.490116E-06
vn 0 1 4.410744E-06
vn 0 1 1.490116E-06
vn 0 1 4.410744E-06
g polySurface80_0
f 3/3/3 2/2/2 1/1/1
f 1/1/1 4/4/4 3/3/3
f 4/4/4 5/5/5 3/3/3
f 4/4/4 6/6/6 5/5/5
f 6/6/6 7/7/7 5/5/5
f 6/6/6 8/8/8 7/7/7
f 8/8/8 9/9/9 7/7/7
f 8/8/8 10/10/10 9/9/9
f 13/13/13 12/12/12 11/11/11
f 14/14/14 13/13/13 11/11/11
f 17/17/17 16/16/16 15/15/15
f 18/18/18 17/17/17 15/15/15
f 21/21/21 20/20/20 19/19/19
f 22/22/22 21/21/21 19/19/19
f 25/25/25 24/24/24 23/23/23
f 26/26/26 25/25/25 23/23/23
f 29/29/29 28/28/28 27/27/27
f 30/30/30 29/29/29 27/27/27
f 33/33/33 32/32/32 31/31/31
f 34/34/34 33/33/33 31/31/31
f 37/37/37 36/36/36 35/35/35
f 38/38/38 37/37/37 35/35/35
f 41/41/41 40/40/40 39/39/39
f 42/42/42 41/41/41 39/39/39
f 45/45/45 44/44/44 43/43/43
f 46/46/46 45/45/45 43/43/43
f 49/49/49 48/48/48 47/47/47
f 50/50/50 49/49/49 47/47/47
f 53/53/53 52/52/52 51/51/51
f 54/54/54 53/53/53 51/51/51
f 57/57/57 56/56/56 55/55/55
f 58/58/58 57/57/57 55/55/55
f 61/61/61 60/60/60 59/59/59
f 62/62/62 61/61/61 59/59/59
f 65/65/65 64/64/64 63/63/63
f 66/66/66 65/65/65 63/63/63
f 69/69/69 68/68/68 67/67/67
f 70/70/70 69/69/69 67/67/67
f 73/73/73 72/72/72 71/71/71
f 74/74/74 73/73/73 71/71/71
f 77/77/77 76/76/76 75/75/75
f 78/78/78 77/77/77 75/75/75
f 81/81/81 80/80/80 79/79/79
f 82/82/82 81/81/81 79/79/79
f 85/85/85 84/84/84 83/83/83
f 86/86/86 85/85/85 83/83/83
f 89/89/89 88/88/88 87/87/87
f 90/90/90 89/89/89 87/87/87
f 93/93/93 92/92/92 91/91/91
f 91/91/91 94/94/94 93/93/93
f 91/91/91 95/95/95 94/94/94
f 95/95/95 96/96/96 94/94/94
f 95/95/95 97/97/97 96/96/96
f 97/97/97 98/98/98 96/96/96
f 97/97/97 99/99/99 98/98/98
f 99/99/99 100/100/100 98/98/98
f 103/103/103 102/102/102 101/101/101
f 104/104/104 103/103/103 101/101/101
f 107/107/107 106/106/106 105/105/105
f 108/108/108 107/107/107 105/105/105
f 111/111/111 110/110/110 109/109/109
f 112/112/112 111/111/111 109/109/109
f 115/115/115 114/114/114 113/113/113
f 116/116/116 115/115/115 113/113/113
f 119/119/119 118/118/118 117/117/117
f 120/120/120 119/119/119 117/117/117
f 123/123/123 122/122/122 121/121/121
f 124/124/124 123/123/123 121/121/121
f 127/127/127 126/126/126 125/125/125
f 128/128/128 127/127/127 125/125/125
f 131/131/131 130/130/130 129/129/129
f 132/132/132 131/131/131 129/129/129
f 135/135/135 134/134/134 133/133/133
f 136/136/136 135/135/135 133/133/133
f 139/139/139 138/138/138 137/137/137
f 140/140/140 139/139/139 137/137/137
f 143/143/143 142/142/142 141/141/141
f 144/144/144 143/143/143 141/141/141
f 147/147/147 146/146/146 145/145/145
f 148/148/148 147/147/147 145/145/145
f 151/151/151 150/150/150 149/149/149
f 149/149/149 152/152/152 151/151/151
f 149/149/149 153/153/153 152/152/152
f 153/153/153 154/154/154 152/152/152
f 157/157/157 156/156/156 155/155/155
f 158/158/158 157/157/157 155/155/155
f 161/161/161 160/160/160 159/159/159
f 162/162/162 161/161/161 159/159/159
f 165/165/165 164/164/164 163/163/163
f 163/163/163 166/166/166 165/165/165
f 166/166/166 167/167/167 165/165/165
f 166/166/166 168/168/168 167/167/167
f 171/171/171 170/170/170 169/169/169
f 172/172/172 171/171/171 169/169/169
f 175/175/175 174/174/174 173/173/173
f 176/176/176 175/175/175 173/173/173
f 179/179/179 178/178/178 177/177/177
f 180/180/180 179/179/179 177/177/177
f 177/177/177 178/178/178 181/181/181
f 182/182/182 179/179/179 180/180/180
f 178/178/178 183/183/183 181/181/181
f 184/184/184 182/182/182 180/180/180
f 181/181/181 183/183/183 185/185/185
f 186/186/186 182/182/182 184/184/184
f 183/183/183 187/187/187 185/185/185
f 188/188/188 186/186/186 184/184/184
f 185/185/185 187/187/187 189/189/189
f 190/190/190 186/186/186 188/188/188
f 187/187/187 191/191/191 189/189/189
f 192/192/192 190/190/190 188/188/188
f 189/189/189 191/191/191 193/193/193
f 194/194/194 190/190/190 192/192/192
f 191/191/191 195/195/195 193/193/193
f 196/196/196 194/194/194 192/192/192
f 193/193/193 195/195/195 196/196/196
f 195/195/195 194/194/194 196/196/196
