g pSphere31
v -1.097522 0.3640916 -1.32993
v -1.082832 0.339214 -1.33808
v -1.068508 0.3639397 -1.328884
v -1.112123 0.3390463 -1.331511
v -1.082832 0.339214 -1.33808
v -1.097522 0.3640916 -1.32993
v -1.097709 0.3138492 -1.332045
v -1.082832 0.339214 -1.33808
v -1.112123 0.3390463 -1.331511
v -1.068695 0.3136973 -1.330999
v -1.082832 0.339214 -1.33808
v -1.097709 0.3138492 -1.332045
v -1.054094 0.3387425 -1.329418
v -1.082832 0.339214 -1.33808
v -1.068695 0.3136973 -1.330999
v -1.068508 0.3639397 -1.328884
v -1.082832 0.339214 -1.33808
v -1.054094 0.3387425 -1.329418
v -1.083914 0.3461241 -0.9043211
v -1.098791 0.3207593 -0.8982865
v -1.112928 0.346276 -0.9053677
v -1.112928 0.346276 -0.9053677
v -1.098791 0.3207593 -0.8982865
v -1.127529 0.3212308 -0.9069483
v -1.127529 0.3212308 -0.9069483
v -1.098791 0.3207593 -0.8982865
v -1.113115 0.2960337 -0.9074826
v -1.113115 0.2960337 -0.9074826
v -1.098791 0.3207593 -0.8982865
v -1.084101 0.2958817 -0.9064362
v -1.084101 0.2958817 -0.9064362
v -1.098791 0.3207593 -0.8982865
v -1.0695 0.320927 -0.9048554
v -1.0695 0.320927 -0.9048554
v -1.098791 0.3207593 -0.8982865
v -1.083914 0.3461241 -0.9043211
v -1.068508 0.3639397 -1.328884
v -1.057574 0.383129 -1.306278
v -1.109855 0.3834028 -1.308164
v -1.097522 0.3640916 -1.32993
v -1.097522 0.3640916 -1.32993
v -1.109855 0.3834028 -1.308164
v -1.136164 0.3382728 -1.311012
v -1.112123 0.3390463 -1.331511
v -1.112123 0.3390463 -1.331511
v -1.136164 0.3382728 -1.311012
v -1.110192 0.292869 -1.311975
v -1.097709 0.3138492 -1.332045
v -1.097709 0.3138492 -1.332045
v -1.110192 0.292869 -1.311975
v -1.05791 0.2925953 -1.310089
v -1.068695 0.3136973 -1.330999
v -1.068695 0.3136973 -1.330999
v -1.05791 0.2925953 -1.310089
v -1.031601 0.3377253 -1.307241
v -1.054094 0.3387425 -1.329418
v -1.054094 0.3387425 -1.329418
v -1.031601 0.3377253 -1.307241
v -1.057574 0.383129 -1.306278
v -1.068508 0.3639397 -1.328884
v -1.057574 0.383129 -1.306278
v -1.052195 0.3929813 -1.27474
v -1.117389 0.3933227 -1.277091
v -1.109855 0.3834028 -1.308164
v -1.109855 0.3834028 -1.308164
v -1.117389 0.3933227 -1.277091
v -1.150196 0.3370465 -1.280643
v -1.136164 0.3382728 -1.311012
v -1.136164 0.3382728 -1.311012
v -1.150196 0.3370465 -1.280643
v -1.117809 0.280429 -1.281844
v -1.110192 0.292869 -1.311975
v -1.110192 0.292869 -1.311975
v -1.117809 0.280429 -1.281844
v -1.052615 0.2800876 -1.279493
v -1.05791 0.2925953 -1.310089
v -1.05791 0.2925953 -1.310089
v -1.052615 0.2800876 -1.279493
v -1.019808 0.3363638 -1.275941
v -1.031601 0.3377253 -1.307241
v -1.031601 0.3377253 -1.307241
v -1.019808 0.3363638 -1.275941
v -1.052195 0.3929813 -1.27474
v -1.057574 0.383129 -1.306278
v -1.052195 0.3929813 -1.27474
v -1.063815 0.3795443 -0.9545224
v -1.129009 0.3798857 -0.956874
v -1.117389 0.3933227 -1.277091
v -1.117389 0.3933227 -1.277091
v -1.129009 0.3798857 -0.956874
v -1.161815 0.3236095 -0.9604257
v -1.150196 0.3370465 -1.280643
v -1.150196 0.3370465 -1.280643
v -1.161815 0.3236095 -0.9604257
v -1.129428 0.266992 -0.9616264
v -1.117809 0.280429 -1.281844
v -1.117809 0.280429 -1.281844
v -1.129428 0.266992 -0.9616264
v -1.064234 0.2666507 -0.9592751
v -1.052615 0.2800876 -1.279493
v -1.052615 0.2800876 -1.279493
v -1.064234 0.2666507 -0.9592751
v -1.031427 0.3229268 -0.955723
v -1.019808 0.3363638 -1.275941
v -1.019808 0.3363638 -1.275941
v -1.031427 0.3229268 -0.955723
v -1.063815 0.3795443 -0.9545224
v -1.052195 0.3929813 -1.27474
v -1.063815 0.3795443 -0.9545224
v -1.071431 0.3671043 -0.9243916
v -1.123713 0.367378 -0.9262772
v -1.129009 0.3798857 -0.956874
v -1.129009 0.3798857 -0.956874
v -1.123713 0.367378 -0.9262772
v -1.150022 0.322248 -0.9291256
v -1.161815 0.3236095 -0.9604257
v -1.161815 0.3236095 -0.9604257
v -1.150022 0.322248 -0.9291256
v -1.124049 0.2768443 -0.9300885
v -1.129428 0.266992 -0.9616264
v -1.129428 0.266992 -0.9616264
v -1.124049 0.2768443 -0.9300885
v -1.071768 0.2765705 -0.9282027
v -1.064234 0.2666507 -0.9592751
v -1.064234 0.2666507 -0.9592751
v -1.071768 0.2765705 -0.9282027
v -1.045459 0.3217005 -0.9253544
v -1.031427 0.3229268 -0.955723
v -1.031427 0.3229268 -0.955723
v -1.045459 0.3217005 -0.9253544
v -1.071431 0.3671043 -0.9243916
v -1.063815 0.3795443 -0.9545224
v -1.071431 0.3671043 -0.9243916
v -1.083914 0.3461241 -0.9043211
v -1.112928 0.346276 -0.9053677
v -1.123713 0.367378 -0.9262772
v -1.123713 0.367378 -0.9262772
v -1.112928 0.346276 -0.9053677
v -1.127529 0.3212308 -0.9069483
v -1.150022 0.322248 -0.9291256
v -1.150022 0.322248 -0.9291256
v -1.127529 0.3212308 -0.9069483
v -1.113115 0.2960337 -0.9074826
v -1.124049 0.2768443 -0.9300885
v -1.124049 0.2768443 -0.9300885
v -1.113115 0.2960337 -0.9074826
v -1.084101 0.2958817 -0.9064362
v -1.071768 0.2765705 -0.9282027
v -1.071768 0.2765705 -0.9282027
v -1.084101 0.2958817 -0.9064362
v -1.0695 0.320927 -0.9048554
v -1.045459 0.3217005 -0.9253544
v -1.045459 0.3217005 -0.9253544
v -1.0695 0.320927 -0.9048554
v -1.083914 0.3461241 -0.9043211
v -1.071431 0.3671043 -0.9243916
vt 0.166626 0.1428223
vt 0.08331299 0
vt 0 0.1428223
vt 0.333252 0.1428223
vt 0.25 0
vt 0.166626 0.1428223
vt 0.5 0.1428223
vt 0.416748 0
vt 0.333252 0.1428223
vt 0.6665039 0.1428223
vt 0.5834961 0
vt 0.5 0.1428223
vt 0.8334961 0.1428223
vt 0.75 0
vt 0.6665039 0.1428223
vt 1 0.1428223
vt 0.9165039 0
vt 0.8334961 0.1428223
vt 0 0.8569336
vt 0.08331299 1
vt 0.166626 0.8569336
vt 0.166626 0.8569336
vt 0.25 1
vt 0.333252 0.8569336
vt 0.333252 0.8569336
vt 0.416748 1
vt 0.5 0.8569336
vt 0.5 0.8569336
vt 0.5834961 1
vt 0.6665039 0.8569336
vt 0.6665039 0.8569336
vt 0.75 1
vt 0.8334961 0.8569336
vt 0.8334961 0.8569336
vt 0.9165039 1
vt 1 0.8569336
vt 0 0.1428223
vt 0 0.2856445
vt 0.166626 0.2856445
vt 0.166626 0.1428223
vt 0.166626 0.1428223
vt 0.166626 0.2856445
vt 0.333252 0.2856445
vt 0.333252 0.1428223
vt 0.333252 0.1428223
vt 0.333252 0.2856445
vt 0.5 0.2856445
vt 0.5 0.1428223
vt 0.5 0.1428223
vt 0.5 0.2856445
vt 0.6665039 0.2856445
vt 0.6665039 0.1428223
vt 0.6665039 0.1428223
vt 0.6665039 0.2856445
vt 0.8334961 0.2856445
vt 0.8334961 0.1428223
vt 0.8334961 0.1428223
vt 0.8334961 0.2856445
vt 1 0.2856445
vt 1 0.1428223
vt 0 0.2856445
vt 0 0.4284668
vt 0.166626 0.4284668
vt 0.166626 0.2856445
vt 0.166626 0.2856445
vt 0.166626 0.4284668
vt 0.333252 0.4284668
vt 0.333252 0.2856445
vt 0.333252 0.2856445
vt 0.333252 0.4284668
vt 0.5 0.4284668
vt 0.5 0.2856445
vt 0.5 0.2856445
vt 0.5 0.4284668
vt 0.6665039 0.4284668
vt 0.6665039 0.2856445
vt 0.6665039 0.2856445
vt 0.6665039 0.4284668
vt 0.8334961 0.4284668
vt 0.8334961 0.2856445
vt 0.8334961 0.2856445
vt 0.8334961 0.4284668
vt 1 0.4284668
vt 1 0.2856445
vt 0 0.4284668
vt 0 0.5712891
vt 0.166626 0.5712891
vt 0.166626 0.4284668
vt 0.166626 0.4284668
vt 0.166626 0.5712891
vt 0.333252 0.5712891
vt 0.333252 0.4284668
vt 0.333252 0.4284668
vt 0.333252 0.5712891
vt 0.5 0.5712891
vt 0.5 0.4284668
vt 0.5 0.4284668
vt 0.5 0.5712891
vt 0.6665039 0.5712891
vt 0.6665039 0.4284668
vt 0.6665039 0.4284668
vt 0.6665039 0.5712891
vt 0.8334961 0.5712891
vt 0.8334961 0.4284668
vt 0.8334961 0.4284668
vt 0.8334961 0.5712891
vt 1 0.5712891
vt 1 0.4284668
vt 0 0.5712891
vt 0 0.7143555
vt 0.166626 0.7143555
vt 0.166626 0.5712891
vt 0.166626 0.5712891
vt 0.166626 0.7143555
vt 0.333252 0.7143555
vt 0.333252 0.5712891
vt 0.333252 0.5712891
vt 0.333252 0.7143555
vt 0.5 0.7143555
vt 0.5 0.5712891
vt 0.5 0.5712891
vt 0.5 0.7143555
vt 0.6665039 0.7143555
vt 0.6665039 0.5712891
vt 0.6665039 0.5712891
vt 0.6665039 0.7143555
vt 0.8334961 0.7143555
vt 0.8334961 0.5712891
vt 0.8334961 0.5712891
vt 0.8334961 0.7143555
vt 1 0.7143555
vt 1 0.5712891
vt 0 0.7143555
vt 0 0.8569336
vt 0.166626 0.8569336
vt 0.166626 0.7143555
vt 0.166626 0.7143555
vt 0.166626 0.8569336
vt 0.333252 0.8569336
vt 0.333252 0.7143555
vt 0.333252 0.7143555
vt 0.333252 0.8569336
vt 0.5 0.8569336
vt 0.5 0.7143555
vt 0.5 0.7143555
vt 0.5 0.8569336
vt 0.6665039 0.8569336
vt 0.6665039 0.7143555
vt 0.6665039 0.7143555
vt 0.6665039 0.8569336
vt 0.8334961 0.8569336
vt 0.8334961 0.7143555
vt 0.8334961 0.7143555
vt 0.8334961 0.8569336
vt 1 0.8569336
vt 1 0.7143555
vn 0.03574789 0.3301179 -0.9432625
vn 0.03574789 0.3301179 -0.9432625
vn 0.03574789 0.3301179 -0.9432625
vn -0.21602 0.1864235 -0.9584267
vn -0.2160201 0.1864235 -0.9584267
vn -0.21602 0.1864235 -0.9584267
vn -0.2170935 -0.1036055 -0.970637
vn -0.2170935 -0.1036055 -0.970637
vn -0.2170935 -0.1036055 -0.970637
vn 0.03359761 -0.2499303 -0.9676808
vn 0.03359761 -0.2499303 -0.9676808
vn 0.03359761 -0.2499303 -0.9676808
vn 0.2853581 -0.1062373 -0.9525148
vn 0.2853581 -0.1062373 -0.9525148
vn 0.2853582 -0.1062373 -0.9525148
vn 0.2864333 0.1837948 -0.9403061
vn 0.2864332 0.1837948 -0.9403061
vn 0.2864332 0.1837948 -0.9403061
vn -0.03360384 0.2499317 0.9676802
vn -0.03360384 0.2499317 0.9676801
vn -0.03360384 0.2499317 0.9676802
vn -0.2853467 0.1062377 0.9525181
vn -0.2853467 0.1062377 0.9525181
vn -0.2853467 0.1062377 0.9525181
vn -0.2864334 -0.1837887 0.9403073
vn -0.2864334 -0.1837887 0.9403073
vn -0.2864334 -0.1837887 0.9403071
vn -0.03574169 -0.3301136 0.9432643
vn -0.03574169 -0.3301136 0.9432643
vn -0.03574169 -0.3301136 0.9432643
vn 0.2160127 -0.1864202 0.9584289
vn 0.2160127 -0.1864202 0.9584289
vn 0.2160127 -0.1864202 0.9584289
vn 0.2170887 0.1036029 0.9706383
vn 0.2170887 0.1036029 0.9706383
vn 0.2170887 0.1036029 0.9706383
vn 0.0275646 0.755456 -0.6546193
vn 0.0275646 0.7554559 -0.6546194
vn 0.0275646 0.755456 -0.6546193
vn 0.0275646 0.755456 -0.6546193
vn -0.603272 0.3954017 -0.6926184
vn -0.603272 0.3954017 -0.6926184
vn -0.603272 0.3954018 -0.6926185
vn -0.603272 0.3954017 -0.6926184
vn -0.6059742 -0.3313052 -0.7232096
vn -0.6059742 -0.3313052 -0.7232097
vn -0.6059742 -0.3313052 -0.7232096
vn -0.6059742 -0.3313052 -0.7232097
vn 0.02216011 -0.6979499 -0.7158036
vn 0.02216011 -0.6979499 -0.7158036
vn 0.02216011 -0.6979499 -0.7158036
vn 0.02216011 -0.6979499 -0.7158036
vn 0.6530004 -0.3378945 -0.6778036
vn 0.6530005 -0.3378945 -0.6778037
vn 0.6530004 -0.3378945 -0.6778036
vn 0.6530004 -0.3378945 -0.6778036
vn 0.6557027 0.3888095 -0.6472103
vn 0.6557027 0.3888095 -0.6472104
vn 0.6557027 0.3888095 -0.6472103
vn 0.6557027 0.3888095 -0.6472103
vn 0.01583486 0.9536173 -0.3006049
vn 0.01583486 0.9536173 -0.3006048
vn 0.01583486 0.9536173 -0.3006049
vn 0.01583486 0.9536173 -0.3006049
vn -0.7995927 0.4882051 -0.3497248
vn -0.7995927 0.4882051 -0.3497248
vn -0.7995927 0.4882051 -0.3497248
vn -0.7995927 0.4882051 -0.3497248
vn -0.8030853 -0.4511371 -0.3892678
vn -0.8030853 -0.4511371 -0.3892677
vn -0.8030853 -0.4511371 -0.3892678
vn -0.8030853 -0.4511371 -0.3892677
vn 0.008850757 -0.9250703 -0.3796927
vn 0.008850757 -0.9250703 -0.3796927
vn 0.008850759 -0.9250703 -0.3796927
vn 0.008850757 -0.9250703 -0.3796927
vn 0.8242793 -0.4596574 -0.3305735
vn 0.8242792 -0.4596573 -0.3305735
vn 0.8242793 -0.4596573 -0.3305735
vn 0.8242793 -0.4596574 -0.3305735
vn 0.8277708 0.4796842 -0.2910301
vn 0.8277708 0.4796842 -0.2910302
vn 0.8277708 0.4796842 -0.2910302
vn 0.8277708 0.4796842 -0.2910301
vn 0.003714179 0.9991081 0.04205931
vn 0.003714179 0.9991081 0.04205931
vn 0.003714179 0.9991081 0.04205931
vn 0.003714179 0.9991081 0.04205932
vn -0.8635939 0.5040852 -0.01018431
vn -0.8635939 0.5040852 -0.01018431
vn -0.8635939 0.5040852 -0.01018431
vn -0.8635939 0.5040852 -0.01018431
vn -0.867307 -0.4950245 -0.05224368
vn -0.867307 -0.4950244 -0.05224368
vn -0.867307 -0.4950245 -0.05224368
vn -0.867307 -0.4950245 -0.05224368
vn -0.003713602 -0.9991081 -0.04205935
vn -0.003713602 -0.9991081 -0.04205936
vn -0.003713602 -0.9991081 -0.04205936
vn -0.003713602 -0.9991081 -0.04205936
vn 0.8635939 -0.5040851 0.01018436
vn 0.8635939 -0.5040851 0.01018436
vn 0.8635939 -0.5040852 0.01018436
vn 0.8635939 -0.5040851 0.01018436
vn 0.8673067 0.4950248 0.05224365
vn 0.8673067 0.4950249 0.05224365
vn 0.8673067 0.4950249 0.05224365
vn 0.8673067 0.4950248 0.05224365
vn -0.008851977 0.9250698 0.3796941
vn -0.008851976 0.9250698 0.3796941
vn -0.008851976 0.9250698 0.3796941
vn -0.008851976 0.9250698 0.3796941
vn -0.8242779 0.4596594 0.330574
vn -0.8242779 0.4596594 0.330574
vn -0.8242779 0.4596594 0.3305741
vn -0.8242779 0.4596594 0.3305741
vn -0.8277693 -0.4796869 0.2910301
vn -0.8277693 -0.4796868 0.2910301
vn -0.8277693 -0.4796868 0.2910301
vn -0.8277693 -0.4796869 0.2910301
vn -0.01583489 -0.9536166 0.3006068
vn -0.01583489 -0.9536166 0.3006068
vn -0.01583489 -0.9536166 0.3006068
vn -0.01583489 -0.9536166 0.3006068
vn 0.7995902 -0.4882089 0.3497251
vn 0.7995901 -0.4882088 0.3497251
vn 0.7995901 -0.4882088 0.3497251
vn 0.7995901 -0.4882089 0.3497251
vn 0.8030852 0.4511374 0.3892676
vn 0.8030852 0.4511374 0.3892676
vn 0.8030852 0.4511374 0.3892676
vn 0.8030852 0.4511374 0.3892676
vn -0.02216215 0.697951 0.7158026
vn -0.02216215 0.6979508 0.7158026
vn -0.02216214 0.6979508 0.7158026
vn -0.02216215 0.697951 0.7158026
vn -0.6530018 0.3378952 0.677802
vn -0.6530018 0.3378952 0.677802
vn -0.6530018 0.3378952 0.6778019
vn -0.6530018 0.3378951 0.677802
vn -0.6557055 -0.388806 0.6472095
vn -0.6557055 -0.388806 0.6472095
vn -0.6557055 -0.388806 0.6472095
vn -0.6557055 -0.388806 0.6472095
vn -0.02756447 -0.7554585 0.6546163
vn -0.02756447 -0.7554585 0.6546164
vn -0.02756447 -0.7554585 0.6546163
vn -0.02756447 -0.7554585 0.6546163
vn 0.6032763 -0.3954013 0.692615
vn 0.6032763 -0.3954013 0.692615
vn 0.6032761 -0.3954013 0.6926151
vn 0.6032761 -0.3954013 0.6926151
vn 0.6059768 0.3313021 0.7232088
vn 0.6059768 0.3313021 0.7232088
vn 0.6059768 0.3313021 0.7232088
vn 0.6059768 0.3313021 0.7232088
g pSphere31_0
f 3/3/3 2/2/2 1/1/1
f 6/6/6 5/5/5 4/4/4
f 9/9/9 8/8/8 7/7/7
f 12/12/12 11/11/11 10/10/10
f 15/15/15 14/14/14 13/13/13
f 18/18/18 17/17/17 16/16/16
f 21/21/21 20/20/20 19/19/19
f 24/24/24 23/23/23 22/22/22
f 27/27/27 26/26/26 25/25/25
f 30/30/30 29/29/29 28/28/28
f 33/33/33 32/32/32 31/31/31
f 36/36/36 35/35/35 34/34/34
f 39/39/39 38/38/38 37/37/37
f 40/40/40 39/39/39 37/37/37
f 43/43/43 42/42/42 41/41/41
f 44/44/44 43/43/43 41/41/41
f 47/47/47 46/46/46 45/45/45
f 48/48/48 47/47/47 45/45/45
f 51/51/51 50/50/50 49/49/49
f 52/52/52 51/51/51 49/49/49
f 55/55/55 54/54/54 53/53/53
f 56/56/56 55/55/55 53/53/53
f 59/59/59 58/58/58 57/57/57
f 60/60/60 59/59/59 57/57/57
f 63/63/63 62/62/62 61/61/61
f 64/64/64 63/63/63 61/61/61
f 67/67/67 66/66/66 65/65/65
f 68/68/68 67/67/67 65/65/65
f 71/71/71 70/70/70 69/69/69
f 72/72/72 71/71/71 69/69/69
f 75/75/75 74/74/74 73/73/73
f 76/76/76 75/75/75 73/73/73
f 79/79/79 78/78/78 77/77/77
f 80/80/80 79/79/79 77/77/77
f 83/83/83 82/82/82 81/81/81
f 84/84/84 83/83/83 81/81/81
f 87/87/87 86/86/86 85/85/85
f 88/88/88 87/87/87 85/85/85
f 91/91/91 90/90/90 89/89/89
f 92/92/92 91/91/91 89/89/89
f 95/95/95 94/94/94 93/93/93
f 96/96/96 95/95/95 93/93/93
f 99/99/99 98/98/98 97/97/97
f 100/100/100 99/99/99 97/97/97
f 103/103/103 102/102/102 101/101/101
f 104/104/104 103/103/103 101/101/101
f 107/107/107 106/106/106 105/105/105
f 108/108/108 107/107/107 105/105/105
f 111/111/111 110/110/110 109/109/109
f 112/112/112 111/111/111 109/109/109
f 115/115/115 114/114/114 113/113/113
f 116/116/116 115/115/115 113/113/113
f 119/119/119 118/118/118 117/117/117
f 120/120/120 119/119/119 117/117/117
f 123/123/123 122/122/122 121/121/121
f 124/124/124 123/123/123 121/121/121
f 127/127/127 126/126/126 125/125/125
f 128/128/128 127/127/127 125/125/125
f 131/131/131 130/130/130 129/129/129
f 132/132/132 131/131/131 129/129/129
f 135/135/135 134/134/134 133/133/133
f 136/136/136 135/135/135 133/133/133
f 139/139/139 138/138/138 137/137/137
f 140/140/140 139/139/139 137/137/137
f 143/143/143 142/142/142 141/141/141
f 144/144/144 143/143/143 141/141/141
f 147/147/147 146/146/146 145/145/145
f 148/148/148 147/147/147 145/145/145
f 151/151/151 150/150/150 149/149/149
f 152/152/152 151/151/151 149/149/149
f 155/155/155 154/154/154 153/153/153
f 156/156/156 155/155/155 153/153/153
