g pSphere42
v 7.724962 11.82115 -0.4123058
v 7.736675 11.85911 -0.4173387
v 7.727972 11.83517 -0.4482309
v 7.695723 11.79388 -0.410152
v 7.700935 11.81815 -0.4723761
v 7.676256 11.78924 -0.4108035
v 7.681872 11.81539 -0.4778406
v 7.297841 11.81621 -0.5159912
v 7.692901 11.8358 -0.3579712
v 7.673216 11.8344 -0.3545853
v 7.291207 11.78532 -0.4367876
v 7.723333 11.84535 -0.382179
v 7.736675 11.85911 -0.4173387
v 7.268642 11.79193 -0.4393926
v 7.2748 11.82061 -0.5129098
v 7.236485 11.82582 -0.4468778
v 7.24004 11.84238 -0.4893228
v 7.225906 11.87127 -0.4546325
v 7.234559 11.85441 -0.4112832
v 7.225906 11.87127 -0.4546325
v 7.265308 11.84146 -0.3777416
v 7.287614 11.83868 -0.3703664
v 7.67579 11.90571 -0.3654053
v 7.236189 11.89957 -0.4181337
v 7.225906 11.87127 -0.4546325
v 7.268132 11.91967 -0.3896064
v 7.695291 11.90199 -0.3680135
v 7.290656 11.92294 -0.3831501
v 7.239745 11.91612 -0.4605787
v 7.225906 11.87127 -0.4546325
v 7.27429 11.94835 -0.4631235
v 7.681406 11.93186 -0.4324424
v 7.724713 11.88357 -0.3879772
v 7.736675 11.85911 -0.4173387
v 7.700503 11.92626 -0.4302377
v 7.297291 11.95383 -0.4623537
v 7.241671 11.88753 -0.4961733
v 7.225906 11.87127 -0.4546325
v 7.277624 11.89882 -0.5247746
v 7.684446 11.8867 -0.4886601
v 7.727723 11.89758 -0.4239022
v 7.736675 11.85911 -0.4173387
v 7.24004 11.84238 -0.4893228
v 7.225906 11.87127 -0.4546325
v 7.2748 11.82061 -0.5129098
v 7.300883 11.90047 -0.5287742
v 7.297841 11.81621 -0.5159912
v 7.681872 11.81539 -0.4778406
v 7.703324 11.88434 -0.4824184
v 7.700935 11.81815 -0.4723761
v 7.729352 11.87338 -0.454029
v 7.736675 11.85911 -0.4173387
v 7.727972 11.83517 -0.4482309
v 7.736675 11.85911 -0.4173387
vt 0.166626 0.166626
vt 0.08331299 0
vt 0 0.166626
vt 0.166626 0.333252
vt 0 0.333252
vt 0.166626 0.416748
vt 7.152557E-07 0.416748
vt 2.980232E-07 0.5834961
vt 0.333252 0.333252
vt 0.333252 0.416748
vt 0.166626 0.5834961
vt 0.333252 0.166626
vt 0.25 0
vt 0.166626 0.6665039
vt 0 0.6665039
vt 0.166626 0.8334961
vt 0 0.8334961
vt 0.08331299 1
vt 0.333252 0.8334961
vt 0.25 1
vt 0.333252 0.6665039
vt 0.333252 0.5834961
vt 0.5 0.416748
vt 0.5 0.8334961
vt 0.416748 1
vt 0.5 0.6665039
vt 0.5 0.333252
vt 0.5 0.5834961
vt 0.6665039 0.8334961
vt 0.5834961 1
vt 0.6665039 0.6665039
vt 0.6665039 0.416748
vt 0.5 0.166626
vt 0.416748 0
vt 0.6665039 0.333252
vt 0.6665039 0.5834961
vt 0.8334961 0.8334961
vt 0.75 1
vt 0.8334961 0.6665039
vt 0.8334961 0.416748
vt 0.6665039 0.166626
vt 0.5834961 0
vt 1 0.8334961
vt 0.9165039 1
vt 1 0.6665039
vt 0.8334961 0.5834961
vt 1 0.5834961
vt 1 0.416748
vt 0.8334961 0.333252
vt 1 0.333252
vt 0.8334961 0.166626
vt 0.75 0
vt 1 0.166626
vt 0.9165039 0
vn 0.739785 -0.655212 0.1530214
vn 0.996962 -0.02478233 0.07384046
vn 0.789882 -0.4219075 -0.4450622
vn 0.4766463 -0.8631601 0.1666223
vn 0.5436186 -0.5512543 -0.6329278
vn 0.008738233 -0.9882348 0.1526947
vn 0.08476721 -0.6257635 -0.7753931
vn 0.05940855 -0.6265357 -0.7771252
vn 0.440374 -0.3245073 0.8371176
vn -0.03317197 -0.3628436 0.9312595
vn -0.01668306 -0.9882962 0.1516318
vn 0.7126648 -0.2522737 0.6545739
vn 0.996962 -0.02478233 0.07384046
vn -0.5380577 -0.8379302 0.09147082
vn -0.4710792 -0.5260335 -0.7080771
vn -0.7857424 -0.6172568 0.04003648
vn -0.7356473 -0.3839521 -0.5580356
vn -0.9969615 0.02478792 -0.07384544
vn -0.8128691 -0.2143335 0.5415764
vn -0.9969615 0.02478792 -0.07384544
vn -0.5743214 -0.299281 0.7619619
vn -0.05858038 -0.3629549 0.9299636
vn 0.0009896881 0.6245445 0.7809886
vn -0.7898993 0.4218924 0.4450459
vn -0.9969615 0.02478792 -0.07384544
vn -0.5436139 0.5512681 0.6329198
vn 0.4710751 0.5260412 0.7080741
vn -0.02444023 0.6247343 0.7804548
vn -0.7398025 0.6551922 -0.1530211
vn -0.9969615 0.02478792 -0.07384544
vn -0.4766305 0.8631683 -0.1666245
vn 0.07699569 0.9861253 -0.1470661
vn 0.7356312 0.3839579 0.558053
vn 0.996962 -0.02478233 0.07384046
vn 0.538056 0.8379318 -0.09146593
vn 0.05168087 0.9875827 -0.1483553
vn -0.7126726 0.2522739 -0.6545653
vn -0.9969615 0.02478792 -0.07384544
vn -0.4403622 0.32452 -0.8371189
vn 0.1188622 0.3612111 -0.9248775
vn 0.7857375 0.6172633 -0.04003217
vn 0.996962 -0.02478233 0.07384046
vn -0.7356473 -0.3839521 -0.5580356
vn -0.9969615 0.02478792 -0.07384544
vn -0.4710792 -0.5260335 -0.7080771
vn 0.09363141 0.3616557 -0.9275981
vn 0.05940855 -0.6265357 -0.7771252
vn 0.08476721 -0.6257635 -0.7753931
vn 0.5743189 0.2992735 -0.7619666
vn 0.5436186 -0.5512543 -0.6329278
vn 0.8128532 0.2143356 -0.5415993
vn 0.996962 -0.02478233 0.07384046
vn 0.789882 -0.4219075 -0.4450622
vn 0.996962 -0.02478233 0.07384046
g pSphere42_0
f 3/3/3 2/2/2 1/1/1
f 1/1/1 4/4/4 3/3/3
f 4/4/4 5/5/5 3/3/3
f 4/4/4 6/6/6 5/5/5
f 6/6/6 7/7/7 5/5/5
f 7/7/7 6/6/6 8/8/8
f 9/9/9 4/4/4 1/1/1
f 10/10/10 6/6/6 4/4/4
f 9/9/9 10/10/10 4/4/4
f 6/6/6 11/11/11 8/8/8
f 6/6/6 10/10/10 11/11/11
f 12/12/12 9/9/9 1/1/1
f 1/1/1 13/13/13 12/12/12
f 11/11/11 14/14/14 8/8/8
f 14/14/14 15/15/15 8/8/8
f 14/14/14 16/16/16 15/15/15
f 16/16/16 17/17/17 15/15/15
f 16/16/16 18/18/18 17/17/17
f 19/19/19 16/16/16 14/14/14
f 19/19/19 20/20/20 16/16/16
f 21/21/21 14/14/14 11/11/11
f 21/21/21 19/19/19 14/14/14
f 10/10/10 22/22/22 11/11/11
f 22/22/22 21/21/21 11/11/11
f 23/23/23 10/10/10 9/9/9
f 10/10/10 23/23/23 22/22/22
f 24/24/24 19/19/19 21/21/21
f 24/24/24 25/25/25 19/19/19
f 26/26/26 21/21/21 22/22/22
f 26/26/26 24/24/24 21/21/21
f 27/27/27 23/23/23 9/9/9
f 27/27/27 9/9/9 12/12/12
f 23/23/23 28/28/28 22/22/22
f 28/28/28 26/26/26 22/22/22
f 29/29/29 24/24/24 26/26/26
f 29/29/29 30/30/30 24/24/24
f 31/31/31 29/29/29 26/26/26
f 31/31/31 26/26/26 28/28/28
f 23/23/23 32/32/32 28/28/28
f 32/32/32 23/23/23 27/27/27
f 33/33/33 27/27/27 12/12/12
f 12/12/12 34/34/34 33/33/33
f 35/35/35 27/27/27 33/33/33
f 35/35/35 32/32/32 27/27/27
f 32/32/32 36/36/36 28/28/28
f 36/36/36 31/31/31 28/28/28
f 37/37/37 29/29/29 31/31/31
f 37/37/37 38/38/38 29/29/29
f 39/39/39 37/37/37 31/31/31
f 39/39/39 31/31/31 36/36/36
f 32/32/32 40/40/40 36/36/36
f 40/40/40 32/32/32 35/35/35
f 41/41/41 35/35/35 33/33/33
f 33/33/33 42/42/42 41/41/41
f 43/43/43 37/37/37 39/39/39
f 43/43/43 44/44/44 37/37/37
f 45/45/45 43/43/43 39/39/39
f 46/46/46 39/39/39 36/36/36
f 45/45/45 39/39/39 46/46/46
f 40/40/40 46/46/46 36/36/36
f 47/47/47 45/45/45 46/46/46
f 47/47/47 46/46/46 48/48/48
f 46/46/46 40/40/40 48/48/48
f 49/49/49 40/40/40 35/35/35
f 48/48/48 40/40/40 49/49/49
f 49/49/49 35/35/35 41/41/41
f 50/50/50 48/48/48 49/49/49
f 51/51/51 49/49/49 41/41/41
f 50/50/50 49/49/49 51/51/51
f 41/41/41 52/52/52 51/51/51
f 53/53/53 50/50/50 51/51/51
f 51/51/51 54/54/54 53/53/53
