g pSphere32
v -1.046317 0.5213418 -0.740052
v -1.03073 0.4990044 -0.7524376
v -1.017396 0.5212398 -0.7375003
v -1.06027 0.497168 -0.7480437
v -1.03073 0.4990044 -0.7524376
v -1.046317 0.5213418 -0.740052
v -1.045303 0.4728921 -0.7534837
v -1.03073 0.4990044 -0.7524376
v -1.06027 0.497168 -0.7480437
v -1.016382 0.4727901 -0.7509319
v -1.03073 0.4990044 -0.7524376
v -1.045303 0.4728921 -0.7534837
v -1.002429 0.4969639 -0.7429402
v -1.03073 0.4990044 -0.7524376
v -1.016382 0.4727901 -0.7509319
v -1.017396 0.5212398 -0.7375003
v -1.03073 0.4990044 -0.7524376
v -1.002429 0.4969639 -0.7429402
v -1.064842 0.3728122 -0.2056867
v -1.079415 0.3466999 -0.2067327
v -1.093763 0.3729143 -0.2082384
v -1.093763 0.3729143 -0.2082384
v -1.079415 0.3466999 -0.2067327
v -1.107716 0.3487404 -0.2162301
v -1.107716 0.3487404 -0.2162301
v -1.079415 0.3466999 -0.2067327
v -1.092749 0.3244645 -0.22167
v -1.092749 0.3244645 -0.22167
v -1.079415 0.3466999 -0.2067327
v -1.063828 0.3243625 -0.2191184
v -1.063828 0.3243625 -0.2191184
v -1.079415 0.3466999 -0.2067327
v -1.049875 0.3485364 -0.2111267
v -1.049875 0.3485364 -0.2111267
v -1.079415 0.3466999 -0.2067327
v -1.064842 0.3728122 -0.2056867
v -1.017396 0.5212398 -0.7375003
v -1.007943 0.5351941 -0.7116302
v -1.060056 0.5353779 -0.7162282
v -1.046317 0.5213418 -0.740052
v -1.046317 0.5213418 -0.740052
v -1.060056 0.5353779 -0.7162282
v -1.085199 0.4918182 -0.7306287
v -1.06027 0.497168 -0.7480437
v -1.06027 0.497168 -0.7480437
v -1.085199 0.4918182 -0.7306287
v -1.058229 0.4480746 -0.7404312
v -1.045303 0.4728921 -0.7534837
v -1.045303 0.4728921 -0.7534837
v -1.058229 0.4480746 -0.7404312
v -1.006115 0.4478908 -0.7358332
v -1.016382 0.4727901 -0.7509319
v -1.016382 0.4727901 -0.7509319
v -1.006115 0.4478908 -0.7358332
v -0.9809722 0.4914505 -0.7214327
v -1.002429 0.4969639 -0.7429402
v -1.002429 0.4969639 -0.7429402
v -0.9809722 0.4914505 -0.7214327
v -1.007943 0.5351941 -0.7116302
v -1.017396 0.5212398 -0.7375003
v -1.007943 0.5351941 -0.7116302
v -1.004242 0.5381036 -0.6799513
v -1.069226 0.5383329 -0.6856849
v -1.060056 0.5353779 -0.7162282
v -1.060056 0.5353779 -0.7162282
v -1.069226 0.5383329 -0.6856849
v -1.100579 0.4840148 -0.7036421
v -1.085199 0.4918182 -0.7306287
v -1.085199 0.4918182 -0.7306287
v -1.100579 0.4840148 -0.7036421
v -1.066948 0.4294675 -0.7158656
v -1.058229 0.4480746 -0.7404312
v -1.058229 0.4480746 -0.7404312
v -1.066948 0.4294675 -0.7158656
v -1.001963 0.4292382 -0.7101319
v -1.006115 0.4478908 -0.7358332
v -1.006115 0.4478908 -0.7358332
v -1.001963 0.4292382 -0.7101319
v -0.9706102 0.4835562 -0.6921748
v -0.9809722 0.4914505 -0.7214327
v -0.9809722 0.4914505 -0.7214327
v -0.9706102 0.4835562 -0.6921748
v -1.004242 0.5381036 -0.6799513
v -1.007943 0.5351941 -0.7116302
v -1.004242 0.5381036 -0.6799513
v -1.043198 0.4162368 -0.2433047
v -1.108182 0.4164662 -0.2490384
v -1.069226 0.5383329 -0.6856849
v -1.069226 0.5383329 -0.6856849
v -1.108182 0.4164662 -0.2490384
v -1.139535 0.3621481 -0.2669955
v -1.100579 0.4840148 -0.7036421
v -1.100579 0.4840148 -0.7036421
v -1.139535 0.3621481 -0.2669955
v -1.105903 0.3076008 -0.2792191
v -1.066948 0.4294675 -0.7158656
v -1.066948 0.4294675 -0.7158656
v -1.105903 0.3076008 -0.2792191
v -1.040919 0.3073715 -0.2734854
v -1.001963 0.4292382 -0.7101319
v -1.001963 0.4292382 -0.7101319
v -1.040919 0.3073715 -0.2734854
v -1.009566 0.3616895 -0.2555282
v -0.9706102 0.4835562 -0.6921748
v -0.9706102 0.4835562 -0.6921748
v -1.009566 0.3616895 -0.2555282
v -1.043198 0.4162368 -0.2433047
v -1.004242 0.5381036 -0.6799513
v -1.043198 0.4162368 -0.2433047
v -1.051916 0.3976297 -0.2187391
v -1.10403 0.3978136 -0.223337
v -1.108182 0.4164662 -0.2490384
v -1.108182 0.4164662 -0.2490384
v -1.10403 0.3978136 -0.223337
v -1.129173 0.3542539 -0.2377375
v -1.139535 0.3621481 -0.2669955
v -1.139535 0.3621481 -0.2669955
v -1.129173 0.3542539 -0.2377375
v -1.102202 0.3105102 -0.2475401
v -1.105903 0.3076008 -0.2792191
v -1.105903 0.3076008 -0.2792191
v -1.102202 0.3105102 -0.2475401
v -1.050089 0.3103264 -0.2429421
v -1.040919 0.3073715 -0.2734854
v -1.040919 0.3073715 -0.2734854
v -1.050089 0.3103264 -0.2429421
v -1.024946 0.3538861 -0.2285416
v -1.009566 0.3616895 -0.2555282
v -1.009566 0.3616895 -0.2555282
v -1.024946 0.3538861 -0.2285416
v -1.051916 0.3976297 -0.2187391
v -1.043198 0.4162368 -0.2433047
v -1.051916 0.3976297 -0.2187391
v -1.064842 0.3728122 -0.2056867
v -1.093763 0.3729143 -0.2082384
v -1.10403 0.3978136 -0.223337
v -1.10403 0.3978136 -0.223337
v -1.093763 0.3729143 -0.2082384
v -1.107716 0.3487404 -0.2162301
v -1.129173 0.3542539 -0.2377375
v -1.129173 0.3542539 -0.2377375
v -1.107716 0.3487404 -0.2162301
v -1.092749 0.3244645 -0.22167
v -1.102202 0.3105102 -0.2475401
v -1.102202 0.3105102 -0.2475401
v -1.092749 0.3244645 -0.22167
v -1.063828 0.3243625 -0.2191184
v -1.050089 0.3103264 -0.2429421
v -1.050089 0.3103264 -0.2429421
v -1.063828 0.3243625 -0.2191184
v -1.049875 0.3485364 -0.2111267
v -1.024946 0.3538861 -0.2285416
v -1.024946 0.3538861 -0.2285416
v -1.049875 0.3485364 -0.2111267
v -1.064842 0.3728122 -0.2056867
v -1.051916 0.3976297 -0.2187391
vt 0.166626 0.1428223
vt 0.08331299 0
vt 0 0.1428223
vt 0.333252 0.1428223
vt 0.25 0
vt 0.166626 0.1428223
vt 0.5 0.1428223
vt 0.416748 0
vt 0.333252 0.1428223
vt 0.6665039 0.1428223
vt 0.5834961 0
vt 0.5 0.1428223
vt 0.8334961 0.1428223
vt 0.75 0
vt 0.6665039 0.1428223
vt 1 0.1428223
vt 0.9165039 0
vt 0.8334961 0.1428223
vt 0 0.8569336
vt 0.08331299 1
vt 0.166626 0.8569336
vt 0.166626 0.8569336
vt 0.25 1
vt 0.333252 0.8569336
vt 0.333252 0.8569336
vt 0.416748 1
vt 0.5 0.8569336
vt 0.5 0.8569336
vt 0.5834961 1
vt 0.6665039 0.8569336
vt 0.6665039 0.8569336
vt 0.75 1
vt 0.8334961 0.8569336
vt 0.8334961 0.8569336
vt 0.9165039 1
vt 1 0.8569336
vt 0 0.1428223
vt 0 0.2856445
vt 0.166626 0.2856445
vt 0.166626 0.1428223
vt 0.166626 0.1428223
vt 0.166626 0.2856445
vt 0.333252 0.2856445
vt 0.333252 0.1428223
vt 0.333252 0.1428223
vt 0.333252 0.2856445
vt 0.5 0.2856445
vt 0.5 0.1428223
vt 0.5 0.1428223
vt 0.5 0.2856445
vt 0.6665039 0.2856445
vt 0.6665039 0.1428223
vt 0.6665039 0.1428223
vt 0.6665039 0.2856445
vt 0.8334961 0.2856445
vt 0.8334961 0.1428223
vt 0.8334961 0.1428223
vt 0.8334961 0.2856445
vt 1 0.2856445
vt 1 0.1428223
vt 0 0.2856445
vt 0 0.4284668
vt 0.166626 0.4284668
vt 0.166626 0.2856445
vt 0.166626 0.2856445
vt 0.166626 0.4284668
vt 0.333252 0.4284668
vt 0.333252 0.2856445
vt 0.333252 0.2856445
vt 0.333252 0.4284668
vt 0.5 0.4284668
vt 0.5 0.2856445
vt 0.5 0.2856445
vt 0.5 0.4284668
vt 0.6665039 0.4284668
vt 0.6665039 0.2856445
vt 0.6665039 0.2856445
vt 0.6665039 0.4284668
vt 0.8334961 0.4284668
vt 0.8334961 0.2856445
vt 0.8334961 0.2856445
vt 0.8334961 0.4284668
vt 1 0.4284668
vt 1 0.2856445
vt 0 0.4284668
vt 0 0.5712891
vt 0.166626 0.5712891
vt 0.166626 0.4284668
vt 0.166626 0.4284668
vt 0.166626 0.5712891
vt 0.333252 0.5712891
vt 0.333252 0.4284668
vt 0.333252 0.4284668
vt 0.333252 0.5712891
vt 0.5 0.5712891
vt 0.5 0.4284668
vt 0.5 0.4284668
vt 0.5 0.5712891
vt 0.6665039 0.5712891
vt 0.6665039 0.4284668
vt 0.6665039 0.4284668
vt 0.6665039 0.5712891
vt 0.8334961 0.5712891
vt 0.8334961 0.4284668
vt 0.8334961 0.4284668
vt 0.8334961 0.5712891
vt 1 0.5712891
vt 1 0.4284668
vt 0 0.5712891
vt 0 0.7143555
vt 0.166626 0.7143555
vt 0.166626 0.5712891
vt 0.166626 0.5712891
vt 0.166626 0.7143555
vt 0.333252 0.7143555
vt 0.333252 0.5712891
vt 0.333252 0.5712891
vt 0.333252 0.7143555
vt 0.5 0.7143555
vt 0.5 0.5712891
vt 0.5 0.5712891
vt 0.5 0.7143555
vt 0.6665039 0.7143555
vt 0.6665039 0.5712891
vt 0.6665039 0.5712891
vt 0.6665039 0.7143555
vt 0.8334961 0.7143555
vt 0.8334961 0.5712891
vt 0.8334961 0.5712891
vt 0.8334961 0.7143555
vt 1 0.7143555
vt 1 0.5712891
vt 0 0.7143555
vt 0 0.8569336
vt 0.166626 0.8569336
vt 0.166626 0.7143555
vt 0.166626 0.7143555
vt 0.166626 0.8569336
vt 0.333252 0.8569336
vt 0.333252 0.7143555
vt 0.333252 0.7143555
vt 0.333252 0.8569336
vt 0.5 0.8569336
vt 0.5 0.7143555
vt 0.5 0.7143555
vt 0.5 0.8569336
vt 0.6665039 0.8569336
vt 0.6665039 0.7143555
vt 0.6665039 0.7143555
vt 0.6665039 0.8569336
vt 0.8334961 0.8569336
vt 0.8334961 0.7143555
vt 0.8334961 0.7143555
vt 0.8334961 0.8569336
vt 1 0.8569336
vt 1 0.7143555
vn 0.07669345 0.5238951 -0.8483231
vn 0.07669344 0.523895 -0.8483232
vn 0.07669345 0.523895 -0.8483231
vn -0.1591448 0.3914835 -0.9063187
vn -0.1591448 0.3914835 -0.9063187
vn -0.1591448 0.3914835 -0.9063187
vn -0.1535683 0.1249698 -0.9802037
vn -0.1535683 0.1249698 -0.9802037
vn -0.1535683 0.1249698 -0.9802037
vn 0.08785474 -0.00912734 -0.9960914
vn 0.08785474 -0.009127341 -0.9960914
vn 0.08785475 -0.009127343 -0.9960914
vn 0.3236948 0.1232871 -0.9380949
vn 0.3236948 0.1232871 -0.9380949
vn 0.3236947 0.1232871 -0.9380949
vn 0.3181207 0.3898021 -0.864207
vn 0.3181206 0.3898021 -0.864207
vn 0.3181206 0.389802 -0.864207
vn -0.08785419 0.00912807 0.9960915
vn -0.08785419 0.00912807 0.9960915
vn -0.08785419 0.00912807 0.9960915
vn -0.3236915 -0.1232874 0.938096
vn -0.3236915 -0.1232875 0.938096
vn -0.3236915 -0.1232874 0.938096
vn -0.3181124 -0.3897994 0.8642112
vn -0.3181124 -0.3897994 0.8642111
vn -0.3181124 -0.3897994 0.8642111
vn -0.07669337 -0.5238976 0.8483214
vn -0.07669336 -0.5238976 0.8483214
vn -0.07669336 -0.5238976 0.8483214
vn 0.1591376 -0.391482 0.9063206
vn 0.1591376 -0.3914821 0.9063206
vn 0.1591376 -0.3914821 0.9063206
vn 0.153567 -0.1249712 0.9802037
vn 0.153567 -0.1249712 0.9802037
vn 0.153567 -0.1249712 0.9802037
vn 0.04606536 0.8720618 -0.4872229
vn 0.04606537 0.872062 -0.4872228
vn 0.04606537 0.8720618 -0.4872229
vn 0.04606537 0.872062 -0.4872228
vn -0.5585272 0.5326118 -0.6359026
vn -0.5585272 0.5326118 -0.6359026
vn -0.5585272 0.5326118 -0.6359026
vn -0.5585272 0.5326118 -0.6359026
vn -0.5442274 -0.1506031 -0.8253092
vn -0.5442274 -0.1506031 -0.8253092
vn -0.5442274 -0.1506031 -0.8253092
vn -0.5442274 -0.1506031 -0.8253092
vn 0.07466721 -0.4943687 -0.8660395
vn 0.07466721 -0.4943687 -0.8660395
vn 0.07466721 -0.4943687 -0.8660395
vn 0.07466722 -0.4943687 -0.8660395
vn 0.6792611 -0.1549224 -0.7173586
vn 0.6792611 -0.1549224 -0.7173586
vn 0.6792611 -0.1549224 -0.7173586
vn 0.679261 -0.1549224 -0.7173586
vn 0.6649586 0.5282962 -0.5279518
vn 0.6649587 0.5282962 -0.5279518
vn 0.6649586 0.5282962 -0.5279518
vn 0.6649587 0.5282961 -0.5279518
vn 0.01170116 0.9956152 -0.09280784
vn 0.01170116 0.9956152 -0.09280787
vn 0.01170116 0.9956152 -0.09280785
vn 0.01170116 0.9956152 -0.09280784
vn -0.7847909 0.5484239 -0.2886771
vn -0.7847909 0.5484239 -0.2886772
vn -0.7847909 0.5484238 -0.2886772
vn -0.7847909 0.548424 -0.2886772
vn -0.7659506 -0.3516467 -0.5382046
vn -0.7659506 -0.3516467 -0.5382046
vn -0.7659506 -0.3516467 -0.5382046
vn -0.7659506 -0.3516467 -0.5382047
vn 0.04938193 -0.8045278 -0.5918584
vn 0.04938192 -0.8045278 -0.5918584
vn 0.04938193 -0.8045278 -0.5918584
vn 0.04938193 -0.8045278 -0.5918584
vn 0.8458754 -0.357332 -0.3959908
vn 0.8458755 -0.357332 -0.3959907
vn 0.8458754 -0.357332 -0.3959908
vn 0.8458755 -0.357332 -0.3959907
vn 0.8270346 0.5427347 -0.1464677
vn 0.8270346 0.5427347 -0.1464677
vn 0.8270346 0.5427347 -0.1464677
vn 0.8270346 0.5427346 -0.1464677
vn -0.02016658 0.9634581 0.2670988
vn -0.02016658 0.9634582 0.2670988
vn -0.02016658 0.9634581 0.2670988
vn -0.02016658 0.9634582 0.2670988
vn -0.872752 0.4847734 0.05743521
vn -0.872752 0.4847734 0.05743521
vn -0.872752 0.4847734 0.05743521
vn -0.872752 0.4847734 0.05743521
vn -0.8525852 -0.4786851 -0.2096638
vn -0.8525853 -0.4786851 -0.2096638
vn -0.8525852 -0.4786851 -0.2096638
vn -0.8525852 -0.4786851 -0.2096638
vn 0.02016695 -0.963458 -0.2670993
vn 0.02016695 -0.963458 -0.2670993
vn 0.02016695 -0.963458 -0.2670993
vn 0.02016695 -0.963458 -0.2670992
vn 0.872752 -0.4847734 -0.05743549
vn 0.872752 -0.4847734 -0.05743549
vn 0.872752 -0.4847734 -0.05743549
vn 0.872752 -0.4847734 -0.05743548
vn 0.8525854 0.478685 0.2096638
vn 0.8525854 0.478685 0.2096638
vn 0.8525854 0.478685 0.2096638
vn 0.8525854 0.478685 0.2096638
vn -0.0493807 0.8045264 0.5918604
vn -0.0493807 0.8045264 0.5918604
vn -0.0493807 0.8045264 0.5918604
vn -0.0493807 0.8045264 0.5918604
vn -0.8458737 0.357334 0.3959925
vn -0.8458737 0.3573341 0.3959925
vn -0.8458737 0.3573341 0.3959925
vn -0.8458737 0.357334 0.3959925
vn -0.8270336 -0.542737 0.1464647
vn -0.8270336 -0.542737 0.1464647
vn -0.8270336 -0.5427371 0.1464647
vn -0.8270336 -0.5427371 0.1464647
vn -0.01170131 -0.9956154 0.09280723
vn -0.01170131 -0.9956154 0.09280722
vn -0.01170131 -0.9956154 0.09280723
vn -0.01170131 -0.9956154 0.09280723
vn 0.7847908 -0.5484237 0.2886777
vn 0.7847908 -0.5484238 0.2886777
vn 0.7847908 -0.5484238 0.2886777
vn 0.7847908 -0.5484238 0.2886777
vn 0.7659501 0.3516482 0.5382043
vn 0.7659501 0.3516483 0.5382043
vn 0.7659501 0.3516482 0.5382043
vn 0.7659501 0.3516482 0.5382044
vn -0.07466744 0.4943682 0.8660398
vn -0.07466745 0.4943682 0.8660398
vn -0.07466745 0.4943682 0.8660398
vn -0.07466745 0.4943682 0.8660398
vn -0.6792602 0.1549201 0.71736
vn -0.6792602 0.1549201 0.71736
vn -0.6792602 0.1549201 0.71736
vn -0.6792603 0.1549201 0.71736
vn -0.6649619 -0.5282916 0.5279523
vn -0.6649619 -0.5282916 0.5279523
vn -0.6649618 -0.5282915 0.5279524
vn -0.6649619 -0.5282916 0.5279524
vn -0.04606315 -0.8720627 0.4872215
vn -0.04606315 -0.8720627 0.4872215
vn -0.04606314 -0.8720627 0.4872215
vn -0.04606315 -0.8720627 0.4872215
vn 0.5585281 -0.5326111 0.6359023
vn 0.5585281 -0.5326111 0.6359023
vn 0.5585281 -0.5326111 0.6359023
vn 0.5585281 -0.5326111 0.6359023
vn 0.5442253 0.1506043 0.8253103
vn 0.5442253 0.1506044 0.8253103
vn 0.5442253 0.1506043 0.8253103
vn 0.5442253 0.1506043 0.8253103
g pSphere32_0
f 3/3/3 2/2/2 1/1/1
f 6/6/6 5/5/5 4/4/4
f 9/9/9 8/8/8 7/7/7
f 12/12/12 11/11/11 10/10/10
f 15/15/15 14/14/14 13/13/13
f 18/18/18 17/17/17 16/16/16
f 21/21/21 20/20/20 19/19/19
f 24/24/24 23/23/23 22/22/22
f 27/27/27 26/26/26 25/25/25
f 30/30/30 29/29/29 28/28/28
f 33/33/33 32/32/32 31/31/31
f 36/36/36 35/35/35 34/34/34
f 39/39/39 38/38/38 37/37/37
f 40/40/40 39/39/39 37/37/37
f 43/43/43 42/42/42 41/41/41
f 44/44/44 43/43/43 41/41/41
f 47/47/47 46/46/46 45/45/45
f 48/48/48 47/47/47 45/45/45
f 51/51/51 50/50/50 49/49/49
f 52/52/52 51/51/51 49/49/49
f 55/55/55 54/54/54 53/53/53
f 56/56/56 55/55/55 53/53/53
f 59/59/59 58/58/58 57/57/57
f 60/60/60 59/59/59 57/57/57
f 63/63/63 62/62/62 61/61/61
f 64/64/64 63/63/63 61/61/61
f 67/67/67 66/66/66 65/65/65
f 68/68/68 67/67/67 65/65/65
f 71/71/71 70/70/70 69/69/69
f 72/72/72 71/71/71 69/69/69
f 75/75/75 74/74/74 73/73/73
f 76/76/76 75/75/75 73/73/73
f 79/79/79 78/78/78 77/77/77
f 80/80/80 79/79/79 77/77/77
f 83/83/83 82/82/82 81/81/81
f 84/84/84 83/83/83 81/81/81
f 87/87/87 86/86/86 85/85/85
f 88/88/88 87/87/87 85/85/85
f 91/91/91 90/90/90 89/89/89
f 92/92/92 91/91/91 89/89/89
f 95/95/95 94/94/94 93/93/93
f 96/96/96 95/95/95 93/93/93
f 99/99/99 98/98/98 97/97/97
f 100/100/100 99/99/99 97/97/97
f 103/103/103 102/102/102 101/101/101
f 104/104/104 103/103/103 101/101/101
f 107/107/107 106/106/106 105/105/105
f 108/108/108 107/107/107 105/105/105
f 111/111/111 110/110/110 109/109/109
f 112/112/112 111/111/111 109/109/109
f 115/115/115 114/114/114 113/113/113
f 116/116/116 115/115/115 113/113/113
f 119/119/119 118/118/118 117/117/117
f 120/120/120 119/119/119 117/117/117
f 123/123/123 122/122/122 121/121/121
f 124/124/124 123/123/123 121/121/121
f 127/127/127 126/126/126 125/125/125
f 128/128/128 127/127/127 125/125/125
f 131/131/131 130/130/130 129/129/129
f 132/132/132 131/131/131 129/129/129
f 135/135/135 134/134/134 133/133/133
f 136/136/136 135/135/135 133/133/133
f 139/139/139 138/138/138 137/137/137
f 140/140/140 139/139/139 137/137/137
f 143/143/143 142/142/142 141/141/141
f 144/144/144 143/143/143 141/141/141
f 147/147/147 146/146/146 145/145/145
f 148/148/148 147/147/147 145/145/145
f 151/151/151 150/150/150 149/149/149
f 152/152/152 151/151/151 149/149/149
f 155/155/155 154/154/154 153/153/153
f 156/156/156 155/155/155 153/153/153
