g pSphere4
v -6.969543 11.48425 0.0003955662
v -7.003549 11.49642 -0.03233296
v -7.000775 11.5225 0.01078
v -6.928224 11.46656 -0.02254544
v -6.987124 11.48765 -0.07923308
v -6.908055 11.47037 -0.03722177
v -6.971511 11.49309 -0.09829412
v -6.795402 11.59151 -0.2446605
v -6.907436 11.52066 0.03884433
v -6.885659 11.52865 0.02891777
v -6.731946 11.56879 -0.1835881
v -6.957541 11.51548 0.03583921
v -7.000775 11.5225 0.01078
v -6.717672 11.58423 -0.1975372
v -6.776573 11.60532 -0.2542248
v -6.70857 11.6301 -0.2165023
v -6.742576 11.64227 -0.2492308
v -6.721344 11.67867 -0.2214573
v -6.696568 11.66133 -0.1810586
v -6.721344 11.67867 -0.2214573
v -6.696885 11.63833 -0.1361474
v -6.709549 11.62707 -0.1174485
v -6.926719 11.60965 0.03398397
v -6.718571 11.70474 -0.1783435
v -6.721344 11.67867 -0.2214573
v -6.734995 11.71351 -0.1314443
v -6.945546 11.59584 0.04354747
v -6.750609 11.70807 -0.1123824
v -6.752577 11.71692 -0.2110721
v -6.721344 11.67867 -0.2214573
v -6.793895 11.7346 -0.1881319
v -6.990174 11.63237 -0.02708838
v -6.979545 11.55889 0.03855433
v -7.000775 11.5225 0.01078
v -7.004447 11.61693 -0.01314015
v -6.814065 11.73079 -0.1734547
v -6.764579 11.68568 -0.2465157
v -6.721344 11.67867 -0.2214573
v -6.814683 11.68051 -0.2495217
v -7.01257 11.57409 -0.09322743
v -7.01355 11.57106 0.005825799
v -7.000775 11.5225 0.01078
v -6.742576 11.64227 -0.2492308
v -6.721344 11.67867 -0.2214573
v -6.776573 11.60532 -0.2542248
v -6.836461 11.67251 -0.2395938
v -6.795402 11.59151 -0.2446605
v -6.971511 11.49309 -0.09829412
v -7.025235 11.56283 -0.07452994
v -6.987124 11.48765 -0.07923308
v -7.025553 11.53983 -0.02961785
v -7.000775 11.5225 0.01078
v -7.003549 11.49642 -0.03233296
v -7.000775 11.5225 0.01078
vt 0.166626 0.166626
vt 0 0.166626
vt 0.08331299 0
vt 0.166626 0.333252
vt 0 0.333252
vt 0.166626 0.416748
vt 7.152557E-07 0.416748
vt 2.980232E-07 0.5834961
vt 0.333252 0.333252
vt 0.333252 0.416748
vt 0.166626 0.5834961
vt 0.333252 0.166626
vt 0.25 0
vt 0.166626 0.6665039
vt 0 0.6665039
vt 0.166626 0.8334961
vt 0 0.8334961
vt 0.08331299 1
vt 0.333252 0.8334961
vt 0.25 1
vt 0.333252 0.6665039
vt 0.333252 0.5834961
vt 0.5 0.416748
vt 0.5 0.8334961
vt 0.416748 1
vt 0.5 0.6665039
vt 0.5 0.333252
vt 0.5 0.5834961
vt 0.6665039 0.8334961
vt 0.5834961 1
vt 0.6665039 0.6665039
vt 0.6665039 0.416748
vt 0.5 0.166626
vt 0.416748 0
vt 0.6665039 0.333252
vt 0.6665039 0.5834961
vt 0.8334961 0.8334961
vt 0.75 1
vt 0.8334961 0.6665039
vt 0.8334961 0.416748
vt 0.6665039 0.166626
vt 0.5834961 0
vt 1 0.8334961
vt 0.9165039 1
vt 1 0.6665039
vt 0.8334961 0.5834961
vt 1 0.5834961
vt 1 0.416748
vt 0.8334961 0.333252
vt 1 0.333252
vt 0.8334961 0.166626
vt 0.75 0
vt 1 0.166626
vt 0.9165039 0
vn -0.2498927 -0.8755792 0.4134182
vn -0.6991383 -0.7147349 -0.01896122
vn -0.7065604 -0.3948895 0.5872261
vn 0.02903495 -0.9675785 0.2508958
vn -0.5715386 -0.7525488 -0.3271298
vn 0.4362551 -0.8987867 -0.04317472
vn -0.2612532 -0.6490417 -0.714487
vn -0.2311171 -0.6322036 -0.7395293
vn 0.2410047 -0.4159756 0.8768586
vn 0.6824405 -0.2581565 0.6838349
vn 0.4663901 -0.8819446 -0.06821919
vn -0.09132878 -0.4629562 0.8816634
vn -0.7065604 -0.3948895 0.5872261
vn 0.7481657 -0.565678 -0.3467802
vn 0.147586 -0.3506565 -0.9248018
vn 0.8312716 -0.2713161 -0.4851546
vn 0.3820342 -0.1104851 -0.91752
vn 0.7065585 0.3948863 -0.5872307
vn 0.9898236 0.1412894 -0.01692384
vn 0.7065585 0.3948863 -0.5872307
vn 0.9601343 -0.01407435 0.2791847
vn 0.7125747 -0.2413168 0.6587894
vn 0.2311173 0.6322065 0.7395267
vn 0.6991445 0.7147294 0.01894272
vn 0.7065585 0.3948863 -0.5872307
vn 0.5715374 0.752545 0.3271405
vn -0.1475911 0.3506346 0.9248093
vn 0.2612525 0.6490476 0.7144819
vn 0.2499085 0.8755698 -0.4134289
vn 0.7065585 0.3948863 -0.5872307
vn -0.02904587 0.9675798 -0.25089
vn -0.4663928 0.8819434 0.06821723
vn -0.3820189 0.1104912 0.9175257
vn -0.7065604 -0.3948895 0.5872261
vn -0.7481671 0.5656667 0.3467956
vn -0.4362583 0.8987854 0.04317053
vn 0.09134842 0.4629641 -0.8816573
vn 0.7065585 0.3948863 -0.5872307
vn -0.241018 0.4159833 -0.8768513
vn -0.7125753 0.2413184 -0.6587882
vn -0.8312672 0.2713401 0.4851487
vn -0.7065604 -0.3948895 0.5872261
vn 0.3820342 -0.1104851 -0.91752
vn 0.7065585 0.3948863 -0.5872307
vn 0.147586 -0.3506565 -0.9248018
vn -0.6824424 0.2581612 -0.6838313
vn -0.2311171 -0.6322036 -0.7395293
vn -0.2612532 -0.6490417 -0.714487
vn -0.9601354 0.01407471 -0.279181
vn -0.5715386 -0.7525488 -0.3271298
vn -0.9898266 -0.1412709 0.01690651
vn -0.7065604 -0.3948895 0.5872261
vn -0.6991383 -0.7147349 -0.01896122
vn -0.7065604 -0.3948895 0.5872261
g pSphere4_0
f 3/3/3 2/2/2 1/1/1
f 4/4/4 1/1/1 2/2/2
f 5/5/5 4/4/4 2/2/2
f 6/6/6 4/4/4 5/5/5
f 7/7/7 6/6/6 5/5/5
f 6/6/6 7/7/7 8/8/8
f 4/4/4 9/9/9 1/1/1
f 6/6/6 10/10/10 4/4/4
f 10/10/10 9/9/9 4/4/4
f 11/11/11 6/6/6 8/8/8
f 10/10/10 6/6/6 11/11/11
f 9/9/9 12/12/12 1/1/1
f 13/13/13 1/1/1 12/12/12
f 14/14/14 11/11/11 8/8/8
f 15/15/15 14/14/14 8/8/8
f 16/16/16 14/14/14 15/15/15
f 17/17/17 16/16/16 15/15/15
f 18/18/18 16/16/16 17/17/17
f 16/16/16 19/19/19 14/14/14
f 20/20/20 19/19/19 16/16/16
f 14/14/14 21/21/21 11/11/11
f 19/19/19 21/21/21 14/14/14
f 22/22/22 10/10/10 11/11/11
f 21/21/21 22/22/22 11/11/11
f 10/10/10 23/23/23 9/9/9
f 23/23/23 10/10/10 22/22/22
f 19/19/19 24/24/24 21/21/21
f 25/25/25 24/24/24 19/19/19
f 21/21/21 26/26/26 22/22/22
f 24/24/24 26/26/26 21/21/21
f 23/23/23 27/27/27 9/9/9
f 9/9/9 27/27/27 12/12/12
f 28/28/28 23/23/23 22/22/22
f 26/26/26 28/28/28 22/22/22
f 24/24/24 29/29/29 26/26/26
f 30/30/30 29/29/29 24/24/24
f 29/29/29 31/31/31 26/26/26
f 26/26/26 31/31/31 28/28/28
f 32/32/32 23/23/23 28/28/28
f 23/23/23 32/32/32 27/27/27
f 27/27/27 33/33/33 12/12/12
f 34/34/34 12/12/12 33/33/33
f 27/27/27 35/35/35 33/33/33
f 32/32/32 35/35/35 27/27/27
f 36/36/36 32/32/32 28/28/28
f 31/31/31 36/36/36 28/28/28
f 29/29/29 37/37/37 31/31/31
f 38/38/38 37/37/37 29/29/29
f 37/37/37 39/39/39 31/31/31
f 31/31/31 39/39/39 36/36/36
f 40/40/40 32/32/32 36/36/36
f 32/32/32 40/40/40 35/35/35
f 35/35/35 41/41/41 33/33/33
f 42/42/42 33/33/33 41/41/41
f 37/37/37 43/43/43 39/39/39
f 44/44/44 43/43/43 37/37/37
f 43/43/43 45/45/45 39/39/39
f 39/39/39 46/46/46 36/36/36
f 39/39/39 45/45/45 46/46/46
f 46/46/46 40/40/40 36/36/36
f 45/45/45 47/47/47 46/46/46
f 46/46/46 47/47/47 48/48/48
f 40/40/40 46/46/46 48/48/48
f 40/40/40 49/49/49 35/35/35
f 40/40/40 48/48/48 49/49/49
f 35/35/35 49/49/49 41/41/41
f 48/48/48 50/50/50 49/49/49
f 49/49/49 51/51/51 41/41/41
f 49/49/49 50/50/50 51/51/51
f 52/52/52 41/41/41 51/51/51
f 50/50/50 53/53/53 51/51/51
f 54/54/54 51/51/51 53/53/53
