g pSphere46
v 7.928015 11.79259 -1.111382
v 7.934179 11.81843 -1.117491
v 7.920964 11.80213 -1.134891
v 7.910028 11.77402 -1.102727
v 7.897814 11.79055 -1.143445
v 7.897534 11.77086 -1.098286
v 7.884376 11.78867 -1.142154
v 7.626149 11.78937 -1.068877
v 7.921252 11.80256 -1.068967
v 7.909626 11.80161 -1.061914
v 7.641695 11.76834 -1.017047
v 7.934495 11.80907 -1.091891
v 7.934179 11.81843 -1.117491
v 7.62675 11.77284 -1.013071
v 7.61232 11.79237 -1.061179
v 7.604513 11.79591 -1.009794
v 7.596182 11.80718 -1.03757
v 7.595877 11.82686 -1.012069
v 7.612168 11.81538 -0.9867653
v 7.595877 11.82686 -1.012069
v 7.640011 11.80656 -0.9731839
v 7.655981 11.80467 -0.9740739
v 7.908559 11.85016 -1.06941
v 7.611493 11.84612 -0.9915116
v 7.595877 11.82686 -1.012069
v 7.638842 11.85981 -0.9814044
v 7.920262 11.84763 -1.075925
v 7.654721 11.86203 -0.9829309
v 7.603162 11.85739 -1.019287
v 7.595877 11.82686 -1.012069
v 7.624411 11.87933 -1.029513
v 7.895401 11.86796 -1.113278
v 7.933923 11.83509 -1.095908
v 7.934179 11.81843 -1.117491
v 7.908049 11.86415 -1.116643
v 7.639174 11.88306 -1.03476
v 7.595506 11.83792 -1.042316
v 7.595877 11.82686 -1.012069
v 7.611151 11.84561 -1.0694
v 7.883309 11.83722 -1.14965
v 7.926872 11.84463 -1.119417
v 7.934179 11.81843 -1.117491
v 7.596182 11.80718 -1.03757
v 7.595877 11.82686 -1.012069
v 7.61232 11.79237 -1.061179
v 7.624888 11.84674 -1.077733
v 7.626149 11.78937 -1.068877
v 7.884376 11.78867 -1.142154
v 7.896825 11.83561 -1.150403
v 7.897814 11.79055 -1.143445
v 7.920392 11.82815 -1.138908
v 7.934179 11.81843 -1.117491
v 7.920964 11.80213 -1.134891
v 7.934179 11.81843 -1.117491
vt 0.166626 0.166626
vt 0.08331299 0
vt 0 0.166626
vt 0.166626 0.333252
vt 0 0.333252
vt 0.166626 0.416748
vt 7.152557E-07 0.416748
vt 2.980232E-07 0.5834961
vt 0.333252 0.333252
vt 0.333252 0.416748
vt 0.166626 0.5834961
vt 0.333252 0.166626
vt 0.25 0
vt 0.166626 0.6665039
vt 0 0.6665039
vt 0.166626 0.8334961
vt 0 0.8334961
vt 0.08331299 1
vt 0.333252 0.8334961
vt 0.25 1
vt 0.333252 0.6665039
vt 0.333252 0.5834961
vt 0.5 0.416748
vt 0.5 0.8334961
vt 0.416748 1
vt 0.5 0.6665039
vt 0.5 0.333252
vt 0.5 0.5834961
vt 0.6665039 0.8334961
vt 0.5834961 1
vt 0.6665039 0.6665039
vt 0.6665039 0.416748
vt 0.5 0.166626
vt 0.416748 0
vt 0.6665039 0.333252
vt 0.6665039 0.5834961
vt 0.8334961 0.8334961
vt 0.75 1
vt 0.8334961 0.6665039
vt 0.8334961 0.416748
vt 0.6665039 0.166626
vt 0.5834961 0
vt 1 0.8334961
vt 0.9165039 1
vt 1 0.6665039
vt 0.8334961 0.5834961
vt 1 0.5834961
vt 1 0.416748
vt 0.8334961 0.333252
vt 1 0.333252
vt 0.8334961 0.166626
vt 0.75 0
vt 1 0.166626
vt 0.9165039 0
vn 0.7444193 -0.6552189 -0.1285612
vn 0.9547299 -0.02478961 -0.2964396
vn 0.5719857 -0.4219092 -0.703438
vn 0.5045566 -0.8631577 -0.01952734
vn 0.2740256 -0.5512681 -0.788044
vn 0.06319548 -0.9882503 0.1391681
vn -0.2059575 -0.6257743 -0.7523218
vn -0.2296838 -0.6265219 -0.7447924
vn 0.7163842 -0.3245054 0.6176485
vn 0.3093603 -0.3628429 0.8790001
vn 0.03964847 -0.9882944 0.1473164
vn 0.9028805 -0.2522802 0.3480825
vn 0.9547299 -0.02478961 -0.2964396
vn -0.4671637 -0.837939 0.2821636
vn -0.6976795 -0.5260348 -0.4863442
vn -0.7164827 -0.6172619 0.3250234
vn -0.8889188 -0.3839468 -0.2498162
vn -0.9547315 0.02478848 0.2964345
vn -0.5580329 -0.2143395 0.8016595
vn -0.9547315 0.02478848 0.2964345
vn -0.2553324 -0.2992896 0.9193645
vn 0.285736 -0.3629465 0.8869187
vn 0.286145 0.6245835 0.7266476
vn -0.5720052 0.4218911 0.7034329
vn -0.9547315 0.02478848 0.2964345
vn -0.2740219 0.5512735 0.7880416
vn 0.6976853 0.5260272 0.4863442
vn 0.262775 0.6247627 0.7352692
vn -0.7444452 0.6551872 0.1285729
vn -0.9547315 0.02478848 0.2964345
vn -0.5045385 0.8631682 0.01952996
vn 0.01698006 0.9861813 -0.1647972
vn 0.8889009 0.3839627 0.249856
vn 0.9547299 -0.02478961 -0.2964396
vn 0.4671704 0.8379253 -0.2821929
vn -0.006551376 0.9875947 -0.1568879
vn -0.9028943 0.2522726 -0.3480525
vn -0.9547315 0.02478848 0.2964345
vn -0.7163678 0.3245172 -0.6176615
vn -0.2289552 0.3612425 -0.9039266
vn 0.7164642 0.6172748 -0.32504
vn 0.9547299 -0.02478961 -0.2964396
vn -0.8889188 -0.3839468 -0.2498162
vn -0.9547315 0.02478848 0.2964345
vn -0.6976795 -0.5260348 -0.4863442
vn -0.2529208 0.3616731 -0.8973426
vn -0.2296838 -0.6265219 -0.7447924
vn -0.2059575 -0.6257743 -0.7523218
vn 0.2553353 0.2992656 -0.9193714
vn 0.2740256 -0.5512681 -0.788044
vn 0.5580035 0.2143362 -0.8016807
vn 0.9547299 -0.02478961 -0.2964396
vn 0.5719857 -0.4219092 -0.703438
vn 0.9547299 -0.02478961 -0.2964396
g pSphere46_0
f 3/3/3 2/2/2 1/1/1
f 1/1/1 4/4/4 3/3/3
f 4/4/4 5/5/5 3/3/3
f 4/4/4 6/6/6 5/5/5
f 6/6/6 7/7/7 5/5/5
f 7/7/7 6/6/6 8/8/8
f 9/9/9 4/4/4 1/1/1
f 10/10/10 6/6/6 4/4/4
f 9/9/9 10/10/10 4/4/4
f 6/6/6 11/11/11 8/8/8
f 6/6/6 10/10/10 11/11/11
f 12/12/12 9/9/9 1/1/1
f 1/1/1 13/13/13 12/12/12
f 11/11/11 14/14/14 8/8/8
f 14/14/14 15/15/15 8/8/8
f 14/14/14 16/16/16 15/15/15
f 16/16/16 17/17/17 15/15/15
f 16/16/16 18/18/18 17/17/17
f 19/19/19 16/16/16 14/14/14
f 19/19/19 20/20/20 16/16/16
f 21/21/21 14/14/14 11/11/11
f 21/21/21 19/19/19 14/14/14
f 10/10/10 22/22/22 11/11/11
f 22/22/22 21/21/21 11/11/11
f 23/23/23 10/10/10 9/9/9
f 10/10/10 23/23/23 22/22/22
f 24/24/24 19/19/19 21/21/21
f 24/24/24 25/25/25 19/19/19
f 26/26/26 21/21/21 22/22/22
f 26/26/26 24/24/24 21/21/21
f 27/27/27 23/23/23 9/9/9
f 27/27/27 9/9/9 12/12/12
f 23/23/23 28/28/28 22/22/22
f 28/28/28 26/26/26 22/22/22
f 29/29/29 24/24/24 26/26/26
f 29/29/29 30/30/30 24/24/24
f 31/31/31 29/29/29 26/26/26
f 31/31/31 26/26/26 28/28/28
f 23/23/23 32/32/32 28/28/28
f 32/32/32 23/23/23 27/27/27
f 33/33/33 27/27/27 12/12/12
f 12/12/12 34/34/34 33/33/33
f 35/35/35 27/27/27 33/33/33
f 35/35/35 32/32/32 27/27/27
f 32/32/32 36/36/36 28/28/28
f 36/36/36 31/31/31 28/28/28
f 37/37/37 29/29/29 31/31/31
f 37/37/37 38/38/38 29/29/29
f 39/39/39 37/37/37 31/31/31
f 39/39/39 31/31/31 36/36/36
f 32/32/32 40/40/40 36/36/36
f 40/40/40 32/32/32 35/35/35
f 41/41/41 35/35/35 33/33/33
f 33/33/33 42/42/42 41/41/41
f 43/43/43 37/37/37 39/39/39
f 43/43/43 44/44/44 37/37/37
f 45/45/45 43/43/43 39/39/39
f 46/46/46 39/39/39 36/36/36
f 45/45/45 39/39/39 46/46/46
f 40/40/40 46/46/46 36/36/36
f 47/47/47 45/45/45 46/46/46
f 47/47/47 46/46/46 48/48/48
f 46/46/46 40/40/40 48/48/48
f 49/49/49 40/40/40 35/35/35
f 48/48/48 40/40/40 49/49/49
f 49/49/49 35/35/35 41/41/41
f 50/50/50 48/48/48 49/49/49
f 51/51/51 49/49/49 41/41/41
f 50/50/50 49/49/49 51/51/51
f 41/41/41 52/52/52 51/51/51
f 53/53/53 50/50/50 51/51/51
f 51/51/51 54/54/54 53/53/53
