g pSphere35
v -8.080236 11.81401 0.02109896
v -8.088477 11.82396 -0.003125822
v -8.089167 11.84095 0.01964391
v -8.05973 11.79465 0.01756159
v -8.074003 11.81188 -0.02439709
v -8.046434 11.79136 0.01377022
v -8.061812 11.80992 -0.0314339
v -7.798249 11.81065 -0.1255066
v -8.048825 11.8244 0.05301379
v -8.034687 11.82341 0.05196551
v -7.78008 11.78872 -0.07209845
v -8.073941 11.83119 0.04156749
v -8.089167 11.84095 0.01964391
v -7.764987 11.79342 -0.07776704
v -7.781852 11.81377 -0.1273407
v -7.744126 11.81747 -0.08844388
v -7.753862 11.82922 -0.1170652
v -7.738172 11.84973 -0.09560104
v -7.736688 11.83776 -0.06426055
v -7.738172 11.84973 -0.09560104
v -7.752104 11.82857 -0.03588065
v -7.7662 11.8266 -0.02697114
v -8.038318 11.87403 0.04495594
v -7.738986 11.86981 -0.06869853
v -7.738172 11.84973 -0.09560104
v -7.756086 11.88408 -0.04356708
v -8.052196 11.87139 0.04650807
v -7.770491 11.8864 -0.03525287
v -7.748723 11.88157 -0.09731984
v -7.738172 11.84973 -0.09560104
v -7.772951 11.90444 -0.0931408
v -8.053697 11.89259 -0.0002481699
v -8.075887 11.85831 0.03781122
v -8.089167 11.84095 0.01964391
v -8.06647 11.88862 0.004549396
v -7.78866 11.90833 -0.08866102
v -7.756161 11.86127 -0.1215032
v -7.738172 11.84973 -0.09560104
v -7.785834 11.86928 -0.1350272
v -8.065444 11.86053 -0.0384431
v -8.084128 11.86826 0.01358644
v -8.089167 11.84095 0.01964391
v -7.753862 11.82922 -0.1170652
v -7.738172 11.84973 -0.09560104
v -7.781852 11.81377 -0.1273407
v -7.802539 11.87046 -0.1337879
v -7.798249 11.81065 -0.1255066
v -8.061812 11.80992 -0.0314339
v -8.077373 11.85886 -0.03090281
v -8.074003 11.81188 -0.02439709
v -8.090423 11.85108 -0.006882082
v -8.089167 11.84095 0.01964391
v -8.088477 11.82396 -0.003125822
v -8.089167 11.84095 0.01964391
vt 0.166626 0.166626
vt 0 0.166626
vt 0.08331299 0
vt 0.166626 0.333252
vt 0 0.333252
vt 0.166626 0.416748
vt 7.152557E-07 0.416748
vt 2.980232E-07 0.5834961
vt 0.333252 0.333252
vt 0.333252 0.416748
vt 0.166626 0.5834961
vt 0.333252 0.166626
vt 0.25 0
vt 0.166626 0.6665039
vt 0 0.6665039
vt 0.166626 0.8334961
vt 0 0.8334961
vt 0.08331299 1
vt 0.333252 0.8334961
vt 0.25 1
vt 0.333252 0.6665039
vt 0.333252 0.5834961
vt 0.5 0.416748
vt 0.5 0.8334961
vt 0.416748 1
vt 0.5 0.6665039
vt 0.5 0.333252
vt 0.5 0.5834961
vt 0.6665039 0.8334961
vt 0.5834961 1
vt 0.6665039 0.6665039
vt 0.6665039 0.416748
vt 0.5 0.166626
vt 0.416748 0
vt 0.6665039 0.333252
vt 0.6665039 0.5834961
vt 0.8334961 0.8334961
vt 0.75 1
vt 0.8334961 0.6665039
vt 0.8334961 0.416748
vt 0.6665039 0.166626
vt 0.5834961 0
vt 1 0.8334961
vt 0.9165039 1
vt 1 0.6665039
vt 0.8334961 0.5834961
vt 1 0.5834961
vt 1 0.416748
vt 0.8334961 0.333252
vt 1 0.333252
vt 0.8334961 0.166626
vt 0.75 0
vt 1 0.166626
vt 0.9165039 0
vn -0.6807886 -0.6552134 0.3274483
vn -0.8740893 -0.4219011 -0.2407641
vn -0.9494876 -0.02477889 0.3128249
vn -0.4221781 -0.863158 0.2769908
vn -0.6805843 -0.5512635 -0.4826112
vn 0.02932415 -0.9882492 0.150012
vn -0.2690132 -0.6257731 -0.7321475
vn -0.2453221 -0.6265215 -0.7397891
vn -0.2247799 -0.3245125 0.9187849
vn 0.2583506 -0.362839 0.8953228
vn 0.05322903 -0.9882934 0.1429778
vn -0.5331334 -0.2522797 0.8075417
vn -0.9494876 -0.02477889 0.3128249
vn 0.5442098 -0.8379269 -0.04140122
vn 0.2857892 -0.526042 -0.8010021
vn 0.7720869 -0.6172584 -0.1512409
vn 0.578795 -0.3839643 -0.7194219
vn 0.9494845 0.02478997 -0.3128334
vn 0.9197417 -0.2143296 0.3288434
vn 0.9494845 0.02478997 -0.3128334
vn 0.7415971 -0.2992639 0.6003956
vn 0.2821838 -0.3629418 0.8880572
vn 0.1888247 0.624589 0.7577821
vn 0.8741058 0.4218784 0.2407438
vn 0.9494845 0.02478997 -0.3128334
vn 0.6805778 0.5512732 0.4826093
vn -0.2857939 0.5260382 0.8010029
vn 0.2128595 0.6247656 0.7512381
vn 0.6808106 0.6551851 -0.3274591
vn 0.9494845 0.02478997 -0.3128334
vn 0.4221614 0.8631661 -0.2769909
vn -0.109486 0.9861816 -0.124332
vn -0.5787818 0.3839621 0.7194336
vn -0.9494876 -0.02477889 0.3128249
vn -0.5441967 0.8379348 0.0414153
vn -0.08573402 0.9875946 -0.1315543
vn 0.5331504 0.2522652 -0.8075351
vn 0.9494845 0.02478997 -0.3128334
vn 0.2247668 0.3245143 -0.9187874
vn -0.3382953 0.3612432 -0.8689417
vn -0.7720816 0.6172695 0.1512228
vn -0.9494876 -0.02477889 0.3128249
vn 0.578795 -0.3839643 -0.7194219
vn 0.9494845 0.02478997 -0.3128334
vn 0.2857892 -0.526042 -0.8010021
vn -0.3149586 0.361672 -0.8774933
vn -0.2453221 -0.6265215 -0.7397891
vn -0.2690132 -0.6257731 -0.7321475
vn -0.741591 0.299288 -0.6003911
vn -0.6805843 -0.5512635 -0.4826112
vn -0.919729 0.2143376 -0.3288736
vn -0.9494876 -0.02477889 0.3128249
vn -0.8740893 -0.4219011 -0.2407641
vn -0.9494876 -0.02477889 0.3128249
g pSphere35_0
f 3/3/3 2/2/2 1/1/1
f 4/4/4 1/1/1 2/2/2
f 5/5/5 4/4/4 2/2/2
f 6/6/6 4/4/4 5/5/5
f 7/7/7 6/6/6 5/5/5
f 6/6/6 7/7/7 8/8/8
f 4/4/4 9/9/9 1/1/1
f 6/6/6 10/10/10 4/4/4
f 10/10/10 9/9/9 4/4/4
f 11/11/11 6/6/6 8/8/8
f 10/10/10 6/6/6 11/11/11
f 9/9/9 12/12/12 1/1/1
f 13/13/13 1/1/1 12/12/12
f 14/14/14 11/11/11 8/8/8
f 15/15/15 14/14/14 8/8/8
f 16/16/16 14/14/14 15/15/15
f 17/17/17 16/16/16 15/15/15
f 18/18/18 16/16/16 17/17/17
f 16/16/16 19/19/19 14/14/14
f 20/20/20 19/19/19 16/16/16
f 14/14/14 21/21/21 11/11/11
f 19/19/19 21/21/21 14/14/14
f 22/22/22 10/10/10 11/11/11
f 21/21/21 22/22/22 11/11/11
f 10/10/10 23/23/23 9/9/9
f 23/23/23 10/10/10 22/22/22
f 19/19/19 24/24/24 21/21/21
f 25/25/25 24/24/24 19/19/19
f 21/21/21 26/26/26 22/22/22
f 24/24/24 26/26/26 21/21/21
f 23/23/23 27/27/27 9/9/9
f 9/9/9 27/27/27 12/12/12
f 28/28/28 23/23/23 22/22/22
f 26/26/26 28/28/28 22/22/22
f 24/24/24 29/29/29 26/26/26
f 30/30/30 29/29/29 24/24/24
f 29/29/29 31/31/31 26/26/26
f 26/26/26 31/31/31 28/28/28
f 32/32/32 23/23/23 28/28/28
f 23/23/23 32/32/32 27/27/27
f 27/27/27 33/33/33 12/12/12
f 34/34/34 12/12/12 33/33/33
f 27/27/27 35/35/35 33/33/33
f 32/32/32 35/35/35 27/27/27
f 36/36/36 32/32/32 28/28/28
f 31/31/31 36/36/36 28/28/28
f 29/29/29 37/37/37 31/31/31
f 38/38/38 37/37/37 29/29/29
f 37/37/37 39/39/39 31/31/31
f 31/31/31 39/39/39 36/36/36
f 40/40/40 32/32/32 36/36/36
f 32/32/32 40/40/40 35/35/35
f 35/35/35 41/41/41 33/33/33
f 42/42/42 33/33/33 41/41/41
f 37/37/37 43/43/43 39/39/39
f 44/44/44 43/43/43 37/37/37
f 43/43/43 45/45/45 39/39/39
f 39/39/39 46/46/46 36/36/36
f 39/39/39 45/45/45 46/46/46
f 46/46/46 40/40/40 36/36/36
f 45/45/45 47/47/47 46/46/46
f 46/46/46 47/47/47 48/48/48
f 40/40/40 46/46/46 48/48/48
f 40/40/40 49/49/49 35/35/35
f 40/40/40 48/48/48 49/49/49
f 35/35/35 49/49/49 41/41/41
f 48/48/48 50/50/50 49/49/49
f 49/49/49 51/51/51 41/41/41
f 49/49/49 50/50/50 51/51/51
f 52/52/52 41/41/41 51/51/51
f 50/50/50 53/53/53 51/51/51
f 54/54/54 51/51/51 53/53/53
