g pSphere33
v -0.9820637 0.6258195 -0.2388781
v -0.9661809 0.6025795 -0.2485985
v -0.9532419 0.6259189 -0.2353812
v -0.9957799 0.6011432 -0.2456516
v -0.9661809 0.6025795 -0.2485985
v -0.9820637 0.6258195 -0.2388781
v -0.9806745 0.5765663 -0.2489282
v -0.9661809 0.6025795 -0.2485985
v -0.9957799 0.6011432 -0.2456516
v -0.9518526 0.5766658 -0.2454314
v -0.9661809 0.6025795 -0.2485985
v -0.9806745 0.5765663 -0.2489282
v -0.9381363 0.6013421 -0.2386579
v -0.9661809 0.6025795 -0.2485985
v -0.9518526 0.5766658 -0.2454314
v -0.9532419 0.6259189 -0.2353812
v -0.9661809 0.6025795 -0.2485985
v -0.9381363 0.6013421 -0.2386579
v -1.012749 0.5235649 0.2580038
v -1.027243 0.4975519 0.257674
v -1.041571 0.5234656 0.2545069
v -1.041571 0.5234656 0.2545069
v -1.027243 0.4975519 0.257674
v -1.055287 0.4987893 0.2477335
v -1.055287 0.4987893 0.2477335
v -1.027243 0.4975519 0.257674
v -1.040182 0.4742124 0.2444568
v -1.040182 0.4742124 0.2444568
v -1.027243 0.4975519 0.257674
v -1.01136 0.4743117 0.2479536
v -1.01136 0.4743117 0.2479536
v -1.027243 0.4975519 0.257674
v -0.9976438 0.498988 0.2547272
v -0.9976438 0.498988 0.2547272
v -1.027243 0.4975519 0.257674
v -1.012749 0.5235649 0.2580038
v -0.9532419 0.6259189 -0.2353812
v -0.9444198 0.6419622 -0.2118943
v -0.996355 0.6417831 -0.2181955
v -0.9820637 0.6258195 -0.2388781
v -0.9820637 0.6258195 -0.2388781
v -0.996355 0.6417831 -0.2181955
v -1.021071 0.5973179 -0.2304009
v -0.9957799 0.6011432 -0.2456516
v -0.9957799 0.6011432 -0.2456516
v -1.021071 0.5973179 -0.2304009
v -0.9938517 0.553032 -0.2363052
v -0.9806745 0.5765663 -0.2489282
v -0.9806745 0.5765663 -0.2489282
v -0.9938517 0.553032 -0.2363052
v -0.9419165 0.5532111 -0.2300041
v -0.9518526 0.5766658 -0.2454314
v -0.9518526 0.5766658 -0.2454314
v -0.9419165 0.5532111 -0.2300041
v -0.9172006 0.5976762 -0.2177987
v -0.9381363 0.6013421 -0.2386579
v -0.9381363 0.6013421 -0.2386579
v -0.9172006 0.5976762 -0.2177987
v -0.9444198 0.6419622 -0.2118943
v -0.9532419 0.6259189 -0.2353812
v -0.9444198 0.6419622 -0.2118943
v -0.9414623 0.6475317 -0.1827897
v -1.006224 0.6473083 -0.190647
v -0.996355 0.6417831 -0.2181955
v -0.996355 0.6417831 -0.2181955
v -1.006224 0.6473083 -0.190647
v -1.037045 0.5918612 -0.2058669
v -1.021071 0.5973179 -0.2304009
v -1.021071 0.5973179 -0.2304009
v -1.037045 0.5918612 -0.2058669
v -1.003103 0.5366375 -0.2132294
v -0.9938517 0.553032 -0.2363052
v -0.9938517 0.553032 -0.2363052
v -1.003103 0.5366375 -0.2132294
v -0.9383407 0.5368609 -0.2053721
v -0.9419165 0.5532111 -0.2300041
v -0.9419165 0.5532111 -0.2300041
v -0.9383407 0.5368609 -0.2053721
v -0.9075204 0.592308 -0.1901522
v -0.9172006 0.5976762 -0.2177987
v -0.9172006 0.5976762 -0.2177987
v -0.9075204 0.592308 -0.1901522
v -0.9414623 0.6475317 -0.1827897
v -0.9444198 0.6419622 -0.2118943
v -0.9414623 0.6475317 -0.1827897
v -0.9903209 0.5634938 0.222305
v -1.055083 0.5632704 0.2144476
v -1.006224 0.6473083 -0.190647
v -1.006224 0.6473083 -0.190647
v -1.055083 0.5632704 0.2144476
v -1.085903 0.5078234 0.1992277
v -1.037045 0.5918612 -0.2058669
v -1.037045 0.5918612 -0.2058669
v -1.085903 0.5078234 0.1992277
v -1.051962 0.4525996 0.1918651
v -1.003103 0.5366375 -0.2132294
v -1.003103 0.5366375 -0.2132294
v -1.051962 0.4525996 0.1918651
v -0.9871994 0.452823 0.1997226
v -0.9383407 0.5368609 -0.2053721
v -0.9383407 0.5368609 -0.2053721
v -0.9871994 0.452823 0.1997226
v -0.9563792 0.50827 0.2149424
v -0.9075204 0.592308 -0.1901522
v -0.9075204 0.592308 -0.1901522
v -0.9563792 0.50827 0.2149424
v -0.9903209 0.5634938 0.222305
v -0.9414623 0.6475317 -0.1827897
v -0.9903209 0.5634938 0.222305
v -0.999572 0.5470994 0.2453807
v -1.051507 0.5469202 0.2390795
v -1.055083 0.5632704 0.2144476
v -1.055083 0.5632704 0.2144476
v -1.051507 0.5469202 0.2390795
v -1.076223 0.5024551 0.2268742
v -1.085903 0.5078234 0.1992277
v -1.085903 0.5078234 0.1992277
v -1.076223 0.5024551 0.2268742
v -1.049004 0.4581691 0.2209699
v -1.051962 0.4525996 0.1918651
v -1.051962 0.4525996 0.1918651
v -1.049004 0.4581691 0.2209699
v -0.9970687 0.4583482 0.227271
v -0.9871994 0.452823 0.1997226
v -0.9871994 0.452823 0.1997226
v -0.9970687 0.4583482 0.227271
v -0.9723529 0.5028133 0.2394764
v -0.9563792 0.50827 0.2149424
v -0.9563792 0.50827 0.2149424
v -0.9723529 0.5028133 0.2394764
v -0.999572 0.5470994 0.2453807
v -0.9903209 0.5634938 0.222305
v -0.999572 0.5470994 0.2453807
v -1.012749 0.5235649 0.2580038
v -1.041571 0.5234656 0.2545069
v -1.051507 0.5469202 0.2390795
v -1.051507 0.5469202 0.2390795
v -1.041571 0.5234656 0.2545069
v -1.055287 0.4987893 0.2477335
v -1.076223 0.5024551 0.2268742
v -1.076223 0.5024551 0.2268742
v -1.055287 0.4987893 0.2477335
v -1.040182 0.4742124 0.2444568
v -1.049004 0.4581691 0.2209699
v -1.049004 0.4581691 0.2209699
v -1.040182 0.4742124 0.2444568
v -1.01136 0.4743117 0.2479536
v -0.9970687 0.4583482 0.227271
v -0.9970687 0.4583482 0.227271
v -1.01136 0.4743117 0.2479536
v -0.9976438 0.498988 0.2547272
v -0.9723529 0.5028133 0.2394764
v -0.9723529 0.5028133 0.2394764
v -0.9976438 0.498988 0.2547272
v -1.012749 0.5235649 0.2580038
v -0.999572 0.5470994 0.2453807
vt 0.166626 0.1428223
vt 0.08331299 0
vt 0 0.1428223
vt 0.333252 0.1428223
vt 0.25 0
vt 0.166626 0.1428223
vt 0.5 0.1428223
vt 0.416748 0
vt 0.333252 0.1428223
vt 0.6665039 0.1428223
vt 0.5834961 0
vt 0.5 0.1428223
vt 0.8334961 0.1428223
vt 0.75 0
vt 0.6665039 0.1428223
vt 1 0.1428223
vt 0.9165039 0
vt 0.8334961 0.1428223
vt 0 0.8569336
vt 0.08331299 1
vt 0.166626 0.8569336
vt 0.166626 0.8569336
vt 0.25 1
vt 0.333252 0.8569336
vt 0.333252 0.8569336
vt 0.416748 1
vt 0.5 0.8569336
vt 0.5 0.8569336
vt 0.5834961 1
vt 0.6665039 0.8569336
vt 0.6665039 0.8569336
vt 0.75 1
vt 0.8334961 0.8569336
vt 0.8334961 0.8569336
vt 0.9165039 1
vt 1 0.8569336
vt 0 0.1428223
vt 0 0.2856445
vt 0.166626 0.2856445
vt 0.166626 0.1428223
vt 0.166626 0.1428223
vt 0.166626 0.2856445
vt 0.333252 0.2856445
vt 0.333252 0.1428223
vt 0.333252 0.1428223
vt 0.333252 0.2856445
vt 0.5 0.2856445
vt 0.5 0.1428223
vt 0.5 0.1428223
vt 0.5 0.2856445
vt 0.6665039 0.2856445
vt 0.6665039 0.1428223
vt 0.6665039 0.1428223
vt 0.6665039 0.2856445
vt 0.8334961 0.2856445
vt 0.8334961 0.1428223
vt 0.8334961 0.1428223
vt 0.8334961 0.2856445
vt 1 0.2856445
vt 1 0.1428223
vt 0 0.2856445
vt 0 0.4284668
vt 0.166626 0.4284668
vt 0.166626 0.2856445
vt 0.166626 0.2856445
vt 0.166626 0.4284668
vt 0.333252 0.4284668
vt 0.333252 0.2856445
vt 0.333252 0.2856445
vt 0.333252 0.4284668
vt 0.5 0.4284668
vt 0.5 0.2856445
vt 0.5 0.2856445
vt 0.5 0.4284668
vt 0.6665039 0.4284668
vt 0.6665039 0.2856445
vt 0.6665039 0.2856445
vt 0.6665039 0.4284668
vt 0.8334961 0.4284668
vt 0.8334961 0.2856445
vt 0.8334961 0.2856445
vt 0.8334961 0.4284668
vt 1 0.4284668
vt 1 0.2856445
vt 0 0.4284668
vt 0 0.5712891
vt 0.166626 0.5712891
vt 0.166626 0.4284668
vt 0.166626 0.4284668
vt 0.166626 0.5712891
vt 0.333252 0.5712891
vt 0.333252 0.4284668
vt 0.333252 0.4284668
vt 0.333252 0.5712891
vt 0.5 0.5712891
vt 0.5 0.4284668
vt 0.5 0.4284668
vt 0.5 0.5712891
vt 0.6665039 0.5712891
vt 0.6665039 0.4284668
vt 0.6665039 0.4284668
vt 0.6665039 0.5712891
vt 0.8334961 0.5712891
vt 0.8334961 0.4284668
vt 0.8334961 0.4284668
vt 0.8334961 0.5712891
vt 1 0.5712891
vt 1 0.4284668
vt 0 0.5712891
vt 0 0.7143555
vt 0.166626 0.7143555
vt 0.166626 0.5712891
vt 0.166626 0.5712891
vt 0.166626 0.7143555
vt 0.333252 0.7143555
vt 0.333252 0.5712891
vt 0.333252 0.5712891
vt 0.333252 0.7143555
vt 0.5 0.7143555
vt 0.5 0.5712891
vt 0.5 0.5712891
vt 0.5 0.7143555
vt 0.6665039 0.7143555
vt 0.6665039 0.5712891
vt 0.6665039 0.5712891
vt 0.6665039 0.7143555
vt 0.8334961 0.7143555
vt 0.8334961 0.5712891
vt 0.8334961 0.5712891
vt 0.8334961 0.7143555
vt 1 0.7143555
vt 1 0.5712891
vt 0 0.7143555
vt 0 0.8569336
vt 0.166626 0.8569336
vt 0.166626 0.7143555
vt 0.166626 0.7143555
vt 0.166626 0.8569336
vt 0.333252 0.8569336
vt 0.333252 0.7143555
vt 0.333252 0.7143555
vt 0.333252 0.8569336
vt 0.5 0.8569336
vt 0.5 0.7143555
vt 0.5 0.7143555
vt 0.5 0.8569336
vt 0.6665039 0.8569336
vt 0.6665039 0.7143555
vt 0.6665039 0.7143555
vt 0.6665039 0.8569336
vt 0.8334961 0.8569336
vt 0.8334961 0.7143555
vt 0.8334961 0.7143555
vt 0.8334961 0.8569336
vt 1 0.8569336
vt 1 0.7143555
vn 0.1063682 0.4446777 -0.8893524
vn 0.1063682 0.4446777 -0.8893523
vn 0.1063682 0.4446777 -0.8893523
vn -0.1092108 0.3191142 -0.9414027
vn -0.1092108 0.3191143 -0.9414027
vn -0.1092108 0.3191142 -0.9414027
vn -0.1021697 0.06950469 -0.9923359
vn -0.1021697 0.06950469 -0.9923359
vn -0.1021697 0.0695047 -0.9923359
vn 0.1204491 -0.0545458 -0.9912198
vn 0.1204491 -0.0545458 -0.9912198
vn 0.1204491 -0.0545458 -0.9912198
vn 0.3360286 0.07101574 -0.9391706
vn 0.3360286 0.07101573 -0.9391706
vn 0.3360286 0.07101573 -0.9391706
vn 0.3289887 0.3206259 -0.8882373
vn 0.3289887 0.3206259 -0.8882373
vn 0.3289886 0.3206259 -0.8882373
vn -0.1204483 0.05454413 0.9912201
vn -0.1204483 0.05454413 0.9912201
vn -0.1204483 0.05454413 0.9912201
vn -0.336024 -0.07101732 0.9391722
vn -0.336024 -0.07101732 0.9391722
vn -0.336024 -0.07101732 0.9391722
vn -0.3289834 -0.3206268 0.8882389
vn -0.3289834 -0.3206268 0.8882389
vn -0.3289834 -0.3206268 0.8882389
vn -0.1063662 -0.4446696 0.8893566
vn -0.1063662 -0.4446696 0.8893566
vn -0.1063662 -0.4446696 0.8893566
vn 0.1092087 -0.319115 0.9414027
vn 0.1092087 -0.319115 0.9414027
vn 0.1092087 -0.319115 0.9414027
vn 0.1021694 -0.06950542 0.9923359
vn 0.1021694 -0.06950541 0.9923359
vn 0.1021694 -0.06950542 0.9923359
vn 0.06756234 0.8118553 -0.5799366
vn 0.06756233 0.8118553 -0.5799366
vn 0.06756234 0.8118553 -0.5799366
vn 0.06756234 0.8118553 -0.5799366
vn -0.5054461 0.4781169 -0.7182816
vn -0.5054461 0.4781169 -0.7182816
vn -0.5054461 0.478117 -0.7182816
vn -0.5054461 0.478117 -0.7182816
vn -0.4867335 -0.1853465 -0.8536612
vn -0.4867333 -0.1853465 -0.8536612
vn -0.4867333 -0.1853464 -0.8536612
vn -0.4867333 -0.1853464 -0.8536612
vn 0.1049884 -0.5150678 -0.8506954
vn 0.1049884 -0.5150677 -0.8506954
vn 0.1049884 -0.5150677 -0.8506954
vn 0.1049884 -0.5150677 -0.8506954
vn 0.6779956 -0.1813259 -0.7123503
vn 0.6779956 -0.1813259 -0.7123503
vn 0.6779955 -0.1813259 -0.7123503
vn 0.6779956 -0.1813259 -0.7123503
vn 0.6592821 0.482133 -0.5769703
vn 0.6592821 0.482133 -0.5769703
vn 0.6592821 0.482133 -0.5769703
vn 0.6592821 0.482133 -0.5769704
vn 0.01964719 0.9816187 -0.1898386
vn 0.01964719 0.9816187 -0.1898386
vn 0.01964719 0.9816187 -0.1898386
vn 0.01964719 0.9816187 -0.1898386
vn -0.7610787 0.5268969 -0.378337
vn -0.7610787 0.5268969 -0.378337
vn -0.7610787 0.5268969 -0.378337
vn -0.7610787 0.526897 -0.378337
vn -0.7355819 -0.3770725 -0.5627927
vn -0.7355819 -0.3770725 -0.5627927
vn -0.7355819 -0.3770725 -0.5627927
vn -0.7355819 -0.3770725 -0.5627927
vn 0.07064086 -0.8263211 -0.5587516
vn 0.07064087 -0.8263211 -0.5587517
vn 0.07064087 -0.8263211 -0.5587516
vn 0.07064087 -0.8263211 -0.5587516
vn 0.8513672 -0.3716002 -0.3702528
vn 0.8513672 -0.3716002 -0.3702528
vn 0.8513672 -0.3716002 -0.3702529
vn 0.8513672 -0.3716002 -0.3702529
vn 0.8258691 0.5323714 -0.1857976
vn 0.8258691 0.5323714 -0.1857976
vn 0.8258691 0.5323714 -0.1857976
vn 0.8258691 0.5323714 -0.1857976
vn -0.02762569 0.979436 0.1998546
vn -0.02762569 0.979436 0.1998546
vn -0.02762569 0.979436 0.1998546
vn -0.02762569 0.979436 0.1998546
vn -0.8735285 0.4867533 -0.004378859
vn -0.8735285 0.4867533 -0.004378859
vn -0.8735285 0.4867533 -0.004378859
vn -0.8735285 0.4867533 -0.004378859
vn -0.8459032 -0.4926831 -0.2042329
vn -0.8459032 -0.4926831 -0.2042329
vn -0.8459032 -0.4926831 -0.2042329
vn -0.8459032 -0.4926831 -0.2042329
vn 0.02762599 -0.9794359 -0.1998549
vn 0.02762599 -0.9794359 -0.1998548
vn 0.02762599 -0.9794359 -0.1998549
vn 0.02762599 -0.9794359 -0.1998549
vn 0.8735286 -0.4867531 0.004378857
vn 0.8735286 -0.486753 0.004378856
vn 0.8735286 -0.4867531 0.004378857
vn 0.8735286 -0.4867531 0.004378856
vn 0.8459037 0.4926823 0.204233
vn 0.8459036 0.4926823 0.204233
vn 0.8459036 0.4926823 0.2042331
vn 0.8459036 0.4926823 0.204233
vn -0.07064154 0.826322 0.5587501
vn -0.07064153 0.826322 0.55875
vn -0.07064154 0.826322 0.5587501
vn -0.07064153 0.826322 0.55875
vn -0.8513668 0.3715988 0.3702552
vn -0.8513668 0.3715988 0.3702551
vn -0.8513668 0.3715988 0.3702552
vn -0.8513668 0.3715988 0.3702551
vn -0.8258694 -0.5323707 0.1857983
vn -0.8258694 -0.5323707 0.1857983
vn -0.8258694 -0.5323707 0.1857983
vn -0.8258694 -0.5323707 0.1857983
vn -0.01964712 -0.9816188 0.1898379
vn -0.01964712 -0.9816188 0.1898379
vn -0.01964712 -0.9816188 0.1898379
vn -0.01964712 -0.9816188 0.189838
vn 0.7610802 -0.5268947 0.3783368
vn 0.7610802 -0.5268947 0.3783369
vn 0.7610802 -0.5268947 0.3783369
vn 0.7610802 -0.5268947 0.3783369
vn 0.7355826 0.3770689 0.5627943
vn 0.7355826 0.3770689 0.5627943
vn 0.7355826 0.3770689 0.5627943
vn 0.7355826 0.3770689 0.5627943
vn -0.1049891 0.5150692 0.8506944
vn -0.1049891 0.5150691 0.8506945
vn -0.1049891 0.5150691 0.8506945
vn -0.1049891 0.5150692 0.8506944
vn -0.677998 0.1813294 0.712347
vn -0.677998 0.1813295 0.712347
vn -0.677998 0.1813295 0.712347
vn -0.677998 0.1813294 0.712347
vn -0.6592841 -0.4821341 0.5769672
vn -0.6592841 -0.4821341 0.5769672
vn -0.6592841 -0.4821341 0.5769672
vn -0.6592841 -0.4821342 0.5769671
vn -0.06756256 -0.8118565 0.5799348
vn -0.06756257 -0.8118565 0.5799348
vn -0.06756256 -0.8118565 0.5799348
vn -0.06756257 -0.8118565 0.5799348
vn 0.5054494 -0.4781156 0.7182801
vn 0.5054494 -0.4781156 0.7182801
vn 0.5054494 -0.4781156 0.7182801
vn 0.5054494 -0.4781156 0.7182801
vn 0.4867332 0.1853452 0.8536614
vn 0.4867332 0.1853452 0.8536614
vn 0.4867333 0.1853452 0.8536614
vn 0.4867332 0.1853452 0.8536614
g pSphere33_0
f 3/3/3 2/2/2 1/1/1
f 6/6/6 5/5/5 4/4/4
f 9/9/9 8/8/8 7/7/7
f 12/12/12 11/11/11 10/10/10
f 15/15/15 14/14/14 13/13/13
f 18/18/18 17/17/17 16/16/16
f 21/21/21 20/20/20 19/19/19
f 24/24/24 23/23/23 22/22/22
f 27/27/27 26/26/26 25/25/25
f 30/30/30 29/29/29 28/28/28
f 33/33/33 32/32/32 31/31/31
f 36/36/36 35/35/35 34/34/34
f 39/39/39 38/38/38 37/37/37
f 40/40/40 39/39/39 37/37/37
f 43/43/43 42/42/42 41/41/41
f 44/44/44 43/43/43 41/41/41
f 47/47/47 46/46/46 45/45/45
f 48/48/48 47/47/47 45/45/45
f 51/51/51 50/50/50 49/49/49
f 52/52/52 51/51/51 49/49/49
f 55/55/55 54/54/54 53/53/53
f 56/56/56 55/55/55 53/53/53
f 59/59/59 58/58/58 57/57/57
f 60/60/60 59/59/59 57/57/57
f 63/63/63 62/62/62 61/61/61
f 64/64/64 63/63/63 61/61/61
f 67/67/67 66/66/66 65/65/65
f 68/68/68 67/67/67 65/65/65
f 71/71/71 70/70/70 69/69/69
f 72/72/72 71/71/71 69/69/69
f 75/75/75 74/74/74 73/73/73
f 76/76/76 75/75/75 73/73/73
f 79/79/79 78/78/78 77/77/77
f 80/80/80 79/79/79 77/77/77
f 83/83/83 82/82/82 81/81/81
f 84/84/84 83/83/83 81/81/81
f 87/87/87 86/86/86 85/85/85
f 88/88/88 87/87/87 85/85/85
f 91/91/91 90/90/90 89/89/89
f 92/92/92 91/91/91 89/89/89
f 95/95/95 94/94/94 93/93/93
f 96/96/96 95/95/95 93/93/93
f 99/99/99 98/98/98 97/97/97
f 100/100/100 99/99/99 97/97/97
f 103/103/103 102/102/102 101/101/101
f 104/104/104 103/103/103 101/101/101
f 107/107/107 106/106/106 105/105/105
f 108/108/108 107/107/107 105/105/105
f 111/111/111 110/110/110 109/109/109
f 112/112/112 111/111/111 109/109/109
f 115/115/115 114/114/114 113/113/113
f 116/116/116 115/115/115 113/113/113
f 119/119/119 118/118/118 117/117/117
f 120/120/120 119/119/119 117/117/117
f 123/123/123 122/122/122 121/121/121
f 124/124/124 123/123/123 121/121/121
f 127/127/127 126/126/126 125/125/125
f 128/128/128 127/127/127 125/125/125
f 131/131/131 130/130/130 129/129/129
f 132/132/132 131/131/131 129/129/129
f 135/135/135 134/134/134 133/133/133
f 136/136/136 135/135/135 133/133/133
f 139/139/139 138/138/138 137/137/137
f 140/140/140 139/139/139 137/137/137
f 143/143/143 142/142/142 141/141/141
f 144/144/144 143/143/143 141/141/141
f 147/147/147 146/146/146 145/145/145
f 148/148/148 147/147/147 145/145/145
f 151/151/151 150/150/150 149/149/149
f 152/152/152 151/151/151 149/149/149
f 155/155/155 154/154/154 153/153/153
f 156/156/156 155/155/155 153/153/153
