g pSphere5
v -7.302832 11.36657 0.1732625
v -7.320001 11.37565 0.1476975
v -7.322773 11.39303 0.1758965
v -7.273929 11.35313 0.163836
v -7.303666 11.36886 0.1195559
v -7.258868 11.35472 0.1569888
v -7.290905 11.37167 0.1092838
v -7.077033 11.45355 -0.01134618
v -7.266344 11.38836 0.2061842
v -7.250696 11.39268 0.2026135
v -7.039184 11.43352 0.04501682
v -7.298453 11.38691 0.1977124
v -7.322773 11.39303 0.1758965
v -7.025437 11.44472 0.03657384
v -7.060569 11.46331 -0.01574256
v -7.013411 11.47975 0.02350791
v -7.033694 11.49048 -0.006696898
v -7.020069 11.51802 0.01776041
v -7.008236 11.50378 0.0523952
v -7.020069 11.51802 0.01776041
v -7.016475 11.48635 0.08660772
v -7.029527 11.47837 0.09892192
v -7.274559 11.4476 0.2005324
v -7.023345 11.53855 0.05107769
v -7.020069 11.51802 0.01776041
v -7.042644 11.54658 0.0843261
v -7.288494 11.43933 0.204253
v -7.057721 11.54326 0.09646311
v -7.043629 11.54929 0.02087288
v -7.020069 11.51802 0.01776041
v -7.077777 11.56517 0.03200969
v -7.306595 11.46455 0.1528273
v -7.311242 11.41634 0.1965973
v -7.322773 11.39303 0.1758965
v -7.318229 11.45507 0.159973
v -7.095572 11.56329 0.04010009
v -7.048803 11.52525 -0.00801441
v -7.020069 11.51802 0.01776041
v -7.086739 11.52353 -0.01802417
v -7.314768 11.42659 0.107203
v -7.328409 11.42542 0.1710323
v -7.322773 11.39303 0.1758965
v -7.033694 11.49048 -0.006696898
v -7.020069 11.51802 0.01776041
v -7.060569 11.46331 -0.01574256
v -7.105227 11.51843 -0.01380455
v -7.077033 11.45355 -0.01134618
v -7.290905 11.37167 0.1092838
v -7.325814 11.41983 0.1176248
v -7.303666 11.36886 0.1195559
v -7.332789 11.40508 0.1465824
v -7.322773 11.39303 0.1758965
v -7.320001 11.37565 0.1476975
v -7.322773 11.39303 0.1758965
vt 0.166626 0.166626
vt 0 0.166626
vt 0.08331299 0
vt 0.166626 0.333252
vt 0 0.333252
vt 0.166626 0.416748
vt 7.152557E-07 0.416748
vt 2.980232E-07 0.5834961
vt 0.333252 0.333252
vt 0.333252 0.416748
vt 0.166626 0.5834961
vt 0.333252 0.166626
vt 0.25 0
vt 0.166626 0.6665039
vt 0 0.6665039
vt 0.166626 0.8334961
vt 0 0.8334961
vt 0.08331299 1
vt 0.333252 0.8334961
vt 0.25 1
vt 0.333252 0.6665039
vt 0.333252 0.5834961
vt 0.5 0.416748
vt 0.5 0.8334961
vt 0.416748 1
vt 0.5 0.6665039
vt 0.5 0.333252
vt 0.5 0.5834961
vt 0.6665039 0.8334961
vt 0.5834961 1
vt 0.6665039 0.6665039
vt 0.6665039 0.416748
vt 0.5 0.166626
vt 0.416748 0
vt 0.6665039 0.333252
vt 0.6665039 0.5834961
vt 0.8334961 0.8334961
vt 0.75 1
vt 0.8334961 0.6665039
vt 0.8334961 0.416748
vt 0.6665039 0.166626
vt 0.5834961 0
vt 1 0.8334961
vt 0.9165039 1
vt 1 0.6665039
vt 0.8334961 0.5834961
vt 1 0.5834961
vt 1 0.416748
vt 0.8334961 0.333252
vt 1 0.333252
vt 0.8334961 0.166626
vt 0.75 0
vt 1 0.166626
vt 0.9165039 0
vn -0.3796115 -0.8539993 0.3557812
vn -0.7239279 -0.6717848 -0.1569513
vn -0.8313882 -0.344781 0.4357978
vn -0.08022878 -0.9644819 0.2516704
vn -0.5405211 -0.7208954 -0.4337588
vn 0.3522213 -0.9341144 0.05805659
vn -0.1801917 -0.6503233 -0.7379774
vn -0.1536054 -0.6412905 -0.7517658
vn 0.03719553 -0.4190382 0.9072065
vn 0.488335 -0.3011606 0.8190429
vn 0.3790388 -0.9242741 0.04524452
vn -0.291771 -0.4459892 0.8461461
vn -0.8313882 -0.344781 0.4357978
vn 0.7659717 -0.6135733 -0.1918729
vn 0.3056625 -0.369988 -0.8773137
vn 0.8925695 -0.3264399 -0.3110573
vn 0.548263 -0.1442303 -0.823775
vn 0.8313989 0.344769 -0.4357869
vn 0.9804077 0.08157264 0.1792952
vn 0.8313989 0.344769 -0.4357869
vn 0.8833919 -0.06813426 0.4636556
vn 0.5150825 -0.2912505 0.8061409
vn 0.09184118 0.6149975 0.7831624
vn 0.7239305 0.6717889 0.1569214
vn 0.8313989 0.344769 -0.4357869
vn 0.5405231 0.7208945 0.4337581
vn -0.3056633 0.3699911 0.8773121
vn 0.1187491 0.6255015 0.7711332
vn 0.3796191 0.8539913 -0.3557924
vn 0.8313989 0.344769 -0.4357869
vn 0.08020893 0.9644819 -0.2516768
vn -0.4401966 0.8978083 -0.01292609
vn -0.5482512 0.1442408 0.823781
vn -0.8313882 -0.344781 0.4357978
vn -0.7659616 0.6135852 0.1918756
vn -0.414367 0.9097446 -0.02578359
vn 0.2917842 0.4459922 -0.8461401
vn 0.8313989 0.344769 -0.4357869
vn -0.03721767 0.4190302 -0.9072092
vn -0.5761089 0.2654358 -0.7730733
vn -0.8925649 0.3264682 0.311041
vn -0.8313882 -0.344781 0.4357978
vn 0.548263 -0.1442303 -0.823775
vn 0.8313989 0.344769 -0.4357869
vn 0.3056625 -0.369988 -0.8773137
vn -0.5506728 0.2759699 -0.7877818
vn -0.1536054 -0.6412905 -0.7517658
vn -0.1801917 -0.6503233 -0.7379774
vn -0.883388 0.06814274 -0.4636618
vn -0.5405211 -0.7208954 -0.4337588
vn -0.9804037 -0.08155225 -0.1793256
vn -0.8313882 -0.344781 0.4357978
vn -0.7239279 -0.6717848 -0.1569513
vn -0.8313882 -0.344781 0.4357978
g pSphere5_0
f 3/3/3 2/2/2 1/1/1
f 4/4/4 1/1/1 2/2/2
f 5/5/5 4/4/4 2/2/2
f 6/6/6 4/4/4 5/5/5
f 7/7/7 6/6/6 5/5/5
f 6/6/6 7/7/7 8/8/8
f 4/4/4 9/9/9 1/1/1
f 6/6/6 10/10/10 4/4/4
f 10/10/10 9/9/9 4/4/4
f 11/11/11 6/6/6 8/8/8
f 10/10/10 6/6/6 11/11/11
f 9/9/9 12/12/12 1/1/1
f 13/13/13 1/1/1 12/12/12
f 14/14/14 11/11/11 8/8/8
f 15/15/15 14/14/14 8/8/8
f 16/16/16 14/14/14 15/15/15
f 17/17/17 16/16/16 15/15/15
f 18/18/18 16/16/16 17/17/17
f 16/16/16 19/19/19 14/14/14
f 20/20/20 19/19/19 16/16/16
f 14/14/14 21/21/21 11/11/11
f 19/19/19 21/21/21 14/14/14
f 22/22/22 10/10/10 11/11/11
f 21/21/21 22/22/22 11/11/11
f 10/10/10 23/23/23 9/9/9
f 23/23/23 10/10/10 22/22/22
f 19/19/19 24/24/24 21/21/21
f 25/25/25 24/24/24 19/19/19
f 21/21/21 26/26/26 22/22/22
f 24/24/24 26/26/26 21/21/21
f 23/23/23 27/27/27 9/9/9
f 9/9/9 27/27/27 12/12/12
f 28/28/28 23/23/23 22/22/22
f 26/26/26 28/28/28 22/22/22
f 24/24/24 29/29/29 26/26/26
f 30/30/30 29/29/29 24/24/24
f 29/29/29 31/31/31 26/26/26
f 26/26/26 31/31/31 28/28/28
f 32/32/32 23/23/23 28/28/28
f 23/23/23 32/32/32 27/27/27
f 27/27/27 33/33/33 12/12/12
f 34/34/34 12/12/12 33/33/33
f 27/27/27 35/35/35 33/33/33
f 32/32/32 35/35/35 27/27/27
f 36/36/36 32/32/32 28/28/28
f 31/31/31 36/36/36 28/28/28
f 29/29/29 37/37/37 31/31/31
f 38/38/38 37/37/37 29/29/29
f 37/37/37 39/39/39 31/31/31
f 31/31/31 39/39/39 36/36/36
f 40/40/40 32/32/32 36/36/36
f 32/32/32 40/40/40 35/35/35
f 35/35/35 41/41/41 33/33/33
f 42/42/42 33/33/33 41/41/41
f 37/37/37 43/43/43 39/39/39
f 44/44/44 43/43/43 37/37/37
f 43/43/43 45/45/45 39/39/39
f 39/39/39 46/46/46 36/36/36
f 39/39/39 45/45/45 46/46/46
f 46/46/46 40/40/40 36/36/36
f 45/45/45 47/47/47 46/46/46
f 46/46/46 47/47/47 48/48/48
f 40/40/40 46/46/46 48/48/48
f 40/40/40 49/49/49 35/35/35
f 40/40/40 48/48/48 49/49/49
f 35/35/35 49/49/49 41/41/41
f 48/48/48 50/50/50 49/49/49
f 49/49/49 51/51/51 41/41/41
f 49/49/49 50/50/50 51/51/51
f 52/52/52 41/41/41 51/51/51
f 50/50/50 53/53/53 51/51/51
f 54/54/54 51/51/51 53/53/53
