g pSphere39
v 8.110578 11.80269 -0.8039428
v 8.117845 11.82963 -0.809334
v 8.106783 11.81263 -0.8292481
v 8.090734 11.78333 -0.7976746
v 8.08416 11.80056 -0.8415046
v 8.077182 11.78003 -0.7949418
v 8.0701 11.7986 -0.842162
v 7.792758 11.79933 -0.8047868
v 8.097317 11.81308 -0.7611722
v 8.084273 11.81209 -0.755615
v 7.801126 11.7774 -0.7489966
v 8.114378 11.81987 -0.782868
v 8.117845 11.82963 -0.809334
v 7.785115 11.7821 -0.7471066
v 7.777348 11.80245 -0.7988913
v 7.761679 11.80615 -0.7470188
v 7.757195 11.8179 -0.7769166
v 7.753106 11.83841 -0.7506453
v 7.766169 11.82644 -0.722119
v 7.753106 11.83841 -0.7506453
v 7.792891 11.81725 -0.7039794
v 7.809504 11.81528 -0.7025325
v 8.084283 11.86271 -0.7635092
v 7.766175 11.85849 -0.7271172
v 7.753106 11.83841 -0.7506453
v 7.792902 11.87276 -0.7126361
v 8.097325 11.86007 -0.7684991
v 7.809515 11.87508 -0.7118595
v 7.761692 11.87024 -0.757015
v 7.753106 11.83841 -0.7506453
v 7.785135 11.89312 -0.7644208
v 8.077201 11.88127 -0.8107296
v 8.114383 11.84699 -0.7870983
v 8.117845 11.82963 -0.809334
v 8.090751 11.87729 -0.8123291
v 7.801148 11.89701 -0.7676497
v 7.757202 11.84995 -0.7819148
v 7.753106 11.83841 -0.7506453
v 7.777359 11.85796 -0.807548
v 8.070109 11.84921 -0.8500559
v 8.110587 11.85694 -0.8124036
v 8.117845 11.82963 -0.809334
v 7.757195 11.8179 -0.7769166
v 7.753106 11.83841 -0.7506453
v 7.777348 11.80245 -0.7988913
v 7.792769 11.85914 -0.8141134
v 7.792758 11.79933 -0.8047868
v 8.0701 11.7986 -0.842162
v 8.084169 11.84754 -0.8488315
v 8.08416 11.80056 -0.8415046
v 8.106788 11.83976 -0.8334785
v 8.117845 11.82963 -0.809334
v 8.106783 11.81263 -0.8292481
v 8.117845 11.82963 -0.809334
vt 0.166626 0.166626
vt 0.08331299 0
vt 0 0.166626
vt 0.166626 0.333252
vt 0 0.333252
vt 0.166626 0.416748
vt 7.152557E-07 0.416748
vt 2.980232E-07 0.5834961
vt 0.333252 0.333252
vt 0.333252 0.416748
vt 0.166626 0.5834961
vt 0.333252 0.166626
vt 0.25 0
vt 0.166626 0.6665039
vt 0 0.6665039
vt 0.166626 0.8334961
vt 0 0.8334961
vt 0.08331299 1
vt 0.333252 0.8334961
vt 0.25 1
vt 0.333252 0.6665039
vt 0.333252 0.5834961
vt 0.5 0.416748
vt 0.5 0.8334961
vt 0.416748 1
vt 0.5 0.6665039
vt 0.5 0.333252
vt 0.5 0.5834961
vt 0.6665039 0.8334961
vt 0.5834961 1
vt 0.6665039 0.6665039
vt 0.6665039 0.416748
vt 0.5 0.166626
vt 0.416748 0
vt 0.6665039 0.333252
vt 0.6665039 0.5834961
vt 0.8334961 0.8334961
vt 0.75 1
vt 0.8334961 0.6665039
vt 0.8334961 0.416748
vt 0.6665039 0.166626
vt 0.5834961 0
vt 1 0.8334961
vt 0.9165039 1
vt 1 0.6665039
vt 0.8334961 0.5834961
vt 1 0.5834961
vt 1 0.416748
vt 0.8334961 0.333252
vt 1 0.333252
vt 0.8334961 0.166626
vt 0.75 0
vt 1 0.166626
vt 0.9165039 0
vn 0.7551529 -0.6551957 -0.02151307
vn 0.9871594 -0.0247997 -0.1578012
vn 0.6661215 -0.4218887 -0.6150544
vn 0.5022051 -0.8631632 0.05233658
vn 0.3831974 -0.5512639 -0.7411261
vn 0.04278412 -0.9882481 0.1467492
vn -0.09699073 -0.6257737 -0.773951
vn -0.121546 -0.6265197 -0.7698699
vn 0.621365 -0.3245152 0.7131587
vn 0.1813468 -0.3628413 0.9140348
vn 0.01831996 -0.9882924 0.1514683
vn 0.8442816 -0.2522757 0.4728061
vn 0.9871594 -0.0247997 -0.1578012
vn -0.5025085 -0.8379344 0.2129582
vn -0.6215189 -0.5260406 -0.5805131
vn -0.75539 -0.6172572 0.2199534
vn -0.8444118 -0.3839452 -0.3735701
vn -0.9871604 0.02480184 0.157795
vn -0.666254 -0.2143395 0.7142578
vn -0.9871604 0.02480184 0.157795
vn -0.3833485 -0.2992841 0.8737693
vn 0.156839 -0.3629457 0.9185162
vn 0.1800076 0.6245801 0.7599322
vn -0.666136 0.4218995 0.6150315
vn -0.9871604 0.02480184 0.157795
vn -0.3831935 0.5512633 0.7411285
vn 0.6215137 0.5260407 0.5805187
vn 0.1556501 0.6247554 0.7651496
vn -0.755154 0.6551949 0.02150142
vn -0.9871604 0.02480184 0.157795
vn -0.5022044 0.8631626 -0.0523533
vn 0.0402176 0.9861819 -0.1607101
vn 0.8443965 0.3839659 0.3735837
vn 0.9871594 -0.0247997 -0.1578012
vn 0.5025072 0.8379387 -0.2129444
vn 0.01580057 0.987595 -0.1562258
vn -0.8442873 0.2522686 -0.4727996
vn -0.9871604 0.02480184 0.157795
vn -0.6213554 0.3245053 -0.7131717
vn -0.09821513 0.3612442 -0.9272844
vn 0.7553646 0.6172903 -0.2199479
vn 0.9871594 -0.0247997 -0.1578012
vn -0.8444118 -0.3839452 -0.3735701
vn -0.9871604 0.02480184 0.157795
vn -0.6215189 -0.5260406 -0.5805131
vn -0.1228731 0.3616699 -0.9241737
vn -0.121546 -0.6265197 -0.7698699
vn -0.09699073 -0.6257737 -0.773951
vn 0.3833503 0.2992805 -0.8737698
vn 0.3831974 -0.5512639 -0.7411261
vn 0.6662303 0.2143597 -0.7142739
vn 0.9871594 -0.0247997 -0.1578012
vn 0.6661215 -0.4218887 -0.6150544
vn 0.9871594 -0.0247997 -0.1578012
g pSphere39_0
f 3/3/3 2/2/2 1/1/1
f 1/1/1 4/4/4 3/3/3
f 4/4/4 5/5/5 3/3/3
f 4/4/4 6/6/6 5/5/5
f 6/6/6 7/7/7 5/5/5
f 7/7/7 6/6/6 8/8/8
f 9/9/9 4/4/4 1/1/1
f 10/10/10 6/6/6 4/4/4
f 9/9/9 10/10/10 4/4/4
f 6/6/6 11/11/11 8/8/8
f 6/6/6 10/10/10 11/11/11
f 12/12/12 9/9/9 1/1/1
f 1/1/1 13/13/13 12/12/12
f 11/11/11 14/14/14 8/8/8
f 14/14/14 15/15/15 8/8/8
f 14/14/14 16/16/16 15/15/15
f 16/16/16 17/17/17 15/15/15
f 16/16/16 18/18/18 17/17/17
f 19/19/19 16/16/16 14/14/14
f 19/19/19 20/20/20 16/16/16
f 21/21/21 14/14/14 11/11/11
f 21/21/21 19/19/19 14/14/14
f 10/10/10 22/22/22 11/11/11
f 22/22/22 21/21/21 11/11/11
f 23/23/23 10/10/10 9/9/9
f 10/10/10 23/23/23 22/22/22
f 24/24/24 19/19/19 21/21/21
f 24/24/24 25/25/25 19/19/19
f 26/26/26 21/21/21 22/22/22
f 26/26/26 24/24/24 21/21/21
f 27/27/27 23/23/23 9/9/9
f 27/27/27 9/9/9 12/12/12
f 23/23/23 28/28/28 22/22/22
f 28/28/28 26/26/26 22/22/22
f 29/29/29 24/24/24 26/26/26
f 29/29/29 30/30/30 24/24/24
f 31/31/31 29/29/29 26/26/26
f 31/31/31 26/26/26 28/28/28
f 23/23/23 32/32/32 28/28/28
f 32/32/32 23/23/23 27/27/27
f 33/33/33 27/27/27 12/12/12
f 12/12/12 34/34/34 33/33/33
f 35/35/35 27/27/27 33/33/33
f 35/35/35 32/32/32 27/27/27
f 32/32/32 36/36/36 28/28/28
f 36/36/36 31/31/31 28/28/28
f 37/37/37 29/29/29 31/31/31
f 37/37/37 38/38/38 29/29/29
f 39/39/39 37/37/37 31/31/31
f 39/39/39 31/31/31 36/36/36
f 32/32/32 40/40/40 36/36/36
f 40/40/40 32/32/32 35/35/35
f 41/41/41 35/35/35 33/33/33
f 33/33/33 42/42/42 41/41/41
f 43/43/43 37/37/37 39/39/39
f 43/43/43 44/44/44 37/37/37
f 45/45/45 43/43/43 39/39/39
f 46/46/46 39/39/39 36/36/36
f 45/45/45 39/39/39 46/46/46
f 40/40/40 46/46/46 36/36/36
f 47/47/47 45/45/45 46/46/46
f 47/47/47 46/46/46 48/48/48
f 46/46/46 40/40/40 48/48/48
f 49/49/49 40/40/40 35/35/35
f 48/48/48 40/40/40 49/49/49
f 49/49/49 35/35/35 41/41/41
f 50/50/50 48/48/48 49/49/49
f 51/51/51 49/49/49 41/41/41
f 50/50/50 49/49/49 51/51/51
f 41/41/41 52/52/52 51/51/51
f 53/53/53 50/50/50 51/51/51
f 51/51/51 54/54/54 53/53/53
