g pSphere14
v -1.256101 0.409948 1.228729
v -1.240383 0.3836626 1.219401
v -1.225013 0.4097345 1.229842
v -1.271744 0.3832169 1.225821
v -1.240383 0.3836626 1.219401
v -1.256101 0.409948 1.228729
v -1.256301 0.3562725 1.224026
v -1.240383 0.3836626 1.219401
v -1.271744 0.3832169 1.225821
v -1.225213 0.356059 1.225139
v -1.240383 0.3836626 1.219401
v -1.256301 0.3562725 1.224026
v -1.209569 0.3827901 1.228047
v -1.240383 0.3836626 1.219401
v -1.225213 0.356059 1.225139
v -1.225013 0.4097345 1.229842
v -1.240383 0.3836626 1.219401
v -1.209569 0.3827901 1.228047
v -1.240297 0.3729921 1.649822
v -1.256215 0.345602 1.654447
v -1.271385 0.3732055 1.648709
v -1.271385 0.3732055 1.648709
v -1.256215 0.345602 1.654447
v -1.287029 0.3464744 1.645801
v -1.287029 0.3464744 1.645801
v -1.256215 0.345602 1.654447
v -1.271585 0.31953 1.644006
v -1.271585 0.31953 1.644006
v -1.256215 0.345602 1.654447
v -1.240497 0.3193166 1.645119
v -1.240497 0.3193166 1.645119
v -1.256215 0.345602 1.654447
v -1.224853 0.3460476 1.648027
v -1.224853 0.3460476 1.648027
v -1.256215 0.345602 1.654447
v -1.240297 0.3729921 1.649822
v -1.225013 0.4097345 1.229842
v -1.213235 0.4293246 1.253282
v -1.269254 0.4297091 1.251277
v -1.256101 0.409948 1.228729
v -1.256101 0.409948 1.228729
v -1.269254 0.4297091 1.251277
v -1.297443 0.3815414 1.246037
v -1.271744 0.3832169 1.225821
v -1.271744 0.3832169 1.225821
v -1.297443 0.3815414 1.246037
v -1.269614 0.3329892 1.242802
v -1.256301 0.3562725 1.224026
v -1.256301 0.3562725 1.224026
v -1.269614 0.3329892 1.242802
v -1.213596 0.3326046 1.244807
v -1.225213 0.356059 1.225139
v -1.225213 0.356059 1.225139
v -1.213596 0.3326046 1.244807
v -1.185406 0.3807723 1.250047
v -1.209569 0.3827901 1.228047
v -1.209569 0.3827901 1.228047
v -1.185406 0.3807723 1.250047
v -1.213235 0.4293246 1.253282
v -1.225013 0.4097345 1.229842
v -1.213235 0.4293246 1.253282
v -1.207383 0.4385526 1.285077
v -1.277237 0.4390321 1.282577
v -1.269254 0.4297091 1.251277
v -1.269254 0.4297091 1.251277
v -1.277237 0.4390321 1.282577
v -1.312389 0.3789679 1.276043
v -1.297443 0.3815414 1.246037
v -1.297443 0.3815414 1.246037
v -1.312389 0.3789679 1.276043
v -1.277686 0.3184243 1.272009
v -1.269614 0.3329892 1.242802
v -1.269614 0.3329892 1.242802
v -1.277686 0.3184243 1.272009
v -1.207833 0.3179448 1.274509
v -1.213596 0.3326046 1.244807
v -1.213596 0.3326046 1.244807
v -1.207833 0.3179448 1.274509
v -1.172681 0.3780089 1.281044
v -1.185406 0.3807723 1.250047
v -1.185406 0.3807723 1.250047
v -1.172681 0.3780089 1.281044
v -1.207383 0.4385526 1.285077
v -1.213235 0.4293246 1.253282
v -1.207383 0.4385526 1.285077
v -1.218911 0.4108403 1.601838
v -1.288765 0.4113198 1.599338
v -1.277237 0.4390321 1.282577
v -1.277237 0.4390321 1.282577
v -1.288765 0.4113198 1.599338
v -1.323917 0.3512557 1.592804
v -1.312389 0.3789679 1.276043
v -1.312389 0.3789679 1.276043
v -1.323917 0.3512557 1.592804
v -1.289214 0.290712 1.58877
v -1.277686 0.3184243 1.272009
v -1.277686 0.3184243 1.272009
v -1.289214 0.290712 1.58877
v -1.219361 0.2902325 1.591271
v -1.207833 0.3179448 1.274509
v -1.207833 0.3179448 1.274509
v -1.219361 0.2902325 1.591271
v -1.184209 0.3502966 1.597805
v -1.172681 0.3780089 1.281044
v -1.172681 0.3780089 1.281044
v -1.184209 0.3502966 1.597805
v -1.218911 0.4108403 1.601838
v -1.207383 0.4385526 1.285077
v -1.218911 0.4108403 1.601838
v -1.226983 0.3962754 1.631046
v -1.283002 0.3966599 1.629041
v -1.288765 0.4113198 1.599338
v -1.288765 0.4113198 1.599338
v -1.283002 0.3966599 1.629041
v -1.311191 0.3484922 1.623801
v -1.323917 0.3512557 1.592804
v -1.323917 0.3512557 1.592804
v -1.311191 0.3484922 1.623801
v -1.283362 0.29994 1.620566
v -1.289214 0.290712 1.58877
v -1.289214 0.290712 1.58877
v -1.283362 0.29994 1.620566
v -1.227344 0.2995554 1.622571
v -1.219361 0.2902325 1.591271
v -1.219361 0.2902325 1.591271
v -1.227344 0.2995554 1.622571
v -1.199154 0.3477232 1.627811
v -1.184209 0.3502966 1.597805
v -1.184209 0.3502966 1.597805
v -1.199154 0.3477232 1.627811
v -1.226983 0.3962754 1.631046
v -1.218911 0.4108403 1.601838
v -1.226983 0.3962754 1.631046
v -1.240297 0.3729921 1.649822
v -1.271385 0.3732055 1.648709
v -1.283002 0.3966599 1.629041
v -1.283002 0.3966599 1.629041
v -1.271385 0.3732055 1.648709
v -1.287029 0.3464744 1.645801
v -1.311191 0.3484922 1.623801
v -1.311191 0.3484922 1.623801
v -1.287029 0.3464744 1.645801
v -1.271585 0.31953 1.644006
v -1.283362 0.29994 1.620566
v -1.283362 0.29994 1.620566
v -1.271585 0.31953 1.644006
v -1.240497 0.3193166 1.645119
v -1.227344 0.2995554 1.622571
v -1.227344 0.2995554 1.622571
v -1.240497 0.3193166 1.645119
v -1.224853 0.3460476 1.648027
v -1.199154 0.3477232 1.627811
v -1.199154 0.3477232 1.627811
v -1.224853 0.3460476 1.648027
v -1.240297 0.3729921 1.649822
v -1.226983 0.3962754 1.631046
vt 0.166626 0.1428223
vt 0.08331299 0
vt 0 0.1428223
vt 0.333252 0.1428223
vt 0.25 0
vt 0.166626 0.1428223
vt 0.5 0.1428223
vt 0.416748 0
vt 0.333252 0.1428223
vt 0.6665039 0.1428223
vt 0.5834961 0
vt 0.5 0.1428223
vt 0.8334961 0.1428223
vt 0.75 0
vt 0.6665039 0.1428223
vt 1 0.1428223
vt 0.9165039 0
vt 0.8334961 0.1428223
vt 0 0.8569336
vt 0.08331299 1
vt 0.166626 0.8569336
vt 0.166626 0.8569336
vt 0.25 1
vt 0.333252 0.8569336
vt 0.333252 0.8569336
vt 0.416748 1
vt 0.5 0.8569336
vt 0.5 0.8569336
vt 0.5834961 1
vt 0.6665039 0.8569336
vt 0.6665039 0.8569336
vt 0.75 1
vt 0.8334961 0.8569336
vt 0.8334961 0.8569336
vt 0.9165039 1
vt 1 0.8569336
vt 0 0.1428223
vt 0 0.2856445
vt 0.166626 0.2856445
vt 0.166626 0.1428223
vt 0.166626 0.1428223
vt 0.166626 0.2856445
vt 0.333252 0.2856445
vt 0.333252 0.1428223
vt 0.333252 0.1428223
vt 0.333252 0.2856445
vt 0.5 0.2856445
vt 0.5 0.1428223
vt 0.5 0.1428223
vt 0.5 0.2856445
vt 0.6665039 0.2856445
vt 0.6665039 0.1428223
vt 0.6665039 0.1428223
vt 0.6665039 0.2856445
vt 0.8334961 0.2856445
vt 0.8334961 0.1428223
vt 0.8334961 0.1428223
vt 0.8334961 0.2856445
vt 1 0.2856445
vt 1 0.1428223
vt 0 0.2856445
vt 0 0.4284668
vt 0.166626 0.4284668
vt 0.166626 0.2856445
vt 0.166626 0.2856445
vt 0.166626 0.4284668
vt 0.333252 0.4284668
vt 0.333252 0.2856445
vt 0.333252 0.2856445
vt 0.333252 0.4284668
vt 0.5 0.4284668
vt 0.5 0.2856445
vt 0.5 0.2856445
vt 0.5 0.4284668
vt 0.6665039 0.4284668
vt 0.6665039 0.2856445
vt 0.6665039 0.2856445
vt 0.6665039 0.4284668
vt 0.8334961 0.4284668
vt 0.8334961 0.2856445
vt 0.8334961 0.2856445
vt 0.8334961 0.4284668
vt 1 0.4284668
vt 1 0.2856445
vt 0 0.4284668
vt 0 0.5712891
vt 0.166626 0.5712891
vt 0.166626 0.4284668
vt 0.166626 0.4284668
vt 0.166626 0.5712891
vt 0.333252 0.5712891
vt 0.333252 0.4284668
vt 0.333252 0.4284668
vt 0.333252 0.5712891
vt 0.5 0.5712891
vt 0.5 0.4284668
vt 0.5 0.4284668
vt 0.5 0.5712891
vt 0.6665039 0.5712891
vt 0.6665039 0.4284668
vt 0.6665039 0.4284668
vt 0.6665039 0.5712891
vt 0.8334961 0.5712891
vt 0.8334961 0.4284668
vt 0.8334961 0.4284668
vt 0.8334961 0.5712891
vt 1 0.5712891
vt 1 0.4284668
vt 0 0.5712891
vt 0 0.7143555
vt 0.166626 0.7143555
vt 0.166626 0.5712891
vt 0.166626 0.5712891
vt 0.166626 0.7143555
vt 0.333252 0.7143555
vt 0.333252 0.5712891
vt 0.333252 0.5712891
vt 0.333252 0.7143555
vt 0.5 0.7143555
vt 0.5 0.5712891
vt 0.5 0.5712891
vt 0.5 0.7143555
vt 0.6665039 0.7143555
vt 0.6665039 0.5712891
vt 0.6665039 0.5712891
vt 0.6665039 0.7143555
vt 0.8334961 0.7143555
vt 0.8334961 0.5712891
vt 0.8334961 0.5712891
vt 0.8334961 0.7143555
vt 1 0.7143555
vt 1 0.5712891
vt 0 0.7143555
vt 0 0.8569336
vt 0.166626 0.8569336
vt 0.166626 0.7143555
vt 0.166626 0.7143555
vt 0.166626 0.8569336
vt 0.333252 0.8569336
vt 0.333252 0.7143555
vt 0.333252 0.7143555
vt 0.333252 0.8569336
vt 0.5 0.8569336
vt 0.5 0.7143555
vt 0.5 0.7143555
vt 0.5 0.8569336
vt 0.6665039 0.8569336
vt 0.6665039 0.7143555
vt 0.6665039 0.7143555
vt 0.6665039 0.8569336
vt 0.8334961 0.8569336
vt 0.8334961 0.7143555
vt 0.8334961 0.7143555
vt 0.8334961 0.8569336
vt 1 0.8569336
vt 1 0.7143555
vn 0.03588395 0.3532304 -0.9348479
vn 0.03588395 0.3532304 -0.9348479
vn 0.03588396 0.3532304 -0.9348479
vn -0.1986436 0.2201471 -0.9550267
vn -0.1986436 0.2201471 -0.9550267
vn -0.1986436 0.2201471 -0.9550267
vn -0.1996491 -0.0492344 -0.9786298
vn -0.1996491 -0.0492344 -0.9786298
vn -0.1996491 -0.0492344 -0.9786298
vn 0.03387361 -0.185527 -0.9820551
vn 0.0338736 -0.185527 -0.9820551
vn 0.0338736 -0.185527 -0.9820551
vn 0.2684128 -0.05243969 -0.9618757
vn 0.2684128 -0.0524397 -0.9618756
vn 0.2684128 -0.0524397 -0.9618756
vn 0.2694164 0.2169326 -0.9382725
vn 0.2694164 0.2169326 -0.9382725
vn 0.2694164 0.2169326 -0.9382725
vn -0.03388456 0.1855256 0.982055
vn -0.03388456 0.1855256 0.982055
vn -0.03388456 0.1855256 0.982055
vn -0.2684036 0.05244689 0.9618778
vn -0.2684036 0.05244689 0.9618778
vn -0.2684036 0.05244689 0.9618778
vn -0.2694087 -0.2169333 0.9382743
vn -0.2694087 -0.2169334 0.9382744
vn -0.2694087 -0.2169333 0.9382743
vn -0.03588938 -0.3532299 0.9348479
vn -0.03588938 -0.3532299 0.9348479
vn -0.03588938 -0.35323 0.9348479
vn 0.1986507 -0.2201475 0.9550251
vn 0.1986507 -0.2201475 0.9550251
vn 0.1986507 -0.2201475 0.9550251
vn 0.1996527 0.04923015 0.9786292
vn 0.1996527 0.04923014 0.9786292
vn 0.1996527 0.04923014 0.9786292
vn 0.02845834 0.7599118 -0.649403
vn 0.02845834 0.7599118 -0.6494029
vn 0.02845834 0.7599118 -0.6494029
vn 0.02845834 0.7599118 -0.6494029
vn -0.5790229 0.4152001 -0.7016705
vn -0.5790229 0.4152001 -0.7016703
vn -0.5790228 0.4152001 -0.7016705
vn -0.5790229 0.4152001 -0.7016705
vn -0.5816218 -0.2825505 -0.7628115
vn -0.5816218 -0.2825505 -0.7628115
vn -0.5816218 -0.2825505 -0.7628115
vn -0.5816218 -0.2825505 -0.7628114
vn 0.02325534 -0.6355858 -0.7716799
vn 0.02325534 -0.6355858 -0.7716799
vn 0.02325534 -0.6355858 -0.7716799
vn 0.02325534 -0.6355858 -0.7716799
vn 0.6307424 -0.2908716 -0.7194148
vn 0.6307424 -0.2908716 -0.7194148
vn 0.6307425 -0.2908716 -0.7194148
vn 0.6307425 -0.2908716 -0.7194148
vn 0.6333453 0.4068758 -0.6582748
vn 0.6333453 0.4068758 -0.6582749
vn 0.6333453 0.4068758 -0.6582748
vn 0.6333452 0.4068758 -0.6582749
vn 0.01666264 0.9594131 -0.2815117
vn 0.01666264 0.9594131 -0.2815117
vn 0.01666264 0.9594131 -0.2815117
vn 0.01666264 0.9594131 -0.2815117
vn -0.791005 0.5011079 -0.3510014
vn -0.791005 0.5011079 -0.3510014
vn -0.791005 0.5011079 -0.3510014
vn -0.7910051 0.5011079 -0.3510013
vn -0.7944644 -0.4265632 -0.4322849
vn -0.7944643 -0.4265632 -0.4322849
vn -0.7944643 -0.4265632 -0.4322849
vn -0.7944643 -0.4265633 -0.432285
vn 0.00974492 -0.895933 -0.4440823
vn 0.009744917 -0.895933 -0.4440823
vn 0.009744918 -0.895933 -0.4440823
vn 0.009744919 -0.895933 -0.4440823
vn 0.8174114 -0.4376276 -0.3745938
vn 0.8174115 -0.4376276 -0.3745938
vn 0.8174115 -0.4376276 -0.3745939
vn 0.8174115 -0.4376276 -0.3745939
vn 0.8208684 0.4900443 -0.2933116
vn 0.8208684 0.4900442 -0.2933116
vn 0.8208684 0.4900443 -0.2933116
vn 0.8208684 0.4900443 -0.2933116
vn 0.003714422 0.9961762 0.08728687
vn 0.003714422 0.9961762 0.08728687
vn 0.003714422 0.9961762 0.08728687
vn 0.003714422 0.9961762 0.08728686
vn -0.8635932 0.50403 0.01266676
vn -0.8635932 0.5040299 0.01266676
vn -0.8635932 0.50403 0.01266676
vn -0.8635932 0.5040299 0.01266676
vn -0.8673065 -0.4921497 -0.07462011
vn -0.8673065 -0.4921497 -0.0746201
vn -0.8673065 -0.4921497 -0.07462011
vn -0.8673065 -0.4921497 -0.0746201
vn -0.003713792 -0.9961762 -0.08728706
vn -0.003713792 -0.9961762 -0.08728705
vn -0.003713792 -0.9961762 -0.08728706
vn -0.003713792 -0.9961762 -0.08728705
vn 0.8635941 -0.5040285 -0.01266682
vn 0.8635941 -0.5040284 -0.01266682
vn 0.8635941 -0.5040284 -0.01266682
vn 0.8635941 -0.5040284 -0.01266682
vn 0.8673085 0.4921461 0.07462006
vn 0.8673085 0.4921461 0.07462005
vn 0.8673084 0.4921462 0.07462008
vn 0.8673085 0.4921461 0.07462005
vn -0.00974492 0.8959331 0.4440822
vn -0.00974492 0.8959331 0.4440822
vn -0.00974492 0.8959331 0.4440822
vn -0.009744918 0.8959331 0.4440822
vn -0.8174083 0.4376312 0.3745967
vn -0.8174083 0.4376312 0.3745967
vn -0.8174083 0.4376312 0.3745968
vn -0.8174083 0.4376312 0.3745967
vn -0.8208666 -0.4900491 0.2933087
vn -0.8208666 -0.4900491 0.2933087
vn -0.8208666 -0.4900491 0.2933087
vn -0.8208666 -0.4900491 0.2933087
vn -0.01666151 -0.9594131 0.2815121
vn -0.01666151 -0.9594131 0.2815121
vn -0.01666151 -0.9594131 0.2815121
vn -0.01666151 -0.9594131 0.2815121
vn 0.7910034 -0.5011093 0.3510028
vn 0.7910033 -0.5011094 0.3510028
vn 0.7910033 -0.5011094 0.3510028
vn 0.7910033 -0.5011094 0.3510028
vn 0.7944622 0.4265642 0.4322879
vn 0.7944622 0.4265642 0.4322879
vn 0.7944622 0.4265642 0.4322878
vn 0.7944622 0.4265642 0.4322879
vn -0.0232572 0.6355852 0.7716802
vn -0.0232572 0.6355852 0.7716803
vn -0.0232572 0.6355852 0.7716803
vn -0.0232572 0.6355852 0.7716802
vn -0.6307424 0.2908753 0.7194134
vn -0.6307424 0.2908753 0.7194134
vn -0.6307424 0.2908752 0.7194134
vn -0.6307423 0.2908753 0.7194134
vn -0.6333435 -0.406875 0.6582771
vn -0.6333435 -0.406875 0.6582771
vn -0.6333435 -0.406875 0.6582771
vn -0.6333435 -0.406875 0.6582771
vn -0.02846201 -0.7599099 0.649405
vn -0.02846201 -0.7599099 0.649405
vn -0.02846201 -0.7599098 0.649405
vn -0.02846201 -0.7599099 0.649405
vn 0.5790257 -0.4151972 0.7016697
vn 0.5790257 -0.4151973 0.7016698
vn 0.5790257 -0.4151972 0.7016697
vn 0.5790257 -0.4151972 0.7016697
vn 0.5816234 0.2825514 0.7628098
vn 0.5816234 0.2825514 0.7628098
vn 0.5816235 0.2825514 0.7628099
vn 0.5816235 0.2825514 0.7628099
g pSphere14_0
f 3/3/3 2/2/2 1/1/1
f 6/6/6 5/5/5 4/4/4
f 9/9/9 8/8/8 7/7/7
f 12/12/12 11/11/11 10/10/10
f 15/15/15 14/14/14 13/13/13
f 18/18/18 17/17/17 16/16/16
f 21/21/21 20/20/20 19/19/19
f 24/24/24 23/23/23 22/22/22
f 27/27/27 26/26/26 25/25/25
f 30/30/30 29/29/29 28/28/28
f 33/33/33 32/32/32 31/31/31
f 36/36/36 35/35/35 34/34/34
f 39/39/39 38/38/38 37/37/37
f 40/40/40 39/39/39 37/37/37
f 43/43/43 42/42/42 41/41/41
f 44/44/44 43/43/43 41/41/41
f 47/47/47 46/46/46 45/45/45
f 48/48/48 47/47/47 45/45/45
f 51/51/51 50/50/50 49/49/49
f 52/52/52 51/51/51 49/49/49
f 55/55/55 54/54/54 53/53/53
f 56/56/56 55/55/55 53/53/53
f 59/59/59 58/58/58 57/57/57
f 60/60/60 59/59/59 57/57/57
f 63/63/63 62/62/62 61/61/61
f 64/64/64 63/63/63 61/61/61
f 67/67/67 66/66/66 65/65/65
f 68/68/68 67/67/67 65/65/65
f 71/71/71 70/70/70 69/69/69
f 72/72/72 71/71/71 69/69/69
f 75/75/75 74/74/74 73/73/73
f 76/76/76 75/75/75 73/73/73
f 79/79/79 78/78/78 77/77/77
f 80/80/80 79/79/79 77/77/77
f 83/83/83 82/82/82 81/81/81
f 84/84/84 83/83/83 81/81/81
f 87/87/87 86/86/86 85/85/85
f 88/88/88 87/87/87 85/85/85
f 91/91/91 90/90/90 89/89/89
f 92/92/92 91/91/91 89/89/89
f 95/95/95 94/94/94 93/93/93
f 96/96/96 95/95/95 93/93/93
f 99/99/99 98/98/98 97/97/97
f 100/100/100 99/99/99 97/97/97
f 103/103/103 102/102/102 101/101/101
f 104/104/104 103/103/103 101/101/101
f 107/107/107 106/106/106 105/105/105
f 108/108/108 107/107/107 105/105/105
f 111/111/111 110/110/110 109/109/109
f 112/112/112 111/111/111 109/109/109
f 115/115/115 114/114/114 113/113/113
f 116/116/116 115/115/115 113/113/113
f 119/119/119 118/118/118 117/117/117
f 120/120/120 119/119/119 117/117/117
f 123/123/123 122/122/122 121/121/121
f 124/124/124 123/123/123 121/121/121
f 127/127/127 126/126/126 125/125/125
f 128/128/128 127/127/127 125/125/125
f 131/131/131 130/130/130 129/129/129
f 132/132/132 131/131/131 129/129/129
f 135/135/135 134/134/134 133/133/133
f 136/136/136 135/135/135 133/133/133
f 139/139/139 138/138/138 137/137/137
f 140/140/140 139/139/139 137/137/137
f 143/143/143 142/142/142 141/141/141
f 144/144/144 143/143/143 141/141/141
f 147/147/147 146/146/146 145/145/145
f 148/148/148 147/147/147 145/145/145
f 151/151/151 150/150/150 149/149/149
f 152/152/152 151/151/151 149/149/149
f 155/155/155 154/154/154 153/153/153
f 156/156/156 155/155/155 153/153/153
