g pSphere29
v -1.206796 0.5386033 -0.7773818
v -1.190132 0.5137295 -0.7885553
v -1.175808 0.5386811 -0.7746466
v -1.221746 0.5121771 -0.7841547
v -1.190132 0.5137295 -0.7885553
v -1.206796 0.5386033 -0.7773818
v -1.205709 0.4858286 -0.7881924
v -1.190132 0.5137295 -0.7885553
v -1.221746 0.5121771 -0.7841547
v -1.174721 0.4859063 -0.7854572
v -1.190132 0.5137295 -0.7885553
v -1.205709 0.4858286 -0.7881924
v -1.159771 0.5123326 -0.7786843
v -1.190132 0.5137295 -0.7885553
v -1.174721 0.4859063 -0.7854572
v -1.175808 0.5386811 -0.7746466
v -1.190132 0.5137295 -0.7885553
v -1.159771 0.5123326 -0.7786843
v -1.223751 0.4257718 -0.2282688
v -1.239328 0.397871 -0.2279059
v -1.254739 0.425694 -0.2310041
v -1.254739 0.425694 -0.2310041
v -1.239328 0.397871 -0.2279059
v -1.26969 0.3992678 -0.2377769
v -1.26969 0.3992678 -0.2377769
v -1.239328 0.397871 -0.2279059
v -1.253652 0.3729193 -0.2418146
v -1.253652 0.3729193 -0.2418146
v -1.239328 0.397871 -0.2279059
v -1.222664 0.3729971 -0.2390794
v -1.222664 0.3729971 -0.2390794
v -1.239328 0.397871 -0.2279059
v -1.207714 0.3994233 -0.2323065
v -1.207714 0.3994233 -0.2323065
v -1.239328 0.397871 -0.2279059
v -1.223751 0.4257718 -0.2282688
v -1.175808 0.5386811 -0.7746466
v -1.165573 0.5557414 -0.749221
v -1.221411 0.5556014 -0.7541496
v -1.206796 0.5386033 -0.7773818
v -1.206796 0.5386033 -0.7773818
v -1.221411 0.5556014 -0.7541496
v -1.248351 0.5079829 -0.7663539
v -1.221746 0.5121771 -0.7841547
v -1.221746 0.5121771 -0.7841547
v -1.248351 0.5079829 -0.7663539
v -1.219453 0.4605046 -0.7736296
v -1.205709 0.4858286 -0.7881924
v -1.205709 0.4858286 -0.7881924
v -1.219453 0.4605046 -0.7736296
v -1.163615 0.4606446 -0.768701
v -1.174721 0.4859063 -0.7854572
v -1.174721 0.4859063 -0.7854572
v -1.163615 0.4606446 -0.768701
v -1.136675 0.5082631 -0.7564967
v -1.159771 0.5123326 -0.7786843
v -1.159771 0.5123326 -0.7786843
v -1.136675 0.5082631 -0.7564967
v -1.165573 0.5557414 -0.749221
v -1.175808 0.5386811 -0.7746466
v -1.165573 0.5557414 -0.749221
v -1.161454 0.5615316 -0.7173144
v -1.231084 0.5613569 -0.7234601
v -1.221411 0.5556014 -0.7541496
v -1.221411 0.5556014 -0.7541496
v -1.231084 0.5613569 -0.7234601
v -1.264678 0.5019776 -0.7386788
v -1.248351 0.5079829 -0.7663539
v -1.248351 0.5079829 -0.7663539
v -1.264678 0.5019776 -0.7386788
v -1.228642 0.4427732 -0.7477514
v -1.219453 0.4605046 -0.7736296
v -1.219453 0.4605046 -0.7736296
v -1.228642 0.4427732 -0.7477514
v -1.159013 0.4429479 -0.7416055
v -1.163615 0.4606446 -0.768701
v -1.163615 0.4606446 -0.768701
v -1.159013 0.4429479 -0.7416055
v -1.125419 0.5023271 -0.726387
v -1.136675 0.5082631 -0.7564967
v -1.136675 0.5082631 -0.7564967
v -1.125419 0.5023271 -0.726387
v -1.161454 0.5615316 -0.7173144
v -1.165573 0.5557414 -0.749221
v -1.161454 0.5615316 -0.7173144
v -1.200818 0.4688272 -0.2687099
v -1.270448 0.4686525 -0.2748556
v -1.231084 0.5613569 -0.7234601
v -1.231084 0.5613569 -0.7234601
v -1.270448 0.4686525 -0.2748556
v -1.304041 0.4092734 -0.2900743
v -1.264678 0.5019776 -0.7386788
v -1.264678 0.5019776 -0.7386788
v -1.304041 0.4092734 -0.2900743
v -1.268006 0.3500688 -0.299147
v -1.228642 0.4427732 -0.7477514
v -1.228642 0.4427732 -0.7477514
v -1.268006 0.3500688 -0.299147
v -1.198377 0.3502435 -0.293001
v -1.159013 0.4429479 -0.7416055
v -1.159013 0.4429479 -0.7416055
v -1.198377 0.3502435 -0.293001
v -1.164783 0.4096227 -0.2777825
v -1.125419 0.5023271 -0.726387
v -1.125419 0.5023271 -0.726387
v -1.164783 0.4096227 -0.2777825
v -1.200818 0.4688272 -0.2687099
v -1.161454 0.5615316 -0.7173144
v -1.200818 0.4688272 -0.2687099
v -1.210007 0.4510958 -0.2428316
v -1.265845 0.4509557 -0.2477602
v -1.270448 0.4686525 -0.2748556
v -1.270448 0.4686525 -0.2748556
v -1.265845 0.4509557 -0.2477602
v -1.292786 0.4033373 -0.2599646
v -1.304041 0.4092734 -0.2900743
v -1.304041 0.4092734 -0.2900743
v -1.292786 0.4033373 -0.2599646
v -1.263887 0.3558589 -0.2672402
v -1.268006 0.3500688 -0.299147
v -1.268006 0.3500688 -0.299147
v -1.263887 0.3558589 -0.2672402
v -1.208049 0.3559991 -0.2623117
v -1.198377 0.3502435 -0.293001
v -1.198377 0.3502435 -0.293001
v -1.208049 0.3559991 -0.2623117
v -1.181109 0.4036175 -0.2501073
v -1.164783 0.4096227 -0.2777825
v -1.164783 0.4096227 -0.2777825
v -1.181109 0.4036175 -0.2501073
v -1.210007 0.4510958 -0.2428316
v -1.200818 0.4688272 -0.2687099
v -1.210007 0.4510958 -0.2428316
v -1.223751 0.4257718 -0.2282688
v -1.254739 0.425694 -0.2310041
v -1.265845 0.4509557 -0.2477602
v -1.265845 0.4509557 -0.2477602
v -1.254739 0.425694 -0.2310041
v -1.26969 0.3992678 -0.2377769
v -1.292786 0.4033373 -0.2599646
v -1.292786 0.4033373 -0.2599646
v -1.26969 0.3992678 -0.2377769
v -1.253652 0.3729193 -0.2418146
v -1.263887 0.3558589 -0.2672402
v -1.263887 0.3558589 -0.2672402
v -1.253652 0.3729193 -0.2418146
v -1.222664 0.3729971 -0.2390794
v -1.208049 0.3559991 -0.2623117
v -1.208049 0.3559991 -0.2623117
v -1.222664 0.3729971 -0.2390794
v -1.207714 0.3994233 -0.2323065
v -1.181109 0.4036175 -0.2501073
v -1.181109 0.4036175 -0.2501073
v -1.207714 0.3994233 -0.2323065
v -1.223751 0.4257718 -0.2282688
v -1.210007 0.4510958 -0.2428316
vt 0.166626 0.1428223
vt 0.08331299 0
vt 0 0.1428223
vt 0.333252 0.1428223
vt 0.25 0
vt 0.166626 0.1428223
vt 0.5 0.1428223
vt 0.416748 0
vt 0.333252 0.1428223
vt 0.6665039 0.1428223
vt 0.5834961 0
vt 0.5 0.1428223
vt 0.8334961 0.1428223
vt 0.75 0
vt 0.6665039 0.1428223
vt 1 0.1428223
vt 0.9165039 0
vt 0.8334961 0.1428223
vt 0 0.8569336
vt 0.08331299 1
vt 0.166626 0.8569336
vt 0.166626 0.8569336
vt 0.25 1
vt 0.333252 0.8569336
vt 0.333252 0.8569336
vt 0.416748 1
vt 0.5 0.8569336
vt 0.5 0.8569336
vt 0.5834961 1
vt 0.6665039 0.8569336
vt 0.6665039 0.8569336
vt 0.75 1
vt 0.8334961 0.8569336
vt 0.8334961 0.8569336
vt 0.9165039 1
vt 1 0.8569336
vt 0 0.1428223
vt 0 0.2856445
vt 0.166626 0.2856445
vt 0.166626 0.1428223
vt 0.166626 0.1428223
vt 0.166626 0.2856445
vt 0.333252 0.2856445
vt 0.333252 0.1428223
vt 0.333252 0.1428223
vt 0.333252 0.2856445
vt 0.5 0.2856445
vt 0.5 0.1428223
vt 0.5 0.1428223
vt 0.5 0.2856445
vt 0.6665039 0.2856445
vt 0.6665039 0.1428223
vt 0.6665039 0.1428223
vt 0.6665039 0.2856445
vt 0.8334961 0.2856445
vt 0.8334961 0.1428223
vt 0.8334961 0.1428223
vt 0.8334961 0.2856445
vt 1 0.2856445
vt 1 0.1428223
vt 0 0.2856445
vt 0 0.4284668
vt 0.166626 0.4284668
vt 0.166626 0.2856445
vt 0.166626 0.2856445
vt 0.166626 0.4284668
vt 0.333252 0.4284668
vt 0.333252 0.2856445
vt 0.333252 0.2856445
vt 0.333252 0.4284668
vt 0.5 0.4284668
vt 0.5 0.2856445
vt 0.5 0.2856445
vt 0.5 0.4284668
vt 0.6665039 0.4284668
vt 0.6665039 0.2856445
vt 0.6665039 0.2856445
vt 0.6665039 0.4284668
vt 0.8334961 0.4284668
vt 0.8334961 0.2856445
vt 0.8334961 0.2856445
vt 0.8334961 0.4284668
vt 1 0.4284668
vt 1 0.2856445
vt 0 0.4284668
vt 0 0.5712891
vt 0.166626 0.5712891
vt 0.166626 0.4284668
vt 0.166626 0.4284668
vt 0.166626 0.5712891
vt 0.333252 0.5712891
vt 0.333252 0.4284668
vt 0.333252 0.4284668
vt 0.333252 0.5712891
vt 0.5 0.5712891
vt 0.5 0.4284668
vt 0.5 0.4284668
vt 0.5 0.5712891
vt 0.6665039 0.5712891
vt 0.6665039 0.4284668
vt 0.6665039 0.4284668
vt 0.6665039 0.5712891
vt 0.8334961 0.5712891
vt 0.8334961 0.4284668
vt 0.8334961 0.4284668
vt 0.8334961 0.5712891
vt 1 0.5712891
vt 1 0.4284668
vt 0 0.5712891
vt 0 0.7143555
vt 0.166626 0.7143555
vt 0.166626 0.5712891
vt 0.166626 0.5712891
vt 0.166626 0.7143555
vt 0.333252 0.7143555
vt 0.333252 0.5712891
vt 0.333252 0.5712891
vt 0.333252 0.7143555
vt 0.5 0.7143555
vt 0.5 0.5712891
vt 0.5 0.5712891
vt 0.5 0.7143555
vt 0.6665039 0.7143555
vt 0.6665039 0.5712891
vt 0.6665039 0.5712891
vt 0.6665039 0.7143555
vt 0.8334961 0.7143555
vt 0.8334961 0.5712891
vt 0.8334961 0.5712891
vt 0.8334961 0.7143555
vt 1 0.7143555
vt 1 0.5712891
vt 0 0.7143555
vt 0 0.8569336
vt 0.166626 0.8569336
vt 0.166626 0.7143555
vt 0.166626 0.7143555
vt 0.166626 0.8569336
vt 0.333252 0.8569336
vt 0.333252 0.7143555
vt 0.333252 0.7143555
vt 0.333252 0.8569336
vt 0.5 0.8569336
vt 0.5 0.7143555
vt 0.5 0.7143555
vt 0.5 0.8569336
vt 0.6665039 0.8569336
vt 0.6665039 0.7143555
vt 0.6665039 0.7143555
vt 0.6665039 0.8569336
vt 0.8334961 0.8569336
vt 0.8334961 0.7143555
vt 0.8334961 0.7143555
vt 0.8334961 0.8569336
vt 1 0.8569336
vt 1 0.7143555
vn 0.07734187 0.4511917 -0.8890694
vn 0.07734189 0.4511917 -0.8890694
vn 0.07734189 0.4511917 -0.8890694
vn -0.1460217 0.3223208 -0.9353005
vn -0.1460217 0.3223208 -0.9353005
vn -0.1460217 0.3223208 -0.9353005
vn -0.1407368 0.06572236 -0.9878633
vn -0.1407368 0.06572236 -0.9878633
vn -0.1407368 0.06572235 -0.9878633
vn 0.08790612 -0.06201254 -0.9941967
vn 0.08790612 -0.06201254 -0.9941967
vn 0.08790612 -0.06201255 -0.9941967
vn 0.3112758 0.06685385 -0.9479651
vn 0.3112758 0.06685385 -0.9479651
vn 0.3112758 0.06685385 -0.9479651
vn 0.3059861 0.323458 -0.8954034
vn 0.3059861 0.323458 -0.8954034
vn 0.3059861 0.323458 -0.8954034
vn -0.08790932 0.0620138 0.9941962
vn -0.08790931 0.0620138 0.9941962
vn -0.08790931 0.0620138 0.9941962
vn -0.3112713 -0.06685463 0.9479665
vn -0.3112713 -0.06685464 0.9479665
vn -0.3112713 -0.06685463 0.9479665
vn -0.3059857 -0.3234577 0.8954037
vn -0.3059858 -0.3234577 0.8954037
vn -0.3059858 -0.3234577 0.8954037
vn -0.0773387 -0.451189 0.889071
vn -0.0773387 -0.451189 0.889071
vn -0.07733869 -0.451189 0.889071
vn 0.1460185 -0.3223245 0.9352996
vn 0.1460185 -0.3223245 0.9352996
vn 0.1460185 -0.3223245 0.9352996
vn 0.1407344 -0.0657193 0.9878637
vn 0.1407344 -0.0657193 0.9878637
vn 0.1407344 -0.0657193 0.9878637
vn 0.04824108 0.8203289 -0.5698537
vn 0.04824107 0.8203289 -0.5698537
vn 0.04824108 0.8203289 -0.5698537
vn 0.04824108 0.8203289 -0.5698537
vn -0.5384849 0.4818215 -0.6912901
vn -0.5384849 0.4818215 -0.6912903
vn -0.5384849 0.4818214 -0.6912903
vn -0.5384849 0.4818215 -0.6912903
vn -0.5246053 -0.1922162 -0.8293625
vn -0.5246053 -0.1922162 -0.8293626
vn -0.5246053 -0.1922162 -0.8293625
vn -0.5246053 -0.1922162 -0.8293625
vn 0.0759958 -0.5277416 -0.8459985
vn 0.0759958 -0.5277416 -0.8459985
vn 0.0759958 -0.5277416 -0.8459985
vn 0.0759958 -0.5277416 -0.8459985
vn 0.6627229 -0.1892338 -0.7245613
vn 0.6627229 -0.1892338 -0.7245612
vn 0.6627229 -0.1892338 -0.7245612
vn 0.6627229 -0.1892338 -0.7245613
vn 0.6488459 0.4847995 -0.5864882
vn 0.6488459 0.4847995 -0.5864882
vn 0.648846 0.4847994 -0.5864882
vn 0.6488459 0.4847995 -0.5864882
vn 0.01343946 0.9835346 -0.1802192
vn 0.01343946 0.9835346 -0.1802192
vn 0.01343947 0.9835346 -0.1802192
vn 0.01343946 0.9835346 -0.1802192
vn -0.7768238 0.5275974 -0.3437815
vn -0.7768238 0.5275975 -0.3437815
vn -0.7768238 0.5275974 -0.3437815
vn -0.7768238 0.5275974 -0.3437815
vn -0.7581313 -0.3802659 -0.5297496
vn -0.7581314 -0.3802658 -0.5297496
vn -0.7581314 -0.3802658 -0.5297496
vn -0.7581314 -0.3802659 -0.5297496
vn 0.05082459 -0.8321905 -0.5521558
vn 0.0508246 -0.8321904 -0.5521559
vn 0.0508246 -0.8321905 -0.5521558
vn 0.05082459 -0.8321904 -0.5521559
vn 0.8410882 -0.3762508 -0.3885947
vn 0.8410882 -0.3762508 -0.3885948
vn 0.8410882 -0.3762508 -0.3885948
vn 0.8410882 -0.3762508 -0.3885947
vn 0.8223943 0.5316105 -0.2026277
vn 0.8223943 0.5316105 -0.2026277
vn 0.8223943 0.5316105 -0.2026277
vn 0.8223943 0.5316105 -0.2026277
vn -0.02016658 0.9794583 0.2006359
vn -0.02016658 0.9794583 0.2006359
vn -0.02016658 0.9794583 0.2006359
vn -0.02016658 0.9794583 0.2006359
vn -0.8727518 0.4875655 0.02417374
vn -0.8727517 0.4875655 0.02417374
vn -0.8727517 0.4875655 0.02417374
vn -0.8727518 0.4875655 0.02417374
vn -0.8525845 -0.4918951 -0.176462
vn -0.8525845 -0.4918952 -0.176462
vn -0.8525845 -0.491895 -0.1764619
vn -0.8525845 -0.4918952 -0.1764619
vn 0.02016692 -0.9794582 -0.2006361
vn 0.02016692 -0.9794582 -0.200636
vn 0.02016692 -0.9794582 -0.2006361
vn 0.02016692 -0.9794582 -0.2006361
vn 0.8727522 -0.4875645 -0.02417379
vn 0.8727522 -0.4875645 -0.02417379
vn 0.8727522 -0.4875645 -0.02417379
vn 0.8727522 -0.4875645 -0.02417379
vn 0.852585 0.4918944 0.1764621
vn 0.852585 0.4918943 0.1764621
vn 0.852585 0.4918943 0.1764621
vn 0.852585 0.4918943 0.1764621
vn -0.05082409 0.8321884 0.5521588
vn -0.05082409 0.8321884 0.5521587
vn -0.05082409 0.8321884 0.5521587
vn -0.05082409 0.8321884 0.5521587
vn -0.8410878 0.3762498 0.3885967
vn -0.8410878 0.3762499 0.3885968
vn -0.8410878 0.3762499 0.3885968
vn -0.8410878 0.3762499 0.3885968
vn -0.8223963 -0.5316085 0.2026244
vn -0.8223963 -0.5316085 0.2026244
vn -0.8223963 -0.5316085 0.2026244
vn -0.8223963 -0.5316085 0.2026244
vn -0.01343864 -0.9835349 0.1802178
vn -0.01343864 -0.9835349 0.1802178
vn -0.01343864 -0.9835349 0.1802178
vn -0.01343864 -0.9835349 0.1802178
vn 0.7768236 -0.5275972 0.3437823
vn 0.7768235 -0.5275972 0.3437823
vn 0.7768235 -0.5275972 0.3437823
vn 0.7768235 -0.5275974 0.3437823
vn 0.758131 0.3802626 0.5297524
vn 0.758131 0.3802626 0.5297524
vn 0.758131 0.3802626 0.5297525
vn 0.758131 0.3802626 0.5297524
vn -0.07599968 0.5277411 0.8459985
vn -0.07599968 0.5277411 0.8459985
vn -0.07599967 0.527741 0.8459985
vn -0.07599968 0.5277411 0.8459985
vn -0.6627232 0.1892369 0.7245601
vn -0.6627232 0.1892369 0.7245601
vn -0.6627232 0.1892369 0.7245601
vn -0.6627232 0.1892369 0.7245601
vn -0.6488469 -0.4847987 0.5864877
vn -0.6488469 -0.4847987 0.5864877
vn -0.6488469 -0.4847987 0.5864877
vn -0.6488469 -0.4847987 0.5864877
vn -0.04823652 -0.8203295 0.5698532
vn -0.04823653 -0.8203296 0.5698531
vn -0.04823652 -0.8203295 0.5698532
vn -0.04823652 -0.8203295 0.5698532
vn 0.5384853 -0.481822 0.6912895
vn 0.5384853 -0.481822 0.6912895
vn 0.5384853 -0.4818219 0.6912895
vn 0.5384853 -0.481822 0.6912895
vn 0.5246105 0.1922144 0.8293597
vn 0.5246105 0.1922144 0.8293597
vn 0.5246104 0.1922144 0.8293597
vn 0.5246105 0.1922144 0.8293597
g pSphere29_0
f 3/3/3 2/2/2 1/1/1
f 6/6/6 5/5/5 4/4/4
f 9/9/9 8/8/8 7/7/7
f 12/12/12 11/11/11 10/10/10
f 15/15/15 14/14/14 13/13/13
f 18/18/18 17/17/17 16/16/16
f 21/21/21 20/20/20 19/19/19
f 24/24/24 23/23/23 22/22/22
f 27/27/27 26/26/26 25/25/25
f 30/30/30 29/29/29 28/28/28
f 33/33/33 32/32/32 31/31/31
f 36/36/36 35/35/35 34/34/34
f 39/39/39 38/38/38 37/37/37
f 40/40/40 39/39/39 37/37/37
f 43/43/43 42/42/42 41/41/41
f 44/44/44 43/43/43 41/41/41
f 47/47/47 46/46/46 45/45/45
f 48/48/48 47/47/47 45/45/45
f 51/51/51 50/50/50 49/49/49
f 52/52/52 51/51/51 49/49/49
f 55/55/55 54/54/54 53/53/53
f 56/56/56 55/55/55 53/53/53
f 59/59/59 58/58/58 57/57/57
f 60/60/60 59/59/59 57/57/57
f 63/63/63 62/62/62 61/61/61
f 64/64/64 63/63/63 61/61/61
f 67/67/67 66/66/66 65/65/65
f 68/68/68 67/67/67 65/65/65
f 71/71/71 70/70/70 69/69/69
f 72/72/72 71/71/71 69/69/69
f 75/75/75 74/74/74 73/73/73
f 76/76/76 75/75/75 73/73/73
f 79/79/79 78/78/78 77/77/77
f 80/80/80 79/79/79 77/77/77
f 83/83/83 82/82/82 81/81/81
f 84/84/84 83/83/83 81/81/81
f 87/87/87 86/86/86 85/85/85
f 88/88/88 87/87/87 85/85/85
f 91/91/91 90/90/90 89/89/89
f 92/92/92 91/91/91 89/89/89
f 95/95/95 94/94/94 93/93/93
f 96/96/96 95/95/95 93/93/93
f 99/99/99 98/98/98 97/97/97
f 100/100/100 99/99/99 97/97/97
f 103/103/103 102/102/102 101/101/101
f 104/104/104 103/103/103 101/101/101
f 107/107/107 106/106/106 105/105/105
f 108/108/108 107/107/107 105/105/105
f 111/111/111 110/110/110 109/109/109
f 112/112/112 111/111/111 109/109/109
f 115/115/115 114/114/114 113/113/113
f 116/116/116 115/115/115 113/113/113
f 119/119/119 118/118/118 117/117/117
f 120/120/120 119/119/119 117/117/117
f 123/123/123 122/122/122 121/121/121
f 124/124/124 123/123/123 121/121/121
f 127/127/127 126/126/126 125/125/125
f 128/128/128 127/127/127 125/125/125
f 131/131/131 130/130/130 129/129/129
f 132/132/132 131/131/131 129/129/129
f 135/135/135 134/134/134 133/133/133
f 136/136/136 135/135/135 133/133/133
f 139/139/139 138/138/138 137/137/137
f 140/140/140 139/139/139 137/137/137
f 143/143/143 142/142/142 141/141/141
f 144/144/144 143/143/143 141/141/141
f 147/147/147 146/146/146 145/145/145
f 148/148/148 147/147/147 145/145/145
f 151/151/151 150/150/150 149/149/149
f 152/152/152 151/151/151 149/149/149
f 155/155/155 154/154/154 153/153/153
f 156/156/156 155/155/155 153/153/153
