g RWrist
v -6.457604 11.7539 -0.5770354
v -6.457604 11.78909 -0.5624586
v -6.467503 11.7539 -0.5272669
v -6.429412 11.7539 -0.619227
v -6.429412 11.81893 -0.5922925
v -6.387221 11.7539 -0.6474186
v -6.387221 11.83886 -0.612227
v -6.337451 11.7539 -0.6573181
v -6.337452 11.84586 -0.619227
v -6.287684 11.7539 -0.6474186
v -6.287684 11.83886 -0.612227
v -6.245492 11.7539 -0.619227
v -6.245492 11.81893 -0.5922925
v -6.217301 11.7539 -0.5770354
v -6.217301 11.78909 -0.5624586
v -6.207401 11.7539 -0.5272669
v -6.217301 11.71871 -0.5624586
v -6.207401 11.7539 -0.5272669
v -6.245492 11.68888 -0.5922925
v -6.287684 11.66894 -0.612227
v -6.337453 11.66194 -0.619227
v -6.217301 11.70413 -0.5272669
v -6.207401 11.7539 -0.5272669
v -6.245492 11.66194 -0.5272669
v -6.387221 11.66894 -0.612227
v -6.287684 11.63375 -0.5272669
v -6.217301 11.71871 -0.4920753
v -6.207401 11.7539 -0.5272669
v -6.245492 11.68888 -0.4622413
v -6.337453 11.62385 -0.5272669
v -6.429411 11.68888 -0.5922925
v -6.217301 11.7539 -0.4774985
v -6.207401 11.7539 -0.5272669
v -6.287684 11.66894 -0.4423069
v -6.387221 11.63375 -0.5272669
v -6.457604 11.71871 -0.5624586
v -6.467503 11.7539 -0.5272669
v -6.245492 11.7539 -0.4353069
v -6.337453 11.66194 -0.4353069
v -6.429412 11.66194 -0.5272669
v -6.217301 11.78909 -0.4920753
v -6.207401 11.7539 -0.5272669
v -6.287684 11.7539 -0.4071153
v -6.387221 11.66894 -0.4423069
v -6.457604 11.70413 -0.5272669
v -6.467503 11.7539 -0.5272669
v -6.245492 11.81893 -0.4622413
v -6.337451 11.7539 -0.3972158
v -6.429411 11.68888 -0.4622413
v -6.217301 11.80367 -0.5272669
v -6.207401 11.7539 -0.5272669
v -6.287684 11.83886 -0.4423069
v -6.387221 11.7539 -0.4071153
v -6.457604 11.71871 -0.4920753
v -6.467503 11.7539 -0.5272669
v -6.245492 11.84586 -0.5272669
v -6.337453 11.84586 -0.4353068
v -6.429412 11.7539 -0.4353069
v -6.217301 11.78909 -0.5624586
v -6.207401 11.7539 -0.5272669
v -6.245492 11.81893 -0.5922925
v -6.287684 11.87405 -0.5272669
v -6.287684 11.83886 -0.612227
v -6.337453 11.88395 -0.5272669
v -6.337452 11.84586 -0.619227
v -6.387221 11.83886 -0.4423069
v -6.387221 11.87405 -0.5272669
v -6.387221 11.83886 -0.612227
v -6.429412 11.81893 -0.4622413
v -6.429412 11.84586 -0.5272669
v -6.429412 11.81893 -0.5922925
v -6.457604 11.7539 -0.4774985
v -6.467503 11.7539 -0.5272669
v -6.457604 11.78909 -0.4920753
v -6.467503 11.7539 -0.5272669
v -6.457604 11.80367 -0.5272669
v -6.467503 11.7539 -0.5272669
v -6.457604 11.78909 -0.5624586
v -6.467503 11.7539 -0.5272669
v -7.108209 11.82241 -0.6707241
v -7.098467 11.86293 -0.6287064
v -7.146129 11.82569 -0.5272669
v -7.014621 11.81429 -0.7923412
v -6.996889 11.8892 -0.7147027
v -6.881382 11.80274 -0.873603
v -6.861672 11.9009 -0.7721636
v -6.737781 11.79028 -0.9021385
v -6.722508 11.89707 -0.7923412
v -6.611221 11.77931 -0.873603
v -6.60221 11.8784 -0.7721636
v -6.515899 11.77104 -0.7923412
v -6.50932 11.84691 -0.7147027
v -6.45441 11.76571 -0.6707241
v -6.450848 11.80677 -0.6287064
v -6.432817 11.76384 -0.5272669
v -6.457969 11.72465 -0.6287064
v -6.432817 11.76384 -0.5272669
v -6.522479 11.69517 -0.7147027
v -6.619403 11.68014 -0.7721636
v -6.741119 11.68246 -0.7923412
v -6.459445 11.70764 -0.5272669
v -6.432817 11.76384 -0.5272669
v -6.525204 11.66374 -0.5272669
v -6.878865 11.70264 -0.7721636
v -6.622546 11.63904 -0.5272669
v -6.457969 11.72465 -0.4258274
v -6.432817 11.76384 -0.5272669
v -6.522479 11.69517 -0.3398311
v -6.74309 11.63785 -0.5272669
v -7.010048 11.73745 -0.7147027
v -6.45441 11.76571 -0.3838098
v -6.432817 11.76384 -0.5272669
v -6.619403 11.68014 -0.2823703
v -6.881598 11.6615 -0.5272669
v -7.10559 11.78081 -0.6287064
v -7.146129 11.82569 -0.5272669
v -6.515899 11.77104 -0.2621927
v -6.741119 11.68246 -0.2621927
v -7.014719 11.70619 -0.5272669
v -6.450848 11.80677 -0.4258274
v -6.432817 11.76384 -0.5272669
v -6.611221 11.77931 -0.1809308
v -6.878865 11.70264 -0.2823703
v -7.109584 11.76402 -0.5272669
v -7.146129 11.82569 -0.5272669
v -6.50932 11.84691 -0.3398311
v -6.737781 11.79028 -0.1523954
v -7.010048 11.73745 -0.3398311
v -6.449373 11.82378 -0.5272669
v -6.432817 11.76384 -0.5272669
v -6.60221 11.8784 -0.2823703
v -6.881382 11.80274 -0.1809308
v -7.10559 11.78081 -0.4258274
v -7.146129 11.82569 -0.5272669
v -6.506594 11.87834 -0.5272669
v -6.722508 11.89707 -0.2621927
v -7.014621 11.81429 -0.2621927
v -6.450848 11.80677 -0.6287064
v -6.432817 11.76384 -0.5272669
v -6.50932 11.84691 -0.7147027
v -6.598232 11.91943 -0.5272669
v -6.60221 11.8784 -0.7721636
v -6.716771 11.94135 -0.5272669
v -6.722508 11.89707 -0.7923412
v -6.861672 11.9009 -0.2823703
v -6.857284 11.9419 -0.5272669
v -6.861672 11.9009 -0.7721636
v -6.996889 11.8892 -0.3398311
v -6.996109 11.92079 -0.5272669
v -6.996889 11.8892 -0.7147027
v -7.108209 11.82241 -0.3838098
v -7.146129 11.82569 -0.5272669
v -7.098467 11.86293 -0.4258274
v -7.146129 11.82569 -0.5272669
v -7.099512 11.88016 -0.5272669
v -7.146129 11.82569 -0.5272669
v -7.098467 11.86293 -0.6287064
v -7.146129 11.82569 -0.5272669
vt 0.125 0.125
vt 0 0.125
vt 0.0625 0
vt 0.125 0.25
vt 0 0.25
vt 0.125 0.375
vt 0 0.375
vt 0.125 0.5
vt 0 0.5
vt 0.125 0.625
vt 0 0.625
vt 0.125 0.75
vt 0 0.75
vt 0.125 0.875
vt 0 0.875
vt 0.0625 1
vt 0.25 0.875
vt 0.1875 1
vt 0.25 0.75
vt 0.25 0.625
vt 0.25 0.5
vt 0.375 0.875
vt 0.3125 1
vt 0.375 0.75
vt 0.25 0.375
vt 0.375 0.625
vt 0.5 0.875
vt 0.4375 1
vt 0.5 0.75
vt 0.375 0.5
vt 0.25 0.25
vt 0.625 0.875
vt 0.5625 1
vt 0.5 0.625
vt 0.375 0.375
vt 0.25 0.125
vt 0.1875 0
vt 0.625 0.75
vt 0.5 0.5
vt 0.375 0.25
vt 0.75 0.875
vt 0.6875 1
vt 0.625 0.625
vt 0.5 0.375
vt 0.375 0.125
vt 0.3125 0
vt 0.75 0.75
vt 0.625 0.5
vt 0.5 0.25
vt 0.875 0.875
vt 0.8125 1
vt 0.75 0.625
vt 0.625 0.375
vt 0.5 0.125
vt 0.4375 0
vt 0.875 0.75
vt 0.75 0.5
vt 0.625 0.25
vt 1 0.875
vt 0.9375 1
vt 1 0.75
vt 0.875 0.625
vt 1 0.625
vt 0.875 0.5
vt 1 0.5
vt 0.75 0.375
vt 0.875 0.375
vt 1 0.375
vt 0.75 0.25
vt 0.875 0.25
vt 1 0.25
vt 0.625 0.125
vt 0.5625 0
vt 0.75 0.125
vt 0.6875 0
vt 0.875 0.125
vt 0.8125 0
vt 1 0.125
vt 0.9375 0
vt 0.125 0.125
vt 0 0.125
vt 0.0625 0
vt 0.125 0.25
vt 0 0.25
vt 0.125 0.375
vt 0 0.375
vt 0.125 0.5
vt 0 0.5
vt 0.125 0.625
vt 0 0.625
vt 0.125 0.75
vt 0 0.75
vt 0.125 0.875
vt 0 0.875
vt 0.0625 1
vt 0.25 0.875
vt 0.1875 1
vt 0.25 0.75
vt 0.25 0.625
vt 0.25 0.5
vt 0.375 0.875
vt 0.3125 1
vt 0.375 0.75
vt 0.25 0.375
vt 0.375 0.625
vt 0.5 0.875
vt 0.4375 1
vt 0.5 0.75
vt 0.375 0.5
vt 0.25 0.25
vt 0.625 0.875
vt 0.5625 1
vt 0.5 0.625
vt 0.375 0.375
vt 0.25 0.125
vt 0.1875 0
vt 0.625 0.75
vt 0.5 0.5
vt 0.375 0.25
vt 0.75 0.875
vt 0.6875 1
vt 0.625 0.625
vt 0.5 0.375
vt 0.375 0.125
vt 0.3125 0
vt 0.75 0.75
vt 0.625 0.5
vt 0.5 0.25
vt 0.875 0.875
vt 0.8125 1
vt 0.75 0.625
vt 0.625 0.375
vt 0.5 0.125
vt 0.4375 0
vt 0.875 0.75
vt 0.75 0.5
vt 0.625 0.25
vt 1 0.875
vt 0.9375 1
vt 1 0.75
vt 0.875 0.625
vt 1 0.625
vt 0.875 0.5
vt 1 0.5
vt 0.75 0.375
vt 0.875 0.375
vt 1 0.375
vt 0.75 0.25
vt 0.875 0.25
vt 1 0.25
vt 0.625 0.125
vt 0.5625 0
vt 0.75 0.125
vt 0.6875 0
vt 0.875 0.125
vt 0.8125 0
vt 1 0.125
vt 0.9375 0
vn -0.868195 -1.235495E-05 -0.4962231
vn -0.8682001 0.3508798 -0.3508731
vn -1 4.952914E-06 0
vn -0.6542646 -3.999995E-06 -0.7562658
vn -0.6542658 0.5347598 -0.5347601
vn -0.3498898 0 -0.9367909
vn -0.349893 0.6624076 -0.6624131
vn 0 2.420748E-06 -1
vn 0 0.7071052 -0.7071083
vn 0.349896 0 -0.9367886
vn 0.3498953 0.662412 -0.6624075
vn 0.6542639 -3.186299E-06 -0.7562664
vn 0.6542655 0.5347648 -0.5347553
vn 0.8681919 0 -0.4962286
vn 0.8681976 0.3508825 -0.3508768
vn 1 5.790793E-06 0
vn 0.8681937 -0.3508841 -0.3508848
vn 1 5.790793E-06 0
vn 0.6542633 -0.5347647 -0.5347583
vn 0.3498949 -0.6624126 -0.6624072
vn 0 -0.7071049 -0.7071087
vn 0.8681935 -0.4962259 0
vn 1 5.790793E-06 0
vn 0.6542606 -0.7562692 0
vn -0.3498929 -0.6624091 -0.6624116
vn 0.3498964 -0.9367884 0
vn 0.8681927 -0.350887 0.3508842
vn 1 5.790793E-06 0
vn 0.6542641 -0.5347627 0.534759
vn 0 -1 0
vn -0.6542636 -0.5347645 -0.534758
vn 0.868192 0 0.4962284
vn 1 5.790793E-06 0
vn 0.3498953 -0.6624119 0.6624077
vn -0.3498964 -0.9367884 0
vn -0.8681917 -0.3508854 -0.3508884
vn -1 4.952914E-06 0
vn 0.6542643 -3.353595E-06 0.756266
vn 0 -0.7071045 0.707109
vn -0.6542684 -0.7562624 0
vn 0.8681968 0.3508851 0.3508761
vn 1 5.790793E-06 0
vn 0.3498957 0 0.9367887
vn -0.3498934 -0.6624076 0.6624129
vn -0.8681979 -0.4962181 0
vn -1 4.952914E-06 0
vn 0.6542665 0.5347631 0.5347558
vn 0 0 1
vn -0.6542644 -0.534763 0.5347583
vn 0.8681951 0.4962229 0
vn 1 5.790793E-06 0
vn 0.3498953 0.66241 0.6624095
vn -0.3498908 0 0.9367905
vn -0.8681915 -0.3508857 0.3508884
vn -1 4.952914E-06 0
vn 0.6542612 0.7562686 0
vn 0 0.7071043 0.7071092
vn -0.6542648 -2.19011E-06 0.7562656
vn 0.8681976 0.3508825 -0.3508768
vn 1 5.790793E-06 0
vn 0.6542655 0.5347648 -0.5347553
vn 0.3498918 0.9367901 0
vn 0.3498953 0.662412 -0.6624075
vn 0 1 0
vn 0 0.7071052 -0.7071083
vn -0.3498937 0.6624085 0.6624118
vn -0.3498967 0.9367883 0
vn -0.349893 0.6624076 -0.6624131
vn -0.654265 0.5347612 0.5347596
vn -0.6542623 0.7562677 0
vn -0.6542658 0.5347598 -0.5347601
vn -0.8681949 -1.289917E-05 0.4962232
vn -1 4.952914E-06 0
vn -0.868201 0.3508777 0.3508731
vn -1 4.952914E-06 0
vn -0.8681964 0.4962207 0
vn -1 4.952914E-06 0
vn -0.8682001 0.3508798 -0.3508731
vn -1 4.952914E-06 0
vn -0.8166919 0.07082808 -0.5727109
vn -0.5085855 0.8209897 -0.2594546
vn -0.9962617 0.08638683 0
vn -0.6020369 0.05220688 -0.7967597
vn -0.2994149 0.8936759 -0.334207
vn -0.3366541 0.02919521 -0.9411756
vn -0.1151757 0.9190887 -0.376843
vn -0.00713277 0.000622126 -0.9999744
vn 0.08032105 0.9144272 -0.3967008
vn 0.3778393 -0.03276771 -0.9252912
vn 0.3195845 0.8676442 -0.3808664
vn 0.7134538 -0.06186853 -0.6979656
vn 0.5803838 0.7517673 -0.3130503
vn 0.9042043 -0.07841316 -0.4198405
vn 0.8085223 0.5514597 -0.2053871
vn 0.9962618 -0.08638582 0
vn 0.7015133 -0.6824197 -0.2053842
vn 0.9962618 -0.08638582 0
vn 0.4423131 -0.8404516 -0.3130498
vn 0.1654592 -0.9097045 -0.3808686
vn -0.07829054 -0.9146018 -0.3967041
vn 0.635121 -0.7724126 0
vn 0.9962618 -0.08638582 0
vn 0.3494132 -0.9369687 0
vn -0.2716717 -0.8855419 -0.3768423
vn 0.1050273 -0.9944693 0
vn 0.7015137 -0.6824191 0.2053846
vn 0.9962618 -0.08638582 0
vn 0.4423133 -0.8404515 0.3130498
vn -0.08605853 -0.9962901 0
vn -0.4487832 -0.8287942 -0.3342061
vn 0.9042043 -0.07841132 0.4198409
vn 0.9962618 -0.08638582 0
vn 0.1654591 -0.9097049 0.380868
vn -0.237327 -0.9714298 0
vn -0.6423253 -0.7211787 -0.2594601
vn -0.9962617 0.08638683 0
vn 0.7134544 -0.06186702 0.697965
vn -0.0782901 -0.9146022 0.3967032
vn -0.3904074 -0.9206422 0
vn 0.8085223 0.5514598 0.2053871
vn 0.9962618 -0.08638582 0
vn 0.3778392 -0.03276913 0.9252911
vn -0.2716714 -0.8855423 0.3768417
vn -0.5904601 -0.8070669 0
vn -0.9962617 0.08638683 0
vn 0.5803837 0.7517675 0.3130502
vn -0.007132402 0.0006194222 0.9999744
vn -0.4487839 -0.8287939 0.3342064
vn 0.758616 0.651538 0
vn 0.9962618 -0.08638582 0
vn 0.3195846 0.8676442 0.3808663
vn -0.3366539 0.0291955 0.9411758
vn -0.6423289 -0.7211749 0.2594618
vn -0.9962617 0.08638683 0
vn 0.5054897 0.8628326 0
vn 0.08032112 0.9144269 0.3967014
vn -0.6020371 0.05220925 0.7967594
vn 0.8085223 0.5514597 -0.2053871
vn 0.9962618 -0.08638582 0
vn 0.5803838 0.7517673 -0.3130503
vn 0.2746435 0.9615461 0
vn 0.3195845 0.8676442 -0.3808664
vn 0.08673012 0.9962319 0
vn 0.08032105 0.9144272 -0.3967008
vn -0.1151757 0.9190886 0.3768432
vn -0.06655881 0.9977825 0
vn -0.1151757 0.9190887 -0.376843
vn -0.2994146 0.8936759 0.3342069
vn -0.2260991 0.9741044 0
vn -0.2994149 0.8936759 -0.334207
vn -0.8166918 0.07082518 0.5727113
vn -0.9962617 0.08638683 0
vn -0.5085896 0.8209864 0.2594568
vn -0.9962617 0.08638683 0
vn -0.4427148 0.8966625 0
vn -0.9962617 0.08638683 0
vn -0.5085855 0.8209897 -0.2594546
vn -0.9962617 0.08638683 0
g RWrist_0
f 3/3/3 2/2/2 1/1/1
f 4/4/4 1/1/1 2/2/2
f 5/5/5 4/4/4 2/2/2
f 6/6/6 4/4/4 5/5/5
f 7/7/7 6/6/6 5/5/5
f 8/8/8 6/6/6 7/7/7
f 9/9/9 8/8/8 7/7/7
f 10/10/10 8/8/8 9/9/9
f 11/11/11 10/10/10 9/9/9
f 12/12/12 10/10/10 11/11/11
f 13/13/13 12/12/12 11/11/11
f 14/14/14 12/12/12 13/13/13
f 15/15/15 14/14/14 13/13/13
f 16/16/16 14/14/14 15/15/15
f 14/14/14 17/17/17 12/12/12
f 18/18/18 17/17/17 14/14/14
f 12/12/12 19/19/19 10/10/10
f 17/17/17 19/19/19 12/12/12
f 10/10/10 20/20/20 8/8/8
f 19/19/19 20/20/20 10/10/10
f 8/8/8 21/21/21 6/6/6
f 20/20/20 21/21/21 8/8/8
f 17/17/17 22/22/22 19/19/19
f 23/23/23 22/22/22 17/17/17
f 19/19/19 24/24/24 20/20/20
f 22/22/22 24/24/24 19/19/19
f 21/21/21 25/25/25 6/6/6
f 6/6/6 25/25/25 4/4/4
f 20/20/20 26/26/26 21/21/21
f 24/24/24 26/26/26 20/20/20
f 22/22/22 27/27/27 24/24/24
f 28/28/28 27/27/27 22/22/22
f 27/27/27 29/29/29 24/24/24
f 24/24/24 29/29/29 26/26/26
f 26/26/26 30/30/30 21/21/21
f 21/21/21 30/30/30 25/25/25
f 25/25/25 31/31/31 4/4/4
f 4/4/4 31/31/31 1/1/1
f 27/27/27 32/32/32 29/29/29
f 33/33/33 32/32/32 27/27/27
f 29/29/29 34/34/34 26/26/26
f 26/26/26 34/34/34 30/30/30
f 30/30/30 35/35/35 25/25/25
f 25/25/25 35/35/35 31/31/31
f 31/31/31 36/36/36 1/1/1
f 37/37/37 1/1/1 36/36/36
f 32/32/32 38/38/38 29/29/29
f 29/29/29 38/38/38 34/34/34
f 34/34/34 39/39/39 30/30/30
f 30/30/30 39/39/39 35/35/35
f 31/31/31 40/40/40 36/36/36
f 35/35/35 40/40/40 31/31/31
f 32/32/32 41/41/41 38/38/38
f 42/42/42 41/41/41 32/32/32
f 38/38/38 43/43/43 34/34/34
f 34/34/34 43/43/43 39/39/39
f 39/39/39 44/44/44 35/35/35
f 35/35/35 44/44/44 40/40/40
f 40/40/40 45/45/45 36/36/36
f 46/46/46 36/36/36 45/45/45
f 41/41/41 47/47/47 38/38/38
f 38/38/38 47/47/47 43/43/43
f 43/43/43 48/48/48 39/39/39
f 39/39/39 48/48/48 44/44/44
f 40/40/40 49/49/49 45/45/45
f 44/44/44 49/49/49 40/40/40
f 41/41/41 50/50/50 47/47/47
f 51/51/51 50/50/50 41/41/41
f 47/47/47 52/52/52 43/43/43
f 43/43/43 52/52/52 48/48/48
f 48/48/48 53/53/53 44/44/44
f 44/44/44 53/53/53 49/49/49
f 49/49/49 54/54/54 45/45/45
f 55/55/55 45/45/45 54/54/54
f 50/50/50 56/56/56 47/47/47
f 47/47/47 56/56/56 52/52/52
f 52/52/52 57/57/57 48/48/48
f 48/48/48 57/57/57 53/53/53
f 49/49/49 58/58/58 54/54/54
f 53/53/53 58/58/58 49/49/49
f 50/50/50 59/59/59 56/56/56
f 60/60/60 59/59/59 50/50/50
f 59/59/59 61/61/61 56/56/56
f 56/56/56 62/62/62 52/52/52
f 56/56/56 61/61/61 62/62/62
f 52/52/52 62/62/62 57/57/57
f 61/61/61 63/63/63 62/62/62
f 62/62/62 63/63/63 64/64/64
f 62/62/62 64/64/64 57/57/57
f 63/63/63 65/65/65 64/64/64
f 57/57/57 66/66/66 53/53/53
f 57/57/57 64/64/64 66/66/66
f 53/53/53 66/66/66 58/58/58
f 64/64/64 65/65/65 67/67/67
f 64/64/64 67/67/67 66/66/66
f 65/65/65 68/68/68 67/67/67
f 66/66/66 69/69/69 58/58/58
f 66/66/66 67/67/67 69/69/69
f 67/67/67 68/68/68 70/70/70
f 67/67/67 70/70/70 69/69/69
f 68/68/68 71/71/71 70/70/70
f 58/58/58 69/69/69 72/72/72
f 58/58/58 72/72/72 54/54/54
f 73/73/73 54/54/54 72/72/72
f 69/69/69 74/74/74 72/72/72
f 69/69/69 70/70/70 74/74/74
f 75/75/75 72/72/72 74/74/74
f 70/70/70 71/71/71 76/76/76
f 70/70/70 76/76/76 74/74/74
f 77/77/77 74/74/74 76/76/76
f 71/71/71 78/78/78 76/76/76
f 79/79/79 76/76/76 78/78/78
f 82/82/82 81/81/81 80/80/80
f 83/83/83 80/80/80 81/81/81
f 84/84/84 83/83/83 81/81/81
f 85/85/85 83/83/83 84/84/84
f 86/86/86 85/85/85 84/84/84
f 87/87/87 85/85/85 86/86/86
f 88/88/88 87/87/87 86/86/86
f 89/89/89 87/87/87 88/88/88
f 90/90/90 89/89/89 88/88/88
f 91/91/91 89/89/89 90/90/90
f 92/92/92 91/91/91 90/90/90
f 93/93/93 91/91/91 92/92/92
f 94/94/94 93/93/93 92/92/92
f 95/95/95 93/93/93 94/94/94
f 93/93/93 96/96/96 91/91/91
f 97/97/97 96/96/96 93/93/93
f 91/91/91 98/98/98 89/89/89
f 96/96/96 98/98/98 91/91/91
f 89/89/89 99/99/99 87/87/87
f 98/98/98 99/99/99 89/89/89
f 87/87/87 100/100/100 85/85/85
f 99/99/99 100/100/100 87/87/87
f 96/96/96 101/101/101 98/98/98
f 102/102/102 101/101/101 96/96/96
f 98/98/98 103/103/103 99/99/99
f 101/101/101 103/103/103 98/98/98
f 100/100/100 104/104/104 85/85/85
f 85/85/85 104/104/104 83/83/83
f 99/99/99 105/105/105 100/100/100
f 103/103/103 105/105/105 99/99/99
f 101/101/101 106/106/106 103/103/103
f 107/107/107 106/106/106 101/101/101
f 106/106/106 108/108/108 103/103/103
f 103/103/103 108/108/108 105/105/105
f 105/105/105 109/109/109 100/100/100
f 100/100/100 109/109/109 104/104/104
f 104/104/104 110/110/110 83/83/83
f 83/83/83 110/110/110 80/80/80
f 106/106/106 111/111/111 108/108/108
f 112/112/112 111/111/111 106/106/106
f 108/108/108 113/113/113 105/105/105
f 105/105/105 113/113/113 109/109/109
f 109/109/109 114/114/114 104/104/104
f 104/104/104 114/114/114 110/110/110
f 110/110/110 115/115/115 80/80/80
f 116/116/116 80/80/80 115/115/115
f 111/111/111 117/117/117 108/108/108
f 108/108/108 117/117/117 113/113/113
f 113/113/113 118/118/118 109/109/109
f 109/109/109 118/118/118 114/114/114
f 110/110/110 119/119/119 115/115/115
f 114/114/114 119/119/119 110/110/110
f 111/111/111 120/120/120 117/117/117
f 121/121/121 120/120/120 111/111/111
f 117/117/117 122/122/122 113/113/113
f 113/113/113 122/122/122 118/118/118
f 118/118/118 123/123/123 114/114/114
f 114/114/114 123/123/123 119/119/119
f 119/119/119 124/124/124 115/115/115
f 125/125/125 115/115/115 124/124/124
f 120/120/120 126/126/126 117/117/117
f 117/117/117 126/126/126 122/122/122
f 122/122/122 127/127/127 118/118/118
f 118/118/118 127/127/127 123/123/123
f 119/119/119 128/128/128 124/124/124
f 123/123/123 128/128/128 119/119/119
f 120/120/120 129/129/129 126/126/126
f 130/130/130 129/129/129 120/120/120
f 126/126/126 131/131/131 122/122/122
f 122/122/122 131/131/131 127/127/127
f 127/127/127 132/132/132 123/123/123
f 123/123/123 132/132/132 128/128/128
f 128/128/128 133/133/133 124/124/124
f 134/134/134 124/124/124 133/133/133
f 129/129/129 135/135/135 126/126/126
f 126/126/126 135/135/135 131/131/131
f 131/131/131 136/136/136 127/127/127
f 127/127/127 136/136/136 132/132/132
f 128/128/128 137/137/137 133/133/133
f 132/132/132 137/137/137 128/128/128
f 129/129/129 138/138/138 135/135/135
f 139/139/139 138/138/138 129/129/129
f 138/138/138 140/140/140 135/135/135
f 135/135/135 141/141/141 131/131/131
f 135/135/135 140/140/140 141/141/141
f 131/131/131 141/141/141 136/136/136
f 140/140/140 142/142/142 141/141/141
f 141/141/141 142/142/142 143/143/143
f 141/141/141 143/143/143 136/136/136
f 142/142/142 144/144/144 143/143/143
f 136/136/136 145/145/145 132/132/132
f 136/136/136 143/143/143 145/145/145
f 132/132/132 145/145/145 137/137/137
f 143/143/143 144/144/144 146/146/146
f 143/143/143 146/146/146 145/145/145
f 144/144/144 147/147/147 146/146/146
f 145/145/145 148/148/148 137/137/137
f 145/145/145 146/146/146 148/148/148
f 146/146/146 147/147/147 149/149/149
f 146/146/146 149/149/149 148/148/148
f 147/147/147 150/150/150 149/149/149
f 137/137/137 148/148/148 151/151/151
f 137/137/137 151/151/151 133/133/133
f 152/152/152 133/133/133 151/151/151
f 148/148/148 153/153/153 151/151/151
f 148/148/148 149/149/149 153/153/153
f 154/154/154 151/151/151 153/153/153
f 149/149/149 150/150/150 155/155/155
f 149/149/149 155/155/155 153/153/153
f 156/156/156 153/153/153 155/155/155
f 150/150/150 157/157/157 155/155/155
f 158/158/158 155/155/155 157/157/157
