g Shorts_Male
v 1.553216 -6.142601 -0.9210117
v 1.688168 -5.612855 -0.2413323
v 1.527425 -5.612856 -0.8379059
v 1.735779 -6.142601 -0.2695561
v 1.608341 -6.68813 -0.8574541
v 1.527425 -5.612855 0.3668874
v 1.814327 -6.68813 -0.2335818
v 1.553216 -6.142601 0.4164373
v 1.045194 -5.612855 0.8752212
v 1.608341 -6.68813 0.4209247
v 1.005525 -6.142601 0.8149612
v 0.5174417 -5.612856 1.140824
v 0.9903826 -6.68813 0.7641736
v 0.3517375 -6.142601 1.075276
v 0.0004606723 -5.612855 1.241213
v 0.2300745 -6.83002 0.7188708
v 0.0004606835 -6.142601 1.086488
v 0.0004606828 -6.699958 0.5815467
v 0.2300745 -6.83002 0.7188708
v 0.0004606844 -6.840392 -0.2307566
v 0.0004606828 -6.699958 0.5815467
v 0.05892158 -6.964619 -0.2103968
v 0.0004606828 -6.699958 -1.04306
v 0.2300745 -6.83002 -1.083952
v 0.0004606835 -6.142601 -1.313828
v 0.3517375 -6.142601 -1.287478
v 0.0004606811 -5.612855 -1.255516
v 0.4226205 -5.612855 -1.233005
v 1.045194 -5.612855 -1.096792
v 1.005525 -6.142601 -1.208429
v 1.527425 -5.612856 -0.8379059
v 1.553216 -6.142601 -0.9210117
v 0.9903827 -6.68813 -1.13407
v 1.608341 -6.68813 -0.8574541
v 0.3754595 -7.337301 0.5842661
v 0.1696057 -7.337301 -0.1936724
v 0.9930208 -7.201247 0.7445504
v 0.9903826 -6.68813 0.7641736
v 0.4426717 -7.769564 0.580128
v 0.3754595 -7.337301 -0.8509105
v 0.9930208 -7.201247 -1.002344
v 1.610582 -7.201247 0.4257752
v 1.608341 -6.68813 0.4209247
v 0.2453413 -7.769566 -0.1983332
v 1.610582 -7.201247 -0.777275
v 1.814327 -6.68813 -0.2335818
v 1.816436 -7.201247 -0.192427
v 1.633098 -7.769564 0.5320284
v 1.03766 -7.769566 0.7375956
v 0.4440536 -7.769564 -0.7437951
v 1.037741 -7.769566 -0.9500371
v 1.632102 -7.769565 -0.7765924
v 1.830867 -7.769566 -0.1437928
v 1.774032 -8.480703 -0.07785355
v 1.597854 -8.480701 0.6292869
v 1.597621 -8.480701 -0.7236863
v 1.068006 -8.480703 -0.8742557
v 0.5388312 -8.480701 -0.7234262
v 0.3627467 -8.480703 -0.1335879
v 0.5385725 -8.480701 0.6288636
v 1.067987 -8.480703 0.780107
v 1.03766 -7.769566 0.7375956
v 1.03766 -7.769566 0.7375956
v 1.633098 -7.769564 0.5320284
v 1.067987 -8.480703 0.780107
v 0.3754595 -7.337301 0.5842661
v 1.03766 -7.769566 0.7375956
v 0.9930208 -7.201247 0.7445504
v -1.552294 -6.142601 -0.9210117
v -1.526503 -5.612856 -0.8379059
v -1.687246 -5.612855 -0.2413323
v -1.734858 -6.142601 -0.2695561
v -1.607419 -6.68813 -0.8574541
v -1.526503 -5.612855 0.3668874
v -1.813406 -6.68813 -0.2335818
v -1.552294 -6.142601 0.4164373
v -1.044273 -5.612855 0.8752212
v -1.607419 -6.68813 0.4209246
v -1.004604 -6.142601 0.8149612
v -0.5165202 -5.612856 1.140824
v -0.9894612 -6.68813 0.7641736
v -0.3508161 -6.142601 1.075276
v 0.0004606723 -5.612855 1.241213
v -0.2291531 -6.83002 0.7188708
v 0.0004606835 -6.142601 1.086488
v 0.0004606828 -6.699958 0.5815467
v -0.2291531 -6.83002 0.7188708
v 0.0004606828 -6.699958 0.5815467
v 0.0004606844 -6.840392 -0.2307566
v -0.05800013 -6.964619 -0.2103968
v 0.0004606828 -6.699958 -1.04306
v -0.2291531 -6.83002 -1.083952
v 0.0004606835 -6.142601 -1.313828
v -0.3508161 -6.142601 -1.287478
v 0.0004606811 -5.612855 -1.255516
v -0.4216991 -5.612855 -1.233005
v -1.044273 -5.612855 -1.096792
v -1.004604 -6.142601 -1.208429
v -1.526503 -5.612856 -0.8379059
v -1.552294 -6.142601 -0.9210117
v -0.9894612 -6.68813 -1.13407
v -1.607419 -6.68813 -0.8574541
v -0.374538 -7.337301 0.5842661
v -0.1686843 -7.337301 -0.188992
v -0.9920994 -7.201247 0.7445503
v -0.9894612 -6.68813 0.7641736
v -0.4417503 -7.769564 0.580128
v -0.3745381 -7.337301 -0.8533984
v -0.9920994 -7.201247 -1.002344
v -1.609661 -7.201247 0.4257752
v -1.607419 -6.68813 0.4209246
v -0.2444199 -7.769566 -0.1371903
v -1.609661 -7.201247 -0.777275
v -1.813406 -6.68813 -0.2335818
v -1.815515 -7.201247 -0.192427
v -1.632176 -7.769564 0.5320284
v -1.036738 -7.769566 0.7375956
v -0.4431321 -7.769564 -0.7901922
v -1.829946 -7.769566 -0.1437928
v -1.03682 -7.769566 -0.9500371
v -1.63118 -7.769565 -0.7765924
v -1.77311 -8.480703 -0.07785355
v -1.596933 -8.480701 0.6292869
v -1.596699 -8.480701 -0.7236863
v -1.067084 -8.480703 -0.8742557
v -0.5379097 -8.480701 -0.7234262
v -0.3618252 -8.480703 -0.078051
v -0.537651 -8.480701 0.6288636
v -1.067066 -8.480703 0.780107
v -1.036738 -7.769566 0.7375956
v -1.036738 -7.769566 0.7375956
v -1.067066 -8.480703 0.780107
v -1.632176 -7.769564 0.5320284
v -0.374538 -7.337301 0.5842661
v -1.036738 -7.769566 0.7375956
v -0.9920994 -7.201247 0.7445503
v -0.4216991 -5.612855 -1.233005
v 0.0004606811 -5.612855 -1.255516
v 0.4226205 -5.612855 -1.233005
v -1.044273 -5.612855 -1.096792
v 1.045194 -5.612855 -1.096792
v -1.526503 -5.612856 -0.8379059
v 1.527425 -5.612856 -0.8379059
v 1.527425 -5.612856 -0.8379059
v -1.687246 -5.612855 -0.2413323
v -1.526503 -5.612856 -0.8379059
v 1.688168 -5.612855 -0.2413323
v -1.526503 -5.612855 0.3668874
v 1.527425 -5.612855 0.3668874
v -1.044273 -5.612855 0.8752212
v 1.045194 -5.612855 0.8752212
v -0.5165202 -5.612856 1.140824
v 0.5174417 -5.612856 1.140824
v 0.0004606723 -5.612855 1.241213
vt 0.01287079 0.1246338
vt 0.01358795 0.1248779
vt 0.01287079 0.1248779
vt 0.01358795 0.1246338
vt 0.01287079 0.1243896
vt 0.01419067 0.1248779
vt 0.01358795 0.1243896
vt 0.01419067 0.1246338
vt 0.01454926 0.1248779
vt 0.01431274 0.1243896
vt 0.01454926 0.1246338
vt 0.01478577 0.1248779
vt 0.01454926 0.1243896
vt 0.01478577 0.1246338
vt 0.01502991 0.1248779
vt 0.01478577 0.1243896
vt 0.01502991 0.1246338
vt 0.01502991 0.1243896
vt 0.01478577 0.130127
vt 0.01502991 0.1293945
vt 0.01502991 0.130127
vt 0.0148468 0.1293945
vt 0.01502991 0.1287842
vt 0.01478577 0.1287842
vt 0.01502991 0.128418
vt 0.01478577 0.128418
vt 0.01502991 0.1281738
vt 0.01478577 0.1281738
vt 0.01454926 0.1281738
vt 0.01454926 0.128418
vt 0.01431274 0.1281738
vt 0.01431274 0.128418
vt 0.01454926 0.1286621
vt 0.01431274 0.1286621
vt 0.01473236 0.1300049
vt 0.01478577 0.1293945
vt 0.01454926 0.130127
vt 0.01454926 0.130127
vt 0.01473236 0.1300049
vt 0.01473236 0.1289063
vt 0.01454926 0.1286621
vt 0.01436615 0.1300049
vt 0.01431274 0.130127
vt 0.01478577 0.1293945
vt 0.01436615 0.1289063
vt 0.01431274 0.1293945
vt 0.01431274 0.1293945
vt 0.01436615 0.1300049
vt 0.01454926 0.130127
vt 0.01473236 0.1289063
vt 0.01454926 0.1286621
vt 0.01436615 0.1289063
vt 0.01431274 0.1293945
vt 0.01431274 0.1293945
vt 0.01436615 0.1300049
vt 0.01436615 0.1289063
vt 0.01454926 0.1286621
vt 0.01473236 0.1289063
vt 0.01478577 0.1293945
vt 0.01473236 0.1300049
vt 0.01454926 0.130127
vt 0.01454926 0.130127
vt 0.01454926 0.130127
vt 0.01436615 0.1300049
vt 0.01454926 0.130127
vt 0.01473236 0.1300049
vt 0.01454926 0.130127
vt 0.01454926 0.130127
vt 0.01287079 0.1246338
vt 0.01287079 0.1248779
vt 0.01358795 0.1248779
vt 0.01358795 0.1246338
vt 0.01287079 0.1243896
vt 0.01419067 0.1248779
vt 0.01358795 0.1243896
vt 0.01419067 0.1246338
vt 0.01454926 0.1248779
vt 0.01431274 0.1243896
vt 0.01454926 0.1246338
vt 0.01478577 0.1248779
vt 0.01454926 0.1243896
vt 0.01478577 0.1246338
vt 0.01502991 0.1248779
vt 0.01478577 0.1243896
vt 0.01502991 0.1246338
vt 0.01502991 0.1243896
vt 0.01478577 0.130127
vt 0.01502991 0.130127
vt 0.01502991 0.1293945
vt 0.0148468 0.1293945
vt 0.01502991 0.1287842
vt 0.01478577 0.1287842
vt 0.01502991 0.128418
vt 0.01478577 0.128418
vt 0.01502991 0.1281738
vt 0.01478577 0.1281738
vt 0.01454926 0.1281738
vt 0.01454926 0.128418
vt 0.01431274 0.1281738
vt 0.01431274 0.128418
vt 0.01454926 0.1286621
vt 0.01431274 0.1286621
vt 0.01473236 0.1300049
vt 0.01478577 0.1293945
vt 0.01454926 0.130127
vt 0.01454926 0.130127
vt 0.01473236 0.1300049
vt 0.01473236 0.1289063
vt 0.01454926 0.1286621
vt 0.01436615 0.1300049
vt 0.01431274 0.130127
vt 0.01478577 0.1293945
vt 0.01436615 0.1289063
vt 0.01431274 0.1293945
vt 0.01431274 0.1293945
vt 0.01436615 0.1300049
vt 0.01454926 0.130127
vt 0.01473236 0.1289063
vt 0.01431274 0.1293945
vt 0.01454926 0.1286621
vt 0.01436615 0.1289063
vt 0.01431274 0.1293945
vt 0.01436615 0.1300049
vt 0.01436615 0.1289063
vt 0.01454926 0.1286621
vt 0.01473236 0.1289063
vt 0.01478577 0.1293945
vt 0.01473236 0.1300049
vt 0.01454926 0.130127
vt 0.01454926 0.130127
vt 0.01454926 0.130127
vt 0.01454926 0.130127
vt 0.01436615 0.1300049
vt 0.01473236 0.1300049
vt 0.01454926 0.130127
vt 0.01454926 0.130127
vt 0.01478577 0.1281738
vt 0.01502991 0.1281738
vt 0.01478577 0.1281738
vt 0.01454926 0.1281738
vt 0.01454926 0.1281738
vt 0.01287079 0.1248779
vt 0.01431274 0.1281738
vt 0.01431274 0.1281738
vt 0.01358795 0.1248779
vt 0.01287079 0.1248779
vt 0.01358795 0.1248779
vt 0.01419067 0.1248779
vt 0.01419067 0.1248779
vt 0.01454926 0.1248779
vt 0.01454926 0.1248779
vt 0.01478577 0.1248779
vt 0.01478577 0.1248779
vt 0.01502991 0.1248779
vn 0.7565762 0.05761735 -0.6513622
vn 0.9963014 0.08549464 0.008609276
vn 0.800376 0.1318595 -0.5848174
vn 0.9949055 0.100281 -0.01033648
vn 0.745726 -0.0585183 -0.6636778
vn 0.8536256 0.03024055 0.5200084
vn 0.9984504 0.05563286 -0.001308293
vn 0.8182429 0.04309405 0.5732552
vn 0.5403773 -0.1003055 0.8354229
vn 0.786439 0.03416961 0.6167222
vn 0.4386728 -0.1518881 0.8857179
vn 0.3111912 -0.1980127 0.9294897
vn 0.2801656 -0.1545723 0.9474252
vn 0.1426369 -0.3121438 0.9392662
vn 0.1243445 -0.2205768 0.9674112
vn -0.3642963 -0.4090111 0.8366589
vn -0.08144768 -0.3834207 0.9199755
vn -0.5297053 -0.6524474 0.5419638
vn -0.3642963 -0.4090111 0.8366589
vn -0.6912566 -0.7224373 -0.01576121
vn -0.5297053 -0.6524474 0.5419638
vn -0.8922402 -0.4515609 0.0004384361
vn -0.3802298 -0.5804328 -0.7200855
vn -0.3186633 -0.4133515 -0.8529913
vn -0.01718183 -0.1191724 -0.9927249
vn 0.05817296 -0.0888558 -0.9943444
vn 0.06272203 0.101495 -0.9928569
vn 0.1310894 0.1247008 -0.9834964
vn 0.3233705 0.1473582 -0.9347283
vn 0.2584203 -0.02803362 -0.9656257
vn 0.800376 0.1318595 -0.5848174
vn 0.7565762 0.05761735 -0.6513622
vn 0.1846127 -0.2184782 -0.9582199
vn 0.745726 -0.0585183 -0.6636778
vn -0.694604 -0.2090405 0.6883512
vn -0.9643097 -0.2647477 0.003937965
vn 0.1434209 -0.03463693 0.9890555
vn 0.2801656 -0.1545723 0.9474252
vn -0.761875 -0.09052387 0.6413673
vn -0.6140213 -0.3203764 -0.7213438
vn 0.09755507 -0.2049653 -0.9738954
vn 0.762943 0.05144413 0.6444158
vn 0.786439 0.03416961 0.6167222
vn -0.9869467 -0.1607121 -0.01038391
vn 0.7192199 -0.06121753 -0.6920803
vn 0.9984504 0.05563286 -0.001308293
vn 0.9997793 0.02096325 -0.00142468
vn 0.7579164 0.05515654 0.6500158
vn 0.06282351 0.0571911 0.9963846
vn -0.6891585 -0.1717844 -0.7039536
vn 0.01476665 -0.09627727 -0.995245
vn 0.719071 -0.05549719 -0.692717
vn 0.9999006 -0.01393373 -0.002173724
vn 0.9981725 -0.05851223 0.0150995
vn 0.7301601 0.03259963 0.682498
vn 0.7305195 -0.09796361 -0.6758286
vn -0.006978278 -0.09298616 -0.9956429
vn -0.684569 -0.1385415 -0.7156616
vn -0.9894282 -0.1444136 0.01328705
vn -0.7473314 -0.05866665 0.6618564
vn 0.02889807 0.06905613 0.9971942
vn 0.06282351 0.0571911 0.9963846
vn 0.06282351 0.0571911 0.9963846
vn 0.7579164 0.05515654 0.6500158
vn 0.02889807 0.06905613 0.9971942
vn -0.694604 -0.2090405 0.6883512
vn 0.06282351 0.0571911 0.9963846
vn 0.1434209 -0.03463693 0.9890555
vn -0.7565762 0.05761741 -0.6513622
vn -0.8003761 0.1318595 -0.5848173
vn -0.9963014 0.08549464 0.008609205
vn -0.9949055 0.1002811 -0.01033655
vn -0.745726 -0.05851832 -0.6636779
vn -0.8536257 0.03024058 0.5200084
vn -0.9984504 0.05563287 -0.001308366
vn -0.8182429 0.04309411 0.5732552
vn -0.5403771 -0.1003055 0.8354229
vn -0.7864388 0.03416966 0.6167222
vn -0.438673 -0.1518881 0.8857177
vn -0.3111913 -0.1980128 0.9294896
vn -0.2801657 -0.1545722 0.9474252
vn -0.142637 -0.3121439 0.9392662
vn -0.1243448 -0.2205772 0.967411
vn 0.3638469 -0.4086721 0.8370201
vn 0.08144769 -0.3834209 0.9199754
vn 0.5297053 -0.6524471 0.5419641
vn 0.3638469 -0.4086721 0.8370201
vn 0.5297053 -0.6524471 0.5419641
vn 0.6912568 -0.7224372 -0.01576138
vn 0.8923282 -0.4513864 -0.0008292937
vn 0.3802296 -0.5804325 -0.7200857
vn 0.3198029 -0.412991 -0.8527395
vn 0.01718188 -0.1191724 -0.9927249
vn -0.05817293 -0.08885577 -0.9943444
vn -0.06272184 0.1014949 -0.9928569
vn -0.1310893 0.1247008 -0.9834964
vn -0.3233705 0.1473583 -0.9347284
vn -0.2584203 -0.0280336 -0.9656257
vn -0.8003761 0.1318595 -0.5848173
vn -0.7565762 0.05761741 -0.6513622
vn -0.1848983 -0.2179342 -0.9582887
vn -0.745726 -0.05851832 -0.6636779
vn 0.6892052 -0.203924 0.6952778
vn 0.9650665 -0.2619561 -0.005065073
vn -0.1434209 -0.03463684 0.9890555
vn -0.2801657 -0.1545722 0.9474252
vn 0.7448606 -0.08344357 0.6619818
vn 0.6284836 -0.309688 -0.7135137
vn -0.1050477 -0.1948931 -0.9751829
vn -0.7629429 0.05144414 0.6444158
vn -0.7864388 0.03416966 0.6167222
vn 0.987178 -0.1596209 -0.0009682491
vn -0.7192198 -0.06121776 -0.6920804
vn -0.9984504 0.05563287 -0.001308366
vn -0.9997793 0.02096304 -0.001424483
vn -0.7579163 0.0551566 0.6500159
vn -0.06282353 0.05719111 0.9963846
vn 0.6985466 -0.1757886 -0.693636
vn -0.9999006 -0.01393369 -0.002173525
vn -0.03316755 -0.09441489 -0.9949803
vn -0.7190711 -0.05549721 -0.692717
vn -0.9981725 -0.05851198 0.01509953
vn -0.7301601 0.03259968 0.682498
vn -0.7305195 -0.09796339 -0.6758286
vn -0.01303983 -0.1068869 -0.9941856
vn 0.7167621 -0.1642368 -0.6777008
vn 0.9888132 -0.1486398 0.01243491
vn 0.7260073 -0.05415443 0.6855515
vn -0.02889803 0.06905609 0.9971942
vn -0.06282353 0.05719111 0.9963846
vn -0.06282353 0.05719111 0.9963846
vn -0.02889803 0.06905609 0.9971942
vn -0.7579163 0.0551566 0.6500159
vn 0.6892052 -0.203924 0.6952778
vn -0.06282353 0.05719111 0.9963846
vn -0.1434209 -0.03463684 0.9890555
vn 0 1 0
vn 0 1 0
vn 0 1 0
vn 0 1 0
vn 0 1 0
vn 0 1 0
vn 0 1 0
vn 0 1 0
vn 0 1 0
vn 0 1 0
vn 0 1 0
vn 0 1 0
vn 0 1 0
vn 0 1 0
vn 0 1 0
vn 0 1 0
vn 0 1 0
vn 0 1 0
g Shorts_Male_0
f 3/3/3 2/2/2 1/1/1
f 2/2/2 4/4/4 1/1/1
f 1/1/1 4/4/4 5/5/5
f 2/2/2 6/6/6 4/4/4
f 4/4/4 7/7/7 5/5/5
f 6/6/6 8/8/8 4/4/4
f 4/4/4 8/8/8 7/7/7
f 6/6/6 9/9/9 8/8/8
f 8/8/8 10/10/10 7/7/7
f 9/9/9 11/11/11 8/8/8
f 8/8/8 11/11/11 10/10/10
f 9/9/9 12/12/12 11/11/11
f 11/11/11 13/13/13 10/10/10
f 12/12/12 14/14/14 11/11/11
f 11/11/11 14/14/14 13/13/13
f 12/12/12 15/15/15 14/14/14
f 14/14/14 16/16/16 13/13/13
f 15/15/15 17/17/17 14/14/14
f 14/14/14 17/17/17 16/16/16
f 17/17/17 18/18/18 16/16/16
f 21/21/21 20/20/20 19/19/19
f 20/20/20 22/22/22 19/19/19
f 20/20/20 23/23/23 22/22/22
f 23/23/23 24/24/24 22/22/22
f 23/23/23 25/25/25 24/24/24
f 25/25/25 26/26/26 24/24/24
f 25/25/25 27/27/27 26/26/26
f 27/27/27 28/28/28 26/26/26
f 26/26/26 28/28/28 29/29/29
f 30/30/30 26/26/26 29/29/29
f 24/24/24 26/26/26 30/30/30
f 30/30/30 29/29/29 31/31/31
f 32/32/32 30/30/30 31/31/31
f 33/33/33 30/30/30 32/32/32
f 33/33/33 24/24/24 30/30/30
f 34/34/34 33/33/33 32/32/32
f 35/35/35 19/19/19 22/22/22
f 36/36/36 22/22/22 24/24/24
f 36/36/36 35/35/35 22/22/22
f 35/35/35 37/37/37 19/19/19
f 37/37/37 38/38/38 19/19/19
f 39/39/39 35/35/35 36/36/36
f 40/40/40 24/24/24 33/33/33
f 40/40/40 36/36/36 24/24/24
f 41/41/41 33/33/33 34/34/34
f 41/41/41 40/40/40 33/33/33
f 37/37/37 42/42/42 38/38/38
f 42/42/42 43/43/43 38/38/38
f 44/44/44 36/36/36 40/40/40
f 44/44/44 39/39/39 36/36/36
f 45/45/45 41/41/41 34/34/34
f 45/45/45 34/34/34 46/46/46
f 47/47/47 46/46/46 43/43/43
f 42/42/42 47/47/47 43/43/43
f 47/47/47 45/45/45 46/46/46
f 48/48/48 42/42/42 37/37/37
f 49/49/49 48/48/48 37/37/37
f 50/50/50 40/40/40 41/41/41
f 50/50/50 44/44/44 40/40/40
f 51/51/51 41/41/41 45/45/45
f 51/51/51 50/50/50 41/41/41
f 52/52/52 45/45/45 47/47/47
f 52/52/52 51/51/51 45/45/45
f 53/53/53 47/47/47 42/42/42
f 48/48/48 53/53/53 42/42/42
f 53/53/53 52/52/52 47/47/47
f 54/54/54 53/53/53 48/48/48
f 55/55/55 54/54/54 48/48/48
f 54/54/54 56/56/56 53/53/53
f 56/56/56 52/52/52 53/53/53
f 56/56/56 57/57/57 52/52/52
f 57/57/57 51/51/51 52/52/52
f 57/57/57 58/58/58 51/51/51
f 58/58/58 50/50/50 51/51/51
f 58/58/58 59/59/59 50/50/50
f 59/59/59 44/44/44 50/50/50
f 59/59/59 60/60/60 44/44/44
f 60/60/60 39/39/39 44/44/44
f 60/60/60 61/61/61 39/39/39
f 61/61/61 62/62/62 39/39/39
f 55/55/55 64/64/64 63/63/63
f 65/65/65 55/55/55 63/63/63
f 39/39/39 67/67/67 66/66/66
f 67/67/67 68/68/68 66/66/66
f 71/71/71 70/70/70 69/69/69
f 72/72/72 71/71/71 69/69/69
f 72/72/72 69/69/69 73/73/73
f 74/74/74 71/71/71 72/72/72
f 75/75/75 72/72/72 73/73/73
f 76/76/76 74/74/74 72/72/72
f 76/76/76 72/72/72 75/75/75
f 77/77/77 74/74/74 76/76/76
f 78/78/78 76/76/76 75/75/75
f 79/79/79 77/77/77 76/76/76
f 79/79/79 76/76/76 78/78/78
f 80/80/80 77/77/77 79/79/79
f 81/81/81 79/79/79 78/78/78
f 82/82/82 80/80/80 79/79/79
f 82/82/82 79/79/79 81/81/81
f 83/83/83 80/80/80 82/82/82
f 84/84/84 82/82/82 81/81/81
f 85/85/85 83/83/83 82/82/82
f 85/85/85 82/82/82 84/84/84
f 86/86/86 85/85/85 84/84/84
f 89/89/89 88/88/88 87/87/87
f 90/90/90 89/89/89 87/87/87
f 91/91/91 89/89/89 90/90/90
f 92/92/92 91/91/91 90/90/90
f 93/93/93 91/91/91 92/92/92
f 94/94/94 93/93/93 92/92/92
f 95/95/95 93/93/93 94/94/94
f 96/96/96 95/95/95 94/94/94
f 96/96/96 94/94/94 97/97/97
f 94/94/94 98/98/98 97/97/97
f 94/94/94 92/92/92 98/98/98
f 97/97/97 98/98/98 99/99/99
f 98/98/98 100/100/100 99/99/99
f 98/98/98 101/101/101 100/100/100
f 92/92/92 101/101/101 98/98/98
f 101/101/101 102/102/102 100/100/100
f 87/87/87 103/103/103 90/90/90
f 90/90/90 104/104/104 92/92/92
f 103/103/103 104/104/104 90/90/90
f 105/105/105 103/103/103 87/87/87
f 106/106/106 105/105/105 87/87/87
f 103/103/103 107/107/107 104/104/104
f 92/92/92 108/108/108 101/101/101
f 104/104/104 108/108/108 92/92/92
f 101/101/101 109/109/109 102/102/102
f 108/108/108 109/109/109 101/101/101
f 110/110/110 105/105/105 106/106/106
f 111/111/111 110/110/110 106/106/106
f 104/104/104 112/112/112 108/108/108
f 107/107/107 112/112/112 104/104/104
f 109/109/109 113/113/113 102/102/102
f 102/102/102 113/113/113 114/114/114
f 114/114/114 115/115/115 111/111/111
f 115/115/115 110/110/110 111/111/111
f 113/113/113 115/115/115 114/114/114
f 110/110/110 116/116/116 105/105/105
f 116/116/116 117/117/117 105/105/105
f 108/108/108 118/118/118 109/109/109
f 112/112/112 118/118/118 108/108/108
f 115/115/115 119/119/119 110/110/110
f 119/119/119 116/116/116 110/110/110
f 109/109/109 120/120/120 113/113/113
f 118/118/118 120/120/120 109/109/109
f 113/113/113 121/121/121 115/115/115
f 121/121/121 119/119/119 115/115/115
f 120/120/120 121/121/121 113/113/113
f 119/119/119 122/122/122 116/116/116
f 122/122/122 123/123/123 116/116/116
f 124/124/124 122/122/122 119/119/119
f 121/121/121 124/124/124 119/119/119
f 125/125/125 124/124/124 121/121/121
f 120/120/120 125/125/125 121/121/121
f 126/126/126 125/125/125 120/120/120
f 118/118/118 126/126/126 120/120/120
f 127/127/127 126/126/126 118/118/118
f 112/112/112 127/127/127 118/118/118
f 128/128/128 127/127/127 112/112/112
f 107/107/107 128/128/128 112/112/112
f 129/129/129 128/128/128 107/107/107
f 130/130/130 129/129/129 107/107/107
f 123/123/123 132/132/132 131/131/131
f 133/133/133 123/123/123 131/131/131
f 135/135/135 107/107/107 134/134/134
f 136/136/136 135/135/135 134/134/134
f 139/139/139 138/138/138 137/137/137
f 137/137/137 140/140/140 139/139/139
f 140/140/140 141/141/141 139/139/139
f 140/140/140 142/142/142 141/141/141
f 142/142/142 143/143/143 141/141/141
f 146/146/146 145/145/145 144/144/144
f 145/145/145 147/147/147 144/144/144
f 145/145/145 148/148/148 147/147/147
f 148/148/148 149/149/149 147/147/147
f 148/148/148 150/150/150 149/149/149
f 150/150/150 151/151/151 149/149/149
f 150/150/150 152/152/152 151/151/151
f 152/152/152 153/153/153 151/151/151
f 152/152/152 154/154/154 153/153/153
