g Strap
v -0.09354763 -0.1373261 0.09567126
v -0.07724717 -0.0346419 0.07507101
v -0.08842239 -0.1360719 0.09848925
v -0.0394648 0.04516023 0.03289497
v -0.03557501 0.06392624 0.003355973
v -0.03253753 0.04828063 0.03471402
v -0.04645475 0.02798561 -0.1087231
v -0.05312826 0.02527655 -0.106118
v -0.08651063 -0.05864693 -0.1174998
v -0.09365176 -0.227432 0.1063146
v -0.08821458 -0.2263666 0.1091257
v -0.07938785 -0.2274321 0.06268125
v 0.06067524 -0.2011806 0.1120017
v 0.06666059 -0.20019 0.1093639
v 0.0689331 -0.2001901 0.06268125
v -0.05717611 -0.2274321 0.01094239
v 0.0730813 -0.20019 0
v 0.06899242 -0.20019 -0.05122846
v -0.07917146 -0.2274321 -0.05122846
v 0.06665439 -0.2001901 -0.1005517
v 0.0608716 -0.2011378 -0.1031349
v -0.08961067 -0.2263369 -0.1031349
v -0.09517993 -0.2274321 -0.1001653
v -0.09365176 -0.227432 0.1063146
v -0.09354763 -0.1373261 0.09567126
v -0.08821458 -0.2263666 0.1091257
v -0.08842239 -0.1360719 0.09848925
v -0.07724717 -0.0346419 0.07507101
v -0.07142208 -0.03360626 0.07782994
v -0.0394648 0.04516023 0.03289497
v -0.03253753 0.04828063 0.03471402
v 0.06067524 -0.2011806 0.1120017
v 0.06067953 -0.1136229 0.09848925
v 0.06666059 -0.20019 0.1093639
v 0.06654081 -0.1130988 0.09576638
v 0.07804991 -0.0207238 0.07782994
v 0.08438467 -0.02117003 0.07527392
v 0.1103419 0.07038753 0.03206598
v 0.1166189 0.06930611 0.02977736
v -0.03557501 0.06392624 0.003355973
v -0.0286144 0.06760093 0.002391326
v -0.03253753 0.04828063 0.03471402
v -0.03665196 0.07058102 -0.03649953
v -0.03665196 0.07058102 -0.03649953
v -0.03052065 0.0742019 -0.0369216
v -0.0286144 0.06760093 0.002391326
v -0.04003687 0.05724565 -0.07851958
v -0.04596327 0.05387263 -0.07734194
v -0.04645475 0.02798561 -0.1087231
v -0.05312826 0.02527655 -0.106118
v 0.1103419 0.07038753 0.03206598
v 0.1119247 0.09054113 0.002391326
v 0.1166189 0.06930611 0.02977736
v 0.1184699 0.0886161 0.00102232
v 0.1111343 0.1028273 -0.04258649
v 0.1179476 0.1006792 -0.04282257
v 0.1165599 0.08784599 -0.08223536
v 0.1096641 0.08951074 -0.08365923
v 0.1141713 0.05924443 -0.1063047
v 0.1077966 0.06015318 -0.1087231
v -0.05312826 0.02527655 -0.106118
v -0.09275896 -0.05921304 -0.1147767
v -0.08651063 -0.05864693 -0.1174998
v -0.093194 -0.1392838 -0.1125603
v -0.09912013 -0.1400233 -0.1098304
v -0.08961067 -0.2263369 -0.1031349
v -0.09517993 -0.2274321 -0.1001653
v 0.1141713 0.05924443 -0.1063047
v 0.1077966 0.06015318 -0.1087231
v 0.09212545 -0.02295212 -0.1148413
v 0.08526634 -0.02415647 -0.1174998
v 0.06653194 -0.1134787 -0.1099765
v 0.06072177 -0.1145972 -0.1125603
v 0.06665439 -0.2001901 -0.1005517
v 0.0608716 -0.2011378 -0.1031349
v -0.08821458 -0.2263666 0.1091257
v -0.08842239 -0.1360719 0.09848925
v 0.06067524 -0.2011806 0.1120017
v 0.06067953 -0.1136229 0.09848925
v -0.07142208 -0.03360626 0.07782994
v 0.07804991 -0.0207238 0.07782994
v -0.03253753 0.04828063 0.03471402
v 0.1103419 0.07038753 0.03206598
v -0.03253753 0.04828063 0.03471402
v -0.0286144 0.06760093 0.002391326
v 0.1103419 0.07038753 0.03206598
v 0.1119247 0.09054113 0.002391326
v -0.03052065 0.0742019 -0.0369216
v 0.1111343 0.1028273 -0.04258649
v 0.1096641 0.08951074 -0.08365923
v -0.04003687 0.05724565 -0.07851958
v 0.1077966 0.06015318 -0.1087231
v -0.04645475 0.02798561 -0.1087231
v -0.093194 -0.1392838 -0.1125603
v -0.08961067 -0.2263369 -0.1031349
v 0.0608716 -0.2011378 -0.1031349
v 0.06072177 -0.1145972 -0.1125603
v -0.08651063 -0.05864693 -0.1174998
v 0.08526634 -0.02415647 -0.1174998
v -0.04645475 0.02798561 -0.1087231
v 0.1077966 0.06015318 -0.1087231
v -0.09365176 -0.227432 0.1063146
v -0.07938785 -0.2274321 0.06268125
v -0.09354763 -0.1373261 0.09567126
v -0.07906856 -0.1369635 0.0546596
v -0.07724717 -0.0346419 0.07507101
v -0.05717611 -0.1355674 0.003693832
v -0.05717611 -0.2274321 0.01094239
v -0.07917146 -0.2274321 -0.05122846
v -0.07310559 -0.04218062 0.04064338
v -0.0394648 0.04516023 0.03289497
v -0.03557501 0.06392624 0.003355973
v -0.07101612 -0.04362252 -0.02684881
v -0.03665196 0.07058102 -0.03649953
v -0.04596327 0.05387263 -0.07734194
v -0.09865341 -0.1358272 -0.06057182
v -0.09517993 -0.2274321 -0.1001653
v -0.09912013 -0.1400233 -0.1098304
v -0.09275896 -0.05921304 -0.1147767
v -0.08295745 -0.0443599 -0.06163226
v -0.05312826 0.02527655 -0.106118
v 0.0730813 -0.20019 0
v 0.06653204 -0.1136654 0.003693832
v 0.06899242 -0.20019 -0.05122846
v 0.0689331 -0.2001901 0.06268125
v 0.06653194 -0.1136654 -0.06057182
v 0.06665439 -0.2001901 -0.1005517
v 0.06653194 -0.1134787 -0.1099765
v 0.09212545 -0.02295212 -0.1148413
v 0.09560931 0.002009763 -0.06163225
v 0.1141713 0.05924443 -0.1063047
v 0.1165599 0.08784599 -0.08223536
v 0.1179476 0.1006792 -0.04282257
v 0.08759645 -0.0003275268 -0.02684881
v 0.1184699 0.0886161 0.00102232
v 0.09828447 0.002856023 0.04064338
v 0.1166189 0.06930611 0.02977736
v 0.08438467 -0.02117003 0.07527392
v 0.06653194 -0.1133368 0.0546596
v 0.06666059 -0.20019 0.1093639
v 0.06654081 -0.1130988 0.09576638
vt 0.3022461 0.1533203
vt 0.2817383 0.2553711
vt 0.3051758 0.1546631
vt 0.2392578 0.3291016
vt 0.2095947 0.3476563
vt 0.2410889 0.331543
vt 0.09698486 0.3117676
vt 0.09960938 0.3095703
vt 0.0881958 0.2310791
vt 0.1137085 0.3100586
vt 0.1191406 0.3129883
vt 0.1280518 0.2634277
vt 0.2687988 0.3129883
vt 0.2746582 0.3103027
vt 0.2770996 0.2634277
vt 0.1503906 0.2114258
vt 0.28125 0.2114258
vt 0.2770996 0.1599121
vt 0.1282959 0.1599121
vt 0.2746582 0.1103516
vt 0.269043 0.1077881
vt 0.1177368 0.1077881
vt 0.1121826 0.1107788
vt 0.1148682 0.06744385
vt 0.1149902 0.157959
vt 0.1203613 0.06854248
vt 0.1201172 0.1591797
vt 0.1247559 0.2597656
vt 0.130127 0.2607422
vt 0.1379395 0.3337402
vt 0.1431885 0.3361816
vt 0.2700195 0.09381104
vt 0.2700195 0.1817627
vt 0.2758789 0.09484863
vt 0.2758789 0.182373
vt 0.2697754 0.2705078
vt 0.2758789 0.2697754
vt 0.2722168 0.3532715
vt 0.2785645 0.3520508
vt 0.1561279 0.2756348
vt 0.1571045 0.2697754
vt 0.1246338 0.2734375
vt 0.196167 0.2753906
vt 0.1695557 0.3547363
vt 0.1691895 0.3579102
vt 0.2086182 0.3510742
vt 0.1273193 0.3413086
vt 0.12854 0.3383789
vt 0.09698486 0.3117676
vt 0.09960938 0.3095703
vt 0.1273193 0.1444092
vt 0.1571045 0.1428223
vt 0.1296387 0.1380615
vt 0.1584473 0.1362305
vt 0.2022705 0.1436768
vt 0.2025146 0.1368408
vt 0.2421875 0.1381836
vt 0.2435303 0.1451416
vt 0.2663574 0.140625
vt 0.2687988 0.1469727
vt 0.1311035 0.1011963
vt 0.1151733 0.1801758
vt 0.1209106 0.1798096
vt 0.1193237 0.2595215
vt 0.1134033 0.2602539
vt 0.1229248 0.3469238
vt 0.1173096 0.3481445
vt 0.2800293 0.0736084
vt 0.2736816 0.07263184
vt 0.2797852 0.1501465
vt 0.2736816 0.151123
vt 0.2797852 0.2336426
vt 0.2739258 0.2347412
vt 0.2800293 0.3208008
vt 0.2741699 0.3215332
vt 0.1203613 0.06854248
vt 0.1201172 0.1591797
vt 0.2700195 0.09381104
vt 0.2700195 0.1817627
vt 0.130127 0.2607422
vt 0.2697754 0.2705078
vt 0.1431885 0.3361816
vt 0.2722168 0.3532715
vt 0.1246338 0.2734375
vt 0.1571045 0.2697754
vt 0.1273193 0.1444092
vt 0.1571045 0.1428223
vt 0.1966553 0.270752
vt 0.2022705 0.1436768
vt 0.2435303 0.1451416
vt 0.2384033 0.2785645
vt 0.2687988 0.1469727
vt 0.2687988 0.2844238
vt 0.1193237 0.2595215
vt 0.1229248 0.3469238
vt 0.2741699 0.3215332
vt 0.2739258 0.2347412
vt 0.1209106 0.1798096
vt 0.2736816 0.151123
vt 0.1361084 0.09899902
vt 0.2736816 0.07263184
vt 0.3049316 0.06280518
vt 0.2583008 0.06280518
vt 0.3022461 0.1533203
vt 0.2612305 0.1536865
vt 0.2817383 0.2553711
vt 0.2099609 0.1551514
vt 0.2062988 0.06280518
vt 0.1547852 0.06280518
vt 0.2470703 0.2492676
vt 0.2392578 0.3291016
vt 0.2095947 0.3476563
vt 0.1793213 0.2479248
vt 0.1695557 0.3547363
vt 0.12854 0.3383789
vt 0.1453857 0.1549072
vt 0.1055908 0.06280518
vt 0.09588623 0.1506348
vt 0.09094238 0.2307129
vt 0.1442871 0.2469482
vt 0.09960938 0.3095703
vt 0.1884766 0.065979
vt 0.1846924 0.1529541
vt 0.2398682 0.065979
vt 0.1364746 0.065979
vt 0.2492676 0.1529541
vt 0.2895508 0.065979
vt 0.2988281 0.1530762
vt 0.3037109 0.2364502
vt 0.2504883 0.2602539
vt 0.295166 0.3129883
vt 0.2709961 0.3417969
vt 0.2314453 0.3547363
vt 0.2154541 0.260498
vt 0.1873779 0.3427734
vt 0.147583 0.2609863
vt 0.1585693 0.3232422
vt 0.112793 0.2409668
vt 0.1335449 0.1531982
vt 0.08953857 0.065979
vt 0.09222412 0.1534424
vn -0.4997192 0.116109 0.8583702
vn -0.4747151 0.345468 0.8095044
vn -0.5024511 0.1403407 0.8531397
vn -0.5025768 0.5682931 0.6515056
vn -0.4354831 0.842847 0.3161702
vn -0.5029396 0.60184 0.620355
vn -0.5192041 0.1888855 -0.8335163
vn -0.5156385 0.1887467 -0.8357581
vn -0.4359572 0.07887455 -0.8965044
vn 0.1665489 -0.9847091 0.05108154
vn 0.1665704 -0.9847053 0.0510848
vn 0.1736751 -0.9830973 0.05793696
vn 0.1698637 -0.9845861 0.04167394
vn 0.1803575 -0.9835532 0.00970868
vn 0.1899821 -0.9815649 0.02090428
vn 0.1849256 -0.9827524 0.0002743933
vn 0.204712 -0.9788222 0.000115357
vn 0.1898362 -0.9816055 -0.02032192
vn 0.1727743 -0.9832199 -0.05854645
vn 0.1805031 -0.9835279 -0.009556415
vn 0.1683072 -0.9847189 -0.04473993
vn 0.1649153 -0.9848313 -0.05394791
vn 0.1649186 -0.9848306 -0.05394867
vn -0.4631109 0.02587112 0.8859227
vn -0.4997192 0.116109 0.8583702
vn -0.4639568 0.02579381 0.8854823
vn -0.5024511 0.1403407 0.8531397
vn -0.4747151 0.345468 0.8095044
vn -0.4739543 0.3608625 0.8032095
vn -0.5025768 0.5682931 0.6515056
vn -0.5029396 0.60184 0.620355
vn 0.3993986 0.02687851 0.9163833
vn 0.4098033 0.1129147 0.9051583
vn 0.4002347 0.02693655 0.9160167
vn 0.4083899 0.1285613 0.9037089
vn 0.3953922 0.3241781 0.859403
vn 0.3946446 0.3346292 0.8557329
vn 0.3742172 0.5277209 0.7625433
vn 0.3725591 0.5526277 0.7455215
vn -0.4354831 0.842847 0.3161702
vn -0.4502062 0.8558068 0.2547724
vn -0.5029396 0.60184 0.620355
vn -0.5567167 0.8297017 -0.04076341
vn -0.5567167 0.8297017 -0.04076341
vn -0.5594537 0.82841 -0.0273576
vn -0.4502062 0.8558068 0.2547724
vn -0.5704527 0.74829 -0.3385937
vn -0.569019 0.7248001 -0.3884357
vn -0.5567748 0.6460316 -0.5221543
vn -0.5570168 0.6459119 -0.5220442
vn 0.3742172 0.5277209 0.7625433
vn 0.340387 0.8596659 0.3809346
vn 0.3725591 0.5526277 0.7455215
vn 0.3386821 0.8663419 0.3670777
vn 0.3096887 0.9507089 -0.01567066
vn 0.3080166 0.9511595 -0.02052248
vn 0.3064232 0.7982522 -0.518554
vn 0.3108655 0.7840666 -0.5372171
vn 0.3568195 0.5926396 -0.7221206
vn 0.3635904 0.5916971 -0.7195113
vn -0.5156385 0.1887467 -0.8357581
vn -0.4334735 0.05806275 -0.8992939
vn -0.4359572 0.07887455 -0.8965044
vn -0.4092032 -0.07983722 -0.9089437
vn -0.4091029 -0.08580651 -0.9084449
vn -0.4470434 -0.1180347 -0.8866905
vn -0.4490055 -0.1181725 -0.8856801
vn 0.3665331 0.1025653 -0.9247344
vn 0.3678643 0.1026291 -0.9241986
vn 0.4006509 0.02974766 -0.9157477
vn 0.4032533 0.01550918 -0.9149569
vn 0.4169753 -0.07381204 -0.9059158
vn 0.4175442 -0.07773416 -0.9053255
vn 0.4192353 -0.09757852 -0.9026185
vn 0.4191991 -0.09758331 -0.9026349
vn -0.004810793 0.02843973 0.9995839
vn -0.01686925 0.1107678 0.9937031
vn -0.004551142 0.0290337 0.999568
vn -0.01440363 0.1344823 0.9908113
vn -0.0298082 0.3298949 0.943547
vn -0.02935066 0.3668551 0.9298151
vn -0.05503504 0.5950945 0.8017691
vn -0.06895287 0.6093009 0.7899354
vn -0.05503504 0.5950945 0.8017691
vn -0.1229445 0.9286604 0.3499635
vn -0.06895287 0.6093009 0.7899354
vn -0.1429406 0.9138532 0.3800533
vn -0.1771847 0.9797615 -0.09312931
vn -0.1806602 0.9834825 -0.01114096
vn -0.1799328 0.8367911 -0.5171121
vn -0.1690522 0.8251868 -0.5389695
vn -0.1532792 0.6624089 -0.7332939
vn -0.138758 0.7231992 -0.6765568
vn 0.01440638 -0.08800755 -0.9960156
vn 0.01790053 -0.1068976 -0.9941089
vn 0.01752938 -0.107808 -0.9940171
vn 0.01387593 -0.08258482 -0.9964875
vn -0.002075928 0.007147482 -0.9999723
vn -0.005934084 0.03077119 -0.9995089
vn -0.02122013 0.1121685 -0.9934627
vn -0.02142113 0.1116461 -0.9935172
vn -0.9560227 -0.007280178 -0.2932022
vn -0.9350092 0.008130945 -0.3545303
vn -0.9453291 0.01451319 -0.3257949
vn -0.9318786 0.008987549 -0.362659
vn -0.9608501 0.01501619 -0.2766618
vn -0.9929724 -0.0336703 0.1134558
vn -0.9999681 -0.0003213608 0.007991957
vn -0.9064491 -0.1094639 0.4078819
vn -0.9868011 -0.02453008 -0.1600678
vn -0.9924114 0.03532254 -0.1177797
vn -0.9988258 0.0398594 -0.02753308
vn -0.9868556 0.02106368 0.160226
vn -0.9952868 0.04036377 0.08817492
vn -0.9824268 0.0777948 0.1696637
vn -0.9344678 -0.01920294 0.3555296
vn -0.9648089 -0.1342964 0.2260713
vn -0.999874 -0.01191895 0.01048918
vn -0.9769397 0.1409094 0.1604164
vn -0.9534591 0.1555495 0.2583024
vn -0.9819083 0.1362727 0.1314755
vn 0.9971412 0.07554387 -0.001588233
vn 0.9998279 0.01854722 0.0003224231
vn 0.9981071 0.04183183 -0.04508232
vn 0.9977804 0.04271395 0.05108613
vn 0.999954 0.008987337 -0.003366901
vn 0.9993537 0.01623442 -0.03207368
vn 0.9999998 0.0006813078 2.575227E-06
vn 0.9999996 -0.0008190045 0.0003643245
vn 0.9999133 -0.01273553 -0.003342887
vn 0.9992755 -0.02686065 -0.02696481
vn 0.9987665 -0.03955933 -0.03000686
vn 0.9988785 -0.04256647 -0.02073
vn 0.9997777 -0.02103689 -0.001389768
vn 0.9987436 -0.04909781 -0.01003643
vn 0.9997479 -0.02211555 -0.003863753
vn 0.9988402 -0.03749188 0.03021044
vn 0.9999799 -0.005491937 -0.003198056
vn 0.9999512 0.009200955 0.003584451
vn 0.999159 0.01962133 0.03600469
vn 0.9999998 0.0007643455 -0.0002201852
g Strap_0
f 3/3/3 2/2/2 1/1/1
f 6/6/6 5/5/5 4/4/4
f 9/9/9 8/8/8 7/7/7
f 12/12/12 11/11/11 10/10/10
f 13/13/13 11/11/11 12/12/12
f 13/13/13 12/12/12 14/14/14
f 14/14/14 12/12/12 15/15/15
f 15/15/15 12/12/12 16/16/16
f 15/15/15 16/16/16 17/17/17
f 18/18/18 17/17/17 16/16/16
f 18/18/18 16/16/16 19/19/19
f 19/19/19 20/20/20 18/18/18
f 19/19/19 21/21/21 20/20/20
f 21/21/21 19/19/19 22/22/22
f 22/22/22 19/19/19 23/23/23
f 26/26/26 25/25/25 24/24/24
f 26/26/26 27/27/27 25/25/25
f 27/27/27 29/29/29 28/28/28
f 30/30/30 28/28/28 29/29/29
f 30/30/30 29/29/29 31/31/31
f 34/34/34 33/33/33 32/32/32
f 34/34/34 35/35/35 33/33/33
f 35/35/35 36/36/36 33/33/33
f 35/35/35 37/37/37 36/36/36
f 38/38/38 36/36/36 37/37/37
f 38/38/38 37/37/37 39/39/39
f 42/42/42 41/41/41 40/40/40
f 41/41/41 43/43/43 40/40/40
f 46/46/46 45/45/45 44/44/44
f 47/47/47 44/44/44 45/45/45
f 47/47/47 48/48/48 44/44/44
f 48/48/48 47/47/47 49/49/49
f 48/48/48 49/49/49 50/50/50
f 53/53/53 52/52/52 51/51/51
f 53/53/53 54/54/54 52/52/52
f 54/54/54 55/55/55 52/52/52
f 54/54/54 56/56/56 55/55/55
f 57/57/57 55/55/55 56/56/56
f 57/57/57 58/58/58 55/55/55
f 58/58/58 57/57/57 59/59/59
f 58/58/58 59/59/59 60/60/60
f 63/63/63 62/62/62 61/61/61
f 64/64/64 62/62/62 63/63/63
f 64/64/64 65/65/65 62/62/62
f 66/66/66 65/65/65 64/64/64
f 66/66/66 67/67/67 65/65/65
f 70/70/70 69/69/69 68/68/68
f 70/70/70 71/71/71 69/69/69
f 72/72/72 71/71/71 70/70/70
f 72/72/72 73/73/73 71/71/71
f 74/74/74 73/73/73 72/72/72
f 74/74/74 75/75/75 73/73/73
f 78/78/78 77/77/77 76/76/76
f 78/78/78 79/79/79 77/77/77
f 79/79/79 80/80/80 77/77/77
f 79/79/79 81/81/81 80/80/80
f 81/81/81 82/82/82 80/80/80
f 81/81/81 83/83/83 82/82/82
f 86/86/86 85/85/85 84/84/84
f 86/86/86 87/87/87 85/85/85
f 87/87/87 88/88/88 85/85/85
f 87/87/87 89/89/89 88/88/88
f 90/90/90 88/88/88 89/89/89
f 90/90/90 91/91/91 88/88/88
f 92/92/92 91/91/91 90/90/90
f 92/92/92 93/93/93 91/91/91
f 96/96/96 95/95/95 94/94/94
f 96/96/96 94/94/94 97/97/97
f 97/97/97 94/94/94 98/98/98
f 97/97/97 98/98/98 99/99/99
f 99/99/99 98/98/98 100/100/100
f 99/99/99 100/100/100 101/101/101
f 104/104/104 103/103/103 102/102/102
f 104/104/104 105/105/105 103/103/103
f 106/106/106 105/105/105 104/104/104
f 103/103/103 105/105/105 107/107/107
f 103/103/103 107/107/107 108/108/108
f 107/107/107 109/109/109 108/108/108
f 106/106/106 110/110/110 105/105/105
f 110/110/110 107/107/107 105/105/105
f 111/111/111 110/110/110 106/106/106
f 111/111/111 112/112/112 110/110/110
f 112/112/112 113/113/113 110/110/110
f 110/110/110 113/113/113 107/107/107
f 112/112/112 114/114/114 113/113/113
f 113/113/113 114/114/114 115/115/115
f 107/107/107 116/116/116 109/109/109
f 113/113/113 116/116/116 107/107/107
f 117/117/117 109/109/109 116/116/116
f 117/117/117 116/116/116 118/118/118
f 116/116/116 119/119/119 118/118/118
f 113/113/113 115/115/115 120/120/120
f 113/113/113 120/120/120 116/116/116
f 116/116/116 120/120/120 119/119/119
f 120/120/120 115/115/115 121/121/121
f 120/120/120 121/121/121 119/119/119
f 124/124/124 123/123/123 122/122/122
f 125/125/125 122/122/122 123/123/123
f 124/124/124 126/126/126 123/123/123
f 127/127/127 126/126/126 124/124/124
f 127/127/127 128/128/128 126/126/126
f 126/126/126 128/128/128 129/129/129
f 126/126/126 129/129/129 130/130/130
f 130/130/130 129/129/129 131/131/131
f 130/130/130 131/131/131 132/132/132
f 130/130/130 132/132/132 133/133/133
f 126/126/126 130/130/130 134/134/134
f 130/130/130 133/133/133 134/134/134
f 126/126/126 134/134/134 123/123/123
f 134/134/134 133/133/133 135/135/135
f 134/134/134 135/135/135 136/136/136
f 123/123/123 134/134/134 136/136/136
f 136/136/136 135/135/135 137/137/137
f 136/136/136 137/137/137 138/138/138
f 125/125/125 123/123/123 139/139/139
f 123/123/123 136/136/136 139/139/139
f 139/139/139 136/136/136 138/138/138
f 140/140/140 125/125/125 139/139/139
f 139/139/139 138/138/138 141/141/141
f 140/140/140 139/139/139 141/141/141
