g Strap
v 0.06089621 -0.6881245 0.2545637
v 0.0804647 -0.5789366 0.1968843
v 0.0660414 -0.6868658 0.2582859
v 0.100005 -0.5087649 0.1511392
v 0.09857694 -0.4922939 0.1196775
v 0.1054576 -0.5064151 0.1526168
v 0.09424923 -0.5245101 0.006996059
v 0.08499155 -0.5273954 0.009601187
v 0.08836172 -0.6044284 -0.0008560179
v 0.03298557 -0.7844411 0.2342382
v 0.03903428 -0.7832391 0.2377057
v 0.04724948 -0.7844412 0.1850313
v 0.1882686 -0.7579762 0.2398515
v 0.1944995 -0.7569306 0.2375481
v 0.196453 -0.757002 0.1847994
v 0.0691056 -0.7845206 0.132816
v 0.2015067 -0.7567995 0.1227741
v 0.1968313 -0.7569306 0.07604288
v 0.04669363 -0.7846137 0.07223351
v 0.1943406 -0.7569648 0.02616923
v 0.1882743 -0.7579759 0.02314353
v 0.03779202 -0.7831749 0.0147372
v 0.03170428 -0.784386 0.01809178
v 0.03298557 -0.7844411 0.2342382
v 0.06089621 -0.6881245 0.2545637
v 0.03903428 -0.7832391 0.2377057
v 0.0660414 -0.6868658 0.2582859
v 0.0804647 -0.5789366 0.1968843
v 0.08616232 -0.5781981 0.2000576
v 0.100005 -0.5087649 0.1511392
v 0.1054576 -0.5064151 0.1526168
v 0.1882686 -0.7579762 0.2398515
v 0.2196466 -0.663385 0.2550019
v 0.1944995 -0.7569306 0.2375481
v 0.2263649 -0.6626592 0.2510013
v 0.2412303 -0.5708361 0.2016529
v 0.2486754 -0.5712711 0.1988356
v 0.2630743 -0.4879828 0.1533525
v 0.2709083 -0.4889188 0.1514148
v 0.09857694 -0.4922939 0.1196775
v 0.105043 -0.4892002 0.1185145
v 0.1054576 -0.5064151 0.1526168
v 0.09816509 -0.4857827 0.07921443
v 0.09816509 -0.4857827 0.07921443
v 0.1038736 -0.4826901 0.07879753
v 0.105043 -0.4892002 0.1185145
v 0.0952308 -0.4982052 0.03719955
v 0.09017909 -0.5009698 0.03837719
v 0.09424923 -0.5245101 0.006996059
v 0.08499155 -0.5273954 0.009601187
v 0.2630743 -0.4879828 0.1533525
v 0.2568042 -0.470666 0.1195574
v 0.2709083 -0.4889188 0.1514148
v 0.2638165 -0.4726575 0.118223
v 0.2553577 -0.4591146 0.073077
v 0.2630542 -0.4612359 0.07280967
v 0.2647156 -0.4726829 0.03348376
v 0.2567377 -0.4710617 0.03205989
v 0.2645835 -0.4992379 0.009414458
v 0.2564927 -0.4984974 0.006996035
v 0.08499155 -0.5273954 0.009601187
v 0.08074298 -0.6053367 0.001347721
v 0.08836172 -0.6044284 -0.0008560179
v 0.07696678 -0.6865718 0.002845239
v 0.07059958 -0.6874098 0.004801452
v 0.03779202 -0.7831749 0.0147372
v 0.03170428 -0.784386 0.01809178
v 0.2645835 -0.4992379 0.009414458
v 0.2564927 -0.4984974 0.006996035
v 0.2564936 -0.5732626 0.004997027
v 0.2498842 -0.5740696 0.002542531
v 0.2327477 -0.6615517 0.01744171
v 0.2270398 -0.6626608 0.01479486
v 0.1943406 -0.7569648 0.02616923
v 0.1882743 -0.7579759 0.02314353
v 0.03903428 -0.7832391 0.2377057
v 0.0660414 -0.6868658 0.2582859
v 0.1882686 -0.7579762 0.2398515
v 0.2196466 -0.663385 0.2550019
v 0.08616232 -0.5781981 0.2000576
v 0.2412303 -0.5708361 0.2016529
v 0.1054576 -0.5064151 0.1526168
v 0.2630743 -0.4879828 0.1533525
v 0.1054576 -0.5064151 0.1526168
v 0.105043 -0.4892002 0.1185145
v 0.2630743 -0.4879828 0.1533525
v 0.2568042 -0.470666 0.1195574
v 0.1038736 -0.4826901 0.07879753
v 0.2553577 -0.4591146 0.073077
v 0.2567377 -0.4710617 0.03205989
v 0.0952308 -0.4982052 0.03719955
v 0.2564927 -0.4984974 0.006996035
v 0.09424923 -0.5245101 0.006996059
v 0.07696678 -0.6865718 0.002845239
v 0.03779202 -0.7831749 0.0147372
v 0.1882743 -0.7579759 0.02314353
v 0.2270398 -0.6626608 0.01479486
v 0.08836172 -0.6044284 -0.0008560179
v 0.2498842 -0.5740696 0.002542531
v 0.09424923 -0.5245101 0.006996059
v 0.2564927 -0.4984974 0.006996035
v 0.03298557 -0.7844411 0.2342382
v 0.04724948 -0.7844412 0.1850313
v 0.06089621 -0.6881245 0.2545637
v 0.08038785 -0.6865758 0.1957057
v 0.0804647 -0.5789366 0.1968843
v 0.1028666 -0.6850807 0.1244394
v 0.0691056 -0.7845206 0.132816
v 0.04669363 -0.7846137 0.07223351
v 0.08372497 -0.5864389 0.1626158
v 0.100005 -0.5087649 0.1511392
v 0.09857694 -0.4922939 0.1196775
v 0.08601501 -0.5878488 0.08851537
v 0.09816509 -0.4857827 0.07921443
v 0.09017909 -0.5009698 0.03837719
v 0.06557929 -0.6844395 0.04738891
v 0.03170428 -0.784386 0.01809178
v 0.07059958 -0.6874098 0.004801452
v 0.08074298 -0.6053367 0.001347721
v 0.07828273 -0.588908 0.05103543
v 0.08499155 -0.5273954 0.009601187
v 0.2015067 -0.7567995 0.1227741
v 0.2222698 -0.664175 0.1259745
v 0.1968313 -0.7569306 0.07604288
v 0.196453 -0.757002 0.1847994
v 0.2270636 -0.6631042 0.06397473
v 0.1943406 -0.7569648 0.02616923
v 0.2327477 -0.6615517 0.01744171
v 0.2564936 -0.5732626 0.004997027
v 0.2586271 -0.5500059 0.05217171
v 0.2645835 -0.4992379 0.009414458
v 0.2647156 -0.4726829 0.03348376
v 0.2630542 -0.4612359 0.07280967
v 0.2498159 -0.5520753 0.08851367
v 0.2638165 -0.4726575 0.118223
v 0.2610841 -0.5493608 0.1631146
v 0.2709083 -0.4889188 0.1514148
v 0.2486754 -0.5712711 0.1988356
v 0.2319955 -0.6616432 0.1931077
v 0.1944995 -0.7569306 0.2375481
v 0.2263649 -0.6626592 0.2510013
vt 0.3022461 0.1533203
vt 0.2817383 0.2553711
vt 0.3051758 0.1546631
vt 0.2392578 0.3291016
vt 0.2095947 0.3476563
vt 0.2410889 0.331543
vt 0.09698486 0.3117676
vt 0.09960938 0.3095703
vt 0.0881958 0.2310791
vt 0.1137085 0.3100586
vt 0.1191406 0.3129883
vt 0.1280518 0.2634277
vt 0.2687988 0.3129883
vt 0.2746582 0.3103027
vt 0.2770996 0.2634277
vt 0.1503906 0.2114258
vt 0.28125 0.2114258
vt 0.2770996 0.1599121
vt 0.1282959 0.1599121
vt 0.2746582 0.1103516
vt 0.269043 0.1077881
vt 0.1177368 0.1077881
vt 0.1121826 0.1107788
vt 0.1148682 0.06744385
vt 0.1149902 0.157959
vt 0.1203613 0.06854248
vt 0.1201172 0.1591797
vt 0.1247559 0.2597656
vt 0.130127 0.2607422
vt 0.1379395 0.3337402
vt 0.1431885 0.3361816
vt 0.2700195 0.09381104
vt 0.2700195 0.1817627
vt 0.2758789 0.09484863
vt 0.2758789 0.182373
vt 0.2697754 0.2705078
vt 0.2758789 0.2697754
vt 0.2722168 0.3532715
vt 0.2785645 0.3520508
vt 0.1561279 0.2756348
vt 0.1571045 0.2697754
vt 0.1246338 0.2734375
vt 0.196167 0.2753906
vt 0.1695557 0.3547363
vt 0.1691895 0.3579102
vt 0.2086182 0.3510742
vt 0.1273193 0.3413086
vt 0.12854 0.3383789
vt 0.09698486 0.3117676
vt 0.09960938 0.3095703
vt 0.1273193 0.1444092
vt 0.1571045 0.1428223
vt 0.1296387 0.1380615
vt 0.1584473 0.1362305
vt 0.2022705 0.1436768
vt 0.2025146 0.1368408
vt 0.2421875 0.1381836
vt 0.2435303 0.1451416
vt 0.2663574 0.140625
vt 0.2687988 0.1469727
vt 0.1311035 0.1011963
vt 0.1151733 0.1801758
vt 0.1209106 0.1798096
vt 0.1193237 0.2595215
vt 0.1134033 0.2602539
vt 0.1229248 0.3469238
vt 0.1173096 0.3481445
vt 0.2800293 0.0736084
vt 0.2736816 0.07263184
vt 0.2797852 0.1501465
vt 0.2736816 0.151123
vt 0.2797852 0.2336426
vt 0.2739258 0.2347412
vt 0.2800293 0.3208008
vt 0.2741699 0.3215332
vt 0.1203613 0.06854248
vt 0.1201172 0.1591797
vt 0.2700195 0.09381104
vt 0.2700195 0.1817627
vt 0.130127 0.2607422
vt 0.2697754 0.2705078
vt 0.1431885 0.3361816
vt 0.2722168 0.3532715
vt 0.1246338 0.2734375
vt 0.1571045 0.2697754
vt 0.1273193 0.1444092
vt 0.1571045 0.1428223
vt 0.1966553 0.270752
vt 0.2022705 0.1436768
vt 0.2435303 0.1451416
vt 0.2384033 0.2785645
vt 0.2687988 0.1469727
vt 0.2687988 0.2844238
vt 0.1193237 0.2595215
vt 0.1229248 0.3469238
vt 0.2741699 0.3215332
vt 0.2739258 0.2347412
vt 0.1209106 0.1798096
vt 0.2736816 0.151123
vt 0.1361084 0.09899902
vt 0.2736816 0.07263184
vt 0.3049316 0.06280518
vt 0.2583008 0.06280518
vt 0.3022461 0.1533203
vt 0.2612305 0.1536865
vt 0.2817383 0.2553711
vt 0.2099609 0.1551514
vt 0.2062988 0.06280518
vt 0.1547852 0.06280518
vt 0.2470703 0.2492676
vt 0.2392578 0.3291016
vt 0.2095947 0.3476563
vt 0.1793213 0.2479248
vt 0.1695557 0.3547363
vt 0.12854 0.3383789
vt 0.1453857 0.1549072
vt 0.1055908 0.06280518
vt 0.09588623 0.1506348
vt 0.09094238 0.2307129
vt 0.1442871 0.2469482
vt 0.09960938 0.3095703
vt 0.1884766 0.065979
vt 0.1846924 0.1529541
vt 0.2398682 0.065979
vt 0.1364746 0.065979
vt 0.2492676 0.1529541
vt 0.2895508 0.065979
vt 0.2988281 0.1530762
vt 0.3037109 0.2364502
vt 0.2504883 0.2602539
vt 0.295166 0.3129883
vt 0.2709961 0.3417969
vt 0.2314453 0.3547363
vt 0.2154541 0.260498
vt 0.1873779 0.3427734
vt 0.147583 0.2609863
vt 0.1585693 0.3232422
vt 0.112793 0.2409668
vt 0.1335449 0.1531982
vt 0.08953857 0.065979
vt 0.09222412 0.1534424
vn -0.6054459 0.2343438 0.7606039
vn -0.4686554 0.5186606 0.7150897
vn -0.6028478 0.3199106 0.7309116
vn -0.4456208 0.6364208 0.6295956
vn -0.3705724 0.8764205 0.3075114
vn -0.4412192 0.6624782 0.6053497
vn -0.3021914 0.1152332 -0.9462567
vn -0.3015961 0.1152842 -0.9464403
vn -0.2849508 0.06366337 -0.9564257
vn 0.1677866 -0.9846228 0.04863895
vn 0.1660998 -0.9849213 0.04838249
vn 0.1737226 -0.9832411 0.05529346
vn 0.1692433 -0.9847605 0.04004528
vn 0.1806083 -0.9835157 0.008806381
vn 0.1911271 -0.981393 0.01839177
vn 0.186265 -0.9824975 0.002007667
vn 0.2048846 -0.978786 -0.0006069011
vn 0.1893218 -0.9816814 -0.02141815
vn 0.1754326 -0.9830548 -0.0531664
vn 0.1812634 -0.9833909 -0.009262226
vn 0.1707081 -0.9844327 -0.0418454
vn 0.1677029 -0.9845382 -0.05059967
vn 0.1679519 -0.9844938 -0.05063816
vn -0.4907 -0.04147291 0.8703411
vn -0.6054459 0.2343438 0.7606039
vn -0.4930805 -0.04069359 0.8690315
vn -0.6028478 0.3199106 0.7309116
vn -0.4686554 0.5186606 0.7150897
vn -0.4657782 0.5200629 0.7159505
vn -0.4456208 0.6364208 0.6295956
vn -0.4412192 0.6624782 0.6053497
vn 0.3732032 -0.2661488 0.8887543
vn 0.5126554 -0.05560991 0.8567917
vn 0.3798713 -0.2673461 0.8855642
vn 0.4956337 0.1239675 0.859639
vn 0.3466192 0.4009478 0.8479952
vn 0.3424634 0.4028267 0.8487929
vn 0.2634323 0.56908 0.7789425
vn 0.2630064 0.6003942 0.7552182
vn -0.3705724 0.8764205 0.3075114
vn -0.3809761 0.8868693 0.2613812
vn -0.4412192 0.6624782 0.6053497
vn -0.4763914 0.8780758 -0.04509941
vn -0.4763914 0.8780758 -0.04509941
vn -0.4777396 0.8780448 -0.02831964
vn -0.3809761 0.8868693 0.2613812
vn -0.5094103 0.7788761 -0.3658594
vn -0.4967156 0.7602756 -0.4186341
vn -0.3930436 0.7103715 -0.5838571
vn -0.3867894 0.7129041 -0.5849458
vn 0.2634323 0.56908 0.7789425
vn 0.3040823 0.9083768 0.2870288
vn 0.2630064 0.6003942 0.7552182
vn 0.3092583 0.9074094 0.2845479
vn 0.2673336 0.963584 0.006219738
vn 0.2655491 0.9640849 -0.004890482
vn 0.25719 0.8352476 -0.4860193
vn 0.2578815 0.8306687 -0.4934435
vn 0.2704276 0.6477404 -0.7122509
vn 0.2720083 0.6477149 -0.7116719
vn -0.3015961 0.1152842 -0.9464403
vn -0.2831562 0.04807413 -0.9578682
vn -0.2849508 0.06366337 -0.9564257
vn -0.2928697 -0.001886652 -0.9561505
vn -0.2974564 0.0009789756 -0.954735
vn -0.4882796 0.077087 -0.8692759
vn -0.4931276 0.07905051 -0.866358
vn 0.2884432 0.02559489 -0.9571549
vn 0.2912737 0.02557204 -0.9562979
vn 0.353917 -0.08823195 -0.9311057
vn 0.3608416 -0.1311402 -0.9233611
vn 0.4443559 -0.2432228 -0.862201
vn 0.4472523 -0.2498364 -0.8588056
vn 0.4649009 -0.2631605 -0.8453484
vn 0.4653664 -0.2632863 -0.8450529
vn 0.02231645 -0.2147628 0.9764113
vn -0.00865171 0.1177362 0.9930072
vn 0.03885709 -0.187643 0.9814683
vn -0.01445692 0.2959557 0.9550923
vn -0.04259619 0.5136669 0.8569317
vn -0.04535845 0.5173013 0.8546005
vn -0.06313513 0.6508794 0.7565513
vn -0.08110002 0.6503923 0.7552568
vn -0.06313513 0.6508794 0.7565513
vn -0.1149413 0.9433988 0.3111061
vn -0.08110002 0.6503923 0.7552568
vn -0.125749 0.9298078 0.3458968
vn -0.1522797 0.9839455 -0.09307089
vn -0.1541493 0.9879943 -0.01026224
vn -0.1539716 0.8468126 -0.5091181
vn -0.1465005 0.8497517 -0.5064185
vn -0.1334338 0.6820534 -0.719026
vn -0.1203369 0.7505516 -0.6497626
vn 0.0875059 -0.1140092 -0.9896185
vn 0.08079797 -0.1539909 -0.9847632
vn 0.09244458 -0.136286 -0.9863469
vn 0.07289955 -0.1260443 -0.9893425
vn 0.04540221 -0.01179244 -0.9988992
vn 0.01644531 -0.01966792 -0.9996713
vn -0.0004343408 0.08814847 -0.9961073
vn -0.009565533 0.05965926 -0.998173
vn -0.9101459 0.3194178 -0.2638307
vn -0.9002442 0.3126635 -0.3029884
vn -0.9343368 0.1921956 -0.3001257
vn -0.9419897 0.1618892 -0.294019
vn -0.9836272 0.05513385 -0.1715746
vn -0.9895059 0.1216414 0.07798254
vn -0.9471713 0.3204489 -0.0133768
vn -0.9014316 0.2777415 0.3320853
vn -0.9953437 0.005544412 -0.09622942
vn -0.9698803 0.2190287 0.1065772
vn -0.9895509 0.1427442 0.02032631
vn -0.9919614 0.03295409 0.1221745
vn -0.9881718 0.125645 0.08791979
vn -0.9827047 0.1367575 0.1248553
vn -0.9509658 0.1929206 0.2417552
vn -0.9461829 0.2671406 0.1826852
vn -0.9602123 0.2469493 -0.1304156
vn -0.9902169 0.1070511 -0.08950286
vn -0.9902749 0.1238035 0.06346917
vn -0.9934541 0.1139316 0.008286024
vn 0.9757734 -0.2187795 0.001332785
vn 0.9610225 -0.2736685 -0.03925841
vn 0.9593959 -0.279866 -0.03513481
vn 0.9514688 -0.3075181 0.01182199
vn 0.9577672 -0.2764562 0.07908166
vn 0.9451618 -0.3265177 -0.007441885
vn 0.9477386 -0.3010208 0.1057255
vn 0.9732192 -0.2194479 0.06846336
vn 0.9756585 -0.1782176 0.1277855
vn 0.995805 -0.08101383 0.04253206
vn 0.996073 -0.06352859 0.06166679
vn 0.9931026 -0.1136885 0.02867392
vn 0.9782076 -0.2076257 -0.001167743
vn 0.9824211 -0.1447012 -0.1179421
vn 0.9764705 -0.2106677 -0.04609292
vn 0.9529321 -0.1991417 -0.2286109
vn 0.9652314 -0.1823345 0.1873029
vn 0.9575627 -0.2872036 -0.02424637
vn 0.9373437 -0.3444596 0.05229339
vn 0.957423 -0.2748553 0.08829315
g Strap_0
f 3/3/3 2/2/2 1/1/1
f 6/6/6 5/5/5 4/4/4
f 9/9/9 8/8/8 7/7/7
f 12/12/12 11/11/11 10/10/10
f 13/13/13 11/11/11 12/12/12
f 13/13/13 12/12/12 14/14/14
f 14/14/14 12/12/12 15/15/15
f 15/15/15 12/12/12 16/16/16
f 15/15/15 16/16/16 17/17/17
f 18/18/18 17/17/17 16/16/16
f 18/18/18 16/16/16 19/19/19
f 19/19/19 20/20/20 18/18/18
f 19/19/19 21/21/21 20/20/20
f 21/21/21 19/19/19 22/22/22
f 22/22/22 19/19/19 23/23/23
f 26/26/26 25/25/25 24/24/24
f 26/26/26 27/27/27 25/25/25
f 27/27/27 29/29/29 28/28/28
f 30/30/30 28/28/28 29/29/29
f 30/30/30 29/29/29 31/31/31
f 34/34/34 33/33/33 32/32/32
f 34/34/34 35/35/35 33/33/33
f 35/35/35 36/36/36 33/33/33
f 35/35/35 37/37/37 36/36/36
f 38/38/38 36/36/36 37/37/37
f 38/38/38 37/37/37 39/39/39
f 42/42/42 41/41/41 40/40/40
f 41/41/41 43/43/43 40/40/40
f 46/46/46 45/45/45 44/44/44
f 47/47/47 44/44/44 45/45/45
f 47/47/47 48/48/48 44/44/44
f 48/48/48 47/47/47 49/49/49
f 48/48/48 49/49/49 50/50/50
f 53/53/53 52/52/52 51/51/51
f 53/53/53 54/54/54 52/52/52
f 54/54/54 55/55/55 52/52/52
f 54/54/54 56/56/56 55/55/55
f 57/57/57 55/55/55 56/56/56
f 57/57/57 58/58/58 55/55/55
f 58/58/58 57/57/57 59/59/59
f 58/58/58 59/59/59 60/60/60
f 63/63/63 62/62/62 61/61/61
f 64/64/64 62/62/62 63/63/63
f 64/64/64 65/65/65 62/62/62
f 66/66/66 65/65/65 64/64/64
f 66/66/66 67/67/67 65/65/65
f 70/70/70 69/69/69 68/68/68
f 70/70/70 71/71/71 69/69/69
f 72/72/72 71/71/71 70/70/70
f 72/72/72 73/73/73 71/71/71
f 74/74/74 73/73/73 72/72/72
f 74/74/74 75/75/75 73/73/73
f 78/78/78 77/77/77 76/76/76
f 78/78/78 79/79/79 77/77/77
f 79/79/79 80/80/80 77/77/77
f 79/79/79 81/81/81 80/80/80
f 81/81/81 82/82/82 80/80/80
f 81/81/81 83/83/83 82/82/82
f 86/86/86 85/85/85 84/84/84
f 86/86/86 87/87/87 85/85/85
f 87/87/87 88/88/88 85/85/85
f 87/87/87 89/89/89 88/88/88
f 90/90/90 88/88/88 89/89/89
f 90/90/90 91/91/91 88/88/88
f 92/92/92 91/91/91 90/90/90
f 92/92/92 93/93/93 91/91/91
f 96/96/96 95/95/95 94/94/94
f 96/96/96 94/94/94 97/97/97
f 97/97/97 94/94/94 98/98/98
f 97/97/97 98/98/98 99/99/99
f 99/99/99 98/98/98 100/100/100
f 99/99/99 100/100/100 101/101/101
f 104/104/104 103/103/103 102/102/102
f 104/104/104 105/105/105 103/103/103
f 106/106/106 105/105/105 104/104/104
f 103/103/103 105/105/105 107/107/107
f 103/103/103 107/107/107 108/108/108
f 107/107/107 109/109/109 108/108/108
f 106/106/106 110/110/110 105/105/105
f 110/110/110 107/107/107 105/105/105
f 111/111/111 110/110/110 106/106/106
f 111/111/111 112/112/112 110/110/110
f 112/112/112 113/113/113 110/110/110
f 110/110/110 113/113/113 107/107/107
f 112/112/112 114/114/114 113/113/113
f 113/113/113 114/114/114 115/115/115
f 107/107/107 116/116/116 109/109/109
f 113/113/113 116/116/116 107/107/107
f 117/117/117 109/109/109 116/116/116
f 117/117/117 116/116/116 118/118/118
f 116/116/116 119/119/119 118/118/118
f 113/113/113 115/115/115 120/120/120
f 113/113/113 120/120/120 116/116/116
f 116/116/116 120/120/120 119/119/119
f 120/120/120 115/115/115 121/121/121
f 120/120/120 121/121/121 119/119/119
f 124/124/124 123/123/123 122/122/122
f 125/125/125 122/122/122 123/123/123
f 124/124/124 126/126/126 123/123/123
f 127/127/127 126/126/126 124/124/124
f 127/127/127 128/128/128 126/126/126
f 126/126/126 128/128/128 129/129/129
f 126/126/126 129/129/129 130/130/130
f 130/130/130 129/129/129 131/131/131
f 130/130/130 131/131/131 132/132/132
f 130/130/130 132/132/132 133/133/133
f 126/126/126 130/130/130 134/134/134
f 130/130/130 133/133/133 134/134/134
f 126/126/126 134/134/134 123/123/123
f 134/134/134 133/133/133 135/135/135
f 134/134/134 135/135/135 136/136/136
f 123/123/123 134/134/134 136/136/136
f 136/136/136 135/135/135 137/137/137
f 136/136/136 137/137/137 138/138/138
f 125/125/125 123/123/123 139/139/139
f 123/123/123 136/136/136 139/139/139
f 139/139/139 136/136/136 138/138/138
f 140/140/140 125/125/125 139/139/139
f 139/139/139 138/138/138 141/141/141
f 140/140/140 139/139/139 141/141/141
