g Walls_BBoard
v -4.690307 -3.487568 -3.609036
v -4.690306 -3.487568 -4.690306
v 4.690306 -3.487568 -4.690306
v 4.690306 -3.487568 -3.609036
v -4.690307 -3.487568 -2.625266
v 4.690307 -3.487568 -2.625266
v -4.690306 -3.487568 -1.517704
v 4.690306 -3.487568 -1.517704
v -4.690306 -3.487568 -0.5236183
v 4.690307 -3.487568 -0.5236183
v -4.690306 -3.487568 0.5272056
v 4.690306 -3.487568 0.5272056
v -4.690306 -3.487568 1.526449
v 4.690306 -3.487568 1.526449
v -4.690306 -3.487568 2.628854
v 4.690307 -3.487568 2.628854
v -4.690307 -3.487568 3.602307
v 4.690307 -3.487568 3.602307
v -0.4608165 -3.487568 3.602307
v -1.179422 -3.487568 4.690306
v -4.690306 -3.487568 4.690306
v 0.3425861 -3.487568 4.690306
v 0.6114109 -3.487568 4.690306
v 0.8875059 -3.487568 3.602308
v 1.391074 -3.487568 4.690306
v 4.690306 -3.487568 4.690306
v -4.690306 -0.7913431 -4.690306
v -4.690306 3.487568 -4.690306
v 4.690306 3.487568 -4.690306
v 4.690306 -0.7913431 -4.690306
v -4.690306 -2.415359 -4.690306
v 4.690306 -2.415359 -4.690306
v 4.690306 -3.487568 -4.690306
v -4.690306 -3.487568 -4.690306
vt 0.402832 1
vt 0.375 1
vt 0.375 0.75
vt 0.402832 0.75
vt 0.4306641 1
vt 0.4306641 0.75
vt 0.458252 1
vt 0.458252 0.75
vt 0.486084 1
vt 0.486084 0.75
vt 0.5136719 1
vt 0.5136719 0.75
vt 0.5415039 1
vt 0.5415039 0.75
vt 0.5693359 1
vt 0.5693359 0.75
vt 0.597168 1
vt 0.597168 0.75
vt 0.597168 0.875
vt 0.625 0.9165039
vt 0.625 1
vt 0.625 0.8334961
vt 0.625 0.8056641
vt 0.597168 0.7915039
vt 0.625 0.777832
vt 0.625 0.75
vt 0.375 0.166626
vt 0.375 0.25
vt 0.125 0.25
vt 0.125 0.166626
vt 0.375 0.08331299
vt 0.125 0.08331299
vt 0.125 0
vt 0.375 0
vn 0 1 0
vn 0 1 0
vn 0 1 0
vn 0 1 0
vn 0 1 0
vn 0 1 0
vn 0 1 0
vn 0 1 0
vn 0 1 0
vn 0 1 0
vn 0 1 0
vn 0 1 0
vn 0 1 0
vn 0 1 0
vn 0 1 0
vn 0 1 0
vn 0 1 0
vn 0 1 0
vn 0 1 0
vn 0 1 0
vn 0 1 0
vn 0 1 0
vn 0 1 0
vn 0 1 0
vn 0 1 0
vn 0 1 0
vn 0 0 1
vn 0 0 1
vn 0 0 1
vn 0 0 1
vn 0 0 1
vn 0 0 1
vn 0 0 1
vn 0 0 1
g Walls_BBoard_0
f 3/3/3 2/2/2 1/1/1
f 4/4/4 3/3/3 1/1/1
f 4/4/4 1/1/1 5/5/5
f 6/6/6 4/4/4 5/5/5
f 6/6/6 5/5/5 7/7/7
f 8/8/8 6/6/6 7/7/7
f 8/8/8 7/7/7 9/9/9
f 10/10/10 8/8/8 9/9/9
f 10/10/10 9/9/9 11/11/11
f 12/12/12 10/10/10 11/11/11
f 12/12/12 11/11/11 13/13/13
f 14/14/14 12/12/12 13/13/13
f 14/14/14 13/13/13 15/15/15
f 16/16/16 14/14/14 15/15/15
f 16/16/16 15/15/15 17/17/17
f 17/17/17 18/18/18 16/16/16
f 17/17/17 19/19/19 18/18/18
f 19/19/19 17/17/17 20/20/20
f 17/17/17 21/21/21 20/20/20
f 19/19/19 20/20/20 22/22/22
f 19/19/19 22/22/22 23/23/23
f 24/24/24 19/19/19 23/23/23
f 19/19/19 24/24/24 18/18/18
f 24/24/24 23/23/23 25/25/25
f 24/24/24 25/25/25 18/18/18
f 25/25/25 26/26/26 18/18/18
f 29/29/29 28/28/28 27/27/27
f 30/30/30 29/29/29 27/27/27
f 30/30/30 27/27/27 31/31/31
f 32/32/32 30/30/30 31/31/31
f 32/32/32 31/31/31 33/33/33
f 31/31/31 34/34/34 33/33/33
